G04 #@! TF.GenerationSoftware,KiCad,Pcbnew,(5.1.4-0)*
G04 #@! TF.CreationDate,2019-11-27T14:08:46-06:00*
G04 #@! TF.ProjectId,veccart,76656363-6172-4742-9e6b-696361645f70,rev?*
G04 #@! TF.SameCoordinates,Original*
G04 #@! TF.FileFunction,Soldermask,Bot*
G04 #@! TF.FilePolarity,Negative*
%FSLAX46Y46*%
G04 Gerber Fmt 4.6, Leading zero omitted, Abs format (unit mm)*
G04 Created by KiCad (PCBNEW (5.1.4-0)) date 2019-11-27 14:08:46*
%MOMM*%
%LPD*%
G04 APERTURE LIST*
%ADD10R,2.700000X2.200000*%
%ADD11R,0.700000X1.450000*%
%ADD12C,1.700000*%
%ADD13C,4.500000*%
%ADD14C,3.900000*%
%ADD15C,5.300000*%
%ADD16O,1.900000X1.900000*%
%ADD17R,1.900000X1.900000*%
%ADD18O,1.978000X9.090000*%
%ADD19C,0.100000*%
%ADD20C,1.350000*%
%ADD21R,1.100000X1.400000*%
%ADD22R,1.950000X0.650000*%
%ADD23C,0.500000*%
%ADD24R,1.700000X2.200000*%
%ADD25R,4.000000X2.200000*%
G04 APERTURE END LIST*
D10*
X163644800Y-73694000D03*
X155244800Y-73694000D03*
X163644800Y-78994000D03*
X155244800Y-78994000D03*
D11*
X161044800Y-79644000D03*
X160244800Y-79644000D03*
X159444800Y-79644000D03*
X158644800Y-79644000D03*
X157844800Y-79644000D03*
D12*
X161194800Y-76994000D03*
X157694800Y-76994000D03*
D13*
X153628396Y-87398872D03*
X129728396Y-87398872D03*
D14*
X161528397Y-117598872D03*
D15*
X141688396Y-117598872D03*
D16*
X119989600Y-87274400D03*
X119989600Y-84734400D03*
X119989600Y-82194400D03*
X119989600Y-79654400D03*
X119989600Y-77114400D03*
D17*
X119989600Y-74574400D03*
D18*
X163278396Y-130598873D03*
X160738396Y-130598873D03*
X158198396Y-130598873D03*
X155658396Y-130598873D03*
X153118396Y-130598873D03*
X150578396Y-130598873D03*
X148038396Y-130598873D03*
X145498396Y-130598873D03*
X142958396Y-130598873D03*
X140418396Y-130598873D03*
X137878396Y-130598873D03*
X135338396Y-130598873D03*
X132798396Y-130598873D03*
X130258396Y-130598873D03*
X127718396Y-130598873D03*
X125178396Y-130598873D03*
X122638396Y-130598873D03*
X120098396Y-130598873D03*
D16*
X151536400Y-109601000D03*
D17*
X151536400Y-112141000D03*
D19*
G36*
X137907889Y-79160613D02*
G01*
X137936378Y-79164839D01*
X137964315Y-79171837D01*
X137991432Y-79181540D01*
X138017467Y-79193853D01*
X138042170Y-79208660D01*
X138065303Y-79225816D01*
X138086643Y-79245157D01*
X138105984Y-79266497D01*
X138123140Y-79289630D01*
X138137947Y-79314333D01*
X138150260Y-79340368D01*
X138159963Y-79367485D01*
X138166961Y-79395422D01*
X138171187Y-79423911D01*
X138172600Y-79452677D01*
X138172600Y-80465723D01*
X138171187Y-80494489D01*
X138166961Y-80522978D01*
X138159963Y-80550915D01*
X138150260Y-80578032D01*
X138137947Y-80604067D01*
X138123140Y-80628770D01*
X138105984Y-80651903D01*
X138086643Y-80673243D01*
X138065303Y-80692584D01*
X138042170Y-80709740D01*
X138017467Y-80724547D01*
X137991432Y-80736860D01*
X137964315Y-80746563D01*
X137936378Y-80753561D01*
X137907889Y-80757787D01*
X137879123Y-80759200D01*
X137116077Y-80759200D01*
X137087311Y-80757787D01*
X137058822Y-80753561D01*
X137030885Y-80746563D01*
X137003768Y-80736860D01*
X136977733Y-80724547D01*
X136953030Y-80709740D01*
X136929897Y-80692584D01*
X136908557Y-80673243D01*
X136889216Y-80651903D01*
X136872060Y-80628770D01*
X136857253Y-80604067D01*
X136844940Y-80578032D01*
X136835237Y-80550915D01*
X136828239Y-80522978D01*
X136824013Y-80494489D01*
X136822600Y-80465723D01*
X136822600Y-79452677D01*
X136824013Y-79423911D01*
X136828239Y-79395422D01*
X136835237Y-79367485D01*
X136844940Y-79340368D01*
X136857253Y-79314333D01*
X136872060Y-79289630D01*
X136889216Y-79266497D01*
X136908557Y-79245157D01*
X136929897Y-79225816D01*
X136953030Y-79208660D01*
X136977733Y-79193853D01*
X137003768Y-79181540D01*
X137030885Y-79171837D01*
X137058822Y-79164839D01*
X137087311Y-79160613D01*
X137116077Y-79159200D01*
X137879123Y-79159200D01*
X137907889Y-79160613D01*
X137907889Y-79160613D01*
G37*
D20*
X137497600Y-79959200D03*
D19*
G36*
X139957889Y-79160613D02*
G01*
X139986378Y-79164839D01*
X140014315Y-79171837D01*
X140041432Y-79181540D01*
X140067467Y-79193853D01*
X140092170Y-79208660D01*
X140115303Y-79225816D01*
X140136643Y-79245157D01*
X140155984Y-79266497D01*
X140173140Y-79289630D01*
X140187947Y-79314333D01*
X140200260Y-79340368D01*
X140209963Y-79367485D01*
X140216961Y-79395422D01*
X140221187Y-79423911D01*
X140222600Y-79452677D01*
X140222600Y-80465723D01*
X140221187Y-80494489D01*
X140216961Y-80522978D01*
X140209963Y-80550915D01*
X140200260Y-80578032D01*
X140187947Y-80604067D01*
X140173140Y-80628770D01*
X140155984Y-80651903D01*
X140136643Y-80673243D01*
X140115303Y-80692584D01*
X140092170Y-80709740D01*
X140067467Y-80724547D01*
X140041432Y-80736860D01*
X140014315Y-80746563D01*
X139986378Y-80753561D01*
X139957889Y-80757787D01*
X139929123Y-80759200D01*
X139166077Y-80759200D01*
X139137311Y-80757787D01*
X139108822Y-80753561D01*
X139080885Y-80746563D01*
X139053768Y-80736860D01*
X139027733Y-80724547D01*
X139003030Y-80709740D01*
X138979897Y-80692584D01*
X138958557Y-80673243D01*
X138939216Y-80651903D01*
X138922060Y-80628770D01*
X138907253Y-80604067D01*
X138894940Y-80578032D01*
X138885237Y-80550915D01*
X138878239Y-80522978D01*
X138874013Y-80494489D01*
X138872600Y-80465723D01*
X138872600Y-79452677D01*
X138874013Y-79423911D01*
X138878239Y-79395422D01*
X138885237Y-79367485D01*
X138894940Y-79340368D01*
X138907253Y-79314333D01*
X138922060Y-79289630D01*
X138939216Y-79266497D01*
X138958557Y-79245157D01*
X138979897Y-79225816D01*
X139003030Y-79208660D01*
X139027733Y-79193853D01*
X139053768Y-79181540D01*
X139080885Y-79171837D01*
X139108822Y-79164839D01*
X139137311Y-79160613D01*
X139166077Y-79159200D01*
X139929123Y-79159200D01*
X139957889Y-79160613D01*
X139957889Y-79160613D01*
G37*
D20*
X139547600Y-79959200D03*
D19*
G36*
X147536289Y-87364813D02*
G01*
X147564778Y-87369039D01*
X147592715Y-87376037D01*
X147619832Y-87385740D01*
X147645867Y-87398053D01*
X147670570Y-87412860D01*
X147693703Y-87430016D01*
X147715043Y-87449357D01*
X147734384Y-87470697D01*
X147751540Y-87493830D01*
X147766347Y-87518533D01*
X147778660Y-87544568D01*
X147788363Y-87571685D01*
X147795361Y-87599622D01*
X147799587Y-87628111D01*
X147801000Y-87656877D01*
X147801000Y-88669923D01*
X147799587Y-88698689D01*
X147795361Y-88727178D01*
X147788363Y-88755115D01*
X147778660Y-88782232D01*
X147766347Y-88808267D01*
X147751540Y-88832970D01*
X147734384Y-88856103D01*
X147715043Y-88877443D01*
X147693703Y-88896784D01*
X147670570Y-88913940D01*
X147645867Y-88928747D01*
X147619832Y-88941060D01*
X147592715Y-88950763D01*
X147564778Y-88957761D01*
X147536289Y-88961987D01*
X147507523Y-88963400D01*
X146744477Y-88963400D01*
X146715711Y-88961987D01*
X146687222Y-88957761D01*
X146659285Y-88950763D01*
X146632168Y-88941060D01*
X146606133Y-88928747D01*
X146581430Y-88913940D01*
X146558297Y-88896784D01*
X146536957Y-88877443D01*
X146517616Y-88856103D01*
X146500460Y-88832970D01*
X146485653Y-88808267D01*
X146473340Y-88782232D01*
X146463637Y-88755115D01*
X146456639Y-88727178D01*
X146452413Y-88698689D01*
X146451000Y-88669923D01*
X146451000Y-87656877D01*
X146452413Y-87628111D01*
X146456639Y-87599622D01*
X146463637Y-87571685D01*
X146473340Y-87544568D01*
X146485653Y-87518533D01*
X146500460Y-87493830D01*
X146517616Y-87470697D01*
X146536957Y-87449357D01*
X146558297Y-87430016D01*
X146581430Y-87412860D01*
X146606133Y-87398053D01*
X146632168Y-87385740D01*
X146659285Y-87376037D01*
X146687222Y-87369039D01*
X146715711Y-87364813D01*
X146744477Y-87363400D01*
X147507523Y-87363400D01*
X147536289Y-87364813D01*
X147536289Y-87364813D01*
G37*
D20*
X147126000Y-88163400D03*
D19*
G36*
X145486289Y-87364813D02*
G01*
X145514778Y-87369039D01*
X145542715Y-87376037D01*
X145569832Y-87385740D01*
X145595867Y-87398053D01*
X145620570Y-87412860D01*
X145643703Y-87430016D01*
X145665043Y-87449357D01*
X145684384Y-87470697D01*
X145701540Y-87493830D01*
X145716347Y-87518533D01*
X145728660Y-87544568D01*
X145738363Y-87571685D01*
X145745361Y-87599622D01*
X145749587Y-87628111D01*
X145751000Y-87656877D01*
X145751000Y-88669923D01*
X145749587Y-88698689D01*
X145745361Y-88727178D01*
X145738363Y-88755115D01*
X145728660Y-88782232D01*
X145716347Y-88808267D01*
X145701540Y-88832970D01*
X145684384Y-88856103D01*
X145665043Y-88877443D01*
X145643703Y-88896784D01*
X145620570Y-88913940D01*
X145595867Y-88928747D01*
X145569832Y-88941060D01*
X145542715Y-88950763D01*
X145514778Y-88957761D01*
X145486289Y-88961987D01*
X145457523Y-88963400D01*
X144694477Y-88963400D01*
X144665711Y-88961987D01*
X144637222Y-88957761D01*
X144609285Y-88950763D01*
X144582168Y-88941060D01*
X144556133Y-88928747D01*
X144531430Y-88913940D01*
X144508297Y-88896784D01*
X144486957Y-88877443D01*
X144467616Y-88856103D01*
X144450460Y-88832970D01*
X144435653Y-88808267D01*
X144423340Y-88782232D01*
X144413637Y-88755115D01*
X144406639Y-88727178D01*
X144402413Y-88698689D01*
X144401000Y-88669923D01*
X144401000Y-87656877D01*
X144402413Y-87628111D01*
X144406639Y-87599622D01*
X144413637Y-87571685D01*
X144423340Y-87544568D01*
X144435653Y-87518533D01*
X144450460Y-87493830D01*
X144467616Y-87470697D01*
X144486957Y-87449357D01*
X144508297Y-87430016D01*
X144531430Y-87412860D01*
X144556133Y-87398053D01*
X144582168Y-87385740D01*
X144609285Y-87376037D01*
X144637222Y-87369039D01*
X144665711Y-87364813D01*
X144694477Y-87363400D01*
X145457523Y-87363400D01*
X145486289Y-87364813D01*
X145486289Y-87364813D01*
G37*
D20*
X145076000Y-88163400D03*
D19*
G36*
X147527089Y-85332813D02*
G01*
X147555578Y-85337039D01*
X147583515Y-85344037D01*
X147610632Y-85353740D01*
X147636667Y-85366053D01*
X147661370Y-85380860D01*
X147684503Y-85398016D01*
X147705843Y-85417357D01*
X147725184Y-85438697D01*
X147742340Y-85461830D01*
X147757147Y-85486533D01*
X147769460Y-85512568D01*
X147779163Y-85539685D01*
X147786161Y-85567622D01*
X147790387Y-85596111D01*
X147791800Y-85624877D01*
X147791800Y-86637923D01*
X147790387Y-86666689D01*
X147786161Y-86695178D01*
X147779163Y-86723115D01*
X147769460Y-86750232D01*
X147757147Y-86776267D01*
X147742340Y-86800970D01*
X147725184Y-86824103D01*
X147705843Y-86845443D01*
X147684503Y-86864784D01*
X147661370Y-86881940D01*
X147636667Y-86896747D01*
X147610632Y-86909060D01*
X147583515Y-86918763D01*
X147555578Y-86925761D01*
X147527089Y-86929987D01*
X147498323Y-86931400D01*
X146735277Y-86931400D01*
X146706511Y-86929987D01*
X146678022Y-86925761D01*
X146650085Y-86918763D01*
X146622968Y-86909060D01*
X146596933Y-86896747D01*
X146572230Y-86881940D01*
X146549097Y-86864784D01*
X146527757Y-86845443D01*
X146508416Y-86824103D01*
X146491260Y-86800970D01*
X146476453Y-86776267D01*
X146464140Y-86750232D01*
X146454437Y-86723115D01*
X146447439Y-86695178D01*
X146443213Y-86666689D01*
X146441800Y-86637923D01*
X146441800Y-85624877D01*
X146443213Y-85596111D01*
X146447439Y-85567622D01*
X146454437Y-85539685D01*
X146464140Y-85512568D01*
X146476453Y-85486533D01*
X146491260Y-85461830D01*
X146508416Y-85438697D01*
X146527757Y-85417357D01*
X146549097Y-85398016D01*
X146572230Y-85380860D01*
X146596933Y-85366053D01*
X146622968Y-85353740D01*
X146650085Y-85344037D01*
X146678022Y-85337039D01*
X146706511Y-85332813D01*
X146735277Y-85331400D01*
X147498323Y-85331400D01*
X147527089Y-85332813D01*
X147527089Y-85332813D01*
G37*
D20*
X147116800Y-86131400D03*
D19*
G36*
X145477089Y-85332813D02*
G01*
X145505578Y-85337039D01*
X145533515Y-85344037D01*
X145560632Y-85353740D01*
X145586667Y-85366053D01*
X145611370Y-85380860D01*
X145634503Y-85398016D01*
X145655843Y-85417357D01*
X145675184Y-85438697D01*
X145692340Y-85461830D01*
X145707147Y-85486533D01*
X145719460Y-85512568D01*
X145729163Y-85539685D01*
X145736161Y-85567622D01*
X145740387Y-85596111D01*
X145741800Y-85624877D01*
X145741800Y-86637923D01*
X145740387Y-86666689D01*
X145736161Y-86695178D01*
X145729163Y-86723115D01*
X145719460Y-86750232D01*
X145707147Y-86776267D01*
X145692340Y-86800970D01*
X145675184Y-86824103D01*
X145655843Y-86845443D01*
X145634503Y-86864784D01*
X145611370Y-86881940D01*
X145586667Y-86896747D01*
X145560632Y-86909060D01*
X145533515Y-86918763D01*
X145505578Y-86925761D01*
X145477089Y-86929987D01*
X145448323Y-86931400D01*
X144685277Y-86931400D01*
X144656511Y-86929987D01*
X144628022Y-86925761D01*
X144600085Y-86918763D01*
X144572968Y-86909060D01*
X144546933Y-86896747D01*
X144522230Y-86881940D01*
X144499097Y-86864784D01*
X144477757Y-86845443D01*
X144458416Y-86824103D01*
X144441260Y-86800970D01*
X144426453Y-86776267D01*
X144414140Y-86750232D01*
X144404437Y-86723115D01*
X144397439Y-86695178D01*
X144393213Y-86666689D01*
X144391800Y-86637923D01*
X144391800Y-85624877D01*
X144393213Y-85596111D01*
X144397439Y-85567622D01*
X144404437Y-85539685D01*
X144414140Y-85512568D01*
X144426453Y-85486533D01*
X144441260Y-85461830D01*
X144458416Y-85438697D01*
X144477757Y-85417357D01*
X144499097Y-85398016D01*
X144522230Y-85380860D01*
X144546933Y-85366053D01*
X144572968Y-85353740D01*
X144600085Y-85344037D01*
X144628022Y-85337039D01*
X144656511Y-85332813D01*
X144685277Y-85331400D01*
X145448323Y-85331400D01*
X145477089Y-85332813D01*
X145477089Y-85332813D01*
G37*
D20*
X145066800Y-86131400D03*
D19*
G36*
X142251289Y-79160613D02*
G01*
X142279778Y-79164839D01*
X142307715Y-79171837D01*
X142334832Y-79181540D01*
X142360867Y-79193853D01*
X142385570Y-79208660D01*
X142408703Y-79225816D01*
X142430043Y-79245157D01*
X142449384Y-79266497D01*
X142466540Y-79289630D01*
X142481347Y-79314333D01*
X142493660Y-79340368D01*
X142503363Y-79367485D01*
X142510361Y-79395422D01*
X142514587Y-79423911D01*
X142516000Y-79452677D01*
X142516000Y-80465723D01*
X142514587Y-80494489D01*
X142510361Y-80522978D01*
X142503363Y-80550915D01*
X142493660Y-80578032D01*
X142481347Y-80604067D01*
X142466540Y-80628770D01*
X142449384Y-80651903D01*
X142430043Y-80673243D01*
X142408703Y-80692584D01*
X142385570Y-80709740D01*
X142360867Y-80724547D01*
X142334832Y-80736860D01*
X142307715Y-80746563D01*
X142279778Y-80753561D01*
X142251289Y-80757787D01*
X142222523Y-80759200D01*
X141459477Y-80759200D01*
X141430711Y-80757787D01*
X141402222Y-80753561D01*
X141374285Y-80746563D01*
X141347168Y-80736860D01*
X141321133Y-80724547D01*
X141296430Y-80709740D01*
X141273297Y-80692584D01*
X141251957Y-80673243D01*
X141232616Y-80651903D01*
X141215460Y-80628770D01*
X141200653Y-80604067D01*
X141188340Y-80578032D01*
X141178637Y-80550915D01*
X141171639Y-80522978D01*
X141167413Y-80494489D01*
X141166000Y-80465723D01*
X141166000Y-79452677D01*
X141167413Y-79423911D01*
X141171639Y-79395422D01*
X141178637Y-79367485D01*
X141188340Y-79340368D01*
X141200653Y-79314333D01*
X141215460Y-79289630D01*
X141232616Y-79266497D01*
X141251957Y-79245157D01*
X141273297Y-79225816D01*
X141296430Y-79208660D01*
X141321133Y-79193853D01*
X141347168Y-79181540D01*
X141374285Y-79171837D01*
X141402222Y-79164839D01*
X141430711Y-79160613D01*
X141459477Y-79159200D01*
X142222523Y-79159200D01*
X142251289Y-79160613D01*
X142251289Y-79160613D01*
G37*
D20*
X141841000Y-79959200D03*
D19*
G36*
X144301289Y-79160613D02*
G01*
X144329778Y-79164839D01*
X144357715Y-79171837D01*
X144384832Y-79181540D01*
X144410867Y-79193853D01*
X144435570Y-79208660D01*
X144458703Y-79225816D01*
X144480043Y-79245157D01*
X144499384Y-79266497D01*
X144516540Y-79289630D01*
X144531347Y-79314333D01*
X144543660Y-79340368D01*
X144553363Y-79367485D01*
X144560361Y-79395422D01*
X144564587Y-79423911D01*
X144566000Y-79452677D01*
X144566000Y-80465723D01*
X144564587Y-80494489D01*
X144560361Y-80522978D01*
X144553363Y-80550915D01*
X144543660Y-80578032D01*
X144531347Y-80604067D01*
X144516540Y-80628770D01*
X144499384Y-80651903D01*
X144480043Y-80673243D01*
X144458703Y-80692584D01*
X144435570Y-80709740D01*
X144410867Y-80724547D01*
X144384832Y-80736860D01*
X144357715Y-80746563D01*
X144329778Y-80753561D01*
X144301289Y-80757787D01*
X144272523Y-80759200D01*
X143509477Y-80759200D01*
X143480711Y-80757787D01*
X143452222Y-80753561D01*
X143424285Y-80746563D01*
X143397168Y-80736860D01*
X143371133Y-80724547D01*
X143346430Y-80709740D01*
X143323297Y-80692584D01*
X143301957Y-80673243D01*
X143282616Y-80651903D01*
X143265460Y-80628770D01*
X143250653Y-80604067D01*
X143238340Y-80578032D01*
X143228637Y-80550915D01*
X143221639Y-80522978D01*
X143217413Y-80494489D01*
X143216000Y-80465723D01*
X143216000Y-79452677D01*
X143217413Y-79423911D01*
X143221639Y-79395422D01*
X143228637Y-79367485D01*
X143238340Y-79340368D01*
X143250653Y-79314333D01*
X143265460Y-79289630D01*
X143282616Y-79266497D01*
X143301957Y-79245157D01*
X143323297Y-79225816D01*
X143346430Y-79208660D01*
X143371133Y-79193853D01*
X143397168Y-79181540D01*
X143424285Y-79171837D01*
X143452222Y-79164839D01*
X143480711Y-79160613D01*
X143509477Y-79159200D01*
X144272523Y-79159200D01*
X144301289Y-79160613D01*
X144301289Y-79160613D01*
G37*
D20*
X143891000Y-79959200D03*
D19*
G36*
X139974289Y-105043213D02*
G01*
X140002778Y-105047439D01*
X140030715Y-105054437D01*
X140057832Y-105064140D01*
X140083867Y-105076453D01*
X140108570Y-105091260D01*
X140131703Y-105108416D01*
X140153043Y-105127757D01*
X140172384Y-105149097D01*
X140189540Y-105172230D01*
X140204347Y-105196933D01*
X140216660Y-105222968D01*
X140226363Y-105250085D01*
X140233361Y-105278022D01*
X140237587Y-105306511D01*
X140239000Y-105335277D01*
X140239000Y-106348323D01*
X140237587Y-106377089D01*
X140233361Y-106405578D01*
X140226363Y-106433515D01*
X140216660Y-106460632D01*
X140204347Y-106486667D01*
X140189540Y-106511370D01*
X140172384Y-106534503D01*
X140153043Y-106555843D01*
X140131703Y-106575184D01*
X140108570Y-106592340D01*
X140083867Y-106607147D01*
X140057832Y-106619460D01*
X140030715Y-106629163D01*
X140002778Y-106636161D01*
X139974289Y-106640387D01*
X139945523Y-106641800D01*
X139182477Y-106641800D01*
X139153711Y-106640387D01*
X139125222Y-106636161D01*
X139097285Y-106629163D01*
X139070168Y-106619460D01*
X139044133Y-106607147D01*
X139019430Y-106592340D01*
X138996297Y-106575184D01*
X138974957Y-106555843D01*
X138955616Y-106534503D01*
X138938460Y-106511370D01*
X138923653Y-106486667D01*
X138911340Y-106460632D01*
X138901637Y-106433515D01*
X138894639Y-106405578D01*
X138890413Y-106377089D01*
X138889000Y-106348323D01*
X138889000Y-105335277D01*
X138890413Y-105306511D01*
X138894639Y-105278022D01*
X138901637Y-105250085D01*
X138911340Y-105222968D01*
X138923653Y-105196933D01*
X138938460Y-105172230D01*
X138955616Y-105149097D01*
X138974957Y-105127757D01*
X138996297Y-105108416D01*
X139019430Y-105091260D01*
X139044133Y-105076453D01*
X139070168Y-105064140D01*
X139097285Y-105054437D01*
X139125222Y-105047439D01*
X139153711Y-105043213D01*
X139182477Y-105041800D01*
X139945523Y-105041800D01*
X139974289Y-105043213D01*
X139974289Y-105043213D01*
G37*
D20*
X139564000Y-105841800D03*
D19*
G36*
X142024289Y-105043213D02*
G01*
X142052778Y-105047439D01*
X142080715Y-105054437D01*
X142107832Y-105064140D01*
X142133867Y-105076453D01*
X142158570Y-105091260D01*
X142181703Y-105108416D01*
X142203043Y-105127757D01*
X142222384Y-105149097D01*
X142239540Y-105172230D01*
X142254347Y-105196933D01*
X142266660Y-105222968D01*
X142276363Y-105250085D01*
X142283361Y-105278022D01*
X142287587Y-105306511D01*
X142289000Y-105335277D01*
X142289000Y-106348323D01*
X142287587Y-106377089D01*
X142283361Y-106405578D01*
X142276363Y-106433515D01*
X142266660Y-106460632D01*
X142254347Y-106486667D01*
X142239540Y-106511370D01*
X142222384Y-106534503D01*
X142203043Y-106555843D01*
X142181703Y-106575184D01*
X142158570Y-106592340D01*
X142133867Y-106607147D01*
X142107832Y-106619460D01*
X142080715Y-106629163D01*
X142052778Y-106636161D01*
X142024289Y-106640387D01*
X141995523Y-106641800D01*
X141232477Y-106641800D01*
X141203711Y-106640387D01*
X141175222Y-106636161D01*
X141147285Y-106629163D01*
X141120168Y-106619460D01*
X141094133Y-106607147D01*
X141069430Y-106592340D01*
X141046297Y-106575184D01*
X141024957Y-106555843D01*
X141005616Y-106534503D01*
X140988460Y-106511370D01*
X140973653Y-106486667D01*
X140961340Y-106460632D01*
X140951637Y-106433515D01*
X140944639Y-106405578D01*
X140940413Y-106377089D01*
X140939000Y-106348323D01*
X140939000Y-105335277D01*
X140940413Y-105306511D01*
X140944639Y-105278022D01*
X140951637Y-105250085D01*
X140961340Y-105222968D01*
X140973653Y-105196933D01*
X140988460Y-105172230D01*
X141005616Y-105149097D01*
X141024957Y-105127757D01*
X141046297Y-105108416D01*
X141069430Y-105091260D01*
X141094133Y-105076453D01*
X141120168Y-105064140D01*
X141147285Y-105054437D01*
X141175222Y-105047439D01*
X141203711Y-105043213D01*
X141232477Y-105041800D01*
X141995523Y-105041800D01*
X142024289Y-105043213D01*
X142024289Y-105043213D01*
G37*
D20*
X141614000Y-105841800D03*
D19*
G36*
X135764889Y-105244413D02*
G01*
X135793378Y-105248639D01*
X135821315Y-105255637D01*
X135848432Y-105265340D01*
X135874467Y-105277653D01*
X135899170Y-105292460D01*
X135922303Y-105309616D01*
X135943643Y-105328957D01*
X135962984Y-105350297D01*
X135980140Y-105373430D01*
X135994947Y-105398133D01*
X136007260Y-105424168D01*
X136016963Y-105451285D01*
X136023961Y-105479222D01*
X136028187Y-105507711D01*
X136029600Y-105536477D01*
X136029600Y-106299523D01*
X136028187Y-106328289D01*
X136023961Y-106356778D01*
X136016963Y-106384715D01*
X136007260Y-106411832D01*
X135994947Y-106437867D01*
X135980140Y-106462570D01*
X135962984Y-106485703D01*
X135943643Y-106507043D01*
X135922303Y-106526384D01*
X135899170Y-106543540D01*
X135874467Y-106558347D01*
X135848432Y-106570660D01*
X135821315Y-106580363D01*
X135793378Y-106587361D01*
X135764889Y-106591587D01*
X135736123Y-106593000D01*
X134723077Y-106593000D01*
X134694311Y-106591587D01*
X134665822Y-106587361D01*
X134637885Y-106580363D01*
X134610768Y-106570660D01*
X134584733Y-106558347D01*
X134560030Y-106543540D01*
X134536897Y-106526384D01*
X134515557Y-106507043D01*
X134496216Y-106485703D01*
X134479060Y-106462570D01*
X134464253Y-106437867D01*
X134451940Y-106411832D01*
X134442237Y-106384715D01*
X134435239Y-106356778D01*
X134431013Y-106328289D01*
X134429600Y-106299523D01*
X134429600Y-105536477D01*
X134431013Y-105507711D01*
X134435239Y-105479222D01*
X134442237Y-105451285D01*
X134451940Y-105424168D01*
X134464253Y-105398133D01*
X134479060Y-105373430D01*
X134496216Y-105350297D01*
X134515557Y-105328957D01*
X134536897Y-105309616D01*
X134560030Y-105292460D01*
X134584733Y-105277653D01*
X134610768Y-105265340D01*
X134637885Y-105255637D01*
X134665822Y-105248639D01*
X134694311Y-105244413D01*
X134723077Y-105243000D01*
X135736123Y-105243000D01*
X135764889Y-105244413D01*
X135764889Y-105244413D01*
G37*
D20*
X135229600Y-105918000D03*
D19*
G36*
X135764889Y-103194413D02*
G01*
X135793378Y-103198639D01*
X135821315Y-103205637D01*
X135848432Y-103215340D01*
X135874467Y-103227653D01*
X135899170Y-103242460D01*
X135922303Y-103259616D01*
X135943643Y-103278957D01*
X135962984Y-103300297D01*
X135980140Y-103323430D01*
X135994947Y-103348133D01*
X136007260Y-103374168D01*
X136016963Y-103401285D01*
X136023961Y-103429222D01*
X136028187Y-103457711D01*
X136029600Y-103486477D01*
X136029600Y-104249523D01*
X136028187Y-104278289D01*
X136023961Y-104306778D01*
X136016963Y-104334715D01*
X136007260Y-104361832D01*
X135994947Y-104387867D01*
X135980140Y-104412570D01*
X135962984Y-104435703D01*
X135943643Y-104457043D01*
X135922303Y-104476384D01*
X135899170Y-104493540D01*
X135874467Y-104508347D01*
X135848432Y-104520660D01*
X135821315Y-104530363D01*
X135793378Y-104537361D01*
X135764889Y-104541587D01*
X135736123Y-104543000D01*
X134723077Y-104543000D01*
X134694311Y-104541587D01*
X134665822Y-104537361D01*
X134637885Y-104530363D01*
X134610768Y-104520660D01*
X134584733Y-104508347D01*
X134560030Y-104493540D01*
X134536897Y-104476384D01*
X134515557Y-104457043D01*
X134496216Y-104435703D01*
X134479060Y-104412570D01*
X134464253Y-104387867D01*
X134451940Y-104361832D01*
X134442237Y-104334715D01*
X134435239Y-104306778D01*
X134431013Y-104278289D01*
X134429600Y-104249523D01*
X134429600Y-103486477D01*
X134431013Y-103457711D01*
X134435239Y-103429222D01*
X134442237Y-103401285D01*
X134451940Y-103374168D01*
X134464253Y-103348133D01*
X134479060Y-103323430D01*
X134496216Y-103300297D01*
X134515557Y-103278957D01*
X134536897Y-103259616D01*
X134560030Y-103242460D01*
X134584733Y-103227653D01*
X134610768Y-103215340D01*
X134637885Y-103205637D01*
X134665822Y-103198639D01*
X134694311Y-103194413D01*
X134723077Y-103193000D01*
X135736123Y-103193000D01*
X135764889Y-103194413D01*
X135764889Y-103194413D01*
G37*
D20*
X135229600Y-103868000D03*
D19*
G36*
X137923889Y-105262413D02*
G01*
X137952378Y-105266639D01*
X137980315Y-105273637D01*
X138007432Y-105283340D01*
X138033467Y-105295653D01*
X138058170Y-105310460D01*
X138081303Y-105327616D01*
X138102643Y-105346957D01*
X138121984Y-105368297D01*
X138139140Y-105391430D01*
X138153947Y-105416133D01*
X138166260Y-105442168D01*
X138175963Y-105469285D01*
X138182961Y-105497222D01*
X138187187Y-105525711D01*
X138188600Y-105554477D01*
X138188600Y-106317523D01*
X138187187Y-106346289D01*
X138182961Y-106374778D01*
X138175963Y-106402715D01*
X138166260Y-106429832D01*
X138153947Y-106455867D01*
X138139140Y-106480570D01*
X138121984Y-106503703D01*
X138102643Y-106525043D01*
X138081303Y-106544384D01*
X138058170Y-106561540D01*
X138033467Y-106576347D01*
X138007432Y-106588660D01*
X137980315Y-106598363D01*
X137952378Y-106605361D01*
X137923889Y-106609587D01*
X137895123Y-106611000D01*
X136882077Y-106611000D01*
X136853311Y-106609587D01*
X136824822Y-106605361D01*
X136796885Y-106598363D01*
X136769768Y-106588660D01*
X136743733Y-106576347D01*
X136719030Y-106561540D01*
X136695897Y-106544384D01*
X136674557Y-106525043D01*
X136655216Y-106503703D01*
X136638060Y-106480570D01*
X136623253Y-106455867D01*
X136610940Y-106429832D01*
X136601237Y-106402715D01*
X136594239Y-106374778D01*
X136590013Y-106346289D01*
X136588600Y-106317523D01*
X136588600Y-105554477D01*
X136590013Y-105525711D01*
X136594239Y-105497222D01*
X136601237Y-105469285D01*
X136610940Y-105442168D01*
X136623253Y-105416133D01*
X136638060Y-105391430D01*
X136655216Y-105368297D01*
X136674557Y-105346957D01*
X136695897Y-105327616D01*
X136719030Y-105310460D01*
X136743733Y-105295653D01*
X136769768Y-105283340D01*
X136796885Y-105273637D01*
X136824822Y-105266639D01*
X136853311Y-105262413D01*
X136882077Y-105261000D01*
X137895123Y-105261000D01*
X137923889Y-105262413D01*
X137923889Y-105262413D01*
G37*
D20*
X137388600Y-105936000D03*
D19*
G36*
X137923889Y-103212413D02*
G01*
X137952378Y-103216639D01*
X137980315Y-103223637D01*
X138007432Y-103233340D01*
X138033467Y-103245653D01*
X138058170Y-103260460D01*
X138081303Y-103277616D01*
X138102643Y-103296957D01*
X138121984Y-103318297D01*
X138139140Y-103341430D01*
X138153947Y-103366133D01*
X138166260Y-103392168D01*
X138175963Y-103419285D01*
X138182961Y-103447222D01*
X138187187Y-103475711D01*
X138188600Y-103504477D01*
X138188600Y-104267523D01*
X138187187Y-104296289D01*
X138182961Y-104324778D01*
X138175963Y-104352715D01*
X138166260Y-104379832D01*
X138153947Y-104405867D01*
X138139140Y-104430570D01*
X138121984Y-104453703D01*
X138102643Y-104475043D01*
X138081303Y-104494384D01*
X138058170Y-104511540D01*
X138033467Y-104526347D01*
X138007432Y-104538660D01*
X137980315Y-104548363D01*
X137952378Y-104555361D01*
X137923889Y-104559587D01*
X137895123Y-104561000D01*
X136882077Y-104561000D01*
X136853311Y-104559587D01*
X136824822Y-104555361D01*
X136796885Y-104548363D01*
X136769768Y-104538660D01*
X136743733Y-104526347D01*
X136719030Y-104511540D01*
X136695897Y-104494384D01*
X136674557Y-104475043D01*
X136655216Y-104453703D01*
X136638060Y-104430570D01*
X136623253Y-104405867D01*
X136610940Y-104379832D01*
X136601237Y-104352715D01*
X136594239Y-104324778D01*
X136590013Y-104296289D01*
X136588600Y-104267523D01*
X136588600Y-103504477D01*
X136590013Y-103475711D01*
X136594239Y-103447222D01*
X136601237Y-103419285D01*
X136610940Y-103392168D01*
X136623253Y-103366133D01*
X136638060Y-103341430D01*
X136655216Y-103318297D01*
X136674557Y-103296957D01*
X136695897Y-103277616D01*
X136719030Y-103260460D01*
X136743733Y-103245653D01*
X136769768Y-103233340D01*
X136796885Y-103223637D01*
X136824822Y-103216639D01*
X136853311Y-103212413D01*
X136882077Y-103211000D01*
X137895123Y-103211000D01*
X137923889Y-103212413D01*
X137923889Y-103212413D01*
G37*
D20*
X137388600Y-103886000D03*
D19*
G36*
X127266889Y-90717613D02*
G01*
X127295378Y-90721839D01*
X127323315Y-90728837D01*
X127350432Y-90738540D01*
X127376467Y-90750853D01*
X127401170Y-90765660D01*
X127424303Y-90782816D01*
X127445643Y-90802157D01*
X127464984Y-90823497D01*
X127482140Y-90846630D01*
X127496947Y-90871333D01*
X127509260Y-90897368D01*
X127518963Y-90924485D01*
X127525961Y-90952422D01*
X127530187Y-90980911D01*
X127531600Y-91009677D01*
X127531600Y-92022723D01*
X127530187Y-92051489D01*
X127525961Y-92079978D01*
X127518963Y-92107915D01*
X127509260Y-92135032D01*
X127496947Y-92161067D01*
X127482140Y-92185770D01*
X127464984Y-92208903D01*
X127445643Y-92230243D01*
X127424303Y-92249584D01*
X127401170Y-92266740D01*
X127376467Y-92281547D01*
X127350432Y-92293860D01*
X127323315Y-92303563D01*
X127295378Y-92310561D01*
X127266889Y-92314787D01*
X127238123Y-92316200D01*
X126475077Y-92316200D01*
X126446311Y-92314787D01*
X126417822Y-92310561D01*
X126389885Y-92303563D01*
X126362768Y-92293860D01*
X126336733Y-92281547D01*
X126312030Y-92266740D01*
X126288897Y-92249584D01*
X126267557Y-92230243D01*
X126248216Y-92208903D01*
X126231060Y-92185770D01*
X126216253Y-92161067D01*
X126203940Y-92135032D01*
X126194237Y-92107915D01*
X126187239Y-92079978D01*
X126183013Y-92051489D01*
X126181600Y-92022723D01*
X126181600Y-91009677D01*
X126183013Y-90980911D01*
X126187239Y-90952422D01*
X126194237Y-90924485D01*
X126203940Y-90897368D01*
X126216253Y-90871333D01*
X126231060Y-90846630D01*
X126248216Y-90823497D01*
X126267557Y-90802157D01*
X126288897Y-90782816D01*
X126312030Y-90765660D01*
X126336733Y-90750853D01*
X126362768Y-90738540D01*
X126389885Y-90728837D01*
X126417822Y-90721839D01*
X126446311Y-90717613D01*
X126475077Y-90716200D01*
X127238123Y-90716200D01*
X127266889Y-90717613D01*
X127266889Y-90717613D01*
G37*
D20*
X126856600Y-91516200D03*
D19*
G36*
X125216889Y-90717613D02*
G01*
X125245378Y-90721839D01*
X125273315Y-90728837D01*
X125300432Y-90738540D01*
X125326467Y-90750853D01*
X125351170Y-90765660D01*
X125374303Y-90782816D01*
X125395643Y-90802157D01*
X125414984Y-90823497D01*
X125432140Y-90846630D01*
X125446947Y-90871333D01*
X125459260Y-90897368D01*
X125468963Y-90924485D01*
X125475961Y-90952422D01*
X125480187Y-90980911D01*
X125481600Y-91009677D01*
X125481600Y-92022723D01*
X125480187Y-92051489D01*
X125475961Y-92079978D01*
X125468963Y-92107915D01*
X125459260Y-92135032D01*
X125446947Y-92161067D01*
X125432140Y-92185770D01*
X125414984Y-92208903D01*
X125395643Y-92230243D01*
X125374303Y-92249584D01*
X125351170Y-92266740D01*
X125326467Y-92281547D01*
X125300432Y-92293860D01*
X125273315Y-92303563D01*
X125245378Y-92310561D01*
X125216889Y-92314787D01*
X125188123Y-92316200D01*
X124425077Y-92316200D01*
X124396311Y-92314787D01*
X124367822Y-92310561D01*
X124339885Y-92303563D01*
X124312768Y-92293860D01*
X124286733Y-92281547D01*
X124262030Y-92266740D01*
X124238897Y-92249584D01*
X124217557Y-92230243D01*
X124198216Y-92208903D01*
X124181060Y-92185770D01*
X124166253Y-92161067D01*
X124153940Y-92135032D01*
X124144237Y-92107915D01*
X124137239Y-92079978D01*
X124133013Y-92051489D01*
X124131600Y-92022723D01*
X124131600Y-91009677D01*
X124133013Y-90980911D01*
X124137239Y-90952422D01*
X124144237Y-90924485D01*
X124153940Y-90897368D01*
X124166253Y-90871333D01*
X124181060Y-90846630D01*
X124198216Y-90823497D01*
X124217557Y-90802157D01*
X124238897Y-90782816D01*
X124262030Y-90765660D01*
X124286733Y-90750853D01*
X124312768Y-90738540D01*
X124339885Y-90728837D01*
X124367822Y-90721839D01*
X124396311Y-90717613D01*
X124425077Y-90716200D01*
X125188123Y-90716200D01*
X125216889Y-90717613D01*
X125216889Y-90717613D01*
G37*
D20*
X124806600Y-91516200D03*
D19*
G36*
X128976089Y-90717613D02*
G01*
X129004578Y-90721839D01*
X129032515Y-90728837D01*
X129059632Y-90738540D01*
X129085667Y-90750853D01*
X129110370Y-90765660D01*
X129133503Y-90782816D01*
X129154843Y-90802157D01*
X129174184Y-90823497D01*
X129191340Y-90846630D01*
X129206147Y-90871333D01*
X129218460Y-90897368D01*
X129228163Y-90924485D01*
X129235161Y-90952422D01*
X129239387Y-90980911D01*
X129240800Y-91009677D01*
X129240800Y-92022723D01*
X129239387Y-92051489D01*
X129235161Y-92079978D01*
X129228163Y-92107915D01*
X129218460Y-92135032D01*
X129206147Y-92161067D01*
X129191340Y-92185770D01*
X129174184Y-92208903D01*
X129154843Y-92230243D01*
X129133503Y-92249584D01*
X129110370Y-92266740D01*
X129085667Y-92281547D01*
X129059632Y-92293860D01*
X129032515Y-92303563D01*
X129004578Y-92310561D01*
X128976089Y-92314787D01*
X128947323Y-92316200D01*
X128184277Y-92316200D01*
X128155511Y-92314787D01*
X128127022Y-92310561D01*
X128099085Y-92303563D01*
X128071968Y-92293860D01*
X128045933Y-92281547D01*
X128021230Y-92266740D01*
X127998097Y-92249584D01*
X127976757Y-92230243D01*
X127957416Y-92208903D01*
X127940260Y-92185770D01*
X127925453Y-92161067D01*
X127913140Y-92135032D01*
X127903437Y-92107915D01*
X127896439Y-92079978D01*
X127892213Y-92051489D01*
X127890800Y-92022723D01*
X127890800Y-91009677D01*
X127892213Y-90980911D01*
X127896439Y-90952422D01*
X127903437Y-90924485D01*
X127913140Y-90897368D01*
X127925453Y-90871333D01*
X127940260Y-90846630D01*
X127957416Y-90823497D01*
X127976757Y-90802157D01*
X127998097Y-90782816D01*
X128021230Y-90765660D01*
X128045933Y-90750853D01*
X128071968Y-90738540D01*
X128099085Y-90728837D01*
X128127022Y-90721839D01*
X128155511Y-90717613D01*
X128184277Y-90716200D01*
X128947323Y-90716200D01*
X128976089Y-90717613D01*
X128976089Y-90717613D01*
G37*
D20*
X128565800Y-91516200D03*
D19*
G36*
X131026089Y-90717613D02*
G01*
X131054578Y-90721839D01*
X131082515Y-90728837D01*
X131109632Y-90738540D01*
X131135667Y-90750853D01*
X131160370Y-90765660D01*
X131183503Y-90782816D01*
X131204843Y-90802157D01*
X131224184Y-90823497D01*
X131241340Y-90846630D01*
X131256147Y-90871333D01*
X131268460Y-90897368D01*
X131278163Y-90924485D01*
X131285161Y-90952422D01*
X131289387Y-90980911D01*
X131290800Y-91009677D01*
X131290800Y-92022723D01*
X131289387Y-92051489D01*
X131285161Y-92079978D01*
X131278163Y-92107915D01*
X131268460Y-92135032D01*
X131256147Y-92161067D01*
X131241340Y-92185770D01*
X131224184Y-92208903D01*
X131204843Y-92230243D01*
X131183503Y-92249584D01*
X131160370Y-92266740D01*
X131135667Y-92281547D01*
X131109632Y-92293860D01*
X131082515Y-92303563D01*
X131054578Y-92310561D01*
X131026089Y-92314787D01*
X130997323Y-92316200D01*
X130234277Y-92316200D01*
X130205511Y-92314787D01*
X130177022Y-92310561D01*
X130149085Y-92303563D01*
X130121968Y-92293860D01*
X130095933Y-92281547D01*
X130071230Y-92266740D01*
X130048097Y-92249584D01*
X130026757Y-92230243D01*
X130007416Y-92208903D01*
X129990260Y-92185770D01*
X129975453Y-92161067D01*
X129963140Y-92135032D01*
X129953437Y-92107915D01*
X129946439Y-92079978D01*
X129942213Y-92051489D01*
X129940800Y-92022723D01*
X129940800Y-91009677D01*
X129942213Y-90980911D01*
X129946439Y-90952422D01*
X129953437Y-90924485D01*
X129963140Y-90897368D01*
X129975453Y-90871333D01*
X129990260Y-90846630D01*
X130007416Y-90823497D01*
X130026757Y-90802157D01*
X130048097Y-90782816D01*
X130071230Y-90765660D01*
X130095933Y-90750853D01*
X130121968Y-90738540D01*
X130149085Y-90728837D01*
X130177022Y-90721839D01*
X130205511Y-90717613D01*
X130234277Y-90716200D01*
X130997323Y-90716200D01*
X131026089Y-90717613D01*
X131026089Y-90717613D01*
G37*
D20*
X130615800Y-91516200D03*
D19*
G36*
X162318889Y-105170213D02*
G01*
X162347378Y-105174439D01*
X162375315Y-105181437D01*
X162402432Y-105191140D01*
X162428467Y-105203453D01*
X162453170Y-105218260D01*
X162476303Y-105235416D01*
X162497643Y-105254757D01*
X162516984Y-105276097D01*
X162534140Y-105299230D01*
X162548947Y-105323933D01*
X162561260Y-105349968D01*
X162570963Y-105377085D01*
X162577961Y-105405022D01*
X162582187Y-105433511D01*
X162583600Y-105462277D01*
X162583600Y-106475323D01*
X162582187Y-106504089D01*
X162577961Y-106532578D01*
X162570963Y-106560515D01*
X162561260Y-106587632D01*
X162548947Y-106613667D01*
X162534140Y-106638370D01*
X162516984Y-106661503D01*
X162497643Y-106682843D01*
X162476303Y-106702184D01*
X162453170Y-106719340D01*
X162428467Y-106734147D01*
X162402432Y-106746460D01*
X162375315Y-106756163D01*
X162347378Y-106763161D01*
X162318889Y-106767387D01*
X162290123Y-106768800D01*
X161527077Y-106768800D01*
X161498311Y-106767387D01*
X161469822Y-106763161D01*
X161441885Y-106756163D01*
X161414768Y-106746460D01*
X161388733Y-106734147D01*
X161364030Y-106719340D01*
X161340897Y-106702184D01*
X161319557Y-106682843D01*
X161300216Y-106661503D01*
X161283060Y-106638370D01*
X161268253Y-106613667D01*
X161255940Y-106587632D01*
X161246237Y-106560515D01*
X161239239Y-106532578D01*
X161235013Y-106504089D01*
X161233600Y-106475323D01*
X161233600Y-105462277D01*
X161235013Y-105433511D01*
X161239239Y-105405022D01*
X161246237Y-105377085D01*
X161255940Y-105349968D01*
X161268253Y-105323933D01*
X161283060Y-105299230D01*
X161300216Y-105276097D01*
X161319557Y-105254757D01*
X161340897Y-105235416D01*
X161364030Y-105218260D01*
X161388733Y-105203453D01*
X161414768Y-105191140D01*
X161441885Y-105181437D01*
X161469822Y-105174439D01*
X161498311Y-105170213D01*
X161527077Y-105168800D01*
X162290123Y-105168800D01*
X162318889Y-105170213D01*
X162318889Y-105170213D01*
G37*
D20*
X161908600Y-105968800D03*
D19*
G36*
X160268889Y-105170213D02*
G01*
X160297378Y-105174439D01*
X160325315Y-105181437D01*
X160352432Y-105191140D01*
X160378467Y-105203453D01*
X160403170Y-105218260D01*
X160426303Y-105235416D01*
X160447643Y-105254757D01*
X160466984Y-105276097D01*
X160484140Y-105299230D01*
X160498947Y-105323933D01*
X160511260Y-105349968D01*
X160520963Y-105377085D01*
X160527961Y-105405022D01*
X160532187Y-105433511D01*
X160533600Y-105462277D01*
X160533600Y-106475323D01*
X160532187Y-106504089D01*
X160527961Y-106532578D01*
X160520963Y-106560515D01*
X160511260Y-106587632D01*
X160498947Y-106613667D01*
X160484140Y-106638370D01*
X160466984Y-106661503D01*
X160447643Y-106682843D01*
X160426303Y-106702184D01*
X160403170Y-106719340D01*
X160378467Y-106734147D01*
X160352432Y-106746460D01*
X160325315Y-106756163D01*
X160297378Y-106763161D01*
X160268889Y-106767387D01*
X160240123Y-106768800D01*
X159477077Y-106768800D01*
X159448311Y-106767387D01*
X159419822Y-106763161D01*
X159391885Y-106756163D01*
X159364768Y-106746460D01*
X159338733Y-106734147D01*
X159314030Y-106719340D01*
X159290897Y-106702184D01*
X159269557Y-106682843D01*
X159250216Y-106661503D01*
X159233060Y-106638370D01*
X159218253Y-106613667D01*
X159205940Y-106587632D01*
X159196237Y-106560515D01*
X159189239Y-106532578D01*
X159185013Y-106504089D01*
X159183600Y-106475323D01*
X159183600Y-105462277D01*
X159185013Y-105433511D01*
X159189239Y-105405022D01*
X159196237Y-105377085D01*
X159205940Y-105349968D01*
X159218253Y-105323933D01*
X159233060Y-105299230D01*
X159250216Y-105276097D01*
X159269557Y-105254757D01*
X159290897Y-105235416D01*
X159314030Y-105218260D01*
X159338733Y-105203453D01*
X159364768Y-105191140D01*
X159391885Y-105181437D01*
X159419822Y-105174439D01*
X159448311Y-105170213D01*
X159477077Y-105168800D01*
X160240123Y-105168800D01*
X160268889Y-105170213D01*
X160268889Y-105170213D01*
G37*
D20*
X159858600Y-105968800D03*
D19*
G36*
X162318889Y-107430813D02*
G01*
X162347378Y-107435039D01*
X162375315Y-107442037D01*
X162402432Y-107451740D01*
X162428467Y-107464053D01*
X162453170Y-107478860D01*
X162476303Y-107496016D01*
X162497643Y-107515357D01*
X162516984Y-107536697D01*
X162534140Y-107559830D01*
X162548947Y-107584533D01*
X162561260Y-107610568D01*
X162570963Y-107637685D01*
X162577961Y-107665622D01*
X162582187Y-107694111D01*
X162583600Y-107722877D01*
X162583600Y-108735923D01*
X162582187Y-108764689D01*
X162577961Y-108793178D01*
X162570963Y-108821115D01*
X162561260Y-108848232D01*
X162548947Y-108874267D01*
X162534140Y-108898970D01*
X162516984Y-108922103D01*
X162497643Y-108943443D01*
X162476303Y-108962784D01*
X162453170Y-108979940D01*
X162428467Y-108994747D01*
X162402432Y-109007060D01*
X162375315Y-109016763D01*
X162347378Y-109023761D01*
X162318889Y-109027987D01*
X162290123Y-109029400D01*
X161527077Y-109029400D01*
X161498311Y-109027987D01*
X161469822Y-109023761D01*
X161441885Y-109016763D01*
X161414768Y-109007060D01*
X161388733Y-108994747D01*
X161364030Y-108979940D01*
X161340897Y-108962784D01*
X161319557Y-108943443D01*
X161300216Y-108922103D01*
X161283060Y-108898970D01*
X161268253Y-108874267D01*
X161255940Y-108848232D01*
X161246237Y-108821115D01*
X161239239Y-108793178D01*
X161235013Y-108764689D01*
X161233600Y-108735923D01*
X161233600Y-107722877D01*
X161235013Y-107694111D01*
X161239239Y-107665622D01*
X161246237Y-107637685D01*
X161255940Y-107610568D01*
X161268253Y-107584533D01*
X161283060Y-107559830D01*
X161300216Y-107536697D01*
X161319557Y-107515357D01*
X161340897Y-107496016D01*
X161364030Y-107478860D01*
X161388733Y-107464053D01*
X161414768Y-107451740D01*
X161441885Y-107442037D01*
X161469822Y-107435039D01*
X161498311Y-107430813D01*
X161527077Y-107429400D01*
X162290123Y-107429400D01*
X162318889Y-107430813D01*
X162318889Y-107430813D01*
G37*
D20*
X161908600Y-108229400D03*
D19*
G36*
X160268889Y-107430813D02*
G01*
X160297378Y-107435039D01*
X160325315Y-107442037D01*
X160352432Y-107451740D01*
X160378467Y-107464053D01*
X160403170Y-107478860D01*
X160426303Y-107496016D01*
X160447643Y-107515357D01*
X160466984Y-107536697D01*
X160484140Y-107559830D01*
X160498947Y-107584533D01*
X160511260Y-107610568D01*
X160520963Y-107637685D01*
X160527961Y-107665622D01*
X160532187Y-107694111D01*
X160533600Y-107722877D01*
X160533600Y-108735923D01*
X160532187Y-108764689D01*
X160527961Y-108793178D01*
X160520963Y-108821115D01*
X160511260Y-108848232D01*
X160498947Y-108874267D01*
X160484140Y-108898970D01*
X160466984Y-108922103D01*
X160447643Y-108943443D01*
X160426303Y-108962784D01*
X160403170Y-108979940D01*
X160378467Y-108994747D01*
X160352432Y-109007060D01*
X160325315Y-109016763D01*
X160297378Y-109023761D01*
X160268889Y-109027987D01*
X160240123Y-109029400D01*
X159477077Y-109029400D01*
X159448311Y-109027987D01*
X159419822Y-109023761D01*
X159391885Y-109016763D01*
X159364768Y-109007060D01*
X159338733Y-108994747D01*
X159314030Y-108979940D01*
X159290897Y-108962784D01*
X159269557Y-108943443D01*
X159250216Y-108922103D01*
X159233060Y-108898970D01*
X159218253Y-108874267D01*
X159205940Y-108848232D01*
X159196237Y-108821115D01*
X159189239Y-108793178D01*
X159185013Y-108764689D01*
X159183600Y-108735923D01*
X159183600Y-107722877D01*
X159185013Y-107694111D01*
X159189239Y-107665622D01*
X159196237Y-107637685D01*
X159205940Y-107610568D01*
X159218253Y-107584533D01*
X159233060Y-107559830D01*
X159250216Y-107536697D01*
X159269557Y-107515357D01*
X159290897Y-107496016D01*
X159314030Y-107478860D01*
X159338733Y-107464053D01*
X159364768Y-107451740D01*
X159391885Y-107442037D01*
X159419822Y-107435039D01*
X159448311Y-107430813D01*
X159477077Y-107429400D01*
X160240123Y-107429400D01*
X160268889Y-107430813D01*
X160268889Y-107430813D01*
G37*
D20*
X159858600Y-108229400D03*
D21*
X152042400Y-74345800D03*
X148742400Y-74345800D03*
D22*
X123203600Y-94145200D03*
X123203600Y-94795200D03*
X123203600Y-95445200D03*
X123203600Y-96095200D03*
X123203600Y-96745200D03*
X123203600Y-97395200D03*
X123203600Y-98045200D03*
X123203600Y-98695200D03*
X123203600Y-99345200D03*
X123203600Y-99995200D03*
X123203600Y-100645200D03*
X123203600Y-101295200D03*
X130403600Y-101295200D03*
X130403600Y-100645200D03*
X130403600Y-99995200D03*
X130403600Y-99345200D03*
X130403600Y-98695200D03*
X130403600Y-98045200D03*
X130403600Y-97395200D03*
X130403600Y-96745200D03*
X130403600Y-96095200D03*
X130403600Y-95445200D03*
X130403600Y-94795200D03*
X130403600Y-94145200D03*
D19*
G36*
X139196648Y-102303075D02*
G01*
X139208782Y-102304875D01*
X139220682Y-102307855D01*
X139232231Y-102311988D01*
X139243321Y-102317233D01*
X139253842Y-102323539D01*
X139263695Y-102330847D01*
X139272784Y-102339085D01*
X139281022Y-102348174D01*
X139288330Y-102358027D01*
X139294636Y-102368548D01*
X139299881Y-102379638D01*
X139304014Y-102391187D01*
X139306994Y-102403087D01*
X139308794Y-102415221D01*
X139309396Y-102427473D01*
X139309396Y-103927473D01*
X139308794Y-103939725D01*
X139306994Y-103951859D01*
X139304014Y-103963759D01*
X139299881Y-103975308D01*
X139294636Y-103986398D01*
X139288330Y-103996919D01*
X139281022Y-104006772D01*
X139272784Y-104015861D01*
X139263695Y-104024099D01*
X139253842Y-104031407D01*
X139243321Y-104037713D01*
X139232231Y-104042958D01*
X139220682Y-104047091D01*
X139208782Y-104050071D01*
X139196648Y-104051871D01*
X139184396Y-104052473D01*
X138934396Y-104052473D01*
X138922144Y-104051871D01*
X138910010Y-104050071D01*
X138898110Y-104047091D01*
X138886561Y-104042958D01*
X138875471Y-104037713D01*
X138864950Y-104031407D01*
X138855097Y-104024099D01*
X138846008Y-104015861D01*
X138837770Y-104006772D01*
X138830462Y-103996919D01*
X138824156Y-103986398D01*
X138818911Y-103975308D01*
X138814778Y-103963759D01*
X138811798Y-103951859D01*
X138809998Y-103939725D01*
X138809396Y-103927473D01*
X138809396Y-102427473D01*
X138809998Y-102415221D01*
X138811798Y-102403087D01*
X138814778Y-102391187D01*
X138818911Y-102379638D01*
X138824156Y-102368548D01*
X138830462Y-102358027D01*
X138837770Y-102348174D01*
X138846008Y-102339085D01*
X138855097Y-102330847D01*
X138864950Y-102323539D01*
X138875471Y-102317233D01*
X138886561Y-102311988D01*
X138898110Y-102307855D01*
X138910010Y-102304875D01*
X138922144Y-102303075D01*
X138934396Y-102302473D01*
X139184396Y-102302473D01*
X139196648Y-102303075D01*
X139196648Y-102303075D01*
G37*
D23*
X139059396Y-103177473D03*
D19*
G36*
X139696648Y-102303075D02*
G01*
X139708782Y-102304875D01*
X139720682Y-102307855D01*
X139732231Y-102311988D01*
X139743321Y-102317233D01*
X139753842Y-102323539D01*
X139763695Y-102330847D01*
X139772784Y-102339085D01*
X139781022Y-102348174D01*
X139788330Y-102358027D01*
X139794636Y-102368548D01*
X139799881Y-102379638D01*
X139804014Y-102391187D01*
X139806994Y-102403087D01*
X139808794Y-102415221D01*
X139809396Y-102427473D01*
X139809396Y-103927473D01*
X139808794Y-103939725D01*
X139806994Y-103951859D01*
X139804014Y-103963759D01*
X139799881Y-103975308D01*
X139794636Y-103986398D01*
X139788330Y-103996919D01*
X139781022Y-104006772D01*
X139772784Y-104015861D01*
X139763695Y-104024099D01*
X139753842Y-104031407D01*
X139743321Y-104037713D01*
X139732231Y-104042958D01*
X139720682Y-104047091D01*
X139708782Y-104050071D01*
X139696648Y-104051871D01*
X139684396Y-104052473D01*
X139434396Y-104052473D01*
X139422144Y-104051871D01*
X139410010Y-104050071D01*
X139398110Y-104047091D01*
X139386561Y-104042958D01*
X139375471Y-104037713D01*
X139364950Y-104031407D01*
X139355097Y-104024099D01*
X139346008Y-104015861D01*
X139337770Y-104006772D01*
X139330462Y-103996919D01*
X139324156Y-103986398D01*
X139318911Y-103975308D01*
X139314778Y-103963759D01*
X139311798Y-103951859D01*
X139309998Y-103939725D01*
X139309396Y-103927473D01*
X139309396Y-102427473D01*
X139309998Y-102415221D01*
X139311798Y-102403087D01*
X139314778Y-102391187D01*
X139318911Y-102379638D01*
X139324156Y-102368548D01*
X139330462Y-102358027D01*
X139337770Y-102348174D01*
X139346008Y-102339085D01*
X139355097Y-102330847D01*
X139364950Y-102323539D01*
X139375471Y-102317233D01*
X139386561Y-102311988D01*
X139398110Y-102307855D01*
X139410010Y-102304875D01*
X139422144Y-102303075D01*
X139434396Y-102302473D01*
X139684396Y-102302473D01*
X139696648Y-102303075D01*
X139696648Y-102303075D01*
G37*
D23*
X139559396Y-103177473D03*
D19*
G36*
X140196648Y-102303075D02*
G01*
X140208782Y-102304875D01*
X140220682Y-102307855D01*
X140232231Y-102311988D01*
X140243321Y-102317233D01*
X140253842Y-102323539D01*
X140263695Y-102330847D01*
X140272784Y-102339085D01*
X140281022Y-102348174D01*
X140288330Y-102358027D01*
X140294636Y-102368548D01*
X140299881Y-102379638D01*
X140304014Y-102391187D01*
X140306994Y-102403087D01*
X140308794Y-102415221D01*
X140309396Y-102427473D01*
X140309396Y-103927473D01*
X140308794Y-103939725D01*
X140306994Y-103951859D01*
X140304014Y-103963759D01*
X140299881Y-103975308D01*
X140294636Y-103986398D01*
X140288330Y-103996919D01*
X140281022Y-104006772D01*
X140272784Y-104015861D01*
X140263695Y-104024099D01*
X140253842Y-104031407D01*
X140243321Y-104037713D01*
X140232231Y-104042958D01*
X140220682Y-104047091D01*
X140208782Y-104050071D01*
X140196648Y-104051871D01*
X140184396Y-104052473D01*
X139934396Y-104052473D01*
X139922144Y-104051871D01*
X139910010Y-104050071D01*
X139898110Y-104047091D01*
X139886561Y-104042958D01*
X139875471Y-104037713D01*
X139864950Y-104031407D01*
X139855097Y-104024099D01*
X139846008Y-104015861D01*
X139837770Y-104006772D01*
X139830462Y-103996919D01*
X139824156Y-103986398D01*
X139818911Y-103975308D01*
X139814778Y-103963759D01*
X139811798Y-103951859D01*
X139809998Y-103939725D01*
X139809396Y-103927473D01*
X139809396Y-102427473D01*
X139809998Y-102415221D01*
X139811798Y-102403087D01*
X139814778Y-102391187D01*
X139818911Y-102379638D01*
X139824156Y-102368548D01*
X139830462Y-102358027D01*
X139837770Y-102348174D01*
X139846008Y-102339085D01*
X139855097Y-102330847D01*
X139864950Y-102323539D01*
X139875471Y-102317233D01*
X139886561Y-102311988D01*
X139898110Y-102307855D01*
X139910010Y-102304875D01*
X139922144Y-102303075D01*
X139934396Y-102302473D01*
X140184396Y-102302473D01*
X140196648Y-102303075D01*
X140196648Y-102303075D01*
G37*
D23*
X140059396Y-103177473D03*
D19*
G36*
X140696648Y-102303075D02*
G01*
X140708782Y-102304875D01*
X140720682Y-102307855D01*
X140732231Y-102311988D01*
X140743321Y-102317233D01*
X140753842Y-102323539D01*
X140763695Y-102330847D01*
X140772784Y-102339085D01*
X140781022Y-102348174D01*
X140788330Y-102358027D01*
X140794636Y-102368548D01*
X140799881Y-102379638D01*
X140804014Y-102391187D01*
X140806994Y-102403087D01*
X140808794Y-102415221D01*
X140809396Y-102427473D01*
X140809396Y-103927473D01*
X140808794Y-103939725D01*
X140806994Y-103951859D01*
X140804014Y-103963759D01*
X140799881Y-103975308D01*
X140794636Y-103986398D01*
X140788330Y-103996919D01*
X140781022Y-104006772D01*
X140772784Y-104015861D01*
X140763695Y-104024099D01*
X140753842Y-104031407D01*
X140743321Y-104037713D01*
X140732231Y-104042958D01*
X140720682Y-104047091D01*
X140708782Y-104050071D01*
X140696648Y-104051871D01*
X140684396Y-104052473D01*
X140434396Y-104052473D01*
X140422144Y-104051871D01*
X140410010Y-104050071D01*
X140398110Y-104047091D01*
X140386561Y-104042958D01*
X140375471Y-104037713D01*
X140364950Y-104031407D01*
X140355097Y-104024099D01*
X140346008Y-104015861D01*
X140337770Y-104006772D01*
X140330462Y-103996919D01*
X140324156Y-103986398D01*
X140318911Y-103975308D01*
X140314778Y-103963759D01*
X140311798Y-103951859D01*
X140309998Y-103939725D01*
X140309396Y-103927473D01*
X140309396Y-102427473D01*
X140309998Y-102415221D01*
X140311798Y-102403087D01*
X140314778Y-102391187D01*
X140318911Y-102379638D01*
X140324156Y-102368548D01*
X140330462Y-102358027D01*
X140337770Y-102348174D01*
X140346008Y-102339085D01*
X140355097Y-102330847D01*
X140364950Y-102323539D01*
X140375471Y-102317233D01*
X140386561Y-102311988D01*
X140398110Y-102307855D01*
X140410010Y-102304875D01*
X140422144Y-102303075D01*
X140434396Y-102302473D01*
X140684396Y-102302473D01*
X140696648Y-102303075D01*
X140696648Y-102303075D01*
G37*
D23*
X140559396Y-103177473D03*
D19*
G36*
X141196648Y-102303075D02*
G01*
X141208782Y-102304875D01*
X141220682Y-102307855D01*
X141232231Y-102311988D01*
X141243321Y-102317233D01*
X141253842Y-102323539D01*
X141263695Y-102330847D01*
X141272784Y-102339085D01*
X141281022Y-102348174D01*
X141288330Y-102358027D01*
X141294636Y-102368548D01*
X141299881Y-102379638D01*
X141304014Y-102391187D01*
X141306994Y-102403087D01*
X141308794Y-102415221D01*
X141309396Y-102427473D01*
X141309396Y-103927473D01*
X141308794Y-103939725D01*
X141306994Y-103951859D01*
X141304014Y-103963759D01*
X141299881Y-103975308D01*
X141294636Y-103986398D01*
X141288330Y-103996919D01*
X141281022Y-104006772D01*
X141272784Y-104015861D01*
X141263695Y-104024099D01*
X141253842Y-104031407D01*
X141243321Y-104037713D01*
X141232231Y-104042958D01*
X141220682Y-104047091D01*
X141208782Y-104050071D01*
X141196648Y-104051871D01*
X141184396Y-104052473D01*
X140934396Y-104052473D01*
X140922144Y-104051871D01*
X140910010Y-104050071D01*
X140898110Y-104047091D01*
X140886561Y-104042958D01*
X140875471Y-104037713D01*
X140864950Y-104031407D01*
X140855097Y-104024099D01*
X140846008Y-104015861D01*
X140837770Y-104006772D01*
X140830462Y-103996919D01*
X140824156Y-103986398D01*
X140818911Y-103975308D01*
X140814778Y-103963759D01*
X140811798Y-103951859D01*
X140809998Y-103939725D01*
X140809396Y-103927473D01*
X140809396Y-102427473D01*
X140809998Y-102415221D01*
X140811798Y-102403087D01*
X140814778Y-102391187D01*
X140818911Y-102379638D01*
X140824156Y-102368548D01*
X140830462Y-102358027D01*
X140837770Y-102348174D01*
X140846008Y-102339085D01*
X140855097Y-102330847D01*
X140864950Y-102323539D01*
X140875471Y-102317233D01*
X140886561Y-102311988D01*
X140898110Y-102307855D01*
X140910010Y-102304875D01*
X140922144Y-102303075D01*
X140934396Y-102302473D01*
X141184396Y-102302473D01*
X141196648Y-102303075D01*
X141196648Y-102303075D01*
G37*
D23*
X141059396Y-103177473D03*
D19*
G36*
X141696648Y-102303075D02*
G01*
X141708782Y-102304875D01*
X141720682Y-102307855D01*
X141732231Y-102311988D01*
X141743321Y-102317233D01*
X141753842Y-102323539D01*
X141763695Y-102330847D01*
X141772784Y-102339085D01*
X141781022Y-102348174D01*
X141788330Y-102358027D01*
X141794636Y-102368548D01*
X141799881Y-102379638D01*
X141804014Y-102391187D01*
X141806994Y-102403087D01*
X141808794Y-102415221D01*
X141809396Y-102427473D01*
X141809396Y-103927473D01*
X141808794Y-103939725D01*
X141806994Y-103951859D01*
X141804014Y-103963759D01*
X141799881Y-103975308D01*
X141794636Y-103986398D01*
X141788330Y-103996919D01*
X141781022Y-104006772D01*
X141772784Y-104015861D01*
X141763695Y-104024099D01*
X141753842Y-104031407D01*
X141743321Y-104037713D01*
X141732231Y-104042958D01*
X141720682Y-104047091D01*
X141708782Y-104050071D01*
X141696648Y-104051871D01*
X141684396Y-104052473D01*
X141434396Y-104052473D01*
X141422144Y-104051871D01*
X141410010Y-104050071D01*
X141398110Y-104047091D01*
X141386561Y-104042958D01*
X141375471Y-104037713D01*
X141364950Y-104031407D01*
X141355097Y-104024099D01*
X141346008Y-104015861D01*
X141337770Y-104006772D01*
X141330462Y-103996919D01*
X141324156Y-103986398D01*
X141318911Y-103975308D01*
X141314778Y-103963759D01*
X141311798Y-103951859D01*
X141309998Y-103939725D01*
X141309396Y-103927473D01*
X141309396Y-102427473D01*
X141309998Y-102415221D01*
X141311798Y-102403087D01*
X141314778Y-102391187D01*
X141318911Y-102379638D01*
X141324156Y-102368548D01*
X141330462Y-102358027D01*
X141337770Y-102348174D01*
X141346008Y-102339085D01*
X141355097Y-102330847D01*
X141364950Y-102323539D01*
X141375471Y-102317233D01*
X141386561Y-102311988D01*
X141398110Y-102307855D01*
X141410010Y-102304875D01*
X141422144Y-102303075D01*
X141434396Y-102302473D01*
X141684396Y-102302473D01*
X141696648Y-102303075D01*
X141696648Y-102303075D01*
G37*
D23*
X141559396Y-103177473D03*
D19*
G36*
X142196648Y-102303075D02*
G01*
X142208782Y-102304875D01*
X142220682Y-102307855D01*
X142232231Y-102311988D01*
X142243321Y-102317233D01*
X142253842Y-102323539D01*
X142263695Y-102330847D01*
X142272784Y-102339085D01*
X142281022Y-102348174D01*
X142288330Y-102358027D01*
X142294636Y-102368548D01*
X142299881Y-102379638D01*
X142304014Y-102391187D01*
X142306994Y-102403087D01*
X142308794Y-102415221D01*
X142309396Y-102427473D01*
X142309396Y-103927473D01*
X142308794Y-103939725D01*
X142306994Y-103951859D01*
X142304014Y-103963759D01*
X142299881Y-103975308D01*
X142294636Y-103986398D01*
X142288330Y-103996919D01*
X142281022Y-104006772D01*
X142272784Y-104015861D01*
X142263695Y-104024099D01*
X142253842Y-104031407D01*
X142243321Y-104037713D01*
X142232231Y-104042958D01*
X142220682Y-104047091D01*
X142208782Y-104050071D01*
X142196648Y-104051871D01*
X142184396Y-104052473D01*
X141934396Y-104052473D01*
X141922144Y-104051871D01*
X141910010Y-104050071D01*
X141898110Y-104047091D01*
X141886561Y-104042958D01*
X141875471Y-104037713D01*
X141864950Y-104031407D01*
X141855097Y-104024099D01*
X141846008Y-104015861D01*
X141837770Y-104006772D01*
X141830462Y-103996919D01*
X141824156Y-103986398D01*
X141818911Y-103975308D01*
X141814778Y-103963759D01*
X141811798Y-103951859D01*
X141809998Y-103939725D01*
X141809396Y-103927473D01*
X141809396Y-102427473D01*
X141809998Y-102415221D01*
X141811798Y-102403087D01*
X141814778Y-102391187D01*
X141818911Y-102379638D01*
X141824156Y-102368548D01*
X141830462Y-102358027D01*
X141837770Y-102348174D01*
X141846008Y-102339085D01*
X141855097Y-102330847D01*
X141864950Y-102323539D01*
X141875471Y-102317233D01*
X141886561Y-102311988D01*
X141898110Y-102307855D01*
X141910010Y-102304875D01*
X141922144Y-102303075D01*
X141934396Y-102302473D01*
X142184396Y-102302473D01*
X142196648Y-102303075D01*
X142196648Y-102303075D01*
G37*
D23*
X142059396Y-103177473D03*
D19*
G36*
X142696648Y-102303075D02*
G01*
X142708782Y-102304875D01*
X142720682Y-102307855D01*
X142732231Y-102311988D01*
X142743321Y-102317233D01*
X142753842Y-102323539D01*
X142763695Y-102330847D01*
X142772784Y-102339085D01*
X142781022Y-102348174D01*
X142788330Y-102358027D01*
X142794636Y-102368548D01*
X142799881Y-102379638D01*
X142804014Y-102391187D01*
X142806994Y-102403087D01*
X142808794Y-102415221D01*
X142809396Y-102427473D01*
X142809396Y-103927473D01*
X142808794Y-103939725D01*
X142806994Y-103951859D01*
X142804014Y-103963759D01*
X142799881Y-103975308D01*
X142794636Y-103986398D01*
X142788330Y-103996919D01*
X142781022Y-104006772D01*
X142772784Y-104015861D01*
X142763695Y-104024099D01*
X142753842Y-104031407D01*
X142743321Y-104037713D01*
X142732231Y-104042958D01*
X142720682Y-104047091D01*
X142708782Y-104050071D01*
X142696648Y-104051871D01*
X142684396Y-104052473D01*
X142434396Y-104052473D01*
X142422144Y-104051871D01*
X142410010Y-104050071D01*
X142398110Y-104047091D01*
X142386561Y-104042958D01*
X142375471Y-104037713D01*
X142364950Y-104031407D01*
X142355097Y-104024099D01*
X142346008Y-104015861D01*
X142337770Y-104006772D01*
X142330462Y-103996919D01*
X142324156Y-103986398D01*
X142318911Y-103975308D01*
X142314778Y-103963759D01*
X142311798Y-103951859D01*
X142309998Y-103939725D01*
X142309396Y-103927473D01*
X142309396Y-102427473D01*
X142309998Y-102415221D01*
X142311798Y-102403087D01*
X142314778Y-102391187D01*
X142318911Y-102379638D01*
X142324156Y-102368548D01*
X142330462Y-102358027D01*
X142337770Y-102348174D01*
X142346008Y-102339085D01*
X142355097Y-102330847D01*
X142364950Y-102323539D01*
X142375471Y-102317233D01*
X142386561Y-102311988D01*
X142398110Y-102307855D01*
X142410010Y-102304875D01*
X142422144Y-102303075D01*
X142434396Y-102302473D01*
X142684396Y-102302473D01*
X142696648Y-102303075D01*
X142696648Y-102303075D01*
G37*
D23*
X142559396Y-103177473D03*
D19*
G36*
X143196648Y-102303075D02*
G01*
X143208782Y-102304875D01*
X143220682Y-102307855D01*
X143232231Y-102311988D01*
X143243321Y-102317233D01*
X143253842Y-102323539D01*
X143263695Y-102330847D01*
X143272784Y-102339085D01*
X143281022Y-102348174D01*
X143288330Y-102358027D01*
X143294636Y-102368548D01*
X143299881Y-102379638D01*
X143304014Y-102391187D01*
X143306994Y-102403087D01*
X143308794Y-102415221D01*
X143309396Y-102427473D01*
X143309396Y-103927473D01*
X143308794Y-103939725D01*
X143306994Y-103951859D01*
X143304014Y-103963759D01*
X143299881Y-103975308D01*
X143294636Y-103986398D01*
X143288330Y-103996919D01*
X143281022Y-104006772D01*
X143272784Y-104015861D01*
X143263695Y-104024099D01*
X143253842Y-104031407D01*
X143243321Y-104037713D01*
X143232231Y-104042958D01*
X143220682Y-104047091D01*
X143208782Y-104050071D01*
X143196648Y-104051871D01*
X143184396Y-104052473D01*
X142934396Y-104052473D01*
X142922144Y-104051871D01*
X142910010Y-104050071D01*
X142898110Y-104047091D01*
X142886561Y-104042958D01*
X142875471Y-104037713D01*
X142864950Y-104031407D01*
X142855097Y-104024099D01*
X142846008Y-104015861D01*
X142837770Y-104006772D01*
X142830462Y-103996919D01*
X142824156Y-103986398D01*
X142818911Y-103975308D01*
X142814778Y-103963759D01*
X142811798Y-103951859D01*
X142809998Y-103939725D01*
X142809396Y-103927473D01*
X142809396Y-102427473D01*
X142809998Y-102415221D01*
X142811798Y-102403087D01*
X142814778Y-102391187D01*
X142818911Y-102379638D01*
X142824156Y-102368548D01*
X142830462Y-102358027D01*
X142837770Y-102348174D01*
X142846008Y-102339085D01*
X142855097Y-102330847D01*
X142864950Y-102323539D01*
X142875471Y-102317233D01*
X142886561Y-102311988D01*
X142898110Y-102307855D01*
X142910010Y-102304875D01*
X142922144Y-102303075D01*
X142934396Y-102302473D01*
X143184396Y-102302473D01*
X143196648Y-102303075D01*
X143196648Y-102303075D01*
G37*
D23*
X143059396Y-103177473D03*
D19*
G36*
X143696648Y-102303075D02*
G01*
X143708782Y-102304875D01*
X143720682Y-102307855D01*
X143732231Y-102311988D01*
X143743321Y-102317233D01*
X143753842Y-102323539D01*
X143763695Y-102330847D01*
X143772784Y-102339085D01*
X143781022Y-102348174D01*
X143788330Y-102358027D01*
X143794636Y-102368548D01*
X143799881Y-102379638D01*
X143804014Y-102391187D01*
X143806994Y-102403087D01*
X143808794Y-102415221D01*
X143809396Y-102427473D01*
X143809396Y-103927473D01*
X143808794Y-103939725D01*
X143806994Y-103951859D01*
X143804014Y-103963759D01*
X143799881Y-103975308D01*
X143794636Y-103986398D01*
X143788330Y-103996919D01*
X143781022Y-104006772D01*
X143772784Y-104015861D01*
X143763695Y-104024099D01*
X143753842Y-104031407D01*
X143743321Y-104037713D01*
X143732231Y-104042958D01*
X143720682Y-104047091D01*
X143708782Y-104050071D01*
X143696648Y-104051871D01*
X143684396Y-104052473D01*
X143434396Y-104052473D01*
X143422144Y-104051871D01*
X143410010Y-104050071D01*
X143398110Y-104047091D01*
X143386561Y-104042958D01*
X143375471Y-104037713D01*
X143364950Y-104031407D01*
X143355097Y-104024099D01*
X143346008Y-104015861D01*
X143337770Y-104006772D01*
X143330462Y-103996919D01*
X143324156Y-103986398D01*
X143318911Y-103975308D01*
X143314778Y-103963759D01*
X143311798Y-103951859D01*
X143309998Y-103939725D01*
X143309396Y-103927473D01*
X143309396Y-102427473D01*
X143309998Y-102415221D01*
X143311798Y-102403087D01*
X143314778Y-102391187D01*
X143318911Y-102379638D01*
X143324156Y-102368548D01*
X143330462Y-102358027D01*
X143337770Y-102348174D01*
X143346008Y-102339085D01*
X143355097Y-102330847D01*
X143364950Y-102323539D01*
X143375471Y-102317233D01*
X143386561Y-102311988D01*
X143398110Y-102307855D01*
X143410010Y-102304875D01*
X143422144Y-102303075D01*
X143434396Y-102302473D01*
X143684396Y-102302473D01*
X143696648Y-102303075D01*
X143696648Y-102303075D01*
G37*
D23*
X143559396Y-103177473D03*
D19*
G36*
X144196648Y-102303075D02*
G01*
X144208782Y-102304875D01*
X144220682Y-102307855D01*
X144232231Y-102311988D01*
X144243321Y-102317233D01*
X144253842Y-102323539D01*
X144263695Y-102330847D01*
X144272784Y-102339085D01*
X144281022Y-102348174D01*
X144288330Y-102358027D01*
X144294636Y-102368548D01*
X144299881Y-102379638D01*
X144304014Y-102391187D01*
X144306994Y-102403087D01*
X144308794Y-102415221D01*
X144309396Y-102427473D01*
X144309396Y-103927473D01*
X144308794Y-103939725D01*
X144306994Y-103951859D01*
X144304014Y-103963759D01*
X144299881Y-103975308D01*
X144294636Y-103986398D01*
X144288330Y-103996919D01*
X144281022Y-104006772D01*
X144272784Y-104015861D01*
X144263695Y-104024099D01*
X144253842Y-104031407D01*
X144243321Y-104037713D01*
X144232231Y-104042958D01*
X144220682Y-104047091D01*
X144208782Y-104050071D01*
X144196648Y-104051871D01*
X144184396Y-104052473D01*
X143934396Y-104052473D01*
X143922144Y-104051871D01*
X143910010Y-104050071D01*
X143898110Y-104047091D01*
X143886561Y-104042958D01*
X143875471Y-104037713D01*
X143864950Y-104031407D01*
X143855097Y-104024099D01*
X143846008Y-104015861D01*
X143837770Y-104006772D01*
X143830462Y-103996919D01*
X143824156Y-103986398D01*
X143818911Y-103975308D01*
X143814778Y-103963759D01*
X143811798Y-103951859D01*
X143809998Y-103939725D01*
X143809396Y-103927473D01*
X143809396Y-102427473D01*
X143809998Y-102415221D01*
X143811798Y-102403087D01*
X143814778Y-102391187D01*
X143818911Y-102379638D01*
X143824156Y-102368548D01*
X143830462Y-102358027D01*
X143837770Y-102348174D01*
X143846008Y-102339085D01*
X143855097Y-102330847D01*
X143864950Y-102323539D01*
X143875471Y-102317233D01*
X143886561Y-102311988D01*
X143898110Y-102307855D01*
X143910010Y-102304875D01*
X143922144Y-102303075D01*
X143934396Y-102302473D01*
X144184396Y-102302473D01*
X144196648Y-102303075D01*
X144196648Y-102303075D01*
G37*
D23*
X144059396Y-103177473D03*
D19*
G36*
X144696648Y-102303075D02*
G01*
X144708782Y-102304875D01*
X144720682Y-102307855D01*
X144732231Y-102311988D01*
X144743321Y-102317233D01*
X144753842Y-102323539D01*
X144763695Y-102330847D01*
X144772784Y-102339085D01*
X144781022Y-102348174D01*
X144788330Y-102358027D01*
X144794636Y-102368548D01*
X144799881Y-102379638D01*
X144804014Y-102391187D01*
X144806994Y-102403087D01*
X144808794Y-102415221D01*
X144809396Y-102427473D01*
X144809396Y-103927473D01*
X144808794Y-103939725D01*
X144806994Y-103951859D01*
X144804014Y-103963759D01*
X144799881Y-103975308D01*
X144794636Y-103986398D01*
X144788330Y-103996919D01*
X144781022Y-104006772D01*
X144772784Y-104015861D01*
X144763695Y-104024099D01*
X144753842Y-104031407D01*
X144743321Y-104037713D01*
X144732231Y-104042958D01*
X144720682Y-104047091D01*
X144708782Y-104050071D01*
X144696648Y-104051871D01*
X144684396Y-104052473D01*
X144434396Y-104052473D01*
X144422144Y-104051871D01*
X144410010Y-104050071D01*
X144398110Y-104047091D01*
X144386561Y-104042958D01*
X144375471Y-104037713D01*
X144364950Y-104031407D01*
X144355097Y-104024099D01*
X144346008Y-104015861D01*
X144337770Y-104006772D01*
X144330462Y-103996919D01*
X144324156Y-103986398D01*
X144318911Y-103975308D01*
X144314778Y-103963759D01*
X144311798Y-103951859D01*
X144309998Y-103939725D01*
X144309396Y-103927473D01*
X144309396Y-102427473D01*
X144309998Y-102415221D01*
X144311798Y-102403087D01*
X144314778Y-102391187D01*
X144318911Y-102379638D01*
X144324156Y-102368548D01*
X144330462Y-102358027D01*
X144337770Y-102348174D01*
X144346008Y-102339085D01*
X144355097Y-102330847D01*
X144364950Y-102323539D01*
X144375471Y-102317233D01*
X144386561Y-102311988D01*
X144398110Y-102307855D01*
X144410010Y-102304875D01*
X144422144Y-102303075D01*
X144434396Y-102302473D01*
X144684396Y-102302473D01*
X144696648Y-102303075D01*
X144696648Y-102303075D01*
G37*
D23*
X144559396Y-103177473D03*
D19*
G36*
X145196648Y-102303075D02*
G01*
X145208782Y-102304875D01*
X145220682Y-102307855D01*
X145232231Y-102311988D01*
X145243321Y-102317233D01*
X145253842Y-102323539D01*
X145263695Y-102330847D01*
X145272784Y-102339085D01*
X145281022Y-102348174D01*
X145288330Y-102358027D01*
X145294636Y-102368548D01*
X145299881Y-102379638D01*
X145304014Y-102391187D01*
X145306994Y-102403087D01*
X145308794Y-102415221D01*
X145309396Y-102427473D01*
X145309396Y-103927473D01*
X145308794Y-103939725D01*
X145306994Y-103951859D01*
X145304014Y-103963759D01*
X145299881Y-103975308D01*
X145294636Y-103986398D01*
X145288330Y-103996919D01*
X145281022Y-104006772D01*
X145272784Y-104015861D01*
X145263695Y-104024099D01*
X145253842Y-104031407D01*
X145243321Y-104037713D01*
X145232231Y-104042958D01*
X145220682Y-104047091D01*
X145208782Y-104050071D01*
X145196648Y-104051871D01*
X145184396Y-104052473D01*
X144934396Y-104052473D01*
X144922144Y-104051871D01*
X144910010Y-104050071D01*
X144898110Y-104047091D01*
X144886561Y-104042958D01*
X144875471Y-104037713D01*
X144864950Y-104031407D01*
X144855097Y-104024099D01*
X144846008Y-104015861D01*
X144837770Y-104006772D01*
X144830462Y-103996919D01*
X144824156Y-103986398D01*
X144818911Y-103975308D01*
X144814778Y-103963759D01*
X144811798Y-103951859D01*
X144809998Y-103939725D01*
X144809396Y-103927473D01*
X144809396Y-102427473D01*
X144809998Y-102415221D01*
X144811798Y-102403087D01*
X144814778Y-102391187D01*
X144818911Y-102379638D01*
X144824156Y-102368548D01*
X144830462Y-102358027D01*
X144837770Y-102348174D01*
X144846008Y-102339085D01*
X144855097Y-102330847D01*
X144864950Y-102323539D01*
X144875471Y-102317233D01*
X144886561Y-102311988D01*
X144898110Y-102307855D01*
X144910010Y-102304875D01*
X144922144Y-102303075D01*
X144934396Y-102302473D01*
X145184396Y-102302473D01*
X145196648Y-102303075D01*
X145196648Y-102303075D01*
G37*
D23*
X145059396Y-103177473D03*
D19*
G36*
X145696648Y-102303075D02*
G01*
X145708782Y-102304875D01*
X145720682Y-102307855D01*
X145732231Y-102311988D01*
X145743321Y-102317233D01*
X145753842Y-102323539D01*
X145763695Y-102330847D01*
X145772784Y-102339085D01*
X145781022Y-102348174D01*
X145788330Y-102358027D01*
X145794636Y-102368548D01*
X145799881Y-102379638D01*
X145804014Y-102391187D01*
X145806994Y-102403087D01*
X145808794Y-102415221D01*
X145809396Y-102427473D01*
X145809396Y-103927473D01*
X145808794Y-103939725D01*
X145806994Y-103951859D01*
X145804014Y-103963759D01*
X145799881Y-103975308D01*
X145794636Y-103986398D01*
X145788330Y-103996919D01*
X145781022Y-104006772D01*
X145772784Y-104015861D01*
X145763695Y-104024099D01*
X145753842Y-104031407D01*
X145743321Y-104037713D01*
X145732231Y-104042958D01*
X145720682Y-104047091D01*
X145708782Y-104050071D01*
X145696648Y-104051871D01*
X145684396Y-104052473D01*
X145434396Y-104052473D01*
X145422144Y-104051871D01*
X145410010Y-104050071D01*
X145398110Y-104047091D01*
X145386561Y-104042958D01*
X145375471Y-104037713D01*
X145364950Y-104031407D01*
X145355097Y-104024099D01*
X145346008Y-104015861D01*
X145337770Y-104006772D01*
X145330462Y-103996919D01*
X145324156Y-103986398D01*
X145318911Y-103975308D01*
X145314778Y-103963759D01*
X145311798Y-103951859D01*
X145309998Y-103939725D01*
X145309396Y-103927473D01*
X145309396Y-102427473D01*
X145309998Y-102415221D01*
X145311798Y-102403087D01*
X145314778Y-102391187D01*
X145318911Y-102379638D01*
X145324156Y-102368548D01*
X145330462Y-102358027D01*
X145337770Y-102348174D01*
X145346008Y-102339085D01*
X145355097Y-102330847D01*
X145364950Y-102323539D01*
X145375471Y-102317233D01*
X145386561Y-102311988D01*
X145398110Y-102307855D01*
X145410010Y-102304875D01*
X145422144Y-102303075D01*
X145434396Y-102302473D01*
X145684396Y-102302473D01*
X145696648Y-102303075D01*
X145696648Y-102303075D01*
G37*
D23*
X145559396Y-103177473D03*
D19*
G36*
X146196648Y-102303075D02*
G01*
X146208782Y-102304875D01*
X146220682Y-102307855D01*
X146232231Y-102311988D01*
X146243321Y-102317233D01*
X146253842Y-102323539D01*
X146263695Y-102330847D01*
X146272784Y-102339085D01*
X146281022Y-102348174D01*
X146288330Y-102358027D01*
X146294636Y-102368548D01*
X146299881Y-102379638D01*
X146304014Y-102391187D01*
X146306994Y-102403087D01*
X146308794Y-102415221D01*
X146309396Y-102427473D01*
X146309396Y-103927473D01*
X146308794Y-103939725D01*
X146306994Y-103951859D01*
X146304014Y-103963759D01*
X146299881Y-103975308D01*
X146294636Y-103986398D01*
X146288330Y-103996919D01*
X146281022Y-104006772D01*
X146272784Y-104015861D01*
X146263695Y-104024099D01*
X146253842Y-104031407D01*
X146243321Y-104037713D01*
X146232231Y-104042958D01*
X146220682Y-104047091D01*
X146208782Y-104050071D01*
X146196648Y-104051871D01*
X146184396Y-104052473D01*
X145934396Y-104052473D01*
X145922144Y-104051871D01*
X145910010Y-104050071D01*
X145898110Y-104047091D01*
X145886561Y-104042958D01*
X145875471Y-104037713D01*
X145864950Y-104031407D01*
X145855097Y-104024099D01*
X145846008Y-104015861D01*
X145837770Y-104006772D01*
X145830462Y-103996919D01*
X145824156Y-103986398D01*
X145818911Y-103975308D01*
X145814778Y-103963759D01*
X145811798Y-103951859D01*
X145809998Y-103939725D01*
X145809396Y-103927473D01*
X145809396Y-102427473D01*
X145809998Y-102415221D01*
X145811798Y-102403087D01*
X145814778Y-102391187D01*
X145818911Y-102379638D01*
X145824156Y-102368548D01*
X145830462Y-102358027D01*
X145837770Y-102348174D01*
X145846008Y-102339085D01*
X145855097Y-102330847D01*
X145864950Y-102323539D01*
X145875471Y-102317233D01*
X145886561Y-102311988D01*
X145898110Y-102307855D01*
X145910010Y-102304875D01*
X145922144Y-102303075D01*
X145934396Y-102302473D01*
X146184396Y-102302473D01*
X146196648Y-102303075D01*
X146196648Y-102303075D01*
G37*
D23*
X146059396Y-103177473D03*
D19*
G36*
X146696648Y-102303075D02*
G01*
X146708782Y-102304875D01*
X146720682Y-102307855D01*
X146732231Y-102311988D01*
X146743321Y-102317233D01*
X146753842Y-102323539D01*
X146763695Y-102330847D01*
X146772784Y-102339085D01*
X146781022Y-102348174D01*
X146788330Y-102358027D01*
X146794636Y-102368548D01*
X146799881Y-102379638D01*
X146804014Y-102391187D01*
X146806994Y-102403087D01*
X146808794Y-102415221D01*
X146809396Y-102427473D01*
X146809396Y-103927473D01*
X146808794Y-103939725D01*
X146806994Y-103951859D01*
X146804014Y-103963759D01*
X146799881Y-103975308D01*
X146794636Y-103986398D01*
X146788330Y-103996919D01*
X146781022Y-104006772D01*
X146772784Y-104015861D01*
X146763695Y-104024099D01*
X146753842Y-104031407D01*
X146743321Y-104037713D01*
X146732231Y-104042958D01*
X146720682Y-104047091D01*
X146708782Y-104050071D01*
X146696648Y-104051871D01*
X146684396Y-104052473D01*
X146434396Y-104052473D01*
X146422144Y-104051871D01*
X146410010Y-104050071D01*
X146398110Y-104047091D01*
X146386561Y-104042958D01*
X146375471Y-104037713D01*
X146364950Y-104031407D01*
X146355097Y-104024099D01*
X146346008Y-104015861D01*
X146337770Y-104006772D01*
X146330462Y-103996919D01*
X146324156Y-103986398D01*
X146318911Y-103975308D01*
X146314778Y-103963759D01*
X146311798Y-103951859D01*
X146309998Y-103939725D01*
X146309396Y-103927473D01*
X146309396Y-102427473D01*
X146309998Y-102415221D01*
X146311798Y-102403087D01*
X146314778Y-102391187D01*
X146318911Y-102379638D01*
X146324156Y-102368548D01*
X146330462Y-102358027D01*
X146337770Y-102348174D01*
X146346008Y-102339085D01*
X146355097Y-102330847D01*
X146364950Y-102323539D01*
X146375471Y-102317233D01*
X146386561Y-102311988D01*
X146398110Y-102307855D01*
X146410010Y-102304875D01*
X146422144Y-102303075D01*
X146434396Y-102302473D01*
X146684396Y-102302473D01*
X146696648Y-102303075D01*
X146696648Y-102303075D01*
G37*
D23*
X146559396Y-103177473D03*
D19*
G36*
X149246648Y-101003075D02*
G01*
X149258782Y-101004875D01*
X149270682Y-101007855D01*
X149282231Y-101011988D01*
X149293321Y-101017233D01*
X149303842Y-101023539D01*
X149313695Y-101030847D01*
X149322784Y-101039085D01*
X149331022Y-101048174D01*
X149338330Y-101058027D01*
X149344636Y-101068548D01*
X149349881Y-101079638D01*
X149354014Y-101091187D01*
X149356994Y-101103087D01*
X149358794Y-101115221D01*
X149359396Y-101127473D01*
X149359396Y-101377473D01*
X149358794Y-101389725D01*
X149356994Y-101401859D01*
X149354014Y-101413759D01*
X149349881Y-101425308D01*
X149344636Y-101436398D01*
X149338330Y-101446919D01*
X149331022Y-101456772D01*
X149322784Y-101465861D01*
X149313695Y-101474099D01*
X149303842Y-101481407D01*
X149293321Y-101487713D01*
X149282231Y-101492958D01*
X149270682Y-101497091D01*
X149258782Y-101500071D01*
X149246648Y-101501871D01*
X149234396Y-101502473D01*
X147734396Y-101502473D01*
X147722144Y-101501871D01*
X147710010Y-101500071D01*
X147698110Y-101497091D01*
X147686561Y-101492958D01*
X147675471Y-101487713D01*
X147664950Y-101481407D01*
X147655097Y-101474099D01*
X147646008Y-101465861D01*
X147637770Y-101456772D01*
X147630462Y-101446919D01*
X147624156Y-101436398D01*
X147618911Y-101425308D01*
X147614778Y-101413759D01*
X147611798Y-101401859D01*
X147609998Y-101389725D01*
X147609396Y-101377473D01*
X147609396Y-101127473D01*
X147609998Y-101115221D01*
X147611798Y-101103087D01*
X147614778Y-101091187D01*
X147618911Y-101079638D01*
X147624156Y-101068548D01*
X147630462Y-101058027D01*
X147637770Y-101048174D01*
X147646008Y-101039085D01*
X147655097Y-101030847D01*
X147664950Y-101023539D01*
X147675471Y-101017233D01*
X147686561Y-101011988D01*
X147698110Y-101007855D01*
X147710010Y-101004875D01*
X147722144Y-101003075D01*
X147734396Y-101002473D01*
X149234396Y-101002473D01*
X149246648Y-101003075D01*
X149246648Y-101003075D01*
G37*
D23*
X148484396Y-101252473D03*
D19*
G36*
X149246648Y-100503075D02*
G01*
X149258782Y-100504875D01*
X149270682Y-100507855D01*
X149282231Y-100511988D01*
X149293321Y-100517233D01*
X149303842Y-100523539D01*
X149313695Y-100530847D01*
X149322784Y-100539085D01*
X149331022Y-100548174D01*
X149338330Y-100558027D01*
X149344636Y-100568548D01*
X149349881Y-100579638D01*
X149354014Y-100591187D01*
X149356994Y-100603087D01*
X149358794Y-100615221D01*
X149359396Y-100627473D01*
X149359396Y-100877473D01*
X149358794Y-100889725D01*
X149356994Y-100901859D01*
X149354014Y-100913759D01*
X149349881Y-100925308D01*
X149344636Y-100936398D01*
X149338330Y-100946919D01*
X149331022Y-100956772D01*
X149322784Y-100965861D01*
X149313695Y-100974099D01*
X149303842Y-100981407D01*
X149293321Y-100987713D01*
X149282231Y-100992958D01*
X149270682Y-100997091D01*
X149258782Y-101000071D01*
X149246648Y-101001871D01*
X149234396Y-101002473D01*
X147734396Y-101002473D01*
X147722144Y-101001871D01*
X147710010Y-101000071D01*
X147698110Y-100997091D01*
X147686561Y-100992958D01*
X147675471Y-100987713D01*
X147664950Y-100981407D01*
X147655097Y-100974099D01*
X147646008Y-100965861D01*
X147637770Y-100956772D01*
X147630462Y-100946919D01*
X147624156Y-100936398D01*
X147618911Y-100925308D01*
X147614778Y-100913759D01*
X147611798Y-100901859D01*
X147609998Y-100889725D01*
X147609396Y-100877473D01*
X147609396Y-100627473D01*
X147609998Y-100615221D01*
X147611798Y-100603087D01*
X147614778Y-100591187D01*
X147618911Y-100579638D01*
X147624156Y-100568548D01*
X147630462Y-100558027D01*
X147637770Y-100548174D01*
X147646008Y-100539085D01*
X147655097Y-100530847D01*
X147664950Y-100523539D01*
X147675471Y-100517233D01*
X147686561Y-100511988D01*
X147698110Y-100507855D01*
X147710010Y-100504875D01*
X147722144Y-100503075D01*
X147734396Y-100502473D01*
X149234396Y-100502473D01*
X149246648Y-100503075D01*
X149246648Y-100503075D01*
G37*
D23*
X148484396Y-100752473D03*
D19*
G36*
X149246648Y-100003075D02*
G01*
X149258782Y-100004875D01*
X149270682Y-100007855D01*
X149282231Y-100011988D01*
X149293321Y-100017233D01*
X149303842Y-100023539D01*
X149313695Y-100030847D01*
X149322784Y-100039085D01*
X149331022Y-100048174D01*
X149338330Y-100058027D01*
X149344636Y-100068548D01*
X149349881Y-100079638D01*
X149354014Y-100091187D01*
X149356994Y-100103087D01*
X149358794Y-100115221D01*
X149359396Y-100127473D01*
X149359396Y-100377473D01*
X149358794Y-100389725D01*
X149356994Y-100401859D01*
X149354014Y-100413759D01*
X149349881Y-100425308D01*
X149344636Y-100436398D01*
X149338330Y-100446919D01*
X149331022Y-100456772D01*
X149322784Y-100465861D01*
X149313695Y-100474099D01*
X149303842Y-100481407D01*
X149293321Y-100487713D01*
X149282231Y-100492958D01*
X149270682Y-100497091D01*
X149258782Y-100500071D01*
X149246648Y-100501871D01*
X149234396Y-100502473D01*
X147734396Y-100502473D01*
X147722144Y-100501871D01*
X147710010Y-100500071D01*
X147698110Y-100497091D01*
X147686561Y-100492958D01*
X147675471Y-100487713D01*
X147664950Y-100481407D01*
X147655097Y-100474099D01*
X147646008Y-100465861D01*
X147637770Y-100456772D01*
X147630462Y-100446919D01*
X147624156Y-100436398D01*
X147618911Y-100425308D01*
X147614778Y-100413759D01*
X147611798Y-100401859D01*
X147609998Y-100389725D01*
X147609396Y-100377473D01*
X147609396Y-100127473D01*
X147609998Y-100115221D01*
X147611798Y-100103087D01*
X147614778Y-100091187D01*
X147618911Y-100079638D01*
X147624156Y-100068548D01*
X147630462Y-100058027D01*
X147637770Y-100048174D01*
X147646008Y-100039085D01*
X147655097Y-100030847D01*
X147664950Y-100023539D01*
X147675471Y-100017233D01*
X147686561Y-100011988D01*
X147698110Y-100007855D01*
X147710010Y-100004875D01*
X147722144Y-100003075D01*
X147734396Y-100002473D01*
X149234396Y-100002473D01*
X149246648Y-100003075D01*
X149246648Y-100003075D01*
G37*
D23*
X148484396Y-100252473D03*
D19*
G36*
X149246648Y-99503075D02*
G01*
X149258782Y-99504875D01*
X149270682Y-99507855D01*
X149282231Y-99511988D01*
X149293321Y-99517233D01*
X149303842Y-99523539D01*
X149313695Y-99530847D01*
X149322784Y-99539085D01*
X149331022Y-99548174D01*
X149338330Y-99558027D01*
X149344636Y-99568548D01*
X149349881Y-99579638D01*
X149354014Y-99591187D01*
X149356994Y-99603087D01*
X149358794Y-99615221D01*
X149359396Y-99627473D01*
X149359396Y-99877473D01*
X149358794Y-99889725D01*
X149356994Y-99901859D01*
X149354014Y-99913759D01*
X149349881Y-99925308D01*
X149344636Y-99936398D01*
X149338330Y-99946919D01*
X149331022Y-99956772D01*
X149322784Y-99965861D01*
X149313695Y-99974099D01*
X149303842Y-99981407D01*
X149293321Y-99987713D01*
X149282231Y-99992958D01*
X149270682Y-99997091D01*
X149258782Y-100000071D01*
X149246648Y-100001871D01*
X149234396Y-100002473D01*
X147734396Y-100002473D01*
X147722144Y-100001871D01*
X147710010Y-100000071D01*
X147698110Y-99997091D01*
X147686561Y-99992958D01*
X147675471Y-99987713D01*
X147664950Y-99981407D01*
X147655097Y-99974099D01*
X147646008Y-99965861D01*
X147637770Y-99956772D01*
X147630462Y-99946919D01*
X147624156Y-99936398D01*
X147618911Y-99925308D01*
X147614778Y-99913759D01*
X147611798Y-99901859D01*
X147609998Y-99889725D01*
X147609396Y-99877473D01*
X147609396Y-99627473D01*
X147609998Y-99615221D01*
X147611798Y-99603087D01*
X147614778Y-99591187D01*
X147618911Y-99579638D01*
X147624156Y-99568548D01*
X147630462Y-99558027D01*
X147637770Y-99548174D01*
X147646008Y-99539085D01*
X147655097Y-99530847D01*
X147664950Y-99523539D01*
X147675471Y-99517233D01*
X147686561Y-99511988D01*
X147698110Y-99507855D01*
X147710010Y-99504875D01*
X147722144Y-99503075D01*
X147734396Y-99502473D01*
X149234396Y-99502473D01*
X149246648Y-99503075D01*
X149246648Y-99503075D01*
G37*
D23*
X148484396Y-99752473D03*
D19*
G36*
X149246648Y-99003075D02*
G01*
X149258782Y-99004875D01*
X149270682Y-99007855D01*
X149282231Y-99011988D01*
X149293321Y-99017233D01*
X149303842Y-99023539D01*
X149313695Y-99030847D01*
X149322784Y-99039085D01*
X149331022Y-99048174D01*
X149338330Y-99058027D01*
X149344636Y-99068548D01*
X149349881Y-99079638D01*
X149354014Y-99091187D01*
X149356994Y-99103087D01*
X149358794Y-99115221D01*
X149359396Y-99127473D01*
X149359396Y-99377473D01*
X149358794Y-99389725D01*
X149356994Y-99401859D01*
X149354014Y-99413759D01*
X149349881Y-99425308D01*
X149344636Y-99436398D01*
X149338330Y-99446919D01*
X149331022Y-99456772D01*
X149322784Y-99465861D01*
X149313695Y-99474099D01*
X149303842Y-99481407D01*
X149293321Y-99487713D01*
X149282231Y-99492958D01*
X149270682Y-99497091D01*
X149258782Y-99500071D01*
X149246648Y-99501871D01*
X149234396Y-99502473D01*
X147734396Y-99502473D01*
X147722144Y-99501871D01*
X147710010Y-99500071D01*
X147698110Y-99497091D01*
X147686561Y-99492958D01*
X147675471Y-99487713D01*
X147664950Y-99481407D01*
X147655097Y-99474099D01*
X147646008Y-99465861D01*
X147637770Y-99456772D01*
X147630462Y-99446919D01*
X147624156Y-99436398D01*
X147618911Y-99425308D01*
X147614778Y-99413759D01*
X147611798Y-99401859D01*
X147609998Y-99389725D01*
X147609396Y-99377473D01*
X147609396Y-99127473D01*
X147609998Y-99115221D01*
X147611798Y-99103087D01*
X147614778Y-99091187D01*
X147618911Y-99079638D01*
X147624156Y-99068548D01*
X147630462Y-99058027D01*
X147637770Y-99048174D01*
X147646008Y-99039085D01*
X147655097Y-99030847D01*
X147664950Y-99023539D01*
X147675471Y-99017233D01*
X147686561Y-99011988D01*
X147698110Y-99007855D01*
X147710010Y-99004875D01*
X147722144Y-99003075D01*
X147734396Y-99002473D01*
X149234396Y-99002473D01*
X149246648Y-99003075D01*
X149246648Y-99003075D01*
G37*
D23*
X148484396Y-99252473D03*
D19*
G36*
X149246648Y-98503075D02*
G01*
X149258782Y-98504875D01*
X149270682Y-98507855D01*
X149282231Y-98511988D01*
X149293321Y-98517233D01*
X149303842Y-98523539D01*
X149313695Y-98530847D01*
X149322784Y-98539085D01*
X149331022Y-98548174D01*
X149338330Y-98558027D01*
X149344636Y-98568548D01*
X149349881Y-98579638D01*
X149354014Y-98591187D01*
X149356994Y-98603087D01*
X149358794Y-98615221D01*
X149359396Y-98627473D01*
X149359396Y-98877473D01*
X149358794Y-98889725D01*
X149356994Y-98901859D01*
X149354014Y-98913759D01*
X149349881Y-98925308D01*
X149344636Y-98936398D01*
X149338330Y-98946919D01*
X149331022Y-98956772D01*
X149322784Y-98965861D01*
X149313695Y-98974099D01*
X149303842Y-98981407D01*
X149293321Y-98987713D01*
X149282231Y-98992958D01*
X149270682Y-98997091D01*
X149258782Y-99000071D01*
X149246648Y-99001871D01*
X149234396Y-99002473D01*
X147734396Y-99002473D01*
X147722144Y-99001871D01*
X147710010Y-99000071D01*
X147698110Y-98997091D01*
X147686561Y-98992958D01*
X147675471Y-98987713D01*
X147664950Y-98981407D01*
X147655097Y-98974099D01*
X147646008Y-98965861D01*
X147637770Y-98956772D01*
X147630462Y-98946919D01*
X147624156Y-98936398D01*
X147618911Y-98925308D01*
X147614778Y-98913759D01*
X147611798Y-98901859D01*
X147609998Y-98889725D01*
X147609396Y-98877473D01*
X147609396Y-98627473D01*
X147609998Y-98615221D01*
X147611798Y-98603087D01*
X147614778Y-98591187D01*
X147618911Y-98579638D01*
X147624156Y-98568548D01*
X147630462Y-98558027D01*
X147637770Y-98548174D01*
X147646008Y-98539085D01*
X147655097Y-98530847D01*
X147664950Y-98523539D01*
X147675471Y-98517233D01*
X147686561Y-98511988D01*
X147698110Y-98507855D01*
X147710010Y-98504875D01*
X147722144Y-98503075D01*
X147734396Y-98502473D01*
X149234396Y-98502473D01*
X149246648Y-98503075D01*
X149246648Y-98503075D01*
G37*
D23*
X148484396Y-98752473D03*
D19*
G36*
X149246648Y-98003075D02*
G01*
X149258782Y-98004875D01*
X149270682Y-98007855D01*
X149282231Y-98011988D01*
X149293321Y-98017233D01*
X149303842Y-98023539D01*
X149313695Y-98030847D01*
X149322784Y-98039085D01*
X149331022Y-98048174D01*
X149338330Y-98058027D01*
X149344636Y-98068548D01*
X149349881Y-98079638D01*
X149354014Y-98091187D01*
X149356994Y-98103087D01*
X149358794Y-98115221D01*
X149359396Y-98127473D01*
X149359396Y-98377473D01*
X149358794Y-98389725D01*
X149356994Y-98401859D01*
X149354014Y-98413759D01*
X149349881Y-98425308D01*
X149344636Y-98436398D01*
X149338330Y-98446919D01*
X149331022Y-98456772D01*
X149322784Y-98465861D01*
X149313695Y-98474099D01*
X149303842Y-98481407D01*
X149293321Y-98487713D01*
X149282231Y-98492958D01*
X149270682Y-98497091D01*
X149258782Y-98500071D01*
X149246648Y-98501871D01*
X149234396Y-98502473D01*
X147734396Y-98502473D01*
X147722144Y-98501871D01*
X147710010Y-98500071D01*
X147698110Y-98497091D01*
X147686561Y-98492958D01*
X147675471Y-98487713D01*
X147664950Y-98481407D01*
X147655097Y-98474099D01*
X147646008Y-98465861D01*
X147637770Y-98456772D01*
X147630462Y-98446919D01*
X147624156Y-98436398D01*
X147618911Y-98425308D01*
X147614778Y-98413759D01*
X147611798Y-98401859D01*
X147609998Y-98389725D01*
X147609396Y-98377473D01*
X147609396Y-98127473D01*
X147609998Y-98115221D01*
X147611798Y-98103087D01*
X147614778Y-98091187D01*
X147618911Y-98079638D01*
X147624156Y-98068548D01*
X147630462Y-98058027D01*
X147637770Y-98048174D01*
X147646008Y-98039085D01*
X147655097Y-98030847D01*
X147664950Y-98023539D01*
X147675471Y-98017233D01*
X147686561Y-98011988D01*
X147698110Y-98007855D01*
X147710010Y-98004875D01*
X147722144Y-98003075D01*
X147734396Y-98002473D01*
X149234396Y-98002473D01*
X149246648Y-98003075D01*
X149246648Y-98003075D01*
G37*
D23*
X148484396Y-98252473D03*
D19*
G36*
X149246648Y-97503075D02*
G01*
X149258782Y-97504875D01*
X149270682Y-97507855D01*
X149282231Y-97511988D01*
X149293321Y-97517233D01*
X149303842Y-97523539D01*
X149313695Y-97530847D01*
X149322784Y-97539085D01*
X149331022Y-97548174D01*
X149338330Y-97558027D01*
X149344636Y-97568548D01*
X149349881Y-97579638D01*
X149354014Y-97591187D01*
X149356994Y-97603087D01*
X149358794Y-97615221D01*
X149359396Y-97627473D01*
X149359396Y-97877473D01*
X149358794Y-97889725D01*
X149356994Y-97901859D01*
X149354014Y-97913759D01*
X149349881Y-97925308D01*
X149344636Y-97936398D01*
X149338330Y-97946919D01*
X149331022Y-97956772D01*
X149322784Y-97965861D01*
X149313695Y-97974099D01*
X149303842Y-97981407D01*
X149293321Y-97987713D01*
X149282231Y-97992958D01*
X149270682Y-97997091D01*
X149258782Y-98000071D01*
X149246648Y-98001871D01*
X149234396Y-98002473D01*
X147734396Y-98002473D01*
X147722144Y-98001871D01*
X147710010Y-98000071D01*
X147698110Y-97997091D01*
X147686561Y-97992958D01*
X147675471Y-97987713D01*
X147664950Y-97981407D01*
X147655097Y-97974099D01*
X147646008Y-97965861D01*
X147637770Y-97956772D01*
X147630462Y-97946919D01*
X147624156Y-97936398D01*
X147618911Y-97925308D01*
X147614778Y-97913759D01*
X147611798Y-97901859D01*
X147609998Y-97889725D01*
X147609396Y-97877473D01*
X147609396Y-97627473D01*
X147609998Y-97615221D01*
X147611798Y-97603087D01*
X147614778Y-97591187D01*
X147618911Y-97579638D01*
X147624156Y-97568548D01*
X147630462Y-97558027D01*
X147637770Y-97548174D01*
X147646008Y-97539085D01*
X147655097Y-97530847D01*
X147664950Y-97523539D01*
X147675471Y-97517233D01*
X147686561Y-97511988D01*
X147698110Y-97507855D01*
X147710010Y-97504875D01*
X147722144Y-97503075D01*
X147734396Y-97502473D01*
X149234396Y-97502473D01*
X149246648Y-97503075D01*
X149246648Y-97503075D01*
G37*
D23*
X148484396Y-97752473D03*
D19*
G36*
X149246648Y-97003075D02*
G01*
X149258782Y-97004875D01*
X149270682Y-97007855D01*
X149282231Y-97011988D01*
X149293321Y-97017233D01*
X149303842Y-97023539D01*
X149313695Y-97030847D01*
X149322784Y-97039085D01*
X149331022Y-97048174D01*
X149338330Y-97058027D01*
X149344636Y-97068548D01*
X149349881Y-97079638D01*
X149354014Y-97091187D01*
X149356994Y-97103087D01*
X149358794Y-97115221D01*
X149359396Y-97127473D01*
X149359396Y-97377473D01*
X149358794Y-97389725D01*
X149356994Y-97401859D01*
X149354014Y-97413759D01*
X149349881Y-97425308D01*
X149344636Y-97436398D01*
X149338330Y-97446919D01*
X149331022Y-97456772D01*
X149322784Y-97465861D01*
X149313695Y-97474099D01*
X149303842Y-97481407D01*
X149293321Y-97487713D01*
X149282231Y-97492958D01*
X149270682Y-97497091D01*
X149258782Y-97500071D01*
X149246648Y-97501871D01*
X149234396Y-97502473D01*
X147734396Y-97502473D01*
X147722144Y-97501871D01*
X147710010Y-97500071D01*
X147698110Y-97497091D01*
X147686561Y-97492958D01*
X147675471Y-97487713D01*
X147664950Y-97481407D01*
X147655097Y-97474099D01*
X147646008Y-97465861D01*
X147637770Y-97456772D01*
X147630462Y-97446919D01*
X147624156Y-97436398D01*
X147618911Y-97425308D01*
X147614778Y-97413759D01*
X147611798Y-97401859D01*
X147609998Y-97389725D01*
X147609396Y-97377473D01*
X147609396Y-97127473D01*
X147609998Y-97115221D01*
X147611798Y-97103087D01*
X147614778Y-97091187D01*
X147618911Y-97079638D01*
X147624156Y-97068548D01*
X147630462Y-97058027D01*
X147637770Y-97048174D01*
X147646008Y-97039085D01*
X147655097Y-97030847D01*
X147664950Y-97023539D01*
X147675471Y-97017233D01*
X147686561Y-97011988D01*
X147698110Y-97007855D01*
X147710010Y-97004875D01*
X147722144Y-97003075D01*
X147734396Y-97002473D01*
X149234396Y-97002473D01*
X149246648Y-97003075D01*
X149246648Y-97003075D01*
G37*
D23*
X148484396Y-97252473D03*
D19*
G36*
X149246648Y-96503075D02*
G01*
X149258782Y-96504875D01*
X149270682Y-96507855D01*
X149282231Y-96511988D01*
X149293321Y-96517233D01*
X149303842Y-96523539D01*
X149313695Y-96530847D01*
X149322784Y-96539085D01*
X149331022Y-96548174D01*
X149338330Y-96558027D01*
X149344636Y-96568548D01*
X149349881Y-96579638D01*
X149354014Y-96591187D01*
X149356994Y-96603087D01*
X149358794Y-96615221D01*
X149359396Y-96627473D01*
X149359396Y-96877473D01*
X149358794Y-96889725D01*
X149356994Y-96901859D01*
X149354014Y-96913759D01*
X149349881Y-96925308D01*
X149344636Y-96936398D01*
X149338330Y-96946919D01*
X149331022Y-96956772D01*
X149322784Y-96965861D01*
X149313695Y-96974099D01*
X149303842Y-96981407D01*
X149293321Y-96987713D01*
X149282231Y-96992958D01*
X149270682Y-96997091D01*
X149258782Y-97000071D01*
X149246648Y-97001871D01*
X149234396Y-97002473D01*
X147734396Y-97002473D01*
X147722144Y-97001871D01*
X147710010Y-97000071D01*
X147698110Y-96997091D01*
X147686561Y-96992958D01*
X147675471Y-96987713D01*
X147664950Y-96981407D01*
X147655097Y-96974099D01*
X147646008Y-96965861D01*
X147637770Y-96956772D01*
X147630462Y-96946919D01*
X147624156Y-96936398D01*
X147618911Y-96925308D01*
X147614778Y-96913759D01*
X147611798Y-96901859D01*
X147609998Y-96889725D01*
X147609396Y-96877473D01*
X147609396Y-96627473D01*
X147609998Y-96615221D01*
X147611798Y-96603087D01*
X147614778Y-96591187D01*
X147618911Y-96579638D01*
X147624156Y-96568548D01*
X147630462Y-96558027D01*
X147637770Y-96548174D01*
X147646008Y-96539085D01*
X147655097Y-96530847D01*
X147664950Y-96523539D01*
X147675471Y-96517233D01*
X147686561Y-96511988D01*
X147698110Y-96507855D01*
X147710010Y-96504875D01*
X147722144Y-96503075D01*
X147734396Y-96502473D01*
X149234396Y-96502473D01*
X149246648Y-96503075D01*
X149246648Y-96503075D01*
G37*
D23*
X148484396Y-96752473D03*
D19*
G36*
X149246648Y-96003075D02*
G01*
X149258782Y-96004875D01*
X149270682Y-96007855D01*
X149282231Y-96011988D01*
X149293321Y-96017233D01*
X149303842Y-96023539D01*
X149313695Y-96030847D01*
X149322784Y-96039085D01*
X149331022Y-96048174D01*
X149338330Y-96058027D01*
X149344636Y-96068548D01*
X149349881Y-96079638D01*
X149354014Y-96091187D01*
X149356994Y-96103087D01*
X149358794Y-96115221D01*
X149359396Y-96127473D01*
X149359396Y-96377473D01*
X149358794Y-96389725D01*
X149356994Y-96401859D01*
X149354014Y-96413759D01*
X149349881Y-96425308D01*
X149344636Y-96436398D01*
X149338330Y-96446919D01*
X149331022Y-96456772D01*
X149322784Y-96465861D01*
X149313695Y-96474099D01*
X149303842Y-96481407D01*
X149293321Y-96487713D01*
X149282231Y-96492958D01*
X149270682Y-96497091D01*
X149258782Y-96500071D01*
X149246648Y-96501871D01*
X149234396Y-96502473D01*
X147734396Y-96502473D01*
X147722144Y-96501871D01*
X147710010Y-96500071D01*
X147698110Y-96497091D01*
X147686561Y-96492958D01*
X147675471Y-96487713D01*
X147664950Y-96481407D01*
X147655097Y-96474099D01*
X147646008Y-96465861D01*
X147637770Y-96456772D01*
X147630462Y-96446919D01*
X147624156Y-96436398D01*
X147618911Y-96425308D01*
X147614778Y-96413759D01*
X147611798Y-96401859D01*
X147609998Y-96389725D01*
X147609396Y-96377473D01*
X147609396Y-96127473D01*
X147609998Y-96115221D01*
X147611798Y-96103087D01*
X147614778Y-96091187D01*
X147618911Y-96079638D01*
X147624156Y-96068548D01*
X147630462Y-96058027D01*
X147637770Y-96048174D01*
X147646008Y-96039085D01*
X147655097Y-96030847D01*
X147664950Y-96023539D01*
X147675471Y-96017233D01*
X147686561Y-96011988D01*
X147698110Y-96007855D01*
X147710010Y-96004875D01*
X147722144Y-96003075D01*
X147734396Y-96002473D01*
X149234396Y-96002473D01*
X149246648Y-96003075D01*
X149246648Y-96003075D01*
G37*
D23*
X148484396Y-96252473D03*
D19*
G36*
X149246648Y-95503075D02*
G01*
X149258782Y-95504875D01*
X149270682Y-95507855D01*
X149282231Y-95511988D01*
X149293321Y-95517233D01*
X149303842Y-95523539D01*
X149313695Y-95530847D01*
X149322784Y-95539085D01*
X149331022Y-95548174D01*
X149338330Y-95558027D01*
X149344636Y-95568548D01*
X149349881Y-95579638D01*
X149354014Y-95591187D01*
X149356994Y-95603087D01*
X149358794Y-95615221D01*
X149359396Y-95627473D01*
X149359396Y-95877473D01*
X149358794Y-95889725D01*
X149356994Y-95901859D01*
X149354014Y-95913759D01*
X149349881Y-95925308D01*
X149344636Y-95936398D01*
X149338330Y-95946919D01*
X149331022Y-95956772D01*
X149322784Y-95965861D01*
X149313695Y-95974099D01*
X149303842Y-95981407D01*
X149293321Y-95987713D01*
X149282231Y-95992958D01*
X149270682Y-95997091D01*
X149258782Y-96000071D01*
X149246648Y-96001871D01*
X149234396Y-96002473D01*
X147734396Y-96002473D01*
X147722144Y-96001871D01*
X147710010Y-96000071D01*
X147698110Y-95997091D01*
X147686561Y-95992958D01*
X147675471Y-95987713D01*
X147664950Y-95981407D01*
X147655097Y-95974099D01*
X147646008Y-95965861D01*
X147637770Y-95956772D01*
X147630462Y-95946919D01*
X147624156Y-95936398D01*
X147618911Y-95925308D01*
X147614778Y-95913759D01*
X147611798Y-95901859D01*
X147609998Y-95889725D01*
X147609396Y-95877473D01*
X147609396Y-95627473D01*
X147609998Y-95615221D01*
X147611798Y-95603087D01*
X147614778Y-95591187D01*
X147618911Y-95579638D01*
X147624156Y-95568548D01*
X147630462Y-95558027D01*
X147637770Y-95548174D01*
X147646008Y-95539085D01*
X147655097Y-95530847D01*
X147664950Y-95523539D01*
X147675471Y-95517233D01*
X147686561Y-95511988D01*
X147698110Y-95507855D01*
X147710010Y-95504875D01*
X147722144Y-95503075D01*
X147734396Y-95502473D01*
X149234396Y-95502473D01*
X149246648Y-95503075D01*
X149246648Y-95503075D01*
G37*
D23*
X148484396Y-95752473D03*
D19*
G36*
X149246648Y-95003075D02*
G01*
X149258782Y-95004875D01*
X149270682Y-95007855D01*
X149282231Y-95011988D01*
X149293321Y-95017233D01*
X149303842Y-95023539D01*
X149313695Y-95030847D01*
X149322784Y-95039085D01*
X149331022Y-95048174D01*
X149338330Y-95058027D01*
X149344636Y-95068548D01*
X149349881Y-95079638D01*
X149354014Y-95091187D01*
X149356994Y-95103087D01*
X149358794Y-95115221D01*
X149359396Y-95127473D01*
X149359396Y-95377473D01*
X149358794Y-95389725D01*
X149356994Y-95401859D01*
X149354014Y-95413759D01*
X149349881Y-95425308D01*
X149344636Y-95436398D01*
X149338330Y-95446919D01*
X149331022Y-95456772D01*
X149322784Y-95465861D01*
X149313695Y-95474099D01*
X149303842Y-95481407D01*
X149293321Y-95487713D01*
X149282231Y-95492958D01*
X149270682Y-95497091D01*
X149258782Y-95500071D01*
X149246648Y-95501871D01*
X149234396Y-95502473D01*
X147734396Y-95502473D01*
X147722144Y-95501871D01*
X147710010Y-95500071D01*
X147698110Y-95497091D01*
X147686561Y-95492958D01*
X147675471Y-95487713D01*
X147664950Y-95481407D01*
X147655097Y-95474099D01*
X147646008Y-95465861D01*
X147637770Y-95456772D01*
X147630462Y-95446919D01*
X147624156Y-95436398D01*
X147618911Y-95425308D01*
X147614778Y-95413759D01*
X147611798Y-95401859D01*
X147609998Y-95389725D01*
X147609396Y-95377473D01*
X147609396Y-95127473D01*
X147609998Y-95115221D01*
X147611798Y-95103087D01*
X147614778Y-95091187D01*
X147618911Y-95079638D01*
X147624156Y-95068548D01*
X147630462Y-95058027D01*
X147637770Y-95048174D01*
X147646008Y-95039085D01*
X147655097Y-95030847D01*
X147664950Y-95023539D01*
X147675471Y-95017233D01*
X147686561Y-95011988D01*
X147698110Y-95007855D01*
X147710010Y-95004875D01*
X147722144Y-95003075D01*
X147734396Y-95002473D01*
X149234396Y-95002473D01*
X149246648Y-95003075D01*
X149246648Y-95003075D01*
G37*
D23*
X148484396Y-95252473D03*
D19*
G36*
X149246648Y-94503075D02*
G01*
X149258782Y-94504875D01*
X149270682Y-94507855D01*
X149282231Y-94511988D01*
X149293321Y-94517233D01*
X149303842Y-94523539D01*
X149313695Y-94530847D01*
X149322784Y-94539085D01*
X149331022Y-94548174D01*
X149338330Y-94558027D01*
X149344636Y-94568548D01*
X149349881Y-94579638D01*
X149354014Y-94591187D01*
X149356994Y-94603087D01*
X149358794Y-94615221D01*
X149359396Y-94627473D01*
X149359396Y-94877473D01*
X149358794Y-94889725D01*
X149356994Y-94901859D01*
X149354014Y-94913759D01*
X149349881Y-94925308D01*
X149344636Y-94936398D01*
X149338330Y-94946919D01*
X149331022Y-94956772D01*
X149322784Y-94965861D01*
X149313695Y-94974099D01*
X149303842Y-94981407D01*
X149293321Y-94987713D01*
X149282231Y-94992958D01*
X149270682Y-94997091D01*
X149258782Y-95000071D01*
X149246648Y-95001871D01*
X149234396Y-95002473D01*
X147734396Y-95002473D01*
X147722144Y-95001871D01*
X147710010Y-95000071D01*
X147698110Y-94997091D01*
X147686561Y-94992958D01*
X147675471Y-94987713D01*
X147664950Y-94981407D01*
X147655097Y-94974099D01*
X147646008Y-94965861D01*
X147637770Y-94956772D01*
X147630462Y-94946919D01*
X147624156Y-94936398D01*
X147618911Y-94925308D01*
X147614778Y-94913759D01*
X147611798Y-94901859D01*
X147609998Y-94889725D01*
X147609396Y-94877473D01*
X147609396Y-94627473D01*
X147609998Y-94615221D01*
X147611798Y-94603087D01*
X147614778Y-94591187D01*
X147618911Y-94579638D01*
X147624156Y-94568548D01*
X147630462Y-94558027D01*
X147637770Y-94548174D01*
X147646008Y-94539085D01*
X147655097Y-94530847D01*
X147664950Y-94523539D01*
X147675471Y-94517233D01*
X147686561Y-94511988D01*
X147698110Y-94507855D01*
X147710010Y-94504875D01*
X147722144Y-94503075D01*
X147734396Y-94502473D01*
X149234396Y-94502473D01*
X149246648Y-94503075D01*
X149246648Y-94503075D01*
G37*
D23*
X148484396Y-94752473D03*
D19*
G36*
X149246648Y-94003075D02*
G01*
X149258782Y-94004875D01*
X149270682Y-94007855D01*
X149282231Y-94011988D01*
X149293321Y-94017233D01*
X149303842Y-94023539D01*
X149313695Y-94030847D01*
X149322784Y-94039085D01*
X149331022Y-94048174D01*
X149338330Y-94058027D01*
X149344636Y-94068548D01*
X149349881Y-94079638D01*
X149354014Y-94091187D01*
X149356994Y-94103087D01*
X149358794Y-94115221D01*
X149359396Y-94127473D01*
X149359396Y-94377473D01*
X149358794Y-94389725D01*
X149356994Y-94401859D01*
X149354014Y-94413759D01*
X149349881Y-94425308D01*
X149344636Y-94436398D01*
X149338330Y-94446919D01*
X149331022Y-94456772D01*
X149322784Y-94465861D01*
X149313695Y-94474099D01*
X149303842Y-94481407D01*
X149293321Y-94487713D01*
X149282231Y-94492958D01*
X149270682Y-94497091D01*
X149258782Y-94500071D01*
X149246648Y-94501871D01*
X149234396Y-94502473D01*
X147734396Y-94502473D01*
X147722144Y-94501871D01*
X147710010Y-94500071D01*
X147698110Y-94497091D01*
X147686561Y-94492958D01*
X147675471Y-94487713D01*
X147664950Y-94481407D01*
X147655097Y-94474099D01*
X147646008Y-94465861D01*
X147637770Y-94456772D01*
X147630462Y-94446919D01*
X147624156Y-94436398D01*
X147618911Y-94425308D01*
X147614778Y-94413759D01*
X147611798Y-94401859D01*
X147609998Y-94389725D01*
X147609396Y-94377473D01*
X147609396Y-94127473D01*
X147609998Y-94115221D01*
X147611798Y-94103087D01*
X147614778Y-94091187D01*
X147618911Y-94079638D01*
X147624156Y-94068548D01*
X147630462Y-94058027D01*
X147637770Y-94048174D01*
X147646008Y-94039085D01*
X147655097Y-94030847D01*
X147664950Y-94023539D01*
X147675471Y-94017233D01*
X147686561Y-94011988D01*
X147698110Y-94007855D01*
X147710010Y-94004875D01*
X147722144Y-94003075D01*
X147734396Y-94002473D01*
X149234396Y-94002473D01*
X149246648Y-94003075D01*
X149246648Y-94003075D01*
G37*
D23*
X148484396Y-94252473D03*
D19*
G36*
X149246648Y-93503075D02*
G01*
X149258782Y-93504875D01*
X149270682Y-93507855D01*
X149282231Y-93511988D01*
X149293321Y-93517233D01*
X149303842Y-93523539D01*
X149313695Y-93530847D01*
X149322784Y-93539085D01*
X149331022Y-93548174D01*
X149338330Y-93558027D01*
X149344636Y-93568548D01*
X149349881Y-93579638D01*
X149354014Y-93591187D01*
X149356994Y-93603087D01*
X149358794Y-93615221D01*
X149359396Y-93627473D01*
X149359396Y-93877473D01*
X149358794Y-93889725D01*
X149356994Y-93901859D01*
X149354014Y-93913759D01*
X149349881Y-93925308D01*
X149344636Y-93936398D01*
X149338330Y-93946919D01*
X149331022Y-93956772D01*
X149322784Y-93965861D01*
X149313695Y-93974099D01*
X149303842Y-93981407D01*
X149293321Y-93987713D01*
X149282231Y-93992958D01*
X149270682Y-93997091D01*
X149258782Y-94000071D01*
X149246648Y-94001871D01*
X149234396Y-94002473D01*
X147734396Y-94002473D01*
X147722144Y-94001871D01*
X147710010Y-94000071D01*
X147698110Y-93997091D01*
X147686561Y-93992958D01*
X147675471Y-93987713D01*
X147664950Y-93981407D01*
X147655097Y-93974099D01*
X147646008Y-93965861D01*
X147637770Y-93956772D01*
X147630462Y-93946919D01*
X147624156Y-93936398D01*
X147618911Y-93925308D01*
X147614778Y-93913759D01*
X147611798Y-93901859D01*
X147609998Y-93889725D01*
X147609396Y-93877473D01*
X147609396Y-93627473D01*
X147609998Y-93615221D01*
X147611798Y-93603087D01*
X147614778Y-93591187D01*
X147618911Y-93579638D01*
X147624156Y-93568548D01*
X147630462Y-93558027D01*
X147637770Y-93548174D01*
X147646008Y-93539085D01*
X147655097Y-93530847D01*
X147664950Y-93523539D01*
X147675471Y-93517233D01*
X147686561Y-93511988D01*
X147698110Y-93507855D01*
X147710010Y-93504875D01*
X147722144Y-93503075D01*
X147734396Y-93502473D01*
X149234396Y-93502473D01*
X149246648Y-93503075D01*
X149246648Y-93503075D01*
G37*
D23*
X148484396Y-93752473D03*
D19*
G36*
X146696648Y-90953075D02*
G01*
X146708782Y-90954875D01*
X146720682Y-90957855D01*
X146732231Y-90961988D01*
X146743321Y-90967233D01*
X146753842Y-90973539D01*
X146763695Y-90980847D01*
X146772784Y-90989085D01*
X146781022Y-90998174D01*
X146788330Y-91008027D01*
X146794636Y-91018548D01*
X146799881Y-91029638D01*
X146804014Y-91041187D01*
X146806994Y-91053087D01*
X146808794Y-91065221D01*
X146809396Y-91077473D01*
X146809396Y-92577473D01*
X146808794Y-92589725D01*
X146806994Y-92601859D01*
X146804014Y-92613759D01*
X146799881Y-92625308D01*
X146794636Y-92636398D01*
X146788330Y-92646919D01*
X146781022Y-92656772D01*
X146772784Y-92665861D01*
X146763695Y-92674099D01*
X146753842Y-92681407D01*
X146743321Y-92687713D01*
X146732231Y-92692958D01*
X146720682Y-92697091D01*
X146708782Y-92700071D01*
X146696648Y-92701871D01*
X146684396Y-92702473D01*
X146434396Y-92702473D01*
X146422144Y-92701871D01*
X146410010Y-92700071D01*
X146398110Y-92697091D01*
X146386561Y-92692958D01*
X146375471Y-92687713D01*
X146364950Y-92681407D01*
X146355097Y-92674099D01*
X146346008Y-92665861D01*
X146337770Y-92656772D01*
X146330462Y-92646919D01*
X146324156Y-92636398D01*
X146318911Y-92625308D01*
X146314778Y-92613759D01*
X146311798Y-92601859D01*
X146309998Y-92589725D01*
X146309396Y-92577473D01*
X146309396Y-91077473D01*
X146309998Y-91065221D01*
X146311798Y-91053087D01*
X146314778Y-91041187D01*
X146318911Y-91029638D01*
X146324156Y-91018548D01*
X146330462Y-91008027D01*
X146337770Y-90998174D01*
X146346008Y-90989085D01*
X146355097Y-90980847D01*
X146364950Y-90973539D01*
X146375471Y-90967233D01*
X146386561Y-90961988D01*
X146398110Y-90957855D01*
X146410010Y-90954875D01*
X146422144Y-90953075D01*
X146434396Y-90952473D01*
X146684396Y-90952473D01*
X146696648Y-90953075D01*
X146696648Y-90953075D01*
G37*
D23*
X146559396Y-91827473D03*
D19*
G36*
X146196648Y-90953075D02*
G01*
X146208782Y-90954875D01*
X146220682Y-90957855D01*
X146232231Y-90961988D01*
X146243321Y-90967233D01*
X146253842Y-90973539D01*
X146263695Y-90980847D01*
X146272784Y-90989085D01*
X146281022Y-90998174D01*
X146288330Y-91008027D01*
X146294636Y-91018548D01*
X146299881Y-91029638D01*
X146304014Y-91041187D01*
X146306994Y-91053087D01*
X146308794Y-91065221D01*
X146309396Y-91077473D01*
X146309396Y-92577473D01*
X146308794Y-92589725D01*
X146306994Y-92601859D01*
X146304014Y-92613759D01*
X146299881Y-92625308D01*
X146294636Y-92636398D01*
X146288330Y-92646919D01*
X146281022Y-92656772D01*
X146272784Y-92665861D01*
X146263695Y-92674099D01*
X146253842Y-92681407D01*
X146243321Y-92687713D01*
X146232231Y-92692958D01*
X146220682Y-92697091D01*
X146208782Y-92700071D01*
X146196648Y-92701871D01*
X146184396Y-92702473D01*
X145934396Y-92702473D01*
X145922144Y-92701871D01*
X145910010Y-92700071D01*
X145898110Y-92697091D01*
X145886561Y-92692958D01*
X145875471Y-92687713D01*
X145864950Y-92681407D01*
X145855097Y-92674099D01*
X145846008Y-92665861D01*
X145837770Y-92656772D01*
X145830462Y-92646919D01*
X145824156Y-92636398D01*
X145818911Y-92625308D01*
X145814778Y-92613759D01*
X145811798Y-92601859D01*
X145809998Y-92589725D01*
X145809396Y-92577473D01*
X145809396Y-91077473D01*
X145809998Y-91065221D01*
X145811798Y-91053087D01*
X145814778Y-91041187D01*
X145818911Y-91029638D01*
X145824156Y-91018548D01*
X145830462Y-91008027D01*
X145837770Y-90998174D01*
X145846008Y-90989085D01*
X145855097Y-90980847D01*
X145864950Y-90973539D01*
X145875471Y-90967233D01*
X145886561Y-90961988D01*
X145898110Y-90957855D01*
X145910010Y-90954875D01*
X145922144Y-90953075D01*
X145934396Y-90952473D01*
X146184396Y-90952473D01*
X146196648Y-90953075D01*
X146196648Y-90953075D01*
G37*
D23*
X146059396Y-91827473D03*
D19*
G36*
X145696648Y-90953075D02*
G01*
X145708782Y-90954875D01*
X145720682Y-90957855D01*
X145732231Y-90961988D01*
X145743321Y-90967233D01*
X145753842Y-90973539D01*
X145763695Y-90980847D01*
X145772784Y-90989085D01*
X145781022Y-90998174D01*
X145788330Y-91008027D01*
X145794636Y-91018548D01*
X145799881Y-91029638D01*
X145804014Y-91041187D01*
X145806994Y-91053087D01*
X145808794Y-91065221D01*
X145809396Y-91077473D01*
X145809396Y-92577473D01*
X145808794Y-92589725D01*
X145806994Y-92601859D01*
X145804014Y-92613759D01*
X145799881Y-92625308D01*
X145794636Y-92636398D01*
X145788330Y-92646919D01*
X145781022Y-92656772D01*
X145772784Y-92665861D01*
X145763695Y-92674099D01*
X145753842Y-92681407D01*
X145743321Y-92687713D01*
X145732231Y-92692958D01*
X145720682Y-92697091D01*
X145708782Y-92700071D01*
X145696648Y-92701871D01*
X145684396Y-92702473D01*
X145434396Y-92702473D01*
X145422144Y-92701871D01*
X145410010Y-92700071D01*
X145398110Y-92697091D01*
X145386561Y-92692958D01*
X145375471Y-92687713D01*
X145364950Y-92681407D01*
X145355097Y-92674099D01*
X145346008Y-92665861D01*
X145337770Y-92656772D01*
X145330462Y-92646919D01*
X145324156Y-92636398D01*
X145318911Y-92625308D01*
X145314778Y-92613759D01*
X145311798Y-92601859D01*
X145309998Y-92589725D01*
X145309396Y-92577473D01*
X145309396Y-91077473D01*
X145309998Y-91065221D01*
X145311798Y-91053087D01*
X145314778Y-91041187D01*
X145318911Y-91029638D01*
X145324156Y-91018548D01*
X145330462Y-91008027D01*
X145337770Y-90998174D01*
X145346008Y-90989085D01*
X145355097Y-90980847D01*
X145364950Y-90973539D01*
X145375471Y-90967233D01*
X145386561Y-90961988D01*
X145398110Y-90957855D01*
X145410010Y-90954875D01*
X145422144Y-90953075D01*
X145434396Y-90952473D01*
X145684396Y-90952473D01*
X145696648Y-90953075D01*
X145696648Y-90953075D01*
G37*
D23*
X145559396Y-91827473D03*
D19*
G36*
X145196648Y-90953075D02*
G01*
X145208782Y-90954875D01*
X145220682Y-90957855D01*
X145232231Y-90961988D01*
X145243321Y-90967233D01*
X145253842Y-90973539D01*
X145263695Y-90980847D01*
X145272784Y-90989085D01*
X145281022Y-90998174D01*
X145288330Y-91008027D01*
X145294636Y-91018548D01*
X145299881Y-91029638D01*
X145304014Y-91041187D01*
X145306994Y-91053087D01*
X145308794Y-91065221D01*
X145309396Y-91077473D01*
X145309396Y-92577473D01*
X145308794Y-92589725D01*
X145306994Y-92601859D01*
X145304014Y-92613759D01*
X145299881Y-92625308D01*
X145294636Y-92636398D01*
X145288330Y-92646919D01*
X145281022Y-92656772D01*
X145272784Y-92665861D01*
X145263695Y-92674099D01*
X145253842Y-92681407D01*
X145243321Y-92687713D01*
X145232231Y-92692958D01*
X145220682Y-92697091D01*
X145208782Y-92700071D01*
X145196648Y-92701871D01*
X145184396Y-92702473D01*
X144934396Y-92702473D01*
X144922144Y-92701871D01*
X144910010Y-92700071D01*
X144898110Y-92697091D01*
X144886561Y-92692958D01*
X144875471Y-92687713D01*
X144864950Y-92681407D01*
X144855097Y-92674099D01*
X144846008Y-92665861D01*
X144837770Y-92656772D01*
X144830462Y-92646919D01*
X144824156Y-92636398D01*
X144818911Y-92625308D01*
X144814778Y-92613759D01*
X144811798Y-92601859D01*
X144809998Y-92589725D01*
X144809396Y-92577473D01*
X144809396Y-91077473D01*
X144809998Y-91065221D01*
X144811798Y-91053087D01*
X144814778Y-91041187D01*
X144818911Y-91029638D01*
X144824156Y-91018548D01*
X144830462Y-91008027D01*
X144837770Y-90998174D01*
X144846008Y-90989085D01*
X144855097Y-90980847D01*
X144864950Y-90973539D01*
X144875471Y-90967233D01*
X144886561Y-90961988D01*
X144898110Y-90957855D01*
X144910010Y-90954875D01*
X144922144Y-90953075D01*
X144934396Y-90952473D01*
X145184396Y-90952473D01*
X145196648Y-90953075D01*
X145196648Y-90953075D01*
G37*
D23*
X145059396Y-91827473D03*
D19*
G36*
X144696648Y-90953075D02*
G01*
X144708782Y-90954875D01*
X144720682Y-90957855D01*
X144732231Y-90961988D01*
X144743321Y-90967233D01*
X144753842Y-90973539D01*
X144763695Y-90980847D01*
X144772784Y-90989085D01*
X144781022Y-90998174D01*
X144788330Y-91008027D01*
X144794636Y-91018548D01*
X144799881Y-91029638D01*
X144804014Y-91041187D01*
X144806994Y-91053087D01*
X144808794Y-91065221D01*
X144809396Y-91077473D01*
X144809396Y-92577473D01*
X144808794Y-92589725D01*
X144806994Y-92601859D01*
X144804014Y-92613759D01*
X144799881Y-92625308D01*
X144794636Y-92636398D01*
X144788330Y-92646919D01*
X144781022Y-92656772D01*
X144772784Y-92665861D01*
X144763695Y-92674099D01*
X144753842Y-92681407D01*
X144743321Y-92687713D01*
X144732231Y-92692958D01*
X144720682Y-92697091D01*
X144708782Y-92700071D01*
X144696648Y-92701871D01*
X144684396Y-92702473D01*
X144434396Y-92702473D01*
X144422144Y-92701871D01*
X144410010Y-92700071D01*
X144398110Y-92697091D01*
X144386561Y-92692958D01*
X144375471Y-92687713D01*
X144364950Y-92681407D01*
X144355097Y-92674099D01*
X144346008Y-92665861D01*
X144337770Y-92656772D01*
X144330462Y-92646919D01*
X144324156Y-92636398D01*
X144318911Y-92625308D01*
X144314778Y-92613759D01*
X144311798Y-92601859D01*
X144309998Y-92589725D01*
X144309396Y-92577473D01*
X144309396Y-91077473D01*
X144309998Y-91065221D01*
X144311798Y-91053087D01*
X144314778Y-91041187D01*
X144318911Y-91029638D01*
X144324156Y-91018548D01*
X144330462Y-91008027D01*
X144337770Y-90998174D01*
X144346008Y-90989085D01*
X144355097Y-90980847D01*
X144364950Y-90973539D01*
X144375471Y-90967233D01*
X144386561Y-90961988D01*
X144398110Y-90957855D01*
X144410010Y-90954875D01*
X144422144Y-90953075D01*
X144434396Y-90952473D01*
X144684396Y-90952473D01*
X144696648Y-90953075D01*
X144696648Y-90953075D01*
G37*
D23*
X144559396Y-91827473D03*
D19*
G36*
X144196648Y-90953075D02*
G01*
X144208782Y-90954875D01*
X144220682Y-90957855D01*
X144232231Y-90961988D01*
X144243321Y-90967233D01*
X144253842Y-90973539D01*
X144263695Y-90980847D01*
X144272784Y-90989085D01*
X144281022Y-90998174D01*
X144288330Y-91008027D01*
X144294636Y-91018548D01*
X144299881Y-91029638D01*
X144304014Y-91041187D01*
X144306994Y-91053087D01*
X144308794Y-91065221D01*
X144309396Y-91077473D01*
X144309396Y-92577473D01*
X144308794Y-92589725D01*
X144306994Y-92601859D01*
X144304014Y-92613759D01*
X144299881Y-92625308D01*
X144294636Y-92636398D01*
X144288330Y-92646919D01*
X144281022Y-92656772D01*
X144272784Y-92665861D01*
X144263695Y-92674099D01*
X144253842Y-92681407D01*
X144243321Y-92687713D01*
X144232231Y-92692958D01*
X144220682Y-92697091D01*
X144208782Y-92700071D01*
X144196648Y-92701871D01*
X144184396Y-92702473D01*
X143934396Y-92702473D01*
X143922144Y-92701871D01*
X143910010Y-92700071D01*
X143898110Y-92697091D01*
X143886561Y-92692958D01*
X143875471Y-92687713D01*
X143864950Y-92681407D01*
X143855097Y-92674099D01*
X143846008Y-92665861D01*
X143837770Y-92656772D01*
X143830462Y-92646919D01*
X143824156Y-92636398D01*
X143818911Y-92625308D01*
X143814778Y-92613759D01*
X143811798Y-92601859D01*
X143809998Y-92589725D01*
X143809396Y-92577473D01*
X143809396Y-91077473D01*
X143809998Y-91065221D01*
X143811798Y-91053087D01*
X143814778Y-91041187D01*
X143818911Y-91029638D01*
X143824156Y-91018548D01*
X143830462Y-91008027D01*
X143837770Y-90998174D01*
X143846008Y-90989085D01*
X143855097Y-90980847D01*
X143864950Y-90973539D01*
X143875471Y-90967233D01*
X143886561Y-90961988D01*
X143898110Y-90957855D01*
X143910010Y-90954875D01*
X143922144Y-90953075D01*
X143934396Y-90952473D01*
X144184396Y-90952473D01*
X144196648Y-90953075D01*
X144196648Y-90953075D01*
G37*
D23*
X144059396Y-91827473D03*
D19*
G36*
X143696648Y-90953075D02*
G01*
X143708782Y-90954875D01*
X143720682Y-90957855D01*
X143732231Y-90961988D01*
X143743321Y-90967233D01*
X143753842Y-90973539D01*
X143763695Y-90980847D01*
X143772784Y-90989085D01*
X143781022Y-90998174D01*
X143788330Y-91008027D01*
X143794636Y-91018548D01*
X143799881Y-91029638D01*
X143804014Y-91041187D01*
X143806994Y-91053087D01*
X143808794Y-91065221D01*
X143809396Y-91077473D01*
X143809396Y-92577473D01*
X143808794Y-92589725D01*
X143806994Y-92601859D01*
X143804014Y-92613759D01*
X143799881Y-92625308D01*
X143794636Y-92636398D01*
X143788330Y-92646919D01*
X143781022Y-92656772D01*
X143772784Y-92665861D01*
X143763695Y-92674099D01*
X143753842Y-92681407D01*
X143743321Y-92687713D01*
X143732231Y-92692958D01*
X143720682Y-92697091D01*
X143708782Y-92700071D01*
X143696648Y-92701871D01*
X143684396Y-92702473D01*
X143434396Y-92702473D01*
X143422144Y-92701871D01*
X143410010Y-92700071D01*
X143398110Y-92697091D01*
X143386561Y-92692958D01*
X143375471Y-92687713D01*
X143364950Y-92681407D01*
X143355097Y-92674099D01*
X143346008Y-92665861D01*
X143337770Y-92656772D01*
X143330462Y-92646919D01*
X143324156Y-92636398D01*
X143318911Y-92625308D01*
X143314778Y-92613759D01*
X143311798Y-92601859D01*
X143309998Y-92589725D01*
X143309396Y-92577473D01*
X143309396Y-91077473D01*
X143309998Y-91065221D01*
X143311798Y-91053087D01*
X143314778Y-91041187D01*
X143318911Y-91029638D01*
X143324156Y-91018548D01*
X143330462Y-91008027D01*
X143337770Y-90998174D01*
X143346008Y-90989085D01*
X143355097Y-90980847D01*
X143364950Y-90973539D01*
X143375471Y-90967233D01*
X143386561Y-90961988D01*
X143398110Y-90957855D01*
X143410010Y-90954875D01*
X143422144Y-90953075D01*
X143434396Y-90952473D01*
X143684396Y-90952473D01*
X143696648Y-90953075D01*
X143696648Y-90953075D01*
G37*
D23*
X143559396Y-91827473D03*
D19*
G36*
X143196648Y-90953075D02*
G01*
X143208782Y-90954875D01*
X143220682Y-90957855D01*
X143232231Y-90961988D01*
X143243321Y-90967233D01*
X143253842Y-90973539D01*
X143263695Y-90980847D01*
X143272784Y-90989085D01*
X143281022Y-90998174D01*
X143288330Y-91008027D01*
X143294636Y-91018548D01*
X143299881Y-91029638D01*
X143304014Y-91041187D01*
X143306994Y-91053087D01*
X143308794Y-91065221D01*
X143309396Y-91077473D01*
X143309396Y-92577473D01*
X143308794Y-92589725D01*
X143306994Y-92601859D01*
X143304014Y-92613759D01*
X143299881Y-92625308D01*
X143294636Y-92636398D01*
X143288330Y-92646919D01*
X143281022Y-92656772D01*
X143272784Y-92665861D01*
X143263695Y-92674099D01*
X143253842Y-92681407D01*
X143243321Y-92687713D01*
X143232231Y-92692958D01*
X143220682Y-92697091D01*
X143208782Y-92700071D01*
X143196648Y-92701871D01*
X143184396Y-92702473D01*
X142934396Y-92702473D01*
X142922144Y-92701871D01*
X142910010Y-92700071D01*
X142898110Y-92697091D01*
X142886561Y-92692958D01*
X142875471Y-92687713D01*
X142864950Y-92681407D01*
X142855097Y-92674099D01*
X142846008Y-92665861D01*
X142837770Y-92656772D01*
X142830462Y-92646919D01*
X142824156Y-92636398D01*
X142818911Y-92625308D01*
X142814778Y-92613759D01*
X142811798Y-92601859D01*
X142809998Y-92589725D01*
X142809396Y-92577473D01*
X142809396Y-91077473D01*
X142809998Y-91065221D01*
X142811798Y-91053087D01*
X142814778Y-91041187D01*
X142818911Y-91029638D01*
X142824156Y-91018548D01*
X142830462Y-91008027D01*
X142837770Y-90998174D01*
X142846008Y-90989085D01*
X142855097Y-90980847D01*
X142864950Y-90973539D01*
X142875471Y-90967233D01*
X142886561Y-90961988D01*
X142898110Y-90957855D01*
X142910010Y-90954875D01*
X142922144Y-90953075D01*
X142934396Y-90952473D01*
X143184396Y-90952473D01*
X143196648Y-90953075D01*
X143196648Y-90953075D01*
G37*
D23*
X143059396Y-91827473D03*
D19*
G36*
X142696648Y-90953075D02*
G01*
X142708782Y-90954875D01*
X142720682Y-90957855D01*
X142732231Y-90961988D01*
X142743321Y-90967233D01*
X142753842Y-90973539D01*
X142763695Y-90980847D01*
X142772784Y-90989085D01*
X142781022Y-90998174D01*
X142788330Y-91008027D01*
X142794636Y-91018548D01*
X142799881Y-91029638D01*
X142804014Y-91041187D01*
X142806994Y-91053087D01*
X142808794Y-91065221D01*
X142809396Y-91077473D01*
X142809396Y-92577473D01*
X142808794Y-92589725D01*
X142806994Y-92601859D01*
X142804014Y-92613759D01*
X142799881Y-92625308D01*
X142794636Y-92636398D01*
X142788330Y-92646919D01*
X142781022Y-92656772D01*
X142772784Y-92665861D01*
X142763695Y-92674099D01*
X142753842Y-92681407D01*
X142743321Y-92687713D01*
X142732231Y-92692958D01*
X142720682Y-92697091D01*
X142708782Y-92700071D01*
X142696648Y-92701871D01*
X142684396Y-92702473D01*
X142434396Y-92702473D01*
X142422144Y-92701871D01*
X142410010Y-92700071D01*
X142398110Y-92697091D01*
X142386561Y-92692958D01*
X142375471Y-92687713D01*
X142364950Y-92681407D01*
X142355097Y-92674099D01*
X142346008Y-92665861D01*
X142337770Y-92656772D01*
X142330462Y-92646919D01*
X142324156Y-92636398D01*
X142318911Y-92625308D01*
X142314778Y-92613759D01*
X142311798Y-92601859D01*
X142309998Y-92589725D01*
X142309396Y-92577473D01*
X142309396Y-91077473D01*
X142309998Y-91065221D01*
X142311798Y-91053087D01*
X142314778Y-91041187D01*
X142318911Y-91029638D01*
X142324156Y-91018548D01*
X142330462Y-91008027D01*
X142337770Y-90998174D01*
X142346008Y-90989085D01*
X142355097Y-90980847D01*
X142364950Y-90973539D01*
X142375471Y-90967233D01*
X142386561Y-90961988D01*
X142398110Y-90957855D01*
X142410010Y-90954875D01*
X142422144Y-90953075D01*
X142434396Y-90952473D01*
X142684396Y-90952473D01*
X142696648Y-90953075D01*
X142696648Y-90953075D01*
G37*
D23*
X142559396Y-91827473D03*
D19*
G36*
X142196648Y-90953075D02*
G01*
X142208782Y-90954875D01*
X142220682Y-90957855D01*
X142232231Y-90961988D01*
X142243321Y-90967233D01*
X142253842Y-90973539D01*
X142263695Y-90980847D01*
X142272784Y-90989085D01*
X142281022Y-90998174D01*
X142288330Y-91008027D01*
X142294636Y-91018548D01*
X142299881Y-91029638D01*
X142304014Y-91041187D01*
X142306994Y-91053087D01*
X142308794Y-91065221D01*
X142309396Y-91077473D01*
X142309396Y-92577473D01*
X142308794Y-92589725D01*
X142306994Y-92601859D01*
X142304014Y-92613759D01*
X142299881Y-92625308D01*
X142294636Y-92636398D01*
X142288330Y-92646919D01*
X142281022Y-92656772D01*
X142272784Y-92665861D01*
X142263695Y-92674099D01*
X142253842Y-92681407D01*
X142243321Y-92687713D01*
X142232231Y-92692958D01*
X142220682Y-92697091D01*
X142208782Y-92700071D01*
X142196648Y-92701871D01*
X142184396Y-92702473D01*
X141934396Y-92702473D01*
X141922144Y-92701871D01*
X141910010Y-92700071D01*
X141898110Y-92697091D01*
X141886561Y-92692958D01*
X141875471Y-92687713D01*
X141864950Y-92681407D01*
X141855097Y-92674099D01*
X141846008Y-92665861D01*
X141837770Y-92656772D01*
X141830462Y-92646919D01*
X141824156Y-92636398D01*
X141818911Y-92625308D01*
X141814778Y-92613759D01*
X141811798Y-92601859D01*
X141809998Y-92589725D01*
X141809396Y-92577473D01*
X141809396Y-91077473D01*
X141809998Y-91065221D01*
X141811798Y-91053087D01*
X141814778Y-91041187D01*
X141818911Y-91029638D01*
X141824156Y-91018548D01*
X141830462Y-91008027D01*
X141837770Y-90998174D01*
X141846008Y-90989085D01*
X141855097Y-90980847D01*
X141864950Y-90973539D01*
X141875471Y-90967233D01*
X141886561Y-90961988D01*
X141898110Y-90957855D01*
X141910010Y-90954875D01*
X141922144Y-90953075D01*
X141934396Y-90952473D01*
X142184396Y-90952473D01*
X142196648Y-90953075D01*
X142196648Y-90953075D01*
G37*
D23*
X142059396Y-91827473D03*
D19*
G36*
X141696648Y-90953075D02*
G01*
X141708782Y-90954875D01*
X141720682Y-90957855D01*
X141732231Y-90961988D01*
X141743321Y-90967233D01*
X141753842Y-90973539D01*
X141763695Y-90980847D01*
X141772784Y-90989085D01*
X141781022Y-90998174D01*
X141788330Y-91008027D01*
X141794636Y-91018548D01*
X141799881Y-91029638D01*
X141804014Y-91041187D01*
X141806994Y-91053087D01*
X141808794Y-91065221D01*
X141809396Y-91077473D01*
X141809396Y-92577473D01*
X141808794Y-92589725D01*
X141806994Y-92601859D01*
X141804014Y-92613759D01*
X141799881Y-92625308D01*
X141794636Y-92636398D01*
X141788330Y-92646919D01*
X141781022Y-92656772D01*
X141772784Y-92665861D01*
X141763695Y-92674099D01*
X141753842Y-92681407D01*
X141743321Y-92687713D01*
X141732231Y-92692958D01*
X141720682Y-92697091D01*
X141708782Y-92700071D01*
X141696648Y-92701871D01*
X141684396Y-92702473D01*
X141434396Y-92702473D01*
X141422144Y-92701871D01*
X141410010Y-92700071D01*
X141398110Y-92697091D01*
X141386561Y-92692958D01*
X141375471Y-92687713D01*
X141364950Y-92681407D01*
X141355097Y-92674099D01*
X141346008Y-92665861D01*
X141337770Y-92656772D01*
X141330462Y-92646919D01*
X141324156Y-92636398D01*
X141318911Y-92625308D01*
X141314778Y-92613759D01*
X141311798Y-92601859D01*
X141309998Y-92589725D01*
X141309396Y-92577473D01*
X141309396Y-91077473D01*
X141309998Y-91065221D01*
X141311798Y-91053087D01*
X141314778Y-91041187D01*
X141318911Y-91029638D01*
X141324156Y-91018548D01*
X141330462Y-91008027D01*
X141337770Y-90998174D01*
X141346008Y-90989085D01*
X141355097Y-90980847D01*
X141364950Y-90973539D01*
X141375471Y-90967233D01*
X141386561Y-90961988D01*
X141398110Y-90957855D01*
X141410010Y-90954875D01*
X141422144Y-90953075D01*
X141434396Y-90952473D01*
X141684396Y-90952473D01*
X141696648Y-90953075D01*
X141696648Y-90953075D01*
G37*
D23*
X141559396Y-91827473D03*
D19*
G36*
X141196648Y-90953075D02*
G01*
X141208782Y-90954875D01*
X141220682Y-90957855D01*
X141232231Y-90961988D01*
X141243321Y-90967233D01*
X141253842Y-90973539D01*
X141263695Y-90980847D01*
X141272784Y-90989085D01*
X141281022Y-90998174D01*
X141288330Y-91008027D01*
X141294636Y-91018548D01*
X141299881Y-91029638D01*
X141304014Y-91041187D01*
X141306994Y-91053087D01*
X141308794Y-91065221D01*
X141309396Y-91077473D01*
X141309396Y-92577473D01*
X141308794Y-92589725D01*
X141306994Y-92601859D01*
X141304014Y-92613759D01*
X141299881Y-92625308D01*
X141294636Y-92636398D01*
X141288330Y-92646919D01*
X141281022Y-92656772D01*
X141272784Y-92665861D01*
X141263695Y-92674099D01*
X141253842Y-92681407D01*
X141243321Y-92687713D01*
X141232231Y-92692958D01*
X141220682Y-92697091D01*
X141208782Y-92700071D01*
X141196648Y-92701871D01*
X141184396Y-92702473D01*
X140934396Y-92702473D01*
X140922144Y-92701871D01*
X140910010Y-92700071D01*
X140898110Y-92697091D01*
X140886561Y-92692958D01*
X140875471Y-92687713D01*
X140864950Y-92681407D01*
X140855097Y-92674099D01*
X140846008Y-92665861D01*
X140837770Y-92656772D01*
X140830462Y-92646919D01*
X140824156Y-92636398D01*
X140818911Y-92625308D01*
X140814778Y-92613759D01*
X140811798Y-92601859D01*
X140809998Y-92589725D01*
X140809396Y-92577473D01*
X140809396Y-91077473D01*
X140809998Y-91065221D01*
X140811798Y-91053087D01*
X140814778Y-91041187D01*
X140818911Y-91029638D01*
X140824156Y-91018548D01*
X140830462Y-91008027D01*
X140837770Y-90998174D01*
X140846008Y-90989085D01*
X140855097Y-90980847D01*
X140864950Y-90973539D01*
X140875471Y-90967233D01*
X140886561Y-90961988D01*
X140898110Y-90957855D01*
X140910010Y-90954875D01*
X140922144Y-90953075D01*
X140934396Y-90952473D01*
X141184396Y-90952473D01*
X141196648Y-90953075D01*
X141196648Y-90953075D01*
G37*
D23*
X141059396Y-91827473D03*
D19*
G36*
X140696648Y-90953075D02*
G01*
X140708782Y-90954875D01*
X140720682Y-90957855D01*
X140732231Y-90961988D01*
X140743321Y-90967233D01*
X140753842Y-90973539D01*
X140763695Y-90980847D01*
X140772784Y-90989085D01*
X140781022Y-90998174D01*
X140788330Y-91008027D01*
X140794636Y-91018548D01*
X140799881Y-91029638D01*
X140804014Y-91041187D01*
X140806994Y-91053087D01*
X140808794Y-91065221D01*
X140809396Y-91077473D01*
X140809396Y-92577473D01*
X140808794Y-92589725D01*
X140806994Y-92601859D01*
X140804014Y-92613759D01*
X140799881Y-92625308D01*
X140794636Y-92636398D01*
X140788330Y-92646919D01*
X140781022Y-92656772D01*
X140772784Y-92665861D01*
X140763695Y-92674099D01*
X140753842Y-92681407D01*
X140743321Y-92687713D01*
X140732231Y-92692958D01*
X140720682Y-92697091D01*
X140708782Y-92700071D01*
X140696648Y-92701871D01*
X140684396Y-92702473D01*
X140434396Y-92702473D01*
X140422144Y-92701871D01*
X140410010Y-92700071D01*
X140398110Y-92697091D01*
X140386561Y-92692958D01*
X140375471Y-92687713D01*
X140364950Y-92681407D01*
X140355097Y-92674099D01*
X140346008Y-92665861D01*
X140337770Y-92656772D01*
X140330462Y-92646919D01*
X140324156Y-92636398D01*
X140318911Y-92625308D01*
X140314778Y-92613759D01*
X140311798Y-92601859D01*
X140309998Y-92589725D01*
X140309396Y-92577473D01*
X140309396Y-91077473D01*
X140309998Y-91065221D01*
X140311798Y-91053087D01*
X140314778Y-91041187D01*
X140318911Y-91029638D01*
X140324156Y-91018548D01*
X140330462Y-91008027D01*
X140337770Y-90998174D01*
X140346008Y-90989085D01*
X140355097Y-90980847D01*
X140364950Y-90973539D01*
X140375471Y-90967233D01*
X140386561Y-90961988D01*
X140398110Y-90957855D01*
X140410010Y-90954875D01*
X140422144Y-90953075D01*
X140434396Y-90952473D01*
X140684396Y-90952473D01*
X140696648Y-90953075D01*
X140696648Y-90953075D01*
G37*
D23*
X140559396Y-91827473D03*
D19*
G36*
X140196648Y-90953075D02*
G01*
X140208782Y-90954875D01*
X140220682Y-90957855D01*
X140232231Y-90961988D01*
X140243321Y-90967233D01*
X140253842Y-90973539D01*
X140263695Y-90980847D01*
X140272784Y-90989085D01*
X140281022Y-90998174D01*
X140288330Y-91008027D01*
X140294636Y-91018548D01*
X140299881Y-91029638D01*
X140304014Y-91041187D01*
X140306994Y-91053087D01*
X140308794Y-91065221D01*
X140309396Y-91077473D01*
X140309396Y-92577473D01*
X140308794Y-92589725D01*
X140306994Y-92601859D01*
X140304014Y-92613759D01*
X140299881Y-92625308D01*
X140294636Y-92636398D01*
X140288330Y-92646919D01*
X140281022Y-92656772D01*
X140272784Y-92665861D01*
X140263695Y-92674099D01*
X140253842Y-92681407D01*
X140243321Y-92687713D01*
X140232231Y-92692958D01*
X140220682Y-92697091D01*
X140208782Y-92700071D01*
X140196648Y-92701871D01*
X140184396Y-92702473D01*
X139934396Y-92702473D01*
X139922144Y-92701871D01*
X139910010Y-92700071D01*
X139898110Y-92697091D01*
X139886561Y-92692958D01*
X139875471Y-92687713D01*
X139864950Y-92681407D01*
X139855097Y-92674099D01*
X139846008Y-92665861D01*
X139837770Y-92656772D01*
X139830462Y-92646919D01*
X139824156Y-92636398D01*
X139818911Y-92625308D01*
X139814778Y-92613759D01*
X139811798Y-92601859D01*
X139809998Y-92589725D01*
X139809396Y-92577473D01*
X139809396Y-91077473D01*
X139809998Y-91065221D01*
X139811798Y-91053087D01*
X139814778Y-91041187D01*
X139818911Y-91029638D01*
X139824156Y-91018548D01*
X139830462Y-91008027D01*
X139837770Y-90998174D01*
X139846008Y-90989085D01*
X139855097Y-90980847D01*
X139864950Y-90973539D01*
X139875471Y-90967233D01*
X139886561Y-90961988D01*
X139898110Y-90957855D01*
X139910010Y-90954875D01*
X139922144Y-90953075D01*
X139934396Y-90952473D01*
X140184396Y-90952473D01*
X140196648Y-90953075D01*
X140196648Y-90953075D01*
G37*
D23*
X140059396Y-91827473D03*
D19*
G36*
X139696648Y-90953075D02*
G01*
X139708782Y-90954875D01*
X139720682Y-90957855D01*
X139732231Y-90961988D01*
X139743321Y-90967233D01*
X139753842Y-90973539D01*
X139763695Y-90980847D01*
X139772784Y-90989085D01*
X139781022Y-90998174D01*
X139788330Y-91008027D01*
X139794636Y-91018548D01*
X139799881Y-91029638D01*
X139804014Y-91041187D01*
X139806994Y-91053087D01*
X139808794Y-91065221D01*
X139809396Y-91077473D01*
X139809396Y-92577473D01*
X139808794Y-92589725D01*
X139806994Y-92601859D01*
X139804014Y-92613759D01*
X139799881Y-92625308D01*
X139794636Y-92636398D01*
X139788330Y-92646919D01*
X139781022Y-92656772D01*
X139772784Y-92665861D01*
X139763695Y-92674099D01*
X139753842Y-92681407D01*
X139743321Y-92687713D01*
X139732231Y-92692958D01*
X139720682Y-92697091D01*
X139708782Y-92700071D01*
X139696648Y-92701871D01*
X139684396Y-92702473D01*
X139434396Y-92702473D01*
X139422144Y-92701871D01*
X139410010Y-92700071D01*
X139398110Y-92697091D01*
X139386561Y-92692958D01*
X139375471Y-92687713D01*
X139364950Y-92681407D01*
X139355097Y-92674099D01*
X139346008Y-92665861D01*
X139337770Y-92656772D01*
X139330462Y-92646919D01*
X139324156Y-92636398D01*
X139318911Y-92625308D01*
X139314778Y-92613759D01*
X139311798Y-92601859D01*
X139309998Y-92589725D01*
X139309396Y-92577473D01*
X139309396Y-91077473D01*
X139309998Y-91065221D01*
X139311798Y-91053087D01*
X139314778Y-91041187D01*
X139318911Y-91029638D01*
X139324156Y-91018548D01*
X139330462Y-91008027D01*
X139337770Y-90998174D01*
X139346008Y-90989085D01*
X139355097Y-90980847D01*
X139364950Y-90973539D01*
X139375471Y-90967233D01*
X139386561Y-90961988D01*
X139398110Y-90957855D01*
X139410010Y-90954875D01*
X139422144Y-90953075D01*
X139434396Y-90952473D01*
X139684396Y-90952473D01*
X139696648Y-90953075D01*
X139696648Y-90953075D01*
G37*
D23*
X139559396Y-91827473D03*
D19*
G36*
X139196648Y-90953075D02*
G01*
X139208782Y-90954875D01*
X139220682Y-90957855D01*
X139232231Y-90961988D01*
X139243321Y-90967233D01*
X139253842Y-90973539D01*
X139263695Y-90980847D01*
X139272784Y-90989085D01*
X139281022Y-90998174D01*
X139288330Y-91008027D01*
X139294636Y-91018548D01*
X139299881Y-91029638D01*
X139304014Y-91041187D01*
X139306994Y-91053087D01*
X139308794Y-91065221D01*
X139309396Y-91077473D01*
X139309396Y-92577473D01*
X139308794Y-92589725D01*
X139306994Y-92601859D01*
X139304014Y-92613759D01*
X139299881Y-92625308D01*
X139294636Y-92636398D01*
X139288330Y-92646919D01*
X139281022Y-92656772D01*
X139272784Y-92665861D01*
X139263695Y-92674099D01*
X139253842Y-92681407D01*
X139243321Y-92687713D01*
X139232231Y-92692958D01*
X139220682Y-92697091D01*
X139208782Y-92700071D01*
X139196648Y-92701871D01*
X139184396Y-92702473D01*
X138934396Y-92702473D01*
X138922144Y-92701871D01*
X138910010Y-92700071D01*
X138898110Y-92697091D01*
X138886561Y-92692958D01*
X138875471Y-92687713D01*
X138864950Y-92681407D01*
X138855097Y-92674099D01*
X138846008Y-92665861D01*
X138837770Y-92656772D01*
X138830462Y-92646919D01*
X138824156Y-92636398D01*
X138818911Y-92625308D01*
X138814778Y-92613759D01*
X138811798Y-92601859D01*
X138809998Y-92589725D01*
X138809396Y-92577473D01*
X138809396Y-91077473D01*
X138809998Y-91065221D01*
X138811798Y-91053087D01*
X138814778Y-91041187D01*
X138818911Y-91029638D01*
X138824156Y-91018548D01*
X138830462Y-91008027D01*
X138837770Y-90998174D01*
X138846008Y-90989085D01*
X138855097Y-90980847D01*
X138864950Y-90973539D01*
X138875471Y-90967233D01*
X138886561Y-90961988D01*
X138898110Y-90957855D01*
X138910010Y-90954875D01*
X138922144Y-90953075D01*
X138934396Y-90952473D01*
X139184396Y-90952473D01*
X139196648Y-90953075D01*
X139196648Y-90953075D01*
G37*
D23*
X139059396Y-91827473D03*
D19*
G36*
X137896648Y-93503075D02*
G01*
X137908782Y-93504875D01*
X137920682Y-93507855D01*
X137932231Y-93511988D01*
X137943321Y-93517233D01*
X137953842Y-93523539D01*
X137963695Y-93530847D01*
X137972784Y-93539085D01*
X137981022Y-93548174D01*
X137988330Y-93558027D01*
X137994636Y-93568548D01*
X137999881Y-93579638D01*
X138004014Y-93591187D01*
X138006994Y-93603087D01*
X138008794Y-93615221D01*
X138009396Y-93627473D01*
X138009396Y-93877473D01*
X138008794Y-93889725D01*
X138006994Y-93901859D01*
X138004014Y-93913759D01*
X137999881Y-93925308D01*
X137994636Y-93936398D01*
X137988330Y-93946919D01*
X137981022Y-93956772D01*
X137972784Y-93965861D01*
X137963695Y-93974099D01*
X137953842Y-93981407D01*
X137943321Y-93987713D01*
X137932231Y-93992958D01*
X137920682Y-93997091D01*
X137908782Y-94000071D01*
X137896648Y-94001871D01*
X137884396Y-94002473D01*
X136384396Y-94002473D01*
X136372144Y-94001871D01*
X136360010Y-94000071D01*
X136348110Y-93997091D01*
X136336561Y-93992958D01*
X136325471Y-93987713D01*
X136314950Y-93981407D01*
X136305097Y-93974099D01*
X136296008Y-93965861D01*
X136287770Y-93956772D01*
X136280462Y-93946919D01*
X136274156Y-93936398D01*
X136268911Y-93925308D01*
X136264778Y-93913759D01*
X136261798Y-93901859D01*
X136259998Y-93889725D01*
X136259396Y-93877473D01*
X136259396Y-93627473D01*
X136259998Y-93615221D01*
X136261798Y-93603087D01*
X136264778Y-93591187D01*
X136268911Y-93579638D01*
X136274156Y-93568548D01*
X136280462Y-93558027D01*
X136287770Y-93548174D01*
X136296008Y-93539085D01*
X136305097Y-93530847D01*
X136314950Y-93523539D01*
X136325471Y-93517233D01*
X136336561Y-93511988D01*
X136348110Y-93507855D01*
X136360010Y-93504875D01*
X136372144Y-93503075D01*
X136384396Y-93502473D01*
X137884396Y-93502473D01*
X137896648Y-93503075D01*
X137896648Y-93503075D01*
G37*
D23*
X137134396Y-93752473D03*
D19*
G36*
X137896648Y-94003075D02*
G01*
X137908782Y-94004875D01*
X137920682Y-94007855D01*
X137932231Y-94011988D01*
X137943321Y-94017233D01*
X137953842Y-94023539D01*
X137963695Y-94030847D01*
X137972784Y-94039085D01*
X137981022Y-94048174D01*
X137988330Y-94058027D01*
X137994636Y-94068548D01*
X137999881Y-94079638D01*
X138004014Y-94091187D01*
X138006994Y-94103087D01*
X138008794Y-94115221D01*
X138009396Y-94127473D01*
X138009396Y-94377473D01*
X138008794Y-94389725D01*
X138006994Y-94401859D01*
X138004014Y-94413759D01*
X137999881Y-94425308D01*
X137994636Y-94436398D01*
X137988330Y-94446919D01*
X137981022Y-94456772D01*
X137972784Y-94465861D01*
X137963695Y-94474099D01*
X137953842Y-94481407D01*
X137943321Y-94487713D01*
X137932231Y-94492958D01*
X137920682Y-94497091D01*
X137908782Y-94500071D01*
X137896648Y-94501871D01*
X137884396Y-94502473D01*
X136384396Y-94502473D01*
X136372144Y-94501871D01*
X136360010Y-94500071D01*
X136348110Y-94497091D01*
X136336561Y-94492958D01*
X136325471Y-94487713D01*
X136314950Y-94481407D01*
X136305097Y-94474099D01*
X136296008Y-94465861D01*
X136287770Y-94456772D01*
X136280462Y-94446919D01*
X136274156Y-94436398D01*
X136268911Y-94425308D01*
X136264778Y-94413759D01*
X136261798Y-94401859D01*
X136259998Y-94389725D01*
X136259396Y-94377473D01*
X136259396Y-94127473D01*
X136259998Y-94115221D01*
X136261798Y-94103087D01*
X136264778Y-94091187D01*
X136268911Y-94079638D01*
X136274156Y-94068548D01*
X136280462Y-94058027D01*
X136287770Y-94048174D01*
X136296008Y-94039085D01*
X136305097Y-94030847D01*
X136314950Y-94023539D01*
X136325471Y-94017233D01*
X136336561Y-94011988D01*
X136348110Y-94007855D01*
X136360010Y-94004875D01*
X136372144Y-94003075D01*
X136384396Y-94002473D01*
X137884396Y-94002473D01*
X137896648Y-94003075D01*
X137896648Y-94003075D01*
G37*
D23*
X137134396Y-94252473D03*
D19*
G36*
X137896648Y-94503075D02*
G01*
X137908782Y-94504875D01*
X137920682Y-94507855D01*
X137932231Y-94511988D01*
X137943321Y-94517233D01*
X137953842Y-94523539D01*
X137963695Y-94530847D01*
X137972784Y-94539085D01*
X137981022Y-94548174D01*
X137988330Y-94558027D01*
X137994636Y-94568548D01*
X137999881Y-94579638D01*
X138004014Y-94591187D01*
X138006994Y-94603087D01*
X138008794Y-94615221D01*
X138009396Y-94627473D01*
X138009396Y-94877473D01*
X138008794Y-94889725D01*
X138006994Y-94901859D01*
X138004014Y-94913759D01*
X137999881Y-94925308D01*
X137994636Y-94936398D01*
X137988330Y-94946919D01*
X137981022Y-94956772D01*
X137972784Y-94965861D01*
X137963695Y-94974099D01*
X137953842Y-94981407D01*
X137943321Y-94987713D01*
X137932231Y-94992958D01*
X137920682Y-94997091D01*
X137908782Y-95000071D01*
X137896648Y-95001871D01*
X137884396Y-95002473D01*
X136384396Y-95002473D01*
X136372144Y-95001871D01*
X136360010Y-95000071D01*
X136348110Y-94997091D01*
X136336561Y-94992958D01*
X136325471Y-94987713D01*
X136314950Y-94981407D01*
X136305097Y-94974099D01*
X136296008Y-94965861D01*
X136287770Y-94956772D01*
X136280462Y-94946919D01*
X136274156Y-94936398D01*
X136268911Y-94925308D01*
X136264778Y-94913759D01*
X136261798Y-94901859D01*
X136259998Y-94889725D01*
X136259396Y-94877473D01*
X136259396Y-94627473D01*
X136259998Y-94615221D01*
X136261798Y-94603087D01*
X136264778Y-94591187D01*
X136268911Y-94579638D01*
X136274156Y-94568548D01*
X136280462Y-94558027D01*
X136287770Y-94548174D01*
X136296008Y-94539085D01*
X136305097Y-94530847D01*
X136314950Y-94523539D01*
X136325471Y-94517233D01*
X136336561Y-94511988D01*
X136348110Y-94507855D01*
X136360010Y-94504875D01*
X136372144Y-94503075D01*
X136384396Y-94502473D01*
X137884396Y-94502473D01*
X137896648Y-94503075D01*
X137896648Y-94503075D01*
G37*
D23*
X137134396Y-94752473D03*
D19*
G36*
X137896648Y-95003075D02*
G01*
X137908782Y-95004875D01*
X137920682Y-95007855D01*
X137932231Y-95011988D01*
X137943321Y-95017233D01*
X137953842Y-95023539D01*
X137963695Y-95030847D01*
X137972784Y-95039085D01*
X137981022Y-95048174D01*
X137988330Y-95058027D01*
X137994636Y-95068548D01*
X137999881Y-95079638D01*
X138004014Y-95091187D01*
X138006994Y-95103087D01*
X138008794Y-95115221D01*
X138009396Y-95127473D01*
X138009396Y-95377473D01*
X138008794Y-95389725D01*
X138006994Y-95401859D01*
X138004014Y-95413759D01*
X137999881Y-95425308D01*
X137994636Y-95436398D01*
X137988330Y-95446919D01*
X137981022Y-95456772D01*
X137972784Y-95465861D01*
X137963695Y-95474099D01*
X137953842Y-95481407D01*
X137943321Y-95487713D01*
X137932231Y-95492958D01*
X137920682Y-95497091D01*
X137908782Y-95500071D01*
X137896648Y-95501871D01*
X137884396Y-95502473D01*
X136384396Y-95502473D01*
X136372144Y-95501871D01*
X136360010Y-95500071D01*
X136348110Y-95497091D01*
X136336561Y-95492958D01*
X136325471Y-95487713D01*
X136314950Y-95481407D01*
X136305097Y-95474099D01*
X136296008Y-95465861D01*
X136287770Y-95456772D01*
X136280462Y-95446919D01*
X136274156Y-95436398D01*
X136268911Y-95425308D01*
X136264778Y-95413759D01*
X136261798Y-95401859D01*
X136259998Y-95389725D01*
X136259396Y-95377473D01*
X136259396Y-95127473D01*
X136259998Y-95115221D01*
X136261798Y-95103087D01*
X136264778Y-95091187D01*
X136268911Y-95079638D01*
X136274156Y-95068548D01*
X136280462Y-95058027D01*
X136287770Y-95048174D01*
X136296008Y-95039085D01*
X136305097Y-95030847D01*
X136314950Y-95023539D01*
X136325471Y-95017233D01*
X136336561Y-95011988D01*
X136348110Y-95007855D01*
X136360010Y-95004875D01*
X136372144Y-95003075D01*
X136384396Y-95002473D01*
X137884396Y-95002473D01*
X137896648Y-95003075D01*
X137896648Y-95003075D01*
G37*
D23*
X137134396Y-95252473D03*
D19*
G36*
X137896648Y-95503075D02*
G01*
X137908782Y-95504875D01*
X137920682Y-95507855D01*
X137932231Y-95511988D01*
X137943321Y-95517233D01*
X137953842Y-95523539D01*
X137963695Y-95530847D01*
X137972784Y-95539085D01*
X137981022Y-95548174D01*
X137988330Y-95558027D01*
X137994636Y-95568548D01*
X137999881Y-95579638D01*
X138004014Y-95591187D01*
X138006994Y-95603087D01*
X138008794Y-95615221D01*
X138009396Y-95627473D01*
X138009396Y-95877473D01*
X138008794Y-95889725D01*
X138006994Y-95901859D01*
X138004014Y-95913759D01*
X137999881Y-95925308D01*
X137994636Y-95936398D01*
X137988330Y-95946919D01*
X137981022Y-95956772D01*
X137972784Y-95965861D01*
X137963695Y-95974099D01*
X137953842Y-95981407D01*
X137943321Y-95987713D01*
X137932231Y-95992958D01*
X137920682Y-95997091D01*
X137908782Y-96000071D01*
X137896648Y-96001871D01*
X137884396Y-96002473D01*
X136384396Y-96002473D01*
X136372144Y-96001871D01*
X136360010Y-96000071D01*
X136348110Y-95997091D01*
X136336561Y-95992958D01*
X136325471Y-95987713D01*
X136314950Y-95981407D01*
X136305097Y-95974099D01*
X136296008Y-95965861D01*
X136287770Y-95956772D01*
X136280462Y-95946919D01*
X136274156Y-95936398D01*
X136268911Y-95925308D01*
X136264778Y-95913759D01*
X136261798Y-95901859D01*
X136259998Y-95889725D01*
X136259396Y-95877473D01*
X136259396Y-95627473D01*
X136259998Y-95615221D01*
X136261798Y-95603087D01*
X136264778Y-95591187D01*
X136268911Y-95579638D01*
X136274156Y-95568548D01*
X136280462Y-95558027D01*
X136287770Y-95548174D01*
X136296008Y-95539085D01*
X136305097Y-95530847D01*
X136314950Y-95523539D01*
X136325471Y-95517233D01*
X136336561Y-95511988D01*
X136348110Y-95507855D01*
X136360010Y-95504875D01*
X136372144Y-95503075D01*
X136384396Y-95502473D01*
X137884396Y-95502473D01*
X137896648Y-95503075D01*
X137896648Y-95503075D01*
G37*
D23*
X137134396Y-95752473D03*
D19*
G36*
X137896648Y-96003075D02*
G01*
X137908782Y-96004875D01*
X137920682Y-96007855D01*
X137932231Y-96011988D01*
X137943321Y-96017233D01*
X137953842Y-96023539D01*
X137963695Y-96030847D01*
X137972784Y-96039085D01*
X137981022Y-96048174D01*
X137988330Y-96058027D01*
X137994636Y-96068548D01*
X137999881Y-96079638D01*
X138004014Y-96091187D01*
X138006994Y-96103087D01*
X138008794Y-96115221D01*
X138009396Y-96127473D01*
X138009396Y-96377473D01*
X138008794Y-96389725D01*
X138006994Y-96401859D01*
X138004014Y-96413759D01*
X137999881Y-96425308D01*
X137994636Y-96436398D01*
X137988330Y-96446919D01*
X137981022Y-96456772D01*
X137972784Y-96465861D01*
X137963695Y-96474099D01*
X137953842Y-96481407D01*
X137943321Y-96487713D01*
X137932231Y-96492958D01*
X137920682Y-96497091D01*
X137908782Y-96500071D01*
X137896648Y-96501871D01*
X137884396Y-96502473D01*
X136384396Y-96502473D01*
X136372144Y-96501871D01*
X136360010Y-96500071D01*
X136348110Y-96497091D01*
X136336561Y-96492958D01*
X136325471Y-96487713D01*
X136314950Y-96481407D01*
X136305097Y-96474099D01*
X136296008Y-96465861D01*
X136287770Y-96456772D01*
X136280462Y-96446919D01*
X136274156Y-96436398D01*
X136268911Y-96425308D01*
X136264778Y-96413759D01*
X136261798Y-96401859D01*
X136259998Y-96389725D01*
X136259396Y-96377473D01*
X136259396Y-96127473D01*
X136259998Y-96115221D01*
X136261798Y-96103087D01*
X136264778Y-96091187D01*
X136268911Y-96079638D01*
X136274156Y-96068548D01*
X136280462Y-96058027D01*
X136287770Y-96048174D01*
X136296008Y-96039085D01*
X136305097Y-96030847D01*
X136314950Y-96023539D01*
X136325471Y-96017233D01*
X136336561Y-96011988D01*
X136348110Y-96007855D01*
X136360010Y-96004875D01*
X136372144Y-96003075D01*
X136384396Y-96002473D01*
X137884396Y-96002473D01*
X137896648Y-96003075D01*
X137896648Y-96003075D01*
G37*
D23*
X137134396Y-96252473D03*
D19*
G36*
X137896648Y-96503075D02*
G01*
X137908782Y-96504875D01*
X137920682Y-96507855D01*
X137932231Y-96511988D01*
X137943321Y-96517233D01*
X137953842Y-96523539D01*
X137963695Y-96530847D01*
X137972784Y-96539085D01*
X137981022Y-96548174D01*
X137988330Y-96558027D01*
X137994636Y-96568548D01*
X137999881Y-96579638D01*
X138004014Y-96591187D01*
X138006994Y-96603087D01*
X138008794Y-96615221D01*
X138009396Y-96627473D01*
X138009396Y-96877473D01*
X138008794Y-96889725D01*
X138006994Y-96901859D01*
X138004014Y-96913759D01*
X137999881Y-96925308D01*
X137994636Y-96936398D01*
X137988330Y-96946919D01*
X137981022Y-96956772D01*
X137972784Y-96965861D01*
X137963695Y-96974099D01*
X137953842Y-96981407D01*
X137943321Y-96987713D01*
X137932231Y-96992958D01*
X137920682Y-96997091D01*
X137908782Y-97000071D01*
X137896648Y-97001871D01*
X137884396Y-97002473D01*
X136384396Y-97002473D01*
X136372144Y-97001871D01*
X136360010Y-97000071D01*
X136348110Y-96997091D01*
X136336561Y-96992958D01*
X136325471Y-96987713D01*
X136314950Y-96981407D01*
X136305097Y-96974099D01*
X136296008Y-96965861D01*
X136287770Y-96956772D01*
X136280462Y-96946919D01*
X136274156Y-96936398D01*
X136268911Y-96925308D01*
X136264778Y-96913759D01*
X136261798Y-96901859D01*
X136259998Y-96889725D01*
X136259396Y-96877473D01*
X136259396Y-96627473D01*
X136259998Y-96615221D01*
X136261798Y-96603087D01*
X136264778Y-96591187D01*
X136268911Y-96579638D01*
X136274156Y-96568548D01*
X136280462Y-96558027D01*
X136287770Y-96548174D01*
X136296008Y-96539085D01*
X136305097Y-96530847D01*
X136314950Y-96523539D01*
X136325471Y-96517233D01*
X136336561Y-96511988D01*
X136348110Y-96507855D01*
X136360010Y-96504875D01*
X136372144Y-96503075D01*
X136384396Y-96502473D01*
X137884396Y-96502473D01*
X137896648Y-96503075D01*
X137896648Y-96503075D01*
G37*
D23*
X137134396Y-96752473D03*
D19*
G36*
X137896648Y-97003075D02*
G01*
X137908782Y-97004875D01*
X137920682Y-97007855D01*
X137932231Y-97011988D01*
X137943321Y-97017233D01*
X137953842Y-97023539D01*
X137963695Y-97030847D01*
X137972784Y-97039085D01*
X137981022Y-97048174D01*
X137988330Y-97058027D01*
X137994636Y-97068548D01*
X137999881Y-97079638D01*
X138004014Y-97091187D01*
X138006994Y-97103087D01*
X138008794Y-97115221D01*
X138009396Y-97127473D01*
X138009396Y-97377473D01*
X138008794Y-97389725D01*
X138006994Y-97401859D01*
X138004014Y-97413759D01*
X137999881Y-97425308D01*
X137994636Y-97436398D01*
X137988330Y-97446919D01*
X137981022Y-97456772D01*
X137972784Y-97465861D01*
X137963695Y-97474099D01*
X137953842Y-97481407D01*
X137943321Y-97487713D01*
X137932231Y-97492958D01*
X137920682Y-97497091D01*
X137908782Y-97500071D01*
X137896648Y-97501871D01*
X137884396Y-97502473D01*
X136384396Y-97502473D01*
X136372144Y-97501871D01*
X136360010Y-97500071D01*
X136348110Y-97497091D01*
X136336561Y-97492958D01*
X136325471Y-97487713D01*
X136314950Y-97481407D01*
X136305097Y-97474099D01*
X136296008Y-97465861D01*
X136287770Y-97456772D01*
X136280462Y-97446919D01*
X136274156Y-97436398D01*
X136268911Y-97425308D01*
X136264778Y-97413759D01*
X136261798Y-97401859D01*
X136259998Y-97389725D01*
X136259396Y-97377473D01*
X136259396Y-97127473D01*
X136259998Y-97115221D01*
X136261798Y-97103087D01*
X136264778Y-97091187D01*
X136268911Y-97079638D01*
X136274156Y-97068548D01*
X136280462Y-97058027D01*
X136287770Y-97048174D01*
X136296008Y-97039085D01*
X136305097Y-97030847D01*
X136314950Y-97023539D01*
X136325471Y-97017233D01*
X136336561Y-97011988D01*
X136348110Y-97007855D01*
X136360010Y-97004875D01*
X136372144Y-97003075D01*
X136384396Y-97002473D01*
X137884396Y-97002473D01*
X137896648Y-97003075D01*
X137896648Y-97003075D01*
G37*
D23*
X137134396Y-97252473D03*
D19*
G36*
X137896648Y-97503075D02*
G01*
X137908782Y-97504875D01*
X137920682Y-97507855D01*
X137932231Y-97511988D01*
X137943321Y-97517233D01*
X137953842Y-97523539D01*
X137963695Y-97530847D01*
X137972784Y-97539085D01*
X137981022Y-97548174D01*
X137988330Y-97558027D01*
X137994636Y-97568548D01*
X137999881Y-97579638D01*
X138004014Y-97591187D01*
X138006994Y-97603087D01*
X138008794Y-97615221D01*
X138009396Y-97627473D01*
X138009396Y-97877473D01*
X138008794Y-97889725D01*
X138006994Y-97901859D01*
X138004014Y-97913759D01*
X137999881Y-97925308D01*
X137994636Y-97936398D01*
X137988330Y-97946919D01*
X137981022Y-97956772D01*
X137972784Y-97965861D01*
X137963695Y-97974099D01*
X137953842Y-97981407D01*
X137943321Y-97987713D01*
X137932231Y-97992958D01*
X137920682Y-97997091D01*
X137908782Y-98000071D01*
X137896648Y-98001871D01*
X137884396Y-98002473D01*
X136384396Y-98002473D01*
X136372144Y-98001871D01*
X136360010Y-98000071D01*
X136348110Y-97997091D01*
X136336561Y-97992958D01*
X136325471Y-97987713D01*
X136314950Y-97981407D01*
X136305097Y-97974099D01*
X136296008Y-97965861D01*
X136287770Y-97956772D01*
X136280462Y-97946919D01*
X136274156Y-97936398D01*
X136268911Y-97925308D01*
X136264778Y-97913759D01*
X136261798Y-97901859D01*
X136259998Y-97889725D01*
X136259396Y-97877473D01*
X136259396Y-97627473D01*
X136259998Y-97615221D01*
X136261798Y-97603087D01*
X136264778Y-97591187D01*
X136268911Y-97579638D01*
X136274156Y-97568548D01*
X136280462Y-97558027D01*
X136287770Y-97548174D01*
X136296008Y-97539085D01*
X136305097Y-97530847D01*
X136314950Y-97523539D01*
X136325471Y-97517233D01*
X136336561Y-97511988D01*
X136348110Y-97507855D01*
X136360010Y-97504875D01*
X136372144Y-97503075D01*
X136384396Y-97502473D01*
X137884396Y-97502473D01*
X137896648Y-97503075D01*
X137896648Y-97503075D01*
G37*
D23*
X137134396Y-97752473D03*
D19*
G36*
X137896648Y-98003075D02*
G01*
X137908782Y-98004875D01*
X137920682Y-98007855D01*
X137932231Y-98011988D01*
X137943321Y-98017233D01*
X137953842Y-98023539D01*
X137963695Y-98030847D01*
X137972784Y-98039085D01*
X137981022Y-98048174D01*
X137988330Y-98058027D01*
X137994636Y-98068548D01*
X137999881Y-98079638D01*
X138004014Y-98091187D01*
X138006994Y-98103087D01*
X138008794Y-98115221D01*
X138009396Y-98127473D01*
X138009396Y-98377473D01*
X138008794Y-98389725D01*
X138006994Y-98401859D01*
X138004014Y-98413759D01*
X137999881Y-98425308D01*
X137994636Y-98436398D01*
X137988330Y-98446919D01*
X137981022Y-98456772D01*
X137972784Y-98465861D01*
X137963695Y-98474099D01*
X137953842Y-98481407D01*
X137943321Y-98487713D01*
X137932231Y-98492958D01*
X137920682Y-98497091D01*
X137908782Y-98500071D01*
X137896648Y-98501871D01*
X137884396Y-98502473D01*
X136384396Y-98502473D01*
X136372144Y-98501871D01*
X136360010Y-98500071D01*
X136348110Y-98497091D01*
X136336561Y-98492958D01*
X136325471Y-98487713D01*
X136314950Y-98481407D01*
X136305097Y-98474099D01*
X136296008Y-98465861D01*
X136287770Y-98456772D01*
X136280462Y-98446919D01*
X136274156Y-98436398D01*
X136268911Y-98425308D01*
X136264778Y-98413759D01*
X136261798Y-98401859D01*
X136259998Y-98389725D01*
X136259396Y-98377473D01*
X136259396Y-98127473D01*
X136259998Y-98115221D01*
X136261798Y-98103087D01*
X136264778Y-98091187D01*
X136268911Y-98079638D01*
X136274156Y-98068548D01*
X136280462Y-98058027D01*
X136287770Y-98048174D01*
X136296008Y-98039085D01*
X136305097Y-98030847D01*
X136314950Y-98023539D01*
X136325471Y-98017233D01*
X136336561Y-98011988D01*
X136348110Y-98007855D01*
X136360010Y-98004875D01*
X136372144Y-98003075D01*
X136384396Y-98002473D01*
X137884396Y-98002473D01*
X137896648Y-98003075D01*
X137896648Y-98003075D01*
G37*
D23*
X137134396Y-98252473D03*
D19*
G36*
X137896648Y-98503075D02*
G01*
X137908782Y-98504875D01*
X137920682Y-98507855D01*
X137932231Y-98511988D01*
X137943321Y-98517233D01*
X137953842Y-98523539D01*
X137963695Y-98530847D01*
X137972784Y-98539085D01*
X137981022Y-98548174D01*
X137988330Y-98558027D01*
X137994636Y-98568548D01*
X137999881Y-98579638D01*
X138004014Y-98591187D01*
X138006994Y-98603087D01*
X138008794Y-98615221D01*
X138009396Y-98627473D01*
X138009396Y-98877473D01*
X138008794Y-98889725D01*
X138006994Y-98901859D01*
X138004014Y-98913759D01*
X137999881Y-98925308D01*
X137994636Y-98936398D01*
X137988330Y-98946919D01*
X137981022Y-98956772D01*
X137972784Y-98965861D01*
X137963695Y-98974099D01*
X137953842Y-98981407D01*
X137943321Y-98987713D01*
X137932231Y-98992958D01*
X137920682Y-98997091D01*
X137908782Y-99000071D01*
X137896648Y-99001871D01*
X137884396Y-99002473D01*
X136384396Y-99002473D01*
X136372144Y-99001871D01*
X136360010Y-99000071D01*
X136348110Y-98997091D01*
X136336561Y-98992958D01*
X136325471Y-98987713D01*
X136314950Y-98981407D01*
X136305097Y-98974099D01*
X136296008Y-98965861D01*
X136287770Y-98956772D01*
X136280462Y-98946919D01*
X136274156Y-98936398D01*
X136268911Y-98925308D01*
X136264778Y-98913759D01*
X136261798Y-98901859D01*
X136259998Y-98889725D01*
X136259396Y-98877473D01*
X136259396Y-98627473D01*
X136259998Y-98615221D01*
X136261798Y-98603087D01*
X136264778Y-98591187D01*
X136268911Y-98579638D01*
X136274156Y-98568548D01*
X136280462Y-98558027D01*
X136287770Y-98548174D01*
X136296008Y-98539085D01*
X136305097Y-98530847D01*
X136314950Y-98523539D01*
X136325471Y-98517233D01*
X136336561Y-98511988D01*
X136348110Y-98507855D01*
X136360010Y-98504875D01*
X136372144Y-98503075D01*
X136384396Y-98502473D01*
X137884396Y-98502473D01*
X137896648Y-98503075D01*
X137896648Y-98503075D01*
G37*
D23*
X137134396Y-98752473D03*
D19*
G36*
X137896648Y-99003075D02*
G01*
X137908782Y-99004875D01*
X137920682Y-99007855D01*
X137932231Y-99011988D01*
X137943321Y-99017233D01*
X137953842Y-99023539D01*
X137963695Y-99030847D01*
X137972784Y-99039085D01*
X137981022Y-99048174D01*
X137988330Y-99058027D01*
X137994636Y-99068548D01*
X137999881Y-99079638D01*
X138004014Y-99091187D01*
X138006994Y-99103087D01*
X138008794Y-99115221D01*
X138009396Y-99127473D01*
X138009396Y-99377473D01*
X138008794Y-99389725D01*
X138006994Y-99401859D01*
X138004014Y-99413759D01*
X137999881Y-99425308D01*
X137994636Y-99436398D01*
X137988330Y-99446919D01*
X137981022Y-99456772D01*
X137972784Y-99465861D01*
X137963695Y-99474099D01*
X137953842Y-99481407D01*
X137943321Y-99487713D01*
X137932231Y-99492958D01*
X137920682Y-99497091D01*
X137908782Y-99500071D01*
X137896648Y-99501871D01*
X137884396Y-99502473D01*
X136384396Y-99502473D01*
X136372144Y-99501871D01*
X136360010Y-99500071D01*
X136348110Y-99497091D01*
X136336561Y-99492958D01*
X136325471Y-99487713D01*
X136314950Y-99481407D01*
X136305097Y-99474099D01*
X136296008Y-99465861D01*
X136287770Y-99456772D01*
X136280462Y-99446919D01*
X136274156Y-99436398D01*
X136268911Y-99425308D01*
X136264778Y-99413759D01*
X136261798Y-99401859D01*
X136259998Y-99389725D01*
X136259396Y-99377473D01*
X136259396Y-99127473D01*
X136259998Y-99115221D01*
X136261798Y-99103087D01*
X136264778Y-99091187D01*
X136268911Y-99079638D01*
X136274156Y-99068548D01*
X136280462Y-99058027D01*
X136287770Y-99048174D01*
X136296008Y-99039085D01*
X136305097Y-99030847D01*
X136314950Y-99023539D01*
X136325471Y-99017233D01*
X136336561Y-99011988D01*
X136348110Y-99007855D01*
X136360010Y-99004875D01*
X136372144Y-99003075D01*
X136384396Y-99002473D01*
X137884396Y-99002473D01*
X137896648Y-99003075D01*
X137896648Y-99003075D01*
G37*
D23*
X137134396Y-99252473D03*
D19*
G36*
X137896648Y-99503075D02*
G01*
X137908782Y-99504875D01*
X137920682Y-99507855D01*
X137932231Y-99511988D01*
X137943321Y-99517233D01*
X137953842Y-99523539D01*
X137963695Y-99530847D01*
X137972784Y-99539085D01*
X137981022Y-99548174D01*
X137988330Y-99558027D01*
X137994636Y-99568548D01*
X137999881Y-99579638D01*
X138004014Y-99591187D01*
X138006994Y-99603087D01*
X138008794Y-99615221D01*
X138009396Y-99627473D01*
X138009396Y-99877473D01*
X138008794Y-99889725D01*
X138006994Y-99901859D01*
X138004014Y-99913759D01*
X137999881Y-99925308D01*
X137994636Y-99936398D01*
X137988330Y-99946919D01*
X137981022Y-99956772D01*
X137972784Y-99965861D01*
X137963695Y-99974099D01*
X137953842Y-99981407D01*
X137943321Y-99987713D01*
X137932231Y-99992958D01*
X137920682Y-99997091D01*
X137908782Y-100000071D01*
X137896648Y-100001871D01*
X137884396Y-100002473D01*
X136384396Y-100002473D01*
X136372144Y-100001871D01*
X136360010Y-100000071D01*
X136348110Y-99997091D01*
X136336561Y-99992958D01*
X136325471Y-99987713D01*
X136314950Y-99981407D01*
X136305097Y-99974099D01*
X136296008Y-99965861D01*
X136287770Y-99956772D01*
X136280462Y-99946919D01*
X136274156Y-99936398D01*
X136268911Y-99925308D01*
X136264778Y-99913759D01*
X136261798Y-99901859D01*
X136259998Y-99889725D01*
X136259396Y-99877473D01*
X136259396Y-99627473D01*
X136259998Y-99615221D01*
X136261798Y-99603087D01*
X136264778Y-99591187D01*
X136268911Y-99579638D01*
X136274156Y-99568548D01*
X136280462Y-99558027D01*
X136287770Y-99548174D01*
X136296008Y-99539085D01*
X136305097Y-99530847D01*
X136314950Y-99523539D01*
X136325471Y-99517233D01*
X136336561Y-99511988D01*
X136348110Y-99507855D01*
X136360010Y-99504875D01*
X136372144Y-99503075D01*
X136384396Y-99502473D01*
X137884396Y-99502473D01*
X137896648Y-99503075D01*
X137896648Y-99503075D01*
G37*
D23*
X137134396Y-99752473D03*
D19*
G36*
X137896648Y-100003075D02*
G01*
X137908782Y-100004875D01*
X137920682Y-100007855D01*
X137932231Y-100011988D01*
X137943321Y-100017233D01*
X137953842Y-100023539D01*
X137963695Y-100030847D01*
X137972784Y-100039085D01*
X137981022Y-100048174D01*
X137988330Y-100058027D01*
X137994636Y-100068548D01*
X137999881Y-100079638D01*
X138004014Y-100091187D01*
X138006994Y-100103087D01*
X138008794Y-100115221D01*
X138009396Y-100127473D01*
X138009396Y-100377473D01*
X138008794Y-100389725D01*
X138006994Y-100401859D01*
X138004014Y-100413759D01*
X137999881Y-100425308D01*
X137994636Y-100436398D01*
X137988330Y-100446919D01*
X137981022Y-100456772D01*
X137972784Y-100465861D01*
X137963695Y-100474099D01*
X137953842Y-100481407D01*
X137943321Y-100487713D01*
X137932231Y-100492958D01*
X137920682Y-100497091D01*
X137908782Y-100500071D01*
X137896648Y-100501871D01*
X137884396Y-100502473D01*
X136384396Y-100502473D01*
X136372144Y-100501871D01*
X136360010Y-100500071D01*
X136348110Y-100497091D01*
X136336561Y-100492958D01*
X136325471Y-100487713D01*
X136314950Y-100481407D01*
X136305097Y-100474099D01*
X136296008Y-100465861D01*
X136287770Y-100456772D01*
X136280462Y-100446919D01*
X136274156Y-100436398D01*
X136268911Y-100425308D01*
X136264778Y-100413759D01*
X136261798Y-100401859D01*
X136259998Y-100389725D01*
X136259396Y-100377473D01*
X136259396Y-100127473D01*
X136259998Y-100115221D01*
X136261798Y-100103087D01*
X136264778Y-100091187D01*
X136268911Y-100079638D01*
X136274156Y-100068548D01*
X136280462Y-100058027D01*
X136287770Y-100048174D01*
X136296008Y-100039085D01*
X136305097Y-100030847D01*
X136314950Y-100023539D01*
X136325471Y-100017233D01*
X136336561Y-100011988D01*
X136348110Y-100007855D01*
X136360010Y-100004875D01*
X136372144Y-100003075D01*
X136384396Y-100002473D01*
X137884396Y-100002473D01*
X137896648Y-100003075D01*
X137896648Y-100003075D01*
G37*
D23*
X137134396Y-100252473D03*
D19*
G36*
X137896648Y-100503075D02*
G01*
X137908782Y-100504875D01*
X137920682Y-100507855D01*
X137932231Y-100511988D01*
X137943321Y-100517233D01*
X137953842Y-100523539D01*
X137963695Y-100530847D01*
X137972784Y-100539085D01*
X137981022Y-100548174D01*
X137988330Y-100558027D01*
X137994636Y-100568548D01*
X137999881Y-100579638D01*
X138004014Y-100591187D01*
X138006994Y-100603087D01*
X138008794Y-100615221D01*
X138009396Y-100627473D01*
X138009396Y-100877473D01*
X138008794Y-100889725D01*
X138006994Y-100901859D01*
X138004014Y-100913759D01*
X137999881Y-100925308D01*
X137994636Y-100936398D01*
X137988330Y-100946919D01*
X137981022Y-100956772D01*
X137972784Y-100965861D01*
X137963695Y-100974099D01*
X137953842Y-100981407D01*
X137943321Y-100987713D01*
X137932231Y-100992958D01*
X137920682Y-100997091D01*
X137908782Y-101000071D01*
X137896648Y-101001871D01*
X137884396Y-101002473D01*
X136384396Y-101002473D01*
X136372144Y-101001871D01*
X136360010Y-101000071D01*
X136348110Y-100997091D01*
X136336561Y-100992958D01*
X136325471Y-100987713D01*
X136314950Y-100981407D01*
X136305097Y-100974099D01*
X136296008Y-100965861D01*
X136287770Y-100956772D01*
X136280462Y-100946919D01*
X136274156Y-100936398D01*
X136268911Y-100925308D01*
X136264778Y-100913759D01*
X136261798Y-100901859D01*
X136259998Y-100889725D01*
X136259396Y-100877473D01*
X136259396Y-100627473D01*
X136259998Y-100615221D01*
X136261798Y-100603087D01*
X136264778Y-100591187D01*
X136268911Y-100579638D01*
X136274156Y-100568548D01*
X136280462Y-100558027D01*
X136287770Y-100548174D01*
X136296008Y-100539085D01*
X136305097Y-100530847D01*
X136314950Y-100523539D01*
X136325471Y-100517233D01*
X136336561Y-100511988D01*
X136348110Y-100507855D01*
X136360010Y-100504875D01*
X136372144Y-100503075D01*
X136384396Y-100502473D01*
X137884396Y-100502473D01*
X137896648Y-100503075D01*
X137896648Y-100503075D01*
G37*
D23*
X137134396Y-100752473D03*
D19*
G36*
X137896648Y-101003075D02*
G01*
X137908782Y-101004875D01*
X137920682Y-101007855D01*
X137932231Y-101011988D01*
X137943321Y-101017233D01*
X137953842Y-101023539D01*
X137963695Y-101030847D01*
X137972784Y-101039085D01*
X137981022Y-101048174D01*
X137988330Y-101058027D01*
X137994636Y-101068548D01*
X137999881Y-101079638D01*
X138004014Y-101091187D01*
X138006994Y-101103087D01*
X138008794Y-101115221D01*
X138009396Y-101127473D01*
X138009396Y-101377473D01*
X138008794Y-101389725D01*
X138006994Y-101401859D01*
X138004014Y-101413759D01*
X137999881Y-101425308D01*
X137994636Y-101436398D01*
X137988330Y-101446919D01*
X137981022Y-101456772D01*
X137972784Y-101465861D01*
X137963695Y-101474099D01*
X137953842Y-101481407D01*
X137943321Y-101487713D01*
X137932231Y-101492958D01*
X137920682Y-101497091D01*
X137908782Y-101500071D01*
X137896648Y-101501871D01*
X137884396Y-101502473D01*
X136384396Y-101502473D01*
X136372144Y-101501871D01*
X136360010Y-101500071D01*
X136348110Y-101497091D01*
X136336561Y-101492958D01*
X136325471Y-101487713D01*
X136314950Y-101481407D01*
X136305097Y-101474099D01*
X136296008Y-101465861D01*
X136287770Y-101456772D01*
X136280462Y-101446919D01*
X136274156Y-101436398D01*
X136268911Y-101425308D01*
X136264778Y-101413759D01*
X136261798Y-101401859D01*
X136259998Y-101389725D01*
X136259396Y-101377473D01*
X136259396Y-101127473D01*
X136259998Y-101115221D01*
X136261798Y-101103087D01*
X136264778Y-101091187D01*
X136268911Y-101079638D01*
X136274156Y-101068548D01*
X136280462Y-101058027D01*
X136287770Y-101048174D01*
X136296008Y-101039085D01*
X136305097Y-101030847D01*
X136314950Y-101023539D01*
X136325471Y-101017233D01*
X136336561Y-101011988D01*
X136348110Y-101007855D01*
X136360010Y-101004875D01*
X136372144Y-101003075D01*
X136384396Y-101002473D01*
X137884396Y-101002473D01*
X137896648Y-101003075D01*
X137896648Y-101003075D01*
G37*
D23*
X137134396Y-101252473D03*
D24*
X161898796Y-102328872D03*
X157298796Y-102328872D03*
X159598796Y-102328872D03*
D25*
X159598796Y-96028872D03*
D14*
X121828396Y-117598872D03*
M02*
