G04 #@! TF.GenerationSoftware,KiCad,Pcbnew,(5.1.4-0)*
G04 #@! TF.CreationDate,2019-12-01T19:05:18-06:00*
G04 #@! TF.ProjectId,veccart,76656363-6172-4742-9e6b-696361645f70,v0.2*
G04 #@! TF.SameCoordinates,Original*
G04 #@! TF.FileFunction,Copper,L1,Top*
G04 #@! TF.FilePolarity,Positive*
%FSLAX46Y46*%
G04 Gerber Fmt 4.6, Leading zero omitted, Abs format (unit mm)*
G04 Created by KiCad (PCBNEW (5.1.4-0)) date 2019-12-01 19:05:18*
%MOMM*%
%LPD*%
G04 APERTURE LIST*
%ADD10C,0.200000*%
%ADD11O,1.000000X2.100000*%
%ADD12O,1.000000X1.600000*%
%ADD13O,1.520000X8.890000*%
%ADD14R,0.500000X0.800000*%
%ADD15R,0.300000X0.800000*%
%ADD16R,0.800000X0.500000*%
%ADD17R,0.800000X0.300000*%
%ADD18R,1.700000X1.700000*%
%ADD19O,1.700000X1.700000*%
%ADD20R,3.500000X2.400000*%
%ADD21C,0.100000*%
%ADD22C,1.150000*%
%ADD23R,0.900000X1.200000*%
%ADD24C,0.600000*%
%ADD25C,1.000000*%
%ADD26C,0.762000*%
%ADD27C,0.685800*%
%ADD28C,0.609600*%
%ADD29C,0.254000*%
%ADD30C,0.610000*%
%ADD31C,0.400000*%
%ADD32C,0.152400*%
G04 APERTURE END LIST*
D10*
X120594923Y-123444839D02*
X120190862Y-123848900D01*
X120392893Y-123646870D02*
X119685786Y-122939763D01*
X119719458Y-123108122D01*
X119719458Y-123242809D01*
X119685786Y-123343824D01*
X120224534Y-122535702D02*
X120224534Y-122468358D01*
X120258206Y-122367343D01*
X120426564Y-122198984D01*
X120527580Y-122165312D01*
X120594923Y-122165312D01*
X120695938Y-122198984D01*
X120763282Y-122266328D01*
X120830625Y-122401015D01*
X120830625Y-123209137D01*
X121268358Y-122771404D01*
X121268358Y-121963282D02*
X121167343Y-121996954D01*
X121100000Y-121996954D01*
X120998984Y-121963282D01*
X120965312Y-121929610D01*
X120931641Y-121828595D01*
X120931641Y-121761251D01*
X120965312Y-121660236D01*
X121100000Y-121525549D01*
X121201015Y-121491877D01*
X121268358Y-121491877D01*
X121369374Y-121525549D01*
X121403045Y-121559221D01*
X121436717Y-121660236D01*
X121436717Y-121727580D01*
X121403045Y-121828595D01*
X121268358Y-121963282D01*
X121234687Y-122064297D01*
X121234687Y-122131641D01*
X121268358Y-122232656D01*
X121403045Y-122367343D01*
X121504061Y-122401015D01*
X121571404Y-122401015D01*
X121672419Y-122367343D01*
X121807106Y-122232656D01*
X121840778Y-122131641D01*
X121840778Y-122064297D01*
X121807106Y-121963282D01*
X121672419Y-121828595D01*
X121571404Y-121794923D01*
X121504061Y-121794923D01*
X121403045Y-121828595D01*
X122244839Y-121794923D02*
X121537732Y-121087816D01*
X122648900Y-121390862D02*
X121941793Y-121289847D01*
X121941793Y-120683755D02*
X121941793Y-121491877D01*
D11*
X146020000Y-75930000D03*
X137380000Y-75930000D03*
D12*
X137380000Y-71750000D03*
X146020000Y-71750000D03*
D13*
X163278408Y-130599981D03*
X160738408Y-130599981D03*
X158198408Y-130599981D03*
X155658408Y-130599981D03*
X153118408Y-130599981D03*
X150578408Y-130599981D03*
X148038408Y-130599981D03*
X145498408Y-130599981D03*
X142958408Y-130599981D03*
X140418408Y-130599981D03*
X137878408Y-130599981D03*
X135338408Y-130599981D03*
X132798408Y-130599981D03*
X130258408Y-130599981D03*
X127718408Y-130599981D03*
X125178408Y-130599981D03*
X122638408Y-130599981D03*
X120098408Y-130599981D03*
D14*
X163590000Y-91850000D03*
X161790000Y-91850000D03*
D15*
X162690000Y-91850000D03*
D14*
X161790000Y-90150000D03*
D15*
X162690000Y-90150000D03*
D14*
X163590000Y-90150000D03*
X163590000Y-85850000D03*
X161790000Y-85850000D03*
D15*
X162690000Y-85850000D03*
D14*
X161790000Y-84150000D03*
D15*
X162690000Y-84150000D03*
D14*
X163590000Y-84150000D03*
X163590000Y-79850000D03*
X161790000Y-79850000D03*
D15*
X162690000Y-79850000D03*
D14*
X161790000Y-78150000D03*
D15*
X162690000Y-78150000D03*
D14*
X163590000Y-78150000D03*
D16*
X163550000Y-72110000D03*
X163550000Y-73910000D03*
D17*
X163550000Y-73010000D03*
D16*
X161850000Y-73910000D03*
D17*
X161850000Y-73010000D03*
D16*
X161850000Y-72110000D03*
X157550000Y-72110000D03*
X157550000Y-73910000D03*
D17*
X157550000Y-73010000D03*
D16*
X155850000Y-73910000D03*
D17*
X155850000Y-73010000D03*
D16*
X155850000Y-72110000D03*
X151550000Y-72110000D03*
X151550000Y-73910000D03*
D17*
X151550000Y-73010000D03*
D16*
X149850000Y-73910000D03*
D17*
X149850000Y-73010000D03*
D16*
X149850000Y-72110000D03*
X142550000Y-72110000D03*
X142550000Y-73910000D03*
D17*
X142550000Y-73010000D03*
D16*
X140850000Y-73910000D03*
D17*
X140850000Y-73010000D03*
D16*
X140850000Y-72110000D03*
X133550000Y-72110000D03*
X133550000Y-73910000D03*
D17*
X133550000Y-73010000D03*
D16*
X131850000Y-73910000D03*
D17*
X131850000Y-73010000D03*
D16*
X131850000Y-72110000D03*
X127550000Y-72110000D03*
X127550000Y-73910000D03*
D17*
X127550000Y-73010000D03*
D16*
X125850000Y-73910000D03*
D17*
X125850000Y-73010000D03*
D16*
X125850000Y-72110000D03*
X121550000Y-72110000D03*
X121550000Y-73910000D03*
D17*
X121550000Y-73010000D03*
D16*
X119850000Y-73910000D03*
D17*
X119850000Y-73010000D03*
D16*
X119850000Y-72110000D03*
D18*
X119989600Y-81420000D03*
D19*
X119989600Y-83960000D03*
X119989600Y-86500000D03*
X119989600Y-89040000D03*
X119989600Y-91580000D03*
X119989600Y-94120000D03*
D20*
X133280800Y-102489000D03*
X138480800Y-102489000D03*
D19*
X151536400Y-109601000D03*
D18*
X151536400Y-112141000D03*
D21*
G36*
X141099505Y-76301204D02*
G01*
X141123773Y-76304804D01*
X141147572Y-76310765D01*
X141170671Y-76319030D01*
X141192850Y-76329520D01*
X141213893Y-76342132D01*
X141233599Y-76356747D01*
X141251777Y-76373223D01*
X141268253Y-76391401D01*
X141282868Y-76411107D01*
X141295480Y-76432150D01*
X141305970Y-76454329D01*
X141314235Y-76477428D01*
X141320196Y-76501227D01*
X141323796Y-76525495D01*
X141325000Y-76549999D01*
X141325000Y-77450001D01*
X141323796Y-77474505D01*
X141320196Y-77498773D01*
X141314235Y-77522572D01*
X141305970Y-77545671D01*
X141295480Y-77567850D01*
X141282868Y-77588893D01*
X141268253Y-77608599D01*
X141251777Y-77626777D01*
X141233599Y-77643253D01*
X141213893Y-77657868D01*
X141192850Y-77670480D01*
X141170671Y-77680970D01*
X141147572Y-77689235D01*
X141123773Y-77695196D01*
X141099505Y-77698796D01*
X141075001Y-77700000D01*
X140424999Y-77700000D01*
X140400495Y-77698796D01*
X140376227Y-77695196D01*
X140352428Y-77689235D01*
X140329329Y-77680970D01*
X140307150Y-77670480D01*
X140286107Y-77657868D01*
X140266401Y-77643253D01*
X140248223Y-77626777D01*
X140231747Y-77608599D01*
X140217132Y-77588893D01*
X140204520Y-77567850D01*
X140194030Y-77545671D01*
X140185765Y-77522572D01*
X140179804Y-77498773D01*
X140176204Y-77474505D01*
X140175000Y-77450001D01*
X140175000Y-76549999D01*
X140176204Y-76525495D01*
X140179804Y-76501227D01*
X140185765Y-76477428D01*
X140194030Y-76454329D01*
X140204520Y-76432150D01*
X140217132Y-76411107D01*
X140231747Y-76391401D01*
X140248223Y-76373223D01*
X140266401Y-76356747D01*
X140286107Y-76342132D01*
X140307150Y-76329520D01*
X140329329Y-76319030D01*
X140352428Y-76310765D01*
X140376227Y-76304804D01*
X140400495Y-76301204D01*
X140424999Y-76300000D01*
X141075001Y-76300000D01*
X141099505Y-76301204D01*
X141099505Y-76301204D01*
G37*
D22*
X140750000Y-77000000D03*
D21*
G36*
X143149505Y-76301204D02*
G01*
X143173773Y-76304804D01*
X143197572Y-76310765D01*
X143220671Y-76319030D01*
X143242850Y-76329520D01*
X143263893Y-76342132D01*
X143283599Y-76356747D01*
X143301777Y-76373223D01*
X143318253Y-76391401D01*
X143332868Y-76411107D01*
X143345480Y-76432150D01*
X143355970Y-76454329D01*
X143364235Y-76477428D01*
X143370196Y-76501227D01*
X143373796Y-76525495D01*
X143375000Y-76549999D01*
X143375000Y-77450001D01*
X143373796Y-77474505D01*
X143370196Y-77498773D01*
X143364235Y-77522572D01*
X143355970Y-77545671D01*
X143345480Y-77567850D01*
X143332868Y-77588893D01*
X143318253Y-77608599D01*
X143301777Y-77626777D01*
X143283599Y-77643253D01*
X143263893Y-77657868D01*
X143242850Y-77670480D01*
X143220671Y-77680970D01*
X143197572Y-77689235D01*
X143173773Y-77695196D01*
X143149505Y-77698796D01*
X143125001Y-77700000D01*
X142474999Y-77700000D01*
X142450495Y-77698796D01*
X142426227Y-77695196D01*
X142402428Y-77689235D01*
X142379329Y-77680970D01*
X142357150Y-77670480D01*
X142336107Y-77657868D01*
X142316401Y-77643253D01*
X142298223Y-77626777D01*
X142281747Y-77608599D01*
X142267132Y-77588893D01*
X142254520Y-77567850D01*
X142244030Y-77545671D01*
X142235765Y-77522572D01*
X142229804Y-77498773D01*
X142226204Y-77474505D01*
X142225000Y-77450001D01*
X142225000Y-76549999D01*
X142226204Y-76525495D01*
X142229804Y-76501227D01*
X142235765Y-76477428D01*
X142244030Y-76454329D01*
X142254520Y-76432150D01*
X142267132Y-76411107D01*
X142281747Y-76391401D01*
X142298223Y-76373223D01*
X142316401Y-76356747D01*
X142336107Y-76342132D01*
X142357150Y-76329520D01*
X142379329Y-76319030D01*
X142402428Y-76310765D01*
X142426227Y-76304804D01*
X142450495Y-76301204D01*
X142474999Y-76300000D01*
X143125001Y-76300000D01*
X143149505Y-76301204D01*
X143149505Y-76301204D01*
G37*
D22*
X142800000Y-77000000D03*
D21*
G36*
X145265505Y-94830604D02*
G01*
X145289773Y-94834204D01*
X145313572Y-94840165D01*
X145336671Y-94848430D01*
X145358850Y-94858920D01*
X145379893Y-94871532D01*
X145399599Y-94886147D01*
X145417777Y-94902623D01*
X145434253Y-94920801D01*
X145448868Y-94940507D01*
X145461480Y-94961550D01*
X145471970Y-94983729D01*
X145480235Y-95006828D01*
X145486196Y-95030627D01*
X145489796Y-95054895D01*
X145491000Y-95079399D01*
X145491000Y-95979401D01*
X145489796Y-96003905D01*
X145486196Y-96028173D01*
X145480235Y-96051972D01*
X145471970Y-96075071D01*
X145461480Y-96097250D01*
X145448868Y-96118293D01*
X145434253Y-96137999D01*
X145417777Y-96156177D01*
X145399599Y-96172653D01*
X145379893Y-96187268D01*
X145358850Y-96199880D01*
X145336671Y-96210370D01*
X145313572Y-96218635D01*
X145289773Y-96224596D01*
X145265505Y-96228196D01*
X145241001Y-96229400D01*
X144590999Y-96229400D01*
X144566495Y-96228196D01*
X144542227Y-96224596D01*
X144518428Y-96218635D01*
X144495329Y-96210370D01*
X144473150Y-96199880D01*
X144452107Y-96187268D01*
X144432401Y-96172653D01*
X144414223Y-96156177D01*
X144397747Y-96137999D01*
X144383132Y-96118293D01*
X144370520Y-96097250D01*
X144360030Y-96075071D01*
X144351765Y-96051972D01*
X144345804Y-96028173D01*
X144342204Y-96003905D01*
X144341000Y-95979401D01*
X144341000Y-95079399D01*
X144342204Y-95054895D01*
X144345804Y-95030627D01*
X144351765Y-95006828D01*
X144360030Y-94983729D01*
X144370520Y-94961550D01*
X144383132Y-94940507D01*
X144397747Y-94920801D01*
X144414223Y-94902623D01*
X144432401Y-94886147D01*
X144452107Y-94871532D01*
X144473150Y-94858920D01*
X144495329Y-94848430D01*
X144518428Y-94840165D01*
X144542227Y-94834204D01*
X144566495Y-94830604D01*
X144590999Y-94829400D01*
X145241001Y-94829400D01*
X145265505Y-94830604D01*
X145265505Y-94830604D01*
G37*
D22*
X144916000Y-95529400D03*
D21*
G36*
X143215505Y-94830604D02*
G01*
X143239773Y-94834204D01*
X143263572Y-94840165D01*
X143286671Y-94848430D01*
X143308850Y-94858920D01*
X143329893Y-94871532D01*
X143349599Y-94886147D01*
X143367777Y-94902623D01*
X143384253Y-94920801D01*
X143398868Y-94940507D01*
X143411480Y-94961550D01*
X143421970Y-94983729D01*
X143430235Y-95006828D01*
X143436196Y-95030627D01*
X143439796Y-95054895D01*
X143441000Y-95079399D01*
X143441000Y-95979401D01*
X143439796Y-96003905D01*
X143436196Y-96028173D01*
X143430235Y-96051972D01*
X143421970Y-96075071D01*
X143411480Y-96097250D01*
X143398868Y-96118293D01*
X143384253Y-96137999D01*
X143367777Y-96156177D01*
X143349599Y-96172653D01*
X143329893Y-96187268D01*
X143308850Y-96199880D01*
X143286671Y-96210370D01*
X143263572Y-96218635D01*
X143239773Y-96224596D01*
X143215505Y-96228196D01*
X143191001Y-96229400D01*
X142540999Y-96229400D01*
X142516495Y-96228196D01*
X142492227Y-96224596D01*
X142468428Y-96218635D01*
X142445329Y-96210370D01*
X142423150Y-96199880D01*
X142402107Y-96187268D01*
X142382401Y-96172653D01*
X142364223Y-96156177D01*
X142347747Y-96137999D01*
X142333132Y-96118293D01*
X142320520Y-96097250D01*
X142310030Y-96075071D01*
X142301765Y-96051972D01*
X142295804Y-96028173D01*
X142292204Y-96003905D01*
X142291000Y-95979401D01*
X142291000Y-95079399D01*
X142292204Y-95054895D01*
X142295804Y-95030627D01*
X142301765Y-95006828D01*
X142310030Y-94983729D01*
X142320520Y-94961550D01*
X142333132Y-94940507D01*
X142347747Y-94920801D01*
X142364223Y-94902623D01*
X142382401Y-94886147D01*
X142402107Y-94871532D01*
X142423150Y-94858920D01*
X142445329Y-94848430D01*
X142468428Y-94840165D01*
X142492227Y-94834204D01*
X142516495Y-94830604D01*
X142540999Y-94829400D01*
X143191001Y-94829400D01*
X143215505Y-94830604D01*
X143215505Y-94830604D01*
G37*
D22*
X142866000Y-95529400D03*
D21*
G36*
X141114305Y-95810204D02*
G01*
X141138573Y-95813804D01*
X141162372Y-95819765D01*
X141185471Y-95828030D01*
X141207650Y-95838520D01*
X141228693Y-95851132D01*
X141248399Y-95865747D01*
X141266577Y-95882223D01*
X141283053Y-95900401D01*
X141297668Y-95920107D01*
X141310280Y-95941150D01*
X141320770Y-95963329D01*
X141329035Y-95986428D01*
X141334996Y-96010227D01*
X141338596Y-96034495D01*
X141339800Y-96058999D01*
X141339800Y-96709001D01*
X141338596Y-96733505D01*
X141334996Y-96757773D01*
X141329035Y-96781572D01*
X141320770Y-96804671D01*
X141310280Y-96826850D01*
X141297668Y-96847893D01*
X141283053Y-96867599D01*
X141266577Y-96885777D01*
X141248399Y-96902253D01*
X141228693Y-96916868D01*
X141207650Y-96929480D01*
X141185471Y-96939970D01*
X141162372Y-96948235D01*
X141138573Y-96954196D01*
X141114305Y-96957796D01*
X141089801Y-96959000D01*
X140189799Y-96959000D01*
X140165295Y-96957796D01*
X140141027Y-96954196D01*
X140117228Y-96948235D01*
X140094129Y-96939970D01*
X140071950Y-96929480D01*
X140050907Y-96916868D01*
X140031201Y-96902253D01*
X140013023Y-96885777D01*
X139996547Y-96867599D01*
X139981932Y-96847893D01*
X139969320Y-96826850D01*
X139958830Y-96804671D01*
X139950565Y-96781572D01*
X139944604Y-96757773D01*
X139941004Y-96733505D01*
X139939800Y-96709001D01*
X139939800Y-96058999D01*
X139941004Y-96034495D01*
X139944604Y-96010227D01*
X139950565Y-95986428D01*
X139958830Y-95963329D01*
X139969320Y-95941150D01*
X139981932Y-95920107D01*
X139996547Y-95900401D01*
X140013023Y-95882223D01*
X140031201Y-95865747D01*
X140050907Y-95851132D01*
X140071950Y-95838520D01*
X140094129Y-95828030D01*
X140117228Y-95819765D01*
X140141027Y-95813804D01*
X140165295Y-95810204D01*
X140189799Y-95809000D01*
X141089801Y-95809000D01*
X141114305Y-95810204D01*
X141114305Y-95810204D01*
G37*
D22*
X140639800Y-96384000D03*
D21*
G36*
X141114305Y-97860204D02*
G01*
X141138573Y-97863804D01*
X141162372Y-97869765D01*
X141185471Y-97878030D01*
X141207650Y-97888520D01*
X141228693Y-97901132D01*
X141248399Y-97915747D01*
X141266577Y-97932223D01*
X141283053Y-97950401D01*
X141297668Y-97970107D01*
X141310280Y-97991150D01*
X141320770Y-98013329D01*
X141329035Y-98036428D01*
X141334996Y-98060227D01*
X141338596Y-98084495D01*
X141339800Y-98108999D01*
X141339800Y-98759001D01*
X141338596Y-98783505D01*
X141334996Y-98807773D01*
X141329035Y-98831572D01*
X141320770Y-98854671D01*
X141310280Y-98876850D01*
X141297668Y-98897893D01*
X141283053Y-98917599D01*
X141266577Y-98935777D01*
X141248399Y-98952253D01*
X141228693Y-98966868D01*
X141207650Y-98979480D01*
X141185471Y-98989970D01*
X141162372Y-98998235D01*
X141138573Y-99004196D01*
X141114305Y-99007796D01*
X141089801Y-99009000D01*
X140189799Y-99009000D01*
X140165295Y-99007796D01*
X140141027Y-99004196D01*
X140117228Y-98998235D01*
X140094129Y-98989970D01*
X140071950Y-98979480D01*
X140050907Y-98966868D01*
X140031201Y-98952253D01*
X140013023Y-98935777D01*
X139996547Y-98917599D01*
X139981932Y-98897893D01*
X139969320Y-98876850D01*
X139958830Y-98854671D01*
X139950565Y-98831572D01*
X139944604Y-98807773D01*
X139941004Y-98783505D01*
X139939800Y-98759001D01*
X139939800Y-98108999D01*
X139941004Y-98084495D01*
X139944604Y-98060227D01*
X139950565Y-98036428D01*
X139958830Y-98013329D01*
X139969320Y-97991150D01*
X139981932Y-97970107D01*
X139996547Y-97950401D01*
X140013023Y-97932223D01*
X140031201Y-97915747D01*
X140050907Y-97901132D01*
X140071950Y-97888520D01*
X140094129Y-97878030D01*
X140117228Y-97869765D01*
X140141027Y-97863804D01*
X140165295Y-97860204D01*
X140189799Y-97859000D01*
X141089801Y-97859000D01*
X141114305Y-97860204D01*
X141114305Y-97860204D01*
G37*
D22*
X140639800Y-98434000D03*
D21*
G36*
X145367105Y-99453404D02*
G01*
X145391373Y-99457004D01*
X145415172Y-99462965D01*
X145438271Y-99471230D01*
X145460450Y-99481720D01*
X145481493Y-99494332D01*
X145501199Y-99508947D01*
X145519377Y-99525423D01*
X145535853Y-99543601D01*
X145550468Y-99563307D01*
X145563080Y-99584350D01*
X145573570Y-99606529D01*
X145581835Y-99629628D01*
X145587796Y-99653427D01*
X145591396Y-99677695D01*
X145592600Y-99702199D01*
X145592600Y-100602201D01*
X145591396Y-100626705D01*
X145587796Y-100650973D01*
X145581835Y-100674772D01*
X145573570Y-100697871D01*
X145563080Y-100720050D01*
X145550468Y-100741093D01*
X145535853Y-100760799D01*
X145519377Y-100778977D01*
X145501199Y-100795453D01*
X145481493Y-100810068D01*
X145460450Y-100822680D01*
X145438271Y-100833170D01*
X145415172Y-100841435D01*
X145391373Y-100847396D01*
X145367105Y-100850996D01*
X145342601Y-100852200D01*
X144692599Y-100852200D01*
X144668095Y-100850996D01*
X144643827Y-100847396D01*
X144620028Y-100841435D01*
X144596929Y-100833170D01*
X144574750Y-100822680D01*
X144553707Y-100810068D01*
X144534001Y-100795453D01*
X144515823Y-100778977D01*
X144499347Y-100760799D01*
X144484732Y-100741093D01*
X144472120Y-100720050D01*
X144461630Y-100697871D01*
X144453365Y-100674772D01*
X144447404Y-100650973D01*
X144443804Y-100626705D01*
X144442600Y-100602201D01*
X144442600Y-99702199D01*
X144443804Y-99677695D01*
X144447404Y-99653427D01*
X144453365Y-99629628D01*
X144461630Y-99606529D01*
X144472120Y-99584350D01*
X144484732Y-99563307D01*
X144499347Y-99543601D01*
X144515823Y-99525423D01*
X144534001Y-99508947D01*
X144553707Y-99494332D01*
X144574750Y-99481720D01*
X144596929Y-99471230D01*
X144620028Y-99462965D01*
X144643827Y-99457004D01*
X144668095Y-99453404D01*
X144692599Y-99452200D01*
X145342601Y-99452200D01*
X145367105Y-99453404D01*
X145367105Y-99453404D01*
G37*
D22*
X145017600Y-100152200D03*
D21*
G36*
X143317105Y-99453404D02*
G01*
X143341373Y-99457004D01*
X143365172Y-99462965D01*
X143388271Y-99471230D01*
X143410450Y-99481720D01*
X143431493Y-99494332D01*
X143451199Y-99508947D01*
X143469377Y-99525423D01*
X143485853Y-99543601D01*
X143500468Y-99563307D01*
X143513080Y-99584350D01*
X143523570Y-99606529D01*
X143531835Y-99629628D01*
X143537796Y-99653427D01*
X143541396Y-99677695D01*
X143542600Y-99702199D01*
X143542600Y-100602201D01*
X143541396Y-100626705D01*
X143537796Y-100650973D01*
X143531835Y-100674772D01*
X143523570Y-100697871D01*
X143513080Y-100720050D01*
X143500468Y-100741093D01*
X143485853Y-100760799D01*
X143469377Y-100778977D01*
X143451199Y-100795453D01*
X143431493Y-100810068D01*
X143410450Y-100822680D01*
X143388271Y-100833170D01*
X143365172Y-100841435D01*
X143341373Y-100847396D01*
X143317105Y-100850996D01*
X143292601Y-100852200D01*
X142642599Y-100852200D01*
X142618095Y-100850996D01*
X142593827Y-100847396D01*
X142570028Y-100841435D01*
X142546929Y-100833170D01*
X142524750Y-100822680D01*
X142503707Y-100810068D01*
X142484001Y-100795453D01*
X142465823Y-100778977D01*
X142449347Y-100760799D01*
X142434732Y-100741093D01*
X142422120Y-100720050D01*
X142411630Y-100697871D01*
X142403365Y-100674772D01*
X142397404Y-100650973D01*
X142393804Y-100626705D01*
X142392600Y-100602201D01*
X142392600Y-99702199D01*
X142393804Y-99677695D01*
X142397404Y-99653427D01*
X142403365Y-99629628D01*
X142411630Y-99606529D01*
X142422120Y-99584350D01*
X142434732Y-99563307D01*
X142449347Y-99543601D01*
X142465823Y-99525423D01*
X142484001Y-99508947D01*
X142503707Y-99494332D01*
X142524750Y-99481720D01*
X142546929Y-99471230D01*
X142570028Y-99462965D01*
X142593827Y-99457004D01*
X142618095Y-99453404D01*
X142642599Y-99452200D01*
X143292601Y-99452200D01*
X143317105Y-99453404D01*
X143317105Y-99453404D01*
G37*
D22*
X142967600Y-100152200D03*
D21*
G36*
X149242305Y-106505203D02*
G01*
X149266573Y-106508803D01*
X149290372Y-106514764D01*
X149313471Y-106523029D01*
X149335650Y-106533519D01*
X149356693Y-106546131D01*
X149376399Y-106560746D01*
X149394577Y-106577222D01*
X149411053Y-106595400D01*
X149425668Y-106615106D01*
X149438280Y-106636149D01*
X149448770Y-106658328D01*
X149457035Y-106681427D01*
X149462996Y-106705226D01*
X149466596Y-106729494D01*
X149467800Y-106753998D01*
X149467800Y-107404000D01*
X149466596Y-107428504D01*
X149462996Y-107452772D01*
X149457035Y-107476571D01*
X149448770Y-107499670D01*
X149438280Y-107521849D01*
X149425668Y-107542892D01*
X149411053Y-107562598D01*
X149394577Y-107580776D01*
X149376399Y-107597252D01*
X149356693Y-107611867D01*
X149335650Y-107624479D01*
X149313471Y-107634969D01*
X149290372Y-107643234D01*
X149266573Y-107649195D01*
X149242305Y-107652795D01*
X149217801Y-107653999D01*
X148317799Y-107653999D01*
X148293295Y-107652795D01*
X148269027Y-107649195D01*
X148245228Y-107643234D01*
X148222129Y-107634969D01*
X148199950Y-107624479D01*
X148178907Y-107611867D01*
X148159201Y-107597252D01*
X148141023Y-107580776D01*
X148124547Y-107562598D01*
X148109932Y-107542892D01*
X148097320Y-107521849D01*
X148086830Y-107499670D01*
X148078565Y-107476571D01*
X148072604Y-107452772D01*
X148069004Y-107428504D01*
X148067800Y-107404000D01*
X148067800Y-106753998D01*
X148069004Y-106729494D01*
X148072604Y-106705226D01*
X148078565Y-106681427D01*
X148086830Y-106658328D01*
X148097320Y-106636149D01*
X148109932Y-106615106D01*
X148124547Y-106595400D01*
X148141023Y-106577222D01*
X148159201Y-106560746D01*
X148178907Y-106546131D01*
X148199950Y-106533519D01*
X148222129Y-106523029D01*
X148245228Y-106514764D01*
X148269027Y-106508803D01*
X148293295Y-106505203D01*
X148317799Y-106503999D01*
X149217801Y-106503999D01*
X149242305Y-106505203D01*
X149242305Y-106505203D01*
G37*
D22*
X148767800Y-107078999D03*
D21*
G36*
X149242305Y-104455203D02*
G01*
X149266573Y-104458803D01*
X149290372Y-104464764D01*
X149313471Y-104473029D01*
X149335650Y-104483519D01*
X149356693Y-104496131D01*
X149376399Y-104510746D01*
X149394577Y-104527222D01*
X149411053Y-104545400D01*
X149425668Y-104565106D01*
X149438280Y-104586149D01*
X149448770Y-104608328D01*
X149457035Y-104631427D01*
X149462996Y-104655226D01*
X149466596Y-104679494D01*
X149467800Y-104703998D01*
X149467800Y-105354000D01*
X149466596Y-105378504D01*
X149462996Y-105402772D01*
X149457035Y-105426571D01*
X149448770Y-105449670D01*
X149438280Y-105471849D01*
X149425668Y-105492892D01*
X149411053Y-105512598D01*
X149394577Y-105530776D01*
X149376399Y-105547252D01*
X149356693Y-105561867D01*
X149335650Y-105574479D01*
X149313471Y-105584969D01*
X149290372Y-105593234D01*
X149266573Y-105599195D01*
X149242305Y-105602795D01*
X149217801Y-105603999D01*
X148317799Y-105603999D01*
X148293295Y-105602795D01*
X148269027Y-105599195D01*
X148245228Y-105593234D01*
X148222129Y-105584969D01*
X148199950Y-105574479D01*
X148178907Y-105561867D01*
X148159201Y-105547252D01*
X148141023Y-105530776D01*
X148124547Y-105512598D01*
X148109932Y-105492892D01*
X148097320Y-105471849D01*
X148086830Y-105449670D01*
X148078565Y-105426571D01*
X148072604Y-105402772D01*
X148069004Y-105378504D01*
X148067800Y-105354000D01*
X148067800Y-104703998D01*
X148069004Y-104679494D01*
X148072604Y-104655226D01*
X148078565Y-104631427D01*
X148086830Y-104608328D01*
X148097320Y-104586149D01*
X148109932Y-104565106D01*
X148124547Y-104545400D01*
X148141023Y-104527222D01*
X148159201Y-104510746D01*
X148178907Y-104496131D01*
X148199950Y-104483519D01*
X148222129Y-104473029D01*
X148245228Y-104464764D01*
X148269027Y-104458803D01*
X148293295Y-104455203D01*
X148317799Y-104453999D01*
X149217801Y-104453999D01*
X149242305Y-104455203D01*
X149242305Y-104455203D01*
G37*
D22*
X148767800Y-105028999D03*
D23*
X163250000Y-122100000D03*
X159950000Y-122100000D03*
D21*
G36*
X146758703Y-108869922D02*
G01*
X146773264Y-108872082D01*
X146787543Y-108875659D01*
X146801403Y-108880618D01*
X146814710Y-108886912D01*
X146827336Y-108894480D01*
X146839159Y-108903248D01*
X146850066Y-108913134D01*
X146859952Y-108924041D01*
X146868720Y-108935864D01*
X146876288Y-108948490D01*
X146882582Y-108961797D01*
X146887541Y-108975657D01*
X146891118Y-108989936D01*
X146893278Y-109004497D01*
X146894000Y-109019200D01*
X146894000Y-109319200D01*
X146893278Y-109333903D01*
X146891118Y-109348464D01*
X146887541Y-109362743D01*
X146882582Y-109376603D01*
X146876288Y-109389910D01*
X146868720Y-109402536D01*
X146859952Y-109414359D01*
X146850066Y-109425266D01*
X146839159Y-109435152D01*
X146827336Y-109443920D01*
X146814710Y-109451488D01*
X146801403Y-109457782D01*
X146787543Y-109462741D01*
X146773264Y-109466318D01*
X146758703Y-109468478D01*
X146744000Y-109469200D01*
X145444000Y-109469200D01*
X145429297Y-109468478D01*
X145414736Y-109466318D01*
X145400457Y-109462741D01*
X145386597Y-109457782D01*
X145373290Y-109451488D01*
X145360664Y-109443920D01*
X145348841Y-109435152D01*
X145337934Y-109425266D01*
X145328048Y-109414359D01*
X145319280Y-109402536D01*
X145311712Y-109389910D01*
X145305418Y-109376603D01*
X145300459Y-109362743D01*
X145296882Y-109348464D01*
X145294722Y-109333903D01*
X145294000Y-109319200D01*
X145294000Y-109019200D01*
X145294722Y-109004497D01*
X145296882Y-108989936D01*
X145300459Y-108975657D01*
X145305418Y-108961797D01*
X145311712Y-108948490D01*
X145319280Y-108935864D01*
X145328048Y-108924041D01*
X145337934Y-108913134D01*
X145348841Y-108903248D01*
X145360664Y-108894480D01*
X145373290Y-108886912D01*
X145386597Y-108880618D01*
X145400457Y-108875659D01*
X145414736Y-108872082D01*
X145429297Y-108869922D01*
X145444000Y-108869200D01*
X146744000Y-108869200D01*
X146758703Y-108869922D01*
X146758703Y-108869922D01*
G37*
D24*
X146094000Y-109169200D03*
D21*
G36*
X146758703Y-107599922D02*
G01*
X146773264Y-107602082D01*
X146787543Y-107605659D01*
X146801403Y-107610618D01*
X146814710Y-107616912D01*
X146827336Y-107624480D01*
X146839159Y-107633248D01*
X146850066Y-107643134D01*
X146859952Y-107654041D01*
X146868720Y-107665864D01*
X146876288Y-107678490D01*
X146882582Y-107691797D01*
X146887541Y-107705657D01*
X146891118Y-107719936D01*
X146893278Y-107734497D01*
X146894000Y-107749200D01*
X146894000Y-108049200D01*
X146893278Y-108063903D01*
X146891118Y-108078464D01*
X146887541Y-108092743D01*
X146882582Y-108106603D01*
X146876288Y-108119910D01*
X146868720Y-108132536D01*
X146859952Y-108144359D01*
X146850066Y-108155266D01*
X146839159Y-108165152D01*
X146827336Y-108173920D01*
X146814710Y-108181488D01*
X146801403Y-108187782D01*
X146787543Y-108192741D01*
X146773264Y-108196318D01*
X146758703Y-108198478D01*
X146744000Y-108199200D01*
X145444000Y-108199200D01*
X145429297Y-108198478D01*
X145414736Y-108196318D01*
X145400457Y-108192741D01*
X145386597Y-108187782D01*
X145373290Y-108181488D01*
X145360664Y-108173920D01*
X145348841Y-108165152D01*
X145337934Y-108155266D01*
X145328048Y-108144359D01*
X145319280Y-108132536D01*
X145311712Y-108119910D01*
X145305418Y-108106603D01*
X145300459Y-108092743D01*
X145296882Y-108078464D01*
X145294722Y-108063903D01*
X145294000Y-108049200D01*
X145294000Y-107749200D01*
X145294722Y-107734497D01*
X145296882Y-107719936D01*
X145300459Y-107705657D01*
X145305418Y-107691797D01*
X145311712Y-107678490D01*
X145319280Y-107665864D01*
X145328048Y-107654041D01*
X145337934Y-107643134D01*
X145348841Y-107633248D01*
X145360664Y-107624480D01*
X145373290Y-107616912D01*
X145386597Y-107610618D01*
X145400457Y-107605659D01*
X145414736Y-107602082D01*
X145429297Y-107599922D01*
X145444000Y-107599200D01*
X146744000Y-107599200D01*
X146758703Y-107599922D01*
X146758703Y-107599922D01*
G37*
D24*
X146094000Y-107899200D03*
D21*
G36*
X146758703Y-106329922D02*
G01*
X146773264Y-106332082D01*
X146787543Y-106335659D01*
X146801403Y-106340618D01*
X146814710Y-106346912D01*
X146827336Y-106354480D01*
X146839159Y-106363248D01*
X146850066Y-106373134D01*
X146859952Y-106384041D01*
X146868720Y-106395864D01*
X146876288Y-106408490D01*
X146882582Y-106421797D01*
X146887541Y-106435657D01*
X146891118Y-106449936D01*
X146893278Y-106464497D01*
X146894000Y-106479200D01*
X146894000Y-106779200D01*
X146893278Y-106793903D01*
X146891118Y-106808464D01*
X146887541Y-106822743D01*
X146882582Y-106836603D01*
X146876288Y-106849910D01*
X146868720Y-106862536D01*
X146859952Y-106874359D01*
X146850066Y-106885266D01*
X146839159Y-106895152D01*
X146827336Y-106903920D01*
X146814710Y-106911488D01*
X146801403Y-106917782D01*
X146787543Y-106922741D01*
X146773264Y-106926318D01*
X146758703Y-106928478D01*
X146744000Y-106929200D01*
X145444000Y-106929200D01*
X145429297Y-106928478D01*
X145414736Y-106926318D01*
X145400457Y-106922741D01*
X145386597Y-106917782D01*
X145373290Y-106911488D01*
X145360664Y-106903920D01*
X145348841Y-106895152D01*
X145337934Y-106885266D01*
X145328048Y-106874359D01*
X145319280Y-106862536D01*
X145311712Y-106849910D01*
X145305418Y-106836603D01*
X145300459Y-106822743D01*
X145296882Y-106808464D01*
X145294722Y-106793903D01*
X145294000Y-106779200D01*
X145294000Y-106479200D01*
X145294722Y-106464497D01*
X145296882Y-106449936D01*
X145300459Y-106435657D01*
X145305418Y-106421797D01*
X145311712Y-106408490D01*
X145319280Y-106395864D01*
X145328048Y-106384041D01*
X145337934Y-106373134D01*
X145348841Y-106363248D01*
X145360664Y-106354480D01*
X145373290Y-106346912D01*
X145386597Y-106340618D01*
X145400457Y-106335659D01*
X145414736Y-106332082D01*
X145429297Y-106329922D01*
X145444000Y-106329200D01*
X146744000Y-106329200D01*
X146758703Y-106329922D01*
X146758703Y-106329922D01*
G37*
D24*
X146094000Y-106629200D03*
D21*
G36*
X146758703Y-105059922D02*
G01*
X146773264Y-105062082D01*
X146787543Y-105065659D01*
X146801403Y-105070618D01*
X146814710Y-105076912D01*
X146827336Y-105084480D01*
X146839159Y-105093248D01*
X146850066Y-105103134D01*
X146859952Y-105114041D01*
X146868720Y-105125864D01*
X146876288Y-105138490D01*
X146882582Y-105151797D01*
X146887541Y-105165657D01*
X146891118Y-105179936D01*
X146893278Y-105194497D01*
X146894000Y-105209200D01*
X146894000Y-105509200D01*
X146893278Y-105523903D01*
X146891118Y-105538464D01*
X146887541Y-105552743D01*
X146882582Y-105566603D01*
X146876288Y-105579910D01*
X146868720Y-105592536D01*
X146859952Y-105604359D01*
X146850066Y-105615266D01*
X146839159Y-105625152D01*
X146827336Y-105633920D01*
X146814710Y-105641488D01*
X146801403Y-105647782D01*
X146787543Y-105652741D01*
X146773264Y-105656318D01*
X146758703Y-105658478D01*
X146744000Y-105659200D01*
X145444000Y-105659200D01*
X145429297Y-105658478D01*
X145414736Y-105656318D01*
X145400457Y-105652741D01*
X145386597Y-105647782D01*
X145373290Y-105641488D01*
X145360664Y-105633920D01*
X145348841Y-105625152D01*
X145337934Y-105615266D01*
X145328048Y-105604359D01*
X145319280Y-105592536D01*
X145311712Y-105579910D01*
X145305418Y-105566603D01*
X145300459Y-105552743D01*
X145296882Y-105538464D01*
X145294722Y-105523903D01*
X145294000Y-105509200D01*
X145294000Y-105209200D01*
X145294722Y-105194497D01*
X145296882Y-105179936D01*
X145300459Y-105165657D01*
X145305418Y-105151797D01*
X145311712Y-105138490D01*
X145319280Y-105125864D01*
X145328048Y-105114041D01*
X145337934Y-105103134D01*
X145348841Y-105093248D01*
X145360664Y-105084480D01*
X145373290Y-105076912D01*
X145386597Y-105070618D01*
X145400457Y-105065659D01*
X145414736Y-105062082D01*
X145429297Y-105059922D01*
X145444000Y-105059200D01*
X146744000Y-105059200D01*
X146758703Y-105059922D01*
X146758703Y-105059922D01*
G37*
D24*
X146094000Y-105359200D03*
D21*
G36*
X139558703Y-105059922D02*
G01*
X139573264Y-105062082D01*
X139587543Y-105065659D01*
X139601403Y-105070618D01*
X139614710Y-105076912D01*
X139627336Y-105084480D01*
X139639159Y-105093248D01*
X139650066Y-105103134D01*
X139659952Y-105114041D01*
X139668720Y-105125864D01*
X139676288Y-105138490D01*
X139682582Y-105151797D01*
X139687541Y-105165657D01*
X139691118Y-105179936D01*
X139693278Y-105194497D01*
X139694000Y-105209200D01*
X139694000Y-105509200D01*
X139693278Y-105523903D01*
X139691118Y-105538464D01*
X139687541Y-105552743D01*
X139682582Y-105566603D01*
X139676288Y-105579910D01*
X139668720Y-105592536D01*
X139659952Y-105604359D01*
X139650066Y-105615266D01*
X139639159Y-105625152D01*
X139627336Y-105633920D01*
X139614710Y-105641488D01*
X139601403Y-105647782D01*
X139587543Y-105652741D01*
X139573264Y-105656318D01*
X139558703Y-105658478D01*
X139544000Y-105659200D01*
X138244000Y-105659200D01*
X138229297Y-105658478D01*
X138214736Y-105656318D01*
X138200457Y-105652741D01*
X138186597Y-105647782D01*
X138173290Y-105641488D01*
X138160664Y-105633920D01*
X138148841Y-105625152D01*
X138137934Y-105615266D01*
X138128048Y-105604359D01*
X138119280Y-105592536D01*
X138111712Y-105579910D01*
X138105418Y-105566603D01*
X138100459Y-105552743D01*
X138096882Y-105538464D01*
X138094722Y-105523903D01*
X138094000Y-105509200D01*
X138094000Y-105209200D01*
X138094722Y-105194497D01*
X138096882Y-105179936D01*
X138100459Y-105165657D01*
X138105418Y-105151797D01*
X138111712Y-105138490D01*
X138119280Y-105125864D01*
X138128048Y-105114041D01*
X138137934Y-105103134D01*
X138148841Y-105093248D01*
X138160664Y-105084480D01*
X138173290Y-105076912D01*
X138186597Y-105070618D01*
X138200457Y-105065659D01*
X138214736Y-105062082D01*
X138229297Y-105059922D01*
X138244000Y-105059200D01*
X139544000Y-105059200D01*
X139558703Y-105059922D01*
X139558703Y-105059922D01*
G37*
D24*
X138894000Y-105359200D03*
D21*
G36*
X139558703Y-106329922D02*
G01*
X139573264Y-106332082D01*
X139587543Y-106335659D01*
X139601403Y-106340618D01*
X139614710Y-106346912D01*
X139627336Y-106354480D01*
X139639159Y-106363248D01*
X139650066Y-106373134D01*
X139659952Y-106384041D01*
X139668720Y-106395864D01*
X139676288Y-106408490D01*
X139682582Y-106421797D01*
X139687541Y-106435657D01*
X139691118Y-106449936D01*
X139693278Y-106464497D01*
X139694000Y-106479200D01*
X139694000Y-106779200D01*
X139693278Y-106793903D01*
X139691118Y-106808464D01*
X139687541Y-106822743D01*
X139682582Y-106836603D01*
X139676288Y-106849910D01*
X139668720Y-106862536D01*
X139659952Y-106874359D01*
X139650066Y-106885266D01*
X139639159Y-106895152D01*
X139627336Y-106903920D01*
X139614710Y-106911488D01*
X139601403Y-106917782D01*
X139587543Y-106922741D01*
X139573264Y-106926318D01*
X139558703Y-106928478D01*
X139544000Y-106929200D01*
X138244000Y-106929200D01*
X138229297Y-106928478D01*
X138214736Y-106926318D01*
X138200457Y-106922741D01*
X138186597Y-106917782D01*
X138173290Y-106911488D01*
X138160664Y-106903920D01*
X138148841Y-106895152D01*
X138137934Y-106885266D01*
X138128048Y-106874359D01*
X138119280Y-106862536D01*
X138111712Y-106849910D01*
X138105418Y-106836603D01*
X138100459Y-106822743D01*
X138096882Y-106808464D01*
X138094722Y-106793903D01*
X138094000Y-106779200D01*
X138094000Y-106479200D01*
X138094722Y-106464497D01*
X138096882Y-106449936D01*
X138100459Y-106435657D01*
X138105418Y-106421797D01*
X138111712Y-106408490D01*
X138119280Y-106395864D01*
X138128048Y-106384041D01*
X138137934Y-106373134D01*
X138148841Y-106363248D01*
X138160664Y-106354480D01*
X138173290Y-106346912D01*
X138186597Y-106340618D01*
X138200457Y-106335659D01*
X138214736Y-106332082D01*
X138229297Y-106329922D01*
X138244000Y-106329200D01*
X139544000Y-106329200D01*
X139558703Y-106329922D01*
X139558703Y-106329922D01*
G37*
D24*
X138894000Y-106629200D03*
D21*
G36*
X139558703Y-107599922D02*
G01*
X139573264Y-107602082D01*
X139587543Y-107605659D01*
X139601403Y-107610618D01*
X139614710Y-107616912D01*
X139627336Y-107624480D01*
X139639159Y-107633248D01*
X139650066Y-107643134D01*
X139659952Y-107654041D01*
X139668720Y-107665864D01*
X139676288Y-107678490D01*
X139682582Y-107691797D01*
X139687541Y-107705657D01*
X139691118Y-107719936D01*
X139693278Y-107734497D01*
X139694000Y-107749200D01*
X139694000Y-108049200D01*
X139693278Y-108063903D01*
X139691118Y-108078464D01*
X139687541Y-108092743D01*
X139682582Y-108106603D01*
X139676288Y-108119910D01*
X139668720Y-108132536D01*
X139659952Y-108144359D01*
X139650066Y-108155266D01*
X139639159Y-108165152D01*
X139627336Y-108173920D01*
X139614710Y-108181488D01*
X139601403Y-108187782D01*
X139587543Y-108192741D01*
X139573264Y-108196318D01*
X139558703Y-108198478D01*
X139544000Y-108199200D01*
X138244000Y-108199200D01*
X138229297Y-108198478D01*
X138214736Y-108196318D01*
X138200457Y-108192741D01*
X138186597Y-108187782D01*
X138173290Y-108181488D01*
X138160664Y-108173920D01*
X138148841Y-108165152D01*
X138137934Y-108155266D01*
X138128048Y-108144359D01*
X138119280Y-108132536D01*
X138111712Y-108119910D01*
X138105418Y-108106603D01*
X138100459Y-108092743D01*
X138096882Y-108078464D01*
X138094722Y-108063903D01*
X138094000Y-108049200D01*
X138094000Y-107749200D01*
X138094722Y-107734497D01*
X138096882Y-107719936D01*
X138100459Y-107705657D01*
X138105418Y-107691797D01*
X138111712Y-107678490D01*
X138119280Y-107665864D01*
X138128048Y-107654041D01*
X138137934Y-107643134D01*
X138148841Y-107633248D01*
X138160664Y-107624480D01*
X138173290Y-107616912D01*
X138186597Y-107610618D01*
X138200457Y-107605659D01*
X138214736Y-107602082D01*
X138229297Y-107599922D01*
X138244000Y-107599200D01*
X139544000Y-107599200D01*
X139558703Y-107599922D01*
X139558703Y-107599922D01*
G37*
D24*
X138894000Y-107899200D03*
D21*
G36*
X139558703Y-108869922D02*
G01*
X139573264Y-108872082D01*
X139587543Y-108875659D01*
X139601403Y-108880618D01*
X139614710Y-108886912D01*
X139627336Y-108894480D01*
X139639159Y-108903248D01*
X139650066Y-108913134D01*
X139659952Y-108924041D01*
X139668720Y-108935864D01*
X139676288Y-108948490D01*
X139682582Y-108961797D01*
X139687541Y-108975657D01*
X139691118Y-108989936D01*
X139693278Y-109004497D01*
X139694000Y-109019200D01*
X139694000Y-109319200D01*
X139693278Y-109333903D01*
X139691118Y-109348464D01*
X139687541Y-109362743D01*
X139682582Y-109376603D01*
X139676288Y-109389910D01*
X139668720Y-109402536D01*
X139659952Y-109414359D01*
X139650066Y-109425266D01*
X139639159Y-109435152D01*
X139627336Y-109443920D01*
X139614710Y-109451488D01*
X139601403Y-109457782D01*
X139587543Y-109462741D01*
X139573264Y-109466318D01*
X139558703Y-109468478D01*
X139544000Y-109469200D01*
X138244000Y-109469200D01*
X138229297Y-109468478D01*
X138214736Y-109466318D01*
X138200457Y-109462741D01*
X138186597Y-109457782D01*
X138173290Y-109451488D01*
X138160664Y-109443920D01*
X138148841Y-109435152D01*
X138137934Y-109425266D01*
X138128048Y-109414359D01*
X138119280Y-109402536D01*
X138111712Y-109389910D01*
X138105418Y-109376603D01*
X138100459Y-109362743D01*
X138096882Y-109348464D01*
X138094722Y-109333903D01*
X138094000Y-109319200D01*
X138094000Y-109019200D01*
X138094722Y-109004497D01*
X138096882Y-108989936D01*
X138100459Y-108975657D01*
X138105418Y-108961797D01*
X138111712Y-108948490D01*
X138119280Y-108935864D01*
X138128048Y-108924041D01*
X138137934Y-108913134D01*
X138148841Y-108903248D01*
X138160664Y-108894480D01*
X138173290Y-108886912D01*
X138186597Y-108880618D01*
X138200457Y-108875659D01*
X138214736Y-108872082D01*
X138229297Y-108869922D01*
X138244000Y-108869200D01*
X139544000Y-108869200D01*
X139558703Y-108869922D01*
X139558703Y-108869922D01*
G37*
D24*
X138894000Y-109169200D03*
D21*
G36*
X158217499Y-102816594D02*
G01*
X158232060Y-102818754D01*
X158246339Y-102822331D01*
X158260199Y-102827290D01*
X158273506Y-102833584D01*
X158286132Y-102841152D01*
X158297955Y-102849920D01*
X158308862Y-102859806D01*
X158318748Y-102870713D01*
X158327516Y-102882536D01*
X158335084Y-102895162D01*
X158341378Y-102908469D01*
X158346337Y-102922329D01*
X158349914Y-102936608D01*
X158352074Y-102951169D01*
X158352796Y-102965872D01*
X158352796Y-103265872D01*
X158352074Y-103280575D01*
X158349914Y-103295136D01*
X158346337Y-103309415D01*
X158341378Y-103323275D01*
X158335084Y-103336582D01*
X158327516Y-103349208D01*
X158318748Y-103361031D01*
X158308862Y-103371938D01*
X158297955Y-103381824D01*
X158286132Y-103390592D01*
X158273506Y-103398160D01*
X158260199Y-103404454D01*
X158246339Y-103409413D01*
X158232060Y-103412990D01*
X158217499Y-103415150D01*
X158202796Y-103415872D01*
X156552796Y-103415872D01*
X156538093Y-103415150D01*
X156523532Y-103412990D01*
X156509253Y-103409413D01*
X156495393Y-103404454D01*
X156482086Y-103398160D01*
X156469460Y-103390592D01*
X156457637Y-103381824D01*
X156446730Y-103371938D01*
X156436844Y-103361031D01*
X156428076Y-103349208D01*
X156420508Y-103336582D01*
X156414214Y-103323275D01*
X156409255Y-103309415D01*
X156405678Y-103295136D01*
X156403518Y-103280575D01*
X156402796Y-103265872D01*
X156402796Y-102965872D01*
X156403518Y-102951169D01*
X156405678Y-102936608D01*
X156409255Y-102922329D01*
X156414214Y-102908469D01*
X156420508Y-102895162D01*
X156428076Y-102882536D01*
X156436844Y-102870713D01*
X156446730Y-102859806D01*
X156457637Y-102849920D01*
X156469460Y-102841152D01*
X156482086Y-102833584D01*
X156495393Y-102827290D01*
X156509253Y-102822331D01*
X156523532Y-102818754D01*
X156538093Y-102816594D01*
X156552796Y-102815872D01*
X158202796Y-102815872D01*
X158217499Y-102816594D01*
X158217499Y-102816594D01*
G37*
D24*
X157377796Y-103115872D03*
D21*
G36*
X158217499Y-101546594D02*
G01*
X158232060Y-101548754D01*
X158246339Y-101552331D01*
X158260199Y-101557290D01*
X158273506Y-101563584D01*
X158286132Y-101571152D01*
X158297955Y-101579920D01*
X158308862Y-101589806D01*
X158318748Y-101600713D01*
X158327516Y-101612536D01*
X158335084Y-101625162D01*
X158341378Y-101638469D01*
X158346337Y-101652329D01*
X158349914Y-101666608D01*
X158352074Y-101681169D01*
X158352796Y-101695872D01*
X158352796Y-101995872D01*
X158352074Y-102010575D01*
X158349914Y-102025136D01*
X158346337Y-102039415D01*
X158341378Y-102053275D01*
X158335084Y-102066582D01*
X158327516Y-102079208D01*
X158318748Y-102091031D01*
X158308862Y-102101938D01*
X158297955Y-102111824D01*
X158286132Y-102120592D01*
X158273506Y-102128160D01*
X158260199Y-102134454D01*
X158246339Y-102139413D01*
X158232060Y-102142990D01*
X158217499Y-102145150D01*
X158202796Y-102145872D01*
X156552796Y-102145872D01*
X156538093Y-102145150D01*
X156523532Y-102142990D01*
X156509253Y-102139413D01*
X156495393Y-102134454D01*
X156482086Y-102128160D01*
X156469460Y-102120592D01*
X156457637Y-102111824D01*
X156446730Y-102101938D01*
X156436844Y-102091031D01*
X156428076Y-102079208D01*
X156420508Y-102066582D01*
X156414214Y-102053275D01*
X156409255Y-102039415D01*
X156405678Y-102025136D01*
X156403518Y-102010575D01*
X156402796Y-101995872D01*
X156402796Y-101695872D01*
X156403518Y-101681169D01*
X156405678Y-101666608D01*
X156409255Y-101652329D01*
X156414214Y-101638469D01*
X156420508Y-101625162D01*
X156428076Y-101612536D01*
X156436844Y-101600713D01*
X156446730Y-101589806D01*
X156457637Y-101579920D01*
X156469460Y-101571152D01*
X156482086Y-101563584D01*
X156495393Y-101557290D01*
X156509253Y-101552331D01*
X156523532Y-101548754D01*
X156538093Y-101546594D01*
X156552796Y-101545872D01*
X158202796Y-101545872D01*
X158217499Y-101546594D01*
X158217499Y-101546594D01*
G37*
D24*
X157377796Y-101845872D03*
D21*
G36*
X158217499Y-100276594D02*
G01*
X158232060Y-100278754D01*
X158246339Y-100282331D01*
X158260199Y-100287290D01*
X158273506Y-100293584D01*
X158286132Y-100301152D01*
X158297955Y-100309920D01*
X158308862Y-100319806D01*
X158318748Y-100330713D01*
X158327516Y-100342536D01*
X158335084Y-100355162D01*
X158341378Y-100368469D01*
X158346337Y-100382329D01*
X158349914Y-100396608D01*
X158352074Y-100411169D01*
X158352796Y-100425872D01*
X158352796Y-100725872D01*
X158352074Y-100740575D01*
X158349914Y-100755136D01*
X158346337Y-100769415D01*
X158341378Y-100783275D01*
X158335084Y-100796582D01*
X158327516Y-100809208D01*
X158318748Y-100821031D01*
X158308862Y-100831938D01*
X158297955Y-100841824D01*
X158286132Y-100850592D01*
X158273506Y-100858160D01*
X158260199Y-100864454D01*
X158246339Y-100869413D01*
X158232060Y-100872990D01*
X158217499Y-100875150D01*
X158202796Y-100875872D01*
X156552796Y-100875872D01*
X156538093Y-100875150D01*
X156523532Y-100872990D01*
X156509253Y-100869413D01*
X156495393Y-100864454D01*
X156482086Y-100858160D01*
X156469460Y-100850592D01*
X156457637Y-100841824D01*
X156446730Y-100831938D01*
X156436844Y-100821031D01*
X156428076Y-100809208D01*
X156420508Y-100796582D01*
X156414214Y-100783275D01*
X156409255Y-100769415D01*
X156405678Y-100755136D01*
X156403518Y-100740575D01*
X156402796Y-100725872D01*
X156402796Y-100425872D01*
X156403518Y-100411169D01*
X156405678Y-100396608D01*
X156409255Y-100382329D01*
X156414214Y-100368469D01*
X156420508Y-100355162D01*
X156428076Y-100342536D01*
X156436844Y-100330713D01*
X156446730Y-100319806D01*
X156457637Y-100309920D01*
X156469460Y-100301152D01*
X156482086Y-100293584D01*
X156495393Y-100287290D01*
X156509253Y-100282331D01*
X156523532Y-100278754D01*
X156538093Y-100276594D01*
X156552796Y-100275872D01*
X158202796Y-100275872D01*
X158217499Y-100276594D01*
X158217499Y-100276594D01*
G37*
D24*
X157377796Y-100575872D03*
D21*
G36*
X158217499Y-99006594D02*
G01*
X158232060Y-99008754D01*
X158246339Y-99012331D01*
X158260199Y-99017290D01*
X158273506Y-99023584D01*
X158286132Y-99031152D01*
X158297955Y-99039920D01*
X158308862Y-99049806D01*
X158318748Y-99060713D01*
X158327516Y-99072536D01*
X158335084Y-99085162D01*
X158341378Y-99098469D01*
X158346337Y-99112329D01*
X158349914Y-99126608D01*
X158352074Y-99141169D01*
X158352796Y-99155872D01*
X158352796Y-99455872D01*
X158352074Y-99470575D01*
X158349914Y-99485136D01*
X158346337Y-99499415D01*
X158341378Y-99513275D01*
X158335084Y-99526582D01*
X158327516Y-99539208D01*
X158318748Y-99551031D01*
X158308862Y-99561938D01*
X158297955Y-99571824D01*
X158286132Y-99580592D01*
X158273506Y-99588160D01*
X158260199Y-99594454D01*
X158246339Y-99599413D01*
X158232060Y-99602990D01*
X158217499Y-99605150D01*
X158202796Y-99605872D01*
X156552796Y-99605872D01*
X156538093Y-99605150D01*
X156523532Y-99602990D01*
X156509253Y-99599413D01*
X156495393Y-99594454D01*
X156482086Y-99588160D01*
X156469460Y-99580592D01*
X156457637Y-99571824D01*
X156446730Y-99561938D01*
X156436844Y-99551031D01*
X156428076Y-99539208D01*
X156420508Y-99526582D01*
X156414214Y-99513275D01*
X156409255Y-99499415D01*
X156405678Y-99485136D01*
X156403518Y-99470575D01*
X156402796Y-99455872D01*
X156402796Y-99155872D01*
X156403518Y-99141169D01*
X156405678Y-99126608D01*
X156409255Y-99112329D01*
X156414214Y-99098469D01*
X156420508Y-99085162D01*
X156428076Y-99072536D01*
X156436844Y-99060713D01*
X156446730Y-99049806D01*
X156457637Y-99039920D01*
X156469460Y-99031152D01*
X156482086Y-99023584D01*
X156495393Y-99017290D01*
X156509253Y-99012331D01*
X156523532Y-99008754D01*
X156538093Y-99006594D01*
X156552796Y-99005872D01*
X158202796Y-99005872D01*
X158217499Y-99006594D01*
X158217499Y-99006594D01*
G37*
D24*
X157377796Y-99305872D03*
D21*
G36*
X158217499Y-97736594D02*
G01*
X158232060Y-97738754D01*
X158246339Y-97742331D01*
X158260199Y-97747290D01*
X158273506Y-97753584D01*
X158286132Y-97761152D01*
X158297955Y-97769920D01*
X158308862Y-97779806D01*
X158318748Y-97790713D01*
X158327516Y-97802536D01*
X158335084Y-97815162D01*
X158341378Y-97828469D01*
X158346337Y-97842329D01*
X158349914Y-97856608D01*
X158352074Y-97871169D01*
X158352796Y-97885872D01*
X158352796Y-98185872D01*
X158352074Y-98200575D01*
X158349914Y-98215136D01*
X158346337Y-98229415D01*
X158341378Y-98243275D01*
X158335084Y-98256582D01*
X158327516Y-98269208D01*
X158318748Y-98281031D01*
X158308862Y-98291938D01*
X158297955Y-98301824D01*
X158286132Y-98310592D01*
X158273506Y-98318160D01*
X158260199Y-98324454D01*
X158246339Y-98329413D01*
X158232060Y-98332990D01*
X158217499Y-98335150D01*
X158202796Y-98335872D01*
X156552796Y-98335872D01*
X156538093Y-98335150D01*
X156523532Y-98332990D01*
X156509253Y-98329413D01*
X156495393Y-98324454D01*
X156482086Y-98318160D01*
X156469460Y-98310592D01*
X156457637Y-98301824D01*
X156446730Y-98291938D01*
X156436844Y-98281031D01*
X156428076Y-98269208D01*
X156420508Y-98256582D01*
X156414214Y-98243275D01*
X156409255Y-98229415D01*
X156405678Y-98215136D01*
X156403518Y-98200575D01*
X156402796Y-98185872D01*
X156402796Y-97885872D01*
X156403518Y-97871169D01*
X156405678Y-97856608D01*
X156409255Y-97842329D01*
X156414214Y-97828469D01*
X156420508Y-97815162D01*
X156428076Y-97802536D01*
X156436844Y-97790713D01*
X156446730Y-97779806D01*
X156457637Y-97769920D01*
X156469460Y-97761152D01*
X156482086Y-97753584D01*
X156495393Y-97747290D01*
X156509253Y-97742331D01*
X156523532Y-97738754D01*
X156538093Y-97736594D01*
X156552796Y-97735872D01*
X158202796Y-97735872D01*
X158217499Y-97736594D01*
X158217499Y-97736594D01*
G37*
D24*
X157377796Y-98035872D03*
D21*
G36*
X158217499Y-96466594D02*
G01*
X158232060Y-96468754D01*
X158246339Y-96472331D01*
X158260199Y-96477290D01*
X158273506Y-96483584D01*
X158286132Y-96491152D01*
X158297955Y-96499920D01*
X158308862Y-96509806D01*
X158318748Y-96520713D01*
X158327516Y-96532536D01*
X158335084Y-96545162D01*
X158341378Y-96558469D01*
X158346337Y-96572329D01*
X158349914Y-96586608D01*
X158352074Y-96601169D01*
X158352796Y-96615872D01*
X158352796Y-96915872D01*
X158352074Y-96930575D01*
X158349914Y-96945136D01*
X158346337Y-96959415D01*
X158341378Y-96973275D01*
X158335084Y-96986582D01*
X158327516Y-96999208D01*
X158318748Y-97011031D01*
X158308862Y-97021938D01*
X158297955Y-97031824D01*
X158286132Y-97040592D01*
X158273506Y-97048160D01*
X158260199Y-97054454D01*
X158246339Y-97059413D01*
X158232060Y-97062990D01*
X158217499Y-97065150D01*
X158202796Y-97065872D01*
X156552796Y-97065872D01*
X156538093Y-97065150D01*
X156523532Y-97062990D01*
X156509253Y-97059413D01*
X156495393Y-97054454D01*
X156482086Y-97048160D01*
X156469460Y-97040592D01*
X156457637Y-97031824D01*
X156446730Y-97021938D01*
X156436844Y-97011031D01*
X156428076Y-96999208D01*
X156420508Y-96986582D01*
X156414214Y-96973275D01*
X156409255Y-96959415D01*
X156405678Y-96945136D01*
X156403518Y-96930575D01*
X156402796Y-96915872D01*
X156402796Y-96615872D01*
X156403518Y-96601169D01*
X156405678Y-96586608D01*
X156409255Y-96572329D01*
X156414214Y-96558469D01*
X156420508Y-96545162D01*
X156428076Y-96532536D01*
X156436844Y-96520713D01*
X156446730Y-96509806D01*
X156457637Y-96499920D01*
X156469460Y-96491152D01*
X156482086Y-96483584D01*
X156495393Y-96477290D01*
X156509253Y-96472331D01*
X156523532Y-96468754D01*
X156538093Y-96466594D01*
X156552796Y-96465872D01*
X158202796Y-96465872D01*
X158217499Y-96466594D01*
X158217499Y-96466594D01*
G37*
D24*
X157377796Y-96765872D03*
D21*
G36*
X158217499Y-95196594D02*
G01*
X158232060Y-95198754D01*
X158246339Y-95202331D01*
X158260199Y-95207290D01*
X158273506Y-95213584D01*
X158286132Y-95221152D01*
X158297955Y-95229920D01*
X158308862Y-95239806D01*
X158318748Y-95250713D01*
X158327516Y-95262536D01*
X158335084Y-95275162D01*
X158341378Y-95288469D01*
X158346337Y-95302329D01*
X158349914Y-95316608D01*
X158352074Y-95331169D01*
X158352796Y-95345872D01*
X158352796Y-95645872D01*
X158352074Y-95660575D01*
X158349914Y-95675136D01*
X158346337Y-95689415D01*
X158341378Y-95703275D01*
X158335084Y-95716582D01*
X158327516Y-95729208D01*
X158318748Y-95741031D01*
X158308862Y-95751938D01*
X158297955Y-95761824D01*
X158286132Y-95770592D01*
X158273506Y-95778160D01*
X158260199Y-95784454D01*
X158246339Y-95789413D01*
X158232060Y-95792990D01*
X158217499Y-95795150D01*
X158202796Y-95795872D01*
X156552796Y-95795872D01*
X156538093Y-95795150D01*
X156523532Y-95792990D01*
X156509253Y-95789413D01*
X156495393Y-95784454D01*
X156482086Y-95778160D01*
X156469460Y-95770592D01*
X156457637Y-95761824D01*
X156446730Y-95751938D01*
X156436844Y-95741031D01*
X156428076Y-95729208D01*
X156420508Y-95716582D01*
X156414214Y-95703275D01*
X156409255Y-95689415D01*
X156405678Y-95675136D01*
X156403518Y-95660575D01*
X156402796Y-95645872D01*
X156402796Y-95345872D01*
X156403518Y-95331169D01*
X156405678Y-95316608D01*
X156409255Y-95302329D01*
X156414214Y-95288469D01*
X156420508Y-95275162D01*
X156428076Y-95262536D01*
X156436844Y-95250713D01*
X156446730Y-95239806D01*
X156457637Y-95229920D01*
X156469460Y-95221152D01*
X156482086Y-95213584D01*
X156495393Y-95207290D01*
X156509253Y-95202331D01*
X156523532Y-95198754D01*
X156538093Y-95196594D01*
X156552796Y-95195872D01*
X158202796Y-95195872D01*
X158217499Y-95196594D01*
X158217499Y-95196594D01*
G37*
D24*
X157377796Y-95495872D03*
D21*
G36*
X163167499Y-95196594D02*
G01*
X163182060Y-95198754D01*
X163196339Y-95202331D01*
X163210199Y-95207290D01*
X163223506Y-95213584D01*
X163236132Y-95221152D01*
X163247955Y-95229920D01*
X163258862Y-95239806D01*
X163268748Y-95250713D01*
X163277516Y-95262536D01*
X163285084Y-95275162D01*
X163291378Y-95288469D01*
X163296337Y-95302329D01*
X163299914Y-95316608D01*
X163302074Y-95331169D01*
X163302796Y-95345872D01*
X163302796Y-95645872D01*
X163302074Y-95660575D01*
X163299914Y-95675136D01*
X163296337Y-95689415D01*
X163291378Y-95703275D01*
X163285084Y-95716582D01*
X163277516Y-95729208D01*
X163268748Y-95741031D01*
X163258862Y-95751938D01*
X163247955Y-95761824D01*
X163236132Y-95770592D01*
X163223506Y-95778160D01*
X163210199Y-95784454D01*
X163196339Y-95789413D01*
X163182060Y-95792990D01*
X163167499Y-95795150D01*
X163152796Y-95795872D01*
X161502796Y-95795872D01*
X161488093Y-95795150D01*
X161473532Y-95792990D01*
X161459253Y-95789413D01*
X161445393Y-95784454D01*
X161432086Y-95778160D01*
X161419460Y-95770592D01*
X161407637Y-95761824D01*
X161396730Y-95751938D01*
X161386844Y-95741031D01*
X161378076Y-95729208D01*
X161370508Y-95716582D01*
X161364214Y-95703275D01*
X161359255Y-95689415D01*
X161355678Y-95675136D01*
X161353518Y-95660575D01*
X161352796Y-95645872D01*
X161352796Y-95345872D01*
X161353518Y-95331169D01*
X161355678Y-95316608D01*
X161359255Y-95302329D01*
X161364214Y-95288469D01*
X161370508Y-95275162D01*
X161378076Y-95262536D01*
X161386844Y-95250713D01*
X161396730Y-95239806D01*
X161407637Y-95229920D01*
X161419460Y-95221152D01*
X161432086Y-95213584D01*
X161445393Y-95207290D01*
X161459253Y-95202331D01*
X161473532Y-95198754D01*
X161488093Y-95196594D01*
X161502796Y-95195872D01*
X163152796Y-95195872D01*
X163167499Y-95196594D01*
X163167499Y-95196594D01*
G37*
D24*
X162327796Y-95495872D03*
D21*
G36*
X163167499Y-96466594D02*
G01*
X163182060Y-96468754D01*
X163196339Y-96472331D01*
X163210199Y-96477290D01*
X163223506Y-96483584D01*
X163236132Y-96491152D01*
X163247955Y-96499920D01*
X163258862Y-96509806D01*
X163268748Y-96520713D01*
X163277516Y-96532536D01*
X163285084Y-96545162D01*
X163291378Y-96558469D01*
X163296337Y-96572329D01*
X163299914Y-96586608D01*
X163302074Y-96601169D01*
X163302796Y-96615872D01*
X163302796Y-96915872D01*
X163302074Y-96930575D01*
X163299914Y-96945136D01*
X163296337Y-96959415D01*
X163291378Y-96973275D01*
X163285084Y-96986582D01*
X163277516Y-96999208D01*
X163268748Y-97011031D01*
X163258862Y-97021938D01*
X163247955Y-97031824D01*
X163236132Y-97040592D01*
X163223506Y-97048160D01*
X163210199Y-97054454D01*
X163196339Y-97059413D01*
X163182060Y-97062990D01*
X163167499Y-97065150D01*
X163152796Y-97065872D01*
X161502796Y-97065872D01*
X161488093Y-97065150D01*
X161473532Y-97062990D01*
X161459253Y-97059413D01*
X161445393Y-97054454D01*
X161432086Y-97048160D01*
X161419460Y-97040592D01*
X161407637Y-97031824D01*
X161396730Y-97021938D01*
X161386844Y-97011031D01*
X161378076Y-96999208D01*
X161370508Y-96986582D01*
X161364214Y-96973275D01*
X161359255Y-96959415D01*
X161355678Y-96945136D01*
X161353518Y-96930575D01*
X161352796Y-96915872D01*
X161352796Y-96615872D01*
X161353518Y-96601169D01*
X161355678Y-96586608D01*
X161359255Y-96572329D01*
X161364214Y-96558469D01*
X161370508Y-96545162D01*
X161378076Y-96532536D01*
X161386844Y-96520713D01*
X161396730Y-96509806D01*
X161407637Y-96499920D01*
X161419460Y-96491152D01*
X161432086Y-96483584D01*
X161445393Y-96477290D01*
X161459253Y-96472331D01*
X161473532Y-96468754D01*
X161488093Y-96466594D01*
X161502796Y-96465872D01*
X163152796Y-96465872D01*
X163167499Y-96466594D01*
X163167499Y-96466594D01*
G37*
D24*
X162327796Y-96765872D03*
D21*
G36*
X163167499Y-97736594D02*
G01*
X163182060Y-97738754D01*
X163196339Y-97742331D01*
X163210199Y-97747290D01*
X163223506Y-97753584D01*
X163236132Y-97761152D01*
X163247955Y-97769920D01*
X163258862Y-97779806D01*
X163268748Y-97790713D01*
X163277516Y-97802536D01*
X163285084Y-97815162D01*
X163291378Y-97828469D01*
X163296337Y-97842329D01*
X163299914Y-97856608D01*
X163302074Y-97871169D01*
X163302796Y-97885872D01*
X163302796Y-98185872D01*
X163302074Y-98200575D01*
X163299914Y-98215136D01*
X163296337Y-98229415D01*
X163291378Y-98243275D01*
X163285084Y-98256582D01*
X163277516Y-98269208D01*
X163268748Y-98281031D01*
X163258862Y-98291938D01*
X163247955Y-98301824D01*
X163236132Y-98310592D01*
X163223506Y-98318160D01*
X163210199Y-98324454D01*
X163196339Y-98329413D01*
X163182060Y-98332990D01*
X163167499Y-98335150D01*
X163152796Y-98335872D01*
X161502796Y-98335872D01*
X161488093Y-98335150D01*
X161473532Y-98332990D01*
X161459253Y-98329413D01*
X161445393Y-98324454D01*
X161432086Y-98318160D01*
X161419460Y-98310592D01*
X161407637Y-98301824D01*
X161396730Y-98291938D01*
X161386844Y-98281031D01*
X161378076Y-98269208D01*
X161370508Y-98256582D01*
X161364214Y-98243275D01*
X161359255Y-98229415D01*
X161355678Y-98215136D01*
X161353518Y-98200575D01*
X161352796Y-98185872D01*
X161352796Y-97885872D01*
X161353518Y-97871169D01*
X161355678Y-97856608D01*
X161359255Y-97842329D01*
X161364214Y-97828469D01*
X161370508Y-97815162D01*
X161378076Y-97802536D01*
X161386844Y-97790713D01*
X161396730Y-97779806D01*
X161407637Y-97769920D01*
X161419460Y-97761152D01*
X161432086Y-97753584D01*
X161445393Y-97747290D01*
X161459253Y-97742331D01*
X161473532Y-97738754D01*
X161488093Y-97736594D01*
X161502796Y-97735872D01*
X163152796Y-97735872D01*
X163167499Y-97736594D01*
X163167499Y-97736594D01*
G37*
D24*
X162327796Y-98035872D03*
D21*
G36*
X163167499Y-99006594D02*
G01*
X163182060Y-99008754D01*
X163196339Y-99012331D01*
X163210199Y-99017290D01*
X163223506Y-99023584D01*
X163236132Y-99031152D01*
X163247955Y-99039920D01*
X163258862Y-99049806D01*
X163268748Y-99060713D01*
X163277516Y-99072536D01*
X163285084Y-99085162D01*
X163291378Y-99098469D01*
X163296337Y-99112329D01*
X163299914Y-99126608D01*
X163302074Y-99141169D01*
X163302796Y-99155872D01*
X163302796Y-99455872D01*
X163302074Y-99470575D01*
X163299914Y-99485136D01*
X163296337Y-99499415D01*
X163291378Y-99513275D01*
X163285084Y-99526582D01*
X163277516Y-99539208D01*
X163268748Y-99551031D01*
X163258862Y-99561938D01*
X163247955Y-99571824D01*
X163236132Y-99580592D01*
X163223506Y-99588160D01*
X163210199Y-99594454D01*
X163196339Y-99599413D01*
X163182060Y-99602990D01*
X163167499Y-99605150D01*
X163152796Y-99605872D01*
X161502796Y-99605872D01*
X161488093Y-99605150D01*
X161473532Y-99602990D01*
X161459253Y-99599413D01*
X161445393Y-99594454D01*
X161432086Y-99588160D01*
X161419460Y-99580592D01*
X161407637Y-99571824D01*
X161396730Y-99561938D01*
X161386844Y-99551031D01*
X161378076Y-99539208D01*
X161370508Y-99526582D01*
X161364214Y-99513275D01*
X161359255Y-99499415D01*
X161355678Y-99485136D01*
X161353518Y-99470575D01*
X161352796Y-99455872D01*
X161352796Y-99155872D01*
X161353518Y-99141169D01*
X161355678Y-99126608D01*
X161359255Y-99112329D01*
X161364214Y-99098469D01*
X161370508Y-99085162D01*
X161378076Y-99072536D01*
X161386844Y-99060713D01*
X161396730Y-99049806D01*
X161407637Y-99039920D01*
X161419460Y-99031152D01*
X161432086Y-99023584D01*
X161445393Y-99017290D01*
X161459253Y-99012331D01*
X161473532Y-99008754D01*
X161488093Y-99006594D01*
X161502796Y-99005872D01*
X163152796Y-99005872D01*
X163167499Y-99006594D01*
X163167499Y-99006594D01*
G37*
D24*
X162327796Y-99305872D03*
D21*
G36*
X163167499Y-100276594D02*
G01*
X163182060Y-100278754D01*
X163196339Y-100282331D01*
X163210199Y-100287290D01*
X163223506Y-100293584D01*
X163236132Y-100301152D01*
X163247955Y-100309920D01*
X163258862Y-100319806D01*
X163268748Y-100330713D01*
X163277516Y-100342536D01*
X163285084Y-100355162D01*
X163291378Y-100368469D01*
X163296337Y-100382329D01*
X163299914Y-100396608D01*
X163302074Y-100411169D01*
X163302796Y-100425872D01*
X163302796Y-100725872D01*
X163302074Y-100740575D01*
X163299914Y-100755136D01*
X163296337Y-100769415D01*
X163291378Y-100783275D01*
X163285084Y-100796582D01*
X163277516Y-100809208D01*
X163268748Y-100821031D01*
X163258862Y-100831938D01*
X163247955Y-100841824D01*
X163236132Y-100850592D01*
X163223506Y-100858160D01*
X163210199Y-100864454D01*
X163196339Y-100869413D01*
X163182060Y-100872990D01*
X163167499Y-100875150D01*
X163152796Y-100875872D01*
X161502796Y-100875872D01*
X161488093Y-100875150D01*
X161473532Y-100872990D01*
X161459253Y-100869413D01*
X161445393Y-100864454D01*
X161432086Y-100858160D01*
X161419460Y-100850592D01*
X161407637Y-100841824D01*
X161396730Y-100831938D01*
X161386844Y-100821031D01*
X161378076Y-100809208D01*
X161370508Y-100796582D01*
X161364214Y-100783275D01*
X161359255Y-100769415D01*
X161355678Y-100755136D01*
X161353518Y-100740575D01*
X161352796Y-100725872D01*
X161352796Y-100425872D01*
X161353518Y-100411169D01*
X161355678Y-100396608D01*
X161359255Y-100382329D01*
X161364214Y-100368469D01*
X161370508Y-100355162D01*
X161378076Y-100342536D01*
X161386844Y-100330713D01*
X161396730Y-100319806D01*
X161407637Y-100309920D01*
X161419460Y-100301152D01*
X161432086Y-100293584D01*
X161445393Y-100287290D01*
X161459253Y-100282331D01*
X161473532Y-100278754D01*
X161488093Y-100276594D01*
X161502796Y-100275872D01*
X163152796Y-100275872D01*
X163167499Y-100276594D01*
X163167499Y-100276594D01*
G37*
D24*
X162327796Y-100575872D03*
D21*
G36*
X163167499Y-101546594D02*
G01*
X163182060Y-101548754D01*
X163196339Y-101552331D01*
X163210199Y-101557290D01*
X163223506Y-101563584D01*
X163236132Y-101571152D01*
X163247955Y-101579920D01*
X163258862Y-101589806D01*
X163268748Y-101600713D01*
X163277516Y-101612536D01*
X163285084Y-101625162D01*
X163291378Y-101638469D01*
X163296337Y-101652329D01*
X163299914Y-101666608D01*
X163302074Y-101681169D01*
X163302796Y-101695872D01*
X163302796Y-101995872D01*
X163302074Y-102010575D01*
X163299914Y-102025136D01*
X163296337Y-102039415D01*
X163291378Y-102053275D01*
X163285084Y-102066582D01*
X163277516Y-102079208D01*
X163268748Y-102091031D01*
X163258862Y-102101938D01*
X163247955Y-102111824D01*
X163236132Y-102120592D01*
X163223506Y-102128160D01*
X163210199Y-102134454D01*
X163196339Y-102139413D01*
X163182060Y-102142990D01*
X163167499Y-102145150D01*
X163152796Y-102145872D01*
X161502796Y-102145872D01*
X161488093Y-102145150D01*
X161473532Y-102142990D01*
X161459253Y-102139413D01*
X161445393Y-102134454D01*
X161432086Y-102128160D01*
X161419460Y-102120592D01*
X161407637Y-102111824D01*
X161396730Y-102101938D01*
X161386844Y-102091031D01*
X161378076Y-102079208D01*
X161370508Y-102066582D01*
X161364214Y-102053275D01*
X161359255Y-102039415D01*
X161355678Y-102025136D01*
X161353518Y-102010575D01*
X161352796Y-101995872D01*
X161352796Y-101695872D01*
X161353518Y-101681169D01*
X161355678Y-101666608D01*
X161359255Y-101652329D01*
X161364214Y-101638469D01*
X161370508Y-101625162D01*
X161378076Y-101612536D01*
X161386844Y-101600713D01*
X161396730Y-101589806D01*
X161407637Y-101579920D01*
X161419460Y-101571152D01*
X161432086Y-101563584D01*
X161445393Y-101557290D01*
X161459253Y-101552331D01*
X161473532Y-101548754D01*
X161488093Y-101546594D01*
X161502796Y-101545872D01*
X163152796Y-101545872D01*
X163167499Y-101546594D01*
X163167499Y-101546594D01*
G37*
D24*
X162327796Y-101845872D03*
D21*
G36*
X163167499Y-102816594D02*
G01*
X163182060Y-102818754D01*
X163196339Y-102822331D01*
X163210199Y-102827290D01*
X163223506Y-102833584D01*
X163236132Y-102841152D01*
X163247955Y-102849920D01*
X163258862Y-102859806D01*
X163268748Y-102870713D01*
X163277516Y-102882536D01*
X163285084Y-102895162D01*
X163291378Y-102908469D01*
X163296337Y-102922329D01*
X163299914Y-102936608D01*
X163302074Y-102951169D01*
X163302796Y-102965872D01*
X163302796Y-103265872D01*
X163302074Y-103280575D01*
X163299914Y-103295136D01*
X163296337Y-103309415D01*
X163291378Y-103323275D01*
X163285084Y-103336582D01*
X163277516Y-103349208D01*
X163268748Y-103361031D01*
X163258862Y-103371938D01*
X163247955Y-103381824D01*
X163236132Y-103390592D01*
X163223506Y-103398160D01*
X163210199Y-103404454D01*
X163196339Y-103409413D01*
X163182060Y-103412990D01*
X163167499Y-103415150D01*
X163152796Y-103415872D01*
X161502796Y-103415872D01*
X161488093Y-103415150D01*
X161473532Y-103412990D01*
X161459253Y-103409413D01*
X161445393Y-103404454D01*
X161432086Y-103398160D01*
X161419460Y-103390592D01*
X161407637Y-103381824D01*
X161396730Y-103371938D01*
X161386844Y-103361031D01*
X161378076Y-103349208D01*
X161370508Y-103336582D01*
X161364214Y-103323275D01*
X161359255Y-103309415D01*
X161355678Y-103295136D01*
X161353518Y-103280575D01*
X161352796Y-103265872D01*
X161352796Y-102965872D01*
X161353518Y-102951169D01*
X161355678Y-102936608D01*
X161359255Y-102922329D01*
X161364214Y-102908469D01*
X161370508Y-102895162D01*
X161378076Y-102882536D01*
X161386844Y-102870713D01*
X161396730Y-102859806D01*
X161407637Y-102849920D01*
X161419460Y-102841152D01*
X161432086Y-102833584D01*
X161445393Y-102827290D01*
X161459253Y-102822331D01*
X161473532Y-102818754D01*
X161488093Y-102816594D01*
X161502796Y-102815872D01*
X163152796Y-102815872D01*
X163167499Y-102816594D01*
X163167499Y-102816594D01*
G37*
D24*
X162327796Y-103115872D03*
D21*
G36*
X141099505Y-78301204D02*
G01*
X141123773Y-78304804D01*
X141147572Y-78310765D01*
X141170671Y-78319030D01*
X141192850Y-78329520D01*
X141213893Y-78342132D01*
X141233599Y-78356747D01*
X141251777Y-78373223D01*
X141268253Y-78391401D01*
X141282868Y-78411107D01*
X141295480Y-78432150D01*
X141305970Y-78454329D01*
X141314235Y-78477428D01*
X141320196Y-78501227D01*
X141323796Y-78525495D01*
X141325000Y-78549999D01*
X141325000Y-79450001D01*
X141323796Y-79474505D01*
X141320196Y-79498773D01*
X141314235Y-79522572D01*
X141305970Y-79545671D01*
X141295480Y-79567850D01*
X141282868Y-79588893D01*
X141268253Y-79608599D01*
X141251777Y-79626777D01*
X141233599Y-79643253D01*
X141213893Y-79657868D01*
X141192850Y-79670480D01*
X141170671Y-79680970D01*
X141147572Y-79689235D01*
X141123773Y-79695196D01*
X141099505Y-79698796D01*
X141075001Y-79700000D01*
X140424999Y-79700000D01*
X140400495Y-79698796D01*
X140376227Y-79695196D01*
X140352428Y-79689235D01*
X140329329Y-79680970D01*
X140307150Y-79670480D01*
X140286107Y-79657868D01*
X140266401Y-79643253D01*
X140248223Y-79626777D01*
X140231747Y-79608599D01*
X140217132Y-79588893D01*
X140204520Y-79567850D01*
X140194030Y-79545671D01*
X140185765Y-79522572D01*
X140179804Y-79498773D01*
X140176204Y-79474505D01*
X140175000Y-79450001D01*
X140175000Y-78549999D01*
X140176204Y-78525495D01*
X140179804Y-78501227D01*
X140185765Y-78477428D01*
X140194030Y-78454329D01*
X140204520Y-78432150D01*
X140217132Y-78411107D01*
X140231747Y-78391401D01*
X140248223Y-78373223D01*
X140266401Y-78356747D01*
X140286107Y-78342132D01*
X140307150Y-78329520D01*
X140329329Y-78319030D01*
X140352428Y-78310765D01*
X140376227Y-78304804D01*
X140400495Y-78301204D01*
X140424999Y-78300000D01*
X141075001Y-78300000D01*
X141099505Y-78301204D01*
X141099505Y-78301204D01*
G37*
D22*
X140750000Y-79000000D03*
D21*
G36*
X143149505Y-78301204D02*
G01*
X143173773Y-78304804D01*
X143197572Y-78310765D01*
X143220671Y-78319030D01*
X143242850Y-78329520D01*
X143263893Y-78342132D01*
X143283599Y-78356747D01*
X143301777Y-78373223D01*
X143318253Y-78391401D01*
X143332868Y-78411107D01*
X143345480Y-78432150D01*
X143355970Y-78454329D01*
X143364235Y-78477428D01*
X143370196Y-78501227D01*
X143373796Y-78525495D01*
X143375000Y-78549999D01*
X143375000Y-79450001D01*
X143373796Y-79474505D01*
X143370196Y-79498773D01*
X143364235Y-79522572D01*
X143355970Y-79545671D01*
X143345480Y-79567850D01*
X143332868Y-79588893D01*
X143318253Y-79608599D01*
X143301777Y-79626777D01*
X143283599Y-79643253D01*
X143263893Y-79657868D01*
X143242850Y-79670480D01*
X143220671Y-79680970D01*
X143197572Y-79689235D01*
X143173773Y-79695196D01*
X143149505Y-79698796D01*
X143125001Y-79700000D01*
X142474999Y-79700000D01*
X142450495Y-79698796D01*
X142426227Y-79695196D01*
X142402428Y-79689235D01*
X142379329Y-79680970D01*
X142357150Y-79670480D01*
X142336107Y-79657868D01*
X142316401Y-79643253D01*
X142298223Y-79626777D01*
X142281747Y-79608599D01*
X142267132Y-79588893D01*
X142254520Y-79567850D01*
X142244030Y-79545671D01*
X142235765Y-79522572D01*
X142229804Y-79498773D01*
X142226204Y-79474505D01*
X142225000Y-79450001D01*
X142225000Y-78549999D01*
X142226204Y-78525495D01*
X142229804Y-78501227D01*
X142235765Y-78477428D01*
X142244030Y-78454329D01*
X142254520Y-78432150D01*
X142267132Y-78411107D01*
X142281747Y-78391401D01*
X142298223Y-78373223D01*
X142316401Y-78356747D01*
X142336107Y-78342132D01*
X142357150Y-78329520D01*
X142379329Y-78319030D01*
X142402428Y-78310765D01*
X142426227Y-78304804D01*
X142450495Y-78301204D01*
X142474999Y-78300000D01*
X143125001Y-78300000D01*
X143149505Y-78301204D01*
X143149505Y-78301204D01*
G37*
D22*
X142800000Y-79000000D03*
D25*
X123200000Y-93100000D03*
X147500000Y-75000000D03*
D26*
X157298774Y-104778426D03*
D25*
X134800000Y-75100000D03*
X118700000Y-72200000D03*
X124700000Y-72200000D03*
X130700000Y-72200000D03*
X139700000Y-72200000D03*
X139200000Y-74279000D03*
X148700000Y-72300000D03*
X154700000Y-72200000D03*
X163800000Y-77000000D03*
X163600000Y-89000000D03*
X163600000Y-83000000D03*
X160700000Y-72200000D03*
X160096200Y-89396196D03*
D26*
X130340100Y-122770900D03*
D25*
X120662700Y-108470700D03*
D26*
X126111000Y-101300000D03*
X149301200Y-103022400D03*
X142616251Y-97540749D03*
X147375000Y-79675000D03*
X126111000Y-99589000D03*
D25*
X125500000Y-87900000D03*
D26*
X156200000Y-106200000D03*
X153068190Y-71231810D03*
X158968190Y-71231810D03*
X164756801Y-75743199D03*
X164756801Y-81443199D03*
X164756801Y-87443199D03*
X164750000Y-93050000D03*
X164000000Y-104600000D03*
D25*
X162327796Y-94027796D03*
D26*
X146359251Y-97540749D03*
X144359251Y-97540749D03*
X153162000Y-115849400D03*
X150600000Y-119900000D03*
X154813000Y-99085400D03*
X151600008Y-119600008D03*
X154228800Y-118771200D03*
X127203200Y-101650800D03*
X128099994Y-94792800D03*
X128900000Y-109400000D03*
X124968000Y-114604800D03*
X135280390Y-100585307D03*
X131445000Y-117500400D03*
X131445000Y-116509318D03*
X131445000Y-115544125D03*
X131445000Y-114579413D03*
X131445000Y-113614200D03*
X147954999Y-83454991D03*
X151363066Y-100041126D03*
X148767800Y-108483400D03*
D25*
X139039600Y-97866200D03*
X146275752Y-100434448D03*
X141198600Y-94056200D03*
X139039600Y-95097600D03*
X146278600Y-94056200D03*
X133000000Y-90400000D03*
D26*
X142544800Y-107543600D03*
X143383000Y-106705400D03*
X144145000Y-108940600D03*
X147726400Y-108839000D03*
X151389099Y-101020897D03*
X149000000Y-85100000D03*
X151358600Y-102057200D03*
X149000000Y-84000000D03*
X134493000Y-102057200D03*
X138134089Y-102920203D03*
X126900000Y-94500000D03*
X135100000Y-88400000D03*
X157000000Y-94300000D03*
X153238223Y-103377977D03*
X152984200Y-105283000D03*
X148219204Y-112344796D03*
X149199600Y-111836200D03*
X149174200Y-114401600D03*
X148500000Y-122300000D03*
X154811862Y-100963860D03*
X154228810Y-103301800D03*
X149606000Y-118313200D03*
X142430838Y-88204463D03*
X148869400Y-119202200D03*
X141300023Y-88200009D03*
X131749790Y-107300000D03*
X135799994Y-110100000D03*
X131900000Y-108300012D03*
X136600006Y-116800006D03*
X131500000Y-109200000D03*
X135600000Y-116399996D03*
X147773186Y-102344794D03*
X129705491Y-110005491D03*
X129900000Y-107000000D03*
X128778000Y-118422002D03*
X126466600Y-116205000D03*
X138691598Y-100204548D03*
X125704600Y-115366800D03*
X135700000Y-101500010D03*
X134000000Y-92100000D03*
X128186807Y-96113917D03*
X134906970Y-91686761D03*
X128731194Y-97231200D03*
D27*
X140787131Y-101040157D03*
X136357292Y-85625568D03*
X140901096Y-101889539D03*
X136400012Y-84600000D03*
D26*
X135799988Y-108500000D03*
X154300000Y-97200000D03*
X161200000Y-93900000D03*
X159000000Y-93900000D03*
X153499994Y-96700000D03*
X161100000Y-92900000D03*
X159000006Y-92900000D03*
X142400000Y-87200000D03*
D28*
X157377796Y-104699404D02*
X157298774Y-104778426D01*
X157377796Y-103115872D02*
X157377796Y-104699404D01*
X157298774Y-105317241D02*
X157298774Y-104778426D01*
X157298774Y-120398774D02*
X157298774Y-105317241D01*
X159000000Y-122100000D02*
X157298774Y-120398774D01*
X159950000Y-122100000D02*
X159000000Y-122100000D01*
X123200000Y-86700000D02*
X123200000Y-93100000D01*
X134800000Y-75100000D02*
X123200000Y-86700000D01*
D29*
X118790000Y-72110000D02*
X118700000Y-72200000D01*
X119850000Y-72110000D02*
X118790000Y-72110000D01*
X125850000Y-72110000D02*
X124690000Y-72110000D01*
X124700000Y-72120000D02*
X124700000Y-72200000D01*
X124690000Y-72110000D02*
X124700000Y-72120000D01*
X130790000Y-72110000D02*
X130700000Y-72200000D01*
X131850000Y-72110000D02*
X130790000Y-72110000D01*
X139790000Y-72110000D02*
X139700000Y-72200000D01*
X140850000Y-72110000D02*
X139790000Y-72110000D01*
D28*
X135299999Y-74600001D02*
X134800000Y-75100000D01*
X146700000Y-74200000D02*
X144300000Y-74200000D01*
X140200000Y-75200000D02*
X139200000Y-74200000D01*
X135700000Y-74200000D02*
X135299999Y-74600001D01*
X147500000Y-75000000D02*
X146700000Y-74200000D01*
X144300000Y-74200000D02*
X143300000Y-75200000D01*
X143300000Y-75200000D02*
X140200000Y-75200000D01*
X139200000Y-74200000D02*
X135700000Y-74200000D01*
D29*
X148890000Y-72110000D02*
X148700000Y-72300000D01*
X149850000Y-72110000D02*
X148890000Y-72110000D01*
X154790000Y-72110000D02*
X154700000Y-72200000D01*
X155850000Y-72110000D02*
X154790000Y-72110000D01*
X163590000Y-78150000D02*
X163590000Y-77210000D01*
X163590000Y-90150000D02*
X163590000Y-89010000D01*
X161850000Y-72110000D02*
X160790000Y-72110000D01*
X163590000Y-77210000D02*
X163800000Y-77000000D01*
X160790000Y-72110000D02*
X160700000Y-72200000D01*
X163590000Y-89010000D02*
X163600000Y-89000000D01*
X163590000Y-84150000D02*
X163590000Y-83010000D01*
X163590000Y-83010000D02*
X163600000Y-83000000D01*
D28*
X147500000Y-75000000D02*
X158100000Y-75000000D01*
X158100000Y-104800000D02*
X157320348Y-104800000D01*
X157320348Y-104800000D02*
X157298774Y-104778426D01*
X160096200Y-102803800D02*
X158100000Y-104800000D01*
X158100000Y-75000000D02*
X160096200Y-76996200D01*
X160096200Y-76996200D02*
X160096200Y-102803800D01*
X142616251Y-97540749D02*
X142967600Y-97892098D01*
X142967600Y-97892098D02*
X142967600Y-100152200D01*
D29*
X146203728Y-105359200D02*
X147320000Y-105359200D01*
X146094000Y-105249472D02*
X146203728Y-105359200D01*
X147320000Y-105359200D02*
X147650201Y-105028999D01*
X147650201Y-105028999D02*
X148767800Y-105028999D01*
D28*
X130340100Y-122770900D02*
X130340100Y-130517169D01*
X130340100Y-130517169D02*
X130258396Y-130598873D01*
D29*
X149301200Y-103022400D02*
X149301200Y-104495599D01*
X149301200Y-104495599D02*
X148767800Y-105028999D01*
D28*
X140639800Y-98434000D02*
X141723000Y-98434000D01*
X141723000Y-98434000D02*
X142616251Y-97540749D01*
D29*
X130258396Y-127042872D02*
X130258396Y-130598873D01*
D28*
X142616251Y-97540749D02*
X142616251Y-95779149D01*
X142616251Y-95779149D02*
X142866000Y-95529400D01*
D29*
X147375000Y-79675000D02*
X147375000Y-78875000D01*
D30*
X147375000Y-78875000D02*
X146020000Y-77520000D01*
D28*
X121162699Y-107970701D02*
X120662700Y-108470700D01*
X126111000Y-103022400D02*
X121162699Y-107970701D01*
X126111000Y-99589000D02*
X126111000Y-103022400D01*
X126111000Y-99589000D02*
X126111000Y-96211000D01*
X125500000Y-95600000D02*
X125500000Y-87900000D01*
X126111000Y-96211000D02*
X125500000Y-95600000D01*
X137380000Y-76480000D02*
X137380000Y-75930000D01*
X135547100Y-86956900D02*
X135547100Y-86947100D01*
X135300299Y-78559701D02*
X137380000Y-76480000D01*
X135547100Y-86947100D02*
X135300299Y-86700299D01*
X140563600Y-91973400D02*
X135547100Y-86956900D01*
X147675600Y-93268800D02*
X146380200Y-91973400D01*
X147675600Y-96367600D02*
X147675600Y-93268800D01*
X146502451Y-97540749D02*
X147675600Y-96367600D01*
X146380200Y-91973400D02*
X140563600Y-91973400D01*
X142616251Y-97540749D02*
X144359251Y-97540749D01*
X135300299Y-85499701D02*
X135300299Y-78559701D01*
X135300299Y-86700299D02*
X135300299Y-85499701D01*
X135300299Y-83362800D02*
X135300299Y-85499701D01*
X128637200Y-83362800D02*
X135300299Y-83362800D01*
X125500000Y-86500000D02*
X128637200Y-83362800D01*
X125500000Y-87900000D02*
X125500000Y-86500000D01*
D29*
X121093600Y-81420000D02*
X122000000Y-82326400D01*
X119989600Y-81420000D02*
X121093600Y-81420000D01*
X122000000Y-82326400D02*
X122000000Y-93900000D01*
X123700000Y-95600000D02*
X125500000Y-95600000D01*
X122000000Y-93900000D02*
X123700000Y-95600000D01*
X157377796Y-100575872D02*
X155924128Y-100575872D01*
X155924128Y-100575872D02*
X155700000Y-100800000D01*
X155700000Y-100800000D02*
X155700000Y-101600000D01*
X155945872Y-101845872D02*
X157377796Y-101845872D01*
X155700000Y-101600000D02*
X155945872Y-101845872D01*
X163735872Y-98035872D02*
X162327796Y-98035872D01*
X164000000Y-98300000D02*
X163735872Y-98035872D01*
X163694128Y-99305872D02*
X164000000Y-99000000D01*
X164000000Y-99000000D02*
X164000000Y-98300000D01*
X162327796Y-99305872D02*
X163694128Y-99305872D01*
X164000000Y-102900000D02*
X163784128Y-103115872D01*
X164000000Y-102100000D02*
X164000000Y-102900000D01*
X163745872Y-101845872D02*
X164000000Y-102100000D01*
X162327796Y-101845872D02*
X163745872Y-101845872D01*
X164000000Y-99611744D02*
X163694128Y-99305872D01*
X164000000Y-101500000D02*
X164000000Y-99611744D01*
X163654128Y-101845872D02*
X164000000Y-101500000D01*
X162327796Y-101845872D02*
X163654128Y-101845872D01*
X162327796Y-103115872D02*
X163784128Y-103115872D01*
X163715872Y-103115872D02*
X164000000Y-103400000D01*
X162327796Y-103115872D02*
X163715872Y-103115872D01*
X156100000Y-106100000D02*
X156200000Y-106200000D01*
X155700000Y-105700000D02*
X156100000Y-106100000D01*
X155700000Y-102248170D02*
X155700000Y-105700000D01*
X156102298Y-101845872D02*
X155700000Y-102248170D01*
X157377796Y-101845872D02*
X156102298Y-101845872D01*
X145940000Y-77000000D02*
X146020000Y-77080000D01*
D30*
X146020000Y-77080000D02*
X146020000Y-75930000D01*
D29*
X142800000Y-77000000D02*
X145940000Y-77000000D01*
D30*
X146020000Y-77520000D02*
X146020000Y-77080000D01*
X136480000Y-71750000D02*
X137380000Y-71750000D01*
X136057999Y-71327999D02*
X136480000Y-71750000D01*
D29*
X164855980Y-72110000D02*
X164872990Y-72127010D01*
X157700000Y-72110000D02*
X157710000Y-72100000D01*
X157550000Y-72110000D02*
X157700000Y-72110000D01*
X157710000Y-72100000D02*
X158300000Y-72100000D01*
D31*
X158300000Y-72100000D02*
X159100000Y-71300000D01*
D29*
X151700000Y-72110000D02*
X151710000Y-72100000D01*
X151550000Y-72110000D02*
X151700000Y-72110000D01*
D31*
X152300000Y-72100000D02*
X153100000Y-71300000D01*
D29*
X151710000Y-72100000D02*
X152300000Y-72100000D01*
D30*
X135072001Y-71327999D02*
X136057999Y-71327999D01*
D29*
X129122001Y-71327999D02*
X129227999Y-71327999D01*
X127550000Y-72110000D02*
X128340000Y-72110000D01*
D31*
X134447000Y-72110000D02*
X135072001Y-71484999D01*
D29*
X135072001Y-71484999D02*
X135072001Y-71327999D01*
X133550000Y-72110000D02*
X134447000Y-72110000D01*
X121560000Y-72100000D02*
X122400000Y-72100000D01*
D31*
X121550000Y-72110000D02*
X121560000Y-72100000D01*
D30*
X164872990Y-72127010D02*
X164872990Y-72827010D01*
D29*
X164872990Y-72572990D02*
X164872990Y-72827010D01*
D31*
X164410000Y-72110000D02*
X164872990Y-72572990D01*
D29*
X163550000Y-72110000D02*
X164410000Y-72110000D01*
D31*
X164872990Y-72072990D02*
X164872990Y-72127010D01*
D30*
X164100000Y-71300000D02*
X164872990Y-72072990D01*
X144550000Y-71750000D02*
X146020000Y-71750000D01*
D31*
X143710000Y-71750000D02*
X144550000Y-71750000D01*
X143350000Y-72110000D02*
X143710000Y-71750000D01*
D29*
X142550000Y-72110000D02*
X143350000Y-72110000D01*
D30*
X164872990Y-92727010D02*
X164072990Y-93527010D01*
X164872990Y-72827010D02*
X164872990Y-92727010D01*
X158927010Y-71127010D02*
X159100000Y-71300000D01*
X153272990Y-71127010D02*
X158927010Y-71127010D01*
D31*
X153100000Y-71300000D02*
X153272990Y-71127010D01*
D30*
X163927010Y-71127010D02*
X164100000Y-71300000D01*
X159272990Y-71127010D02*
X163927010Y-71127010D01*
X159100000Y-71300000D02*
X159272990Y-71127010D01*
D31*
X152927010Y-71127010D02*
X153100000Y-71300000D01*
D30*
X147542990Y-71127010D02*
X152927010Y-71127010D01*
X146920000Y-71750000D02*
X147542990Y-71127010D01*
X146020000Y-71750000D02*
X146920000Y-71750000D01*
X143927010Y-71127010D02*
X144550000Y-71750000D01*
X138902990Y-71127010D02*
X143927010Y-71127010D01*
X138280000Y-71750000D02*
X138902990Y-71127010D01*
X137380000Y-71750000D02*
X138280000Y-71750000D01*
D31*
X129027010Y-71127010D02*
X129227999Y-71327999D01*
D30*
X123372990Y-71127010D02*
X129027010Y-71127010D01*
D31*
X122400000Y-72100000D02*
X123372990Y-71127010D01*
X134871012Y-71127010D02*
X135072001Y-71327999D01*
D30*
X129428988Y-71127010D02*
X134871012Y-71127010D01*
D31*
X129227999Y-71327999D02*
X129428988Y-71127010D01*
D30*
X129322990Y-71127010D02*
X129428988Y-71127010D01*
D31*
X128340000Y-72110000D02*
X129322990Y-71127010D01*
D29*
X164000000Y-103400000D02*
X164000000Y-104600000D01*
D30*
X164072990Y-93527010D02*
X162828582Y-93527010D01*
D28*
X162327796Y-95495872D02*
X162327796Y-94027796D01*
D30*
X162828582Y-93527010D02*
X162327796Y-94027796D01*
D28*
X146359251Y-97540749D02*
X146502451Y-97540749D01*
X144359251Y-97540749D02*
X146359251Y-97540749D01*
D29*
X150578396Y-130598873D02*
X150578396Y-119921604D01*
X150578396Y-119921604D02*
X150600000Y-119900000D01*
X153162000Y-115310585D02*
X153162000Y-115849400D01*
X151300000Y-106100000D02*
X153162000Y-107962000D01*
X153238200Y-101447600D02*
X151300000Y-103385800D01*
X153162000Y-107962000D02*
X153162000Y-115310585D01*
X156079950Y-96765872D02*
X153238200Y-99607622D01*
X151300000Y-103385800D02*
X151300000Y-106100000D01*
X153238200Y-99607622D02*
X153238200Y-101447600D01*
X157377796Y-96765872D02*
X156079950Y-96765872D01*
X155862528Y-98035872D02*
X155193999Y-98704401D01*
X157377796Y-98035872D02*
X155862528Y-98035872D01*
X145498396Y-130598872D02*
X145498396Y-127841546D01*
X155193999Y-98704401D02*
X154813000Y-99085400D01*
X145498396Y-123701604D02*
X150100000Y-119100000D01*
X151100000Y-119100000D02*
X151600008Y-119600008D01*
X150100000Y-119100000D02*
X151100000Y-119100000D01*
X145498396Y-130598873D02*
X145498396Y-123701604D01*
X154813000Y-99085400D02*
X153900000Y-99998400D01*
X153900000Y-101624000D02*
X152000000Y-103524000D01*
X152000000Y-103524000D02*
X152000000Y-105700000D01*
X153900000Y-99998400D02*
X153900000Y-101624000D01*
X152000000Y-105700000D02*
X154228800Y-107928800D01*
X154228800Y-107928800D02*
X154228800Y-118232385D01*
X154228800Y-118232385D02*
X154228800Y-118771200D01*
X127203200Y-95689594D02*
X127718995Y-95173799D01*
X127203200Y-101650800D02*
X127203200Y-95689594D01*
X127718995Y-95173799D02*
X128099994Y-94792800D01*
X128519001Y-109780999D02*
X128900000Y-109400000D01*
X128000000Y-110300000D02*
X128519001Y-109780999D01*
X128000000Y-130317269D02*
X128000000Y-110300000D01*
X127718396Y-130598873D02*
X128000000Y-130317269D01*
X124968000Y-105791000D02*
X124968000Y-114065985D01*
X135280390Y-100585307D02*
X130173693Y-100585307D01*
X130173693Y-100585307D02*
X124968000Y-105791000D01*
X124968000Y-114065985D02*
X124968000Y-114604800D01*
X134645400Y-112177577D02*
X132398993Y-109931170D01*
X134645400Y-119842338D02*
X134645400Y-112177577D01*
X129362120Y-111325662D02*
X129362120Y-115956378D01*
X132398993Y-109931170D02*
X130756612Y-109931170D01*
X138003062Y-123200000D02*
X134645400Y-119842338D01*
X140500000Y-123200000D02*
X138003062Y-123200000D01*
X130906142Y-117500400D02*
X131444957Y-117500400D01*
X129362120Y-115956378D02*
X130906142Y-117500400D01*
X130756612Y-109931170D02*
X129362120Y-111325662D01*
X142958396Y-125658396D02*
X140500000Y-123200000D01*
X142958396Y-130598873D02*
X142958396Y-125658396D01*
X130881132Y-116509318D02*
X131419947Y-116509318D01*
X129819331Y-111446308D02*
X129819331Y-115447517D01*
X130877258Y-110388381D02*
X129819331Y-111446308D01*
X132209611Y-110388381D02*
X130877258Y-110388381D01*
X134188189Y-112366959D02*
X132209611Y-110388381D01*
X129819331Y-115447517D02*
X130881132Y-116509318D01*
X134188189Y-120802389D02*
X134188189Y-112366959D01*
X139281862Y-124581862D02*
X137967662Y-124581862D01*
X140418396Y-125718396D02*
X139281862Y-124581862D01*
X137967662Y-124581862D02*
X134188189Y-120802389D01*
X140418396Y-130598873D02*
X140418396Y-125718396D01*
X130875081Y-115544125D02*
X131413896Y-115544125D01*
X133730978Y-112556341D02*
X132020229Y-110845592D01*
X137878396Y-130598873D02*
X137878396Y-125899873D01*
X131066640Y-110845592D02*
X130276542Y-111635690D01*
X133730978Y-121752455D02*
X133730978Y-112556341D01*
X137878396Y-125899873D02*
X133730978Y-121752455D01*
X130276542Y-114945586D02*
X130875081Y-115544125D01*
X130276542Y-111635690D02*
X130276542Y-114945586D01*
X132020229Y-110845592D02*
X131066640Y-110845592D01*
X137878396Y-130598872D02*
X137878397Y-127042872D01*
X130733753Y-111825072D02*
X130733753Y-114407024D01*
X133273767Y-112745726D02*
X131830844Y-111302803D01*
X131830844Y-111302803D02*
X131256022Y-111302803D01*
X130906142Y-114579413D02*
X131444957Y-114579413D01*
X135338396Y-130598873D02*
X135338396Y-125305396D01*
X133273767Y-123240767D02*
X133273767Y-112745726D01*
X131256022Y-111302803D02*
X130733753Y-111825072D01*
X135338396Y-125305396D02*
X133273767Y-123240767D01*
X130733753Y-114407024D02*
X130906142Y-114579413D01*
X132798396Y-130598873D02*
X132798396Y-114428826D01*
X132798396Y-114428826D02*
X131983770Y-113614200D01*
X131983770Y-113614200D02*
X131444955Y-113614200D01*
X151363066Y-100041126D02*
X151363066Y-91563066D01*
X151363066Y-91563066D02*
X147954999Y-88154999D01*
X147954999Y-88154999D02*
X147954999Y-83993806D01*
X147954999Y-83993806D02*
X147954999Y-83454991D01*
X146203728Y-106629200D02*
X147269200Y-106629200D01*
X146094000Y-106519472D02*
X146203728Y-106629200D01*
X147718999Y-107078999D02*
X148767800Y-107078999D01*
X147269200Y-106629200D02*
X147718999Y-107078999D01*
X138894000Y-109169200D02*
X139869672Y-110144872D01*
X147563528Y-110144872D02*
X148767800Y-108940600D01*
X138894000Y-107789472D02*
X138894000Y-109169200D01*
X139869672Y-110144872D02*
X147563528Y-110144872D01*
X148767800Y-108940600D02*
X148767800Y-107753999D01*
D28*
X140081000Y-94056200D02*
X140491494Y-94056200D01*
D29*
X148767800Y-107078999D02*
X148767800Y-108483400D01*
D28*
X139039600Y-96088200D02*
X139039600Y-97866200D01*
X145017600Y-100152200D02*
X145993504Y-100152200D01*
X145993504Y-100152200D02*
X146275752Y-100434448D01*
X139039600Y-95097600D02*
X140081000Y-94056200D01*
X145652600Y-94056200D02*
X141198600Y-94056200D01*
X139544000Y-96088200D02*
X139039600Y-96088200D01*
X139039600Y-95097600D02*
X139039600Y-96088200D01*
X140639800Y-96384000D02*
X139839800Y-96384000D01*
X139839800Y-96384000D02*
X139544000Y-96088200D01*
X145652600Y-94056200D02*
X145652600Y-94792800D01*
X145652600Y-94792800D02*
X144916000Y-95529400D01*
X146278600Y-94056200D02*
X145652600Y-94056200D01*
X140491494Y-94056200D02*
X141198600Y-94056200D01*
D29*
X148767800Y-107753999D02*
X148767800Y-107078999D01*
D28*
X139039600Y-95097600D02*
X139039600Y-95097600D01*
X146275752Y-100993248D02*
X146275752Y-100434448D01*
X145592800Y-101676200D02*
X146275752Y-100993248D01*
X141700000Y-100958400D02*
X142417800Y-101676200D01*
X142417800Y-101676200D02*
X145592800Y-101676200D01*
X141700000Y-100500000D02*
X141700000Y-100958400D01*
X141174400Y-99974400D02*
X141700000Y-100500000D01*
X139958092Y-99974400D02*
X141174400Y-99974400D01*
X139039600Y-99055908D02*
X139958092Y-99974400D01*
X139039600Y-97866200D02*
X139039600Y-99055908D01*
X134549107Y-89900001D02*
X139039600Y-94390494D01*
X139039600Y-94390494D02*
X139039600Y-95097600D01*
X133499999Y-89900001D02*
X134549107Y-89900001D01*
X133000000Y-90400000D02*
X133499999Y-89900001D01*
D29*
X139573000Y-105359200D02*
X140360400Y-105359200D01*
X139463272Y-105249472D02*
X139573000Y-105359200D01*
X140360400Y-105359200D02*
X142163801Y-107162601D01*
X142163801Y-107162601D02*
X142544800Y-107543600D01*
X145984272Y-107899200D02*
X144576800Y-107899200D01*
X146094000Y-107789472D02*
X145984272Y-107899200D01*
X144576800Y-107899200D02*
X143763999Y-107086399D01*
X143763999Y-107086399D02*
X143383000Y-106705400D01*
X139003728Y-106629200D02*
X140512800Y-106629200D01*
X138894000Y-106519472D02*
X139003728Y-106629200D01*
X142849600Y-108966000D02*
X144119600Y-108966000D01*
X144119600Y-108966000D02*
X144145000Y-108940600D01*
X140512800Y-106629200D02*
X142849600Y-108966000D01*
X146203728Y-109169200D02*
X147396200Y-109169200D01*
X146094000Y-109059472D02*
X146203728Y-109169200D01*
X147396200Y-109169200D02*
X147726400Y-108839000D01*
X149000000Y-85100000D02*
X149000000Y-88000000D01*
X151770098Y-100639898D02*
X151389099Y-101020897D01*
X152100000Y-91100000D02*
X152100000Y-100309996D01*
X149000000Y-88000000D02*
X152100000Y-91100000D01*
X152100000Y-100309996D02*
X151770098Y-100639898D01*
X149700000Y-84700000D02*
X149000000Y-84000000D01*
X149700000Y-85500000D02*
X149700000Y-84700000D01*
X151358600Y-102057200D02*
X152600000Y-100815800D01*
X149500000Y-87700000D02*
X149500000Y-85700000D01*
X149500000Y-85700000D02*
X149700000Y-85500000D01*
X152600000Y-100815800D02*
X152600000Y-90800000D01*
X152600000Y-90800000D02*
X149500000Y-87700000D01*
X134493000Y-101296507D02*
X134493000Y-101396800D01*
X134493000Y-101396800D02*
X133299200Y-102590600D01*
X140750000Y-77000000D02*
X140750000Y-79000000D01*
X128750000Y-93300000D02*
X133650000Y-88400000D01*
X133650000Y-88400000D02*
X135100000Y-88400000D01*
X128100000Y-93300000D02*
X128750000Y-93300000D01*
X126900000Y-94500000D02*
X128100000Y-93300000D01*
X157377796Y-95495872D02*
X157377796Y-94677796D01*
X157377796Y-94677796D02*
X157000000Y-94300000D01*
X153238223Y-104438223D02*
X153238223Y-103377977D01*
X156311600Y-107511600D02*
X153238223Y-104438223D01*
X156311600Y-121929200D02*
X156311600Y-107511600D01*
X158198396Y-123815996D02*
X156311600Y-121929200D01*
X158198396Y-130598873D02*
X158198396Y-123815996D01*
X155658396Y-130598873D02*
X155658396Y-107957196D01*
X155658396Y-107957196D02*
X153365199Y-105663999D01*
X153365199Y-105663999D02*
X152984200Y-105283000D01*
X148219204Y-114996004D02*
X148219204Y-112883611D01*
X153118396Y-119895196D02*
X148219204Y-114996004D01*
X153118396Y-130598873D02*
X153118396Y-119895196D01*
X148219204Y-112883611D02*
X148219204Y-112344796D01*
X149174200Y-114401600D02*
X149174200Y-111861600D01*
X149174200Y-111861600D02*
X149199600Y-111836200D01*
X148038408Y-122761592D02*
X148038408Y-130599981D01*
X148500000Y-122300000D02*
X148038408Y-122761592D01*
X154811862Y-102718748D02*
X154811862Y-101502675D01*
X154228810Y-103301800D02*
X154811862Y-102718748D01*
X154811862Y-101502675D02*
X154811862Y-100963860D01*
X150700000Y-92000000D02*
X146904463Y-88204463D01*
X150600000Y-98828000D02*
X150700000Y-98728000D01*
X146904463Y-88204463D02*
X142969653Y-88204463D01*
X150600000Y-108200000D02*
X150600000Y-98828000D01*
X142969653Y-88204463D02*
X142430838Y-88204463D01*
X147508003Y-111885761D02*
X150100000Y-109293764D01*
X150100000Y-109293764D02*
X150100000Y-108700000D01*
X150700000Y-98728000D02*
X150700000Y-92000000D01*
X149606000Y-118313200D02*
X147508003Y-116215203D01*
X147508003Y-116215203D02*
X147508003Y-111885761D01*
X150100000Y-108700000D02*
X150600000Y-108200000D01*
X146905805Y-89205805D02*
X142305819Y-89205805D01*
X150012400Y-107887600D02*
X150012400Y-92312400D01*
X141681022Y-88581008D02*
X141300023Y-88200009D01*
X142305819Y-89205805D02*
X141681022Y-88581008D01*
X150012400Y-92312400D02*
X146905805Y-89205805D01*
X149500000Y-108970400D02*
X149500000Y-108400000D01*
X146558000Y-111912400D02*
X149500000Y-108970400D01*
X146558000Y-116890800D02*
X146558000Y-111912400D01*
X149500000Y-108400000D02*
X150012400Y-107887600D01*
X148869400Y-119202200D02*
X146558000Y-116890800D01*
X131749790Y-107300000D02*
X132999994Y-107300000D01*
X132999994Y-107300000D02*
X135418995Y-109719001D01*
X135418995Y-109719001D02*
X135799994Y-110100000D01*
X131900000Y-108300012D02*
X132438815Y-108300012D01*
X132438815Y-108300012D02*
X136600006Y-112461203D01*
X136600006Y-112461203D02*
X136600006Y-116261191D01*
X136600006Y-116261191D02*
X136600006Y-116800006D01*
X131500000Y-109200000D02*
X132338787Y-109200000D01*
X132338787Y-109200000D02*
X135600000Y-112461213D01*
X135600000Y-112461213D02*
X135600000Y-115861181D01*
X135600000Y-115861181D02*
X135600000Y-116399996D01*
X147773186Y-102344794D02*
X145673180Y-104444800D01*
X137693400Y-104444800D02*
X136296400Y-105841800D01*
X145673180Y-104444800D02*
X137693400Y-104444800D01*
X136296400Y-105841800D02*
X131058200Y-105841800D01*
X131058200Y-105841800D02*
X130280999Y-106619001D01*
X130280999Y-106619001D02*
X129900000Y-107000000D01*
X128778000Y-110932982D02*
X128778000Y-117883187D01*
X129705491Y-110005491D02*
X128778000Y-110932982D01*
X128778000Y-117883187D02*
X128778000Y-118422002D01*
X126466600Y-115666185D02*
X126466600Y-116205000D01*
X126466600Y-109233400D02*
X126466600Y-115666185D01*
X136418999Y-104404001D02*
X135623000Y-105200000D01*
X136418999Y-100878981D02*
X136418999Y-104404001D01*
X130500000Y-105200000D02*
X126466600Y-109233400D01*
X137093432Y-100204548D02*
X136418999Y-100878981D01*
X135623000Y-105200000D02*
X130500000Y-105200000D01*
X138691598Y-100204548D02*
X137093432Y-100204548D01*
X135700000Y-102038825D02*
X135700000Y-101500010D01*
X129826600Y-104673400D02*
X134760762Y-104673400D01*
X135700000Y-103734162D02*
X135700000Y-102038825D01*
X125704600Y-115366800D02*
X125704600Y-108795400D01*
X134760762Y-104673400D02*
X135700000Y-103734162D01*
X125704600Y-108795400D02*
X129826600Y-104673400D01*
D28*
X163278396Y-130598873D02*
X163278396Y-124619596D01*
X160738396Y-130598873D02*
X163278396Y-130598873D01*
X161880404Y-124619596D02*
X163278396Y-124619596D01*
X160738396Y-125761604D02*
X161880404Y-124619596D01*
X160738396Y-130598873D02*
X160738396Y-125761604D01*
X163278396Y-123337996D02*
X163278396Y-124619596D01*
X163250000Y-123309600D02*
X163278396Y-123337996D01*
X163250000Y-122100000D02*
X163250000Y-123309600D01*
D29*
X128262885Y-96113917D02*
X128186807Y-96113917D01*
X134000000Y-92100000D02*
X129986083Y-96113917D01*
X129986083Y-96113917D02*
X128262885Y-96113917D01*
X134906970Y-92225576D02*
X129901346Y-97231200D01*
X134906970Y-91686761D02*
X134906970Y-92225576D01*
X129901346Y-97231200D02*
X129270009Y-97231200D01*
X129270009Y-97231200D02*
X128731194Y-97231200D01*
D32*
X140787131Y-101040157D02*
X140931794Y-101040157D01*
D29*
X140931794Y-101040157D02*
X142304437Y-102412800D01*
X148742400Y-99657600D02*
X148742400Y-93042400D01*
X142304437Y-102412800D02*
X145987200Y-102412800D01*
X136700191Y-85968467D02*
X136357292Y-85625568D01*
X145987200Y-102412800D02*
X148742400Y-99657600D01*
X148742400Y-93042400D02*
X146225600Y-90525600D01*
X141257324Y-90525600D02*
X136700191Y-85968467D01*
X146225600Y-90525600D02*
X141257324Y-90525600D01*
X136742911Y-84942899D02*
X136400012Y-84600000D01*
X141856157Y-102844600D02*
X146253200Y-102844600D01*
X141614412Y-89814400D02*
X136742911Y-84942899D01*
X146253200Y-102844600D02*
X149377400Y-99720400D01*
X149377400Y-92677400D02*
X146514400Y-89814400D01*
X149377400Y-99720400D02*
X149377400Y-92677400D01*
X146514400Y-89814400D02*
X141614412Y-89814400D01*
X140901096Y-101889539D02*
X141856157Y-102844600D01*
X120098396Y-124901604D02*
X120098396Y-130598873D01*
X130100000Y-108200000D02*
X128800000Y-108200000D01*
X127300000Y-109700000D02*
X127300000Y-117700000D01*
X130900000Y-106900000D02*
X130900000Y-107400000D01*
X131160001Y-106639999D02*
X130900000Y-106900000D01*
X133939987Y-106639999D02*
X131160001Y-106639999D01*
X130900000Y-107400000D02*
X130100000Y-108200000D01*
X127300000Y-117700000D02*
X120098396Y-124901604D01*
X128800000Y-108200000D02*
X127300000Y-109700000D01*
X135799988Y-108500000D02*
X133939987Y-106639999D01*
X162690000Y-85850000D02*
X162690000Y-90150000D01*
X161790000Y-85850000D02*
X161790000Y-90150000D01*
X162690000Y-91850000D02*
X162690000Y-92504000D01*
X161294000Y-93900000D02*
X161200000Y-93900000D01*
X162690000Y-92504000D02*
X161294000Y-93900000D01*
X158619001Y-93519001D02*
X159000000Y-93900000D01*
X154300000Y-97200000D02*
X154300000Y-95774186D01*
X154300000Y-95774186D02*
X156555185Y-93519001D01*
X156555185Y-93519001D02*
X158619001Y-93519001D01*
X161400000Y-92900000D02*
X161790000Y-92510000D01*
X161100000Y-92900000D02*
X161400000Y-92900000D01*
X161790000Y-92510000D02*
X161790000Y-91850000D01*
X156300000Y-92900000D02*
X153500000Y-95700000D01*
X153500000Y-95700000D02*
X153500000Y-96699994D01*
X153500000Y-96699994D02*
X153499994Y-96700000D01*
X159000006Y-92900000D02*
X156300000Y-92900000D01*
X161790000Y-79850000D02*
X161790000Y-84150000D01*
X162690000Y-79850000D02*
X162690000Y-84150000D01*
X163550000Y-73910000D02*
X163550000Y-74550000D01*
X163550000Y-74550000D02*
X161790000Y-76310000D01*
X161790000Y-76310000D02*
X161790000Y-78150000D01*
X164300000Y-73106000D02*
X164300000Y-74700000D01*
X162690000Y-76310000D02*
X162690000Y-78150000D01*
X164204000Y-73010000D02*
X164300000Y-73106000D01*
X164300000Y-74700000D02*
X162690000Y-76310000D01*
X163550000Y-73010000D02*
X164204000Y-73010000D01*
X157550000Y-73010000D02*
X161850000Y-73010000D01*
X161196000Y-73910000D02*
X157550000Y-73910000D01*
X161850000Y-73910000D02*
X161196000Y-73910000D01*
X155196000Y-73910000D02*
X151550000Y-73910000D01*
X155850000Y-73910000D02*
X155196000Y-73910000D01*
X151550000Y-73010000D02*
X155850000Y-73010000D01*
X149196000Y-73010000D02*
X149850000Y-73010000D01*
X147900000Y-73300000D02*
X148906000Y-73300000D01*
X148906000Y-73300000D02*
X149196000Y-73010000D01*
X143214000Y-73000000D02*
X147600000Y-73000000D01*
X142550000Y-73010000D02*
X143204000Y-73010000D01*
X147600000Y-73000000D02*
X147900000Y-73300000D01*
X143204000Y-73010000D02*
X143214000Y-73000000D01*
X143190000Y-73910000D02*
X142550000Y-73910000D01*
X147216190Y-73516190D02*
X143583810Y-73516190D01*
X147610000Y-73910000D02*
X147216190Y-73516190D01*
X149850000Y-73910000D02*
X147610000Y-73910000D01*
X143583810Y-73516190D02*
X143190000Y-73910000D01*
X135100000Y-73500000D02*
X134690000Y-73910000D01*
X139700000Y-73500000D02*
X135100000Y-73500000D01*
X134690000Y-73910000D02*
X133550000Y-73910000D01*
X140110000Y-73910000D02*
X139700000Y-73500000D01*
X140850000Y-73910000D02*
X140110000Y-73910000D01*
X140850000Y-73010000D02*
X133550000Y-73010000D01*
X127550000Y-73010000D02*
X131850000Y-73010000D01*
X131850000Y-73910000D02*
X127319001Y-73910000D01*
X125850000Y-73910000D02*
X121550000Y-73910000D01*
X121550000Y-73010000D02*
X125850000Y-73010000D01*
X119196000Y-73010000D02*
X118900000Y-73306000D01*
X119850000Y-73010000D02*
X119196000Y-73010000D01*
X118900000Y-73306000D02*
X118900000Y-76300000D01*
D30*
X118900000Y-76300000D02*
X119000000Y-76400000D01*
D29*
X119850000Y-73910000D02*
X119850000Y-76250000D01*
D30*
X119850000Y-76250000D02*
X120000000Y-76400000D01*
D29*
X142800000Y-79000000D02*
X142800000Y-84000000D01*
X142800000Y-84000000D02*
X142400000Y-84400000D01*
X142400000Y-84400000D02*
X142400000Y-87200000D01*
G36*
X165173000Y-94273000D02*
G01*
X162927000Y-94273000D01*
X162927000Y-93050474D01*
X163062495Y-92914979D01*
X163083632Y-92897632D01*
X163152863Y-92813275D01*
X163184749Y-92753619D01*
X163236690Y-92769375D01*
X163340000Y-92779550D01*
X163457750Y-92777000D01*
X163589500Y-92645250D01*
X163589500Y-91850500D01*
X163590500Y-91850500D01*
X163590500Y-92645250D01*
X163722250Y-92777000D01*
X163840000Y-92779550D01*
X163943310Y-92769375D01*
X164042650Y-92739240D01*
X164134202Y-92690305D01*
X164214448Y-92624448D01*
X164280305Y-92544202D01*
X164329240Y-92452650D01*
X164359375Y-92353310D01*
X164369550Y-92250000D01*
X164367000Y-91982250D01*
X164235250Y-91850500D01*
X163590500Y-91850500D01*
X163589500Y-91850500D01*
X163569500Y-91850500D01*
X163569500Y-91849500D01*
X163589500Y-91849500D01*
X163589500Y-91829500D01*
X163590500Y-91829500D01*
X163590500Y-91849500D01*
X164235250Y-91849500D01*
X164367000Y-91717750D01*
X164369550Y-91450000D01*
X164359375Y-91346690D01*
X164329240Y-91247350D01*
X164280305Y-91155798D01*
X164214448Y-91075552D01*
X164134202Y-91009695D01*
X164042650Y-90960760D01*
X163999762Y-90947750D01*
X164004196Y-90946405D01*
X164078376Y-90906755D01*
X164143395Y-90853395D01*
X164196755Y-90788376D01*
X164236405Y-90714196D01*
X164260822Y-90633707D01*
X164269066Y-90550000D01*
X164269066Y-89750000D01*
X164260822Y-89666293D01*
X164257066Y-89653910D01*
X164320048Y-89590928D01*
X164421496Y-89439099D01*
X164491376Y-89270396D01*
X164527000Y-89091301D01*
X164527000Y-88908699D01*
X164491376Y-88729604D01*
X164421496Y-88560901D01*
X164320048Y-88409072D01*
X164190928Y-88279952D01*
X164039099Y-88178504D01*
X163870396Y-88108624D01*
X163691301Y-88073000D01*
X163508699Y-88073000D01*
X163329604Y-88108624D01*
X163244000Y-88144083D01*
X163244000Y-86770095D01*
X163340000Y-86779550D01*
X163457750Y-86777000D01*
X163589500Y-86645250D01*
X163589500Y-85850500D01*
X163590500Y-85850500D01*
X163590500Y-86645250D01*
X163722250Y-86777000D01*
X163840000Y-86779550D01*
X163943310Y-86769375D01*
X164042650Y-86739240D01*
X164134202Y-86690305D01*
X164214448Y-86624448D01*
X164280305Y-86544202D01*
X164329240Y-86452650D01*
X164359375Y-86353310D01*
X164369550Y-86250000D01*
X164367000Y-85982250D01*
X164235250Y-85850500D01*
X163590500Y-85850500D01*
X163589500Y-85850500D01*
X163569500Y-85850500D01*
X163569500Y-85849500D01*
X163589500Y-85849500D01*
X163589500Y-85829500D01*
X163590500Y-85829500D01*
X163590500Y-85849500D01*
X164235250Y-85849500D01*
X164367000Y-85717750D01*
X164369550Y-85450000D01*
X164359375Y-85346690D01*
X164329240Y-85247350D01*
X164280305Y-85155798D01*
X164214448Y-85075552D01*
X164134202Y-85009695D01*
X164042650Y-84960760D01*
X163999762Y-84947750D01*
X164004196Y-84946405D01*
X164078376Y-84906755D01*
X164143395Y-84853395D01*
X164196755Y-84788376D01*
X164236405Y-84714196D01*
X164260822Y-84633707D01*
X164269066Y-84550000D01*
X164269066Y-83750000D01*
X164260822Y-83666293D01*
X164257066Y-83653910D01*
X164320048Y-83590928D01*
X164421496Y-83439099D01*
X164491376Y-83270396D01*
X164527000Y-83091301D01*
X164527000Y-82908699D01*
X164491376Y-82729604D01*
X164421496Y-82560901D01*
X164320048Y-82409072D01*
X164190928Y-82279952D01*
X164039099Y-82178504D01*
X163870396Y-82108624D01*
X163691301Y-82073000D01*
X163508699Y-82073000D01*
X163329604Y-82108624D01*
X163244000Y-82144083D01*
X163244000Y-80770095D01*
X163340000Y-80779550D01*
X163457750Y-80777000D01*
X163589500Y-80645250D01*
X163589500Y-79850500D01*
X163590500Y-79850500D01*
X163590500Y-80645250D01*
X163722250Y-80777000D01*
X163840000Y-80779550D01*
X163943310Y-80769375D01*
X164042650Y-80739240D01*
X164134202Y-80690305D01*
X164214448Y-80624448D01*
X164280305Y-80544202D01*
X164329240Y-80452650D01*
X164359375Y-80353310D01*
X164369550Y-80250000D01*
X164367000Y-79982250D01*
X164235250Y-79850500D01*
X163590500Y-79850500D01*
X163589500Y-79850500D01*
X163569500Y-79850500D01*
X163569500Y-79849500D01*
X163589500Y-79849500D01*
X163589500Y-79829500D01*
X163590500Y-79829500D01*
X163590500Y-79849500D01*
X164235250Y-79849500D01*
X164367000Y-79717750D01*
X164369550Y-79450000D01*
X164359375Y-79346690D01*
X164329240Y-79247350D01*
X164280305Y-79155798D01*
X164214448Y-79075552D01*
X164134202Y-79009695D01*
X164042650Y-78960760D01*
X163999762Y-78947750D01*
X164004196Y-78946405D01*
X164078376Y-78906755D01*
X164143395Y-78853395D01*
X164196755Y-78788376D01*
X164236405Y-78714196D01*
X164260822Y-78633707D01*
X164269066Y-78550000D01*
X164269066Y-77801473D01*
X164390928Y-77720048D01*
X164520048Y-77590928D01*
X164621496Y-77439099D01*
X164691376Y-77270396D01*
X164727000Y-77091301D01*
X164727000Y-76908699D01*
X164691376Y-76729604D01*
X164621496Y-76560901D01*
X164520048Y-76409072D01*
X164390928Y-76279952D01*
X164239099Y-76178504D01*
X164070396Y-76108624D01*
X163891301Y-76073000D01*
X163710474Y-76073000D01*
X164672501Y-75110974D01*
X164693632Y-75093632D01*
X164710974Y-75072501D01*
X164710979Y-75072496D01*
X164762863Y-75009275D01*
X164814305Y-74913033D01*
X164845984Y-74808603D01*
X164850472Y-74763032D01*
X164854000Y-74727212D01*
X164854000Y-74727204D01*
X164856679Y-74700000D01*
X164854000Y-74672796D01*
X164854000Y-73133212D01*
X164856680Y-73106000D01*
X164851890Y-73057365D01*
X164845984Y-72997397D01*
X164814305Y-72892968D01*
X164762863Y-72796725D01*
X164693632Y-72712368D01*
X164672494Y-72695020D01*
X164614982Y-72637509D01*
X164597632Y-72616368D01*
X164513275Y-72547137D01*
X164453619Y-72515251D01*
X164469375Y-72463310D01*
X164479550Y-72360000D01*
X164477000Y-72242250D01*
X164345250Y-72110500D01*
X163550500Y-72110500D01*
X163550500Y-72130500D01*
X163549500Y-72130500D01*
X163549500Y-72110500D01*
X163529500Y-72110500D01*
X163529500Y-72109500D01*
X163549500Y-72109500D01*
X163549500Y-71464750D01*
X163550500Y-71464750D01*
X163550500Y-72109500D01*
X164345250Y-72109500D01*
X164477000Y-71977750D01*
X164479550Y-71860000D01*
X164469375Y-71756690D01*
X164439240Y-71657350D01*
X164390305Y-71565798D01*
X164324448Y-71485552D01*
X164244202Y-71419695D01*
X164152650Y-71370760D01*
X164053310Y-71340625D01*
X163950000Y-71330450D01*
X163682250Y-71333000D01*
X163550500Y-71464750D01*
X163549500Y-71464750D01*
X163417750Y-71333000D01*
X163150000Y-71330450D01*
X163046690Y-71340625D01*
X162947350Y-71370760D01*
X162855798Y-71419695D01*
X162775552Y-71485552D01*
X162709695Y-71565798D01*
X162660760Y-71657350D01*
X162647750Y-71700238D01*
X162646405Y-71695804D01*
X162606755Y-71621624D01*
X162553395Y-71556605D01*
X162488376Y-71503245D01*
X162414196Y-71463595D01*
X162333707Y-71439178D01*
X162250000Y-71430934D01*
X161450000Y-71430934D01*
X161366293Y-71439178D01*
X161285804Y-71463595D01*
X161275050Y-71469343D01*
X161139099Y-71378504D01*
X160970396Y-71308624D01*
X160791301Y-71273000D01*
X160608699Y-71273000D01*
X160429604Y-71308624D01*
X160260901Y-71378504D01*
X160109072Y-71479952D01*
X159979952Y-71609072D01*
X159878504Y-71760901D01*
X159808624Y-71929604D01*
X159773000Y-72108699D01*
X159773000Y-72291301D01*
X159805760Y-72456000D01*
X158470095Y-72456000D01*
X158479550Y-72360000D01*
X158477000Y-72242250D01*
X158345250Y-72110500D01*
X157550500Y-72110500D01*
X157550500Y-72130500D01*
X157549500Y-72130500D01*
X157549500Y-72110500D01*
X157529500Y-72110500D01*
X157529500Y-72109500D01*
X157549500Y-72109500D01*
X157549500Y-71464750D01*
X157550500Y-71464750D01*
X157550500Y-72109500D01*
X158345250Y-72109500D01*
X158477000Y-71977750D01*
X158479550Y-71860000D01*
X158469375Y-71756690D01*
X158439240Y-71657350D01*
X158390305Y-71565798D01*
X158324448Y-71485552D01*
X158244202Y-71419695D01*
X158152650Y-71370760D01*
X158053310Y-71340625D01*
X157950000Y-71330450D01*
X157682250Y-71333000D01*
X157550500Y-71464750D01*
X157549500Y-71464750D01*
X157417750Y-71333000D01*
X157150000Y-71330450D01*
X157046690Y-71340625D01*
X156947350Y-71370760D01*
X156855798Y-71419695D01*
X156775552Y-71485552D01*
X156709695Y-71565798D01*
X156660760Y-71657350D01*
X156647750Y-71700238D01*
X156646405Y-71695804D01*
X156606755Y-71621624D01*
X156553395Y-71556605D01*
X156488376Y-71503245D01*
X156414196Y-71463595D01*
X156333707Y-71439178D01*
X156250000Y-71430934D01*
X155450000Y-71430934D01*
X155366293Y-71439178D01*
X155285804Y-71463595D01*
X155275050Y-71469343D01*
X155139099Y-71378504D01*
X154970396Y-71308624D01*
X154791301Y-71273000D01*
X154608699Y-71273000D01*
X154429604Y-71308624D01*
X154260901Y-71378504D01*
X154109072Y-71479952D01*
X153979952Y-71609072D01*
X153878504Y-71760901D01*
X153808624Y-71929604D01*
X153773000Y-72108699D01*
X153773000Y-72291301D01*
X153805760Y-72456000D01*
X152470095Y-72456000D01*
X152479550Y-72360000D01*
X152477000Y-72242250D01*
X152345250Y-72110500D01*
X151550500Y-72110500D01*
X151550500Y-72130500D01*
X151549500Y-72130500D01*
X151549500Y-72110500D01*
X151529500Y-72110500D01*
X151529500Y-72109500D01*
X151549500Y-72109500D01*
X151549500Y-71464750D01*
X151550500Y-71464750D01*
X151550500Y-72109500D01*
X152345250Y-72109500D01*
X152477000Y-71977750D01*
X152479550Y-71860000D01*
X152469375Y-71756690D01*
X152439240Y-71657350D01*
X152390305Y-71565798D01*
X152324448Y-71485552D01*
X152244202Y-71419695D01*
X152152650Y-71370760D01*
X152053310Y-71340625D01*
X151950000Y-71330450D01*
X151682250Y-71333000D01*
X151550500Y-71464750D01*
X151549500Y-71464750D01*
X151417750Y-71333000D01*
X151150000Y-71330450D01*
X151046690Y-71340625D01*
X150947350Y-71370760D01*
X150855798Y-71419695D01*
X150775552Y-71485552D01*
X150709695Y-71565798D01*
X150660760Y-71657350D01*
X150647750Y-71700238D01*
X150646405Y-71695804D01*
X150606755Y-71621624D01*
X150553395Y-71556605D01*
X150488376Y-71503245D01*
X150414196Y-71463595D01*
X150333707Y-71439178D01*
X150250000Y-71430934D01*
X149450000Y-71430934D01*
X149366293Y-71439178D01*
X149285804Y-71463595D01*
X149211624Y-71503245D01*
X149195693Y-71516319D01*
X149139099Y-71478504D01*
X148970396Y-71408624D01*
X148791301Y-71373000D01*
X148608699Y-71373000D01*
X148429604Y-71408624D01*
X148260901Y-71478504D01*
X148109072Y-71579952D01*
X147979952Y-71709072D01*
X147878504Y-71860901D01*
X147808624Y-72029604D01*
X147773000Y-72208699D01*
X147773000Y-72391301D01*
X147790411Y-72478833D01*
X147708603Y-72454016D01*
X147627212Y-72446000D01*
X147627204Y-72446000D01*
X147600000Y-72443321D01*
X147572796Y-72446000D01*
X146967283Y-72446000D01*
X146968633Y-72443478D01*
X147027169Y-72250848D01*
X147047000Y-72050500D01*
X147047000Y-71750500D01*
X146020500Y-71750500D01*
X146020500Y-71770500D01*
X146019500Y-71770500D01*
X146019500Y-71750500D01*
X144993000Y-71750500D01*
X144993000Y-72050500D01*
X145012831Y-72250848D01*
X145071367Y-72443478D01*
X145072717Y-72446000D01*
X143471080Y-72446000D01*
X143479550Y-72360000D01*
X143477000Y-72242250D01*
X143345250Y-72110500D01*
X142550500Y-72110500D01*
X142550500Y-72130500D01*
X142549500Y-72130500D01*
X142549500Y-72110500D01*
X142529500Y-72110500D01*
X142529500Y-72109500D01*
X142549500Y-72109500D01*
X142549500Y-71464750D01*
X142550500Y-71464750D01*
X142550500Y-72109500D01*
X143345250Y-72109500D01*
X143477000Y-71977750D01*
X143479550Y-71860000D01*
X143469375Y-71756690D01*
X143439240Y-71657350D01*
X143390305Y-71565798D01*
X143324448Y-71485552D01*
X143244202Y-71419695D01*
X143152650Y-71370760D01*
X143053310Y-71340625D01*
X142950000Y-71330450D01*
X142682250Y-71333000D01*
X142550500Y-71464750D01*
X142549500Y-71464750D01*
X142417750Y-71333000D01*
X142150000Y-71330450D01*
X142046690Y-71340625D01*
X141947350Y-71370760D01*
X141855798Y-71419695D01*
X141775552Y-71485552D01*
X141709695Y-71565798D01*
X141660760Y-71657350D01*
X141647750Y-71700238D01*
X141646405Y-71695804D01*
X141606755Y-71621624D01*
X141553395Y-71556605D01*
X141488376Y-71503245D01*
X141414196Y-71463595D01*
X141333707Y-71439178D01*
X141250000Y-71430934D01*
X140450000Y-71430934D01*
X140366293Y-71439178D01*
X140285804Y-71463595D01*
X140275050Y-71469343D01*
X140139099Y-71378504D01*
X139970396Y-71308624D01*
X139791301Y-71273000D01*
X139608699Y-71273000D01*
X139429604Y-71308624D01*
X139260901Y-71378504D01*
X139109072Y-71479952D01*
X138979952Y-71609072D01*
X138878504Y-71760901D01*
X138808624Y-71929604D01*
X138773000Y-72108699D01*
X138773000Y-72291301D01*
X138805760Y-72456000D01*
X138321932Y-72456000D01*
X138328633Y-72443478D01*
X138387169Y-72250848D01*
X138407000Y-72050500D01*
X138407000Y-71750500D01*
X137380500Y-71750500D01*
X137380500Y-71770500D01*
X137379500Y-71770500D01*
X137379500Y-71750500D01*
X136353000Y-71750500D01*
X136353000Y-72050500D01*
X136372831Y-72250848D01*
X136431367Y-72443478D01*
X136438068Y-72456000D01*
X134470095Y-72456000D01*
X134479550Y-72360000D01*
X134477000Y-72242250D01*
X134345250Y-72110500D01*
X133550500Y-72110500D01*
X133550500Y-72130500D01*
X133549500Y-72130500D01*
X133549500Y-72110500D01*
X133529500Y-72110500D01*
X133529500Y-72109500D01*
X133549500Y-72109500D01*
X133549500Y-71464750D01*
X133550500Y-71464750D01*
X133550500Y-72109500D01*
X134345250Y-72109500D01*
X134477000Y-71977750D01*
X134479550Y-71860000D01*
X134469375Y-71756690D01*
X134439240Y-71657350D01*
X134390305Y-71565798D01*
X134324448Y-71485552D01*
X134244202Y-71419695D01*
X134152650Y-71370760D01*
X134053310Y-71340625D01*
X133950000Y-71330450D01*
X133682250Y-71333000D01*
X133550500Y-71464750D01*
X133549500Y-71464750D01*
X133417750Y-71333000D01*
X133150000Y-71330450D01*
X133046690Y-71340625D01*
X132947350Y-71370760D01*
X132855798Y-71419695D01*
X132775552Y-71485552D01*
X132709695Y-71565798D01*
X132660760Y-71657350D01*
X132647750Y-71700238D01*
X132646405Y-71695804D01*
X132606755Y-71621624D01*
X132553395Y-71556605D01*
X132488376Y-71503245D01*
X132414196Y-71463595D01*
X132333707Y-71439178D01*
X132250000Y-71430934D01*
X131450000Y-71430934D01*
X131366293Y-71439178D01*
X131285804Y-71463595D01*
X131275050Y-71469343D01*
X131139099Y-71378504D01*
X130970396Y-71308624D01*
X130791301Y-71273000D01*
X130608699Y-71273000D01*
X130429604Y-71308624D01*
X130260901Y-71378504D01*
X130109072Y-71479952D01*
X129979952Y-71609072D01*
X129878504Y-71760901D01*
X129808624Y-71929604D01*
X129773000Y-72108699D01*
X129773000Y-72291301D01*
X129805760Y-72456000D01*
X128470095Y-72456000D01*
X128479550Y-72360000D01*
X128477000Y-72242250D01*
X128345250Y-72110500D01*
X127550500Y-72110500D01*
X127550500Y-72130500D01*
X127549500Y-72130500D01*
X127549500Y-72110500D01*
X127529500Y-72110500D01*
X127529500Y-72109500D01*
X127549500Y-72109500D01*
X127549500Y-71464750D01*
X127550500Y-71464750D01*
X127550500Y-72109500D01*
X128345250Y-72109500D01*
X128477000Y-71977750D01*
X128479550Y-71860000D01*
X128469375Y-71756690D01*
X128439240Y-71657350D01*
X128390305Y-71565798D01*
X128324448Y-71485552D01*
X128244202Y-71419695D01*
X128152650Y-71370760D01*
X128053310Y-71340625D01*
X127950000Y-71330450D01*
X127682250Y-71333000D01*
X127550500Y-71464750D01*
X127549500Y-71464750D01*
X127417750Y-71333000D01*
X127150000Y-71330450D01*
X127046690Y-71340625D01*
X126947350Y-71370760D01*
X126855798Y-71419695D01*
X126775552Y-71485552D01*
X126709695Y-71565798D01*
X126660760Y-71657350D01*
X126647750Y-71700238D01*
X126646405Y-71695804D01*
X126606755Y-71621624D01*
X126553395Y-71556605D01*
X126488376Y-71503245D01*
X126414196Y-71463595D01*
X126333707Y-71439178D01*
X126250000Y-71430934D01*
X125450000Y-71430934D01*
X125366293Y-71439178D01*
X125285804Y-71463595D01*
X125275050Y-71469343D01*
X125139099Y-71378504D01*
X124970396Y-71308624D01*
X124791301Y-71273000D01*
X124608699Y-71273000D01*
X124429604Y-71308624D01*
X124260901Y-71378504D01*
X124109072Y-71479952D01*
X123979952Y-71609072D01*
X123878504Y-71760901D01*
X123808624Y-71929604D01*
X123773000Y-72108699D01*
X123773000Y-72291301D01*
X123805760Y-72456000D01*
X122470095Y-72456000D01*
X122479550Y-72360000D01*
X122477000Y-72242250D01*
X122345250Y-72110500D01*
X121550500Y-72110500D01*
X121550500Y-72130500D01*
X121549500Y-72130500D01*
X121549500Y-72110500D01*
X121529500Y-72110500D01*
X121529500Y-72109500D01*
X121549500Y-72109500D01*
X121549500Y-71464750D01*
X121550500Y-71464750D01*
X121550500Y-72109500D01*
X122345250Y-72109500D01*
X122477000Y-71977750D01*
X122479550Y-71860000D01*
X122469375Y-71756690D01*
X122439240Y-71657350D01*
X122390305Y-71565798D01*
X122324448Y-71485552D01*
X122244202Y-71419695D01*
X122152650Y-71370760D01*
X122053310Y-71340625D01*
X121950000Y-71330450D01*
X121682250Y-71333000D01*
X121550500Y-71464750D01*
X121549500Y-71464750D01*
X121417750Y-71333000D01*
X121150000Y-71330450D01*
X121046690Y-71340625D01*
X120947350Y-71370760D01*
X120855798Y-71419695D01*
X120775552Y-71485552D01*
X120709695Y-71565798D01*
X120660760Y-71657350D01*
X120647750Y-71700238D01*
X120646405Y-71695804D01*
X120606755Y-71621624D01*
X120553395Y-71556605D01*
X120488376Y-71503245D01*
X120414196Y-71463595D01*
X120333707Y-71439178D01*
X120250000Y-71430934D01*
X119450000Y-71430934D01*
X119366293Y-71439178D01*
X119285804Y-71463595D01*
X119275050Y-71469343D01*
X119139099Y-71378504D01*
X118970396Y-71308624D01*
X118791301Y-71273000D01*
X118608699Y-71273000D01*
X118429604Y-71308624D01*
X118260901Y-71378504D01*
X118227000Y-71401156D01*
X118227000Y-71203115D01*
X136386950Y-71202688D01*
X136372831Y-71249152D01*
X136353000Y-71449500D01*
X136353000Y-71749500D01*
X137379500Y-71749500D01*
X137379500Y-71729500D01*
X137380500Y-71729500D01*
X137380500Y-71749500D01*
X138407000Y-71749500D01*
X138407000Y-71449500D01*
X138387169Y-71249152D01*
X138373035Y-71202641D01*
X145027012Y-71202485D01*
X145012831Y-71249152D01*
X144993000Y-71449500D01*
X144993000Y-71749500D01*
X146019500Y-71749500D01*
X146019500Y-71729500D01*
X146020500Y-71729500D01*
X146020500Y-71749500D01*
X147047000Y-71749500D01*
X147047000Y-71449500D01*
X147027169Y-71249152D01*
X147012974Y-71202438D01*
X165173000Y-71202011D01*
X165173000Y-94273000D01*
X165173000Y-94273000D01*
G37*
X165173000Y-94273000D02*
X162927000Y-94273000D01*
X162927000Y-93050474D01*
X163062495Y-92914979D01*
X163083632Y-92897632D01*
X163152863Y-92813275D01*
X163184749Y-92753619D01*
X163236690Y-92769375D01*
X163340000Y-92779550D01*
X163457750Y-92777000D01*
X163589500Y-92645250D01*
X163589500Y-91850500D01*
X163590500Y-91850500D01*
X163590500Y-92645250D01*
X163722250Y-92777000D01*
X163840000Y-92779550D01*
X163943310Y-92769375D01*
X164042650Y-92739240D01*
X164134202Y-92690305D01*
X164214448Y-92624448D01*
X164280305Y-92544202D01*
X164329240Y-92452650D01*
X164359375Y-92353310D01*
X164369550Y-92250000D01*
X164367000Y-91982250D01*
X164235250Y-91850500D01*
X163590500Y-91850500D01*
X163589500Y-91850500D01*
X163569500Y-91850500D01*
X163569500Y-91849500D01*
X163589500Y-91849500D01*
X163589500Y-91829500D01*
X163590500Y-91829500D01*
X163590500Y-91849500D01*
X164235250Y-91849500D01*
X164367000Y-91717750D01*
X164369550Y-91450000D01*
X164359375Y-91346690D01*
X164329240Y-91247350D01*
X164280305Y-91155798D01*
X164214448Y-91075552D01*
X164134202Y-91009695D01*
X164042650Y-90960760D01*
X163999762Y-90947750D01*
X164004196Y-90946405D01*
X164078376Y-90906755D01*
X164143395Y-90853395D01*
X164196755Y-90788376D01*
X164236405Y-90714196D01*
X164260822Y-90633707D01*
X164269066Y-90550000D01*
X164269066Y-89750000D01*
X164260822Y-89666293D01*
X164257066Y-89653910D01*
X164320048Y-89590928D01*
X164421496Y-89439099D01*
X164491376Y-89270396D01*
X164527000Y-89091301D01*
X164527000Y-88908699D01*
X164491376Y-88729604D01*
X164421496Y-88560901D01*
X164320048Y-88409072D01*
X164190928Y-88279952D01*
X164039099Y-88178504D01*
X163870396Y-88108624D01*
X163691301Y-88073000D01*
X163508699Y-88073000D01*
X163329604Y-88108624D01*
X163244000Y-88144083D01*
X163244000Y-86770095D01*
X163340000Y-86779550D01*
X163457750Y-86777000D01*
X163589500Y-86645250D01*
X163589500Y-85850500D01*
X163590500Y-85850500D01*
X163590500Y-86645250D01*
X163722250Y-86777000D01*
X163840000Y-86779550D01*
X163943310Y-86769375D01*
X164042650Y-86739240D01*
X164134202Y-86690305D01*
X164214448Y-86624448D01*
X164280305Y-86544202D01*
X164329240Y-86452650D01*
X164359375Y-86353310D01*
X164369550Y-86250000D01*
X164367000Y-85982250D01*
X164235250Y-85850500D01*
X163590500Y-85850500D01*
X163589500Y-85850500D01*
X163569500Y-85850500D01*
X163569500Y-85849500D01*
X163589500Y-85849500D01*
X163589500Y-85829500D01*
X163590500Y-85829500D01*
X163590500Y-85849500D01*
X164235250Y-85849500D01*
X164367000Y-85717750D01*
X164369550Y-85450000D01*
X164359375Y-85346690D01*
X164329240Y-85247350D01*
X164280305Y-85155798D01*
X164214448Y-85075552D01*
X164134202Y-85009695D01*
X164042650Y-84960760D01*
X163999762Y-84947750D01*
X164004196Y-84946405D01*
X164078376Y-84906755D01*
X164143395Y-84853395D01*
X164196755Y-84788376D01*
X164236405Y-84714196D01*
X164260822Y-84633707D01*
X164269066Y-84550000D01*
X164269066Y-83750000D01*
X164260822Y-83666293D01*
X164257066Y-83653910D01*
X164320048Y-83590928D01*
X164421496Y-83439099D01*
X164491376Y-83270396D01*
X164527000Y-83091301D01*
X164527000Y-82908699D01*
X164491376Y-82729604D01*
X164421496Y-82560901D01*
X164320048Y-82409072D01*
X164190928Y-82279952D01*
X164039099Y-82178504D01*
X163870396Y-82108624D01*
X163691301Y-82073000D01*
X163508699Y-82073000D01*
X163329604Y-82108624D01*
X163244000Y-82144083D01*
X163244000Y-80770095D01*
X163340000Y-80779550D01*
X163457750Y-80777000D01*
X163589500Y-80645250D01*
X163589500Y-79850500D01*
X163590500Y-79850500D01*
X163590500Y-80645250D01*
X163722250Y-80777000D01*
X163840000Y-80779550D01*
X163943310Y-80769375D01*
X164042650Y-80739240D01*
X164134202Y-80690305D01*
X164214448Y-80624448D01*
X164280305Y-80544202D01*
X164329240Y-80452650D01*
X164359375Y-80353310D01*
X164369550Y-80250000D01*
X164367000Y-79982250D01*
X164235250Y-79850500D01*
X163590500Y-79850500D01*
X163589500Y-79850500D01*
X163569500Y-79850500D01*
X163569500Y-79849500D01*
X163589500Y-79849500D01*
X163589500Y-79829500D01*
X163590500Y-79829500D01*
X163590500Y-79849500D01*
X164235250Y-79849500D01*
X164367000Y-79717750D01*
X164369550Y-79450000D01*
X164359375Y-79346690D01*
X164329240Y-79247350D01*
X164280305Y-79155798D01*
X164214448Y-79075552D01*
X164134202Y-79009695D01*
X164042650Y-78960760D01*
X163999762Y-78947750D01*
X164004196Y-78946405D01*
X164078376Y-78906755D01*
X164143395Y-78853395D01*
X164196755Y-78788376D01*
X164236405Y-78714196D01*
X164260822Y-78633707D01*
X164269066Y-78550000D01*
X164269066Y-77801473D01*
X164390928Y-77720048D01*
X164520048Y-77590928D01*
X164621496Y-77439099D01*
X164691376Y-77270396D01*
X164727000Y-77091301D01*
X164727000Y-76908699D01*
X164691376Y-76729604D01*
X164621496Y-76560901D01*
X164520048Y-76409072D01*
X164390928Y-76279952D01*
X164239099Y-76178504D01*
X164070396Y-76108624D01*
X163891301Y-76073000D01*
X163710474Y-76073000D01*
X164672501Y-75110974D01*
X164693632Y-75093632D01*
X164710974Y-75072501D01*
X164710979Y-75072496D01*
X164762863Y-75009275D01*
X164814305Y-74913033D01*
X164845984Y-74808603D01*
X164850472Y-74763032D01*
X164854000Y-74727212D01*
X164854000Y-74727204D01*
X164856679Y-74700000D01*
X164854000Y-74672796D01*
X164854000Y-73133212D01*
X164856680Y-73106000D01*
X164851890Y-73057365D01*
X164845984Y-72997397D01*
X164814305Y-72892968D01*
X164762863Y-72796725D01*
X164693632Y-72712368D01*
X164672494Y-72695020D01*
X164614982Y-72637509D01*
X164597632Y-72616368D01*
X164513275Y-72547137D01*
X164453619Y-72515251D01*
X164469375Y-72463310D01*
X164479550Y-72360000D01*
X164477000Y-72242250D01*
X164345250Y-72110500D01*
X163550500Y-72110500D01*
X163550500Y-72130500D01*
X163549500Y-72130500D01*
X163549500Y-72110500D01*
X163529500Y-72110500D01*
X163529500Y-72109500D01*
X163549500Y-72109500D01*
X163549500Y-71464750D01*
X163550500Y-71464750D01*
X163550500Y-72109500D01*
X164345250Y-72109500D01*
X164477000Y-71977750D01*
X164479550Y-71860000D01*
X164469375Y-71756690D01*
X164439240Y-71657350D01*
X164390305Y-71565798D01*
X164324448Y-71485552D01*
X164244202Y-71419695D01*
X164152650Y-71370760D01*
X164053310Y-71340625D01*
X163950000Y-71330450D01*
X163682250Y-71333000D01*
X163550500Y-71464750D01*
X163549500Y-71464750D01*
X163417750Y-71333000D01*
X163150000Y-71330450D01*
X163046690Y-71340625D01*
X162947350Y-71370760D01*
X162855798Y-71419695D01*
X162775552Y-71485552D01*
X162709695Y-71565798D01*
X162660760Y-71657350D01*
X162647750Y-71700238D01*
X162646405Y-71695804D01*
X162606755Y-71621624D01*
X162553395Y-71556605D01*
X162488376Y-71503245D01*
X162414196Y-71463595D01*
X162333707Y-71439178D01*
X162250000Y-71430934D01*
X161450000Y-71430934D01*
X161366293Y-71439178D01*
X161285804Y-71463595D01*
X161275050Y-71469343D01*
X161139099Y-71378504D01*
X160970396Y-71308624D01*
X160791301Y-71273000D01*
X160608699Y-71273000D01*
X160429604Y-71308624D01*
X160260901Y-71378504D01*
X160109072Y-71479952D01*
X159979952Y-71609072D01*
X159878504Y-71760901D01*
X159808624Y-71929604D01*
X159773000Y-72108699D01*
X159773000Y-72291301D01*
X159805760Y-72456000D01*
X158470095Y-72456000D01*
X158479550Y-72360000D01*
X158477000Y-72242250D01*
X158345250Y-72110500D01*
X157550500Y-72110500D01*
X157550500Y-72130500D01*
X157549500Y-72130500D01*
X157549500Y-72110500D01*
X157529500Y-72110500D01*
X157529500Y-72109500D01*
X157549500Y-72109500D01*
X157549500Y-71464750D01*
X157550500Y-71464750D01*
X157550500Y-72109500D01*
X158345250Y-72109500D01*
X158477000Y-71977750D01*
X158479550Y-71860000D01*
X158469375Y-71756690D01*
X158439240Y-71657350D01*
X158390305Y-71565798D01*
X158324448Y-71485552D01*
X158244202Y-71419695D01*
X158152650Y-71370760D01*
X158053310Y-71340625D01*
X157950000Y-71330450D01*
X157682250Y-71333000D01*
X157550500Y-71464750D01*
X157549500Y-71464750D01*
X157417750Y-71333000D01*
X157150000Y-71330450D01*
X157046690Y-71340625D01*
X156947350Y-71370760D01*
X156855798Y-71419695D01*
X156775552Y-71485552D01*
X156709695Y-71565798D01*
X156660760Y-71657350D01*
X156647750Y-71700238D01*
X156646405Y-71695804D01*
X156606755Y-71621624D01*
X156553395Y-71556605D01*
X156488376Y-71503245D01*
X156414196Y-71463595D01*
X156333707Y-71439178D01*
X156250000Y-71430934D01*
X155450000Y-71430934D01*
X155366293Y-71439178D01*
X155285804Y-71463595D01*
X155275050Y-71469343D01*
X155139099Y-71378504D01*
X154970396Y-71308624D01*
X154791301Y-71273000D01*
X154608699Y-71273000D01*
X154429604Y-71308624D01*
X154260901Y-71378504D01*
X154109072Y-71479952D01*
X153979952Y-71609072D01*
X153878504Y-71760901D01*
X153808624Y-71929604D01*
X153773000Y-72108699D01*
X153773000Y-72291301D01*
X153805760Y-72456000D01*
X152470095Y-72456000D01*
X152479550Y-72360000D01*
X152477000Y-72242250D01*
X152345250Y-72110500D01*
X151550500Y-72110500D01*
X151550500Y-72130500D01*
X151549500Y-72130500D01*
X151549500Y-72110500D01*
X151529500Y-72110500D01*
X151529500Y-72109500D01*
X151549500Y-72109500D01*
X151549500Y-71464750D01*
X151550500Y-71464750D01*
X151550500Y-72109500D01*
X152345250Y-72109500D01*
X152477000Y-71977750D01*
X152479550Y-71860000D01*
X152469375Y-71756690D01*
X152439240Y-71657350D01*
X152390305Y-71565798D01*
X152324448Y-71485552D01*
X152244202Y-71419695D01*
X152152650Y-71370760D01*
X152053310Y-71340625D01*
X151950000Y-71330450D01*
X151682250Y-71333000D01*
X151550500Y-71464750D01*
X151549500Y-71464750D01*
X151417750Y-71333000D01*
X151150000Y-71330450D01*
X151046690Y-71340625D01*
X150947350Y-71370760D01*
X150855798Y-71419695D01*
X150775552Y-71485552D01*
X150709695Y-71565798D01*
X150660760Y-71657350D01*
X150647750Y-71700238D01*
X150646405Y-71695804D01*
X150606755Y-71621624D01*
X150553395Y-71556605D01*
X150488376Y-71503245D01*
X150414196Y-71463595D01*
X150333707Y-71439178D01*
X150250000Y-71430934D01*
X149450000Y-71430934D01*
X149366293Y-71439178D01*
X149285804Y-71463595D01*
X149211624Y-71503245D01*
X149195693Y-71516319D01*
X149139099Y-71478504D01*
X148970396Y-71408624D01*
X148791301Y-71373000D01*
X148608699Y-71373000D01*
X148429604Y-71408624D01*
X148260901Y-71478504D01*
X148109072Y-71579952D01*
X147979952Y-71709072D01*
X147878504Y-71860901D01*
X147808624Y-72029604D01*
X147773000Y-72208699D01*
X147773000Y-72391301D01*
X147790411Y-72478833D01*
X147708603Y-72454016D01*
X147627212Y-72446000D01*
X147627204Y-72446000D01*
X147600000Y-72443321D01*
X147572796Y-72446000D01*
X146967283Y-72446000D01*
X146968633Y-72443478D01*
X147027169Y-72250848D01*
X147047000Y-72050500D01*
X147047000Y-71750500D01*
X146020500Y-71750500D01*
X146020500Y-71770500D01*
X146019500Y-71770500D01*
X146019500Y-71750500D01*
X144993000Y-71750500D01*
X144993000Y-72050500D01*
X145012831Y-72250848D01*
X145071367Y-72443478D01*
X145072717Y-72446000D01*
X143471080Y-72446000D01*
X143479550Y-72360000D01*
X143477000Y-72242250D01*
X143345250Y-72110500D01*
X142550500Y-72110500D01*
X142550500Y-72130500D01*
X142549500Y-72130500D01*
X142549500Y-72110500D01*
X142529500Y-72110500D01*
X142529500Y-72109500D01*
X142549500Y-72109500D01*
X142549500Y-71464750D01*
X142550500Y-71464750D01*
X142550500Y-72109500D01*
X143345250Y-72109500D01*
X143477000Y-71977750D01*
X143479550Y-71860000D01*
X143469375Y-71756690D01*
X143439240Y-71657350D01*
X143390305Y-71565798D01*
X143324448Y-71485552D01*
X143244202Y-71419695D01*
X143152650Y-71370760D01*
X143053310Y-71340625D01*
X142950000Y-71330450D01*
X142682250Y-71333000D01*
X142550500Y-71464750D01*
X142549500Y-71464750D01*
X142417750Y-71333000D01*
X142150000Y-71330450D01*
X142046690Y-71340625D01*
X141947350Y-71370760D01*
X141855798Y-71419695D01*
X141775552Y-71485552D01*
X141709695Y-71565798D01*
X141660760Y-71657350D01*
X141647750Y-71700238D01*
X141646405Y-71695804D01*
X141606755Y-71621624D01*
X141553395Y-71556605D01*
X141488376Y-71503245D01*
X141414196Y-71463595D01*
X141333707Y-71439178D01*
X141250000Y-71430934D01*
X140450000Y-71430934D01*
X140366293Y-71439178D01*
X140285804Y-71463595D01*
X140275050Y-71469343D01*
X140139099Y-71378504D01*
X139970396Y-71308624D01*
X139791301Y-71273000D01*
X139608699Y-71273000D01*
X139429604Y-71308624D01*
X139260901Y-71378504D01*
X139109072Y-71479952D01*
X138979952Y-71609072D01*
X138878504Y-71760901D01*
X138808624Y-71929604D01*
X138773000Y-72108699D01*
X138773000Y-72291301D01*
X138805760Y-72456000D01*
X138321932Y-72456000D01*
X138328633Y-72443478D01*
X138387169Y-72250848D01*
X138407000Y-72050500D01*
X138407000Y-71750500D01*
X137380500Y-71750500D01*
X137380500Y-71770500D01*
X137379500Y-71770500D01*
X137379500Y-71750500D01*
X136353000Y-71750500D01*
X136353000Y-72050500D01*
X136372831Y-72250848D01*
X136431367Y-72443478D01*
X136438068Y-72456000D01*
X134470095Y-72456000D01*
X134479550Y-72360000D01*
X134477000Y-72242250D01*
X134345250Y-72110500D01*
X133550500Y-72110500D01*
X133550500Y-72130500D01*
X133549500Y-72130500D01*
X133549500Y-72110500D01*
X133529500Y-72110500D01*
X133529500Y-72109500D01*
X133549500Y-72109500D01*
X133549500Y-71464750D01*
X133550500Y-71464750D01*
X133550500Y-72109500D01*
X134345250Y-72109500D01*
X134477000Y-71977750D01*
X134479550Y-71860000D01*
X134469375Y-71756690D01*
X134439240Y-71657350D01*
X134390305Y-71565798D01*
X134324448Y-71485552D01*
X134244202Y-71419695D01*
X134152650Y-71370760D01*
X134053310Y-71340625D01*
X133950000Y-71330450D01*
X133682250Y-71333000D01*
X133550500Y-71464750D01*
X133549500Y-71464750D01*
X133417750Y-71333000D01*
X133150000Y-71330450D01*
X133046690Y-71340625D01*
X132947350Y-71370760D01*
X132855798Y-71419695D01*
X132775552Y-71485552D01*
X132709695Y-71565798D01*
X132660760Y-71657350D01*
X132647750Y-71700238D01*
X132646405Y-71695804D01*
X132606755Y-71621624D01*
X132553395Y-71556605D01*
X132488376Y-71503245D01*
X132414196Y-71463595D01*
X132333707Y-71439178D01*
X132250000Y-71430934D01*
X131450000Y-71430934D01*
X131366293Y-71439178D01*
X131285804Y-71463595D01*
X131275050Y-71469343D01*
X131139099Y-71378504D01*
X130970396Y-71308624D01*
X130791301Y-71273000D01*
X130608699Y-71273000D01*
X130429604Y-71308624D01*
X130260901Y-71378504D01*
X130109072Y-71479952D01*
X129979952Y-71609072D01*
X129878504Y-71760901D01*
X129808624Y-71929604D01*
X129773000Y-72108699D01*
X129773000Y-72291301D01*
X129805760Y-72456000D01*
X128470095Y-72456000D01*
X128479550Y-72360000D01*
X128477000Y-72242250D01*
X128345250Y-72110500D01*
X127550500Y-72110500D01*
X127550500Y-72130500D01*
X127549500Y-72130500D01*
X127549500Y-72110500D01*
X127529500Y-72110500D01*
X127529500Y-72109500D01*
X127549500Y-72109500D01*
X127549500Y-71464750D01*
X127550500Y-71464750D01*
X127550500Y-72109500D01*
X128345250Y-72109500D01*
X128477000Y-71977750D01*
X128479550Y-71860000D01*
X128469375Y-71756690D01*
X128439240Y-71657350D01*
X128390305Y-71565798D01*
X128324448Y-71485552D01*
X128244202Y-71419695D01*
X128152650Y-71370760D01*
X128053310Y-71340625D01*
X127950000Y-71330450D01*
X127682250Y-71333000D01*
X127550500Y-71464750D01*
X127549500Y-71464750D01*
X127417750Y-71333000D01*
X127150000Y-71330450D01*
X127046690Y-71340625D01*
X126947350Y-71370760D01*
X126855798Y-71419695D01*
X126775552Y-71485552D01*
X126709695Y-71565798D01*
X126660760Y-71657350D01*
X126647750Y-71700238D01*
X126646405Y-71695804D01*
X126606755Y-71621624D01*
X126553395Y-71556605D01*
X126488376Y-71503245D01*
X126414196Y-71463595D01*
X126333707Y-71439178D01*
X126250000Y-71430934D01*
X125450000Y-71430934D01*
X125366293Y-71439178D01*
X125285804Y-71463595D01*
X125275050Y-71469343D01*
X125139099Y-71378504D01*
X124970396Y-71308624D01*
X124791301Y-71273000D01*
X124608699Y-71273000D01*
X124429604Y-71308624D01*
X124260901Y-71378504D01*
X124109072Y-71479952D01*
X123979952Y-71609072D01*
X123878504Y-71760901D01*
X123808624Y-71929604D01*
X123773000Y-72108699D01*
X123773000Y-72291301D01*
X123805760Y-72456000D01*
X122470095Y-72456000D01*
X122479550Y-72360000D01*
X122477000Y-72242250D01*
X122345250Y-72110500D01*
X121550500Y-72110500D01*
X121550500Y-72130500D01*
X121549500Y-72130500D01*
X121549500Y-72110500D01*
X121529500Y-72110500D01*
X121529500Y-72109500D01*
X121549500Y-72109500D01*
X121549500Y-71464750D01*
X121550500Y-71464750D01*
X121550500Y-72109500D01*
X122345250Y-72109500D01*
X122477000Y-71977750D01*
X122479550Y-71860000D01*
X122469375Y-71756690D01*
X122439240Y-71657350D01*
X122390305Y-71565798D01*
X122324448Y-71485552D01*
X122244202Y-71419695D01*
X122152650Y-71370760D01*
X122053310Y-71340625D01*
X121950000Y-71330450D01*
X121682250Y-71333000D01*
X121550500Y-71464750D01*
X121549500Y-71464750D01*
X121417750Y-71333000D01*
X121150000Y-71330450D01*
X121046690Y-71340625D01*
X120947350Y-71370760D01*
X120855798Y-71419695D01*
X120775552Y-71485552D01*
X120709695Y-71565798D01*
X120660760Y-71657350D01*
X120647750Y-71700238D01*
X120646405Y-71695804D01*
X120606755Y-71621624D01*
X120553395Y-71556605D01*
X120488376Y-71503245D01*
X120414196Y-71463595D01*
X120333707Y-71439178D01*
X120250000Y-71430934D01*
X119450000Y-71430934D01*
X119366293Y-71439178D01*
X119285804Y-71463595D01*
X119275050Y-71469343D01*
X119139099Y-71378504D01*
X118970396Y-71308624D01*
X118791301Y-71273000D01*
X118608699Y-71273000D01*
X118429604Y-71308624D01*
X118260901Y-71378504D01*
X118227000Y-71401156D01*
X118227000Y-71203115D01*
X136386950Y-71202688D01*
X136372831Y-71249152D01*
X136353000Y-71449500D01*
X136353000Y-71749500D01*
X137379500Y-71749500D01*
X137379500Y-71729500D01*
X137380500Y-71729500D01*
X137380500Y-71749500D01*
X138407000Y-71749500D01*
X138407000Y-71449500D01*
X138387169Y-71249152D01*
X138373035Y-71202641D01*
X145027012Y-71202485D01*
X145012831Y-71249152D01*
X144993000Y-71449500D01*
X144993000Y-71749500D01*
X146019500Y-71749500D01*
X146019500Y-71729500D01*
X146020500Y-71729500D01*
X146020500Y-71749500D01*
X147047000Y-71749500D01*
X147047000Y-71449500D01*
X147027169Y-71249152D01*
X147012974Y-71202438D01*
X165173000Y-71202011D01*
X165173000Y-94273000D01*
M02*
