G04 #@! TF.GenerationSoftware,KiCad,Pcbnew,(5.1.4-0)*
G04 #@! TF.CreationDate,2019-12-01T19:05:18-06:00*
G04 #@! TF.ProjectId,veccart,76656363-6172-4742-9e6b-696361645f70,v0.2*
G04 #@! TF.SameCoordinates,Original*
G04 #@! TF.FileFunction,Paste,Top*
G04 #@! TF.FilePolarity,Positive*
%FSLAX46Y46*%
G04 Gerber Fmt 4.6, Leading zero omitted, Abs format (unit mm)*
G04 Created by KiCad (PCBNEW (5.1.4-0)) date 2019-12-01 19:05:18*
%MOMM*%
%LPD*%
G04 APERTURE LIST*
%ADD10R,0.500000X0.800000*%
%ADD11R,0.300000X0.800000*%
%ADD12R,0.800000X0.500000*%
%ADD13R,0.800000X0.300000*%
%ADD14R,3.500000X2.400000*%
%ADD15C,0.100000*%
%ADD16C,1.150000*%
%ADD17R,0.900000X1.200000*%
%ADD18C,0.600000*%
G04 APERTURE END LIST*
D10*
X163590000Y-91850000D03*
X161790000Y-91850000D03*
D11*
X162690000Y-91850000D03*
D10*
X161790000Y-90150000D03*
D11*
X162690000Y-90150000D03*
D10*
X163590000Y-90150000D03*
X163590000Y-85850000D03*
X161790000Y-85850000D03*
D11*
X162690000Y-85850000D03*
D10*
X161790000Y-84150000D03*
D11*
X162690000Y-84150000D03*
D10*
X163590000Y-84150000D03*
X163590000Y-79850000D03*
X161790000Y-79850000D03*
D11*
X162690000Y-79850000D03*
D10*
X161790000Y-78150000D03*
D11*
X162690000Y-78150000D03*
D10*
X163590000Y-78150000D03*
D12*
X163550000Y-72110000D03*
X163550000Y-73910000D03*
D13*
X163550000Y-73010000D03*
D12*
X161850000Y-73910000D03*
D13*
X161850000Y-73010000D03*
D12*
X161850000Y-72110000D03*
X157550000Y-72110000D03*
X157550000Y-73910000D03*
D13*
X157550000Y-73010000D03*
D12*
X155850000Y-73910000D03*
D13*
X155850000Y-73010000D03*
D12*
X155850000Y-72110000D03*
X151550000Y-72110000D03*
X151550000Y-73910000D03*
D13*
X151550000Y-73010000D03*
D12*
X149850000Y-73910000D03*
D13*
X149850000Y-73010000D03*
D12*
X149850000Y-72110000D03*
X142550000Y-72110000D03*
X142550000Y-73910000D03*
D13*
X142550000Y-73010000D03*
D12*
X140850000Y-73910000D03*
D13*
X140850000Y-73010000D03*
D12*
X140850000Y-72110000D03*
X133550000Y-72110000D03*
X133550000Y-73910000D03*
D13*
X133550000Y-73010000D03*
D12*
X131850000Y-73910000D03*
D13*
X131850000Y-73010000D03*
D12*
X131850000Y-72110000D03*
X127550000Y-72110000D03*
X127550000Y-73910000D03*
D13*
X127550000Y-73010000D03*
D12*
X125850000Y-73910000D03*
D13*
X125850000Y-73010000D03*
D12*
X125850000Y-72110000D03*
X121550000Y-72110000D03*
X121550000Y-73910000D03*
D13*
X121550000Y-73010000D03*
D12*
X119850000Y-73910000D03*
D13*
X119850000Y-73010000D03*
D12*
X119850000Y-72110000D03*
D14*
X133280800Y-102489000D03*
X138480800Y-102489000D03*
D15*
G36*
X141099505Y-76301204D02*
G01*
X141123773Y-76304804D01*
X141147572Y-76310765D01*
X141170671Y-76319030D01*
X141192850Y-76329520D01*
X141213893Y-76342132D01*
X141233599Y-76356747D01*
X141251777Y-76373223D01*
X141268253Y-76391401D01*
X141282868Y-76411107D01*
X141295480Y-76432150D01*
X141305970Y-76454329D01*
X141314235Y-76477428D01*
X141320196Y-76501227D01*
X141323796Y-76525495D01*
X141325000Y-76549999D01*
X141325000Y-77450001D01*
X141323796Y-77474505D01*
X141320196Y-77498773D01*
X141314235Y-77522572D01*
X141305970Y-77545671D01*
X141295480Y-77567850D01*
X141282868Y-77588893D01*
X141268253Y-77608599D01*
X141251777Y-77626777D01*
X141233599Y-77643253D01*
X141213893Y-77657868D01*
X141192850Y-77670480D01*
X141170671Y-77680970D01*
X141147572Y-77689235D01*
X141123773Y-77695196D01*
X141099505Y-77698796D01*
X141075001Y-77700000D01*
X140424999Y-77700000D01*
X140400495Y-77698796D01*
X140376227Y-77695196D01*
X140352428Y-77689235D01*
X140329329Y-77680970D01*
X140307150Y-77670480D01*
X140286107Y-77657868D01*
X140266401Y-77643253D01*
X140248223Y-77626777D01*
X140231747Y-77608599D01*
X140217132Y-77588893D01*
X140204520Y-77567850D01*
X140194030Y-77545671D01*
X140185765Y-77522572D01*
X140179804Y-77498773D01*
X140176204Y-77474505D01*
X140175000Y-77450001D01*
X140175000Y-76549999D01*
X140176204Y-76525495D01*
X140179804Y-76501227D01*
X140185765Y-76477428D01*
X140194030Y-76454329D01*
X140204520Y-76432150D01*
X140217132Y-76411107D01*
X140231747Y-76391401D01*
X140248223Y-76373223D01*
X140266401Y-76356747D01*
X140286107Y-76342132D01*
X140307150Y-76329520D01*
X140329329Y-76319030D01*
X140352428Y-76310765D01*
X140376227Y-76304804D01*
X140400495Y-76301204D01*
X140424999Y-76300000D01*
X141075001Y-76300000D01*
X141099505Y-76301204D01*
X141099505Y-76301204D01*
G37*
D16*
X140750000Y-77000000D03*
D15*
G36*
X143149505Y-76301204D02*
G01*
X143173773Y-76304804D01*
X143197572Y-76310765D01*
X143220671Y-76319030D01*
X143242850Y-76329520D01*
X143263893Y-76342132D01*
X143283599Y-76356747D01*
X143301777Y-76373223D01*
X143318253Y-76391401D01*
X143332868Y-76411107D01*
X143345480Y-76432150D01*
X143355970Y-76454329D01*
X143364235Y-76477428D01*
X143370196Y-76501227D01*
X143373796Y-76525495D01*
X143375000Y-76549999D01*
X143375000Y-77450001D01*
X143373796Y-77474505D01*
X143370196Y-77498773D01*
X143364235Y-77522572D01*
X143355970Y-77545671D01*
X143345480Y-77567850D01*
X143332868Y-77588893D01*
X143318253Y-77608599D01*
X143301777Y-77626777D01*
X143283599Y-77643253D01*
X143263893Y-77657868D01*
X143242850Y-77670480D01*
X143220671Y-77680970D01*
X143197572Y-77689235D01*
X143173773Y-77695196D01*
X143149505Y-77698796D01*
X143125001Y-77700000D01*
X142474999Y-77700000D01*
X142450495Y-77698796D01*
X142426227Y-77695196D01*
X142402428Y-77689235D01*
X142379329Y-77680970D01*
X142357150Y-77670480D01*
X142336107Y-77657868D01*
X142316401Y-77643253D01*
X142298223Y-77626777D01*
X142281747Y-77608599D01*
X142267132Y-77588893D01*
X142254520Y-77567850D01*
X142244030Y-77545671D01*
X142235765Y-77522572D01*
X142229804Y-77498773D01*
X142226204Y-77474505D01*
X142225000Y-77450001D01*
X142225000Y-76549999D01*
X142226204Y-76525495D01*
X142229804Y-76501227D01*
X142235765Y-76477428D01*
X142244030Y-76454329D01*
X142254520Y-76432150D01*
X142267132Y-76411107D01*
X142281747Y-76391401D01*
X142298223Y-76373223D01*
X142316401Y-76356747D01*
X142336107Y-76342132D01*
X142357150Y-76329520D01*
X142379329Y-76319030D01*
X142402428Y-76310765D01*
X142426227Y-76304804D01*
X142450495Y-76301204D01*
X142474999Y-76300000D01*
X143125001Y-76300000D01*
X143149505Y-76301204D01*
X143149505Y-76301204D01*
G37*
D16*
X142800000Y-77000000D03*
D15*
G36*
X145265505Y-94830604D02*
G01*
X145289773Y-94834204D01*
X145313572Y-94840165D01*
X145336671Y-94848430D01*
X145358850Y-94858920D01*
X145379893Y-94871532D01*
X145399599Y-94886147D01*
X145417777Y-94902623D01*
X145434253Y-94920801D01*
X145448868Y-94940507D01*
X145461480Y-94961550D01*
X145471970Y-94983729D01*
X145480235Y-95006828D01*
X145486196Y-95030627D01*
X145489796Y-95054895D01*
X145491000Y-95079399D01*
X145491000Y-95979401D01*
X145489796Y-96003905D01*
X145486196Y-96028173D01*
X145480235Y-96051972D01*
X145471970Y-96075071D01*
X145461480Y-96097250D01*
X145448868Y-96118293D01*
X145434253Y-96137999D01*
X145417777Y-96156177D01*
X145399599Y-96172653D01*
X145379893Y-96187268D01*
X145358850Y-96199880D01*
X145336671Y-96210370D01*
X145313572Y-96218635D01*
X145289773Y-96224596D01*
X145265505Y-96228196D01*
X145241001Y-96229400D01*
X144590999Y-96229400D01*
X144566495Y-96228196D01*
X144542227Y-96224596D01*
X144518428Y-96218635D01*
X144495329Y-96210370D01*
X144473150Y-96199880D01*
X144452107Y-96187268D01*
X144432401Y-96172653D01*
X144414223Y-96156177D01*
X144397747Y-96137999D01*
X144383132Y-96118293D01*
X144370520Y-96097250D01*
X144360030Y-96075071D01*
X144351765Y-96051972D01*
X144345804Y-96028173D01*
X144342204Y-96003905D01*
X144341000Y-95979401D01*
X144341000Y-95079399D01*
X144342204Y-95054895D01*
X144345804Y-95030627D01*
X144351765Y-95006828D01*
X144360030Y-94983729D01*
X144370520Y-94961550D01*
X144383132Y-94940507D01*
X144397747Y-94920801D01*
X144414223Y-94902623D01*
X144432401Y-94886147D01*
X144452107Y-94871532D01*
X144473150Y-94858920D01*
X144495329Y-94848430D01*
X144518428Y-94840165D01*
X144542227Y-94834204D01*
X144566495Y-94830604D01*
X144590999Y-94829400D01*
X145241001Y-94829400D01*
X145265505Y-94830604D01*
X145265505Y-94830604D01*
G37*
D16*
X144916000Y-95529400D03*
D15*
G36*
X143215505Y-94830604D02*
G01*
X143239773Y-94834204D01*
X143263572Y-94840165D01*
X143286671Y-94848430D01*
X143308850Y-94858920D01*
X143329893Y-94871532D01*
X143349599Y-94886147D01*
X143367777Y-94902623D01*
X143384253Y-94920801D01*
X143398868Y-94940507D01*
X143411480Y-94961550D01*
X143421970Y-94983729D01*
X143430235Y-95006828D01*
X143436196Y-95030627D01*
X143439796Y-95054895D01*
X143441000Y-95079399D01*
X143441000Y-95979401D01*
X143439796Y-96003905D01*
X143436196Y-96028173D01*
X143430235Y-96051972D01*
X143421970Y-96075071D01*
X143411480Y-96097250D01*
X143398868Y-96118293D01*
X143384253Y-96137999D01*
X143367777Y-96156177D01*
X143349599Y-96172653D01*
X143329893Y-96187268D01*
X143308850Y-96199880D01*
X143286671Y-96210370D01*
X143263572Y-96218635D01*
X143239773Y-96224596D01*
X143215505Y-96228196D01*
X143191001Y-96229400D01*
X142540999Y-96229400D01*
X142516495Y-96228196D01*
X142492227Y-96224596D01*
X142468428Y-96218635D01*
X142445329Y-96210370D01*
X142423150Y-96199880D01*
X142402107Y-96187268D01*
X142382401Y-96172653D01*
X142364223Y-96156177D01*
X142347747Y-96137999D01*
X142333132Y-96118293D01*
X142320520Y-96097250D01*
X142310030Y-96075071D01*
X142301765Y-96051972D01*
X142295804Y-96028173D01*
X142292204Y-96003905D01*
X142291000Y-95979401D01*
X142291000Y-95079399D01*
X142292204Y-95054895D01*
X142295804Y-95030627D01*
X142301765Y-95006828D01*
X142310030Y-94983729D01*
X142320520Y-94961550D01*
X142333132Y-94940507D01*
X142347747Y-94920801D01*
X142364223Y-94902623D01*
X142382401Y-94886147D01*
X142402107Y-94871532D01*
X142423150Y-94858920D01*
X142445329Y-94848430D01*
X142468428Y-94840165D01*
X142492227Y-94834204D01*
X142516495Y-94830604D01*
X142540999Y-94829400D01*
X143191001Y-94829400D01*
X143215505Y-94830604D01*
X143215505Y-94830604D01*
G37*
D16*
X142866000Y-95529400D03*
D15*
G36*
X141114305Y-95810204D02*
G01*
X141138573Y-95813804D01*
X141162372Y-95819765D01*
X141185471Y-95828030D01*
X141207650Y-95838520D01*
X141228693Y-95851132D01*
X141248399Y-95865747D01*
X141266577Y-95882223D01*
X141283053Y-95900401D01*
X141297668Y-95920107D01*
X141310280Y-95941150D01*
X141320770Y-95963329D01*
X141329035Y-95986428D01*
X141334996Y-96010227D01*
X141338596Y-96034495D01*
X141339800Y-96058999D01*
X141339800Y-96709001D01*
X141338596Y-96733505D01*
X141334996Y-96757773D01*
X141329035Y-96781572D01*
X141320770Y-96804671D01*
X141310280Y-96826850D01*
X141297668Y-96847893D01*
X141283053Y-96867599D01*
X141266577Y-96885777D01*
X141248399Y-96902253D01*
X141228693Y-96916868D01*
X141207650Y-96929480D01*
X141185471Y-96939970D01*
X141162372Y-96948235D01*
X141138573Y-96954196D01*
X141114305Y-96957796D01*
X141089801Y-96959000D01*
X140189799Y-96959000D01*
X140165295Y-96957796D01*
X140141027Y-96954196D01*
X140117228Y-96948235D01*
X140094129Y-96939970D01*
X140071950Y-96929480D01*
X140050907Y-96916868D01*
X140031201Y-96902253D01*
X140013023Y-96885777D01*
X139996547Y-96867599D01*
X139981932Y-96847893D01*
X139969320Y-96826850D01*
X139958830Y-96804671D01*
X139950565Y-96781572D01*
X139944604Y-96757773D01*
X139941004Y-96733505D01*
X139939800Y-96709001D01*
X139939800Y-96058999D01*
X139941004Y-96034495D01*
X139944604Y-96010227D01*
X139950565Y-95986428D01*
X139958830Y-95963329D01*
X139969320Y-95941150D01*
X139981932Y-95920107D01*
X139996547Y-95900401D01*
X140013023Y-95882223D01*
X140031201Y-95865747D01*
X140050907Y-95851132D01*
X140071950Y-95838520D01*
X140094129Y-95828030D01*
X140117228Y-95819765D01*
X140141027Y-95813804D01*
X140165295Y-95810204D01*
X140189799Y-95809000D01*
X141089801Y-95809000D01*
X141114305Y-95810204D01*
X141114305Y-95810204D01*
G37*
D16*
X140639800Y-96384000D03*
D15*
G36*
X141114305Y-97860204D02*
G01*
X141138573Y-97863804D01*
X141162372Y-97869765D01*
X141185471Y-97878030D01*
X141207650Y-97888520D01*
X141228693Y-97901132D01*
X141248399Y-97915747D01*
X141266577Y-97932223D01*
X141283053Y-97950401D01*
X141297668Y-97970107D01*
X141310280Y-97991150D01*
X141320770Y-98013329D01*
X141329035Y-98036428D01*
X141334996Y-98060227D01*
X141338596Y-98084495D01*
X141339800Y-98108999D01*
X141339800Y-98759001D01*
X141338596Y-98783505D01*
X141334996Y-98807773D01*
X141329035Y-98831572D01*
X141320770Y-98854671D01*
X141310280Y-98876850D01*
X141297668Y-98897893D01*
X141283053Y-98917599D01*
X141266577Y-98935777D01*
X141248399Y-98952253D01*
X141228693Y-98966868D01*
X141207650Y-98979480D01*
X141185471Y-98989970D01*
X141162372Y-98998235D01*
X141138573Y-99004196D01*
X141114305Y-99007796D01*
X141089801Y-99009000D01*
X140189799Y-99009000D01*
X140165295Y-99007796D01*
X140141027Y-99004196D01*
X140117228Y-98998235D01*
X140094129Y-98989970D01*
X140071950Y-98979480D01*
X140050907Y-98966868D01*
X140031201Y-98952253D01*
X140013023Y-98935777D01*
X139996547Y-98917599D01*
X139981932Y-98897893D01*
X139969320Y-98876850D01*
X139958830Y-98854671D01*
X139950565Y-98831572D01*
X139944604Y-98807773D01*
X139941004Y-98783505D01*
X139939800Y-98759001D01*
X139939800Y-98108999D01*
X139941004Y-98084495D01*
X139944604Y-98060227D01*
X139950565Y-98036428D01*
X139958830Y-98013329D01*
X139969320Y-97991150D01*
X139981932Y-97970107D01*
X139996547Y-97950401D01*
X140013023Y-97932223D01*
X140031201Y-97915747D01*
X140050907Y-97901132D01*
X140071950Y-97888520D01*
X140094129Y-97878030D01*
X140117228Y-97869765D01*
X140141027Y-97863804D01*
X140165295Y-97860204D01*
X140189799Y-97859000D01*
X141089801Y-97859000D01*
X141114305Y-97860204D01*
X141114305Y-97860204D01*
G37*
D16*
X140639800Y-98434000D03*
D15*
G36*
X145367105Y-99453404D02*
G01*
X145391373Y-99457004D01*
X145415172Y-99462965D01*
X145438271Y-99471230D01*
X145460450Y-99481720D01*
X145481493Y-99494332D01*
X145501199Y-99508947D01*
X145519377Y-99525423D01*
X145535853Y-99543601D01*
X145550468Y-99563307D01*
X145563080Y-99584350D01*
X145573570Y-99606529D01*
X145581835Y-99629628D01*
X145587796Y-99653427D01*
X145591396Y-99677695D01*
X145592600Y-99702199D01*
X145592600Y-100602201D01*
X145591396Y-100626705D01*
X145587796Y-100650973D01*
X145581835Y-100674772D01*
X145573570Y-100697871D01*
X145563080Y-100720050D01*
X145550468Y-100741093D01*
X145535853Y-100760799D01*
X145519377Y-100778977D01*
X145501199Y-100795453D01*
X145481493Y-100810068D01*
X145460450Y-100822680D01*
X145438271Y-100833170D01*
X145415172Y-100841435D01*
X145391373Y-100847396D01*
X145367105Y-100850996D01*
X145342601Y-100852200D01*
X144692599Y-100852200D01*
X144668095Y-100850996D01*
X144643827Y-100847396D01*
X144620028Y-100841435D01*
X144596929Y-100833170D01*
X144574750Y-100822680D01*
X144553707Y-100810068D01*
X144534001Y-100795453D01*
X144515823Y-100778977D01*
X144499347Y-100760799D01*
X144484732Y-100741093D01*
X144472120Y-100720050D01*
X144461630Y-100697871D01*
X144453365Y-100674772D01*
X144447404Y-100650973D01*
X144443804Y-100626705D01*
X144442600Y-100602201D01*
X144442600Y-99702199D01*
X144443804Y-99677695D01*
X144447404Y-99653427D01*
X144453365Y-99629628D01*
X144461630Y-99606529D01*
X144472120Y-99584350D01*
X144484732Y-99563307D01*
X144499347Y-99543601D01*
X144515823Y-99525423D01*
X144534001Y-99508947D01*
X144553707Y-99494332D01*
X144574750Y-99481720D01*
X144596929Y-99471230D01*
X144620028Y-99462965D01*
X144643827Y-99457004D01*
X144668095Y-99453404D01*
X144692599Y-99452200D01*
X145342601Y-99452200D01*
X145367105Y-99453404D01*
X145367105Y-99453404D01*
G37*
D16*
X145017600Y-100152200D03*
D15*
G36*
X143317105Y-99453404D02*
G01*
X143341373Y-99457004D01*
X143365172Y-99462965D01*
X143388271Y-99471230D01*
X143410450Y-99481720D01*
X143431493Y-99494332D01*
X143451199Y-99508947D01*
X143469377Y-99525423D01*
X143485853Y-99543601D01*
X143500468Y-99563307D01*
X143513080Y-99584350D01*
X143523570Y-99606529D01*
X143531835Y-99629628D01*
X143537796Y-99653427D01*
X143541396Y-99677695D01*
X143542600Y-99702199D01*
X143542600Y-100602201D01*
X143541396Y-100626705D01*
X143537796Y-100650973D01*
X143531835Y-100674772D01*
X143523570Y-100697871D01*
X143513080Y-100720050D01*
X143500468Y-100741093D01*
X143485853Y-100760799D01*
X143469377Y-100778977D01*
X143451199Y-100795453D01*
X143431493Y-100810068D01*
X143410450Y-100822680D01*
X143388271Y-100833170D01*
X143365172Y-100841435D01*
X143341373Y-100847396D01*
X143317105Y-100850996D01*
X143292601Y-100852200D01*
X142642599Y-100852200D01*
X142618095Y-100850996D01*
X142593827Y-100847396D01*
X142570028Y-100841435D01*
X142546929Y-100833170D01*
X142524750Y-100822680D01*
X142503707Y-100810068D01*
X142484001Y-100795453D01*
X142465823Y-100778977D01*
X142449347Y-100760799D01*
X142434732Y-100741093D01*
X142422120Y-100720050D01*
X142411630Y-100697871D01*
X142403365Y-100674772D01*
X142397404Y-100650973D01*
X142393804Y-100626705D01*
X142392600Y-100602201D01*
X142392600Y-99702199D01*
X142393804Y-99677695D01*
X142397404Y-99653427D01*
X142403365Y-99629628D01*
X142411630Y-99606529D01*
X142422120Y-99584350D01*
X142434732Y-99563307D01*
X142449347Y-99543601D01*
X142465823Y-99525423D01*
X142484001Y-99508947D01*
X142503707Y-99494332D01*
X142524750Y-99481720D01*
X142546929Y-99471230D01*
X142570028Y-99462965D01*
X142593827Y-99457004D01*
X142618095Y-99453404D01*
X142642599Y-99452200D01*
X143292601Y-99452200D01*
X143317105Y-99453404D01*
X143317105Y-99453404D01*
G37*
D16*
X142967600Y-100152200D03*
D15*
G36*
X149242305Y-106505203D02*
G01*
X149266573Y-106508803D01*
X149290372Y-106514764D01*
X149313471Y-106523029D01*
X149335650Y-106533519D01*
X149356693Y-106546131D01*
X149376399Y-106560746D01*
X149394577Y-106577222D01*
X149411053Y-106595400D01*
X149425668Y-106615106D01*
X149438280Y-106636149D01*
X149448770Y-106658328D01*
X149457035Y-106681427D01*
X149462996Y-106705226D01*
X149466596Y-106729494D01*
X149467800Y-106753998D01*
X149467800Y-107404000D01*
X149466596Y-107428504D01*
X149462996Y-107452772D01*
X149457035Y-107476571D01*
X149448770Y-107499670D01*
X149438280Y-107521849D01*
X149425668Y-107542892D01*
X149411053Y-107562598D01*
X149394577Y-107580776D01*
X149376399Y-107597252D01*
X149356693Y-107611867D01*
X149335650Y-107624479D01*
X149313471Y-107634969D01*
X149290372Y-107643234D01*
X149266573Y-107649195D01*
X149242305Y-107652795D01*
X149217801Y-107653999D01*
X148317799Y-107653999D01*
X148293295Y-107652795D01*
X148269027Y-107649195D01*
X148245228Y-107643234D01*
X148222129Y-107634969D01*
X148199950Y-107624479D01*
X148178907Y-107611867D01*
X148159201Y-107597252D01*
X148141023Y-107580776D01*
X148124547Y-107562598D01*
X148109932Y-107542892D01*
X148097320Y-107521849D01*
X148086830Y-107499670D01*
X148078565Y-107476571D01*
X148072604Y-107452772D01*
X148069004Y-107428504D01*
X148067800Y-107404000D01*
X148067800Y-106753998D01*
X148069004Y-106729494D01*
X148072604Y-106705226D01*
X148078565Y-106681427D01*
X148086830Y-106658328D01*
X148097320Y-106636149D01*
X148109932Y-106615106D01*
X148124547Y-106595400D01*
X148141023Y-106577222D01*
X148159201Y-106560746D01*
X148178907Y-106546131D01*
X148199950Y-106533519D01*
X148222129Y-106523029D01*
X148245228Y-106514764D01*
X148269027Y-106508803D01*
X148293295Y-106505203D01*
X148317799Y-106503999D01*
X149217801Y-106503999D01*
X149242305Y-106505203D01*
X149242305Y-106505203D01*
G37*
D16*
X148767800Y-107078999D03*
D15*
G36*
X149242305Y-104455203D02*
G01*
X149266573Y-104458803D01*
X149290372Y-104464764D01*
X149313471Y-104473029D01*
X149335650Y-104483519D01*
X149356693Y-104496131D01*
X149376399Y-104510746D01*
X149394577Y-104527222D01*
X149411053Y-104545400D01*
X149425668Y-104565106D01*
X149438280Y-104586149D01*
X149448770Y-104608328D01*
X149457035Y-104631427D01*
X149462996Y-104655226D01*
X149466596Y-104679494D01*
X149467800Y-104703998D01*
X149467800Y-105354000D01*
X149466596Y-105378504D01*
X149462996Y-105402772D01*
X149457035Y-105426571D01*
X149448770Y-105449670D01*
X149438280Y-105471849D01*
X149425668Y-105492892D01*
X149411053Y-105512598D01*
X149394577Y-105530776D01*
X149376399Y-105547252D01*
X149356693Y-105561867D01*
X149335650Y-105574479D01*
X149313471Y-105584969D01*
X149290372Y-105593234D01*
X149266573Y-105599195D01*
X149242305Y-105602795D01*
X149217801Y-105603999D01*
X148317799Y-105603999D01*
X148293295Y-105602795D01*
X148269027Y-105599195D01*
X148245228Y-105593234D01*
X148222129Y-105584969D01*
X148199950Y-105574479D01*
X148178907Y-105561867D01*
X148159201Y-105547252D01*
X148141023Y-105530776D01*
X148124547Y-105512598D01*
X148109932Y-105492892D01*
X148097320Y-105471849D01*
X148086830Y-105449670D01*
X148078565Y-105426571D01*
X148072604Y-105402772D01*
X148069004Y-105378504D01*
X148067800Y-105354000D01*
X148067800Y-104703998D01*
X148069004Y-104679494D01*
X148072604Y-104655226D01*
X148078565Y-104631427D01*
X148086830Y-104608328D01*
X148097320Y-104586149D01*
X148109932Y-104565106D01*
X148124547Y-104545400D01*
X148141023Y-104527222D01*
X148159201Y-104510746D01*
X148178907Y-104496131D01*
X148199950Y-104483519D01*
X148222129Y-104473029D01*
X148245228Y-104464764D01*
X148269027Y-104458803D01*
X148293295Y-104455203D01*
X148317799Y-104453999D01*
X149217801Y-104453999D01*
X149242305Y-104455203D01*
X149242305Y-104455203D01*
G37*
D16*
X148767800Y-105028999D03*
D17*
X163250000Y-122100000D03*
X159950000Y-122100000D03*
D15*
G36*
X146758703Y-108869922D02*
G01*
X146773264Y-108872082D01*
X146787543Y-108875659D01*
X146801403Y-108880618D01*
X146814710Y-108886912D01*
X146827336Y-108894480D01*
X146839159Y-108903248D01*
X146850066Y-108913134D01*
X146859952Y-108924041D01*
X146868720Y-108935864D01*
X146876288Y-108948490D01*
X146882582Y-108961797D01*
X146887541Y-108975657D01*
X146891118Y-108989936D01*
X146893278Y-109004497D01*
X146894000Y-109019200D01*
X146894000Y-109319200D01*
X146893278Y-109333903D01*
X146891118Y-109348464D01*
X146887541Y-109362743D01*
X146882582Y-109376603D01*
X146876288Y-109389910D01*
X146868720Y-109402536D01*
X146859952Y-109414359D01*
X146850066Y-109425266D01*
X146839159Y-109435152D01*
X146827336Y-109443920D01*
X146814710Y-109451488D01*
X146801403Y-109457782D01*
X146787543Y-109462741D01*
X146773264Y-109466318D01*
X146758703Y-109468478D01*
X146744000Y-109469200D01*
X145444000Y-109469200D01*
X145429297Y-109468478D01*
X145414736Y-109466318D01*
X145400457Y-109462741D01*
X145386597Y-109457782D01*
X145373290Y-109451488D01*
X145360664Y-109443920D01*
X145348841Y-109435152D01*
X145337934Y-109425266D01*
X145328048Y-109414359D01*
X145319280Y-109402536D01*
X145311712Y-109389910D01*
X145305418Y-109376603D01*
X145300459Y-109362743D01*
X145296882Y-109348464D01*
X145294722Y-109333903D01*
X145294000Y-109319200D01*
X145294000Y-109019200D01*
X145294722Y-109004497D01*
X145296882Y-108989936D01*
X145300459Y-108975657D01*
X145305418Y-108961797D01*
X145311712Y-108948490D01*
X145319280Y-108935864D01*
X145328048Y-108924041D01*
X145337934Y-108913134D01*
X145348841Y-108903248D01*
X145360664Y-108894480D01*
X145373290Y-108886912D01*
X145386597Y-108880618D01*
X145400457Y-108875659D01*
X145414736Y-108872082D01*
X145429297Y-108869922D01*
X145444000Y-108869200D01*
X146744000Y-108869200D01*
X146758703Y-108869922D01*
X146758703Y-108869922D01*
G37*
D18*
X146094000Y-109169200D03*
D15*
G36*
X146758703Y-107599922D02*
G01*
X146773264Y-107602082D01*
X146787543Y-107605659D01*
X146801403Y-107610618D01*
X146814710Y-107616912D01*
X146827336Y-107624480D01*
X146839159Y-107633248D01*
X146850066Y-107643134D01*
X146859952Y-107654041D01*
X146868720Y-107665864D01*
X146876288Y-107678490D01*
X146882582Y-107691797D01*
X146887541Y-107705657D01*
X146891118Y-107719936D01*
X146893278Y-107734497D01*
X146894000Y-107749200D01*
X146894000Y-108049200D01*
X146893278Y-108063903D01*
X146891118Y-108078464D01*
X146887541Y-108092743D01*
X146882582Y-108106603D01*
X146876288Y-108119910D01*
X146868720Y-108132536D01*
X146859952Y-108144359D01*
X146850066Y-108155266D01*
X146839159Y-108165152D01*
X146827336Y-108173920D01*
X146814710Y-108181488D01*
X146801403Y-108187782D01*
X146787543Y-108192741D01*
X146773264Y-108196318D01*
X146758703Y-108198478D01*
X146744000Y-108199200D01*
X145444000Y-108199200D01*
X145429297Y-108198478D01*
X145414736Y-108196318D01*
X145400457Y-108192741D01*
X145386597Y-108187782D01*
X145373290Y-108181488D01*
X145360664Y-108173920D01*
X145348841Y-108165152D01*
X145337934Y-108155266D01*
X145328048Y-108144359D01*
X145319280Y-108132536D01*
X145311712Y-108119910D01*
X145305418Y-108106603D01*
X145300459Y-108092743D01*
X145296882Y-108078464D01*
X145294722Y-108063903D01*
X145294000Y-108049200D01*
X145294000Y-107749200D01*
X145294722Y-107734497D01*
X145296882Y-107719936D01*
X145300459Y-107705657D01*
X145305418Y-107691797D01*
X145311712Y-107678490D01*
X145319280Y-107665864D01*
X145328048Y-107654041D01*
X145337934Y-107643134D01*
X145348841Y-107633248D01*
X145360664Y-107624480D01*
X145373290Y-107616912D01*
X145386597Y-107610618D01*
X145400457Y-107605659D01*
X145414736Y-107602082D01*
X145429297Y-107599922D01*
X145444000Y-107599200D01*
X146744000Y-107599200D01*
X146758703Y-107599922D01*
X146758703Y-107599922D01*
G37*
D18*
X146094000Y-107899200D03*
D15*
G36*
X146758703Y-106329922D02*
G01*
X146773264Y-106332082D01*
X146787543Y-106335659D01*
X146801403Y-106340618D01*
X146814710Y-106346912D01*
X146827336Y-106354480D01*
X146839159Y-106363248D01*
X146850066Y-106373134D01*
X146859952Y-106384041D01*
X146868720Y-106395864D01*
X146876288Y-106408490D01*
X146882582Y-106421797D01*
X146887541Y-106435657D01*
X146891118Y-106449936D01*
X146893278Y-106464497D01*
X146894000Y-106479200D01*
X146894000Y-106779200D01*
X146893278Y-106793903D01*
X146891118Y-106808464D01*
X146887541Y-106822743D01*
X146882582Y-106836603D01*
X146876288Y-106849910D01*
X146868720Y-106862536D01*
X146859952Y-106874359D01*
X146850066Y-106885266D01*
X146839159Y-106895152D01*
X146827336Y-106903920D01*
X146814710Y-106911488D01*
X146801403Y-106917782D01*
X146787543Y-106922741D01*
X146773264Y-106926318D01*
X146758703Y-106928478D01*
X146744000Y-106929200D01*
X145444000Y-106929200D01*
X145429297Y-106928478D01*
X145414736Y-106926318D01*
X145400457Y-106922741D01*
X145386597Y-106917782D01*
X145373290Y-106911488D01*
X145360664Y-106903920D01*
X145348841Y-106895152D01*
X145337934Y-106885266D01*
X145328048Y-106874359D01*
X145319280Y-106862536D01*
X145311712Y-106849910D01*
X145305418Y-106836603D01*
X145300459Y-106822743D01*
X145296882Y-106808464D01*
X145294722Y-106793903D01*
X145294000Y-106779200D01*
X145294000Y-106479200D01*
X145294722Y-106464497D01*
X145296882Y-106449936D01*
X145300459Y-106435657D01*
X145305418Y-106421797D01*
X145311712Y-106408490D01*
X145319280Y-106395864D01*
X145328048Y-106384041D01*
X145337934Y-106373134D01*
X145348841Y-106363248D01*
X145360664Y-106354480D01*
X145373290Y-106346912D01*
X145386597Y-106340618D01*
X145400457Y-106335659D01*
X145414736Y-106332082D01*
X145429297Y-106329922D01*
X145444000Y-106329200D01*
X146744000Y-106329200D01*
X146758703Y-106329922D01*
X146758703Y-106329922D01*
G37*
D18*
X146094000Y-106629200D03*
D15*
G36*
X146758703Y-105059922D02*
G01*
X146773264Y-105062082D01*
X146787543Y-105065659D01*
X146801403Y-105070618D01*
X146814710Y-105076912D01*
X146827336Y-105084480D01*
X146839159Y-105093248D01*
X146850066Y-105103134D01*
X146859952Y-105114041D01*
X146868720Y-105125864D01*
X146876288Y-105138490D01*
X146882582Y-105151797D01*
X146887541Y-105165657D01*
X146891118Y-105179936D01*
X146893278Y-105194497D01*
X146894000Y-105209200D01*
X146894000Y-105509200D01*
X146893278Y-105523903D01*
X146891118Y-105538464D01*
X146887541Y-105552743D01*
X146882582Y-105566603D01*
X146876288Y-105579910D01*
X146868720Y-105592536D01*
X146859952Y-105604359D01*
X146850066Y-105615266D01*
X146839159Y-105625152D01*
X146827336Y-105633920D01*
X146814710Y-105641488D01*
X146801403Y-105647782D01*
X146787543Y-105652741D01*
X146773264Y-105656318D01*
X146758703Y-105658478D01*
X146744000Y-105659200D01*
X145444000Y-105659200D01*
X145429297Y-105658478D01*
X145414736Y-105656318D01*
X145400457Y-105652741D01*
X145386597Y-105647782D01*
X145373290Y-105641488D01*
X145360664Y-105633920D01*
X145348841Y-105625152D01*
X145337934Y-105615266D01*
X145328048Y-105604359D01*
X145319280Y-105592536D01*
X145311712Y-105579910D01*
X145305418Y-105566603D01*
X145300459Y-105552743D01*
X145296882Y-105538464D01*
X145294722Y-105523903D01*
X145294000Y-105509200D01*
X145294000Y-105209200D01*
X145294722Y-105194497D01*
X145296882Y-105179936D01*
X145300459Y-105165657D01*
X145305418Y-105151797D01*
X145311712Y-105138490D01*
X145319280Y-105125864D01*
X145328048Y-105114041D01*
X145337934Y-105103134D01*
X145348841Y-105093248D01*
X145360664Y-105084480D01*
X145373290Y-105076912D01*
X145386597Y-105070618D01*
X145400457Y-105065659D01*
X145414736Y-105062082D01*
X145429297Y-105059922D01*
X145444000Y-105059200D01*
X146744000Y-105059200D01*
X146758703Y-105059922D01*
X146758703Y-105059922D01*
G37*
D18*
X146094000Y-105359200D03*
D15*
G36*
X139558703Y-105059922D02*
G01*
X139573264Y-105062082D01*
X139587543Y-105065659D01*
X139601403Y-105070618D01*
X139614710Y-105076912D01*
X139627336Y-105084480D01*
X139639159Y-105093248D01*
X139650066Y-105103134D01*
X139659952Y-105114041D01*
X139668720Y-105125864D01*
X139676288Y-105138490D01*
X139682582Y-105151797D01*
X139687541Y-105165657D01*
X139691118Y-105179936D01*
X139693278Y-105194497D01*
X139694000Y-105209200D01*
X139694000Y-105509200D01*
X139693278Y-105523903D01*
X139691118Y-105538464D01*
X139687541Y-105552743D01*
X139682582Y-105566603D01*
X139676288Y-105579910D01*
X139668720Y-105592536D01*
X139659952Y-105604359D01*
X139650066Y-105615266D01*
X139639159Y-105625152D01*
X139627336Y-105633920D01*
X139614710Y-105641488D01*
X139601403Y-105647782D01*
X139587543Y-105652741D01*
X139573264Y-105656318D01*
X139558703Y-105658478D01*
X139544000Y-105659200D01*
X138244000Y-105659200D01*
X138229297Y-105658478D01*
X138214736Y-105656318D01*
X138200457Y-105652741D01*
X138186597Y-105647782D01*
X138173290Y-105641488D01*
X138160664Y-105633920D01*
X138148841Y-105625152D01*
X138137934Y-105615266D01*
X138128048Y-105604359D01*
X138119280Y-105592536D01*
X138111712Y-105579910D01*
X138105418Y-105566603D01*
X138100459Y-105552743D01*
X138096882Y-105538464D01*
X138094722Y-105523903D01*
X138094000Y-105509200D01*
X138094000Y-105209200D01*
X138094722Y-105194497D01*
X138096882Y-105179936D01*
X138100459Y-105165657D01*
X138105418Y-105151797D01*
X138111712Y-105138490D01*
X138119280Y-105125864D01*
X138128048Y-105114041D01*
X138137934Y-105103134D01*
X138148841Y-105093248D01*
X138160664Y-105084480D01*
X138173290Y-105076912D01*
X138186597Y-105070618D01*
X138200457Y-105065659D01*
X138214736Y-105062082D01*
X138229297Y-105059922D01*
X138244000Y-105059200D01*
X139544000Y-105059200D01*
X139558703Y-105059922D01*
X139558703Y-105059922D01*
G37*
D18*
X138894000Y-105359200D03*
D15*
G36*
X139558703Y-106329922D02*
G01*
X139573264Y-106332082D01*
X139587543Y-106335659D01*
X139601403Y-106340618D01*
X139614710Y-106346912D01*
X139627336Y-106354480D01*
X139639159Y-106363248D01*
X139650066Y-106373134D01*
X139659952Y-106384041D01*
X139668720Y-106395864D01*
X139676288Y-106408490D01*
X139682582Y-106421797D01*
X139687541Y-106435657D01*
X139691118Y-106449936D01*
X139693278Y-106464497D01*
X139694000Y-106479200D01*
X139694000Y-106779200D01*
X139693278Y-106793903D01*
X139691118Y-106808464D01*
X139687541Y-106822743D01*
X139682582Y-106836603D01*
X139676288Y-106849910D01*
X139668720Y-106862536D01*
X139659952Y-106874359D01*
X139650066Y-106885266D01*
X139639159Y-106895152D01*
X139627336Y-106903920D01*
X139614710Y-106911488D01*
X139601403Y-106917782D01*
X139587543Y-106922741D01*
X139573264Y-106926318D01*
X139558703Y-106928478D01*
X139544000Y-106929200D01*
X138244000Y-106929200D01*
X138229297Y-106928478D01*
X138214736Y-106926318D01*
X138200457Y-106922741D01*
X138186597Y-106917782D01*
X138173290Y-106911488D01*
X138160664Y-106903920D01*
X138148841Y-106895152D01*
X138137934Y-106885266D01*
X138128048Y-106874359D01*
X138119280Y-106862536D01*
X138111712Y-106849910D01*
X138105418Y-106836603D01*
X138100459Y-106822743D01*
X138096882Y-106808464D01*
X138094722Y-106793903D01*
X138094000Y-106779200D01*
X138094000Y-106479200D01*
X138094722Y-106464497D01*
X138096882Y-106449936D01*
X138100459Y-106435657D01*
X138105418Y-106421797D01*
X138111712Y-106408490D01*
X138119280Y-106395864D01*
X138128048Y-106384041D01*
X138137934Y-106373134D01*
X138148841Y-106363248D01*
X138160664Y-106354480D01*
X138173290Y-106346912D01*
X138186597Y-106340618D01*
X138200457Y-106335659D01*
X138214736Y-106332082D01*
X138229297Y-106329922D01*
X138244000Y-106329200D01*
X139544000Y-106329200D01*
X139558703Y-106329922D01*
X139558703Y-106329922D01*
G37*
D18*
X138894000Y-106629200D03*
D15*
G36*
X139558703Y-107599922D02*
G01*
X139573264Y-107602082D01*
X139587543Y-107605659D01*
X139601403Y-107610618D01*
X139614710Y-107616912D01*
X139627336Y-107624480D01*
X139639159Y-107633248D01*
X139650066Y-107643134D01*
X139659952Y-107654041D01*
X139668720Y-107665864D01*
X139676288Y-107678490D01*
X139682582Y-107691797D01*
X139687541Y-107705657D01*
X139691118Y-107719936D01*
X139693278Y-107734497D01*
X139694000Y-107749200D01*
X139694000Y-108049200D01*
X139693278Y-108063903D01*
X139691118Y-108078464D01*
X139687541Y-108092743D01*
X139682582Y-108106603D01*
X139676288Y-108119910D01*
X139668720Y-108132536D01*
X139659952Y-108144359D01*
X139650066Y-108155266D01*
X139639159Y-108165152D01*
X139627336Y-108173920D01*
X139614710Y-108181488D01*
X139601403Y-108187782D01*
X139587543Y-108192741D01*
X139573264Y-108196318D01*
X139558703Y-108198478D01*
X139544000Y-108199200D01*
X138244000Y-108199200D01*
X138229297Y-108198478D01*
X138214736Y-108196318D01*
X138200457Y-108192741D01*
X138186597Y-108187782D01*
X138173290Y-108181488D01*
X138160664Y-108173920D01*
X138148841Y-108165152D01*
X138137934Y-108155266D01*
X138128048Y-108144359D01*
X138119280Y-108132536D01*
X138111712Y-108119910D01*
X138105418Y-108106603D01*
X138100459Y-108092743D01*
X138096882Y-108078464D01*
X138094722Y-108063903D01*
X138094000Y-108049200D01*
X138094000Y-107749200D01*
X138094722Y-107734497D01*
X138096882Y-107719936D01*
X138100459Y-107705657D01*
X138105418Y-107691797D01*
X138111712Y-107678490D01*
X138119280Y-107665864D01*
X138128048Y-107654041D01*
X138137934Y-107643134D01*
X138148841Y-107633248D01*
X138160664Y-107624480D01*
X138173290Y-107616912D01*
X138186597Y-107610618D01*
X138200457Y-107605659D01*
X138214736Y-107602082D01*
X138229297Y-107599922D01*
X138244000Y-107599200D01*
X139544000Y-107599200D01*
X139558703Y-107599922D01*
X139558703Y-107599922D01*
G37*
D18*
X138894000Y-107899200D03*
D15*
G36*
X139558703Y-108869922D02*
G01*
X139573264Y-108872082D01*
X139587543Y-108875659D01*
X139601403Y-108880618D01*
X139614710Y-108886912D01*
X139627336Y-108894480D01*
X139639159Y-108903248D01*
X139650066Y-108913134D01*
X139659952Y-108924041D01*
X139668720Y-108935864D01*
X139676288Y-108948490D01*
X139682582Y-108961797D01*
X139687541Y-108975657D01*
X139691118Y-108989936D01*
X139693278Y-109004497D01*
X139694000Y-109019200D01*
X139694000Y-109319200D01*
X139693278Y-109333903D01*
X139691118Y-109348464D01*
X139687541Y-109362743D01*
X139682582Y-109376603D01*
X139676288Y-109389910D01*
X139668720Y-109402536D01*
X139659952Y-109414359D01*
X139650066Y-109425266D01*
X139639159Y-109435152D01*
X139627336Y-109443920D01*
X139614710Y-109451488D01*
X139601403Y-109457782D01*
X139587543Y-109462741D01*
X139573264Y-109466318D01*
X139558703Y-109468478D01*
X139544000Y-109469200D01*
X138244000Y-109469200D01*
X138229297Y-109468478D01*
X138214736Y-109466318D01*
X138200457Y-109462741D01*
X138186597Y-109457782D01*
X138173290Y-109451488D01*
X138160664Y-109443920D01*
X138148841Y-109435152D01*
X138137934Y-109425266D01*
X138128048Y-109414359D01*
X138119280Y-109402536D01*
X138111712Y-109389910D01*
X138105418Y-109376603D01*
X138100459Y-109362743D01*
X138096882Y-109348464D01*
X138094722Y-109333903D01*
X138094000Y-109319200D01*
X138094000Y-109019200D01*
X138094722Y-109004497D01*
X138096882Y-108989936D01*
X138100459Y-108975657D01*
X138105418Y-108961797D01*
X138111712Y-108948490D01*
X138119280Y-108935864D01*
X138128048Y-108924041D01*
X138137934Y-108913134D01*
X138148841Y-108903248D01*
X138160664Y-108894480D01*
X138173290Y-108886912D01*
X138186597Y-108880618D01*
X138200457Y-108875659D01*
X138214736Y-108872082D01*
X138229297Y-108869922D01*
X138244000Y-108869200D01*
X139544000Y-108869200D01*
X139558703Y-108869922D01*
X139558703Y-108869922D01*
G37*
D18*
X138894000Y-109169200D03*
D15*
G36*
X158217499Y-102816594D02*
G01*
X158232060Y-102818754D01*
X158246339Y-102822331D01*
X158260199Y-102827290D01*
X158273506Y-102833584D01*
X158286132Y-102841152D01*
X158297955Y-102849920D01*
X158308862Y-102859806D01*
X158318748Y-102870713D01*
X158327516Y-102882536D01*
X158335084Y-102895162D01*
X158341378Y-102908469D01*
X158346337Y-102922329D01*
X158349914Y-102936608D01*
X158352074Y-102951169D01*
X158352796Y-102965872D01*
X158352796Y-103265872D01*
X158352074Y-103280575D01*
X158349914Y-103295136D01*
X158346337Y-103309415D01*
X158341378Y-103323275D01*
X158335084Y-103336582D01*
X158327516Y-103349208D01*
X158318748Y-103361031D01*
X158308862Y-103371938D01*
X158297955Y-103381824D01*
X158286132Y-103390592D01*
X158273506Y-103398160D01*
X158260199Y-103404454D01*
X158246339Y-103409413D01*
X158232060Y-103412990D01*
X158217499Y-103415150D01*
X158202796Y-103415872D01*
X156552796Y-103415872D01*
X156538093Y-103415150D01*
X156523532Y-103412990D01*
X156509253Y-103409413D01*
X156495393Y-103404454D01*
X156482086Y-103398160D01*
X156469460Y-103390592D01*
X156457637Y-103381824D01*
X156446730Y-103371938D01*
X156436844Y-103361031D01*
X156428076Y-103349208D01*
X156420508Y-103336582D01*
X156414214Y-103323275D01*
X156409255Y-103309415D01*
X156405678Y-103295136D01*
X156403518Y-103280575D01*
X156402796Y-103265872D01*
X156402796Y-102965872D01*
X156403518Y-102951169D01*
X156405678Y-102936608D01*
X156409255Y-102922329D01*
X156414214Y-102908469D01*
X156420508Y-102895162D01*
X156428076Y-102882536D01*
X156436844Y-102870713D01*
X156446730Y-102859806D01*
X156457637Y-102849920D01*
X156469460Y-102841152D01*
X156482086Y-102833584D01*
X156495393Y-102827290D01*
X156509253Y-102822331D01*
X156523532Y-102818754D01*
X156538093Y-102816594D01*
X156552796Y-102815872D01*
X158202796Y-102815872D01*
X158217499Y-102816594D01*
X158217499Y-102816594D01*
G37*
D18*
X157377796Y-103115872D03*
D15*
G36*
X158217499Y-101546594D02*
G01*
X158232060Y-101548754D01*
X158246339Y-101552331D01*
X158260199Y-101557290D01*
X158273506Y-101563584D01*
X158286132Y-101571152D01*
X158297955Y-101579920D01*
X158308862Y-101589806D01*
X158318748Y-101600713D01*
X158327516Y-101612536D01*
X158335084Y-101625162D01*
X158341378Y-101638469D01*
X158346337Y-101652329D01*
X158349914Y-101666608D01*
X158352074Y-101681169D01*
X158352796Y-101695872D01*
X158352796Y-101995872D01*
X158352074Y-102010575D01*
X158349914Y-102025136D01*
X158346337Y-102039415D01*
X158341378Y-102053275D01*
X158335084Y-102066582D01*
X158327516Y-102079208D01*
X158318748Y-102091031D01*
X158308862Y-102101938D01*
X158297955Y-102111824D01*
X158286132Y-102120592D01*
X158273506Y-102128160D01*
X158260199Y-102134454D01*
X158246339Y-102139413D01*
X158232060Y-102142990D01*
X158217499Y-102145150D01*
X158202796Y-102145872D01*
X156552796Y-102145872D01*
X156538093Y-102145150D01*
X156523532Y-102142990D01*
X156509253Y-102139413D01*
X156495393Y-102134454D01*
X156482086Y-102128160D01*
X156469460Y-102120592D01*
X156457637Y-102111824D01*
X156446730Y-102101938D01*
X156436844Y-102091031D01*
X156428076Y-102079208D01*
X156420508Y-102066582D01*
X156414214Y-102053275D01*
X156409255Y-102039415D01*
X156405678Y-102025136D01*
X156403518Y-102010575D01*
X156402796Y-101995872D01*
X156402796Y-101695872D01*
X156403518Y-101681169D01*
X156405678Y-101666608D01*
X156409255Y-101652329D01*
X156414214Y-101638469D01*
X156420508Y-101625162D01*
X156428076Y-101612536D01*
X156436844Y-101600713D01*
X156446730Y-101589806D01*
X156457637Y-101579920D01*
X156469460Y-101571152D01*
X156482086Y-101563584D01*
X156495393Y-101557290D01*
X156509253Y-101552331D01*
X156523532Y-101548754D01*
X156538093Y-101546594D01*
X156552796Y-101545872D01*
X158202796Y-101545872D01*
X158217499Y-101546594D01*
X158217499Y-101546594D01*
G37*
D18*
X157377796Y-101845872D03*
D15*
G36*
X158217499Y-100276594D02*
G01*
X158232060Y-100278754D01*
X158246339Y-100282331D01*
X158260199Y-100287290D01*
X158273506Y-100293584D01*
X158286132Y-100301152D01*
X158297955Y-100309920D01*
X158308862Y-100319806D01*
X158318748Y-100330713D01*
X158327516Y-100342536D01*
X158335084Y-100355162D01*
X158341378Y-100368469D01*
X158346337Y-100382329D01*
X158349914Y-100396608D01*
X158352074Y-100411169D01*
X158352796Y-100425872D01*
X158352796Y-100725872D01*
X158352074Y-100740575D01*
X158349914Y-100755136D01*
X158346337Y-100769415D01*
X158341378Y-100783275D01*
X158335084Y-100796582D01*
X158327516Y-100809208D01*
X158318748Y-100821031D01*
X158308862Y-100831938D01*
X158297955Y-100841824D01*
X158286132Y-100850592D01*
X158273506Y-100858160D01*
X158260199Y-100864454D01*
X158246339Y-100869413D01*
X158232060Y-100872990D01*
X158217499Y-100875150D01*
X158202796Y-100875872D01*
X156552796Y-100875872D01*
X156538093Y-100875150D01*
X156523532Y-100872990D01*
X156509253Y-100869413D01*
X156495393Y-100864454D01*
X156482086Y-100858160D01*
X156469460Y-100850592D01*
X156457637Y-100841824D01*
X156446730Y-100831938D01*
X156436844Y-100821031D01*
X156428076Y-100809208D01*
X156420508Y-100796582D01*
X156414214Y-100783275D01*
X156409255Y-100769415D01*
X156405678Y-100755136D01*
X156403518Y-100740575D01*
X156402796Y-100725872D01*
X156402796Y-100425872D01*
X156403518Y-100411169D01*
X156405678Y-100396608D01*
X156409255Y-100382329D01*
X156414214Y-100368469D01*
X156420508Y-100355162D01*
X156428076Y-100342536D01*
X156436844Y-100330713D01*
X156446730Y-100319806D01*
X156457637Y-100309920D01*
X156469460Y-100301152D01*
X156482086Y-100293584D01*
X156495393Y-100287290D01*
X156509253Y-100282331D01*
X156523532Y-100278754D01*
X156538093Y-100276594D01*
X156552796Y-100275872D01*
X158202796Y-100275872D01*
X158217499Y-100276594D01*
X158217499Y-100276594D01*
G37*
D18*
X157377796Y-100575872D03*
D15*
G36*
X158217499Y-99006594D02*
G01*
X158232060Y-99008754D01*
X158246339Y-99012331D01*
X158260199Y-99017290D01*
X158273506Y-99023584D01*
X158286132Y-99031152D01*
X158297955Y-99039920D01*
X158308862Y-99049806D01*
X158318748Y-99060713D01*
X158327516Y-99072536D01*
X158335084Y-99085162D01*
X158341378Y-99098469D01*
X158346337Y-99112329D01*
X158349914Y-99126608D01*
X158352074Y-99141169D01*
X158352796Y-99155872D01*
X158352796Y-99455872D01*
X158352074Y-99470575D01*
X158349914Y-99485136D01*
X158346337Y-99499415D01*
X158341378Y-99513275D01*
X158335084Y-99526582D01*
X158327516Y-99539208D01*
X158318748Y-99551031D01*
X158308862Y-99561938D01*
X158297955Y-99571824D01*
X158286132Y-99580592D01*
X158273506Y-99588160D01*
X158260199Y-99594454D01*
X158246339Y-99599413D01*
X158232060Y-99602990D01*
X158217499Y-99605150D01*
X158202796Y-99605872D01*
X156552796Y-99605872D01*
X156538093Y-99605150D01*
X156523532Y-99602990D01*
X156509253Y-99599413D01*
X156495393Y-99594454D01*
X156482086Y-99588160D01*
X156469460Y-99580592D01*
X156457637Y-99571824D01*
X156446730Y-99561938D01*
X156436844Y-99551031D01*
X156428076Y-99539208D01*
X156420508Y-99526582D01*
X156414214Y-99513275D01*
X156409255Y-99499415D01*
X156405678Y-99485136D01*
X156403518Y-99470575D01*
X156402796Y-99455872D01*
X156402796Y-99155872D01*
X156403518Y-99141169D01*
X156405678Y-99126608D01*
X156409255Y-99112329D01*
X156414214Y-99098469D01*
X156420508Y-99085162D01*
X156428076Y-99072536D01*
X156436844Y-99060713D01*
X156446730Y-99049806D01*
X156457637Y-99039920D01*
X156469460Y-99031152D01*
X156482086Y-99023584D01*
X156495393Y-99017290D01*
X156509253Y-99012331D01*
X156523532Y-99008754D01*
X156538093Y-99006594D01*
X156552796Y-99005872D01*
X158202796Y-99005872D01*
X158217499Y-99006594D01*
X158217499Y-99006594D01*
G37*
D18*
X157377796Y-99305872D03*
D15*
G36*
X158217499Y-97736594D02*
G01*
X158232060Y-97738754D01*
X158246339Y-97742331D01*
X158260199Y-97747290D01*
X158273506Y-97753584D01*
X158286132Y-97761152D01*
X158297955Y-97769920D01*
X158308862Y-97779806D01*
X158318748Y-97790713D01*
X158327516Y-97802536D01*
X158335084Y-97815162D01*
X158341378Y-97828469D01*
X158346337Y-97842329D01*
X158349914Y-97856608D01*
X158352074Y-97871169D01*
X158352796Y-97885872D01*
X158352796Y-98185872D01*
X158352074Y-98200575D01*
X158349914Y-98215136D01*
X158346337Y-98229415D01*
X158341378Y-98243275D01*
X158335084Y-98256582D01*
X158327516Y-98269208D01*
X158318748Y-98281031D01*
X158308862Y-98291938D01*
X158297955Y-98301824D01*
X158286132Y-98310592D01*
X158273506Y-98318160D01*
X158260199Y-98324454D01*
X158246339Y-98329413D01*
X158232060Y-98332990D01*
X158217499Y-98335150D01*
X158202796Y-98335872D01*
X156552796Y-98335872D01*
X156538093Y-98335150D01*
X156523532Y-98332990D01*
X156509253Y-98329413D01*
X156495393Y-98324454D01*
X156482086Y-98318160D01*
X156469460Y-98310592D01*
X156457637Y-98301824D01*
X156446730Y-98291938D01*
X156436844Y-98281031D01*
X156428076Y-98269208D01*
X156420508Y-98256582D01*
X156414214Y-98243275D01*
X156409255Y-98229415D01*
X156405678Y-98215136D01*
X156403518Y-98200575D01*
X156402796Y-98185872D01*
X156402796Y-97885872D01*
X156403518Y-97871169D01*
X156405678Y-97856608D01*
X156409255Y-97842329D01*
X156414214Y-97828469D01*
X156420508Y-97815162D01*
X156428076Y-97802536D01*
X156436844Y-97790713D01*
X156446730Y-97779806D01*
X156457637Y-97769920D01*
X156469460Y-97761152D01*
X156482086Y-97753584D01*
X156495393Y-97747290D01*
X156509253Y-97742331D01*
X156523532Y-97738754D01*
X156538093Y-97736594D01*
X156552796Y-97735872D01*
X158202796Y-97735872D01*
X158217499Y-97736594D01*
X158217499Y-97736594D01*
G37*
D18*
X157377796Y-98035872D03*
D15*
G36*
X158217499Y-96466594D02*
G01*
X158232060Y-96468754D01*
X158246339Y-96472331D01*
X158260199Y-96477290D01*
X158273506Y-96483584D01*
X158286132Y-96491152D01*
X158297955Y-96499920D01*
X158308862Y-96509806D01*
X158318748Y-96520713D01*
X158327516Y-96532536D01*
X158335084Y-96545162D01*
X158341378Y-96558469D01*
X158346337Y-96572329D01*
X158349914Y-96586608D01*
X158352074Y-96601169D01*
X158352796Y-96615872D01*
X158352796Y-96915872D01*
X158352074Y-96930575D01*
X158349914Y-96945136D01*
X158346337Y-96959415D01*
X158341378Y-96973275D01*
X158335084Y-96986582D01*
X158327516Y-96999208D01*
X158318748Y-97011031D01*
X158308862Y-97021938D01*
X158297955Y-97031824D01*
X158286132Y-97040592D01*
X158273506Y-97048160D01*
X158260199Y-97054454D01*
X158246339Y-97059413D01*
X158232060Y-97062990D01*
X158217499Y-97065150D01*
X158202796Y-97065872D01*
X156552796Y-97065872D01*
X156538093Y-97065150D01*
X156523532Y-97062990D01*
X156509253Y-97059413D01*
X156495393Y-97054454D01*
X156482086Y-97048160D01*
X156469460Y-97040592D01*
X156457637Y-97031824D01*
X156446730Y-97021938D01*
X156436844Y-97011031D01*
X156428076Y-96999208D01*
X156420508Y-96986582D01*
X156414214Y-96973275D01*
X156409255Y-96959415D01*
X156405678Y-96945136D01*
X156403518Y-96930575D01*
X156402796Y-96915872D01*
X156402796Y-96615872D01*
X156403518Y-96601169D01*
X156405678Y-96586608D01*
X156409255Y-96572329D01*
X156414214Y-96558469D01*
X156420508Y-96545162D01*
X156428076Y-96532536D01*
X156436844Y-96520713D01*
X156446730Y-96509806D01*
X156457637Y-96499920D01*
X156469460Y-96491152D01*
X156482086Y-96483584D01*
X156495393Y-96477290D01*
X156509253Y-96472331D01*
X156523532Y-96468754D01*
X156538093Y-96466594D01*
X156552796Y-96465872D01*
X158202796Y-96465872D01*
X158217499Y-96466594D01*
X158217499Y-96466594D01*
G37*
D18*
X157377796Y-96765872D03*
D15*
G36*
X158217499Y-95196594D02*
G01*
X158232060Y-95198754D01*
X158246339Y-95202331D01*
X158260199Y-95207290D01*
X158273506Y-95213584D01*
X158286132Y-95221152D01*
X158297955Y-95229920D01*
X158308862Y-95239806D01*
X158318748Y-95250713D01*
X158327516Y-95262536D01*
X158335084Y-95275162D01*
X158341378Y-95288469D01*
X158346337Y-95302329D01*
X158349914Y-95316608D01*
X158352074Y-95331169D01*
X158352796Y-95345872D01*
X158352796Y-95645872D01*
X158352074Y-95660575D01*
X158349914Y-95675136D01*
X158346337Y-95689415D01*
X158341378Y-95703275D01*
X158335084Y-95716582D01*
X158327516Y-95729208D01*
X158318748Y-95741031D01*
X158308862Y-95751938D01*
X158297955Y-95761824D01*
X158286132Y-95770592D01*
X158273506Y-95778160D01*
X158260199Y-95784454D01*
X158246339Y-95789413D01*
X158232060Y-95792990D01*
X158217499Y-95795150D01*
X158202796Y-95795872D01*
X156552796Y-95795872D01*
X156538093Y-95795150D01*
X156523532Y-95792990D01*
X156509253Y-95789413D01*
X156495393Y-95784454D01*
X156482086Y-95778160D01*
X156469460Y-95770592D01*
X156457637Y-95761824D01*
X156446730Y-95751938D01*
X156436844Y-95741031D01*
X156428076Y-95729208D01*
X156420508Y-95716582D01*
X156414214Y-95703275D01*
X156409255Y-95689415D01*
X156405678Y-95675136D01*
X156403518Y-95660575D01*
X156402796Y-95645872D01*
X156402796Y-95345872D01*
X156403518Y-95331169D01*
X156405678Y-95316608D01*
X156409255Y-95302329D01*
X156414214Y-95288469D01*
X156420508Y-95275162D01*
X156428076Y-95262536D01*
X156436844Y-95250713D01*
X156446730Y-95239806D01*
X156457637Y-95229920D01*
X156469460Y-95221152D01*
X156482086Y-95213584D01*
X156495393Y-95207290D01*
X156509253Y-95202331D01*
X156523532Y-95198754D01*
X156538093Y-95196594D01*
X156552796Y-95195872D01*
X158202796Y-95195872D01*
X158217499Y-95196594D01*
X158217499Y-95196594D01*
G37*
D18*
X157377796Y-95495872D03*
D15*
G36*
X163167499Y-95196594D02*
G01*
X163182060Y-95198754D01*
X163196339Y-95202331D01*
X163210199Y-95207290D01*
X163223506Y-95213584D01*
X163236132Y-95221152D01*
X163247955Y-95229920D01*
X163258862Y-95239806D01*
X163268748Y-95250713D01*
X163277516Y-95262536D01*
X163285084Y-95275162D01*
X163291378Y-95288469D01*
X163296337Y-95302329D01*
X163299914Y-95316608D01*
X163302074Y-95331169D01*
X163302796Y-95345872D01*
X163302796Y-95645872D01*
X163302074Y-95660575D01*
X163299914Y-95675136D01*
X163296337Y-95689415D01*
X163291378Y-95703275D01*
X163285084Y-95716582D01*
X163277516Y-95729208D01*
X163268748Y-95741031D01*
X163258862Y-95751938D01*
X163247955Y-95761824D01*
X163236132Y-95770592D01*
X163223506Y-95778160D01*
X163210199Y-95784454D01*
X163196339Y-95789413D01*
X163182060Y-95792990D01*
X163167499Y-95795150D01*
X163152796Y-95795872D01*
X161502796Y-95795872D01*
X161488093Y-95795150D01*
X161473532Y-95792990D01*
X161459253Y-95789413D01*
X161445393Y-95784454D01*
X161432086Y-95778160D01*
X161419460Y-95770592D01*
X161407637Y-95761824D01*
X161396730Y-95751938D01*
X161386844Y-95741031D01*
X161378076Y-95729208D01*
X161370508Y-95716582D01*
X161364214Y-95703275D01*
X161359255Y-95689415D01*
X161355678Y-95675136D01*
X161353518Y-95660575D01*
X161352796Y-95645872D01*
X161352796Y-95345872D01*
X161353518Y-95331169D01*
X161355678Y-95316608D01*
X161359255Y-95302329D01*
X161364214Y-95288469D01*
X161370508Y-95275162D01*
X161378076Y-95262536D01*
X161386844Y-95250713D01*
X161396730Y-95239806D01*
X161407637Y-95229920D01*
X161419460Y-95221152D01*
X161432086Y-95213584D01*
X161445393Y-95207290D01*
X161459253Y-95202331D01*
X161473532Y-95198754D01*
X161488093Y-95196594D01*
X161502796Y-95195872D01*
X163152796Y-95195872D01*
X163167499Y-95196594D01*
X163167499Y-95196594D01*
G37*
D18*
X162327796Y-95495872D03*
D15*
G36*
X163167499Y-96466594D02*
G01*
X163182060Y-96468754D01*
X163196339Y-96472331D01*
X163210199Y-96477290D01*
X163223506Y-96483584D01*
X163236132Y-96491152D01*
X163247955Y-96499920D01*
X163258862Y-96509806D01*
X163268748Y-96520713D01*
X163277516Y-96532536D01*
X163285084Y-96545162D01*
X163291378Y-96558469D01*
X163296337Y-96572329D01*
X163299914Y-96586608D01*
X163302074Y-96601169D01*
X163302796Y-96615872D01*
X163302796Y-96915872D01*
X163302074Y-96930575D01*
X163299914Y-96945136D01*
X163296337Y-96959415D01*
X163291378Y-96973275D01*
X163285084Y-96986582D01*
X163277516Y-96999208D01*
X163268748Y-97011031D01*
X163258862Y-97021938D01*
X163247955Y-97031824D01*
X163236132Y-97040592D01*
X163223506Y-97048160D01*
X163210199Y-97054454D01*
X163196339Y-97059413D01*
X163182060Y-97062990D01*
X163167499Y-97065150D01*
X163152796Y-97065872D01*
X161502796Y-97065872D01*
X161488093Y-97065150D01*
X161473532Y-97062990D01*
X161459253Y-97059413D01*
X161445393Y-97054454D01*
X161432086Y-97048160D01*
X161419460Y-97040592D01*
X161407637Y-97031824D01*
X161396730Y-97021938D01*
X161386844Y-97011031D01*
X161378076Y-96999208D01*
X161370508Y-96986582D01*
X161364214Y-96973275D01*
X161359255Y-96959415D01*
X161355678Y-96945136D01*
X161353518Y-96930575D01*
X161352796Y-96915872D01*
X161352796Y-96615872D01*
X161353518Y-96601169D01*
X161355678Y-96586608D01*
X161359255Y-96572329D01*
X161364214Y-96558469D01*
X161370508Y-96545162D01*
X161378076Y-96532536D01*
X161386844Y-96520713D01*
X161396730Y-96509806D01*
X161407637Y-96499920D01*
X161419460Y-96491152D01*
X161432086Y-96483584D01*
X161445393Y-96477290D01*
X161459253Y-96472331D01*
X161473532Y-96468754D01*
X161488093Y-96466594D01*
X161502796Y-96465872D01*
X163152796Y-96465872D01*
X163167499Y-96466594D01*
X163167499Y-96466594D01*
G37*
D18*
X162327796Y-96765872D03*
D15*
G36*
X163167499Y-97736594D02*
G01*
X163182060Y-97738754D01*
X163196339Y-97742331D01*
X163210199Y-97747290D01*
X163223506Y-97753584D01*
X163236132Y-97761152D01*
X163247955Y-97769920D01*
X163258862Y-97779806D01*
X163268748Y-97790713D01*
X163277516Y-97802536D01*
X163285084Y-97815162D01*
X163291378Y-97828469D01*
X163296337Y-97842329D01*
X163299914Y-97856608D01*
X163302074Y-97871169D01*
X163302796Y-97885872D01*
X163302796Y-98185872D01*
X163302074Y-98200575D01*
X163299914Y-98215136D01*
X163296337Y-98229415D01*
X163291378Y-98243275D01*
X163285084Y-98256582D01*
X163277516Y-98269208D01*
X163268748Y-98281031D01*
X163258862Y-98291938D01*
X163247955Y-98301824D01*
X163236132Y-98310592D01*
X163223506Y-98318160D01*
X163210199Y-98324454D01*
X163196339Y-98329413D01*
X163182060Y-98332990D01*
X163167499Y-98335150D01*
X163152796Y-98335872D01*
X161502796Y-98335872D01*
X161488093Y-98335150D01*
X161473532Y-98332990D01*
X161459253Y-98329413D01*
X161445393Y-98324454D01*
X161432086Y-98318160D01*
X161419460Y-98310592D01*
X161407637Y-98301824D01*
X161396730Y-98291938D01*
X161386844Y-98281031D01*
X161378076Y-98269208D01*
X161370508Y-98256582D01*
X161364214Y-98243275D01*
X161359255Y-98229415D01*
X161355678Y-98215136D01*
X161353518Y-98200575D01*
X161352796Y-98185872D01*
X161352796Y-97885872D01*
X161353518Y-97871169D01*
X161355678Y-97856608D01*
X161359255Y-97842329D01*
X161364214Y-97828469D01*
X161370508Y-97815162D01*
X161378076Y-97802536D01*
X161386844Y-97790713D01*
X161396730Y-97779806D01*
X161407637Y-97769920D01*
X161419460Y-97761152D01*
X161432086Y-97753584D01*
X161445393Y-97747290D01*
X161459253Y-97742331D01*
X161473532Y-97738754D01*
X161488093Y-97736594D01*
X161502796Y-97735872D01*
X163152796Y-97735872D01*
X163167499Y-97736594D01*
X163167499Y-97736594D01*
G37*
D18*
X162327796Y-98035872D03*
D15*
G36*
X163167499Y-99006594D02*
G01*
X163182060Y-99008754D01*
X163196339Y-99012331D01*
X163210199Y-99017290D01*
X163223506Y-99023584D01*
X163236132Y-99031152D01*
X163247955Y-99039920D01*
X163258862Y-99049806D01*
X163268748Y-99060713D01*
X163277516Y-99072536D01*
X163285084Y-99085162D01*
X163291378Y-99098469D01*
X163296337Y-99112329D01*
X163299914Y-99126608D01*
X163302074Y-99141169D01*
X163302796Y-99155872D01*
X163302796Y-99455872D01*
X163302074Y-99470575D01*
X163299914Y-99485136D01*
X163296337Y-99499415D01*
X163291378Y-99513275D01*
X163285084Y-99526582D01*
X163277516Y-99539208D01*
X163268748Y-99551031D01*
X163258862Y-99561938D01*
X163247955Y-99571824D01*
X163236132Y-99580592D01*
X163223506Y-99588160D01*
X163210199Y-99594454D01*
X163196339Y-99599413D01*
X163182060Y-99602990D01*
X163167499Y-99605150D01*
X163152796Y-99605872D01*
X161502796Y-99605872D01*
X161488093Y-99605150D01*
X161473532Y-99602990D01*
X161459253Y-99599413D01*
X161445393Y-99594454D01*
X161432086Y-99588160D01*
X161419460Y-99580592D01*
X161407637Y-99571824D01*
X161396730Y-99561938D01*
X161386844Y-99551031D01*
X161378076Y-99539208D01*
X161370508Y-99526582D01*
X161364214Y-99513275D01*
X161359255Y-99499415D01*
X161355678Y-99485136D01*
X161353518Y-99470575D01*
X161352796Y-99455872D01*
X161352796Y-99155872D01*
X161353518Y-99141169D01*
X161355678Y-99126608D01*
X161359255Y-99112329D01*
X161364214Y-99098469D01*
X161370508Y-99085162D01*
X161378076Y-99072536D01*
X161386844Y-99060713D01*
X161396730Y-99049806D01*
X161407637Y-99039920D01*
X161419460Y-99031152D01*
X161432086Y-99023584D01*
X161445393Y-99017290D01*
X161459253Y-99012331D01*
X161473532Y-99008754D01*
X161488093Y-99006594D01*
X161502796Y-99005872D01*
X163152796Y-99005872D01*
X163167499Y-99006594D01*
X163167499Y-99006594D01*
G37*
D18*
X162327796Y-99305872D03*
D15*
G36*
X163167499Y-100276594D02*
G01*
X163182060Y-100278754D01*
X163196339Y-100282331D01*
X163210199Y-100287290D01*
X163223506Y-100293584D01*
X163236132Y-100301152D01*
X163247955Y-100309920D01*
X163258862Y-100319806D01*
X163268748Y-100330713D01*
X163277516Y-100342536D01*
X163285084Y-100355162D01*
X163291378Y-100368469D01*
X163296337Y-100382329D01*
X163299914Y-100396608D01*
X163302074Y-100411169D01*
X163302796Y-100425872D01*
X163302796Y-100725872D01*
X163302074Y-100740575D01*
X163299914Y-100755136D01*
X163296337Y-100769415D01*
X163291378Y-100783275D01*
X163285084Y-100796582D01*
X163277516Y-100809208D01*
X163268748Y-100821031D01*
X163258862Y-100831938D01*
X163247955Y-100841824D01*
X163236132Y-100850592D01*
X163223506Y-100858160D01*
X163210199Y-100864454D01*
X163196339Y-100869413D01*
X163182060Y-100872990D01*
X163167499Y-100875150D01*
X163152796Y-100875872D01*
X161502796Y-100875872D01*
X161488093Y-100875150D01*
X161473532Y-100872990D01*
X161459253Y-100869413D01*
X161445393Y-100864454D01*
X161432086Y-100858160D01*
X161419460Y-100850592D01*
X161407637Y-100841824D01*
X161396730Y-100831938D01*
X161386844Y-100821031D01*
X161378076Y-100809208D01*
X161370508Y-100796582D01*
X161364214Y-100783275D01*
X161359255Y-100769415D01*
X161355678Y-100755136D01*
X161353518Y-100740575D01*
X161352796Y-100725872D01*
X161352796Y-100425872D01*
X161353518Y-100411169D01*
X161355678Y-100396608D01*
X161359255Y-100382329D01*
X161364214Y-100368469D01*
X161370508Y-100355162D01*
X161378076Y-100342536D01*
X161386844Y-100330713D01*
X161396730Y-100319806D01*
X161407637Y-100309920D01*
X161419460Y-100301152D01*
X161432086Y-100293584D01*
X161445393Y-100287290D01*
X161459253Y-100282331D01*
X161473532Y-100278754D01*
X161488093Y-100276594D01*
X161502796Y-100275872D01*
X163152796Y-100275872D01*
X163167499Y-100276594D01*
X163167499Y-100276594D01*
G37*
D18*
X162327796Y-100575872D03*
D15*
G36*
X163167499Y-101546594D02*
G01*
X163182060Y-101548754D01*
X163196339Y-101552331D01*
X163210199Y-101557290D01*
X163223506Y-101563584D01*
X163236132Y-101571152D01*
X163247955Y-101579920D01*
X163258862Y-101589806D01*
X163268748Y-101600713D01*
X163277516Y-101612536D01*
X163285084Y-101625162D01*
X163291378Y-101638469D01*
X163296337Y-101652329D01*
X163299914Y-101666608D01*
X163302074Y-101681169D01*
X163302796Y-101695872D01*
X163302796Y-101995872D01*
X163302074Y-102010575D01*
X163299914Y-102025136D01*
X163296337Y-102039415D01*
X163291378Y-102053275D01*
X163285084Y-102066582D01*
X163277516Y-102079208D01*
X163268748Y-102091031D01*
X163258862Y-102101938D01*
X163247955Y-102111824D01*
X163236132Y-102120592D01*
X163223506Y-102128160D01*
X163210199Y-102134454D01*
X163196339Y-102139413D01*
X163182060Y-102142990D01*
X163167499Y-102145150D01*
X163152796Y-102145872D01*
X161502796Y-102145872D01*
X161488093Y-102145150D01*
X161473532Y-102142990D01*
X161459253Y-102139413D01*
X161445393Y-102134454D01*
X161432086Y-102128160D01*
X161419460Y-102120592D01*
X161407637Y-102111824D01*
X161396730Y-102101938D01*
X161386844Y-102091031D01*
X161378076Y-102079208D01*
X161370508Y-102066582D01*
X161364214Y-102053275D01*
X161359255Y-102039415D01*
X161355678Y-102025136D01*
X161353518Y-102010575D01*
X161352796Y-101995872D01*
X161352796Y-101695872D01*
X161353518Y-101681169D01*
X161355678Y-101666608D01*
X161359255Y-101652329D01*
X161364214Y-101638469D01*
X161370508Y-101625162D01*
X161378076Y-101612536D01*
X161386844Y-101600713D01*
X161396730Y-101589806D01*
X161407637Y-101579920D01*
X161419460Y-101571152D01*
X161432086Y-101563584D01*
X161445393Y-101557290D01*
X161459253Y-101552331D01*
X161473532Y-101548754D01*
X161488093Y-101546594D01*
X161502796Y-101545872D01*
X163152796Y-101545872D01*
X163167499Y-101546594D01*
X163167499Y-101546594D01*
G37*
D18*
X162327796Y-101845872D03*
D15*
G36*
X163167499Y-102816594D02*
G01*
X163182060Y-102818754D01*
X163196339Y-102822331D01*
X163210199Y-102827290D01*
X163223506Y-102833584D01*
X163236132Y-102841152D01*
X163247955Y-102849920D01*
X163258862Y-102859806D01*
X163268748Y-102870713D01*
X163277516Y-102882536D01*
X163285084Y-102895162D01*
X163291378Y-102908469D01*
X163296337Y-102922329D01*
X163299914Y-102936608D01*
X163302074Y-102951169D01*
X163302796Y-102965872D01*
X163302796Y-103265872D01*
X163302074Y-103280575D01*
X163299914Y-103295136D01*
X163296337Y-103309415D01*
X163291378Y-103323275D01*
X163285084Y-103336582D01*
X163277516Y-103349208D01*
X163268748Y-103361031D01*
X163258862Y-103371938D01*
X163247955Y-103381824D01*
X163236132Y-103390592D01*
X163223506Y-103398160D01*
X163210199Y-103404454D01*
X163196339Y-103409413D01*
X163182060Y-103412990D01*
X163167499Y-103415150D01*
X163152796Y-103415872D01*
X161502796Y-103415872D01*
X161488093Y-103415150D01*
X161473532Y-103412990D01*
X161459253Y-103409413D01*
X161445393Y-103404454D01*
X161432086Y-103398160D01*
X161419460Y-103390592D01*
X161407637Y-103381824D01*
X161396730Y-103371938D01*
X161386844Y-103361031D01*
X161378076Y-103349208D01*
X161370508Y-103336582D01*
X161364214Y-103323275D01*
X161359255Y-103309415D01*
X161355678Y-103295136D01*
X161353518Y-103280575D01*
X161352796Y-103265872D01*
X161352796Y-102965872D01*
X161353518Y-102951169D01*
X161355678Y-102936608D01*
X161359255Y-102922329D01*
X161364214Y-102908469D01*
X161370508Y-102895162D01*
X161378076Y-102882536D01*
X161386844Y-102870713D01*
X161396730Y-102859806D01*
X161407637Y-102849920D01*
X161419460Y-102841152D01*
X161432086Y-102833584D01*
X161445393Y-102827290D01*
X161459253Y-102822331D01*
X161473532Y-102818754D01*
X161488093Y-102816594D01*
X161502796Y-102815872D01*
X163152796Y-102815872D01*
X163167499Y-102816594D01*
X163167499Y-102816594D01*
G37*
D18*
X162327796Y-103115872D03*
D15*
G36*
X141099505Y-78301204D02*
G01*
X141123773Y-78304804D01*
X141147572Y-78310765D01*
X141170671Y-78319030D01*
X141192850Y-78329520D01*
X141213893Y-78342132D01*
X141233599Y-78356747D01*
X141251777Y-78373223D01*
X141268253Y-78391401D01*
X141282868Y-78411107D01*
X141295480Y-78432150D01*
X141305970Y-78454329D01*
X141314235Y-78477428D01*
X141320196Y-78501227D01*
X141323796Y-78525495D01*
X141325000Y-78549999D01*
X141325000Y-79450001D01*
X141323796Y-79474505D01*
X141320196Y-79498773D01*
X141314235Y-79522572D01*
X141305970Y-79545671D01*
X141295480Y-79567850D01*
X141282868Y-79588893D01*
X141268253Y-79608599D01*
X141251777Y-79626777D01*
X141233599Y-79643253D01*
X141213893Y-79657868D01*
X141192850Y-79670480D01*
X141170671Y-79680970D01*
X141147572Y-79689235D01*
X141123773Y-79695196D01*
X141099505Y-79698796D01*
X141075001Y-79700000D01*
X140424999Y-79700000D01*
X140400495Y-79698796D01*
X140376227Y-79695196D01*
X140352428Y-79689235D01*
X140329329Y-79680970D01*
X140307150Y-79670480D01*
X140286107Y-79657868D01*
X140266401Y-79643253D01*
X140248223Y-79626777D01*
X140231747Y-79608599D01*
X140217132Y-79588893D01*
X140204520Y-79567850D01*
X140194030Y-79545671D01*
X140185765Y-79522572D01*
X140179804Y-79498773D01*
X140176204Y-79474505D01*
X140175000Y-79450001D01*
X140175000Y-78549999D01*
X140176204Y-78525495D01*
X140179804Y-78501227D01*
X140185765Y-78477428D01*
X140194030Y-78454329D01*
X140204520Y-78432150D01*
X140217132Y-78411107D01*
X140231747Y-78391401D01*
X140248223Y-78373223D01*
X140266401Y-78356747D01*
X140286107Y-78342132D01*
X140307150Y-78329520D01*
X140329329Y-78319030D01*
X140352428Y-78310765D01*
X140376227Y-78304804D01*
X140400495Y-78301204D01*
X140424999Y-78300000D01*
X141075001Y-78300000D01*
X141099505Y-78301204D01*
X141099505Y-78301204D01*
G37*
D16*
X140750000Y-79000000D03*
D15*
G36*
X143149505Y-78301204D02*
G01*
X143173773Y-78304804D01*
X143197572Y-78310765D01*
X143220671Y-78319030D01*
X143242850Y-78329520D01*
X143263893Y-78342132D01*
X143283599Y-78356747D01*
X143301777Y-78373223D01*
X143318253Y-78391401D01*
X143332868Y-78411107D01*
X143345480Y-78432150D01*
X143355970Y-78454329D01*
X143364235Y-78477428D01*
X143370196Y-78501227D01*
X143373796Y-78525495D01*
X143375000Y-78549999D01*
X143375000Y-79450001D01*
X143373796Y-79474505D01*
X143370196Y-79498773D01*
X143364235Y-79522572D01*
X143355970Y-79545671D01*
X143345480Y-79567850D01*
X143332868Y-79588893D01*
X143318253Y-79608599D01*
X143301777Y-79626777D01*
X143283599Y-79643253D01*
X143263893Y-79657868D01*
X143242850Y-79670480D01*
X143220671Y-79680970D01*
X143197572Y-79689235D01*
X143173773Y-79695196D01*
X143149505Y-79698796D01*
X143125001Y-79700000D01*
X142474999Y-79700000D01*
X142450495Y-79698796D01*
X142426227Y-79695196D01*
X142402428Y-79689235D01*
X142379329Y-79680970D01*
X142357150Y-79670480D01*
X142336107Y-79657868D01*
X142316401Y-79643253D01*
X142298223Y-79626777D01*
X142281747Y-79608599D01*
X142267132Y-79588893D01*
X142254520Y-79567850D01*
X142244030Y-79545671D01*
X142235765Y-79522572D01*
X142229804Y-79498773D01*
X142226204Y-79474505D01*
X142225000Y-79450001D01*
X142225000Y-78549999D01*
X142226204Y-78525495D01*
X142229804Y-78501227D01*
X142235765Y-78477428D01*
X142244030Y-78454329D01*
X142254520Y-78432150D01*
X142267132Y-78411107D01*
X142281747Y-78391401D01*
X142298223Y-78373223D01*
X142316401Y-78356747D01*
X142336107Y-78342132D01*
X142357150Y-78329520D01*
X142379329Y-78319030D01*
X142402428Y-78310765D01*
X142426227Y-78304804D01*
X142450495Y-78301204D01*
X142474999Y-78300000D01*
X143125001Y-78300000D01*
X143149505Y-78301204D01*
X143149505Y-78301204D01*
G37*
D16*
X142800000Y-79000000D03*
M02*
