M48
INCH,TZ
T1C0.0130
T2C0.0200
T3C0.0315
T4C0.0354
T5C0.0394
T6C0.1457
T7C0.1693
T8C0.2008
%
G90
G05
T1
X51220Y-31640
X51840Y-30970
X52740Y-32500
X52760Y-31890
X53750Y-33580
X54230Y-33360
X55428Y-39780
X55482Y-40105
T2
X49200Y-45120
X49490Y-45420
X49650Y-38430
X49650Y-39560
X49790Y-45750
X50080Y-37320
X50080Y-40020
X50450Y-38280
X50463Y-37794
X50700Y-46850
X50710Y-42820
X51315Y-48335
X51750Y-44730
X51750Y-45110
X51750Y-45490
X51750Y-45870
X51750Y-46260
X51870Y-41960
X51970Y-42840
X51970Y-42370
X52251Y-36006
X52730Y-36010
X52950Y-40180
X53260Y-39601
X53428Y-40141
X53603Y-46377
X53872Y-46108
X54383Y-40520
X54603Y-39451
X54990Y-33490
X55000Y-44780
X55360Y-34670
X55800Y-34290
X55910Y-34728
X56120Y-42340
X56148Y-38402
X56450Y-42010
X56750Y-42890
X57600Y-32730
X58160Y-42850
X58178Y-40293
X58283Y-48007
X58354Y-44230
X58570Y-42710
X58610Y-46930
X58730Y-45040
X58740Y-44030
X58780Y-40560
X58820Y-30630
X58900Y-46580
X59290Y-47380
X59460Y-31380
X59513Y-30267
X59590Y-40180
X59592Y-39386
X59602Y-39772
X59960Y-47490
X60180Y-31460
X60230Y-41450
X60300Y-45610
X60330Y-40700
X60720Y-47490
X60720Y-40670
X60950Y-39750
X60950Y-39010
X61060Y-30370
X61929Y-41251
X61950Y-36530
T3
X47505Y-42705
X49010Y-36600
X54740Y-37440
X54740Y-38530
X55590Y-37030
X57350Y-29290
X57589Y-39541
X57590Y-37030
X62785Y-29055
T4
X62085Y-30313
X63463Y-30313
T5
X59660Y-43150
X59660Y-44150
X47240Y-29360
X47240Y-30360
X47240Y-31360
X47240Y-32360
X47240Y-33360
X47240Y-34360
T6
X63594Y-46299
X47964Y-46299
T7
X60484Y-34409
X51074Y-34409
T8
X55783Y-46299
T0
M30
