G04 #@! TF.GenerationSoftware,KiCad,Pcbnew,(5.1.4-0)*
G04 #@! TF.CreationDate,2019-11-27T14:08:46-06:00*
G04 #@! TF.ProjectId,veccart,76656363-6172-4742-9e6b-696361645f70,rev?*
G04 #@! TF.SameCoordinates,Original*
G04 #@! TF.FileFunction,Legend,Bot*
G04 #@! TF.FilePolarity,Positive*
%FSLAX46Y46*%
G04 Gerber Fmt 4.6, Leading zero omitted, Abs format (unit mm)*
G04 Created by KiCad (PCBNEW (5.1.4-0)) date 2019-11-27 14:08:46*
%MOMM*%
%LPD*%
G04 APERTURE LIST*
%ADD10C,0.120000*%
%ADD11C,0.150000*%
G04 APERTURE END LIST*
D10*
X121319600Y-88604400D02*
X118659600Y-88604400D01*
X121319600Y-75844400D02*
X121319600Y-88604400D01*
X118659600Y-75844400D02*
X118659600Y-88604400D01*
X121319600Y-75844400D02*
X118659600Y-75844400D01*
X121319600Y-74574400D02*
X121319600Y-73244400D01*
X121319600Y-73244400D02*
X119989600Y-73244400D01*
X150206400Y-108271000D02*
X152866400Y-108271000D01*
X150206400Y-110871000D02*
X150206400Y-108271000D01*
X152866400Y-110871000D02*
X152866400Y-108271000D01*
X150206400Y-110871000D02*
X152866400Y-110871000D01*
X150206400Y-112141000D02*
X150206400Y-113471000D01*
X150206400Y-113471000D02*
X151536400Y-113471000D01*
X137522600Y-78999200D02*
X140382600Y-78999200D01*
X140382600Y-78999200D02*
X140382600Y-80919200D01*
X140382600Y-80919200D02*
X137522600Y-80919200D01*
X145839748Y-88873400D02*
X146362252Y-88873400D01*
X145839748Y-87453400D02*
X146362252Y-87453400D01*
X145830548Y-86841400D02*
X146353052Y-86841400D01*
X145830548Y-85421400D02*
X146353052Y-85421400D01*
X143127252Y-79249200D02*
X142604748Y-79249200D01*
X143127252Y-80669200D02*
X142604748Y-80669200D01*
X140850252Y-105131800D02*
X140327748Y-105131800D01*
X140850252Y-106551800D02*
X140327748Y-106551800D01*
X134519600Y-104631748D02*
X134519600Y-105154252D01*
X135939600Y-104631748D02*
X135939600Y-105154252D01*
X136678600Y-104649748D02*
X136678600Y-105172252D01*
X138098600Y-104649748D02*
X138098600Y-105172252D01*
X125570348Y-92226200D02*
X126092852Y-92226200D01*
X125570348Y-90806200D02*
X126092852Y-90806200D01*
X129852052Y-90806200D02*
X129329548Y-90806200D01*
X129852052Y-92226200D02*
X129329548Y-92226200D01*
X160622348Y-106678800D02*
X161144852Y-106678800D01*
X160622348Y-105258800D02*
X161144852Y-105258800D01*
X160622348Y-108939400D02*
X161144852Y-108939400D01*
X160622348Y-107519400D02*
X161144852Y-107519400D01*
X148142400Y-75345800D02*
X148142400Y-73345800D01*
X148142400Y-73345800D02*
X152042400Y-73345800D01*
X148142400Y-75345800D02*
X152042400Y-75345800D01*
D11*
X129678600Y-93395200D02*
X129678600Y-93620200D01*
X123928600Y-93395200D02*
X123928600Y-93695200D01*
X123928600Y-102045200D02*
X123928600Y-101745200D01*
X129678600Y-102045200D02*
X129678600Y-101745200D01*
X129678600Y-93395200D02*
X123928600Y-93395200D01*
X129678600Y-102045200D02*
X123928600Y-102045200D01*
X129678600Y-93620200D02*
X131278600Y-93620200D01*
D10*
X146969396Y-92392473D02*
X147919396Y-92392473D01*
X147919396Y-92392473D02*
X147919396Y-93342473D01*
X138649396Y-92392473D02*
X137699396Y-92392473D01*
X137699396Y-92392473D02*
X137699396Y-93342473D01*
X146969396Y-102612473D02*
X147919396Y-102612473D01*
X147919396Y-102612473D02*
X147919396Y-101662473D01*
X138649396Y-102612473D02*
X137699396Y-102612473D01*
X137699396Y-102612473D02*
X137699396Y-101662473D01*
X137699396Y-101662473D02*
X136359396Y-101662473D01*
X156188796Y-97268872D02*
X157448796Y-97268872D01*
X163008796Y-97268872D02*
X161748796Y-97268872D01*
X156188796Y-101028872D02*
X156188796Y-97268872D01*
X163008796Y-103278872D02*
X163008796Y-97268872D01*
D11*
X159878133Y-80771380D02*
X159878133Y-81485666D01*
X159925752Y-81628523D01*
X160020990Y-81723761D01*
X160163847Y-81771380D01*
X160259085Y-81771380D01*
X158878133Y-81771380D02*
X159449561Y-81771380D01*
X159163847Y-81771380D02*
X159163847Y-80771380D01*
X159259085Y-80914238D01*
X159354323Y-81009476D01*
X159449561Y-81057095D01*
X120322933Y-71696780D02*
X120322933Y-72411066D01*
X120370552Y-72553923D01*
X120465790Y-72649161D01*
X120608647Y-72696780D01*
X120703885Y-72696780D01*
X119894361Y-71792019D02*
X119846742Y-71744400D01*
X119751504Y-71696780D01*
X119513409Y-71696780D01*
X119418171Y-71744400D01*
X119370552Y-71792019D01*
X119322933Y-71887257D01*
X119322933Y-71982495D01*
X119370552Y-72125352D01*
X119941980Y-72696780D01*
X119322933Y-72696780D01*
X152369733Y-113923380D02*
X152369733Y-114637666D01*
X152417352Y-114780523D01*
X152512590Y-114875761D01*
X152655447Y-114923380D01*
X152750685Y-114923380D01*
X151893542Y-114923380D02*
X151893542Y-113923380D01*
X151512590Y-113923380D01*
X151417352Y-113971000D01*
X151369733Y-114018619D01*
X151322114Y-114113857D01*
X151322114Y-114256714D01*
X151369733Y-114351952D01*
X151417352Y-114399571D01*
X151512590Y-114447190D01*
X151893542Y-114447190D01*
X150369733Y-114923380D02*
X150941161Y-114923380D01*
X150655447Y-114923380D02*
X150655447Y-113923380D01*
X150750685Y-114066238D01*
X150845923Y-114161476D01*
X150941161Y-114209095D01*
X139260695Y-78761580D02*
X139260695Y-77761580D01*
X139022600Y-77761580D01*
X138879742Y-77809200D01*
X138784504Y-77904438D01*
X138736885Y-77999676D01*
X138689266Y-78190152D01*
X138689266Y-78333009D01*
X138736885Y-78523485D01*
X138784504Y-78618723D01*
X138879742Y-78713961D01*
X139022600Y-78761580D01*
X139260695Y-78761580D01*
X138355933Y-77761580D02*
X137736885Y-77761580D01*
X138070219Y-78142533D01*
X137927361Y-78142533D01*
X137832123Y-78190152D01*
X137784504Y-78237771D01*
X137736885Y-78333009D01*
X137736885Y-78571104D01*
X137784504Y-78666342D01*
X137832123Y-78713961D01*
X137927361Y-78761580D01*
X138213076Y-78761580D01*
X138308314Y-78713961D01*
X138355933Y-78666342D01*
X149366266Y-88520542D02*
X149413885Y-88568161D01*
X149556742Y-88615780D01*
X149651980Y-88615780D01*
X149794838Y-88568161D01*
X149890076Y-88472923D01*
X149937695Y-88377685D01*
X149985314Y-88187209D01*
X149985314Y-88044352D01*
X149937695Y-87853876D01*
X149890076Y-87758638D01*
X149794838Y-87663400D01*
X149651980Y-87615780D01*
X149556742Y-87615780D01*
X149413885Y-87663400D01*
X149366266Y-87711019D01*
X149032933Y-87615780D02*
X148366266Y-87615780D01*
X148794838Y-88615780D01*
X149366266Y-86488542D02*
X149413885Y-86536161D01*
X149556742Y-86583780D01*
X149651980Y-86583780D01*
X149794838Y-86536161D01*
X149890076Y-86440923D01*
X149937695Y-86345685D01*
X149985314Y-86155209D01*
X149985314Y-86012352D01*
X149937695Y-85821876D01*
X149890076Y-85726638D01*
X149794838Y-85631400D01*
X149651980Y-85583780D01*
X149556742Y-85583780D01*
X149413885Y-85631400D01*
X149366266Y-85679019D01*
X148509123Y-85583780D02*
X148699600Y-85583780D01*
X148794838Y-85631400D01*
X148842457Y-85679019D01*
X148937695Y-85821876D01*
X148985314Y-86012352D01*
X148985314Y-86393304D01*
X148937695Y-86488542D01*
X148890076Y-86536161D01*
X148794838Y-86583780D01*
X148604361Y-86583780D01*
X148509123Y-86536161D01*
X148461504Y-86488542D01*
X148413885Y-86393304D01*
X148413885Y-86155209D01*
X148461504Y-86059971D01*
X148509123Y-86012352D01*
X148604361Y-85964733D01*
X148794838Y-85964733D01*
X148890076Y-86012352D01*
X148937695Y-86059971D01*
X148985314Y-86155209D01*
X143032666Y-78761580D02*
X143366000Y-78285390D01*
X143604095Y-78761580D02*
X143604095Y-77761580D01*
X143223142Y-77761580D01*
X143127904Y-77809200D01*
X143080285Y-77856819D01*
X143032666Y-77952057D01*
X143032666Y-78094914D01*
X143080285Y-78190152D01*
X143127904Y-78237771D01*
X143223142Y-78285390D01*
X143604095Y-78285390D01*
X142175523Y-78094914D02*
X142175523Y-78761580D01*
X142413619Y-77713961D02*
X142651714Y-78428247D01*
X142032666Y-78428247D01*
X140781066Y-108072180D02*
X141114400Y-107595990D01*
X141352495Y-108072180D02*
X141352495Y-107072180D01*
X140971542Y-107072180D01*
X140876304Y-107119800D01*
X140828685Y-107167419D01*
X140781066Y-107262657D01*
X140781066Y-107405514D01*
X140828685Y-107500752D01*
X140876304Y-107548371D01*
X140971542Y-107595990D01*
X141352495Y-107595990D01*
X140447733Y-107072180D02*
X139828685Y-107072180D01*
X140162019Y-107453133D01*
X140019161Y-107453133D01*
X139923923Y-107500752D01*
X139876304Y-107548371D01*
X139828685Y-107643609D01*
X139828685Y-107881704D01*
X139876304Y-107976942D01*
X139923923Y-108024561D01*
X140019161Y-108072180D01*
X140304876Y-108072180D01*
X140400114Y-108024561D01*
X140447733Y-107976942D01*
X133440466Y-106325942D02*
X133488085Y-106373561D01*
X133630942Y-106421180D01*
X133726180Y-106421180D01*
X133869038Y-106373561D01*
X133964276Y-106278323D01*
X134011895Y-106183085D01*
X134059514Y-105992609D01*
X134059514Y-105849752D01*
X134011895Y-105659276D01*
X133964276Y-105564038D01*
X133869038Y-105468800D01*
X133726180Y-105421180D01*
X133630942Y-105421180D01*
X133488085Y-105468800D01*
X133440466Y-105516419D01*
X132964276Y-106421180D02*
X132773800Y-106421180D01*
X132678561Y-106373561D01*
X132630942Y-106325942D01*
X132535704Y-106183085D01*
X132488085Y-105992609D01*
X132488085Y-105611657D01*
X132535704Y-105516419D01*
X132583323Y-105468800D01*
X132678561Y-105421180D01*
X132869038Y-105421180D01*
X132964276Y-105468800D01*
X133011895Y-105516419D01*
X133059514Y-105611657D01*
X133059514Y-105849752D01*
X133011895Y-105944990D01*
X132964276Y-105992609D01*
X132869038Y-106040228D01*
X132678561Y-106040228D01*
X132583323Y-105992609D01*
X132535704Y-105944990D01*
X132488085Y-105849752D01*
X137479066Y-107951542D02*
X137526685Y-107999161D01*
X137669542Y-108046780D01*
X137764780Y-108046780D01*
X137907638Y-107999161D01*
X138002876Y-107903923D01*
X138050495Y-107808685D01*
X138098114Y-107618209D01*
X138098114Y-107475352D01*
X138050495Y-107284876D01*
X138002876Y-107189638D01*
X137907638Y-107094400D01*
X137764780Y-107046780D01*
X137669542Y-107046780D01*
X137526685Y-107094400D01*
X137479066Y-107142019D01*
X136907638Y-107475352D02*
X137002876Y-107427733D01*
X137050495Y-107380114D01*
X137098114Y-107284876D01*
X137098114Y-107237257D01*
X137050495Y-107142019D01*
X137002876Y-107094400D01*
X136907638Y-107046780D01*
X136717161Y-107046780D01*
X136621923Y-107094400D01*
X136574304Y-107142019D01*
X136526685Y-107237257D01*
X136526685Y-107284876D01*
X136574304Y-107380114D01*
X136621923Y-107427733D01*
X136717161Y-107475352D01*
X136907638Y-107475352D01*
X137002876Y-107522971D01*
X137050495Y-107570590D01*
X137098114Y-107665828D01*
X137098114Y-107856304D01*
X137050495Y-107951542D01*
X137002876Y-107999161D01*
X136907638Y-108046780D01*
X136717161Y-108046780D01*
X136621923Y-107999161D01*
X136574304Y-107951542D01*
X136526685Y-107856304D01*
X136526685Y-107665828D01*
X136574304Y-107570590D01*
X136621923Y-107522971D01*
X136717161Y-107475352D01*
X123026466Y-91873342D02*
X123074085Y-91920961D01*
X123216942Y-91968580D01*
X123312180Y-91968580D01*
X123455038Y-91920961D01*
X123550276Y-91825723D01*
X123597895Y-91730485D01*
X123645514Y-91540009D01*
X123645514Y-91397152D01*
X123597895Y-91206676D01*
X123550276Y-91111438D01*
X123455038Y-91016200D01*
X123312180Y-90968580D01*
X123216942Y-90968580D01*
X123074085Y-91016200D01*
X123026466Y-91063819D01*
X122121704Y-90968580D02*
X122597895Y-90968580D01*
X122645514Y-91444771D01*
X122597895Y-91397152D01*
X122502657Y-91349533D01*
X122264561Y-91349533D01*
X122169323Y-91397152D01*
X122121704Y-91444771D01*
X122074085Y-91540009D01*
X122074085Y-91778104D01*
X122121704Y-91873342D01*
X122169323Y-91920961D01*
X122264561Y-91968580D01*
X122502657Y-91968580D01*
X122597895Y-91920961D01*
X122645514Y-91873342D01*
X132627666Y-91822542D02*
X132675285Y-91870161D01*
X132818142Y-91917780D01*
X132913380Y-91917780D01*
X133056238Y-91870161D01*
X133151476Y-91774923D01*
X133199095Y-91679685D01*
X133246714Y-91489209D01*
X133246714Y-91346352D01*
X133199095Y-91155876D01*
X133151476Y-91060638D01*
X133056238Y-90965400D01*
X132913380Y-90917780D01*
X132818142Y-90917780D01*
X132675285Y-90965400D01*
X132627666Y-91013019D01*
X132294333Y-90917780D02*
X131675285Y-90917780D01*
X132008619Y-91298733D01*
X131865761Y-91298733D01*
X131770523Y-91346352D01*
X131722904Y-91393971D01*
X131675285Y-91489209D01*
X131675285Y-91727304D01*
X131722904Y-91822542D01*
X131770523Y-91870161D01*
X131865761Y-91917780D01*
X132151476Y-91917780D01*
X132246714Y-91870161D01*
X132294333Y-91822542D01*
X164022066Y-106325942D02*
X164069685Y-106373561D01*
X164212542Y-106421180D01*
X164307780Y-106421180D01*
X164450638Y-106373561D01*
X164545876Y-106278323D01*
X164593495Y-106183085D01*
X164641114Y-105992609D01*
X164641114Y-105849752D01*
X164593495Y-105659276D01*
X164545876Y-105564038D01*
X164450638Y-105468800D01*
X164307780Y-105421180D01*
X164212542Y-105421180D01*
X164069685Y-105468800D01*
X164022066Y-105516419D01*
X163641114Y-105516419D02*
X163593495Y-105468800D01*
X163498257Y-105421180D01*
X163260161Y-105421180D01*
X163164923Y-105468800D01*
X163117304Y-105516419D01*
X163069685Y-105611657D01*
X163069685Y-105706895D01*
X163117304Y-105849752D01*
X163688733Y-106421180D01*
X163069685Y-106421180D01*
X163971266Y-108586542D02*
X164018885Y-108634161D01*
X164161742Y-108681780D01*
X164256980Y-108681780D01*
X164399838Y-108634161D01*
X164495076Y-108538923D01*
X164542695Y-108443685D01*
X164590314Y-108253209D01*
X164590314Y-108110352D01*
X164542695Y-107919876D01*
X164495076Y-107824638D01*
X164399838Y-107729400D01*
X164256980Y-107681780D01*
X164161742Y-107681780D01*
X164018885Y-107729400D01*
X163971266Y-107777019D01*
X163018885Y-108681780D02*
X163590314Y-108681780D01*
X163304600Y-108681780D02*
X163304600Y-107681780D01*
X163399838Y-107824638D01*
X163495076Y-107919876D01*
X163590314Y-107967495D01*
X151130495Y-76798180D02*
X151130495Y-75798180D01*
X150892400Y-75798180D01*
X150749542Y-75845800D01*
X150654304Y-75941038D01*
X150606685Y-76036276D01*
X150559066Y-76226752D01*
X150559066Y-76369609D01*
X150606685Y-76560085D01*
X150654304Y-76655323D01*
X150749542Y-76750561D01*
X150892400Y-76798180D01*
X151130495Y-76798180D01*
X149606685Y-76798180D02*
X150178114Y-76798180D01*
X149892400Y-76798180D02*
X149892400Y-75798180D01*
X149987638Y-75941038D01*
X150082876Y-76036276D01*
X150178114Y-76083895D01*
X127558704Y-102652580D02*
X127558704Y-103462104D01*
X127511085Y-103557342D01*
X127463466Y-103604961D01*
X127368228Y-103652580D01*
X127177752Y-103652580D01*
X127082514Y-103604961D01*
X127034895Y-103557342D01*
X126987276Y-103462104D01*
X126987276Y-102652580D01*
X126082514Y-102985914D02*
X126082514Y-103652580D01*
X126320609Y-102604961D02*
X126558704Y-103319247D01*
X125939657Y-103319247D01*
X145211704Y-104582980D02*
X145211704Y-105392504D01*
X145164085Y-105487742D01*
X145116466Y-105535361D01*
X145021228Y-105582980D01*
X144830752Y-105582980D01*
X144735514Y-105535361D01*
X144687895Y-105487742D01*
X144640276Y-105392504D01*
X144640276Y-104582980D01*
X144211704Y-104678219D02*
X144164085Y-104630600D01*
X144068847Y-104582980D01*
X143830752Y-104582980D01*
X143735514Y-104630600D01*
X143687895Y-104678219D01*
X143640276Y-104773457D01*
X143640276Y-104868695D01*
X143687895Y-105011552D01*
X144259323Y-105582980D01*
X143640276Y-105582980D01*
X160451704Y-93025980D02*
X160451704Y-93835504D01*
X160404085Y-93930742D01*
X160356466Y-93978361D01*
X160261228Y-94025980D01*
X160070752Y-94025980D01*
X159975514Y-93978361D01*
X159927895Y-93930742D01*
X159880276Y-93835504D01*
X159880276Y-93025980D01*
X158880276Y-94025980D02*
X159451704Y-94025980D01*
X159165990Y-94025980D02*
X159165990Y-93025980D01*
X159261228Y-93168838D01*
X159356466Y-93264076D01*
X159451704Y-93311695D01*
M02*
