G04 #@! TF.GenerationSoftware,KiCad,Pcbnew,(5.1.4-0)*
G04 #@! TF.CreationDate,2019-11-27T14:08:46-06:00*
G04 #@! TF.ProjectId,veccart,76656363-6172-4742-9e6b-696361645f70,rev?*
G04 #@! TF.SameCoordinates,Original*
G04 #@! TF.FileFunction,Legend,Top*
G04 #@! TF.FilePolarity,Positive*
%FSLAX46Y46*%
G04 Gerber Fmt 4.6, Leading zero omitted, Abs format (unit mm)*
G04 Created by KiCad (PCBNEW (5.1.4-0)) date 2019-11-27 14:08:46*
%MOMM*%
%LPD*%
G04 APERTURE LIST*
%ADD10C,0.279400*%
%ADD11C,0.010000*%
%ADD12C,0.120000*%
%ADD13C,0.150000*%
G04 APERTURE END LIST*
D10*
X128652753Y-122259271D02*
X129033753Y-123402271D01*
X129414753Y-122259271D01*
X129795753Y-122803557D02*
X130176753Y-122803557D01*
X130340038Y-123402271D02*
X129795753Y-123402271D01*
X129795753Y-122259271D01*
X130340038Y-122259271D01*
X131483038Y-123293414D02*
X131428610Y-123347842D01*
X131265324Y-123402271D01*
X131156467Y-123402271D01*
X130993181Y-123347842D01*
X130884324Y-123238985D01*
X130829896Y-123130128D01*
X130775467Y-122912414D01*
X130775467Y-122749128D01*
X130829896Y-122531414D01*
X130884324Y-122422557D01*
X130993181Y-122313700D01*
X131156467Y-122259271D01*
X131265324Y-122259271D01*
X131428610Y-122313700D01*
X131483038Y-122368128D01*
X131972896Y-123402271D02*
X131972896Y-122259271D01*
X132408324Y-122259271D01*
X132517181Y-122313700D01*
X132571610Y-122368128D01*
X132626038Y-122476985D01*
X132626038Y-122640271D01*
X132571610Y-122749128D01*
X132517181Y-122803557D01*
X132408324Y-122857985D01*
X131972896Y-122857985D01*
X133769038Y-123402271D02*
X133388038Y-122857985D01*
X133115896Y-123402271D02*
X133115896Y-122259271D01*
X133551324Y-122259271D01*
X133660181Y-122313700D01*
X133714610Y-122368128D01*
X133769038Y-122476985D01*
X133769038Y-122640271D01*
X133714610Y-122749128D01*
X133660181Y-122803557D01*
X133551324Y-122857985D01*
X133115896Y-122857985D01*
X134476610Y-122259271D02*
X134694324Y-122259271D01*
X134803181Y-122313700D01*
X134912038Y-122422557D01*
X134966467Y-122640271D01*
X134966467Y-123021271D01*
X134912038Y-123238985D01*
X134803181Y-123347842D01*
X134694324Y-123402271D01*
X134476610Y-123402271D01*
X134367753Y-123347842D01*
X134258896Y-123238985D01*
X134204467Y-123021271D01*
X134204467Y-122640271D01*
X134258896Y-122422557D01*
X134367753Y-122313700D01*
X134476610Y-122259271D01*
X136055038Y-122313700D02*
X135946181Y-122259271D01*
X135782896Y-122259271D01*
X135619610Y-122313700D01*
X135510753Y-122422557D01*
X135456324Y-122531414D01*
X135401896Y-122749128D01*
X135401896Y-122912414D01*
X135456324Y-123130128D01*
X135510753Y-123238985D01*
X135619610Y-123347842D01*
X135782896Y-123402271D01*
X135891753Y-123402271D01*
X136055038Y-123347842D01*
X136109467Y-123293414D01*
X136109467Y-122912414D01*
X135891753Y-122912414D01*
X137361324Y-122640271D02*
X137633467Y-123402271D01*
X137905610Y-122640271D01*
X138286610Y-122368128D02*
X138341038Y-122313700D01*
X138449896Y-122259271D01*
X138722038Y-122259271D01*
X138830896Y-122313700D01*
X138885324Y-122368128D01*
X138939753Y-122476985D01*
X138939753Y-122585842D01*
X138885324Y-122749128D01*
X138232181Y-123402271D01*
X138939753Y-123402271D01*
X139647324Y-122259271D02*
X139756181Y-122259271D01*
X139865038Y-122313700D01*
X139919467Y-122368128D01*
X139973896Y-122476985D01*
X140028324Y-122694700D01*
X140028324Y-122966842D01*
X139973896Y-123184557D01*
X139919467Y-123293414D01*
X139865038Y-123347842D01*
X139756181Y-123402271D01*
X139647324Y-123402271D01*
X139538467Y-123347842D01*
X139484038Y-123293414D01*
X139429610Y-123184557D01*
X139375181Y-122966842D01*
X139375181Y-122694700D01*
X139429610Y-122476985D01*
X139484038Y-122368128D01*
X139538467Y-122313700D01*
X139647324Y-122259271D01*
X141116896Y-123402271D02*
X140463753Y-123402271D01*
X140790324Y-123402271D02*
X140790324Y-122259271D01*
X140681467Y-122422557D01*
X140572610Y-122531414D01*
X140463753Y-122585842D01*
X141661181Y-123402271D02*
X141878896Y-123402271D01*
X141987753Y-123347842D01*
X142042181Y-123293414D01*
X142151038Y-123130128D01*
X142205467Y-122912414D01*
X142205467Y-122476985D01*
X142151038Y-122368128D01*
X142096610Y-122313700D01*
X141987753Y-122259271D01*
X141770038Y-122259271D01*
X141661181Y-122313700D01*
X141606753Y-122368128D01*
X141552324Y-122476985D01*
X141552324Y-122749128D01*
X141606753Y-122857985D01*
X141661181Y-122912414D01*
X141770038Y-122966842D01*
X141987753Y-122966842D01*
X142096610Y-122912414D01*
X142151038Y-122857985D01*
X142205467Y-122749128D01*
X142913038Y-122259271D02*
X143021896Y-122259271D01*
X143130753Y-122313700D01*
X143185181Y-122368128D01*
X143239610Y-122476985D01*
X143294038Y-122694700D01*
X143294038Y-122966842D01*
X143239610Y-123184557D01*
X143185181Y-123293414D01*
X143130753Y-123347842D01*
X143021896Y-123402271D01*
X142913038Y-123402271D01*
X142804181Y-123347842D01*
X142749753Y-123293414D01*
X142695324Y-123184557D01*
X142640896Y-122966842D01*
X142640896Y-122694700D01*
X142695324Y-122476985D01*
X142749753Y-122368128D01*
X142804181Y-122313700D01*
X142913038Y-122259271D01*
X144273753Y-122259271D02*
X144056038Y-122259271D01*
X143947181Y-122313700D01*
X143892753Y-122368128D01*
X143783896Y-122531414D01*
X143729467Y-122749128D01*
X143729467Y-123184557D01*
X143783896Y-123293414D01*
X143838324Y-123347842D01*
X143947181Y-123402271D01*
X144164896Y-123402271D01*
X144273753Y-123347842D01*
X144328181Y-123293414D01*
X144382610Y-123184557D01*
X144382610Y-122912414D01*
X144328181Y-122803557D01*
X144273753Y-122749128D01*
X144164896Y-122694700D01*
X143947181Y-122694700D01*
X143838324Y-122749128D01*
X143783896Y-122803557D01*
X143729467Y-122912414D01*
X144818038Y-122368128D02*
X144872467Y-122313700D01*
X144981324Y-122259271D01*
X145253467Y-122259271D01*
X145362324Y-122313700D01*
X145416753Y-122368128D01*
X145471181Y-122476985D01*
X145471181Y-122585842D01*
X145416753Y-122749128D01*
X144763610Y-123402271D01*
X145471181Y-123402271D01*
X146178753Y-122259271D02*
X146287610Y-122259271D01*
X146396467Y-122313700D01*
X146450896Y-122368128D01*
X146505324Y-122476985D01*
X146559753Y-122694700D01*
X146559753Y-122966842D01*
X146505324Y-123184557D01*
X146450896Y-123293414D01*
X146396467Y-123347842D01*
X146287610Y-123402271D01*
X146178753Y-123402271D01*
X146069896Y-123347842D01*
X146015467Y-123293414D01*
X145961038Y-123184557D01*
X145906610Y-122966842D01*
X145906610Y-122694700D01*
X145961038Y-122476985D01*
X146015467Y-122368128D01*
X146069896Y-122313700D01*
X146178753Y-122259271D01*
X148247038Y-123837700D02*
X148192610Y-123783271D01*
X148083753Y-123619985D01*
X148029324Y-123511128D01*
X147974896Y-123347842D01*
X147920467Y-123075700D01*
X147920467Y-122857985D01*
X147974896Y-122585842D01*
X148029324Y-122422557D01*
X148083753Y-122313700D01*
X148192610Y-122150414D01*
X148247038Y-122095985D01*
X148682467Y-123402271D02*
X148682467Y-122640271D01*
X148682467Y-122857985D02*
X148736896Y-122749128D01*
X148791324Y-122694700D01*
X148900181Y-122640271D01*
X149009038Y-122640271D01*
X149879896Y-123402271D02*
X149879896Y-122803557D01*
X149825467Y-122694700D01*
X149716610Y-122640271D01*
X149498896Y-122640271D01*
X149390038Y-122694700D01*
X149879896Y-123347842D02*
X149771038Y-123402271D01*
X149498896Y-123402271D01*
X149390038Y-123347842D01*
X149335610Y-123238985D01*
X149335610Y-123130128D01*
X149390038Y-123021271D01*
X149498896Y-122966842D01*
X149771038Y-122966842D01*
X149879896Y-122912414D01*
X150260896Y-122640271D02*
X150696324Y-122640271D01*
X150424181Y-122259271D02*
X150424181Y-123238985D01*
X150478610Y-123347842D01*
X150587467Y-123402271D01*
X150696324Y-123402271D01*
X150914038Y-122640271D02*
X151349467Y-122640271D01*
X151077324Y-122259271D02*
X151077324Y-123238985D01*
X151131753Y-123347842D01*
X151240610Y-123402271D01*
X151349467Y-123402271D01*
X151730467Y-123402271D02*
X151730467Y-122259271D01*
X151730467Y-122694700D02*
X151839324Y-122640271D01*
X152057038Y-122640271D01*
X152165896Y-122694700D01*
X152220324Y-122749128D01*
X152274753Y-122857985D01*
X152274753Y-123184557D01*
X152220324Y-123293414D01*
X152165896Y-123347842D01*
X152057038Y-123402271D01*
X151839324Y-123402271D01*
X151730467Y-123347842D01*
X152927896Y-123402271D02*
X152819038Y-123347842D01*
X152764610Y-123293414D01*
X152710181Y-123184557D01*
X152710181Y-122857985D01*
X152764610Y-122749128D01*
X152819038Y-122694700D01*
X152927896Y-122640271D01*
X153091181Y-122640271D01*
X153200038Y-122694700D01*
X153254467Y-122749128D01*
X153308896Y-122857985D01*
X153308896Y-123184557D01*
X153254467Y-123293414D01*
X153200038Y-123347842D01*
X153091181Y-123402271D01*
X152927896Y-123402271D01*
X153798753Y-123402271D02*
X153798753Y-122640271D01*
X153798753Y-122259271D02*
X153744324Y-122313700D01*
X153798753Y-122368128D01*
X153853181Y-122313700D01*
X153798753Y-122259271D01*
X153798753Y-122368128D01*
X154234181Y-123837700D02*
X154288610Y-123783271D01*
X154397467Y-123619985D01*
X154451896Y-123511128D01*
X154506324Y-123347842D01*
X154560753Y-123075700D01*
X154560753Y-122857985D01*
X154506324Y-122585842D01*
X154451896Y-122422557D01*
X154397467Y-122313700D01*
X154288610Y-122150414D01*
X154234181Y-122095985D01*
D11*
G36*
X126517400Y-73460454D02*
G01*
X126528265Y-73574393D01*
X126559882Y-73682016D01*
X126610785Y-73781015D01*
X126679507Y-73869084D01*
X126764581Y-73943916D01*
X126861568Y-74001784D01*
X126967836Y-74041405D01*
X127074850Y-74059973D01*
X127180500Y-74058834D01*
X127282675Y-74039330D01*
X127379266Y-74002806D01*
X127468162Y-73950605D01*
X127547254Y-73884073D01*
X127614431Y-73804552D01*
X127667583Y-73713387D01*
X127704601Y-73611923D01*
X127723373Y-73501502D01*
X127725311Y-73451606D01*
X127725311Y-73363667D01*
X127777240Y-73363667D01*
X127813547Y-73366511D01*
X127840445Y-73378311D01*
X127867551Y-73402049D01*
X127905933Y-73440431D01*
X127905933Y-75632002D01*
X127905924Y-75894139D01*
X127905892Y-76134641D01*
X127905828Y-76354448D01*
X127905724Y-76554501D01*
X127905573Y-76735744D01*
X127905366Y-76899116D01*
X127905094Y-77045560D01*
X127904750Y-77176017D01*
X127904326Y-77291429D01*
X127903813Y-77392738D01*
X127903203Y-77480884D01*
X127902488Y-77556810D01*
X127901660Y-77621457D01*
X127900711Y-77675767D01*
X127899633Y-77720680D01*
X127898417Y-77757140D01*
X127897055Y-77786087D01*
X127895539Y-77808463D01*
X127893862Y-77825209D01*
X127892014Y-77837268D01*
X127889987Y-77845580D01*
X127887775Y-77851087D01*
X127886692Y-77852937D01*
X127882529Y-77859949D01*
X127878995Y-77866396D01*
X127875165Y-77872300D01*
X127870118Y-77877686D01*
X127862929Y-77882578D01*
X127852677Y-77886998D01*
X127838436Y-77890972D01*
X127819286Y-77894521D01*
X127794301Y-77897670D01*
X127762560Y-77900442D01*
X127723138Y-77902861D01*
X127675114Y-77904951D01*
X127617563Y-77906735D01*
X127549563Y-77908237D01*
X127470190Y-77909480D01*
X127378521Y-77910489D01*
X127273634Y-77911285D01*
X127154604Y-77911894D01*
X127020510Y-77912339D01*
X126870427Y-77912643D01*
X126703433Y-77912830D01*
X126518604Y-77912924D01*
X126315017Y-77912948D01*
X126091750Y-77912925D01*
X125847878Y-77912880D01*
X125582479Y-77912837D01*
X125544096Y-77912832D01*
X125277118Y-77912789D01*
X125031798Y-77912718D01*
X124807217Y-77912613D01*
X124602455Y-77912466D01*
X124416594Y-77912269D01*
X124248712Y-77912016D01*
X124097892Y-77911700D01*
X123963213Y-77911313D01*
X123843756Y-77910847D01*
X123738601Y-77910297D01*
X123646829Y-77909653D01*
X123567521Y-77908911D01*
X123499757Y-77908061D01*
X123442618Y-77907097D01*
X123395183Y-77906011D01*
X123356534Y-77904797D01*
X123325751Y-77903447D01*
X123301915Y-77901955D01*
X123284106Y-77900311D01*
X123271405Y-77898511D01*
X123262892Y-77896545D01*
X123258534Y-77894877D01*
X123250072Y-77891306D01*
X123242303Y-77888670D01*
X123235198Y-77886034D01*
X123228727Y-77882462D01*
X123222861Y-77877021D01*
X123217571Y-77868775D01*
X123212826Y-77856790D01*
X123208598Y-77840131D01*
X123204857Y-77817863D01*
X123201573Y-77789052D01*
X123198717Y-77752763D01*
X123196260Y-77708061D01*
X123194171Y-77654011D01*
X123192422Y-77589679D01*
X123190983Y-77514130D01*
X123189824Y-77426430D01*
X123188917Y-77325643D01*
X123188231Y-77210834D01*
X123187737Y-77081070D01*
X123187405Y-76935415D01*
X123187207Y-76772935D01*
X123187113Y-76592695D01*
X123187092Y-76393760D01*
X123187115Y-76175196D01*
X123187154Y-75936068D01*
X123187178Y-75675440D01*
X123187178Y-75633289D01*
X123187164Y-75370392D01*
X123187139Y-75129132D01*
X123187129Y-74908565D01*
X123187158Y-74707752D01*
X123187252Y-74525749D01*
X123187438Y-74361616D01*
X123187741Y-74214411D01*
X123188186Y-74083192D01*
X123188766Y-73973267D01*
X123491603Y-73973267D01*
X123531393Y-74031111D01*
X123542564Y-74046879D01*
X123552634Y-74060841D01*
X123561662Y-74074184D01*
X123569703Y-74088093D01*
X123576814Y-74103756D01*
X123583053Y-74122358D01*
X123588475Y-74145086D01*
X123593138Y-74173127D01*
X123597099Y-74207667D01*
X123600415Y-74249892D01*
X123603141Y-74300989D01*
X123605336Y-74362144D01*
X123607055Y-74434544D01*
X123608356Y-74519375D01*
X123609295Y-74617822D01*
X123609930Y-74731074D01*
X123610316Y-74860316D01*
X123610512Y-75006734D01*
X123610573Y-75171516D01*
X123610557Y-75355847D01*
X123610520Y-75560913D01*
X123610511Y-75683533D01*
X123610535Y-75900482D01*
X123610569Y-76096042D01*
X123610557Y-76271399D01*
X123610442Y-76427741D01*
X123610170Y-76566257D01*
X123609682Y-76688134D01*
X123608924Y-76794560D01*
X123607838Y-76886722D01*
X123606369Y-76965809D01*
X123604460Y-77033008D01*
X123602056Y-77089507D01*
X123599099Y-77136493D01*
X123595534Y-77175155D01*
X123591305Y-77206680D01*
X123586354Y-77232255D01*
X123580627Y-77253070D01*
X123574067Y-77270311D01*
X123566617Y-77285165D01*
X123558221Y-77298822D01*
X123548824Y-77312469D01*
X123538368Y-77327293D01*
X123532277Y-77336183D01*
X123493504Y-77393800D01*
X124025068Y-77393800D01*
X124148317Y-77393765D01*
X124250813Y-77393615D01*
X124334380Y-77393278D01*
X124400844Y-77392686D01*
X124452029Y-77391767D01*
X124489759Y-77390451D01*
X124515860Y-77388669D01*
X124532156Y-77386351D01*
X124540472Y-77383426D01*
X124542632Y-77379824D01*
X124540461Y-77375475D01*
X124539265Y-77374045D01*
X124514115Y-77336973D01*
X124488217Y-77284172D01*
X124464608Y-77222170D01*
X124456339Y-77195757D01*
X124451722Y-77177816D01*
X124447821Y-77156755D01*
X124444552Y-77130489D01*
X124441834Y-77096932D01*
X124439585Y-77053999D01*
X124437723Y-76999604D01*
X124436164Y-76931662D01*
X124434828Y-76848088D01*
X124433631Y-76746795D01*
X124432492Y-76625700D01*
X124432115Y-76581000D01*
X124431098Y-76455849D01*
X124430340Y-76351482D01*
X124429897Y-76266107D01*
X124429830Y-76197933D01*
X124430195Y-76145165D01*
X124431052Y-76106014D01*
X124432459Y-76078685D01*
X124434475Y-76061386D01*
X124437157Y-76052326D01*
X124440564Y-76049712D01*
X124444756Y-76051751D01*
X124449229Y-76056067D01*
X124459584Y-76069002D01*
X124481642Y-76098076D01*
X124513843Y-76141159D01*
X124554626Y-76196118D01*
X124602430Y-76260823D01*
X124655695Y-76333142D01*
X124712860Y-76410944D01*
X124772363Y-76492098D01*
X124832645Y-76574472D01*
X124892145Y-76655936D01*
X124949302Y-76734357D01*
X125002555Y-76807604D01*
X125050343Y-76873547D01*
X125091107Y-76930054D01*
X125123284Y-76974993D01*
X125145315Y-77006234D01*
X125149883Y-77012866D01*
X125172804Y-77049769D01*
X125199612Y-77097759D01*
X125225011Y-77147297D01*
X125228232Y-77153977D01*
X125249910Y-77202172D01*
X125262496Y-77239734D01*
X125268226Y-77275560D01*
X125269344Y-77317600D01*
X125268710Y-77393800D01*
X126423149Y-77393800D01*
X126331985Y-77300069D01*
X126285188Y-77250175D01*
X126234901Y-77193695D01*
X126188856Y-77139426D01*
X126168431Y-77114073D01*
X126137993Y-77074528D01*
X126097938Y-77021316D01*
X126049439Y-76956067D01*
X125993665Y-76880411D01*
X125931789Y-76795977D01*
X125864981Y-76704394D01*
X125794413Y-76607292D01*
X125721255Y-76506301D01*
X125646679Y-76403050D01*
X125571856Y-76299168D01*
X125497957Y-76196285D01*
X125426154Y-76096031D01*
X125357616Y-76000036D01*
X125293516Y-75909927D01*
X125235025Y-75827336D01*
X125183314Y-75753892D01*
X125139553Y-75691224D01*
X125104915Y-75640961D01*
X125080570Y-75604734D01*
X125067689Y-75584171D01*
X125065931Y-75580068D01*
X125073890Y-75568742D01*
X125094685Y-75541562D01*
X125126953Y-75500229D01*
X125169330Y-75446444D01*
X125220453Y-75381906D01*
X125278959Y-75308318D01*
X125343486Y-75227378D01*
X125412669Y-75140788D01*
X125485147Y-75050248D01*
X125559554Y-74957460D01*
X125619283Y-74883102D01*
X126630289Y-74883102D01*
X126636198Y-74896059D01*
X126650528Y-74918308D01*
X126651575Y-74919791D01*
X126670362Y-74949944D01*
X126690009Y-74986775D01*
X126693908Y-74994911D01*
X126697444Y-75003340D01*
X126700570Y-75013459D01*
X126703314Y-75026660D01*
X126705708Y-75044338D01*
X126707781Y-75067884D01*
X126709565Y-75098693D01*
X126711088Y-75138157D01*
X126712381Y-75187669D01*
X126713474Y-75248623D01*
X126714397Y-75322411D01*
X126715181Y-75410428D01*
X126715855Y-75514065D01*
X126716450Y-75634716D01*
X126716995Y-75773774D01*
X126717521Y-75932632D01*
X126718055Y-76111489D01*
X126718594Y-76296607D01*
X126719028Y-76460545D01*
X126719291Y-76604703D01*
X126719316Y-76730479D01*
X126719035Y-76839271D01*
X126718381Y-76932477D01*
X126717286Y-77011497D01*
X126715682Y-77077728D01*
X126713503Y-77132570D01*
X126710681Y-77177421D01*
X126707149Y-77213678D01*
X126702839Y-77242741D01*
X126697683Y-77266009D01*
X126691615Y-77284879D01*
X126684567Y-77300751D01*
X126676471Y-77315022D01*
X126667260Y-77329091D01*
X126658760Y-77341558D01*
X126641624Y-77367852D01*
X126631478Y-77385437D01*
X126630289Y-77388657D01*
X126641196Y-77389734D01*
X126672389Y-77390735D01*
X126721577Y-77391635D01*
X126786467Y-77392410D01*
X126864770Y-77393037D01*
X126954193Y-77393491D01*
X127052444Y-77393749D01*
X127121355Y-77393800D01*
X127226348Y-77393580D01*
X127323190Y-77392948D01*
X127409693Y-77391949D01*
X127483668Y-77390627D01*
X127542926Y-77389026D01*
X127585280Y-77387191D01*
X127608540Y-77385165D01*
X127612422Y-77383893D01*
X127604724Y-77368991D01*
X127596726Y-77360960D01*
X127583554Y-77343834D01*
X127566315Y-77313583D01*
X127554393Y-77289022D01*
X127527755Y-77230111D01*
X127524680Y-76053245D01*
X127521605Y-74876378D01*
X127075947Y-74876378D01*
X126978130Y-74876542D01*
X126887736Y-74877011D01*
X126807170Y-74877747D01*
X126738838Y-74878716D01*
X126685144Y-74879880D01*
X126648495Y-74881203D01*
X126631296Y-74882649D01*
X126630289Y-74883102D01*
X125619283Y-74883102D01*
X125634530Y-74864122D01*
X125708710Y-74771937D01*
X125780731Y-74682604D01*
X125849231Y-74597824D01*
X125912845Y-74519298D01*
X125970212Y-74448726D01*
X126019967Y-74387809D01*
X126060748Y-74338247D01*
X126077912Y-74317578D01*
X126164204Y-74216916D01*
X126240803Y-74133659D01*
X126309617Y-74065838D01*
X126372552Y-74011489D01*
X126381933Y-74004122D01*
X126421444Y-73973517D01*
X125289684Y-73973267D01*
X125294973Y-74021244D01*
X125291670Y-74078588D01*
X125270139Y-74146863D01*
X125230165Y-74226612D01*
X125184857Y-74298895D01*
X125168639Y-74321540D01*
X125140586Y-74359096D01*
X125102370Y-74409421D01*
X125055663Y-74470373D01*
X125002139Y-74539811D01*
X124943469Y-74615594D01*
X124881325Y-74695580D01*
X124817379Y-74777628D01*
X124753305Y-74859596D01*
X124690773Y-74939343D01*
X124631457Y-75014727D01*
X124577029Y-75083607D01*
X124529161Y-75143842D01*
X124489525Y-75193289D01*
X124459794Y-75229808D01*
X124441639Y-75251258D01*
X124438580Y-75254556D01*
X124435721Y-75246549D01*
X124433507Y-75216255D01*
X124431943Y-75163956D01*
X124431033Y-75089931D01*
X124430780Y-74994463D01*
X124431187Y-74877834D01*
X124432096Y-74757845D01*
X124433418Y-74625733D01*
X124434943Y-74513994D01*
X124436919Y-74420425D01*
X124439594Y-74342819D01*
X124443218Y-74278974D01*
X124448039Y-74226683D01*
X124454306Y-74183744D01*
X124462268Y-74147951D01*
X124472173Y-74117100D01*
X124484269Y-74088986D01*
X124498807Y-74061405D01*
X124513489Y-74036366D01*
X124551486Y-73973267D01*
X123491603Y-73973267D01*
X123188766Y-73973267D01*
X123188799Y-73967017D01*
X123189605Y-73864944D01*
X123190630Y-73776033D01*
X123191900Y-73699341D01*
X123193440Y-73633927D01*
X123195276Y-73578849D01*
X123197433Y-73533165D01*
X123199937Y-73495934D01*
X123202813Y-73466213D01*
X123206087Y-73443062D01*
X123209785Y-73425539D01*
X123213931Y-73412701D01*
X123218553Y-73403608D01*
X123223674Y-73397318D01*
X123229322Y-73392888D01*
X123235521Y-73389378D01*
X123242296Y-73385845D01*
X123248292Y-73382276D01*
X123253525Y-73379700D01*
X123261701Y-73377372D01*
X123273914Y-73375278D01*
X123291259Y-73373407D01*
X123314831Y-73371747D01*
X123345723Y-73370284D01*
X123385032Y-73369008D01*
X123433850Y-73367904D01*
X123493273Y-73366961D01*
X123564396Y-73366167D01*
X123648312Y-73365509D01*
X123746117Y-73364975D01*
X123858906Y-73364553D01*
X123987771Y-73364229D01*
X124133809Y-73363992D01*
X124298114Y-73363830D01*
X124481780Y-73363730D01*
X124685903Y-73363680D01*
X124897047Y-73363667D01*
X126517400Y-73363667D01*
X126517400Y-73460454D01*
X126517400Y-73460454D01*
G37*
X126517400Y-73460454D02*
X126528265Y-73574393D01*
X126559882Y-73682016D01*
X126610785Y-73781015D01*
X126679507Y-73869084D01*
X126764581Y-73943916D01*
X126861568Y-74001784D01*
X126967836Y-74041405D01*
X127074850Y-74059973D01*
X127180500Y-74058834D01*
X127282675Y-74039330D01*
X127379266Y-74002806D01*
X127468162Y-73950605D01*
X127547254Y-73884073D01*
X127614431Y-73804552D01*
X127667583Y-73713387D01*
X127704601Y-73611923D01*
X127723373Y-73501502D01*
X127725311Y-73451606D01*
X127725311Y-73363667D01*
X127777240Y-73363667D01*
X127813547Y-73366511D01*
X127840445Y-73378311D01*
X127867551Y-73402049D01*
X127905933Y-73440431D01*
X127905933Y-75632002D01*
X127905924Y-75894139D01*
X127905892Y-76134641D01*
X127905828Y-76354448D01*
X127905724Y-76554501D01*
X127905573Y-76735744D01*
X127905366Y-76899116D01*
X127905094Y-77045560D01*
X127904750Y-77176017D01*
X127904326Y-77291429D01*
X127903813Y-77392738D01*
X127903203Y-77480884D01*
X127902488Y-77556810D01*
X127901660Y-77621457D01*
X127900711Y-77675767D01*
X127899633Y-77720680D01*
X127898417Y-77757140D01*
X127897055Y-77786087D01*
X127895539Y-77808463D01*
X127893862Y-77825209D01*
X127892014Y-77837268D01*
X127889987Y-77845580D01*
X127887775Y-77851087D01*
X127886692Y-77852937D01*
X127882529Y-77859949D01*
X127878995Y-77866396D01*
X127875165Y-77872300D01*
X127870118Y-77877686D01*
X127862929Y-77882578D01*
X127852677Y-77886998D01*
X127838436Y-77890972D01*
X127819286Y-77894521D01*
X127794301Y-77897670D01*
X127762560Y-77900442D01*
X127723138Y-77902861D01*
X127675114Y-77904951D01*
X127617563Y-77906735D01*
X127549563Y-77908237D01*
X127470190Y-77909480D01*
X127378521Y-77910489D01*
X127273634Y-77911285D01*
X127154604Y-77911894D01*
X127020510Y-77912339D01*
X126870427Y-77912643D01*
X126703433Y-77912830D01*
X126518604Y-77912924D01*
X126315017Y-77912948D01*
X126091750Y-77912925D01*
X125847878Y-77912880D01*
X125582479Y-77912837D01*
X125544096Y-77912832D01*
X125277118Y-77912789D01*
X125031798Y-77912718D01*
X124807217Y-77912613D01*
X124602455Y-77912466D01*
X124416594Y-77912269D01*
X124248712Y-77912016D01*
X124097892Y-77911700D01*
X123963213Y-77911313D01*
X123843756Y-77910847D01*
X123738601Y-77910297D01*
X123646829Y-77909653D01*
X123567521Y-77908911D01*
X123499757Y-77908061D01*
X123442618Y-77907097D01*
X123395183Y-77906011D01*
X123356534Y-77904797D01*
X123325751Y-77903447D01*
X123301915Y-77901955D01*
X123284106Y-77900311D01*
X123271405Y-77898511D01*
X123262892Y-77896545D01*
X123258534Y-77894877D01*
X123250072Y-77891306D01*
X123242303Y-77888670D01*
X123235198Y-77886034D01*
X123228727Y-77882462D01*
X123222861Y-77877021D01*
X123217571Y-77868775D01*
X123212826Y-77856790D01*
X123208598Y-77840131D01*
X123204857Y-77817863D01*
X123201573Y-77789052D01*
X123198717Y-77752763D01*
X123196260Y-77708061D01*
X123194171Y-77654011D01*
X123192422Y-77589679D01*
X123190983Y-77514130D01*
X123189824Y-77426430D01*
X123188917Y-77325643D01*
X123188231Y-77210834D01*
X123187737Y-77081070D01*
X123187405Y-76935415D01*
X123187207Y-76772935D01*
X123187113Y-76592695D01*
X123187092Y-76393760D01*
X123187115Y-76175196D01*
X123187154Y-75936068D01*
X123187178Y-75675440D01*
X123187178Y-75633289D01*
X123187164Y-75370392D01*
X123187139Y-75129132D01*
X123187129Y-74908565D01*
X123187158Y-74707752D01*
X123187252Y-74525749D01*
X123187438Y-74361616D01*
X123187741Y-74214411D01*
X123188186Y-74083192D01*
X123188766Y-73973267D01*
X123491603Y-73973267D01*
X123531393Y-74031111D01*
X123542564Y-74046879D01*
X123552634Y-74060841D01*
X123561662Y-74074184D01*
X123569703Y-74088093D01*
X123576814Y-74103756D01*
X123583053Y-74122358D01*
X123588475Y-74145086D01*
X123593138Y-74173127D01*
X123597099Y-74207667D01*
X123600415Y-74249892D01*
X123603141Y-74300989D01*
X123605336Y-74362144D01*
X123607055Y-74434544D01*
X123608356Y-74519375D01*
X123609295Y-74617822D01*
X123609930Y-74731074D01*
X123610316Y-74860316D01*
X123610512Y-75006734D01*
X123610573Y-75171516D01*
X123610557Y-75355847D01*
X123610520Y-75560913D01*
X123610511Y-75683533D01*
X123610535Y-75900482D01*
X123610569Y-76096042D01*
X123610557Y-76271399D01*
X123610442Y-76427741D01*
X123610170Y-76566257D01*
X123609682Y-76688134D01*
X123608924Y-76794560D01*
X123607838Y-76886722D01*
X123606369Y-76965809D01*
X123604460Y-77033008D01*
X123602056Y-77089507D01*
X123599099Y-77136493D01*
X123595534Y-77175155D01*
X123591305Y-77206680D01*
X123586354Y-77232255D01*
X123580627Y-77253070D01*
X123574067Y-77270311D01*
X123566617Y-77285165D01*
X123558221Y-77298822D01*
X123548824Y-77312469D01*
X123538368Y-77327293D01*
X123532277Y-77336183D01*
X123493504Y-77393800D01*
X124025068Y-77393800D01*
X124148317Y-77393765D01*
X124250813Y-77393615D01*
X124334380Y-77393278D01*
X124400844Y-77392686D01*
X124452029Y-77391767D01*
X124489759Y-77390451D01*
X124515860Y-77388669D01*
X124532156Y-77386351D01*
X124540472Y-77383426D01*
X124542632Y-77379824D01*
X124540461Y-77375475D01*
X124539265Y-77374045D01*
X124514115Y-77336973D01*
X124488217Y-77284172D01*
X124464608Y-77222170D01*
X124456339Y-77195757D01*
X124451722Y-77177816D01*
X124447821Y-77156755D01*
X124444552Y-77130489D01*
X124441834Y-77096932D01*
X124439585Y-77053999D01*
X124437723Y-76999604D01*
X124436164Y-76931662D01*
X124434828Y-76848088D01*
X124433631Y-76746795D01*
X124432492Y-76625700D01*
X124432115Y-76581000D01*
X124431098Y-76455849D01*
X124430340Y-76351482D01*
X124429897Y-76266107D01*
X124429830Y-76197933D01*
X124430195Y-76145165D01*
X124431052Y-76106014D01*
X124432459Y-76078685D01*
X124434475Y-76061386D01*
X124437157Y-76052326D01*
X124440564Y-76049712D01*
X124444756Y-76051751D01*
X124449229Y-76056067D01*
X124459584Y-76069002D01*
X124481642Y-76098076D01*
X124513843Y-76141159D01*
X124554626Y-76196118D01*
X124602430Y-76260823D01*
X124655695Y-76333142D01*
X124712860Y-76410944D01*
X124772363Y-76492098D01*
X124832645Y-76574472D01*
X124892145Y-76655936D01*
X124949302Y-76734357D01*
X125002555Y-76807604D01*
X125050343Y-76873547D01*
X125091107Y-76930054D01*
X125123284Y-76974993D01*
X125145315Y-77006234D01*
X125149883Y-77012866D01*
X125172804Y-77049769D01*
X125199612Y-77097759D01*
X125225011Y-77147297D01*
X125228232Y-77153977D01*
X125249910Y-77202172D01*
X125262496Y-77239734D01*
X125268226Y-77275560D01*
X125269344Y-77317600D01*
X125268710Y-77393800D01*
X126423149Y-77393800D01*
X126331985Y-77300069D01*
X126285188Y-77250175D01*
X126234901Y-77193695D01*
X126188856Y-77139426D01*
X126168431Y-77114073D01*
X126137993Y-77074528D01*
X126097938Y-77021316D01*
X126049439Y-76956067D01*
X125993665Y-76880411D01*
X125931789Y-76795977D01*
X125864981Y-76704394D01*
X125794413Y-76607292D01*
X125721255Y-76506301D01*
X125646679Y-76403050D01*
X125571856Y-76299168D01*
X125497957Y-76196285D01*
X125426154Y-76096031D01*
X125357616Y-76000036D01*
X125293516Y-75909927D01*
X125235025Y-75827336D01*
X125183314Y-75753892D01*
X125139553Y-75691224D01*
X125104915Y-75640961D01*
X125080570Y-75604734D01*
X125067689Y-75584171D01*
X125065931Y-75580068D01*
X125073890Y-75568742D01*
X125094685Y-75541562D01*
X125126953Y-75500229D01*
X125169330Y-75446444D01*
X125220453Y-75381906D01*
X125278959Y-75308318D01*
X125343486Y-75227378D01*
X125412669Y-75140788D01*
X125485147Y-75050248D01*
X125559554Y-74957460D01*
X125619283Y-74883102D01*
X126630289Y-74883102D01*
X126636198Y-74896059D01*
X126650528Y-74918308D01*
X126651575Y-74919791D01*
X126670362Y-74949944D01*
X126690009Y-74986775D01*
X126693908Y-74994911D01*
X126697444Y-75003340D01*
X126700570Y-75013459D01*
X126703314Y-75026660D01*
X126705708Y-75044338D01*
X126707781Y-75067884D01*
X126709565Y-75098693D01*
X126711088Y-75138157D01*
X126712381Y-75187669D01*
X126713474Y-75248623D01*
X126714397Y-75322411D01*
X126715181Y-75410428D01*
X126715855Y-75514065D01*
X126716450Y-75634716D01*
X126716995Y-75773774D01*
X126717521Y-75932632D01*
X126718055Y-76111489D01*
X126718594Y-76296607D01*
X126719028Y-76460545D01*
X126719291Y-76604703D01*
X126719316Y-76730479D01*
X126719035Y-76839271D01*
X126718381Y-76932477D01*
X126717286Y-77011497D01*
X126715682Y-77077728D01*
X126713503Y-77132570D01*
X126710681Y-77177421D01*
X126707149Y-77213678D01*
X126702839Y-77242741D01*
X126697683Y-77266009D01*
X126691615Y-77284879D01*
X126684567Y-77300751D01*
X126676471Y-77315022D01*
X126667260Y-77329091D01*
X126658760Y-77341558D01*
X126641624Y-77367852D01*
X126631478Y-77385437D01*
X126630289Y-77388657D01*
X126641196Y-77389734D01*
X126672389Y-77390735D01*
X126721577Y-77391635D01*
X126786467Y-77392410D01*
X126864770Y-77393037D01*
X126954193Y-77393491D01*
X127052444Y-77393749D01*
X127121355Y-77393800D01*
X127226348Y-77393580D01*
X127323190Y-77392948D01*
X127409693Y-77391949D01*
X127483668Y-77390627D01*
X127542926Y-77389026D01*
X127585280Y-77387191D01*
X127608540Y-77385165D01*
X127612422Y-77383893D01*
X127604724Y-77368991D01*
X127596726Y-77360960D01*
X127583554Y-77343834D01*
X127566315Y-77313583D01*
X127554393Y-77289022D01*
X127527755Y-77230111D01*
X127524680Y-76053245D01*
X127521605Y-74876378D01*
X127075947Y-74876378D01*
X126978130Y-74876542D01*
X126887736Y-74877011D01*
X126807170Y-74877747D01*
X126738838Y-74878716D01*
X126685144Y-74879880D01*
X126648495Y-74881203D01*
X126631296Y-74882649D01*
X126630289Y-74883102D01*
X125619283Y-74883102D01*
X125634530Y-74864122D01*
X125708710Y-74771937D01*
X125780731Y-74682604D01*
X125849231Y-74597824D01*
X125912845Y-74519298D01*
X125970212Y-74448726D01*
X126019967Y-74387809D01*
X126060748Y-74338247D01*
X126077912Y-74317578D01*
X126164204Y-74216916D01*
X126240803Y-74133659D01*
X126309617Y-74065838D01*
X126372552Y-74011489D01*
X126381933Y-74004122D01*
X126421444Y-73973517D01*
X125289684Y-73973267D01*
X125294973Y-74021244D01*
X125291670Y-74078588D01*
X125270139Y-74146863D01*
X125230165Y-74226612D01*
X125184857Y-74298895D01*
X125168639Y-74321540D01*
X125140586Y-74359096D01*
X125102370Y-74409421D01*
X125055663Y-74470373D01*
X125002139Y-74539811D01*
X124943469Y-74615594D01*
X124881325Y-74695580D01*
X124817379Y-74777628D01*
X124753305Y-74859596D01*
X124690773Y-74939343D01*
X124631457Y-75014727D01*
X124577029Y-75083607D01*
X124529161Y-75143842D01*
X124489525Y-75193289D01*
X124459794Y-75229808D01*
X124441639Y-75251258D01*
X124438580Y-75254556D01*
X124435721Y-75246549D01*
X124433507Y-75216255D01*
X124431943Y-75163956D01*
X124431033Y-75089931D01*
X124430780Y-74994463D01*
X124431187Y-74877834D01*
X124432096Y-74757845D01*
X124433418Y-74625733D01*
X124434943Y-74513994D01*
X124436919Y-74420425D01*
X124439594Y-74342819D01*
X124443218Y-74278974D01*
X124448039Y-74226683D01*
X124454306Y-74183744D01*
X124462268Y-74147951D01*
X124472173Y-74117100D01*
X124484269Y-74088986D01*
X124498807Y-74061405D01*
X124513489Y-74036366D01*
X124551486Y-73973267D01*
X123491603Y-73973267D01*
X123188766Y-73973267D01*
X123188799Y-73967017D01*
X123189605Y-73864944D01*
X123190630Y-73776033D01*
X123191900Y-73699341D01*
X123193440Y-73633927D01*
X123195276Y-73578849D01*
X123197433Y-73533165D01*
X123199937Y-73495934D01*
X123202813Y-73466213D01*
X123206087Y-73443062D01*
X123209785Y-73425539D01*
X123213931Y-73412701D01*
X123218553Y-73403608D01*
X123223674Y-73397318D01*
X123229322Y-73392888D01*
X123235521Y-73389378D01*
X123242296Y-73385845D01*
X123248292Y-73382276D01*
X123253525Y-73379700D01*
X123261701Y-73377372D01*
X123273914Y-73375278D01*
X123291259Y-73373407D01*
X123314831Y-73371747D01*
X123345723Y-73370284D01*
X123385032Y-73369008D01*
X123433850Y-73367904D01*
X123493273Y-73366961D01*
X123564396Y-73366167D01*
X123648312Y-73365509D01*
X123746117Y-73364975D01*
X123858906Y-73364553D01*
X123987771Y-73364229D01*
X124133809Y-73363992D01*
X124298114Y-73363830D01*
X124481780Y-73363730D01*
X124685903Y-73363680D01*
X124897047Y-73363667D01*
X126517400Y-73363667D01*
X126517400Y-73460454D01*
G36*
X129792229Y-73920471D02*
G01*
X129952370Y-73941645D01*
X130116310Y-73981785D01*
X130286113Y-74041289D01*
X130463843Y-74120554D01*
X130475110Y-74126099D01*
X130532805Y-74154125D01*
X130584352Y-74178202D01*
X130625991Y-74196649D01*
X130653962Y-74207786D01*
X130663533Y-74210333D01*
X130682750Y-74215341D01*
X130687361Y-74219547D01*
X130682258Y-74229980D01*
X130666218Y-74256268D01*
X130641088Y-74295657D01*
X130608714Y-74345391D01*
X130570943Y-74402715D01*
X130529622Y-74464876D01*
X130486598Y-74529118D01*
X130443717Y-74592685D01*
X130402826Y-74652825D01*
X130365771Y-74706780D01*
X130334400Y-74751797D01*
X130310559Y-74785121D01*
X130296094Y-74803997D01*
X130294109Y-74806187D01*
X130283991Y-74801538D01*
X130261650Y-74784362D01*
X130231080Y-74757840D01*
X130215336Y-74743364D01*
X130118847Y-74668082D01*
X130012136Y-74612641D01*
X129896632Y-74577541D01*
X129773762Y-74563280D01*
X129704361Y-74564451D01*
X129583223Y-74581612D01*
X129474005Y-74617494D01*
X129376382Y-74672359D01*
X129290028Y-74746470D01*
X129214615Y-74840088D01*
X129149818Y-74953476D01*
X129112401Y-75040067D01*
X129068548Y-75175766D01*
X129036228Y-75323250D01*
X129015357Y-75478714D01*
X129005851Y-75638356D01*
X129007627Y-75798373D01*
X129020603Y-75954961D01*
X129044694Y-76104318D01*
X129079818Y-76242640D01*
X129125892Y-76366124D01*
X129142173Y-76400378D01*
X129210420Y-76514464D01*
X129290879Y-76610957D01*
X129382370Y-76689070D01*
X129483711Y-76748017D01*
X129593720Y-76787012D01*
X129711215Y-76805268D01*
X129752683Y-76806611D01*
X129874241Y-76795690D01*
X129994678Y-76762874D01*
X130112466Y-76708839D01*
X130226077Y-76634265D01*
X130317485Y-76555939D01*
X130364015Y-76511408D01*
X130545283Y-76808671D01*
X130590380Y-76882833D01*
X130631619Y-76951046D01*
X130667535Y-77010859D01*
X130696666Y-77059820D01*
X130717550Y-77095479D01*
X130728724Y-77115384D01*
X130730175Y-77118479D01*
X130721946Y-77128118D01*
X130696367Y-77145399D01*
X130656673Y-77168683D01*
X130606097Y-77196334D01*
X130547874Y-77226715D01*
X130485237Y-77258190D01*
X130421421Y-77289122D01*
X130359660Y-77317873D01*
X130303188Y-77342808D01*
X130255238Y-77362289D01*
X130231786Y-77370718D01*
X130098021Y-77408533D01*
X129960127Y-77433536D01*
X129812422Y-77446540D01*
X129685633Y-77448868D01*
X129617678Y-77447773D01*
X129552077Y-77445675D01*
X129494647Y-77442834D01*
X129451203Y-77439506D01*
X129437098Y-77437822D01*
X129298084Y-77408987D01*
X129156557Y-77363868D01*
X129019075Y-77305150D01*
X128892194Y-77235520D01*
X128814689Y-77182841D01*
X128687281Y-77074639D01*
X128568978Y-76948071D01*
X128461972Y-76806266D01*
X128368452Y-76652351D01*
X128290610Y-76489453D01*
X128246756Y-76372156D01*
X128196508Y-76188528D01*
X128163009Y-75993981D01*
X128146249Y-75792725D01*
X128146216Y-75588968D01*
X128162901Y-75386921D01*
X128196293Y-75190792D01*
X128246380Y-75004791D01*
X128250197Y-74993203D01*
X128313081Y-74831150D01*
X128389828Y-74683232D01*
X128483042Y-74545265D01*
X128595327Y-74413061D01*
X128639192Y-74367799D01*
X128775334Y-74243857D01*
X128915291Y-74141315D01*
X129061211Y-74059056D01*
X129215242Y-73995964D01*
X129379532Y-73950923D01*
X129475089Y-73933433D01*
X129633823Y-73917866D01*
X129792229Y-73920471D01*
X129792229Y-73920471D01*
G37*
X129792229Y-73920471D02*
X129952370Y-73941645D01*
X130116310Y-73981785D01*
X130286113Y-74041289D01*
X130463843Y-74120554D01*
X130475110Y-74126099D01*
X130532805Y-74154125D01*
X130584352Y-74178202D01*
X130625991Y-74196649D01*
X130653962Y-74207786D01*
X130663533Y-74210333D01*
X130682750Y-74215341D01*
X130687361Y-74219547D01*
X130682258Y-74229980D01*
X130666218Y-74256268D01*
X130641088Y-74295657D01*
X130608714Y-74345391D01*
X130570943Y-74402715D01*
X130529622Y-74464876D01*
X130486598Y-74529118D01*
X130443717Y-74592685D01*
X130402826Y-74652825D01*
X130365771Y-74706780D01*
X130334400Y-74751797D01*
X130310559Y-74785121D01*
X130296094Y-74803997D01*
X130294109Y-74806187D01*
X130283991Y-74801538D01*
X130261650Y-74784362D01*
X130231080Y-74757840D01*
X130215336Y-74743364D01*
X130118847Y-74668082D01*
X130012136Y-74612641D01*
X129896632Y-74577541D01*
X129773762Y-74563280D01*
X129704361Y-74564451D01*
X129583223Y-74581612D01*
X129474005Y-74617494D01*
X129376382Y-74672359D01*
X129290028Y-74746470D01*
X129214615Y-74840088D01*
X129149818Y-74953476D01*
X129112401Y-75040067D01*
X129068548Y-75175766D01*
X129036228Y-75323250D01*
X129015357Y-75478714D01*
X129005851Y-75638356D01*
X129007627Y-75798373D01*
X129020603Y-75954961D01*
X129044694Y-76104318D01*
X129079818Y-76242640D01*
X129125892Y-76366124D01*
X129142173Y-76400378D01*
X129210420Y-76514464D01*
X129290879Y-76610957D01*
X129382370Y-76689070D01*
X129483711Y-76748017D01*
X129593720Y-76787012D01*
X129711215Y-76805268D01*
X129752683Y-76806611D01*
X129874241Y-76795690D01*
X129994678Y-76762874D01*
X130112466Y-76708839D01*
X130226077Y-76634265D01*
X130317485Y-76555939D01*
X130364015Y-76511408D01*
X130545283Y-76808671D01*
X130590380Y-76882833D01*
X130631619Y-76951046D01*
X130667535Y-77010859D01*
X130696666Y-77059820D01*
X130717550Y-77095479D01*
X130728724Y-77115384D01*
X130730175Y-77118479D01*
X130721946Y-77128118D01*
X130696367Y-77145399D01*
X130656673Y-77168683D01*
X130606097Y-77196334D01*
X130547874Y-77226715D01*
X130485237Y-77258190D01*
X130421421Y-77289122D01*
X130359660Y-77317873D01*
X130303188Y-77342808D01*
X130255238Y-77362289D01*
X130231786Y-77370718D01*
X130098021Y-77408533D01*
X129960127Y-77433536D01*
X129812422Y-77446540D01*
X129685633Y-77448868D01*
X129617678Y-77447773D01*
X129552077Y-77445675D01*
X129494647Y-77442834D01*
X129451203Y-77439506D01*
X129437098Y-77437822D01*
X129298084Y-77408987D01*
X129156557Y-77363868D01*
X129019075Y-77305150D01*
X128892194Y-77235520D01*
X128814689Y-77182841D01*
X128687281Y-77074639D01*
X128568978Y-76948071D01*
X128461972Y-76806266D01*
X128368452Y-76652351D01*
X128290610Y-76489453D01*
X128246756Y-76372156D01*
X128196508Y-76188528D01*
X128163009Y-75993981D01*
X128146249Y-75792725D01*
X128146216Y-75588968D01*
X128162901Y-75386921D01*
X128196293Y-75190792D01*
X128246380Y-75004791D01*
X128250197Y-74993203D01*
X128313081Y-74831150D01*
X128389828Y-74683232D01*
X128483042Y-74545265D01*
X128595327Y-74413061D01*
X128639192Y-74367799D01*
X128775334Y-74243857D01*
X128915291Y-74141315D01*
X129061211Y-74059056D01*
X129215242Y-73995964D01*
X129379532Y-73950923D01*
X129475089Y-73933433D01*
X129633823Y-73917866D01*
X129792229Y-73920471D01*
G36*
X132137374Y-74837952D02*
G01*
X132289292Y-74857967D01*
X132424556Y-74891602D01*
X132544039Y-74939125D01*
X132648615Y-75000805D01*
X132726224Y-75064365D01*
X132795065Y-75138499D01*
X132848806Y-75218271D01*
X132891710Y-75310491D01*
X132907184Y-75353561D01*
X132920044Y-75392542D01*
X132931246Y-75428689D01*
X132940920Y-75463834D01*
X132949196Y-75499810D01*
X132956203Y-75538450D01*
X132962072Y-75581585D01*
X132966931Y-75631049D01*
X132970910Y-75688673D01*
X132974140Y-75756291D01*
X132976749Y-75835734D01*
X132978867Y-75928836D01*
X132980624Y-76037427D01*
X132982149Y-76163342D01*
X132983572Y-76308412D01*
X132984825Y-76451178D01*
X132986151Y-76607368D01*
X132987356Y-76742639D01*
X132988566Y-76858646D01*
X132989906Y-76957045D01*
X132991500Y-77039493D01*
X132993475Y-77107646D01*
X132995956Y-77163160D01*
X132999069Y-77207692D01*
X133002938Y-77242898D01*
X133007689Y-77270434D01*
X133013448Y-77291956D01*
X133020339Y-77309122D01*
X133028489Y-77323586D01*
X133038023Y-77337006D01*
X133049066Y-77351038D01*
X133053366Y-77356471D01*
X133069186Y-77379310D01*
X133076222Y-77394863D01*
X133076244Y-77395322D01*
X133065367Y-77397521D01*
X133034382Y-77399547D01*
X132985757Y-77401342D01*
X132921963Y-77402851D01*
X132845469Y-77404016D01*
X132758744Y-77404780D01*
X132664257Y-77405086D01*
X132653350Y-77405089D01*
X132230457Y-77405089D01*
X132227195Y-77309022D01*
X132223933Y-77212956D01*
X132161844Y-77263943D01*
X132064514Y-77331457D01*
X131954613Y-77386149D01*
X131868149Y-77416378D01*
X131799078Y-77431066D01*
X131715725Y-77441059D01*
X131625959Y-77446046D01*
X131537645Y-77445713D01*
X131458651Y-77439751D01*
X131422422Y-77434038D01*
X131282403Y-77396176D01*
X131155978Y-77341332D01*
X131044060Y-77270324D01*
X130947562Y-77183968D01*
X130867400Y-77083079D01*
X130804487Y-76968476D01*
X130760112Y-76842384D01*
X130747778Y-76785801D01*
X130740168Y-76723602D01*
X130736539Y-76648763D01*
X130736045Y-76614867D01*
X130736110Y-76611682D01*
X131496048Y-76611682D01*
X131505341Y-76686733D01*
X131533528Y-76750560D01*
X131581997Y-76806198D01*
X131587054Y-76810611D01*
X131635348Y-76845437D01*
X131687057Y-76868020D01*
X131747789Y-76879940D01*
X131823152Y-76882783D01*
X131841259Y-76882378D01*
X131895078Y-76879725D01*
X131935108Y-76874309D01*
X131970124Y-76864145D01*
X132008903Y-76847250D01*
X132019545Y-76842072D01*
X132080196Y-76806244D01*
X132127015Y-76763612D01*
X132139752Y-76748373D01*
X132184422Y-76691862D01*
X132184422Y-76495986D01*
X132183886Y-76417339D01*
X132182196Y-76359388D01*
X132179228Y-76320275D01*
X132174857Y-76298141D01*
X132170772Y-76291674D01*
X132154847Y-76288511D01*
X132121064Y-76285888D01*
X132074140Y-76284055D01*
X132018793Y-76283257D01*
X132009906Y-76283242D01*
X131889130Y-76288496D01*
X131786460Y-76304663D01*
X131699906Y-76332361D01*
X131627481Y-76372208D01*
X131572551Y-76419158D01*
X131528004Y-76477045D01*
X131503280Y-76540093D01*
X131496048Y-76611682D01*
X130736110Y-76611682D01*
X130737978Y-76521112D01*
X130746322Y-76442212D01*
X130762568Y-76370990D01*
X130788205Y-76300264D01*
X130812201Y-76247893D01*
X130870820Y-76152596D01*
X130948917Y-76064570D01*
X131044115Y-75985417D01*
X131154038Y-75916740D01*
X131276310Y-75860141D01*
X131408555Y-75817221D01*
X131473222Y-75802282D01*
X131609404Y-75780177D01*
X131757849Y-75765594D01*
X131909305Y-75759213D01*
X132035864Y-75760845D01*
X132197750Y-75767624D01*
X132190330Y-75708645D01*
X132171038Y-75609492D01*
X132139904Y-75528772D01*
X132096069Y-75465866D01*
X132038671Y-75420156D01*
X131966848Y-75391022D01*
X131879741Y-75377847D01*
X131776486Y-75380011D01*
X131738511Y-75384012D01*
X131597320Y-75409180D01*
X131460507Y-75450214D01*
X131365978Y-75488215D01*
X131320818Y-75507590D01*
X131282385Y-75523160D01*
X131256034Y-75532805D01*
X131248346Y-75534852D01*
X131238602Y-75525774D01*
X131221883Y-75496805D01*
X131198032Y-75447617D01*
X131166893Y-75377884D01*
X131128307Y-75287279D01*
X131121710Y-75271489D01*
X131091653Y-75199172D01*
X131064674Y-75133825D01*
X131041936Y-75078306D01*
X131024606Y-75035472D01*
X131013848Y-75008181D01*
X131010741Y-74999342D01*
X131020740Y-74994587D01*
X131047017Y-74989310D01*
X131075289Y-74985631D01*
X131105446Y-74980874D01*
X131153233Y-74971428D01*
X131214412Y-74958220D01*
X131284746Y-74942176D01*
X131359994Y-74924220D01*
X131388555Y-74917197D01*
X131493616Y-74891609D01*
X131581280Y-74871547D01*
X131655868Y-74856369D01*
X131721703Y-74845435D01*
X131783107Y-74838104D01*
X131844402Y-74833735D01*
X131909910Y-74831687D01*
X131967928Y-74831289D01*
X132137374Y-74837952D01*
X132137374Y-74837952D01*
G37*
X132137374Y-74837952D02*
X132289292Y-74857967D01*
X132424556Y-74891602D01*
X132544039Y-74939125D01*
X132648615Y-75000805D01*
X132726224Y-75064365D01*
X132795065Y-75138499D01*
X132848806Y-75218271D01*
X132891710Y-75310491D01*
X132907184Y-75353561D01*
X132920044Y-75392542D01*
X132931246Y-75428689D01*
X132940920Y-75463834D01*
X132949196Y-75499810D01*
X132956203Y-75538450D01*
X132962072Y-75581585D01*
X132966931Y-75631049D01*
X132970910Y-75688673D01*
X132974140Y-75756291D01*
X132976749Y-75835734D01*
X132978867Y-75928836D01*
X132980624Y-76037427D01*
X132982149Y-76163342D01*
X132983572Y-76308412D01*
X132984825Y-76451178D01*
X132986151Y-76607368D01*
X132987356Y-76742639D01*
X132988566Y-76858646D01*
X132989906Y-76957045D01*
X132991500Y-77039493D01*
X132993475Y-77107646D01*
X132995956Y-77163160D01*
X132999069Y-77207692D01*
X133002938Y-77242898D01*
X133007689Y-77270434D01*
X133013448Y-77291956D01*
X133020339Y-77309122D01*
X133028489Y-77323586D01*
X133038023Y-77337006D01*
X133049066Y-77351038D01*
X133053366Y-77356471D01*
X133069186Y-77379310D01*
X133076222Y-77394863D01*
X133076244Y-77395322D01*
X133065367Y-77397521D01*
X133034382Y-77399547D01*
X132985757Y-77401342D01*
X132921963Y-77402851D01*
X132845469Y-77404016D01*
X132758744Y-77404780D01*
X132664257Y-77405086D01*
X132653350Y-77405089D01*
X132230457Y-77405089D01*
X132227195Y-77309022D01*
X132223933Y-77212956D01*
X132161844Y-77263943D01*
X132064514Y-77331457D01*
X131954613Y-77386149D01*
X131868149Y-77416378D01*
X131799078Y-77431066D01*
X131715725Y-77441059D01*
X131625959Y-77446046D01*
X131537645Y-77445713D01*
X131458651Y-77439751D01*
X131422422Y-77434038D01*
X131282403Y-77396176D01*
X131155978Y-77341332D01*
X131044060Y-77270324D01*
X130947562Y-77183968D01*
X130867400Y-77083079D01*
X130804487Y-76968476D01*
X130760112Y-76842384D01*
X130747778Y-76785801D01*
X130740168Y-76723602D01*
X130736539Y-76648763D01*
X130736045Y-76614867D01*
X130736110Y-76611682D01*
X131496048Y-76611682D01*
X131505341Y-76686733D01*
X131533528Y-76750560D01*
X131581997Y-76806198D01*
X131587054Y-76810611D01*
X131635348Y-76845437D01*
X131687057Y-76868020D01*
X131747789Y-76879940D01*
X131823152Y-76882783D01*
X131841259Y-76882378D01*
X131895078Y-76879725D01*
X131935108Y-76874309D01*
X131970124Y-76864145D01*
X132008903Y-76847250D01*
X132019545Y-76842072D01*
X132080196Y-76806244D01*
X132127015Y-76763612D01*
X132139752Y-76748373D01*
X132184422Y-76691862D01*
X132184422Y-76495986D01*
X132183886Y-76417339D01*
X132182196Y-76359388D01*
X132179228Y-76320275D01*
X132174857Y-76298141D01*
X132170772Y-76291674D01*
X132154847Y-76288511D01*
X132121064Y-76285888D01*
X132074140Y-76284055D01*
X132018793Y-76283257D01*
X132009906Y-76283242D01*
X131889130Y-76288496D01*
X131786460Y-76304663D01*
X131699906Y-76332361D01*
X131627481Y-76372208D01*
X131572551Y-76419158D01*
X131528004Y-76477045D01*
X131503280Y-76540093D01*
X131496048Y-76611682D01*
X130736110Y-76611682D01*
X130737978Y-76521112D01*
X130746322Y-76442212D01*
X130762568Y-76370990D01*
X130788205Y-76300264D01*
X130812201Y-76247893D01*
X130870820Y-76152596D01*
X130948917Y-76064570D01*
X131044115Y-75985417D01*
X131154038Y-75916740D01*
X131276310Y-75860141D01*
X131408555Y-75817221D01*
X131473222Y-75802282D01*
X131609404Y-75780177D01*
X131757849Y-75765594D01*
X131909305Y-75759213D01*
X132035864Y-75760845D01*
X132197750Y-75767624D01*
X132190330Y-75708645D01*
X132171038Y-75609492D01*
X132139904Y-75528772D01*
X132096069Y-75465866D01*
X132038671Y-75420156D01*
X131966848Y-75391022D01*
X131879741Y-75377847D01*
X131776486Y-75380011D01*
X131738511Y-75384012D01*
X131597320Y-75409180D01*
X131460507Y-75450214D01*
X131365978Y-75488215D01*
X131320818Y-75507590D01*
X131282385Y-75523160D01*
X131256034Y-75532805D01*
X131248346Y-75534852D01*
X131238602Y-75525774D01*
X131221883Y-75496805D01*
X131198032Y-75447617D01*
X131166893Y-75377884D01*
X131128307Y-75287279D01*
X131121710Y-75271489D01*
X131091653Y-75199172D01*
X131064674Y-75133825D01*
X131041936Y-75078306D01*
X131024606Y-75035472D01*
X131013848Y-75008181D01*
X131010741Y-74999342D01*
X131020740Y-74994587D01*
X131047017Y-74989310D01*
X131075289Y-74985631D01*
X131105446Y-74980874D01*
X131153233Y-74971428D01*
X131214412Y-74958220D01*
X131284746Y-74942176D01*
X131359994Y-74924220D01*
X131388555Y-74917197D01*
X131493616Y-74891609D01*
X131581280Y-74871547D01*
X131655868Y-74856369D01*
X131721703Y-74845435D01*
X131783107Y-74838104D01*
X131844402Y-74833735D01*
X131909910Y-74831687D01*
X131967928Y-74831289D01*
X132137374Y-74837952D01*
G36*
X135650307Y-75443645D02*
G01*
X135650326Y-75678062D01*
X135650352Y-75891003D01*
X135650425Y-76083568D01*
X135650582Y-76256859D01*
X135650864Y-76411976D01*
X135651309Y-76550020D01*
X135651956Y-76672092D01*
X135652845Y-76779294D01*
X135654013Y-76872726D01*
X135655501Y-76953490D01*
X135657346Y-77022686D01*
X135659589Y-77081415D01*
X135662269Y-77130779D01*
X135665423Y-77171878D01*
X135669092Y-77205813D01*
X135673313Y-77233686D01*
X135678127Y-77256598D01*
X135683573Y-77275649D01*
X135689688Y-77291940D01*
X135696512Y-77306573D01*
X135704085Y-77320649D01*
X135712445Y-77335268D01*
X135717639Y-77344374D01*
X135751904Y-77405089D01*
X134893755Y-77405089D01*
X134893755Y-77309133D01*
X134893024Y-77265770D01*
X134891072Y-77232605D01*
X134888263Y-77214824D01*
X134887021Y-77213178D01*
X134875599Y-77220062D01*
X134852884Y-77237905D01*
X134830185Y-77257279D01*
X134775600Y-77298014D01*
X134706121Y-77339017D01*
X134629070Y-77376523D01*
X134551765Y-77406764D01*
X134520913Y-77416412D01*
X134452416Y-77430978D01*
X134369564Y-77440939D01*
X134280171Y-77445983D01*
X134192048Y-77445796D01*
X134113007Y-77440066D01*
X134075311Y-77434258D01*
X133937214Y-77396197D01*
X133809913Y-77338473D01*
X133694092Y-77261611D01*
X133590437Y-77166139D01*
X133499633Y-77052579D01*
X133432831Y-76941781D01*
X133377964Y-76825025D01*
X133335963Y-76705676D01*
X133305967Y-76579683D01*
X133287111Y-76442994D01*
X133278532Y-76291558D01*
X133277806Y-76214111D01*
X133279900Y-76157334D01*
X134109017Y-76157334D01*
X134109224Y-76250402D01*
X134112137Y-76338092D01*
X134117800Y-76415172D01*
X134126255Y-76476409D01*
X134128838Y-76488750D01*
X134160640Y-76596033D01*
X134202298Y-76683058D01*
X134254163Y-76750042D01*
X134316581Y-76797205D01*
X134389900Y-76824765D01*
X134474469Y-76832941D01*
X134570635Y-76821951D01*
X134634111Y-76806229D01*
X134683254Y-76788039D01*
X134737383Y-76762191D01*
X134778044Y-76738489D01*
X134848600Y-76692121D01*
X134848600Y-75541930D01*
X134781192Y-75498362D01*
X134702667Y-75457440D01*
X134618481Y-75430789D01*
X134533357Y-75418865D01*
X134452016Y-75422122D01*
X134379180Y-75441015D01*
X134347226Y-75456584D01*
X134289301Y-75499581D01*
X134240344Y-75556353D01*
X134199190Y-75628975D01*
X134164674Y-75719521D01*
X134135633Y-75830066D01*
X134134352Y-75835933D01*
X134124181Y-75898188D01*
X134116539Y-75975994D01*
X134111470Y-76064120D01*
X134109017Y-76157334D01*
X133279900Y-76157334D01*
X133285657Y-76001295D01*
X133307602Y-75805459D01*
X133343586Y-75626732D01*
X133393559Y-75465245D01*
X133457468Y-75321126D01*
X133535262Y-75194506D01*
X133626889Y-75085515D01*
X133732297Y-74994283D01*
X133777462Y-74963332D01*
X133878411Y-74907185D01*
X133981701Y-74867574D01*
X134091789Y-74843414D01*
X134213130Y-74833619D01*
X134305636Y-74834665D01*
X134435290Y-74845631D01*
X134547884Y-74867446D01*
X134646675Y-74901114D01*
X134734921Y-74947636D01*
X134783786Y-74981848D01*
X134813153Y-75003762D01*
X134834843Y-75018733D01*
X134843053Y-75023133D01*
X134844668Y-75012304D01*
X134845959Y-74981651D01*
X134846938Y-74933926D01*
X134847617Y-74871879D01*
X134848010Y-74798262D01*
X134848130Y-74715827D01*
X134847988Y-74627325D01*
X134847597Y-74535507D01*
X134846971Y-74443124D01*
X134846120Y-74352928D01*
X134845060Y-74267671D01*
X134843801Y-74190103D01*
X134842356Y-74122976D01*
X134840738Y-74069041D01*
X134838961Y-74031050D01*
X134838469Y-74024067D01*
X134830892Y-73953651D01*
X134819331Y-73898502D01*
X134801592Y-73851381D01*
X134775482Y-73805047D01*
X134769215Y-73795467D01*
X134744783Y-73758778D01*
X135650111Y-73758778D01*
X135650307Y-75443645D01*
X135650307Y-75443645D01*
G37*
X135650307Y-75443645D02*
X135650326Y-75678062D01*
X135650352Y-75891003D01*
X135650425Y-76083568D01*
X135650582Y-76256859D01*
X135650864Y-76411976D01*
X135651309Y-76550020D01*
X135651956Y-76672092D01*
X135652845Y-76779294D01*
X135654013Y-76872726D01*
X135655501Y-76953490D01*
X135657346Y-77022686D01*
X135659589Y-77081415D01*
X135662269Y-77130779D01*
X135665423Y-77171878D01*
X135669092Y-77205813D01*
X135673313Y-77233686D01*
X135678127Y-77256598D01*
X135683573Y-77275649D01*
X135689688Y-77291940D01*
X135696512Y-77306573D01*
X135704085Y-77320649D01*
X135712445Y-77335268D01*
X135717639Y-77344374D01*
X135751904Y-77405089D01*
X134893755Y-77405089D01*
X134893755Y-77309133D01*
X134893024Y-77265770D01*
X134891072Y-77232605D01*
X134888263Y-77214824D01*
X134887021Y-77213178D01*
X134875599Y-77220062D01*
X134852884Y-77237905D01*
X134830185Y-77257279D01*
X134775600Y-77298014D01*
X134706121Y-77339017D01*
X134629070Y-77376523D01*
X134551765Y-77406764D01*
X134520913Y-77416412D01*
X134452416Y-77430978D01*
X134369564Y-77440939D01*
X134280171Y-77445983D01*
X134192048Y-77445796D01*
X134113007Y-77440066D01*
X134075311Y-77434258D01*
X133937214Y-77396197D01*
X133809913Y-77338473D01*
X133694092Y-77261611D01*
X133590437Y-77166139D01*
X133499633Y-77052579D01*
X133432831Y-76941781D01*
X133377964Y-76825025D01*
X133335963Y-76705676D01*
X133305967Y-76579683D01*
X133287111Y-76442994D01*
X133278532Y-76291558D01*
X133277806Y-76214111D01*
X133279900Y-76157334D01*
X134109017Y-76157334D01*
X134109224Y-76250402D01*
X134112137Y-76338092D01*
X134117800Y-76415172D01*
X134126255Y-76476409D01*
X134128838Y-76488750D01*
X134160640Y-76596033D01*
X134202298Y-76683058D01*
X134254163Y-76750042D01*
X134316581Y-76797205D01*
X134389900Y-76824765D01*
X134474469Y-76832941D01*
X134570635Y-76821951D01*
X134634111Y-76806229D01*
X134683254Y-76788039D01*
X134737383Y-76762191D01*
X134778044Y-76738489D01*
X134848600Y-76692121D01*
X134848600Y-75541930D01*
X134781192Y-75498362D01*
X134702667Y-75457440D01*
X134618481Y-75430789D01*
X134533357Y-75418865D01*
X134452016Y-75422122D01*
X134379180Y-75441015D01*
X134347226Y-75456584D01*
X134289301Y-75499581D01*
X134240344Y-75556353D01*
X134199190Y-75628975D01*
X134164674Y-75719521D01*
X134135633Y-75830066D01*
X134134352Y-75835933D01*
X134124181Y-75898188D01*
X134116539Y-75975994D01*
X134111470Y-76064120D01*
X134109017Y-76157334D01*
X133279900Y-76157334D01*
X133285657Y-76001295D01*
X133307602Y-75805459D01*
X133343586Y-75626732D01*
X133393559Y-75465245D01*
X133457468Y-75321126D01*
X133535262Y-75194506D01*
X133626889Y-75085515D01*
X133732297Y-74994283D01*
X133777462Y-74963332D01*
X133878411Y-74907185D01*
X133981701Y-74867574D01*
X134091789Y-74843414D01*
X134213130Y-74833619D01*
X134305636Y-74834665D01*
X134435290Y-74845631D01*
X134547884Y-74867446D01*
X134646675Y-74901114D01*
X134734921Y-74947636D01*
X134783786Y-74981848D01*
X134813153Y-75003762D01*
X134834843Y-75018733D01*
X134843053Y-75023133D01*
X134844668Y-75012304D01*
X134845959Y-74981651D01*
X134846938Y-74933926D01*
X134847617Y-74871879D01*
X134848010Y-74798262D01*
X134848130Y-74715827D01*
X134847988Y-74627325D01*
X134847597Y-74535507D01*
X134846971Y-74443124D01*
X134846120Y-74352928D01*
X134845060Y-74267671D01*
X134843801Y-74190103D01*
X134842356Y-74122976D01*
X134840738Y-74069041D01*
X134838961Y-74031050D01*
X134838469Y-74024067D01*
X134830892Y-73953651D01*
X134819331Y-73898502D01*
X134801592Y-73851381D01*
X134775482Y-73805047D01*
X134769215Y-73795467D01*
X134744783Y-73758778D01*
X135650111Y-73758778D01*
X135650307Y-75443645D01*
G36*
X127190757Y-72997971D02*
G01*
X127287032Y-73022209D01*
X127373616Y-73065041D01*
X127448427Y-73124819D01*
X127509382Y-73199894D01*
X127554401Y-73288620D01*
X127580664Y-73384930D01*
X127586514Y-73482195D01*
X127571660Y-73576054D01*
X127537960Y-73663911D01*
X127487272Y-73743170D01*
X127421455Y-73811236D01*
X127342366Y-73865512D01*
X127251866Y-73903402D01*
X127200600Y-73915826D01*
X127156102Y-73923347D01*
X127121801Y-73926319D01*
X127088840Y-73924494D01*
X127048366Y-73917625D01*
X127015269Y-73910650D01*
X126921853Y-73879141D01*
X126838181Y-73828017D01*
X126766135Y-73758829D01*
X126707600Y-73673128D01*
X126693652Y-73645889D01*
X126677214Y-73609522D01*
X126666906Y-73578982D01*
X126661340Y-73546850D01*
X126659131Y-73505707D01*
X126658852Y-73459622D01*
X126662939Y-73375265D01*
X126676354Y-73305986D01*
X126701544Y-73245361D01*
X126740954Y-73186967D01*
X126779502Y-73142702D01*
X126851394Y-73076884D01*
X126926487Y-73031453D01*
X127009238Y-73004250D01*
X127086872Y-72993976D01*
X127190757Y-72997971D01*
X127190757Y-72997971D01*
G37*
X127190757Y-72997971D02*
X127287032Y-73022209D01*
X127373616Y-73065041D01*
X127448427Y-73124819D01*
X127509382Y-73199894D01*
X127554401Y-73288620D01*
X127580664Y-73384930D01*
X127586514Y-73482195D01*
X127571660Y-73576054D01*
X127537960Y-73663911D01*
X127487272Y-73743170D01*
X127421455Y-73811236D01*
X127342366Y-73865512D01*
X127251866Y-73903402D01*
X127200600Y-73915826D01*
X127156102Y-73923347D01*
X127121801Y-73926319D01*
X127088840Y-73924494D01*
X127048366Y-73917625D01*
X127015269Y-73910650D01*
X126921853Y-73879141D01*
X126838181Y-73828017D01*
X126766135Y-73758829D01*
X126707600Y-73673128D01*
X126693652Y-73645889D01*
X126677214Y-73609522D01*
X126666906Y-73578982D01*
X126661340Y-73546850D01*
X126659131Y-73505707D01*
X126658852Y-73459622D01*
X126662939Y-73375265D01*
X126676354Y-73305986D01*
X126701544Y-73245361D01*
X126740954Y-73186967D01*
X126779502Y-73142702D01*
X126851394Y-73076884D01*
X126926487Y-73031453D01*
X127009238Y-73004250D01*
X127086872Y-72993976D01*
X127190757Y-72997971D01*
G36*
X123342429Y-78240466D02*
G01*
X123381911Y-78240867D01*
X123497600Y-78243659D01*
X123594489Y-78251950D01*
X123675881Y-78266632D01*
X123745077Y-78288593D01*
X123805380Y-78318722D01*
X123860092Y-78357910D01*
X123879633Y-78374932D01*
X123912050Y-78414763D01*
X123941280Y-78468813D01*
X123963809Y-78528723D01*
X123976121Y-78586139D01*
X123977400Y-78607356D01*
X123969383Y-78666169D01*
X123947901Y-78730413D01*
X123916801Y-78791221D01*
X123879934Y-78839730D01*
X123873946Y-78845582D01*
X123823221Y-78886721D01*
X123767675Y-78918835D01*
X123704104Y-78942765D01*
X123629306Y-78959353D01*
X123540078Y-78969441D01*
X123433218Y-78973869D01*
X123384272Y-78974245D01*
X123322038Y-78973945D01*
X123278272Y-78972692D01*
X123248869Y-78969954D01*
X123229721Y-78965201D01*
X123216723Y-78957901D01*
X123209755Y-78951667D01*
X123203174Y-78944094D01*
X123198012Y-78934324D01*
X123194097Y-78919740D01*
X123191257Y-78897726D01*
X123189320Y-78865664D01*
X123188116Y-78820936D01*
X123187472Y-78760926D01*
X123187217Y-78683017D01*
X123187178Y-78607356D01*
X123186930Y-78506441D01*
X123186983Y-78425827D01*
X123187943Y-78387222D01*
X123333933Y-78387222D01*
X123333933Y-78827489D01*
X123427066Y-78827404D01*
X123483107Y-78825796D01*
X123541801Y-78821656D01*
X123590772Y-78815864D01*
X123592262Y-78815626D01*
X123671408Y-78796490D01*
X123732798Y-78766687D01*
X123779495Y-78724278D01*
X123809165Y-78678361D01*
X123827447Y-78627426D01*
X123826029Y-78579600D01*
X123804812Y-78528333D01*
X123763311Y-78475299D01*
X123705802Y-78436000D01*
X123631050Y-78409731D01*
X123581092Y-78400435D01*
X123524384Y-78393907D01*
X123464281Y-78389182D01*
X123413161Y-78387217D01*
X123410133Y-78387208D01*
X123333933Y-78387222D01*
X123187943Y-78387222D01*
X123188540Y-78363251D01*
X123192802Y-78316455D01*
X123200970Y-78283178D01*
X123214244Y-78261159D01*
X123233826Y-78248139D01*
X123260917Y-78241857D01*
X123296718Y-78240053D01*
X123342429Y-78240466D01*
X123342429Y-78240466D01*
G37*
X123342429Y-78240466D02*
X123381911Y-78240867D01*
X123497600Y-78243659D01*
X123594489Y-78251950D01*
X123675881Y-78266632D01*
X123745077Y-78288593D01*
X123805380Y-78318722D01*
X123860092Y-78357910D01*
X123879633Y-78374932D01*
X123912050Y-78414763D01*
X123941280Y-78468813D01*
X123963809Y-78528723D01*
X123976121Y-78586139D01*
X123977400Y-78607356D01*
X123969383Y-78666169D01*
X123947901Y-78730413D01*
X123916801Y-78791221D01*
X123879934Y-78839730D01*
X123873946Y-78845582D01*
X123823221Y-78886721D01*
X123767675Y-78918835D01*
X123704104Y-78942765D01*
X123629306Y-78959353D01*
X123540078Y-78969441D01*
X123433218Y-78973869D01*
X123384272Y-78974245D01*
X123322038Y-78973945D01*
X123278272Y-78972692D01*
X123248869Y-78969954D01*
X123229721Y-78965201D01*
X123216723Y-78957901D01*
X123209755Y-78951667D01*
X123203174Y-78944094D01*
X123198012Y-78934324D01*
X123194097Y-78919740D01*
X123191257Y-78897726D01*
X123189320Y-78865664D01*
X123188116Y-78820936D01*
X123187472Y-78760926D01*
X123187217Y-78683017D01*
X123187178Y-78607356D01*
X123186930Y-78506441D01*
X123186983Y-78425827D01*
X123187943Y-78387222D01*
X123333933Y-78387222D01*
X123333933Y-78827489D01*
X123427066Y-78827404D01*
X123483107Y-78825796D01*
X123541801Y-78821656D01*
X123590772Y-78815864D01*
X123592262Y-78815626D01*
X123671408Y-78796490D01*
X123732798Y-78766687D01*
X123779495Y-78724278D01*
X123809165Y-78678361D01*
X123827447Y-78627426D01*
X123826029Y-78579600D01*
X123804812Y-78528333D01*
X123763311Y-78475299D01*
X123705802Y-78436000D01*
X123631050Y-78409731D01*
X123581092Y-78400435D01*
X123524384Y-78393907D01*
X123464281Y-78389182D01*
X123413161Y-78387217D01*
X123410133Y-78387208D01*
X123333933Y-78387222D01*
X123187943Y-78387222D01*
X123188540Y-78363251D01*
X123192802Y-78316455D01*
X123200970Y-78283178D01*
X123214244Y-78261159D01*
X123233826Y-78248139D01*
X123260917Y-78241857D01*
X123296718Y-78240053D01*
X123342429Y-78240466D01*
G36*
X124751006Y-78240546D02*
G01*
X124820414Y-78240918D01*
X124872803Y-78241785D01*
X124910953Y-78243346D01*
X124937641Y-78245803D01*
X124955647Y-78249357D01*
X124967751Y-78254210D01*
X124976731Y-78260561D01*
X124979982Y-78263484D01*
X124999757Y-78294542D01*
X125003318Y-78330228D01*
X124990309Y-78361910D01*
X124984294Y-78368313D01*
X124974565Y-78374521D01*
X124958899Y-78379310D01*
X124934392Y-78382914D01*
X124898139Y-78385564D01*
X124847235Y-78387495D01*
X124778774Y-78388939D01*
X124716183Y-78389818D01*
X124468466Y-78392867D01*
X124465081Y-78457778D01*
X124461695Y-78522689D01*
X124629842Y-78522689D01*
X124702841Y-78523319D01*
X124756283Y-78525953D01*
X124793172Y-78531709D01*
X124816512Y-78541704D01*
X124829306Y-78557056D01*
X124834558Y-78578882D01*
X124835355Y-78599138D01*
X124832877Y-78623992D01*
X124823523Y-78642306D01*
X124804417Y-78655037D01*
X124772682Y-78663141D01*
X124725441Y-78667576D01*
X124659817Y-78669299D01*
X124623999Y-78669445D01*
X124462822Y-78669445D01*
X124462822Y-78827489D01*
X124711178Y-78827489D01*
X124792587Y-78827602D01*
X124854458Y-78828112D01*
X124899832Y-78829270D01*
X124931746Y-78831330D01*
X124953241Y-78834546D01*
X124967357Y-78839172D01*
X124977132Y-78845459D01*
X124982111Y-78850067D01*
X124999190Y-78876960D01*
X125004689Y-78900867D01*
X124996837Y-78930067D01*
X124982111Y-78951667D01*
X124974254Y-78958466D01*
X124964112Y-78963746D01*
X124948956Y-78967698D01*
X124926059Y-78970513D01*
X124892691Y-78972382D01*
X124846125Y-78973498D01*
X124783633Y-78974051D01*
X124702486Y-78974233D01*
X124660378Y-78974245D01*
X124570202Y-78974165D01*
X124499876Y-78973798D01*
X124446671Y-78972952D01*
X124407860Y-78971436D01*
X124380713Y-78969059D01*
X124362502Y-78965629D01*
X124350500Y-78960954D01*
X124341978Y-78954844D01*
X124338644Y-78951667D01*
X124332045Y-78944070D01*
X124326873Y-78934270D01*
X124322954Y-78919639D01*
X124320116Y-78897552D01*
X124318185Y-78865382D01*
X124316988Y-78820503D01*
X124316352Y-78760289D01*
X124316103Y-78682113D01*
X124316066Y-78609323D01*
X124316100Y-78516107D01*
X124316335Y-78442831D01*
X124316970Y-78386858D01*
X124318206Y-78345551D01*
X124320244Y-78316272D01*
X124323283Y-78296384D01*
X124327523Y-78283250D01*
X124333165Y-78274232D01*
X124340409Y-78266693D01*
X124342194Y-78265012D01*
X124350855Y-78257572D01*
X124360918Y-78251809D01*
X124375175Y-78247512D01*
X124396417Y-78244464D01*
X124427436Y-78242451D01*
X124471023Y-78241260D01*
X124529969Y-78240675D01*
X124607066Y-78240483D01*
X124661799Y-78240467D01*
X124751006Y-78240546D01*
X124751006Y-78240546D01*
G37*
X124751006Y-78240546D02*
X124820414Y-78240918D01*
X124872803Y-78241785D01*
X124910953Y-78243346D01*
X124937641Y-78245803D01*
X124955647Y-78249357D01*
X124967751Y-78254210D01*
X124976731Y-78260561D01*
X124979982Y-78263484D01*
X124999757Y-78294542D01*
X125003318Y-78330228D01*
X124990309Y-78361910D01*
X124984294Y-78368313D01*
X124974565Y-78374521D01*
X124958899Y-78379310D01*
X124934392Y-78382914D01*
X124898139Y-78385564D01*
X124847235Y-78387495D01*
X124778774Y-78388939D01*
X124716183Y-78389818D01*
X124468466Y-78392867D01*
X124465081Y-78457778D01*
X124461695Y-78522689D01*
X124629842Y-78522689D01*
X124702841Y-78523319D01*
X124756283Y-78525953D01*
X124793172Y-78531709D01*
X124816512Y-78541704D01*
X124829306Y-78557056D01*
X124834558Y-78578882D01*
X124835355Y-78599138D01*
X124832877Y-78623992D01*
X124823523Y-78642306D01*
X124804417Y-78655037D01*
X124772682Y-78663141D01*
X124725441Y-78667576D01*
X124659817Y-78669299D01*
X124623999Y-78669445D01*
X124462822Y-78669445D01*
X124462822Y-78827489D01*
X124711178Y-78827489D01*
X124792587Y-78827602D01*
X124854458Y-78828112D01*
X124899832Y-78829270D01*
X124931746Y-78831330D01*
X124953241Y-78834546D01*
X124967357Y-78839172D01*
X124977132Y-78845459D01*
X124982111Y-78850067D01*
X124999190Y-78876960D01*
X125004689Y-78900867D01*
X124996837Y-78930067D01*
X124982111Y-78951667D01*
X124974254Y-78958466D01*
X124964112Y-78963746D01*
X124948956Y-78967698D01*
X124926059Y-78970513D01*
X124892691Y-78972382D01*
X124846125Y-78973498D01*
X124783633Y-78974051D01*
X124702486Y-78974233D01*
X124660378Y-78974245D01*
X124570202Y-78974165D01*
X124499876Y-78973798D01*
X124446671Y-78972952D01*
X124407860Y-78971436D01*
X124380713Y-78969059D01*
X124362502Y-78965629D01*
X124350500Y-78960954D01*
X124341978Y-78954844D01*
X124338644Y-78951667D01*
X124332045Y-78944070D01*
X124326873Y-78934270D01*
X124322954Y-78919639D01*
X124320116Y-78897552D01*
X124318185Y-78865382D01*
X124316988Y-78820503D01*
X124316352Y-78760289D01*
X124316103Y-78682113D01*
X124316066Y-78609323D01*
X124316100Y-78516107D01*
X124316335Y-78442831D01*
X124316970Y-78386858D01*
X124318206Y-78345551D01*
X124320244Y-78316272D01*
X124323283Y-78296384D01*
X124327523Y-78283250D01*
X124333165Y-78274232D01*
X124340409Y-78266693D01*
X124342194Y-78265012D01*
X124350855Y-78257572D01*
X124360918Y-78251809D01*
X124375175Y-78247512D01*
X124396417Y-78244464D01*
X124427436Y-78242451D01*
X124471023Y-78241260D01*
X124529969Y-78240675D01*
X124607066Y-78240483D01*
X124661799Y-78240467D01*
X124751006Y-78240546D01*
G36*
X125772097Y-78241751D02*
G01*
X125846912Y-78246981D01*
X125916494Y-78255150D01*
X125976798Y-78265950D01*
X126023780Y-78279073D01*
X126053394Y-78294213D01*
X126057940Y-78298669D01*
X126073746Y-78333250D01*
X126068953Y-78368751D01*
X126044436Y-78399125D01*
X126043266Y-78399996D01*
X126028846Y-78409354D01*
X126013792Y-78414276D01*
X125992795Y-78414873D01*
X125960543Y-78411261D01*
X125911727Y-78403554D01*
X125907800Y-78402905D01*
X125835061Y-78393969D01*
X125756583Y-78389561D01*
X125677873Y-78389519D01*
X125604439Y-78393679D01*
X125541789Y-78401879D01*
X125495430Y-78413957D01*
X125492384Y-78415171D01*
X125458752Y-78434015D01*
X125446936Y-78453085D01*
X125456186Y-78471839D01*
X125485753Y-78489737D01*
X125534889Y-78506237D01*
X125602843Y-78520796D01*
X125648155Y-78527806D01*
X125742344Y-78541289D01*
X125817256Y-78553614D01*
X125876083Y-78565849D01*
X125922015Y-78579061D01*
X125958245Y-78594317D01*
X125987962Y-78612685D01*
X126014358Y-78635231D01*
X126035570Y-78657371D01*
X126060735Y-78688219D01*
X126073119Y-78714745D01*
X126076992Y-78747426D01*
X126077133Y-78759395D01*
X126074224Y-78799112D01*
X126062598Y-78828659D01*
X126042477Y-78854886D01*
X126001584Y-78894976D01*
X125955983Y-78925549D01*
X125902287Y-78947603D01*
X125837108Y-78962135D01*
X125757056Y-78970141D01*
X125658743Y-78972618D01*
X125642511Y-78972577D01*
X125576951Y-78971218D01*
X125511934Y-78968130D01*
X125454548Y-78963756D01*
X125411878Y-78958540D01*
X125408428Y-78957941D01*
X125366004Y-78947891D01*
X125330020Y-78935196D01*
X125309650Y-78923590D01*
X125290693Y-78892972D01*
X125289373Y-78857318D01*
X125305715Y-78825544D01*
X125309371Y-78821951D01*
X125324485Y-78811276D01*
X125343385Y-78806676D01*
X125372638Y-78807459D01*
X125408149Y-78811527D01*
X125447830Y-78815162D01*
X125503455Y-78818228D01*
X125568394Y-78820453D01*
X125636015Y-78821564D01*
X125653800Y-78821637D01*
X125721672Y-78821364D01*
X125771346Y-78820046D01*
X125807190Y-78817227D01*
X125833576Y-78812450D01*
X125854874Y-78805257D01*
X125867674Y-78799267D01*
X125895800Y-78782633D01*
X125913732Y-78767568D01*
X125916353Y-78763297D01*
X125910824Y-78745663D01*
X125884540Y-78728592D01*
X125839322Y-78712858D01*
X125776992Y-78699238D01*
X125758629Y-78696204D01*
X125662710Y-78681138D01*
X125586159Y-78668546D01*
X125526020Y-78657511D01*
X125479340Y-78647120D01*
X125443163Y-78636456D01*
X125414535Y-78624605D01*
X125390502Y-78610651D01*
X125368108Y-78593681D01*
X125344398Y-78572778D01*
X125336420Y-78565449D01*
X125308447Y-78538099D01*
X125293640Y-78516429D01*
X125287848Y-78491632D01*
X125286911Y-78460383D01*
X125297225Y-78399105D01*
X125328048Y-78347040D01*
X125379205Y-78304358D01*
X125450517Y-78271225D01*
X125501400Y-78256364D01*
X125556700Y-78246766D01*
X125622947Y-78241336D01*
X125696094Y-78239767D01*
X125772097Y-78241751D01*
X125772097Y-78241751D01*
G37*
X125772097Y-78241751D02*
X125846912Y-78246981D01*
X125916494Y-78255150D01*
X125976798Y-78265950D01*
X126023780Y-78279073D01*
X126053394Y-78294213D01*
X126057940Y-78298669D01*
X126073746Y-78333250D01*
X126068953Y-78368751D01*
X126044436Y-78399125D01*
X126043266Y-78399996D01*
X126028846Y-78409354D01*
X126013792Y-78414276D01*
X125992795Y-78414873D01*
X125960543Y-78411261D01*
X125911727Y-78403554D01*
X125907800Y-78402905D01*
X125835061Y-78393969D01*
X125756583Y-78389561D01*
X125677873Y-78389519D01*
X125604439Y-78393679D01*
X125541789Y-78401879D01*
X125495430Y-78413957D01*
X125492384Y-78415171D01*
X125458752Y-78434015D01*
X125446936Y-78453085D01*
X125456186Y-78471839D01*
X125485753Y-78489737D01*
X125534889Y-78506237D01*
X125602843Y-78520796D01*
X125648155Y-78527806D01*
X125742344Y-78541289D01*
X125817256Y-78553614D01*
X125876083Y-78565849D01*
X125922015Y-78579061D01*
X125958245Y-78594317D01*
X125987962Y-78612685D01*
X126014358Y-78635231D01*
X126035570Y-78657371D01*
X126060735Y-78688219D01*
X126073119Y-78714745D01*
X126076992Y-78747426D01*
X126077133Y-78759395D01*
X126074224Y-78799112D01*
X126062598Y-78828659D01*
X126042477Y-78854886D01*
X126001584Y-78894976D01*
X125955983Y-78925549D01*
X125902287Y-78947603D01*
X125837108Y-78962135D01*
X125757056Y-78970141D01*
X125658743Y-78972618D01*
X125642511Y-78972577D01*
X125576951Y-78971218D01*
X125511934Y-78968130D01*
X125454548Y-78963756D01*
X125411878Y-78958540D01*
X125408428Y-78957941D01*
X125366004Y-78947891D01*
X125330020Y-78935196D01*
X125309650Y-78923590D01*
X125290693Y-78892972D01*
X125289373Y-78857318D01*
X125305715Y-78825544D01*
X125309371Y-78821951D01*
X125324485Y-78811276D01*
X125343385Y-78806676D01*
X125372638Y-78807459D01*
X125408149Y-78811527D01*
X125447830Y-78815162D01*
X125503455Y-78818228D01*
X125568394Y-78820453D01*
X125636015Y-78821564D01*
X125653800Y-78821637D01*
X125721672Y-78821364D01*
X125771346Y-78820046D01*
X125807190Y-78817227D01*
X125833576Y-78812450D01*
X125854874Y-78805257D01*
X125867674Y-78799267D01*
X125895800Y-78782633D01*
X125913732Y-78767568D01*
X125916353Y-78763297D01*
X125910824Y-78745663D01*
X125884540Y-78728592D01*
X125839322Y-78712858D01*
X125776992Y-78699238D01*
X125758629Y-78696204D01*
X125662710Y-78681138D01*
X125586159Y-78668546D01*
X125526020Y-78657511D01*
X125479340Y-78647120D01*
X125443163Y-78636456D01*
X125414535Y-78624605D01*
X125390502Y-78610651D01*
X125368108Y-78593681D01*
X125344398Y-78572778D01*
X125336420Y-78565449D01*
X125308447Y-78538099D01*
X125293640Y-78516429D01*
X125287848Y-78491632D01*
X125286911Y-78460383D01*
X125297225Y-78399105D01*
X125328048Y-78347040D01*
X125379205Y-78304358D01*
X125450517Y-78271225D01*
X125501400Y-78256364D01*
X125556700Y-78246766D01*
X125622947Y-78241336D01*
X125696094Y-78239767D01*
X125772097Y-78241751D01*
G36*
X126539978Y-78263045D02*
G01*
X126546558Y-78270618D01*
X126551721Y-78280387D01*
X126555636Y-78294971D01*
X126558476Y-78316985D01*
X126560413Y-78349048D01*
X126561617Y-78393775D01*
X126562261Y-78453785D01*
X126562516Y-78531694D01*
X126562555Y-78607356D01*
X126562486Y-78701202D01*
X126562162Y-78775089D01*
X126561414Y-78831632D01*
X126560068Y-78873449D01*
X126557954Y-78903157D01*
X126554900Y-78923373D01*
X126550734Y-78936714D01*
X126545284Y-78945798D01*
X126539978Y-78951667D01*
X126506974Y-78971347D01*
X126471809Y-78969581D01*
X126440345Y-78948117D01*
X126433116Y-78939737D01*
X126427466Y-78930014D01*
X126423201Y-78916261D01*
X126420127Y-78895789D01*
X126418048Y-78865912D01*
X126416770Y-78823941D01*
X126416099Y-78767189D01*
X126415841Y-78692967D01*
X126415800Y-78608937D01*
X126415800Y-78295885D01*
X126443509Y-78268176D01*
X126477663Y-78244863D01*
X126510794Y-78244023D01*
X126539978Y-78263045D01*
X126539978Y-78263045D01*
G37*
X126539978Y-78263045D02*
X126546558Y-78270618D01*
X126551721Y-78280387D01*
X126555636Y-78294971D01*
X126558476Y-78316985D01*
X126560413Y-78349048D01*
X126561617Y-78393775D01*
X126562261Y-78453785D01*
X126562516Y-78531694D01*
X126562555Y-78607356D01*
X126562486Y-78701202D01*
X126562162Y-78775089D01*
X126561414Y-78831632D01*
X126560068Y-78873449D01*
X126557954Y-78903157D01*
X126554900Y-78923373D01*
X126550734Y-78936714D01*
X126545284Y-78945798D01*
X126539978Y-78951667D01*
X126506974Y-78971347D01*
X126471809Y-78969581D01*
X126440345Y-78948117D01*
X126433116Y-78939737D01*
X126427466Y-78930014D01*
X126423201Y-78916261D01*
X126420127Y-78895789D01*
X126418048Y-78865912D01*
X126416770Y-78823941D01*
X126416099Y-78767189D01*
X126415841Y-78692967D01*
X126415800Y-78608937D01*
X126415800Y-78295885D01*
X126443509Y-78268176D01*
X126477663Y-78244863D01*
X126510794Y-78244023D01*
X126539978Y-78263045D01*
G36*
X127513719Y-78245999D02*
G01*
X127582235Y-78257495D01*
X127634857Y-78275367D01*
X127669092Y-78298899D01*
X127678421Y-78312324D01*
X127687907Y-78343548D01*
X127681523Y-78371795D01*
X127661370Y-78398582D01*
X127630055Y-78411113D01*
X127584617Y-78410096D01*
X127549474Y-78403306D01*
X127471381Y-78390371D01*
X127391574Y-78389142D01*
X127302245Y-78399641D01*
X127277571Y-78404090D01*
X127194509Y-78427508D01*
X127129527Y-78462345D01*
X127083339Y-78508004D01*
X127056655Y-78563894D01*
X127051137Y-78592788D01*
X127054749Y-78651412D01*
X127078071Y-78703279D01*
X127118976Y-78747378D01*
X127175341Y-78782699D01*
X127245040Y-78808229D01*
X127325948Y-78822959D01*
X127415940Y-78825878D01*
X127512890Y-78815975D01*
X127518364Y-78815041D01*
X127556925Y-78807859D01*
X127578306Y-78800921D01*
X127587573Y-78790627D01*
X127589794Y-78773376D01*
X127589844Y-78764241D01*
X127589844Y-78725889D01*
X127521369Y-78725889D01*
X127460900Y-78721747D01*
X127419635Y-78708547D01*
X127395625Y-78685130D01*
X127386923Y-78650336D01*
X127386817Y-78645794D01*
X127391908Y-78616054D01*
X127409367Y-78594819D01*
X127441861Y-78580766D01*
X127492057Y-78572573D01*
X127540677Y-78569561D01*
X127611344Y-78567833D01*
X127662602Y-78570470D01*
X127697561Y-78580200D01*
X127719330Y-78599753D01*
X127731020Y-78631856D01*
X127735740Y-78679238D01*
X127736600Y-78741471D01*
X127735191Y-78810935D01*
X127730952Y-78858186D01*
X127723864Y-78883412D01*
X127722489Y-78885388D01*
X127683572Y-78916908D01*
X127626514Y-78941870D01*
X127554931Y-78959740D01*
X127472442Y-78969986D01*
X127382661Y-78972073D01*
X127289208Y-78965468D01*
X127234244Y-78957356D01*
X127148034Y-78932954D01*
X127067908Y-78893062D01*
X127000823Y-78841287D01*
X126990627Y-78830939D01*
X126957498Y-78787435D01*
X126927606Y-78733518D01*
X126904443Y-78676992D01*
X126891502Y-78625659D01*
X126889942Y-78605944D01*
X126896582Y-78564819D01*
X126914232Y-78513652D01*
X126939503Y-78459794D01*
X126969011Y-78410595D01*
X126995081Y-78377734D01*
X127056035Y-78328852D01*
X127134831Y-78289945D01*
X127228643Y-78261894D01*
X127334650Y-78245579D01*
X127431800Y-78241592D01*
X127513719Y-78245999D01*
X127513719Y-78245999D01*
G37*
X127513719Y-78245999D02*
X127582235Y-78257495D01*
X127634857Y-78275367D01*
X127669092Y-78298899D01*
X127678421Y-78312324D01*
X127687907Y-78343548D01*
X127681523Y-78371795D01*
X127661370Y-78398582D01*
X127630055Y-78411113D01*
X127584617Y-78410096D01*
X127549474Y-78403306D01*
X127471381Y-78390371D01*
X127391574Y-78389142D01*
X127302245Y-78399641D01*
X127277571Y-78404090D01*
X127194509Y-78427508D01*
X127129527Y-78462345D01*
X127083339Y-78508004D01*
X127056655Y-78563894D01*
X127051137Y-78592788D01*
X127054749Y-78651412D01*
X127078071Y-78703279D01*
X127118976Y-78747378D01*
X127175341Y-78782699D01*
X127245040Y-78808229D01*
X127325948Y-78822959D01*
X127415940Y-78825878D01*
X127512890Y-78815975D01*
X127518364Y-78815041D01*
X127556925Y-78807859D01*
X127578306Y-78800921D01*
X127587573Y-78790627D01*
X127589794Y-78773376D01*
X127589844Y-78764241D01*
X127589844Y-78725889D01*
X127521369Y-78725889D01*
X127460900Y-78721747D01*
X127419635Y-78708547D01*
X127395625Y-78685130D01*
X127386923Y-78650336D01*
X127386817Y-78645794D01*
X127391908Y-78616054D01*
X127409367Y-78594819D01*
X127441861Y-78580766D01*
X127492057Y-78572573D01*
X127540677Y-78569561D01*
X127611344Y-78567833D01*
X127662602Y-78570470D01*
X127697561Y-78580200D01*
X127719330Y-78599753D01*
X127731020Y-78631856D01*
X127735740Y-78679238D01*
X127736600Y-78741471D01*
X127735191Y-78810935D01*
X127730952Y-78858186D01*
X127723864Y-78883412D01*
X127722489Y-78885388D01*
X127683572Y-78916908D01*
X127626514Y-78941870D01*
X127554931Y-78959740D01*
X127472442Y-78969986D01*
X127382661Y-78972073D01*
X127289208Y-78965468D01*
X127234244Y-78957356D01*
X127148034Y-78932954D01*
X127067908Y-78893062D01*
X127000823Y-78841287D01*
X126990627Y-78830939D01*
X126957498Y-78787435D01*
X126927606Y-78733518D01*
X126904443Y-78676992D01*
X126891502Y-78625659D01*
X126889942Y-78605944D01*
X126896582Y-78564819D01*
X126914232Y-78513652D01*
X126939503Y-78459794D01*
X126969011Y-78410595D01*
X126995081Y-78377734D01*
X127056035Y-78328852D01*
X127134831Y-78289945D01*
X127228643Y-78261894D01*
X127334650Y-78245579D01*
X127431800Y-78241592D01*
X127513719Y-78245999D01*
G36*
X128163686Y-78244848D02*
G01*
X128187252Y-78258673D01*
X128218065Y-78281281D01*
X128257722Y-78313738D01*
X128307820Y-78357108D01*
X128369957Y-78412458D01*
X128445728Y-78480851D01*
X128532466Y-78559484D01*
X128713089Y-78723278D01*
X128718733Y-78503429D01*
X128720771Y-78427751D01*
X128722737Y-78371394D01*
X128725066Y-78331106D01*
X128728194Y-78303635D01*
X128732555Y-78285729D01*
X128738584Y-78274137D01*
X128746716Y-78265608D01*
X128751028Y-78262023D01*
X128785559Y-78243070D01*
X128818417Y-78245841D01*
X128844482Y-78262033D01*
X128871133Y-78283599D01*
X128874448Y-78598551D01*
X128875365Y-78691179D01*
X128875832Y-78763944D01*
X128875687Y-78819561D01*
X128874768Y-78860742D01*
X128872913Y-78890203D01*
X128869961Y-78910655D01*
X128865750Y-78924813D01*
X128860118Y-78935391D01*
X128853873Y-78943874D01*
X128840361Y-78959607D01*
X128826917Y-78970036D01*
X128811676Y-78974039D01*
X128792774Y-78970494D01*
X128768345Y-78958279D01*
X128736527Y-78936271D01*
X128695452Y-78903349D01*
X128643258Y-78858391D01*
X128578078Y-78800275D01*
X128504244Y-78733499D01*
X128238955Y-78492858D01*
X128233311Y-78711989D01*
X128231269Y-78787528D01*
X128229298Y-78843754D01*
X128226961Y-78883924D01*
X128223819Y-78911296D01*
X128219436Y-78929128D01*
X128213376Y-78940679D01*
X128205200Y-78949207D01*
X128201016Y-78952682D01*
X128164035Y-78971772D01*
X128129092Y-78968893D01*
X128098664Y-78944500D01*
X128091703Y-78934686D01*
X128086277Y-78923226D01*
X128082197Y-78907368D01*
X128079271Y-78884363D01*
X128077308Y-78851462D01*
X128076117Y-78805916D01*
X128075508Y-78744973D01*
X128075289Y-78665886D01*
X128075266Y-78607356D01*
X128075340Y-78515807D01*
X128075687Y-78444087D01*
X128076499Y-78389445D01*
X128077967Y-78349132D01*
X128080281Y-78320398D01*
X128083633Y-78300493D01*
X128088212Y-78286668D01*
X128094211Y-78276172D01*
X128098664Y-78270211D01*
X128109950Y-78256091D01*
X128120499Y-78245429D01*
X128131907Y-78239292D01*
X128145770Y-78238743D01*
X128163686Y-78244848D01*
X128163686Y-78244848D01*
G37*
X128163686Y-78244848D02*
X128187252Y-78258673D01*
X128218065Y-78281281D01*
X128257722Y-78313738D01*
X128307820Y-78357108D01*
X128369957Y-78412458D01*
X128445728Y-78480851D01*
X128532466Y-78559484D01*
X128713089Y-78723278D01*
X128718733Y-78503429D01*
X128720771Y-78427751D01*
X128722737Y-78371394D01*
X128725066Y-78331106D01*
X128728194Y-78303635D01*
X128732555Y-78285729D01*
X128738584Y-78274137D01*
X128746716Y-78265608D01*
X128751028Y-78262023D01*
X128785559Y-78243070D01*
X128818417Y-78245841D01*
X128844482Y-78262033D01*
X128871133Y-78283599D01*
X128874448Y-78598551D01*
X128875365Y-78691179D01*
X128875832Y-78763944D01*
X128875687Y-78819561D01*
X128874768Y-78860742D01*
X128872913Y-78890203D01*
X128869961Y-78910655D01*
X128865750Y-78924813D01*
X128860118Y-78935391D01*
X128853873Y-78943874D01*
X128840361Y-78959607D01*
X128826917Y-78970036D01*
X128811676Y-78974039D01*
X128792774Y-78970494D01*
X128768345Y-78958279D01*
X128736527Y-78936271D01*
X128695452Y-78903349D01*
X128643258Y-78858391D01*
X128578078Y-78800275D01*
X128504244Y-78733499D01*
X128238955Y-78492858D01*
X128233311Y-78711989D01*
X128231269Y-78787528D01*
X128229298Y-78843754D01*
X128226961Y-78883924D01*
X128223819Y-78911296D01*
X128219436Y-78929128D01*
X128213376Y-78940679D01*
X128205200Y-78949207D01*
X128201016Y-78952682D01*
X128164035Y-78971772D01*
X128129092Y-78968893D01*
X128098664Y-78944500D01*
X128091703Y-78934686D01*
X128086277Y-78923226D01*
X128082197Y-78907368D01*
X128079271Y-78884363D01*
X128077308Y-78851462D01*
X128076117Y-78805916D01*
X128075508Y-78744973D01*
X128075289Y-78665886D01*
X128075266Y-78607356D01*
X128075340Y-78515807D01*
X128075687Y-78444087D01*
X128076499Y-78389445D01*
X128077967Y-78349132D01*
X128080281Y-78320398D01*
X128083633Y-78300493D01*
X128088212Y-78286668D01*
X128094211Y-78276172D01*
X128098664Y-78270211D01*
X128109950Y-78256091D01*
X128120499Y-78245429D01*
X128131907Y-78239292D01*
X128145770Y-78238743D01*
X128163686Y-78244848D01*
G36*
X129694143Y-78240660D02*
G01*
X129770501Y-78241574D01*
X129829017Y-78243711D01*
X129872055Y-78247575D01*
X129901983Y-78253667D01*
X129921168Y-78262490D01*
X129931976Y-78274546D01*
X129936773Y-78290339D01*
X129937927Y-78310370D01*
X129937933Y-78312735D01*
X129936931Y-78335392D01*
X129932196Y-78352903D01*
X129921133Y-78365974D01*
X129901148Y-78375313D01*
X129869646Y-78381627D01*
X129824032Y-78385622D01*
X129761713Y-78388006D01*
X129680093Y-78389486D01*
X129655077Y-78389814D01*
X129413000Y-78392867D01*
X129409614Y-78457778D01*
X129406229Y-78522689D01*
X129574376Y-78522689D01*
X129640066Y-78522931D01*
X129686972Y-78523956D01*
X129718883Y-78526211D01*
X129739591Y-78530142D01*
X129752884Y-78536198D01*
X129762555Y-78544824D01*
X129762617Y-78544893D01*
X129780156Y-78578512D01*
X129779522Y-78614848D01*
X129761114Y-78645823D01*
X129757471Y-78649007D01*
X129744541Y-78657212D01*
X129726824Y-78662921D01*
X129700370Y-78666562D01*
X129661232Y-78668567D01*
X129605462Y-78669364D01*
X129569794Y-78669445D01*
X129407355Y-78669445D01*
X129407355Y-78827489D01*
X129653961Y-78827489D01*
X129735380Y-78827631D01*
X129797210Y-78828214D01*
X129842437Y-78829468D01*
X129874048Y-78831627D01*
X129895031Y-78834923D01*
X129908373Y-78839589D01*
X129917061Y-78845857D01*
X129919250Y-78848133D01*
X129935414Y-78879680D01*
X129936597Y-78915568D01*
X129923336Y-78946685D01*
X129912843Y-78956671D01*
X129901929Y-78962169D01*
X129885017Y-78966422D01*
X129859433Y-78969580D01*
X129822501Y-78971792D01*
X129771546Y-78973206D01*
X129703894Y-78973972D01*
X129616869Y-78974238D01*
X129597194Y-78974245D01*
X129508711Y-78974187D01*
X129440027Y-78973867D01*
X129388364Y-78973067D01*
X129350945Y-78971567D01*
X129324990Y-78969149D01*
X129307722Y-78965594D01*
X129296362Y-78960682D01*
X129288132Y-78954195D01*
X129283617Y-78949538D01*
X129276821Y-78941289D01*
X129271512Y-78931069D01*
X129267506Y-78916200D01*
X129264621Y-78894002D01*
X129262674Y-78861793D01*
X129261481Y-78816896D01*
X129260861Y-78756628D01*
X129260629Y-78678311D01*
X129260600Y-78612394D01*
X129260671Y-78520028D01*
X129261008Y-78447517D01*
X129261798Y-78392137D01*
X129263226Y-78351165D01*
X129265479Y-78321878D01*
X129268743Y-78301553D01*
X129273204Y-78287466D01*
X129279048Y-78276895D01*
X129283997Y-78270211D01*
X129307394Y-78240467D01*
X129597574Y-78240467D01*
X129694143Y-78240660D01*
X129694143Y-78240660D01*
G37*
X129694143Y-78240660D02*
X129770501Y-78241574D01*
X129829017Y-78243711D01*
X129872055Y-78247575D01*
X129901983Y-78253667D01*
X129921168Y-78262490D01*
X129931976Y-78274546D01*
X129936773Y-78290339D01*
X129937927Y-78310370D01*
X129937933Y-78312735D01*
X129936931Y-78335392D01*
X129932196Y-78352903D01*
X129921133Y-78365974D01*
X129901148Y-78375313D01*
X129869646Y-78381627D01*
X129824032Y-78385622D01*
X129761713Y-78388006D01*
X129680093Y-78389486D01*
X129655077Y-78389814D01*
X129413000Y-78392867D01*
X129409614Y-78457778D01*
X129406229Y-78522689D01*
X129574376Y-78522689D01*
X129640066Y-78522931D01*
X129686972Y-78523956D01*
X129718883Y-78526211D01*
X129739591Y-78530142D01*
X129752884Y-78536198D01*
X129762555Y-78544824D01*
X129762617Y-78544893D01*
X129780156Y-78578512D01*
X129779522Y-78614848D01*
X129761114Y-78645823D01*
X129757471Y-78649007D01*
X129744541Y-78657212D01*
X129726824Y-78662921D01*
X129700370Y-78666562D01*
X129661232Y-78668567D01*
X129605462Y-78669364D01*
X129569794Y-78669445D01*
X129407355Y-78669445D01*
X129407355Y-78827489D01*
X129653961Y-78827489D01*
X129735380Y-78827631D01*
X129797210Y-78828214D01*
X129842437Y-78829468D01*
X129874048Y-78831627D01*
X129895031Y-78834923D01*
X129908373Y-78839589D01*
X129917061Y-78845857D01*
X129919250Y-78848133D01*
X129935414Y-78879680D01*
X129936597Y-78915568D01*
X129923336Y-78946685D01*
X129912843Y-78956671D01*
X129901929Y-78962169D01*
X129885017Y-78966422D01*
X129859433Y-78969580D01*
X129822501Y-78971792D01*
X129771546Y-78973206D01*
X129703894Y-78973972D01*
X129616869Y-78974238D01*
X129597194Y-78974245D01*
X129508711Y-78974187D01*
X129440027Y-78973867D01*
X129388364Y-78973067D01*
X129350945Y-78971567D01*
X129324990Y-78969149D01*
X129307722Y-78965594D01*
X129296362Y-78960682D01*
X129288132Y-78954195D01*
X129283617Y-78949538D01*
X129276821Y-78941289D01*
X129271512Y-78931069D01*
X129267506Y-78916200D01*
X129264621Y-78894002D01*
X129262674Y-78861793D01*
X129261481Y-78816896D01*
X129260861Y-78756628D01*
X129260629Y-78678311D01*
X129260600Y-78612394D01*
X129260671Y-78520028D01*
X129261008Y-78447517D01*
X129261798Y-78392137D01*
X129263226Y-78351165D01*
X129265479Y-78321878D01*
X129268743Y-78301553D01*
X129273204Y-78287466D01*
X129279048Y-78276895D01*
X129283997Y-78270211D01*
X129307394Y-78240467D01*
X129597574Y-78240467D01*
X129694143Y-78240660D01*
G36*
X130482109Y-78240675D02*
G01*
X130611088Y-78245036D01*
X130720791Y-78258261D01*
X130813026Y-78281141D01*
X130889602Y-78314470D01*
X130952327Y-78359038D01*
X131003012Y-78415636D01*
X131043463Y-78485058D01*
X131044259Y-78486751D01*
X131068401Y-78548883D01*
X131077003Y-78603909D01*
X131070031Y-78659287D01*
X131047454Y-78722473D01*
X131043172Y-78732089D01*
X131013972Y-78788366D01*
X130981156Y-78831851D01*
X130938802Y-78868817D01*
X130880990Y-78905535D01*
X130877631Y-78907452D01*
X130827304Y-78931627D01*
X130770421Y-78949682D01*
X130703327Y-78962239D01*
X130622365Y-78969922D01*
X130523882Y-78973353D01*
X130489086Y-78973651D01*
X130323394Y-78974245D01*
X130299997Y-78944500D01*
X130293057Y-78934719D01*
X130287642Y-78923297D01*
X130283565Y-78907495D01*
X130280637Y-78884575D01*
X130278667Y-78851796D01*
X130278025Y-78827489D01*
X130434644Y-78827489D01*
X130528526Y-78827489D01*
X130583464Y-78825883D01*
X130639860Y-78821655D01*
X130686145Y-78815692D01*
X130688939Y-78815190D01*
X130771148Y-78793136D01*
X130834914Y-78760000D01*
X130882252Y-78714247D01*
X130915182Y-78654339D01*
X130920908Y-78638461D01*
X130926521Y-78613733D01*
X130924091Y-78589302D01*
X130912267Y-78556800D01*
X130905140Y-78540834D01*
X130881800Y-78498406D01*
X130853680Y-78468640D01*
X130822740Y-78447911D01*
X130760766Y-78420937D01*
X130681451Y-78401398D01*
X130589053Y-78390146D01*
X130522133Y-78387670D01*
X130434644Y-78387222D01*
X130434644Y-78827489D01*
X130278025Y-78827489D01*
X130277468Y-78806421D01*
X130276850Y-78745711D01*
X130276625Y-78666926D01*
X130276600Y-78605320D01*
X130276600Y-78295885D01*
X130304309Y-78268176D01*
X130316606Y-78256944D01*
X130329903Y-78249253D01*
X130348472Y-78244440D01*
X130376586Y-78241846D01*
X130418517Y-78240810D01*
X130478537Y-78240670D01*
X130482109Y-78240675D01*
X130482109Y-78240675D01*
G37*
X130482109Y-78240675D02*
X130611088Y-78245036D01*
X130720791Y-78258261D01*
X130813026Y-78281141D01*
X130889602Y-78314470D01*
X130952327Y-78359038D01*
X131003012Y-78415636D01*
X131043463Y-78485058D01*
X131044259Y-78486751D01*
X131068401Y-78548883D01*
X131077003Y-78603909D01*
X131070031Y-78659287D01*
X131047454Y-78722473D01*
X131043172Y-78732089D01*
X131013972Y-78788366D01*
X130981156Y-78831851D01*
X130938802Y-78868817D01*
X130880990Y-78905535D01*
X130877631Y-78907452D01*
X130827304Y-78931627D01*
X130770421Y-78949682D01*
X130703327Y-78962239D01*
X130622365Y-78969922D01*
X130523882Y-78973353D01*
X130489086Y-78973651D01*
X130323394Y-78974245D01*
X130299997Y-78944500D01*
X130293057Y-78934719D01*
X130287642Y-78923297D01*
X130283565Y-78907495D01*
X130280637Y-78884575D01*
X130278667Y-78851796D01*
X130278025Y-78827489D01*
X130434644Y-78827489D01*
X130528526Y-78827489D01*
X130583464Y-78825883D01*
X130639860Y-78821655D01*
X130686145Y-78815692D01*
X130688939Y-78815190D01*
X130771148Y-78793136D01*
X130834914Y-78760000D01*
X130882252Y-78714247D01*
X130915182Y-78654339D01*
X130920908Y-78638461D01*
X130926521Y-78613733D01*
X130924091Y-78589302D01*
X130912267Y-78556800D01*
X130905140Y-78540834D01*
X130881800Y-78498406D01*
X130853680Y-78468640D01*
X130822740Y-78447911D01*
X130760766Y-78420937D01*
X130681451Y-78401398D01*
X130589053Y-78390146D01*
X130522133Y-78387670D01*
X130434644Y-78387222D01*
X130434644Y-78827489D01*
X130278025Y-78827489D01*
X130277468Y-78806421D01*
X130276850Y-78745711D01*
X130276625Y-78666926D01*
X130276600Y-78605320D01*
X130276600Y-78295885D01*
X130304309Y-78268176D01*
X130316606Y-78256944D01*
X130329903Y-78249253D01*
X130348472Y-78244440D01*
X130376586Y-78241846D01*
X130418517Y-78240810D01*
X130478537Y-78240670D01*
X130482109Y-78240675D01*
G36*
X133208465Y-78242434D02*
G01*
X133228055Y-78249435D01*
X133228810Y-78249777D01*
X133255413Y-78270078D01*
X133270070Y-78290961D01*
X133272938Y-78300752D01*
X133272796Y-78313761D01*
X133268761Y-78332295D01*
X133259946Y-78358657D01*
X133245469Y-78395152D01*
X133224445Y-78444087D01*
X133195988Y-78507765D01*
X133159215Y-78588493D01*
X133138975Y-78632616D01*
X133102425Y-78711385D01*
X133068115Y-78783823D01*
X133037352Y-78847280D01*
X133011448Y-78899108D01*
X132991710Y-78936659D01*
X132979450Y-78957284D01*
X132977024Y-78960133D01*
X132945983Y-78972702D01*
X132910921Y-78971019D01*
X132882800Y-78955732D01*
X132881654Y-78954489D01*
X132870468Y-78937554D01*
X132851704Y-78904570D01*
X132827675Y-78859780D01*
X132800697Y-78807432D01*
X132791001Y-78788142D01*
X132717814Y-78641550D01*
X132638040Y-78800793D01*
X132609567Y-78855815D01*
X132583150Y-78903532D01*
X132560948Y-78940293D01*
X132545119Y-78962444D01*
X132539754Y-78967141D01*
X132498057Y-78973502D01*
X132463649Y-78960133D01*
X132453528Y-78945846D01*
X132436014Y-78914092D01*
X132412535Y-78867997D01*
X132384520Y-78810685D01*
X132353399Y-78745280D01*
X132320599Y-78674907D01*
X132287550Y-78602691D01*
X132255681Y-78531755D01*
X132226419Y-78465225D01*
X132201195Y-78406226D01*
X132181436Y-78357881D01*
X132168572Y-78323315D01*
X132164031Y-78305653D01*
X132164077Y-78305013D01*
X132175126Y-78282788D01*
X132197210Y-78260153D01*
X132198510Y-78259168D01*
X132225653Y-78243825D01*
X132250758Y-78243974D01*
X132260168Y-78246866D01*
X132271634Y-78253118D01*
X132283810Y-78265414D01*
X132298157Y-78286308D01*
X132316136Y-78318349D01*
X132339207Y-78364088D01*
X132368830Y-78426077D01*
X132395545Y-78483298D01*
X132426280Y-78549626D01*
X132453821Y-78609274D01*
X132476738Y-78659125D01*
X132493598Y-78696064D01*
X132502973Y-78716973D01*
X132504340Y-78720245D01*
X132510489Y-78714897D01*
X132524622Y-78692509D01*
X132544857Y-78656346D01*
X132569315Y-78609677D01*
X132579048Y-78590422D01*
X132612017Y-78525404D01*
X132637443Y-78478054D01*
X132657412Y-78445619D01*
X132674010Y-78425346D01*
X132689324Y-78414482D01*
X132705440Y-78410275D01*
X132715943Y-78409800D01*
X132734470Y-78411442D01*
X132750704Y-78418231D01*
X132766835Y-78432966D01*
X132785051Y-78458444D01*
X132807539Y-78497461D01*
X132836489Y-78552814D01*
X132852462Y-78584303D01*
X132878370Y-78634487D01*
X132900967Y-78676104D01*
X132918258Y-78705642D01*
X132928250Y-78719589D01*
X132929609Y-78720170D01*
X132936061Y-78709193D01*
X132950508Y-78680690D01*
X132971503Y-78637644D01*
X132997597Y-78583038D01*
X133027346Y-78519854D01*
X133041980Y-78488471D01*
X133080050Y-78407478D01*
X133110705Y-78345156D01*
X133135537Y-78299471D01*
X133156137Y-78268389D01*
X133174098Y-78249878D01*
X133191010Y-78241904D01*
X133208465Y-78242434D01*
X133208465Y-78242434D01*
G37*
X133208465Y-78242434D02*
X133228055Y-78249435D01*
X133228810Y-78249777D01*
X133255413Y-78270078D01*
X133270070Y-78290961D01*
X133272938Y-78300752D01*
X133272796Y-78313761D01*
X133268761Y-78332295D01*
X133259946Y-78358657D01*
X133245469Y-78395152D01*
X133224445Y-78444087D01*
X133195988Y-78507765D01*
X133159215Y-78588493D01*
X133138975Y-78632616D01*
X133102425Y-78711385D01*
X133068115Y-78783823D01*
X133037352Y-78847280D01*
X133011448Y-78899108D01*
X132991710Y-78936659D01*
X132979450Y-78957284D01*
X132977024Y-78960133D01*
X132945983Y-78972702D01*
X132910921Y-78971019D01*
X132882800Y-78955732D01*
X132881654Y-78954489D01*
X132870468Y-78937554D01*
X132851704Y-78904570D01*
X132827675Y-78859780D01*
X132800697Y-78807432D01*
X132791001Y-78788142D01*
X132717814Y-78641550D01*
X132638040Y-78800793D01*
X132609567Y-78855815D01*
X132583150Y-78903532D01*
X132560948Y-78940293D01*
X132545119Y-78962444D01*
X132539754Y-78967141D01*
X132498057Y-78973502D01*
X132463649Y-78960133D01*
X132453528Y-78945846D01*
X132436014Y-78914092D01*
X132412535Y-78867997D01*
X132384520Y-78810685D01*
X132353399Y-78745280D01*
X132320599Y-78674907D01*
X132287550Y-78602691D01*
X132255681Y-78531755D01*
X132226419Y-78465225D01*
X132201195Y-78406226D01*
X132181436Y-78357881D01*
X132168572Y-78323315D01*
X132164031Y-78305653D01*
X132164077Y-78305013D01*
X132175126Y-78282788D01*
X132197210Y-78260153D01*
X132198510Y-78259168D01*
X132225653Y-78243825D01*
X132250758Y-78243974D01*
X132260168Y-78246866D01*
X132271634Y-78253118D01*
X132283810Y-78265414D01*
X132298157Y-78286308D01*
X132316136Y-78318349D01*
X132339207Y-78364088D01*
X132368830Y-78426077D01*
X132395545Y-78483298D01*
X132426280Y-78549626D01*
X132453821Y-78609274D01*
X132476738Y-78659125D01*
X132493598Y-78696064D01*
X132502973Y-78716973D01*
X132504340Y-78720245D01*
X132510489Y-78714897D01*
X132524622Y-78692509D01*
X132544857Y-78656346D01*
X132569315Y-78609677D01*
X132579048Y-78590422D01*
X132612017Y-78525404D01*
X132637443Y-78478054D01*
X132657412Y-78445619D01*
X132674010Y-78425346D01*
X132689324Y-78414482D01*
X132705440Y-78410275D01*
X132715943Y-78409800D01*
X132734470Y-78411442D01*
X132750704Y-78418231D01*
X132766835Y-78432966D01*
X132785051Y-78458444D01*
X132807539Y-78497461D01*
X132836489Y-78552814D01*
X132852462Y-78584303D01*
X132878370Y-78634487D01*
X132900967Y-78676104D01*
X132918258Y-78705642D01*
X132928250Y-78719589D01*
X132929609Y-78720170D01*
X132936061Y-78709193D01*
X132950508Y-78680690D01*
X132971503Y-78637644D01*
X132997597Y-78583038D01*
X133027346Y-78519854D01*
X133041980Y-78488471D01*
X133080050Y-78407478D01*
X133110705Y-78345156D01*
X133135537Y-78299471D01*
X133156137Y-78268389D01*
X133174098Y-78249878D01*
X133191010Y-78241904D01*
X133208465Y-78242434D01*
G36*
X133652414Y-78247277D02*
G01*
X133676127Y-78262047D01*
X133702778Y-78283627D01*
X133702778Y-78605173D01*
X133702693Y-78699230D01*
X133702329Y-78773332D01*
X133701524Y-78830104D01*
X133700113Y-78872168D01*
X133697933Y-78902148D01*
X133694821Y-78922667D01*
X133690614Y-78936349D01*
X133685148Y-78945816D01*
X133681272Y-78950482D01*
X133649834Y-78970975D01*
X133614033Y-78970139D01*
X133582673Y-78952664D01*
X133556022Y-78931084D01*
X133556022Y-78283627D01*
X133582673Y-78262047D01*
X133608394Y-78246349D01*
X133629400Y-78240467D01*
X133652414Y-78247277D01*
X133652414Y-78247277D01*
G37*
X133652414Y-78247277D02*
X133676127Y-78262047D01*
X133702778Y-78283627D01*
X133702778Y-78605173D01*
X133702693Y-78699230D01*
X133702329Y-78773332D01*
X133701524Y-78830104D01*
X133700113Y-78872168D01*
X133697933Y-78902148D01*
X133694821Y-78922667D01*
X133690614Y-78936349D01*
X133685148Y-78945816D01*
X133681272Y-78950482D01*
X133649834Y-78970975D01*
X133614033Y-78970139D01*
X133582673Y-78952664D01*
X133556022Y-78931084D01*
X133556022Y-78283627D01*
X133582673Y-78262047D01*
X133608394Y-78246349D01*
X133629400Y-78240467D01*
X133652414Y-78247277D01*
G36*
X134426865Y-78240563D02*
G01*
X134505572Y-78240942D01*
X134566663Y-78241733D01*
X134612617Y-78243070D01*
X134645914Y-78245083D01*
X134669036Y-78247906D01*
X134684462Y-78251669D01*
X134694671Y-78256505D01*
X134699613Y-78260222D01*
X134725257Y-78292758D01*
X134728359Y-78326538D01*
X134712511Y-78357226D01*
X134702148Y-78369489D01*
X134690996Y-78377850D01*
X134674835Y-78383057D01*
X134649442Y-78385857D01*
X134610598Y-78386996D01*
X134554080Y-78387221D01*
X134542980Y-78387222D01*
X134397044Y-78387222D01*
X134397044Y-78658156D01*
X134396948Y-78743554D01*
X134396511Y-78809264D01*
X134395512Y-78858174D01*
X134393728Y-78893173D01*
X134390937Y-78917149D01*
X134386917Y-78932993D01*
X134381445Y-78943591D01*
X134374466Y-78951667D01*
X134341534Y-78971512D01*
X134307154Y-78969948D01*
X134275976Y-78947306D01*
X134273686Y-78944500D01*
X134266229Y-78933892D01*
X134260547Y-78921481D01*
X134256401Y-78904250D01*
X134253550Y-78879184D01*
X134251754Y-78843267D01*
X134250772Y-78793483D01*
X134250364Y-78726817D01*
X134250289Y-78650989D01*
X134250289Y-78387222D01*
X134110927Y-78387222D01*
X134051122Y-78386818D01*
X134009718Y-78385240D01*
X133982548Y-78381947D01*
X133965446Y-78376392D01*
X133954243Y-78368031D01*
X133952883Y-78366578D01*
X133936525Y-78333339D01*
X133937972Y-78295762D01*
X133956778Y-78263045D01*
X133964050Y-78256698D01*
X133973427Y-78251666D01*
X133987409Y-78247796D01*
X134008496Y-78244937D01*
X134039189Y-78242935D01*
X134081989Y-78241639D01*
X134139395Y-78240898D01*
X134213910Y-78240558D01*
X134308033Y-78240468D01*
X134328060Y-78240467D01*
X134426865Y-78240563D01*
X134426865Y-78240563D01*
G37*
X134426865Y-78240563D02*
X134505572Y-78240942D01*
X134566663Y-78241733D01*
X134612617Y-78243070D01*
X134645914Y-78245083D01*
X134669036Y-78247906D01*
X134684462Y-78251669D01*
X134694671Y-78256505D01*
X134699613Y-78260222D01*
X134725257Y-78292758D01*
X134728359Y-78326538D01*
X134712511Y-78357226D01*
X134702148Y-78369489D01*
X134690996Y-78377850D01*
X134674835Y-78383057D01*
X134649442Y-78385857D01*
X134610598Y-78386996D01*
X134554080Y-78387221D01*
X134542980Y-78387222D01*
X134397044Y-78387222D01*
X134397044Y-78658156D01*
X134396948Y-78743554D01*
X134396511Y-78809264D01*
X134395512Y-78858174D01*
X134393728Y-78893173D01*
X134390937Y-78917149D01*
X134386917Y-78932993D01*
X134381445Y-78943591D01*
X134374466Y-78951667D01*
X134341534Y-78971512D01*
X134307154Y-78969948D01*
X134275976Y-78947306D01*
X134273686Y-78944500D01*
X134266229Y-78933892D01*
X134260547Y-78921481D01*
X134256401Y-78904250D01*
X134253550Y-78879184D01*
X134251754Y-78843267D01*
X134250772Y-78793483D01*
X134250364Y-78726817D01*
X134250289Y-78650989D01*
X134250289Y-78387222D01*
X134110927Y-78387222D01*
X134051122Y-78386818D01*
X134009718Y-78385240D01*
X133982548Y-78381947D01*
X133965446Y-78376392D01*
X133954243Y-78368031D01*
X133952883Y-78366578D01*
X133936525Y-78333339D01*
X133937972Y-78295762D01*
X133956778Y-78263045D01*
X133964050Y-78256698D01*
X133973427Y-78251666D01*
X133987409Y-78247796D01*
X134008496Y-78244937D01*
X134039189Y-78242935D01*
X134081989Y-78241639D01*
X134139395Y-78240898D01*
X134213910Y-78240558D01*
X134308033Y-78240468D01*
X134328060Y-78240467D01*
X134426865Y-78240563D01*
G36*
X135692623Y-78245933D02*
G01*
X135724002Y-78268176D01*
X135751711Y-78295885D01*
X135751711Y-78605320D01*
X135751638Y-78697199D01*
X135751295Y-78769240D01*
X135750492Y-78824180D01*
X135749041Y-78864760D01*
X135746752Y-78893717D01*
X135743436Y-78913791D01*
X135738905Y-78927721D01*
X135732969Y-78938245D01*
X135728314Y-78944500D01*
X135697583Y-78969073D01*
X135662296Y-78971741D01*
X135630045Y-78956671D01*
X135619388Y-78947774D01*
X135612264Y-78935957D01*
X135607967Y-78916926D01*
X135605791Y-78886392D01*
X135605028Y-78840062D01*
X135604955Y-78804271D01*
X135604955Y-78669445D01*
X135108244Y-78669445D01*
X135108244Y-78792100D01*
X135107731Y-78848187D01*
X135105676Y-78886733D01*
X135101308Y-78912761D01*
X135093856Y-78931297D01*
X135084847Y-78944500D01*
X135053944Y-78969004D01*
X135018996Y-78971906D01*
X134985538Y-78954489D01*
X134976404Y-78945359D01*
X134969952Y-78933255D01*
X134965697Y-78914401D01*
X134963152Y-78885020D01*
X134961829Y-78841337D01*
X134961243Y-78779575D01*
X134961175Y-78765400D01*
X134960691Y-78649031D01*
X134960441Y-78553127D01*
X134960523Y-78475577D01*
X134961031Y-78414269D01*
X134962062Y-78367090D01*
X134963713Y-78331930D01*
X134966079Y-78306676D01*
X134969257Y-78289217D01*
X134973344Y-78277441D01*
X134978434Y-78269235D01*
X134984066Y-78263045D01*
X135015928Y-78243244D01*
X135049157Y-78245933D01*
X135080535Y-78268176D01*
X135093233Y-78282526D01*
X135101326Y-78298378D01*
X135105842Y-78320954D01*
X135107806Y-78355478D01*
X135108244Y-78407176D01*
X135108244Y-78522689D01*
X135604955Y-78522689D01*
X135604955Y-78404156D01*
X135605462Y-78349548D01*
X135607498Y-78312675D01*
X135611835Y-78288707D01*
X135619247Y-78272815D01*
X135627533Y-78263045D01*
X135659394Y-78243244D01*
X135692623Y-78245933D01*
X135692623Y-78245933D01*
G37*
X135692623Y-78245933D02*
X135724002Y-78268176D01*
X135751711Y-78295885D01*
X135751711Y-78605320D01*
X135751638Y-78697199D01*
X135751295Y-78769240D01*
X135750492Y-78824180D01*
X135749041Y-78864760D01*
X135746752Y-78893717D01*
X135743436Y-78913791D01*
X135738905Y-78927721D01*
X135732969Y-78938245D01*
X135728314Y-78944500D01*
X135697583Y-78969073D01*
X135662296Y-78971741D01*
X135630045Y-78956671D01*
X135619388Y-78947774D01*
X135612264Y-78935957D01*
X135607967Y-78916926D01*
X135605791Y-78886392D01*
X135605028Y-78840062D01*
X135604955Y-78804271D01*
X135604955Y-78669445D01*
X135108244Y-78669445D01*
X135108244Y-78792100D01*
X135107731Y-78848187D01*
X135105676Y-78886733D01*
X135101308Y-78912761D01*
X135093856Y-78931297D01*
X135084847Y-78944500D01*
X135053944Y-78969004D01*
X135018996Y-78971906D01*
X134985538Y-78954489D01*
X134976404Y-78945359D01*
X134969952Y-78933255D01*
X134965697Y-78914401D01*
X134963152Y-78885020D01*
X134961829Y-78841337D01*
X134961243Y-78779575D01*
X134961175Y-78765400D01*
X134960691Y-78649031D01*
X134960441Y-78553127D01*
X134960523Y-78475577D01*
X134961031Y-78414269D01*
X134962062Y-78367090D01*
X134963713Y-78331930D01*
X134966079Y-78306676D01*
X134969257Y-78289217D01*
X134973344Y-78277441D01*
X134978434Y-78269235D01*
X134984066Y-78263045D01*
X135015928Y-78243244D01*
X135049157Y-78245933D01*
X135080535Y-78268176D01*
X135093233Y-78282526D01*
X135101326Y-78298378D01*
X135105842Y-78320954D01*
X135107806Y-78355478D01*
X135108244Y-78407176D01*
X135108244Y-78522689D01*
X135604955Y-78522689D01*
X135604955Y-78404156D01*
X135605462Y-78349548D01*
X135607498Y-78312675D01*
X135611835Y-78288707D01*
X135619247Y-78272815D01*
X135627533Y-78263045D01*
X135659394Y-78243244D01*
X135692623Y-78245933D01*
G36*
X119697544Y-102021318D02*
G01*
X119753001Y-102048968D01*
X119801948Y-102099880D01*
X119815429Y-102118738D01*
X119830114Y-102143415D01*
X119839642Y-102170216D01*
X119845093Y-102205987D01*
X119847547Y-102257569D01*
X119848086Y-102325667D01*
X119845652Y-102418988D01*
X119837194Y-102489057D01*
X119820974Y-102541331D01*
X119795254Y-102581269D01*
X119758297Y-102614329D01*
X119755582Y-102616286D01*
X119719160Y-102636308D01*
X119675302Y-102646215D01*
X119619524Y-102648657D01*
X119528848Y-102648657D01*
X119528810Y-102736683D01*
X119527966Y-102785708D01*
X119522824Y-102814465D01*
X119509387Y-102831711D01*
X119483658Y-102846208D01*
X119477479Y-102849169D01*
X119448564Y-102863048D01*
X119426176Y-102871814D01*
X119409529Y-102872571D01*
X119397836Y-102862423D01*
X119390310Y-102838473D01*
X119386166Y-102797826D01*
X119384615Y-102737586D01*
X119384871Y-102654855D01*
X119386149Y-102546739D01*
X119386548Y-102514400D01*
X119387985Y-102402924D01*
X119389272Y-102330003D01*
X119528771Y-102330003D01*
X119529555Y-102391899D01*
X119533040Y-102432397D01*
X119540924Y-102459108D01*
X119554905Y-102479644D01*
X119564397Y-102489660D01*
X119603204Y-102518967D01*
X119637563Y-102521352D01*
X119673016Y-102497150D01*
X119673914Y-102496257D01*
X119688339Y-102477553D01*
X119697113Y-102452132D01*
X119701539Y-102412984D01*
X119702918Y-102353097D01*
X119702943Y-102339830D01*
X119699612Y-102257301D01*
X119688769Y-102200091D01*
X119669140Y-102165166D01*
X119639450Y-102149494D01*
X119622291Y-102147914D01*
X119581566Y-102155326D01*
X119553632Y-102179730D01*
X119536817Y-102224380D01*
X119529450Y-102292530D01*
X119528771Y-102330003D01*
X119389272Y-102330003D01*
X119389508Y-102316645D01*
X119391477Y-102251733D01*
X119394250Y-102204358D01*
X119398188Y-102170690D01*
X119403649Y-102146898D01*
X119410992Y-102129153D01*
X119420577Y-102113624D01*
X119424687Y-102107781D01*
X119479205Y-102052585D01*
X119548136Y-102021290D01*
X119627872Y-102012565D01*
X119697544Y-102021318D01*
X119697544Y-102021318D01*
G37*
X119697544Y-102021318D02*
X119753001Y-102048968D01*
X119801948Y-102099880D01*
X119815429Y-102118738D01*
X119830114Y-102143415D01*
X119839642Y-102170216D01*
X119845093Y-102205987D01*
X119847547Y-102257569D01*
X119848086Y-102325667D01*
X119845652Y-102418988D01*
X119837194Y-102489057D01*
X119820974Y-102541331D01*
X119795254Y-102581269D01*
X119758297Y-102614329D01*
X119755582Y-102616286D01*
X119719160Y-102636308D01*
X119675302Y-102646215D01*
X119619524Y-102648657D01*
X119528848Y-102648657D01*
X119528810Y-102736683D01*
X119527966Y-102785708D01*
X119522824Y-102814465D01*
X119509387Y-102831711D01*
X119483658Y-102846208D01*
X119477479Y-102849169D01*
X119448564Y-102863048D01*
X119426176Y-102871814D01*
X119409529Y-102872571D01*
X119397836Y-102862423D01*
X119390310Y-102838473D01*
X119386166Y-102797826D01*
X119384615Y-102737586D01*
X119384871Y-102654855D01*
X119386149Y-102546739D01*
X119386548Y-102514400D01*
X119387985Y-102402924D01*
X119389272Y-102330003D01*
X119528771Y-102330003D01*
X119529555Y-102391899D01*
X119533040Y-102432397D01*
X119540924Y-102459108D01*
X119554905Y-102479644D01*
X119564397Y-102489660D01*
X119603204Y-102518967D01*
X119637563Y-102521352D01*
X119673016Y-102497150D01*
X119673914Y-102496257D01*
X119688339Y-102477553D01*
X119697113Y-102452132D01*
X119701539Y-102412984D01*
X119702918Y-102353097D01*
X119702943Y-102339830D01*
X119699612Y-102257301D01*
X119688769Y-102200091D01*
X119669140Y-102165166D01*
X119639450Y-102149494D01*
X119622291Y-102147914D01*
X119581566Y-102155326D01*
X119553632Y-102179730D01*
X119536817Y-102224380D01*
X119529450Y-102292530D01*
X119528771Y-102330003D01*
X119389272Y-102330003D01*
X119389508Y-102316645D01*
X119391477Y-102251733D01*
X119394250Y-102204358D01*
X119398188Y-102170690D01*
X119403649Y-102146898D01*
X119410992Y-102129153D01*
X119420577Y-102113624D01*
X119424687Y-102107781D01*
X119479205Y-102052585D01*
X119548136Y-102021290D01*
X119627872Y-102012565D01*
X119697544Y-102021318D01*
G36*
X120813893Y-102029180D02*
G01*
X120860472Y-102056123D01*
X120892857Y-102082866D01*
X120916542Y-102110884D01*
X120932859Y-102145148D01*
X120943139Y-102190627D01*
X120948714Y-102252292D01*
X120950916Y-102335111D01*
X120951171Y-102394646D01*
X120951171Y-102613791D01*
X120889486Y-102641444D01*
X120827800Y-102669097D01*
X120820543Y-102429070D01*
X120817544Y-102339428D01*
X120814398Y-102274362D01*
X120810501Y-102229426D01*
X120805247Y-102200170D01*
X120798031Y-102182148D01*
X120788250Y-102170911D01*
X120785112Y-102168479D01*
X120737561Y-102149483D01*
X120689497Y-102157000D01*
X120660886Y-102176943D01*
X120649247Y-102191075D01*
X120641191Y-102209620D01*
X120636071Y-102237734D01*
X120633241Y-102280573D01*
X120632056Y-102343295D01*
X120631857Y-102408661D01*
X120631818Y-102490668D01*
X120630414Y-102548716D01*
X120625714Y-102587865D01*
X120615787Y-102613180D01*
X120598703Y-102629723D01*
X120572532Y-102642556D01*
X120537575Y-102655891D01*
X120499396Y-102670407D01*
X120503941Y-102412789D01*
X120505771Y-102319919D01*
X120507912Y-102251289D01*
X120510981Y-102202111D01*
X120515594Y-102167598D01*
X120522368Y-102142962D01*
X120531919Y-102123416D01*
X120543434Y-102106170D01*
X120598990Y-102051080D01*
X120666780Y-102019222D01*
X120740513Y-102011591D01*
X120813893Y-102029180D01*
X120813893Y-102029180D01*
G37*
X120813893Y-102029180D02*
X120860472Y-102056123D01*
X120892857Y-102082866D01*
X120916542Y-102110884D01*
X120932859Y-102145148D01*
X120943139Y-102190627D01*
X120948714Y-102252292D01*
X120950916Y-102335111D01*
X120951171Y-102394646D01*
X120951171Y-102613791D01*
X120889486Y-102641444D01*
X120827800Y-102669097D01*
X120820543Y-102429070D01*
X120817544Y-102339428D01*
X120814398Y-102274362D01*
X120810501Y-102229426D01*
X120805247Y-102200170D01*
X120798031Y-102182148D01*
X120788250Y-102170911D01*
X120785112Y-102168479D01*
X120737561Y-102149483D01*
X120689497Y-102157000D01*
X120660886Y-102176943D01*
X120649247Y-102191075D01*
X120641191Y-102209620D01*
X120636071Y-102237734D01*
X120633241Y-102280573D01*
X120632056Y-102343295D01*
X120631857Y-102408661D01*
X120631818Y-102490668D01*
X120630414Y-102548716D01*
X120625714Y-102587865D01*
X120615787Y-102613180D01*
X120598703Y-102629723D01*
X120572532Y-102642556D01*
X120537575Y-102655891D01*
X120499396Y-102670407D01*
X120503941Y-102412789D01*
X120505771Y-102319919D01*
X120507912Y-102251289D01*
X120510981Y-102202111D01*
X120515594Y-102167598D01*
X120522368Y-102142962D01*
X120531919Y-102123416D01*
X120543434Y-102106170D01*
X120598990Y-102051080D01*
X120666780Y-102019222D01*
X120740513Y-102011591D01*
X120813893Y-102029180D01*
G36*
X119138915Y-102023362D02*
G01*
X119206945Y-102059133D01*
X119257151Y-102116701D01*
X119274985Y-102153712D01*
X119288863Y-102209282D01*
X119295967Y-102279496D01*
X119296640Y-102356127D01*
X119291227Y-102430952D01*
X119280070Y-102495742D01*
X119263514Y-102542273D01*
X119258426Y-102550287D01*
X119198155Y-102610107D01*
X119126569Y-102645935D01*
X119048892Y-102656420D01*
X118970348Y-102640210D01*
X118948489Y-102630492D01*
X118905922Y-102600543D01*
X118868563Y-102560833D01*
X118865032Y-102555797D01*
X118850681Y-102531524D01*
X118841194Y-102505578D01*
X118835590Y-102471422D01*
X118832886Y-102422519D01*
X118832099Y-102352335D01*
X118832086Y-102336600D01*
X118832122Y-102331592D01*
X118977229Y-102331592D01*
X118978073Y-102397830D01*
X118981396Y-102441786D01*
X118988383Y-102470179D01*
X119000216Y-102489725D01*
X119006257Y-102496257D01*
X119040986Y-102521080D01*
X119074703Y-102519948D01*
X119108795Y-102498416D01*
X119129129Y-102475429D01*
X119141171Y-102441878D01*
X119147934Y-102388969D01*
X119148398Y-102382799D01*
X119149552Y-102286913D01*
X119137488Y-102215699D01*
X119112370Y-102169594D01*
X119074360Y-102149035D01*
X119060792Y-102147914D01*
X119025164Y-102153552D01*
X119000794Y-102173086D01*
X118985893Y-102210442D01*
X118978675Y-102269550D01*
X118977229Y-102331592D01*
X118832122Y-102331592D01*
X118832626Y-102261813D01*
X118834896Y-102209559D01*
X118839868Y-102173349D01*
X118848513Y-102146699D01*
X118861805Y-102123122D01*
X118864743Y-102118738D01*
X118914113Y-102059649D01*
X118967909Y-102025347D01*
X119033402Y-102011731D01*
X119055642Y-102011065D01*
X119138915Y-102023362D01*
X119138915Y-102023362D01*
G37*
X119138915Y-102023362D02*
X119206945Y-102059133D01*
X119257151Y-102116701D01*
X119274985Y-102153712D01*
X119288863Y-102209282D01*
X119295967Y-102279496D01*
X119296640Y-102356127D01*
X119291227Y-102430952D01*
X119280070Y-102495742D01*
X119263514Y-102542273D01*
X119258426Y-102550287D01*
X119198155Y-102610107D01*
X119126569Y-102645935D01*
X119048892Y-102656420D01*
X118970348Y-102640210D01*
X118948489Y-102630492D01*
X118905922Y-102600543D01*
X118868563Y-102560833D01*
X118865032Y-102555797D01*
X118850681Y-102531524D01*
X118841194Y-102505578D01*
X118835590Y-102471422D01*
X118832886Y-102422519D01*
X118832099Y-102352335D01*
X118832086Y-102336600D01*
X118832122Y-102331592D01*
X118977229Y-102331592D01*
X118978073Y-102397830D01*
X118981396Y-102441786D01*
X118988383Y-102470179D01*
X119000216Y-102489725D01*
X119006257Y-102496257D01*
X119040986Y-102521080D01*
X119074703Y-102519948D01*
X119108795Y-102498416D01*
X119129129Y-102475429D01*
X119141171Y-102441878D01*
X119147934Y-102388969D01*
X119148398Y-102382799D01*
X119149552Y-102286913D01*
X119137488Y-102215699D01*
X119112370Y-102169594D01*
X119074360Y-102149035D01*
X119060792Y-102147914D01*
X119025164Y-102153552D01*
X119000794Y-102173086D01*
X118985893Y-102210442D01*
X118978675Y-102269550D01*
X118977229Y-102331592D01*
X118832122Y-102331592D01*
X118832626Y-102261813D01*
X118834896Y-102209559D01*
X118839868Y-102173349D01*
X118848513Y-102146699D01*
X118861805Y-102123122D01*
X118864743Y-102118738D01*
X118914113Y-102059649D01*
X118967909Y-102025347D01*
X119033402Y-102011731D01*
X119055642Y-102011065D01*
X119138915Y-102023362D01*
G36*
X120266103Y-102032639D02*
G01*
X120323327Y-102071135D01*
X120367549Y-102126735D01*
X120393967Y-102197486D01*
X120399310Y-102249562D01*
X120398703Y-102271293D01*
X120393622Y-102287931D01*
X120379655Y-102302837D01*
X120352389Y-102319373D01*
X120307412Y-102340898D01*
X120240311Y-102370774D01*
X120239971Y-102370924D01*
X120178207Y-102399213D01*
X120127559Y-102424333D01*
X120093204Y-102443579D01*
X120080318Y-102454248D01*
X120080314Y-102454334D01*
X120091672Y-102477566D01*
X120118231Y-102503174D01*
X120148723Y-102521621D01*
X120164170Y-102525286D01*
X120206315Y-102512612D01*
X120242608Y-102480871D01*
X120260317Y-102445972D01*
X120277352Y-102420245D01*
X120310722Y-102390946D01*
X120349949Y-102365635D01*
X120384556Y-102351871D01*
X120391793Y-102351114D01*
X120399939Y-102363560D01*
X120400430Y-102395372D01*
X120394443Y-102438266D01*
X120383157Y-102483958D01*
X120367750Y-102524161D01*
X120366971Y-102525722D01*
X120320604Y-102590462D01*
X120260511Y-102634497D01*
X120192265Y-102656111D01*
X120121438Y-102653585D01*
X120053604Y-102625204D01*
X120050588Y-102623208D01*
X119997227Y-102574848D01*
X119962140Y-102511752D01*
X119942722Y-102428787D01*
X119940116Y-102405478D01*
X119935501Y-102295455D01*
X119941033Y-102244148D01*
X120080314Y-102244148D01*
X120082124Y-102276153D01*
X120092022Y-102285493D01*
X120116698Y-102278505D01*
X120155595Y-102261987D01*
X120199075Y-102241281D01*
X120200156Y-102240733D01*
X120237009Y-102221349D01*
X120251800Y-102208413D01*
X120248153Y-102194851D01*
X120232795Y-102177032D01*
X120193723Y-102151245D01*
X120151646Y-102149350D01*
X120113903Y-102168117D01*
X120087834Y-102204315D01*
X120080314Y-102244148D01*
X119941033Y-102244148D01*
X119944994Y-102207427D01*
X119969350Y-102137612D01*
X120003256Y-102088702D01*
X120064453Y-102039278D01*
X120131863Y-102014759D01*
X120200680Y-102013197D01*
X120266103Y-102032639D01*
X120266103Y-102032639D01*
G37*
X120266103Y-102032639D02*
X120323327Y-102071135D01*
X120367549Y-102126735D01*
X120393967Y-102197486D01*
X120399310Y-102249562D01*
X120398703Y-102271293D01*
X120393622Y-102287931D01*
X120379655Y-102302837D01*
X120352389Y-102319373D01*
X120307412Y-102340898D01*
X120240311Y-102370774D01*
X120239971Y-102370924D01*
X120178207Y-102399213D01*
X120127559Y-102424333D01*
X120093204Y-102443579D01*
X120080318Y-102454248D01*
X120080314Y-102454334D01*
X120091672Y-102477566D01*
X120118231Y-102503174D01*
X120148723Y-102521621D01*
X120164170Y-102525286D01*
X120206315Y-102512612D01*
X120242608Y-102480871D01*
X120260317Y-102445972D01*
X120277352Y-102420245D01*
X120310722Y-102390946D01*
X120349949Y-102365635D01*
X120384556Y-102351871D01*
X120391793Y-102351114D01*
X120399939Y-102363560D01*
X120400430Y-102395372D01*
X120394443Y-102438266D01*
X120383157Y-102483958D01*
X120367750Y-102524161D01*
X120366971Y-102525722D01*
X120320604Y-102590462D01*
X120260511Y-102634497D01*
X120192265Y-102656111D01*
X120121438Y-102653585D01*
X120053604Y-102625204D01*
X120050588Y-102623208D01*
X119997227Y-102574848D01*
X119962140Y-102511752D01*
X119942722Y-102428787D01*
X119940116Y-102405478D01*
X119935501Y-102295455D01*
X119941033Y-102244148D01*
X120080314Y-102244148D01*
X120082124Y-102276153D01*
X120092022Y-102285493D01*
X120116698Y-102278505D01*
X120155595Y-102261987D01*
X120199075Y-102241281D01*
X120200156Y-102240733D01*
X120237009Y-102221349D01*
X120251800Y-102208413D01*
X120248153Y-102194851D01*
X120232795Y-102177032D01*
X120193723Y-102151245D01*
X120151646Y-102149350D01*
X120113903Y-102168117D01*
X120087834Y-102204315D01*
X120080314Y-102244148D01*
X119941033Y-102244148D01*
X119944994Y-102207427D01*
X119969350Y-102137612D01*
X120003256Y-102088702D01*
X120064453Y-102039278D01*
X120131863Y-102014759D01*
X120200680Y-102013197D01*
X120266103Y-102032639D01*
G36*
X121473686Y-101952689D02*
G01*
X121477939Y-102012013D01*
X121482825Y-102046972D01*
X121489595Y-102062220D01*
X121499502Y-102062415D01*
X121502714Y-102060595D01*
X121545444Y-102047415D01*
X121601027Y-102048185D01*
X121657537Y-102061733D01*
X121692882Y-102079261D01*
X121729121Y-102107261D01*
X121755613Y-102138949D01*
X121773799Y-102179213D01*
X121785122Y-102232943D01*
X121791022Y-102305026D01*
X121792943Y-102400351D01*
X121792977Y-102418637D01*
X121793000Y-102624046D01*
X121747291Y-102639980D01*
X121714827Y-102650820D01*
X121697015Y-102655868D01*
X121696491Y-102655914D01*
X121694737Y-102642228D01*
X121693244Y-102604476D01*
X121692126Y-102547624D01*
X121691497Y-102476634D01*
X121691400Y-102433473D01*
X121691198Y-102348373D01*
X121690158Y-102287381D01*
X121687631Y-102245577D01*
X121682964Y-102218042D01*
X121675507Y-102199856D01*
X121664611Y-102186098D01*
X121657807Y-102179473D01*
X121611072Y-102152775D01*
X121560072Y-102150775D01*
X121513801Y-102173355D01*
X121505244Y-102181507D01*
X121492693Y-102196836D01*
X121483988Y-102215018D01*
X121478431Y-102241309D01*
X121475326Y-102280962D01*
X121473976Y-102339232D01*
X121473686Y-102419573D01*
X121473686Y-102624046D01*
X121427977Y-102639980D01*
X121395513Y-102650820D01*
X121377701Y-102655868D01*
X121377177Y-102655914D01*
X121375837Y-102642023D01*
X121374628Y-102602839D01*
X121373601Y-102542100D01*
X121372802Y-102463541D01*
X121372281Y-102370898D01*
X121372086Y-102267909D01*
X121372086Y-101870742D01*
X121419257Y-101850844D01*
X121466429Y-101830947D01*
X121473686Y-101952689D01*
X121473686Y-101952689D01*
G37*
X121473686Y-101952689D02*
X121477939Y-102012013D01*
X121482825Y-102046972D01*
X121489595Y-102062220D01*
X121499502Y-102062415D01*
X121502714Y-102060595D01*
X121545444Y-102047415D01*
X121601027Y-102048185D01*
X121657537Y-102061733D01*
X121692882Y-102079261D01*
X121729121Y-102107261D01*
X121755613Y-102138949D01*
X121773799Y-102179213D01*
X121785122Y-102232943D01*
X121791022Y-102305026D01*
X121792943Y-102400351D01*
X121792977Y-102418637D01*
X121793000Y-102624046D01*
X121747291Y-102639980D01*
X121714827Y-102650820D01*
X121697015Y-102655868D01*
X121696491Y-102655914D01*
X121694737Y-102642228D01*
X121693244Y-102604476D01*
X121692126Y-102547624D01*
X121691497Y-102476634D01*
X121691400Y-102433473D01*
X121691198Y-102348373D01*
X121690158Y-102287381D01*
X121687631Y-102245577D01*
X121682964Y-102218042D01*
X121675507Y-102199856D01*
X121664611Y-102186098D01*
X121657807Y-102179473D01*
X121611072Y-102152775D01*
X121560072Y-102150775D01*
X121513801Y-102173355D01*
X121505244Y-102181507D01*
X121492693Y-102196836D01*
X121483988Y-102215018D01*
X121478431Y-102241309D01*
X121475326Y-102280962D01*
X121473976Y-102339232D01*
X121473686Y-102419573D01*
X121473686Y-102624046D01*
X121427977Y-102639980D01*
X121395513Y-102650820D01*
X121377701Y-102655868D01*
X121377177Y-102655914D01*
X121375837Y-102642023D01*
X121374628Y-102602839D01*
X121373601Y-102542100D01*
X121372802Y-102463541D01*
X121372281Y-102370898D01*
X121372086Y-102267909D01*
X121372086Y-101870742D01*
X121419257Y-101850844D01*
X121466429Y-101830947D01*
X121473686Y-101952689D01*
G36*
X122137544Y-102052368D02*
G01*
X122194416Y-102073487D01*
X122195067Y-102073893D01*
X122230240Y-102099780D01*
X122256207Y-102130033D01*
X122274470Y-102169458D01*
X122286532Y-102222862D01*
X122293896Y-102295051D01*
X122298064Y-102390832D01*
X122298429Y-102404478D01*
X122303676Y-102610242D01*
X122259516Y-102633078D01*
X122227563Y-102648510D01*
X122208270Y-102655823D01*
X122207378Y-102655914D01*
X122204039Y-102642422D01*
X122201387Y-102606026D01*
X122199756Y-102552852D01*
X122199400Y-102509793D01*
X122199392Y-102440041D01*
X122196203Y-102396237D01*
X122185088Y-102375344D01*
X122161301Y-102374325D01*
X122120096Y-102390141D01*
X122057886Y-102419215D01*
X122012141Y-102443363D01*
X121988613Y-102464313D01*
X121981696Y-102487147D01*
X121981686Y-102488277D01*
X121993099Y-102527612D01*
X122026892Y-102548862D01*
X122078609Y-102551939D01*
X122115861Y-102551406D01*
X122135503Y-102562135D01*
X122147752Y-102587905D01*
X122154802Y-102620737D01*
X122144642Y-102639366D01*
X122140817Y-102642032D01*
X122104801Y-102652740D01*
X122054366Y-102654256D01*
X122002426Y-102647159D01*
X121965622Y-102634188D01*
X121914738Y-102590985D01*
X121885814Y-102530846D01*
X121880086Y-102483862D01*
X121884457Y-102441482D01*
X121900275Y-102406888D01*
X121931597Y-102376163D01*
X121982478Y-102345390D01*
X122056976Y-102310652D01*
X122061514Y-102308688D01*
X122128621Y-102277687D01*
X122170032Y-102252262D01*
X122187781Y-102229414D01*
X122183907Y-102206145D01*
X122160443Y-102179456D01*
X122153427Y-102173314D01*
X122106430Y-102149500D01*
X122057733Y-102150503D01*
X122015322Y-102173851D01*
X121987184Y-102217075D01*
X121984569Y-102225560D01*
X121959108Y-102266708D01*
X121926801Y-102286528D01*
X121880086Y-102306170D01*
X121880086Y-102255350D01*
X121894296Y-102181482D01*
X121936475Y-102113727D01*
X121958424Y-102091061D01*
X122008317Y-102061969D01*
X122071767Y-102048800D01*
X122137544Y-102052368D01*
X122137544Y-102052368D01*
G37*
X122137544Y-102052368D02*
X122194416Y-102073487D01*
X122195067Y-102073893D01*
X122230240Y-102099780D01*
X122256207Y-102130033D01*
X122274470Y-102169458D01*
X122286532Y-102222862D01*
X122293896Y-102295051D01*
X122298064Y-102390832D01*
X122298429Y-102404478D01*
X122303676Y-102610242D01*
X122259516Y-102633078D01*
X122227563Y-102648510D01*
X122208270Y-102655823D01*
X122207378Y-102655914D01*
X122204039Y-102642422D01*
X122201387Y-102606026D01*
X122199756Y-102552852D01*
X122199400Y-102509793D01*
X122199392Y-102440041D01*
X122196203Y-102396237D01*
X122185088Y-102375344D01*
X122161301Y-102374325D01*
X122120096Y-102390141D01*
X122057886Y-102419215D01*
X122012141Y-102443363D01*
X121988613Y-102464313D01*
X121981696Y-102487147D01*
X121981686Y-102488277D01*
X121993099Y-102527612D01*
X122026892Y-102548862D01*
X122078609Y-102551939D01*
X122115861Y-102551406D01*
X122135503Y-102562135D01*
X122147752Y-102587905D01*
X122154802Y-102620737D01*
X122144642Y-102639366D01*
X122140817Y-102642032D01*
X122104801Y-102652740D01*
X122054366Y-102654256D01*
X122002426Y-102647159D01*
X121965622Y-102634188D01*
X121914738Y-102590985D01*
X121885814Y-102530846D01*
X121880086Y-102483862D01*
X121884457Y-102441482D01*
X121900275Y-102406888D01*
X121931597Y-102376163D01*
X121982478Y-102345390D01*
X122056976Y-102310652D01*
X122061514Y-102308688D01*
X122128621Y-102277687D01*
X122170032Y-102252262D01*
X122187781Y-102229414D01*
X122183907Y-102206145D01*
X122160443Y-102179456D01*
X122153427Y-102173314D01*
X122106430Y-102149500D01*
X122057733Y-102150503D01*
X122015322Y-102173851D01*
X121987184Y-102217075D01*
X121984569Y-102225560D01*
X121959108Y-102266708D01*
X121926801Y-102286528D01*
X121880086Y-102306170D01*
X121880086Y-102255350D01*
X121894296Y-102181482D01*
X121936475Y-102113727D01*
X121958424Y-102091061D01*
X122008317Y-102061969D01*
X122071767Y-102048800D01*
X122137544Y-102052368D01*
G36*
X122627726Y-102051155D02*
G01*
X122693658Y-102075484D01*
X122747073Y-102118517D01*
X122767964Y-102148809D01*
X122790739Y-102204394D01*
X122790266Y-102244586D01*
X122766362Y-102271617D01*
X122757517Y-102276213D01*
X122719330Y-102290544D01*
X122699828Y-102286872D01*
X122693222Y-102262807D01*
X122692886Y-102249514D01*
X122680792Y-102200610D01*
X122649271Y-102166399D01*
X122605459Y-102149876D01*
X122556495Y-102154034D01*
X122516694Y-102175627D01*
X122503250Y-102187944D01*
X122493721Y-102202887D01*
X122487285Y-102225475D01*
X122483117Y-102260728D01*
X122480397Y-102313666D01*
X122478302Y-102389307D01*
X122477760Y-102413257D01*
X122475781Y-102495190D01*
X122473531Y-102552855D01*
X122470157Y-102591008D01*
X122464806Y-102614404D01*
X122456624Y-102627798D01*
X122444759Y-102635945D01*
X122437162Y-102639544D01*
X122404902Y-102651852D01*
X122385911Y-102655914D01*
X122379636Y-102642348D01*
X122375806Y-102601334D01*
X122374400Y-102532399D01*
X122375398Y-102435069D01*
X122375708Y-102420057D01*
X122377901Y-102331259D01*
X122380493Y-102266419D01*
X122384182Y-102220467D01*
X122389664Y-102188335D01*
X122397635Y-102164953D01*
X122408793Y-102145252D01*
X122414630Y-102136810D01*
X122448096Y-102099457D01*
X122485527Y-102070403D01*
X122490109Y-102067867D01*
X122557226Y-102047843D01*
X122627726Y-102051155D01*
X122627726Y-102051155D01*
G37*
X122627726Y-102051155D02*
X122693658Y-102075484D01*
X122747073Y-102118517D01*
X122767964Y-102148809D01*
X122790739Y-102204394D01*
X122790266Y-102244586D01*
X122766362Y-102271617D01*
X122757517Y-102276213D01*
X122719330Y-102290544D01*
X122699828Y-102286872D01*
X122693222Y-102262807D01*
X122692886Y-102249514D01*
X122680792Y-102200610D01*
X122649271Y-102166399D01*
X122605459Y-102149876D01*
X122556495Y-102154034D01*
X122516694Y-102175627D01*
X122503250Y-102187944D01*
X122493721Y-102202887D01*
X122487285Y-102225475D01*
X122483117Y-102260728D01*
X122480397Y-102313666D01*
X122478302Y-102389307D01*
X122477760Y-102413257D01*
X122475781Y-102495190D01*
X122473531Y-102552855D01*
X122470157Y-102591008D01*
X122464806Y-102614404D01*
X122456624Y-102627798D01*
X122444759Y-102635945D01*
X122437162Y-102639544D01*
X122404902Y-102651852D01*
X122385911Y-102655914D01*
X122379636Y-102642348D01*
X122375806Y-102601334D01*
X122374400Y-102532399D01*
X122375398Y-102435069D01*
X122375708Y-102420057D01*
X122377901Y-102331259D01*
X122380493Y-102266419D01*
X122384182Y-102220467D01*
X122389664Y-102188335D01*
X122397635Y-102164953D01*
X122408793Y-102145252D01*
X122414630Y-102136810D01*
X122448096Y-102099457D01*
X122485527Y-102070403D01*
X122490109Y-102067867D01*
X122557226Y-102047843D01*
X122627726Y-102051155D01*
G36*
X123287917Y-102166758D02*
G01*
X123287733Y-102275237D01*
X123287019Y-102358687D01*
X123285475Y-102421104D01*
X123282801Y-102466485D01*
X123278694Y-102498829D01*
X123272855Y-102522133D01*
X123264982Y-102540395D01*
X123259021Y-102550818D01*
X123209655Y-102607345D01*
X123147064Y-102642777D01*
X123077813Y-102655490D01*
X123008468Y-102643863D01*
X122967175Y-102622968D01*
X122923825Y-102586822D01*
X122894281Y-102542676D01*
X122876455Y-102484862D01*
X122868263Y-102407713D01*
X122867102Y-102351114D01*
X122867258Y-102347047D01*
X122968657Y-102347047D01*
X122969276Y-102411950D01*
X122972114Y-102454914D01*
X122978640Y-102483022D01*
X122990323Y-102503353D01*
X123004283Y-102518688D01*
X123051165Y-102548290D01*
X123101501Y-102550819D01*
X123149076Y-102526105D01*
X123152779Y-102522756D01*
X123168583Y-102505335D01*
X123178493Y-102484609D01*
X123183858Y-102453762D01*
X123186028Y-102405977D01*
X123186371Y-102353148D01*
X123185627Y-102286781D01*
X123182548Y-102242506D01*
X123175861Y-102213409D01*
X123164296Y-102192573D01*
X123154813Y-102181507D01*
X123110760Y-102153598D01*
X123060024Y-102150243D01*
X123011596Y-102171559D01*
X123002250Y-102179473D01*
X122986340Y-102197047D01*
X122976410Y-102217987D01*
X122971078Y-102249182D01*
X122968963Y-102297522D01*
X122968657Y-102347047D01*
X122867258Y-102347047D01*
X122870610Y-102259968D01*
X122882526Y-102191486D01*
X122904935Y-102140000D01*
X122939924Y-102099843D01*
X122967175Y-102079261D01*
X123016707Y-102057025D01*
X123074116Y-102046704D01*
X123127482Y-102049467D01*
X123157343Y-102060612D01*
X123169061Y-102063783D01*
X123176837Y-102051957D01*
X123182265Y-102020266D01*
X123186371Y-101971993D01*
X123190867Y-101918229D01*
X123197113Y-101885882D01*
X123208476Y-101867385D01*
X123228328Y-101855170D01*
X123240800Y-101849762D01*
X123287971Y-101830001D01*
X123287917Y-102166758D01*
X123287917Y-102166758D01*
G37*
X123287917Y-102166758D02*
X123287733Y-102275237D01*
X123287019Y-102358687D01*
X123285475Y-102421104D01*
X123282801Y-102466485D01*
X123278694Y-102498829D01*
X123272855Y-102522133D01*
X123264982Y-102540395D01*
X123259021Y-102550818D01*
X123209655Y-102607345D01*
X123147064Y-102642777D01*
X123077813Y-102655490D01*
X123008468Y-102643863D01*
X122967175Y-102622968D01*
X122923825Y-102586822D01*
X122894281Y-102542676D01*
X122876455Y-102484862D01*
X122868263Y-102407713D01*
X122867102Y-102351114D01*
X122867258Y-102347047D01*
X122968657Y-102347047D01*
X122969276Y-102411950D01*
X122972114Y-102454914D01*
X122978640Y-102483022D01*
X122990323Y-102503353D01*
X123004283Y-102518688D01*
X123051165Y-102548290D01*
X123101501Y-102550819D01*
X123149076Y-102526105D01*
X123152779Y-102522756D01*
X123168583Y-102505335D01*
X123178493Y-102484609D01*
X123183858Y-102453762D01*
X123186028Y-102405977D01*
X123186371Y-102353148D01*
X123185627Y-102286781D01*
X123182548Y-102242506D01*
X123175861Y-102213409D01*
X123164296Y-102192573D01*
X123154813Y-102181507D01*
X123110760Y-102153598D01*
X123060024Y-102150243D01*
X123011596Y-102171559D01*
X123002250Y-102179473D01*
X122986340Y-102197047D01*
X122976410Y-102217987D01*
X122971078Y-102249182D01*
X122968963Y-102297522D01*
X122968657Y-102347047D01*
X122867258Y-102347047D01*
X122870610Y-102259968D01*
X122882526Y-102191486D01*
X122904935Y-102140000D01*
X122939924Y-102099843D01*
X122967175Y-102079261D01*
X123016707Y-102057025D01*
X123074116Y-102046704D01*
X123127482Y-102049467D01*
X123157343Y-102060612D01*
X123169061Y-102063783D01*
X123176837Y-102051957D01*
X123182265Y-102020266D01*
X123186371Y-101971993D01*
X123190867Y-101918229D01*
X123197113Y-101885882D01*
X123208476Y-101867385D01*
X123228328Y-101855170D01*
X123240800Y-101849762D01*
X123287971Y-101830001D01*
X123287917Y-102166758D01*
G36*
X123877633Y-102060063D02*
G01*
X123879848Y-102098250D01*
X123881584Y-102156286D01*
X123882699Y-102229580D01*
X123883057Y-102306455D01*
X123883057Y-102566596D01*
X123837126Y-102612527D01*
X123805475Y-102640829D01*
X123777690Y-102652293D01*
X123739715Y-102651568D01*
X123724640Y-102649721D01*
X123677526Y-102644348D01*
X123638556Y-102641269D01*
X123629057Y-102640985D01*
X123597033Y-102642845D01*
X123551232Y-102647514D01*
X123533474Y-102649721D01*
X123489857Y-102653135D01*
X123460545Y-102645720D01*
X123431480Y-102622827D01*
X123420988Y-102612527D01*
X123375057Y-102566596D01*
X123375057Y-102080002D01*
X123412026Y-102063158D01*
X123443859Y-102050682D01*
X123462483Y-102046314D01*
X123467258Y-102060118D01*
X123471721Y-102098686D01*
X123475575Y-102157756D01*
X123478522Y-102233063D01*
X123479943Y-102296686D01*
X123483914Y-102547057D01*
X123518559Y-102551956D01*
X123550068Y-102548531D01*
X123565508Y-102537441D01*
X123569823Y-102516708D01*
X123573508Y-102472545D01*
X123576269Y-102410546D01*
X123577812Y-102336309D01*
X123578035Y-102298106D01*
X123578257Y-102078183D01*
X123623966Y-102062249D01*
X123656318Y-102051415D01*
X123673915Y-102046362D01*
X123674423Y-102046314D01*
X123676188Y-102060048D01*
X123678129Y-102098130D01*
X123680082Y-102155882D01*
X123681884Y-102228627D01*
X123683143Y-102296686D01*
X123687114Y-102547057D01*
X123774200Y-102547057D01*
X123778196Y-102318640D01*
X123782192Y-102090222D01*
X123824647Y-102068268D01*
X123855992Y-102053193D01*
X123874544Y-102046351D01*
X123875079Y-102046314D01*
X123877633Y-102060063D01*
X123877633Y-102060063D01*
G37*
X123877633Y-102060063D02*
X123879848Y-102098250D01*
X123881584Y-102156286D01*
X123882699Y-102229580D01*
X123883057Y-102306455D01*
X123883057Y-102566596D01*
X123837126Y-102612527D01*
X123805475Y-102640829D01*
X123777690Y-102652293D01*
X123739715Y-102651568D01*
X123724640Y-102649721D01*
X123677526Y-102644348D01*
X123638556Y-102641269D01*
X123629057Y-102640985D01*
X123597033Y-102642845D01*
X123551232Y-102647514D01*
X123533474Y-102649721D01*
X123489857Y-102653135D01*
X123460545Y-102645720D01*
X123431480Y-102622827D01*
X123420988Y-102612527D01*
X123375057Y-102566596D01*
X123375057Y-102080002D01*
X123412026Y-102063158D01*
X123443859Y-102050682D01*
X123462483Y-102046314D01*
X123467258Y-102060118D01*
X123471721Y-102098686D01*
X123475575Y-102157756D01*
X123478522Y-102233063D01*
X123479943Y-102296686D01*
X123483914Y-102547057D01*
X123518559Y-102551956D01*
X123550068Y-102548531D01*
X123565508Y-102537441D01*
X123569823Y-102516708D01*
X123573508Y-102472545D01*
X123576269Y-102410546D01*
X123577812Y-102336309D01*
X123578035Y-102298106D01*
X123578257Y-102078183D01*
X123623966Y-102062249D01*
X123656318Y-102051415D01*
X123673915Y-102046362D01*
X123674423Y-102046314D01*
X123676188Y-102060048D01*
X123678129Y-102098130D01*
X123680082Y-102155882D01*
X123681884Y-102228627D01*
X123683143Y-102296686D01*
X123687114Y-102547057D01*
X123774200Y-102547057D01*
X123778196Y-102318640D01*
X123782192Y-102090222D01*
X123824647Y-102068268D01*
X123855992Y-102053193D01*
X123874544Y-102046351D01*
X123875079Y-102046314D01*
X123877633Y-102060063D01*
G36*
X124242676Y-102057735D02*
G01*
X124284467Y-102076744D01*
X124317269Y-102099778D01*
X124341303Y-102125533D01*
X124357897Y-102158758D01*
X124368377Y-102204200D01*
X124374071Y-102266607D01*
X124376307Y-102350727D01*
X124376543Y-102406121D01*
X124376543Y-102622226D01*
X124339574Y-102639070D01*
X124310456Y-102651381D01*
X124296031Y-102655914D01*
X124293272Y-102642425D01*
X124291082Y-102606053D01*
X124289742Y-102552942D01*
X124289457Y-102510772D01*
X124288234Y-102449847D01*
X124284936Y-102401515D01*
X124280121Y-102371918D01*
X124276296Y-102365629D01*
X124250583Y-102372052D01*
X124210218Y-102388525D01*
X124163479Y-102410858D01*
X124118645Y-102434857D01*
X124083993Y-102456330D01*
X124067802Y-102471085D01*
X124067738Y-102471245D01*
X124069130Y-102498552D01*
X124081618Y-102524619D01*
X124103543Y-102545792D01*
X124135543Y-102552874D01*
X124162892Y-102552049D01*
X124201626Y-102551442D01*
X124221958Y-102560516D01*
X124234169Y-102584492D01*
X124235709Y-102589013D01*
X124241003Y-102623206D01*
X124226847Y-102643968D01*
X124189948Y-102653862D01*
X124150089Y-102655692D01*
X124078362Y-102642127D01*
X124041232Y-102622755D01*
X123995376Y-102577245D01*
X123971056Y-102521383D01*
X123968873Y-102462357D01*
X123989429Y-102407353D01*
X124020349Y-102372886D01*
X124051220Y-102353589D01*
X124099742Y-102329159D01*
X124156285Y-102304385D01*
X124165710Y-102300599D01*
X124227819Y-102273191D01*
X124263622Y-102249034D01*
X124275137Y-102225019D01*
X124264380Y-102198035D01*
X124245914Y-102176943D01*
X124202269Y-102150972D01*
X124154246Y-102149024D01*
X124110206Y-102169037D01*
X124078509Y-102208951D01*
X124074349Y-102219248D01*
X124050127Y-102257124D01*
X124014765Y-102285242D01*
X123970143Y-102308317D01*
X123970143Y-102242885D01*
X123972769Y-102202906D01*
X123984030Y-102171397D01*
X124008999Y-102137778D01*
X124032969Y-102111884D01*
X124070241Y-102075217D01*
X124099201Y-102055521D01*
X124130305Y-102047620D01*
X124165513Y-102046314D01*
X124242676Y-102057735D01*
X124242676Y-102057735D01*
G37*
X124242676Y-102057735D02*
X124284467Y-102076744D01*
X124317269Y-102099778D01*
X124341303Y-102125533D01*
X124357897Y-102158758D01*
X124368377Y-102204200D01*
X124374071Y-102266607D01*
X124376307Y-102350727D01*
X124376543Y-102406121D01*
X124376543Y-102622226D01*
X124339574Y-102639070D01*
X124310456Y-102651381D01*
X124296031Y-102655914D01*
X124293272Y-102642425D01*
X124291082Y-102606053D01*
X124289742Y-102552942D01*
X124289457Y-102510772D01*
X124288234Y-102449847D01*
X124284936Y-102401515D01*
X124280121Y-102371918D01*
X124276296Y-102365629D01*
X124250583Y-102372052D01*
X124210218Y-102388525D01*
X124163479Y-102410858D01*
X124118645Y-102434857D01*
X124083993Y-102456330D01*
X124067802Y-102471085D01*
X124067738Y-102471245D01*
X124069130Y-102498552D01*
X124081618Y-102524619D01*
X124103543Y-102545792D01*
X124135543Y-102552874D01*
X124162892Y-102552049D01*
X124201626Y-102551442D01*
X124221958Y-102560516D01*
X124234169Y-102584492D01*
X124235709Y-102589013D01*
X124241003Y-102623206D01*
X124226847Y-102643968D01*
X124189948Y-102653862D01*
X124150089Y-102655692D01*
X124078362Y-102642127D01*
X124041232Y-102622755D01*
X123995376Y-102577245D01*
X123971056Y-102521383D01*
X123968873Y-102462357D01*
X123989429Y-102407353D01*
X124020349Y-102372886D01*
X124051220Y-102353589D01*
X124099742Y-102329159D01*
X124156285Y-102304385D01*
X124165710Y-102300599D01*
X124227819Y-102273191D01*
X124263622Y-102249034D01*
X124275137Y-102225019D01*
X124264380Y-102198035D01*
X124245914Y-102176943D01*
X124202269Y-102150972D01*
X124154246Y-102149024D01*
X124110206Y-102169037D01*
X124078509Y-102208951D01*
X124074349Y-102219248D01*
X124050127Y-102257124D01*
X124014765Y-102285242D01*
X123970143Y-102308317D01*
X123970143Y-102242885D01*
X123972769Y-102202906D01*
X123984030Y-102171397D01*
X124008999Y-102137778D01*
X124032969Y-102111884D01*
X124070241Y-102075217D01*
X124099201Y-102055521D01*
X124130305Y-102047620D01*
X124165513Y-102046314D01*
X124242676Y-102057735D01*
G36*
X124750400Y-102060152D02*
G01*
X124767748Y-102067734D01*
X124809156Y-102100528D01*
X124844565Y-102147947D01*
X124866464Y-102198551D01*
X124870029Y-102223498D01*
X124858079Y-102258327D01*
X124831867Y-102276757D01*
X124803764Y-102287916D01*
X124790895Y-102289972D01*
X124784629Y-102275049D01*
X124772256Y-102242575D01*
X124766828Y-102227902D01*
X124736390Y-102177144D01*
X124692320Y-102151827D01*
X124635810Y-102152606D01*
X124631625Y-102153603D01*
X124601455Y-102167907D01*
X124579276Y-102195793D01*
X124564127Y-102240687D01*
X124555050Y-102306015D01*
X124551086Y-102395204D01*
X124550714Y-102442661D01*
X124550530Y-102517471D01*
X124549322Y-102568469D01*
X124546109Y-102600871D01*
X124539909Y-102619895D01*
X124529740Y-102630756D01*
X124514619Y-102638672D01*
X124513746Y-102639070D01*
X124484628Y-102651381D01*
X124470203Y-102655914D01*
X124467986Y-102642209D01*
X124466089Y-102604325D01*
X124464647Y-102547115D01*
X124463798Y-102475427D01*
X124463629Y-102422965D01*
X124464492Y-102321447D01*
X124467870Y-102244432D01*
X124474942Y-102187423D01*
X124486888Y-102145926D01*
X124504890Y-102115443D01*
X124530127Y-102091480D01*
X124555047Y-102074755D01*
X124614971Y-102052497D01*
X124684711Y-102047476D01*
X124750400Y-102060152D01*
X124750400Y-102060152D01*
G37*
X124750400Y-102060152D02*
X124767748Y-102067734D01*
X124809156Y-102100528D01*
X124844565Y-102147947D01*
X124866464Y-102198551D01*
X124870029Y-102223498D01*
X124858079Y-102258327D01*
X124831867Y-102276757D01*
X124803764Y-102287916D01*
X124790895Y-102289972D01*
X124784629Y-102275049D01*
X124772256Y-102242575D01*
X124766828Y-102227902D01*
X124736390Y-102177144D01*
X124692320Y-102151827D01*
X124635810Y-102152606D01*
X124631625Y-102153603D01*
X124601455Y-102167907D01*
X124579276Y-102195793D01*
X124564127Y-102240687D01*
X124555050Y-102306015D01*
X124551086Y-102395204D01*
X124550714Y-102442661D01*
X124550530Y-102517471D01*
X124549322Y-102568469D01*
X124546109Y-102600871D01*
X124539909Y-102619895D01*
X124529740Y-102630756D01*
X124514619Y-102638672D01*
X124513746Y-102639070D01*
X124484628Y-102651381D01*
X124470203Y-102655914D01*
X124467986Y-102642209D01*
X124466089Y-102604325D01*
X124464647Y-102547115D01*
X124463798Y-102475427D01*
X124463629Y-102422965D01*
X124464492Y-102321447D01*
X124467870Y-102244432D01*
X124474942Y-102187423D01*
X124486888Y-102145926D01*
X124504890Y-102115443D01*
X124530127Y-102091480D01*
X124555047Y-102074755D01*
X124614971Y-102052497D01*
X124684711Y-102047476D01*
X124750400Y-102060152D01*
G36*
X125251395Y-102068366D02*
G01*
X125308821Y-102105897D01*
X125336519Y-102139496D01*
X125358462Y-102200464D01*
X125360205Y-102248708D01*
X125356257Y-102313216D01*
X125207486Y-102378334D01*
X125135149Y-102411602D01*
X125087884Y-102438364D01*
X125063307Y-102461544D01*
X125059037Y-102484067D01*
X125072689Y-102508855D01*
X125087743Y-102525286D01*
X125131546Y-102551635D01*
X125179189Y-102553481D01*
X125222945Y-102532946D01*
X125255089Y-102492152D01*
X125260838Y-102477747D01*
X125288376Y-102432756D01*
X125320058Y-102413582D01*
X125363514Y-102397179D01*
X125363514Y-102459366D01*
X125359672Y-102501683D01*
X125344623Y-102537369D01*
X125313080Y-102578343D01*
X125308392Y-102583667D01*
X125273306Y-102620120D01*
X125243147Y-102639683D01*
X125205415Y-102648683D01*
X125174135Y-102651630D01*
X125118185Y-102652365D01*
X125078355Y-102643060D01*
X125053508Y-102629246D01*
X125014456Y-102598867D01*
X124987425Y-102566013D01*
X124970317Y-102524694D01*
X124961038Y-102468921D01*
X124957493Y-102392705D01*
X124957210Y-102354022D01*
X124958172Y-102307647D01*
X125045807Y-102307647D01*
X125046823Y-102332526D01*
X125049356Y-102336600D01*
X125066074Y-102331065D01*
X125102049Y-102316417D01*
X125150131Y-102295590D01*
X125160186Y-102291114D01*
X125220952Y-102260214D01*
X125254432Y-102233057D01*
X125261790Y-102207620D01*
X125244191Y-102181881D01*
X125229656Y-102170509D01*
X125177210Y-102147764D01*
X125128122Y-102151522D01*
X125087027Y-102179284D01*
X125058558Y-102228552D01*
X125049431Y-102267657D01*
X125045807Y-102307647D01*
X124958172Y-102307647D01*
X124959085Y-102263649D01*
X124965996Y-102196784D01*
X124979684Y-102148095D01*
X125001896Y-102112249D01*
X125034374Y-102083913D01*
X125048533Y-102074755D01*
X125112853Y-102050907D01*
X125183273Y-102049406D01*
X125251395Y-102068366D01*
X125251395Y-102068366D01*
G37*
X125251395Y-102068366D02*
X125308821Y-102105897D01*
X125336519Y-102139496D01*
X125358462Y-102200464D01*
X125360205Y-102248708D01*
X125356257Y-102313216D01*
X125207486Y-102378334D01*
X125135149Y-102411602D01*
X125087884Y-102438364D01*
X125063307Y-102461544D01*
X125059037Y-102484067D01*
X125072689Y-102508855D01*
X125087743Y-102525286D01*
X125131546Y-102551635D01*
X125179189Y-102553481D01*
X125222945Y-102532946D01*
X125255089Y-102492152D01*
X125260838Y-102477747D01*
X125288376Y-102432756D01*
X125320058Y-102413582D01*
X125363514Y-102397179D01*
X125363514Y-102459366D01*
X125359672Y-102501683D01*
X125344623Y-102537369D01*
X125313080Y-102578343D01*
X125308392Y-102583667D01*
X125273306Y-102620120D01*
X125243147Y-102639683D01*
X125205415Y-102648683D01*
X125174135Y-102651630D01*
X125118185Y-102652365D01*
X125078355Y-102643060D01*
X125053508Y-102629246D01*
X125014456Y-102598867D01*
X124987425Y-102566013D01*
X124970317Y-102524694D01*
X124961038Y-102468921D01*
X124957493Y-102392705D01*
X124957210Y-102354022D01*
X124958172Y-102307647D01*
X125045807Y-102307647D01*
X125046823Y-102332526D01*
X125049356Y-102336600D01*
X125066074Y-102331065D01*
X125102049Y-102316417D01*
X125150131Y-102295590D01*
X125160186Y-102291114D01*
X125220952Y-102260214D01*
X125254432Y-102233057D01*
X125261790Y-102207620D01*
X125244191Y-102181881D01*
X125229656Y-102170509D01*
X125177210Y-102147764D01*
X125128122Y-102151522D01*
X125087027Y-102179284D01*
X125058558Y-102228552D01*
X125049431Y-102267657D01*
X125045807Y-102307647D01*
X124958172Y-102307647D01*
X124959085Y-102263649D01*
X124965996Y-102196784D01*
X124979684Y-102148095D01*
X125001896Y-102112249D01*
X125034374Y-102083913D01*
X125048533Y-102074755D01*
X125112853Y-102050907D01*
X125183273Y-102049406D01*
X125251395Y-102068366D01*
G36*
X122201710Y-97343748D02*
G01*
X122280254Y-97344178D01*
X122337098Y-97345342D01*
X122375905Y-97347607D01*
X122400338Y-97351340D01*
X122414062Y-97356906D01*
X122420740Y-97364673D01*
X122424036Y-97375005D01*
X122424356Y-97376343D01*
X122429362Y-97400479D01*
X122438629Y-97448101D01*
X122451192Y-97514141D01*
X122466087Y-97593528D01*
X122482351Y-97681196D01*
X122482919Y-97684275D01*
X122499210Y-97770189D01*
X122514452Y-97846096D01*
X122527661Y-97907445D01*
X122537854Y-97949682D01*
X122544048Y-97968255D01*
X122544343Y-97968584D01*
X122562588Y-97977653D01*
X122600205Y-97992767D01*
X122649071Y-98010662D01*
X122649343Y-98010758D01*
X122710893Y-98033893D01*
X122783457Y-98063365D01*
X122851857Y-98092997D01*
X122855094Y-98094462D01*
X122966502Y-98145026D01*
X123213199Y-97976560D01*
X123288877Y-97925203D01*
X123357431Y-97879289D01*
X123414888Y-97841430D01*
X123457276Y-97814237D01*
X123480625Y-97800321D01*
X123482842Y-97799289D01*
X123499810Y-97803884D01*
X123531501Y-97826055D01*
X123579152Y-97866847D01*
X123643998Y-97927305D01*
X123710197Y-97991627D01*
X123774014Y-98055012D01*
X123831129Y-98112851D01*
X123878105Y-98161575D01*
X123911503Y-98197610D01*
X123927885Y-98217384D01*
X123928494Y-98218402D01*
X123930305Y-98231972D01*
X123923483Y-98254133D01*
X123906340Y-98287878D01*
X123877193Y-98336200D01*
X123834355Y-98402092D01*
X123777248Y-98486917D01*
X123726566Y-98561577D01*
X123681261Y-98628540D01*
X123643950Y-98683916D01*
X123617252Y-98723820D01*
X123603785Y-98744362D01*
X123602937Y-98745756D01*
X123604581Y-98765438D01*
X123617045Y-98803693D01*
X123637848Y-98853289D01*
X123645262Y-98869128D01*
X123677614Y-98939690D01*
X123712128Y-99019753D01*
X123740165Y-99089029D01*
X123760368Y-99140445D01*
X123776415Y-99179519D01*
X123785688Y-99199941D01*
X123786841Y-99201514D01*
X123803896Y-99204121D01*
X123844098Y-99211263D01*
X123902102Y-99221923D01*
X123972563Y-99235085D01*
X124050135Y-99249733D01*
X124129472Y-99264849D01*
X124205231Y-99279418D01*
X124272064Y-99292422D01*
X124324628Y-99302845D01*
X124357576Y-99309670D01*
X124365657Y-99311599D01*
X124374005Y-99316362D01*
X124380306Y-99327118D01*
X124384845Y-99347498D01*
X124387904Y-99381134D01*
X124389767Y-99431655D01*
X124390718Y-99502692D01*
X124391040Y-99597876D01*
X124391057Y-99636892D01*
X124391057Y-99954199D01*
X124314857Y-99969239D01*
X124272463Y-99977395D01*
X124209200Y-99989299D01*
X124132762Y-100003516D01*
X124050843Y-100018610D01*
X124028200Y-100022755D01*
X123952606Y-100037453D01*
X123886753Y-100051905D01*
X123836166Y-100064775D01*
X123806374Y-100074722D01*
X123801412Y-100077687D01*
X123789226Y-100098683D01*
X123771753Y-100139367D01*
X123752377Y-100191722D01*
X123748534Y-100203000D01*
X123723139Y-100272923D01*
X123691617Y-100351818D01*
X123660769Y-100422666D01*
X123660617Y-100422995D01*
X123609247Y-100534133D01*
X123778199Y-100782653D01*
X123947152Y-101031172D01*
X123730229Y-101248458D01*
X123664619Y-101313126D01*
X123604779Y-101370133D01*
X123554067Y-101416433D01*
X123515846Y-101448984D01*
X123493475Y-101464743D01*
X123490266Y-101465743D01*
X123471426Y-101457869D01*
X123432980Y-101435978D01*
X123379130Y-101402667D01*
X123314076Y-101360531D01*
X123243740Y-101313343D01*
X123172355Y-101265210D01*
X123108708Y-101223328D01*
X123056841Y-101190271D01*
X123020795Y-101168618D01*
X123004667Y-101160943D01*
X122984989Y-101167437D01*
X122947675Y-101184550D01*
X122900421Y-101208726D01*
X122895412Y-101211413D01*
X122831777Y-101243327D01*
X122788141Y-101258979D01*
X122761002Y-101259145D01*
X122746857Y-101244604D01*
X122746775Y-101244400D01*
X122739705Y-101227179D01*
X122722842Y-101186299D01*
X122697495Y-101124925D01*
X122664971Y-101046219D01*
X122626578Y-100953347D01*
X122583622Y-100849472D01*
X122542022Y-100748902D01*
X122496304Y-100637916D01*
X122454326Y-100535103D01*
X122417348Y-100443615D01*
X122386627Y-100366601D01*
X122363422Y-100307215D01*
X122348990Y-100268609D01*
X122344543Y-100254200D01*
X122355696Y-100237672D01*
X122384869Y-100211330D01*
X122423771Y-100182287D01*
X122534557Y-100090439D01*
X122621151Y-99985159D01*
X122682516Y-99868666D01*
X122717615Y-99743176D01*
X122725408Y-99610907D01*
X122719743Y-99549857D01*
X122688878Y-99423195D01*
X122635720Y-99311341D01*
X122563567Y-99215401D01*
X122475717Y-99136476D01*
X122375465Y-99075670D01*
X122266110Y-99034087D01*
X122150947Y-99012828D01*
X122033275Y-99012999D01*
X121916390Y-99035701D01*
X121803589Y-99082038D01*
X121698169Y-99153113D01*
X121654168Y-99193311D01*
X121569779Y-99296529D01*
X121511022Y-99409325D01*
X121477504Y-99528410D01*
X121468835Y-99650495D01*
X121484623Y-99772293D01*
X121524478Y-99890516D01*
X121588007Y-100001875D01*
X121674821Y-100103084D01*
X121771829Y-100182287D01*
X121812237Y-100212562D01*
X121840782Y-100238619D01*
X121851057Y-100254225D01*
X121845677Y-100271243D01*
X121830375Y-100311900D01*
X121806412Y-100373042D01*
X121775044Y-100451519D01*
X121737532Y-100544180D01*
X121695133Y-100647872D01*
X121653463Y-100748926D01*
X121607490Y-100860007D01*
X121564907Y-100962941D01*
X121527021Y-101054565D01*
X121495140Y-101131716D01*
X121470571Y-101191231D01*
X121454620Y-101229944D01*
X121448710Y-101244400D01*
X121434748Y-101259085D01*
X121407740Y-101259042D01*
X121364213Y-101243499D01*
X121300690Y-101211684D01*
X121300188Y-101211413D01*
X121252360Y-101186723D01*
X121213697Y-101168738D01*
X121191895Y-101161014D01*
X121190933Y-101160943D01*
X121174521Y-101168778D01*
X121138287Y-101190565D01*
X121086274Y-101223728D01*
X121022525Y-101265691D01*
X120951860Y-101313343D01*
X120879916Y-101361591D01*
X120815074Y-101403551D01*
X120761535Y-101436627D01*
X120723497Y-101458221D01*
X120705333Y-101465743D01*
X120688608Y-101455857D01*
X120654980Y-101428226D01*
X120607810Y-101385895D01*
X120550458Y-101331905D01*
X120486284Y-101269299D01*
X120465297Y-101248383D01*
X120248299Y-101031023D01*
X120413468Y-100788620D01*
X120463664Y-100714181D01*
X120507719Y-100647372D01*
X120543162Y-100592065D01*
X120567519Y-100552129D01*
X120578322Y-100531436D01*
X120578638Y-100529963D01*
X120572943Y-100510458D01*
X120557626Y-100471222D01*
X120535337Y-100418830D01*
X120519693Y-100383755D01*
X120490441Y-100316601D01*
X120462894Y-100248758D01*
X120441537Y-100191434D01*
X120435735Y-100173972D01*
X120419252Y-100127338D01*
X120403140Y-100091305D01*
X120394290Y-100077687D01*
X120374760Y-100069352D01*
X120332134Y-100057537D01*
X120271945Y-100043581D01*
X120199722Y-100028822D01*
X120167400Y-100022755D01*
X120085322Y-100007673D01*
X120006595Y-99993069D01*
X119938909Y-99980380D01*
X119889960Y-99971042D01*
X119880743Y-99969239D01*
X119804543Y-99954199D01*
X119804543Y-99636892D01*
X119804714Y-99532554D01*
X119805416Y-99453613D01*
X119806934Y-99396438D01*
X119809549Y-99357399D01*
X119813546Y-99332865D01*
X119819209Y-99319205D01*
X119826820Y-99312789D01*
X119829943Y-99311599D01*
X119848778Y-99307380D01*
X119890388Y-99298962D01*
X119949430Y-99287361D01*
X120020557Y-99273595D01*
X120098425Y-99258680D01*
X120177687Y-99243632D01*
X120252998Y-99229469D01*
X120319013Y-99217206D01*
X120370387Y-99207861D01*
X120401775Y-99202450D01*
X120408759Y-99201514D01*
X120415085Y-99188996D01*
X120429090Y-99155646D01*
X120448155Y-99107777D01*
X120455434Y-99089029D01*
X120484796Y-99016595D01*
X120519371Y-98936570D01*
X120550337Y-98869128D01*
X120573123Y-98817559D01*
X120588282Y-98775185D01*
X120593342Y-98749234D01*
X120592536Y-98745756D01*
X120581841Y-98729336D01*
X120557420Y-98692817D01*
X120521895Y-98640087D01*
X120477887Y-98575035D01*
X120428017Y-98501551D01*
X120418156Y-98487045D01*
X120360292Y-98401104D01*
X120317756Y-98335661D01*
X120288854Y-98287704D01*
X120271890Y-98254220D01*
X120265167Y-98232195D01*
X120266990Y-98218617D01*
X120267036Y-98218531D01*
X120281386Y-98200697D01*
X120313123Y-98166217D01*
X120358810Y-98118668D01*
X120415004Y-98061622D01*
X120478268Y-97998655D01*
X120485402Y-97991627D01*
X120565130Y-97914420D01*
X120626657Y-97857730D01*
X120671221Y-97820510D01*
X120700057Y-97801715D01*
X120712758Y-97799289D01*
X120731294Y-97809871D01*
X120769761Y-97834316D01*
X120824186Y-97870012D01*
X120890598Y-97914347D01*
X120965025Y-97964711D01*
X120982401Y-97976560D01*
X121229097Y-98145026D01*
X121340506Y-98094462D01*
X121408257Y-98064995D01*
X121480983Y-98035359D01*
X121543503Y-98011730D01*
X121546257Y-98010758D01*
X121595160Y-97992857D01*
X121632857Y-97977720D01*
X121651225Y-97968610D01*
X121651256Y-97968584D01*
X121657085Y-97952117D01*
X121666992Y-97911619D01*
X121679995Y-97851642D01*
X121695109Y-97776740D01*
X121711352Y-97691464D01*
X121712681Y-97684275D01*
X121728975Y-97596414D01*
X121743933Y-97516660D01*
X121756591Y-97450081D01*
X121765986Y-97401747D01*
X121771154Y-97376725D01*
X121771244Y-97376343D01*
X121774389Y-97365699D01*
X121780504Y-97357662D01*
X121793253Y-97351867D01*
X121816300Y-97347947D01*
X121853309Y-97345535D01*
X121907944Y-97344265D01*
X121983867Y-97343771D01*
X122084744Y-97343686D01*
X122097800Y-97343686D01*
X122201710Y-97343748D01*
X122201710Y-97343748D01*
G37*
X122201710Y-97343748D02*
X122280254Y-97344178D01*
X122337098Y-97345342D01*
X122375905Y-97347607D01*
X122400338Y-97351340D01*
X122414062Y-97356906D01*
X122420740Y-97364673D01*
X122424036Y-97375005D01*
X122424356Y-97376343D01*
X122429362Y-97400479D01*
X122438629Y-97448101D01*
X122451192Y-97514141D01*
X122466087Y-97593528D01*
X122482351Y-97681196D01*
X122482919Y-97684275D01*
X122499210Y-97770189D01*
X122514452Y-97846096D01*
X122527661Y-97907445D01*
X122537854Y-97949682D01*
X122544048Y-97968255D01*
X122544343Y-97968584D01*
X122562588Y-97977653D01*
X122600205Y-97992767D01*
X122649071Y-98010662D01*
X122649343Y-98010758D01*
X122710893Y-98033893D01*
X122783457Y-98063365D01*
X122851857Y-98092997D01*
X122855094Y-98094462D01*
X122966502Y-98145026D01*
X123213199Y-97976560D01*
X123288877Y-97925203D01*
X123357431Y-97879289D01*
X123414888Y-97841430D01*
X123457276Y-97814237D01*
X123480625Y-97800321D01*
X123482842Y-97799289D01*
X123499810Y-97803884D01*
X123531501Y-97826055D01*
X123579152Y-97866847D01*
X123643998Y-97927305D01*
X123710197Y-97991627D01*
X123774014Y-98055012D01*
X123831129Y-98112851D01*
X123878105Y-98161575D01*
X123911503Y-98197610D01*
X123927885Y-98217384D01*
X123928494Y-98218402D01*
X123930305Y-98231972D01*
X123923483Y-98254133D01*
X123906340Y-98287878D01*
X123877193Y-98336200D01*
X123834355Y-98402092D01*
X123777248Y-98486917D01*
X123726566Y-98561577D01*
X123681261Y-98628540D01*
X123643950Y-98683916D01*
X123617252Y-98723820D01*
X123603785Y-98744362D01*
X123602937Y-98745756D01*
X123604581Y-98765438D01*
X123617045Y-98803693D01*
X123637848Y-98853289D01*
X123645262Y-98869128D01*
X123677614Y-98939690D01*
X123712128Y-99019753D01*
X123740165Y-99089029D01*
X123760368Y-99140445D01*
X123776415Y-99179519D01*
X123785688Y-99199941D01*
X123786841Y-99201514D01*
X123803896Y-99204121D01*
X123844098Y-99211263D01*
X123902102Y-99221923D01*
X123972563Y-99235085D01*
X124050135Y-99249733D01*
X124129472Y-99264849D01*
X124205231Y-99279418D01*
X124272064Y-99292422D01*
X124324628Y-99302845D01*
X124357576Y-99309670D01*
X124365657Y-99311599D01*
X124374005Y-99316362D01*
X124380306Y-99327118D01*
X124384845Y-99347498D01*
X124387904Y-99381134D01*
X124389767Y-99431655D01*
X124390718Y-99502692D01*
X124391040Y-99597876D01*
X124391057Y-99636892D01*
X124391057Y-99954199D01*
X124314857Y-99969239D01*
X124272463Y-99977395D01*
X124209200Y-99989299D01*
X124132762Y-100003516D01*
X124050843Y-100018610D01*
X124028200Y-100022755D01*
X123952606Y-100037453D01*
X123886753Y-100051905D01*
X123836166Y-100064775D01*
X123806374Y-100074722D01*
X123801412Y-100077687D01*
X123789226Y-100098683D01*
X123771753Y-100139367D01*
X123752377Y-100191722D01*
X123748534Y-100203000D01*
X123723139Y-100272923D01*
X123691617Y-100351818D01*
X123660769Y-100422666D01*
X123660617Y-100422995D01*
X123609247Y-100534133D01*
X123778199Y-100782653D01*
X123947152Y-101031172D01*
X123730229Y-101248458D01*
X123664619Y-101313126D01*
X123604779Y-101370133D01*
X123554067Y-101416433D01*
X123515846Y-101448984D01*
X123493475Y-101464743D01*
X123490266Y-101465743D01*
X123471426Y-101457869D01*
X123432980Y-101435978D01*
X123379130Y-101402667D01*
X123314076Y-101360531D01*
X123243740Y-101313343D01*
X123172355Y-101265210D01*
X123108708Y-101223328D01*
X123056841Y-101190271D01*
X123020795Y-101168618D01*
X123004667Y-101160943D01*
X122984989Y-101167437D01*
X122947675Y-101184550D01*
X122900421Y-101208726D01*
X122895412Y-101211413D01*
X122831777Y-101243327D01*
X122788141Y-101258979D01*
X122761002Y-101259145D01*
X122746857Y-101244604D01*
X122746775Y-101244400D01*
X122739705Y-101227179D01*
X122722842Y-101186299D01*
X122697495Y-101124925D01*
X122664971Y-101046219D01*
X122626578Y-100953347D01*
X122583622Y-100849472D01*
X122542022Y-100748902D01*
X122496304Y-100637916D01*
X122454326Y-100535103D01*
X122417348Y-100443615D01*
X122386627Y-100366601D01*
X122363422Y-100307215D01*
X122348990Y-100268609D01*
X122344543Y-100254200D01*
X122355696Y-100237672D01*
X122384869Y-100211330D01*
X122423771Y-100182287D01*
X122534557Y-100090439D01*
X122621151Y-99985159D01*
X122682516Y-99868666D01*
X122717615Y-99743176D01*
X122725408Y-99610907D01*
X122719743Y-99549857D01*
X122688878Y-99423195D01*
X122635720Y-99311341D01*
X122563567Y-99215401D01*
X122475717Y-99136476D01*
X122375465Y-99075670D01*
X122266110Y-99034087D01*
X122150947Y-99012828D01*
X122033275Y-99012999D01*
X121916390Y-99035701D01*
X121803589Y-99082038D01*
X121698169Y-99153113D01*
X121654168Y-99193311D01*
X121569779Y-99296529D01*
X121511022Y-99409325D01*
X121477504Y-99528410D01*
X121468835Y-99650495D01*
X121484623Y-99772293D01*
X121524478Y-99890516D01*
X121588007Y-100001875D01*
X121674821Y-100103084D01*
X121771829Y-100182287D01*
X121812237Y-100212562D01*
X121840782Y-100238619D01*
X121851057Y-100254225D01*
X121845677Y-100271243D01*
X121830375Y-100311900D01*
X121806412Y-100373042D01*
X121775044Y-100451519D01*
X121737532Y-100544180D01*
X121695133Y-100647872D01*
X121653463Y-100748926D01*
X121607490Y-100860007D01*
X121564907Y-100962941D01*
X121527021Y-101054565D01*
X121495140Y-101131716D01*
X121470571Y-101191231D01*
X121454620Y-101229944D01*
X121448710Y-101244400D01*
X121434748Y-101259085D01*
X121407740Y-101259042D01*
X121364213Y-101243499D01*
X121300690Y-101211684D01*
X121300188Y-101211413D01*
X121252360Y-101186723D01*
X121213697Y-101168738D01*
X121191895Y-101161014D01*
X121190933Y-101160943D01*
X121174521Y-101168778D01*
X121138287Y-101190565D01*
X121086274Y-101223728D01*
X121022525Y-101265691D01*
X120951860Y-101313343D01*
X120879916Y-101361591D01*
X120815074Y-101403551D01*
X120761535Y-101436627D01*
X120723497Y-101458221D01*
X120705333Y-101465743D01*
X120688608Y-101455857D01*
X120654980Y-101428226D01*
X120607810Y-101385895D01*
X120550458Y-101331905D01*
X120486284Y-101269299D01*
X120465297Y-101248383D01*
X120248299Y-101031023D01*
X120413468Y-100788620D01*
X120463664Y-100714181D01*
X120507719Y-100647372D01*
X120543162Y-100592065D01*
X120567519Y-100552129D01*
X120578322Y-100531436D01*
X120578638Y-100529963D01*
X120572943Y-100510458D01*
X120557626Y-100471222D01*
X120535337Y-100418830D01*
X120519693Y-100383755D01*
X120490441Y-100316601D01*
X120462894Y-100248758D01*
X120441537Y-100191434D01*
X120435735Y-100173972D01*
X120419252Y-100127338D01*
X120403140Y-100091305D01*
X120394290Y-100077687D01*
X120374760Y-100069352D01*
X120332134Y-100057537D01*
X120271945Y-100043581D01*
X120199722Y-100028822D01*
X120167400Y-100022755D01*
X120085322Y-100007673D01*
X120006595Y-99993069D01*
X119938909Y-99980380D01*
X119889960Y-99971042D01*
X119880743Y-99969239D01*
X119804543Y-99954199D01*
X119804543Y-99636892D01*
X119804714Y-99532554D01*
X119805416Y-99453613D01*
X119806934Y-99396438D01*
X119809549Y-99357399D01*
X119813546Y-99332865D01*
X119819209Y-99319205D01*
X119826820Y-99312789D01*
X119829943Y-99311599D01*
X119848778Y-99307380D01*
X119890388Y-99298962D01*
X119949430Y-99287361D01*
X120020557Y-99273595D01*
X120098425Y-99258680D01*
X120177687Y-99243632D01*
X120252998Y-99229469D01*
X120319013Y-99217206D01*
X120370387Y-99207861D01*
X120401775Y-99202450D01*
X120408759Y-99201514D01*
X120415085Y-99188996D01*
X120429090Y-99155646D01*
X120448155Y-99107777D01*
X120455434Y-99089029D01*
X120484796Y-99016595D01*
X120519371Y-98936570D01*
X120550337Y-98869128D01*
X120573123Y-98817559D01*
X120588282Y-98775185D01*
X120593342Y-98749234D01*
X120592536Y-98745756D01*
X120581841Y-98729336D01*
X120557420Y-98692817D01*
X120521895Y-98640087D01*
X120477887Y-98575035D01*
X120428017Y-98501551D01*
X120418156Y-98487045D01*
X120360292Y-98401104D01*
X120317756Y-98335661D01*
X120288854Y-98287704D01*
X120271890Y-98254220D01*
X120265167Y-98232195D01*
X120266990Y-98218617D01*
X120267036Y-98218531D01*
X120281386Y-98200697D01*
X120313123Y-98166217D01*
X120358810Y-98118668D01*
X120415004Y-98061622D01*
X120478268Y-97998655D01*
X120485402Y-97991627D01*
X120565130Y-97914420D01*
X120626657Y-97857730D01*
X120671221Y-97820510D01*
X120700057Y-97801715D01*
X120712758Y-97799289D01*
X120731294Y-97809871D01*
X120769761Y-97834316D01*
X120824186Y-97870012D01*
X120890598Y-97914347D01*
X120965025Y-97964711D01*
X120982401Y-97976560D01*
X121229097Y-98145026D01*
X121340506Y-98094462D01*
X121408257Y-98064995D01*
X121480983Y-98035359D01*
X121543503Y-98011730D01*
X121546257Y-98010758D01*
X121595160Y-97992857D01*
X121632857Y-97977720D01*
X121651225Y-97968610D01*
X121651256Y-97968584D01*
X121657085Y-97952117D01*
X121666992Y-97911619D01*
X121679995Y-97851642D01*
X121695109Y-97776740D01*
X121711352Y-97691464D01*
X121712681Y-97684275D01*
X121728975Y-97596414D01*
X121743933Y-97516660D01*
X121756591Y-97450081D01*
X121765986Y-97401747D01*
X121771154Y-97376725D01*
X121771244Y-97376343D01*
X121774389Y-97365699D01*
X121780504Y-97357662D01*
X121793253Y-97351867D01*
X121816300Y-97347947D01*
X121853309Y-97345535D01*
X121907944Y-97344265D01*
X121983867Y-97343771D01*
X122084744Y-97343686D01*
X122097800Y-97343686D01*
X122201710Y-97343748D01*
D12*
X155914396Y-87398872D02*
G75*
G03X155914396Y-87398872I-2286000J0D01*
G01*
X132014396Y-87398872D02*
G75*
G03X132014396Y-87398872I-2286000J0D01*
G01*
X163814397Y-117598872D02*
G75*
G03X163814397Y-117598872I-2286000J0D01*
G01*
X143974396Y-117598872D02*
G75*
G03X143974396Y-117598872I-2286000J0D01*
G01*
X133180800Y-104289000D02*
X140430800Y-104289000D01*
X140430800Y-104289000D02*
X140430800Y-100689000D01*
X140430800Y-100689000D02*
X133180800Y-100689000D01*
D13*
X164548396Y-123994873D02*
X119082396Y-123994873D01*
X164548396Y-130852873D02*
X164548396Y-123994873D01*
X118828396Y-130598873D02*
X164548396Y-130852873D01*
X118828396Y-123994873D02*
X118828396Y-130598873D01*
X119082396Y-123994873D02*
X118828396Y-123994873D01*
D12*
X154380000Y-82450148D02*
X154380000Y-82972652D01*
X152960000Y-82450148D02*
X152960000Y-82972652D01*
X150013600Y-83099652D02*
X150013600Y-82577148D01*
X151433600Y-83099652D02*
X151433600Y-82577148D01*
X144152252Y-96239400D02*
X143629748Y-96239400D01*
X144152252Y-94819400D02*
X143629748Y-94819400D01*
X141349800Y-97147748D02*
X141349800Y-97670252D01*
X139929800Y-97147748D02*
X139929800Y-97670252D01*
X144253852Y-100862200D02*
X143731348Y-100862200D01*
X144253852Y-99442200D02*
X143731348Y-99442200D01*
X148057800Y-106315251D02*
X148057800Y-105792747D01*
X149477800Y-106315251D02*
X149477800Y-105792747D01*
X159370200Y-121910600D02*
X159370200Y-123910600D01*
X159370200Y-123910600D02*
X163270200Y-123910600D01*
X159370200Y-121910600D02*
X163270200Y-121910600D01*
X142494000Y-104539200D02*
X139769000Y-104539200D01*
X139769000Y-104539200D02*
X139769000Y-104799200D01*
X142494000Y-104539200D02*
X145219000Y-104539200D01*
X145219000Y-104539200D02*
X145219000Y-104799200D01*
X142494000Y-109989200D02*
X139769000Y-109989200D01*
X139769000Y-109989200D02*
X139769000Y-109729200D01*
X142494000Y-109989200D02*
X145219000Y-109989200D01*
X145219000Y-109989200D02*
X145219000Y-109729200D01*
X145219000Y-109729200D02*
X146894000Y-109729200D01*
X159852796Y-94870872D02*
X157902796Y-94870872D01*
X159852796Y-94870872D02*
X161802796Y-94870872D01*
X159852796Y-103740872D02*
X157902796Y-103740872D01*
X159852796Y-103740872D02*
X163302796Y-103740872D01*
X124114396Y-117598872D02*
G75*
G03X124114396Y-117598872I-2286000J0D01*
G01*
D13*
X135404609Y-105265190D02*
X135404609Y-105741380D01*
X135071276Y-104741380D02*
X135404609Y-105265190D01*
X135737942Y-104741380D01*
X136595085Y-105741380D02*
X136023657Y-105741380D01*
X136309371Y-105741380D02*
X136309371Y-104741380D01*
X136214133Y-104884238D01*
X136118895Y-104979476D01*
X136023657Y-105027095D01*
X158000110Y-125368015D02*
X157952491Y-125415634D01*
X157809634Y-125463253D01*
X157714396Y-125463253D01*
X157571538Y-125415634D01*
X157476300Y-125320396D01*
X157428681Y-125225158D01*
X157381062Y-125034682D01*
X157381062Y-124891825D01*
X157428681Y-124701349D01*
X157476300Y-124606111D01*
X157571538Y-124510873D01*
X157714396Y-124463253D01*
X157809634Y-124463253D01*
X157952491Y-124510873D01*
X158000110Y-124558492D01*
X158619157Y-124463253D02*
X158809634Y-124463253D01*
X158904872Y-124510873D01*
X159000110Y-124606111D01*
X159047729Y-124796587D01*
X159047729Y-125129920D01*
X159000110Y-125320396D01*
X158904872Y-125415634D01*
X158809634Y-125463253D01*
X158619157Y-125463253D01*
X158523919Y-125415634D01*
X158428681Y-125320396D01*
X158381062Y-125129920D01*
X158381062Y-124796587D01*
X158428681Y-124606111D01*
X158523919Y-124510873D01*
X158619157Y-124463253D01*
X159476300Y-125463253D02*
X159476300Y-124463253D01*
X160047729Y-125463253D01*
X160047729Y-124463253D01*
X161047729Y-125463253D02*
X160476300Y-125463253D01*
X160762015Y-125463253D02*
X160762015Y-124463253D01*
X160666776Y-124606111D01*
X160571538Y-124701349D01*
X160476300Y-124748968D01*
X162992681Y-124558492D02*
X163040300Y-124510873D01*
X163135538Y-124463253D01*
X163373634Y-124463253D01*
X163468872Y-124510873D01*
X163516491Y-124558492D01*
X163564110Y-124653730D01*
X163564110Y-124748968D01*
X163516491Y-124891825D01*
X162945062Y-125463253D01*
X163564110Y-125463253D01*
X119288872Y-124463253D02*
X119907919Y-124463253D01*
X119574586Y-124844206D01*
X119717443Y-124844206D01*
X119812681Y-124891825D01*
X119860300Y-124939444D01*
X119907919Y-125034682D01*
X119907919Y-125272777D01*
X119860300Y-125368015D01*
X119812681Y-125415634D01*
X119717443Y-125463253D01*
X119431729Y-125463253D01*
X119336491Y-125415634D01*
X119288872Y-125368015D01*
X120765062Y-124463253D02*
X120574586Y-124463253D01*
X120479348Y-124510873D01*
X120431729Y-124558492D01*
X120336491Y-124701349D01*
X120288872Y-124891825D01*
X120288872Y-125272777D01*
X120336491Y-125368015D01*
X120384110Y-125415634D01*
X120479348Y-125463253D01*
X120669824Y-125463253D01*
X120765062Y-125415634D01*
X120812681Y-125368015D01*
X120860300Y-125272777D01*
X120860300Y-125034682D01*
X120812681Y-124939444D01*
X120765062Y-124891825D01*
X120669824Y-124844206D01*
X120479348Y-124844206D01*
X120384110Y-124891825D01*
X120336491Y-124939444D01*
X120288872Y-125034682D01*
X155408333Y-83205580D02*
X155075000Y-82729390D01*
X154836904Y-83205580D02*
X154836904Y-82205580D01*
X155217857Y-82205580D01*
X155313095Y-82253200D01*
X155360714Y-82300819D01*
X155408333Y-82396057D01*
X155408333Y-82538914D01*
X155360714Y-82634152D01*
X155313095Y-82681771D01*
X155217857Y-82729390D01*
X154836904Y-82729390D01*
X155789285Y-82300819D02*
X155836904Y-82253200D01*
X155932142Y-82205580D01*
X156170238Y-82205580D01*
X156265476Y-82253200D01*
X156313095Y-82300819D01*
X156360714Y-82396057D01*
X156360714Y-82491295D01*
X156313095Y-82634152D01*
X155741666Y-83205580D01*
X156360714Y-83205580D01*
X148575733Y-83281780D02*
X148242400Y-82805590D01*
X148004304Y-83281780D02*
X148004304Y-82281780D01*
X148385257Y-82281780D01*
X148480495Y-82329400D01*
X148528114Y-82377019D01*
X148575733Y-82472257D01*
X148575733Y-82615114D01*
X148528114Y-82710352D01*
X148480495Y-82757971D01*
X148385257Y-82805590D01*
X148004304Y-82805590D01*
X149528114Y-83281780D02*
X148956685Y-83281780D01*
X149242400Y-83281780D02*
X149242400Y-82281780D01*
X149147161Y-82424638D01*
X149051923Y-82519876D01*
X148956685Y-82567495D01*
X143248142Y-94260942D02*
X143200523Y-94308561D01*
X143057666Y-94356180D01*
X142962428Y-94356180D01*
X142819571Y-94308561D01*
X142724333Y-94213323D01*
X142676714Y-94118085D01*
X142629095Y-93927609D01*
X142629095Y-93784752D01*
X142676714Y-93594276D01*
X142724333Y-93499038D01*
X142819571Y-93403800D01*
X142962428Y-93356180D01*
X143057666Y-93356180D01*
X143200523Y-93403800D01*
X143248142Y-93451419D01*
X144200523Y-94356180D02*
X143629095Y-94356180D01*
X143914809Y-94356180D02*
X143914809Y-93356180D01*
X143819571Y-93499038D01*
X143724333Y-93594276D01*
X143629095Y-93641895D01*
X144581476Y-93451419D02*
X144629095Y-93403800D01*
X144724333Y-93356180D01*
X144962428Y-93356180D01*
X145057666Y-93403800D01*
X145105285Y-93451419D01*
X145152904Y-93546657D01*
X145152904Y-93641895D01*
X145105285Y-93784752D01*
X144533857Y-94356180D01*
X145152904Y-94356180D01*
X137634742Y-96927942D02*
X137587123Y-96975561D01*
X137444266Y-97023180D01*
X137349028Y-97023180D01*
X137206171Y-96975561D01*
X137110933Y-96880323D01*
X137063314Y-96785085D01*
X137015695Y-96594609D01*
X137015695Y-96451752D01*
X137063314Y-96261276D01*
X137110933Y-96166038D01*
X137206171Y-96070800D01*
X137349028Y-96023180D01*
X137444266Y-96023180D01*
X137587123Y-96070800D01*
X137634742Y-96118419D01*
X138587123Y-97023180D02*
X138015695Y-97023180D01*
X138301409Y-97023180D02*
X138301409Y-96023180D01*
X138206171Y-96166038D01*
X138110933Y-96261276D01*
X138015695Y-96308895D01*
X139539504Y-97023180D02*
X138968076Y-97023180D01*
X139253790Y-97023180D02*
X139253790Y-96023180D01*
X139158552Y-96166038D01*
X139063314Y-96261276D01*
X138968076Y-96308895D01*
X143349742Y-102159342D02*
X143302123Y-102206961D01*
X143159266Y-102254580D01*
X143064028Y-102254580D01*
X142921171Y-102206961D01*
X142825933Y-102111723D01*
X142778314Y-102016485D01*
X142730695Y-101826009D01*
X142730695Y-101683152D01*
X142778314Y-101492676D01*
X142825933Y-101397438D01*
X142921171Y-101302200D01*
X143064028Y-101254580D01*
X143159266Y-101254580D01*
X143302123Y-101302200D01*
X143349742Y-101349819D01*
X144302123Y-102254580D02*
X143730695Y-102254580D01*
X144016409Y-102254580D02*
X144016409Y-101254580D01*
X143921171Y-101397438D01*
X143825933Y-101492676D01*
X143730695Y-101540295D01*
X144921171Y-101254580D02*
X145016409Y-101254580D01*
X145111647Y-101302200D01*
X145159266Y-101349819D01*
X145206885Y-101445057D01*
X145254504Y-101635533D01*
X145254504Y-101873628D01*
X145206885Y-102064104D01*
X145159266Y-102159342D01*
X145111647Y-102206961D01*
X145016409Y-102254580D01*
X144921171Y-102254580D01*
X144825933Y-102206961D01*
X144778314Y-102159342D01*
X144730695Y-102064104D01*
X144683076Y-101873628D01*
X144683076Y-101635533D01*
X144730695Y-101445057D01*
X144778314Y-101349819D01*
X144825933Y-101302200D01*
X144921171Y-101254580D01*
X150480733Y-106402142D02*
X150433114Y-106449761D01*
X150290257Y-106497380D01*
X150195019Y-106497380D01*
X150052161Y-106449761D01*
X149956923Y-106354523D01*
X149909304Y-106259285D01*
X149861685Y-106068809D01*
X149861685Y-105925952D01*
X149909304Y-105735476D01*
X149956923Y-105640238D01*
X150052161Y-105545000D01*
X150195019Y-105497380D01*
X150290257Y-105497380D01*
X150433114Y-105545000D01*
X150480733Y-105592619D01*
X151337876Y-105830714D02*
X151337876Y-106497380D01*
X151099780Y-105449761D02*
X150861685Y-106164047D01*
X151480733Y-106164047D01*
X160882104Y-121362980D02*
X160882104Y-120362980D01*
X161120200Y-120362980D01*
X161263057Y-120410600D01*
X161358295Y-120505838D01*
X161405914Y-120601076D01*
X161453533Y-120791552D01*
X161453533Y-120934409D01*
X161405914Y-121124885D01*
X161358295Y-121220123D01*
X161263057Y-121315361D01*
X161120200Y-121362980D01*
X160882104Y-121362980D01*
X161834485Y-120458219D02*
X161882104Y-120410600D01*
X161977342Y-120362980D01*
X162215438Y-120362980D01*
X162310676Y-120410600D01*
X162358295Y-120458219D01*
X162405914Y-120553457D01*
X162405914Y-120648695D01*
X162358295Y-120791552D01*
X161786866Y-121362980D01*
X162405914Y-121362980D01*
X141732095Y-110276580D02*
X141732095Y-111086104D01*
X141779714Y-111181342D01*
X141827333Y-111228961D01*
X141922571Y-111276580D01*
X142113047Y-111276580D01*
X142208285Y-111228961D01*
X142255904Y-111181342D01*
X142303523Y-111086104D01*
X142303523Y-110276580D01*
X143255904Y-110276580D02*
X142779714Y-110276580D01*
X142732095Y-110752771D01*
X142779714Y-110705152D01*
X142874952Y-110657533D01*
X143113047Y-110657533D01*
X143208285Y-110705152D01*
X143255904Y-110752771D01*
X143303523Y-110848009D01*
X143303523Y-111086104D01*
X143255904Y-111181342D01*
X143208285Y-111228961D01*
X143113047Y-111276580D01*
X142874952Y-111276580D01*
X142779714Y-111228961D01*
X142732095Y-111181342D01*
X159090891Y-104038252D02*
X159090891Y-104847776D01*
X159138510Y-104943014D01*
X159186129Y-104990633D01*
X159281367Y-105038252D01*
X159471843Y-105038252D01*
X159567081Y-104990633D01*
X159614700Y-104943014D01*
X159662319Y-104847776D01*
X159662319Y-104038252D01*
X160043272Y-104038252D02*
X160662319Y-104038252D01*
X160328986Y-104419205D01*
X160471843Y-104419205D01*
X160567081Y-104466824D01*
X160614700Y-104514443D01*
X160662319Y-104609681D01*
X160662319Y-104847776D01*
X160614700Y-104943014D01*
X160567081Y-104990633D01*
X160471843Y-105038252D01*
X160186129Y-105038252D01*
X160090891Y-104990633D01*
X160043272Y-104943014D01*
M02*
