G04 #@! TF.GenerationSoftware,KiCad,Pcbnew,(5.1.4-0)*
G04 #@! TF.CreationDate,2019-12-01T19:05:18-06:00*
G04 #@! TF.ProjectId,veccart,76656363-6172-4742-9e6b-696361645f70,v0.2*
G04 #@! TF.SameCoordinates,Original*
G04 #@! TF.FileFunction,Paste,Bot*
G04 #@! TF.FilePolarity,Positive*
%FSLAX46Y46*%
G04 Gerber Fmt 4.6, Leading zero omitted, Abs format (unit mm)*
G04 Created by KiCad (PCBNEW (5.1.4-0)) date 2019-12-01 19:05:18*
%MOMM*%
%LPD*%
G04 APERTURE LIST*
%ADD10R,0.600000X1.450000*%
%ADD11R,0.300000X1.450000*%
%ADD12C,0.100000*%
%ADD13C,1.150000*%
%ADD14R,1.200000X0.900000*%
%ADD15R,1.750000X0.450000*%
%ADD16C,0.300000*%
%ADD17R,1.500000X2.000000*%
%ADD18R,3.800000X2.000000*%
G04 APERTURE END LIST*
D10*
X144950000Y-76845000D03*
X144150000Y-76845000D03*
X139250000Y-76845000D03*
X138450000Y-76845000D03*
X138450000Y-76845000D03*
X139250000Y-76845000D03*
X144150000Y-76845000D03*
X144950000Y-76845000D03*
D11*
X139950000Y-76845000D03*
X140450000Y-76845000D03*
X140950000Y-76845000D03*
X141950000Y-76845000D03*
X142450000Y-76845000D03*
X142950000Y-76845000D03*
X143450000Y-76845000D03*
X141450000Y-76845000D03*
D12*
G36*
X151374505Y-73301204D02*
G01*
X151398773Y-73304804D01*
X151422572Y-73310765D01*
X151445671Y-73319030D01*
X151467850Y-73329520D01*
X151488893Y-73342132D01*
X151508599Y-73356747D01*
X151526777Y-73373223D01*
X151543253Y-73391401D01*
X151557868Y-73411107D01*
X151570480Y-73432150D01*
X151580970Y-73454329D01*
X151589235Y-73477428D01*
X151595196Y-73501227D01*
X151598796Y-73525495D01*
X151600000Y-73549999D01*
X151600000Y-74200001D01*
X151598796Y-74224505D01*
X151595196Y-74248773D01*
X151589235Y-74272572D01*
X151580970Y-74295671D01*
X151570480Y-74317850D01*
X151557868Y-74338893D01*
X151543253Y-74358599D01*
X151526777Y-74376777D01*
X151508599Y-74393253D01*
X151488893Y-74407868D01*
X151467850Y-74420480D01*
X151445671Y-74430970D01*
X151422572Y-74439235D01*
X151398773Y-74445196D01*
X151374505Y-74448796D01*
X151350001Y-74450000D01*
X150449999Y-74450000D01*
X150425495Y-74448796D01*
X150401227Y-74445196D01*
X150377428Y-74439235D01*
X150354329Y-74430970D01*
X150332150Y-74420480D01*
X150311107Y-74407868D01*
X150291401Y-74393253D01*
X150273223Y-74376777D01*
X150256747Y-74358599D01*
X150242132Y-74338893D01*
X150229520Y-74317850D01*
X150219030Y-74295671D01*
X150210765Y-74272572D01*
X150204804Y-74248773D01*
X150201204Y-74224505D01*
X150200000Y-74200001D01*
X150200000Y-73549999D01*
X150201204Y-73525495D01*
X150204804Y-73501227D01*
X150210765Y-73477428D01*
X150219030Y-73454329D01*
X150229520Y-73432150D01*
X150242132Y-73411107D01*
X150256747Y-73391401D01*
X150273223Y-73373223D01*
X150291401Y-73356747D01*
X150311107Y-73342132D01*
X150332150Y-73329520D01*
X150354329Y-73319030D01*
X150377428Y-73310765D01*
X150401227Y-73304804D01*
X150425495Y-73301204D01*
X150449999Y-73300000D01*
X151350001Y-73300000D01*
X151374505Y-73301204D01*
X151374505Y-73301204D01*
G37*
D13*
X150900000Y-73875000D03*
D12*
G36*
X151374505Y-75351204D02*
G01*
X151398773Y-75354804D01*
X151422572Y-75360765D01*
X151445671Y-75369030D01*
X151467850Y-75379520D01*
X151488893Y-75392132D01*
X151508599Y-75406747D01*
X151526777Y-75423223D01*
X151543253Y-75441401D01*
X151557868Y-75461107D01*
X151570480Y-75482150D01*
X151580970Y-75504329D01*
X151589235Y-75527428D01*
X151595196Y-75551227D01*
X151598796Y-75575495D01*
X151600000Y-75599999D01*
X151600000Y-76250001D01*
X151598796Y-76274505D01*
X151595196Y-76298773D01*
X151589235Y-76322572D01*
X151580970Y-76345671D01*
X151570480Y-76367850D01*
X151557868Y-76388893D01*
X151543253Y-76408599D01*
X151526777Y-76426777D01*
X151508599Y-76443253D01*
X151488893Y-76457868D01*
X151467850Y-76470480D01*
X151445671Y-76480970D01*
X151422572Y-76489235D01*
X151398773Y-76495196D01*
X151374505Y-76498796D01*
X151350001Y-76500000D01*
X150449999Y-76500000D01*
X150425495Y-76498796D01*
X150401227Y-76495196D01*
X150377428Y-76489235D01*
X150354329Y-76480970D01*
X150332150Y-76470480D01*
X150311107Y-76457868D01*
X150291401Y-76443253D01*
X150273223Y-76426777D01*
X150256747Y-76408599D01*
X150242132Y-76388893D01*
X150229520Y-76367850D01*
X150219030Y-76345671D01*
X150210765Y-76322572D01*
X150204804Y-76298773D01*
X150201204Y-76274505D01*
X150200000Y-76250001D01*
X150200000Y-75599999D01*
X150201204Y-75575495D01*
X150204804Y-75551227D01*
X150210765Y-75527428D01*
X150219030Y-75504329D01*
X150229520Y-75482150D01*
X150242132Y-75461107D01*
X150256747Y-75441401D01*
X150273223Y-75423223D01*
X150291401Y-75406747D01*
X150311107Y-75392132D01*
X150332150Y-75379520D01*
X150354329Y-75369030D01*
X150377428Y-75360765D01*
X150401227Y-75354804D01*
X150425495Y-75351204D01*
X150449999Y-75350000D01*
X151350001Y-75350000D01*
X151374505Y-75351204D01*
X151374505Y-75351204D01*
G37*
D13*
X150900000Y-75925000D03*
D12*
G36*
X145424505Y-88201204D02*
G01*
X145448773Y-88204804D01*
X145472572Y-88210765D01*
X145495671Y-88219030D01*
X145517850Y-88229520D01*
X145538893Y-88242132D01*
X145558599Y-88256747D01*
X145576777Y-88273223D01*
X145593253Y-88291401D01*
X145607868Y-88311107D01*
X145620480Y-88332150D01*
X145630970Y-88354329D01*
X145639235Y-88377428D01*
X145645196Y-88401227D01*
X145648796Y-88425495D01*
X145650000Y-88449999D01*
X145650000Y-89350001D01*
X145648796Y-89374505D01*
X145645196Y-89398773D01*
X145639235Y-89422572D01*
X145630970Y-89445671D01*
X145620480Y-89467850D01*
X145607868Y-89488893D01*
X145593253Y-89508599D01*
X145576777Y-89526777D01*
X145558599Y-89543253D01*
X145538893Y-89557868D01*
X145517850Y-89570480D01*
X145495671Y-89580970D01*
X145472572Y-89589235D01*
X145448773Y-89595196D01*
X145424505Y-89598796D01*
X145400001Y-89600000D01*
X144749999Y-89600000D01*
X144725495Y-89598796D01*
X144701227Y-89595196D01*
X144677428Y-89589235D01*
X144654329Y-89580970D01*
X144632150Y-89570480D01*
X144611107Y-89557868D01*
X144591401Y-89543253D01*
X144573223Y-89526777D01*
X144556747Y-89508599D01*
X144542132Y-89488893D01*
X144529520Y-89467850D01*
X144519030Y-89445671D01*
X144510765Y-89422572D01*
X144504804Y-89398773D01*
X144501204Y-89374505D01*
X144500000Y-89350001D01*
X144500000Y-88449999D01*
X144501204Y-88425495D01*
X144504804Y-88401227D01*
X144510765Y-88377428D01*
X144519030Y-88354329D01*
X144529520Y-88332150D01*
X144542132Y-88311107D01*
X144556747Y-88291401D01*
X144573223Y-88273223D01*
X144591401Y-88256747D01*
X144611107Y-88242132D01*
X144632150Y-88229520D01*
X144654329Y-88219030D01*
X144677428Y-88210765D01*
X144701227Y-88204804D01*
X144725495Y-88201204D01*
X144749999Y-88200000D01*
X145400001Y-88200000D01*
X145424505Y-88201204D01*
X145424505Y-88201204D01*
G37*
D13*
X145075000Y-88900000D03*
D12*
G36*
X147474505Y-88201204D02*
G01*
X147498773Y-88204804D01*
X147522572Y-88210765D01*
X147545671Y-88219030D01*
X147567850Y-88229520D01*
X147588893Y-88242132D01*
X147608599Y-88256747D01*
X147626777Y-88273223D01*
X147643253Y-88291401D01*
X147657868Y-88311107D01*
X147670480Y-88332150D01*
X147680970Y-88354329D01*
X147689235Y-88377428D01*
X147695196Y-88401227D01*
X147698796Y-88425495D01*
X147700000Y-88449999D01*
X147700000Y-89350001D01*
X147698796Y-89374505D01*
X147695196Y-89398773D01*
X147689235Y-89422572D01*
X147680970Y-89445671D01*
X147670480Y-89467850D01*
X147657868Y-89488893D01*
X147643253Y-89508599D01*
X147626777Y-89526777D01*
X147608599Y-89543253D01*
X147588893Y-89557868D01*
X147567850Y-89570480D01*
X147545671Y-89580970D01*
X147522572Y-89589235D01*
X147498773Y-89595196D01*
X147474505Y-89598796D01*
X147450001Y-89600000D01*
X146799999Y-89600000D01*
X146775495Y-89598796D01*
X146751227Y-89595196D01*
X146727428Y-89589235D01*
X146704329Y-89580970D01*
X146682150Y-89570480D01*
X146661107Y-89557868D01*
X146641401Y-89543253D01*
X146623223Y-89526777D01*
X146606747Y-89508599D01*
X146592132Y-89488893D01*
X146579520Y-89467850D01*
X146569030Y-89445671D01*
X146560765Y-89422572D01*
X146554804Y-89398773D01*
X146551204Y-89374505D01*
X146550000Y-89350001D01*
X146550000Y-88449999D01*
X146551204Y-88425495D01*
X146554804Y-88401227D01*
X146560765Y-88377428D01*
X146569030Y-88354329D01*
X146579520Y-88332150D01*
X146592132Y-88311107D01*
X146606747Y-88291401D01*
X146623223Y-88273223D01*
X146641401Y-88256747D01*
X146661107Y-88242132D01*
X146682150Y-88229520D01*
X146704329Y-88219030D01*
X146727428Y-88210765D01*
X146751227Y-88204804D01*
X146775495Y-88201204D01*
X146799999Y-88200000D01*
X147450001Y-88200000D01*
X147474505Y-88201204D01*
X147474505Y-88201204D01*
G37*
D13*
X147125000Y-88900000D03*
D12*
G36*
X145416305Y-86201204D02*
G01*
X145440573Y-86204804D01*
X145464372Y-86210765D01*
X145487471Y-86219030D01*
X145509650Y-86229520D01*
X145530693Y-86242132D01*
X145550399Y-86256747D01*
X145568577Y-86273223D01*
X145585053Y-86291401D01*
X145599668Y-86311107D01*
X145612280Y-86332150D01*
X145622770Y-86354329D01*
X145631035Y-86377428D01*
X145636996Y-86401227D01*
X145640596Y-86425495D01*
X145641800Y-86449999D01*
X145641800Y-87350001D01*
X145640596Y-87374505D01*
X145636996Y-87398773D01*
X145631035Y-87422572D01*
X145622770Y-87445671D01*
X145612280Y-87467850D01*
X145599668Y-87488893D01*
X145585053Y-87508599D01*
X145568577Y-87526777D01*
X145550399Y-87543253D01*
X145530693Y-87557868D01*
X145509650Y-87570480D01*
X145487471Y-87580970D01*
X145464372Y-87589235D01*
X145440573Y-87595196D01*
X145416305Y-87598796D01*
X145391801Y-87600000D01*
X144741799Y-87600000D01*
X144717295Y-87598796D01*
X144693027Y-87595196D01*
X144669228Y-87589235D01*
X144646129Y-87580970D01*
X144623950Y-87570480D01*
X144602907Y-87557868D01*
X144583201Y-87543253D01*
X144565023Y-87526777D01*
X144548547Y-87508599D01*
X144533932Y-87488893D01*
X144521320Y-87467850D01*
X144510830Y-87445671D01*
X144502565Y-87422572D01*
X144496604Y-87398773D01*
X144493004Y-87374505D01*
X144491800Y-87350001D01*
X144491800Y-86449999D01*
X144493004Y-86425495D01*
X144496604Y-86401227D01*
X144502565Y-86377428D01*
X144510830Y-86354329D01*
X144521320Y-86332150D01*
X144533932Y-86311107D01*
X144548547Y-86291401D01*
X144565023Y-86273223D01*
X144583201Y-86256747D01*
X144602907Y-86242132D01*
X144623950Y-86229520D01*
X144646129Y-86219030D01*
X144669228Y-86210765D01*
X144693027Y-86204804D01*
X144717295Y-86201204D01*
X144741799Y-86200000D01*
X145391801Y-86200000D01*
X145416305Y-86201204D01*
X145416305Y-86201204D01*
G37*
D13*
X145066800Y-86900000D03*
D12*
G36*
X147466305Y-86201204D02*
G01*
X147490573Y-86204804D01*
X147514372Y-86210765D01*
X147537471Y-86219030D01*
X147559650Y-86229520D01*
X147580693Y-86242132D01*
X147600399Y-86256747D01*
X147618577Y-86273223D01*
X147635053Y-86291401D01*
X147649668Y-86311107D01*
X147662280Y-86332150D01*
X147672770Y-86354329D01*
X147681035Y-86377428D01*
X147686996Y-86401227D01*
X147690596Y-86425495D01*
X147691800Y-86449999D01*
X147691800Y-87350001D01*
X147690596Y-87374505D01*
X147686996Y-87398773D01*
X147681035Y-87422572D01*
X147672770Y-87445671D01*
X147662280Y-87467850D01*
X147649668Y-87488893D01*
X147635053Y-87508599D01*
X147618577Y-87526777D01*
X147600399Y-87543253D01*
X147580693Y-87557868D01*
X147559650Y-87570480D01*
X147537471Y-87580970D01*
X147514372Y-87589235D01*
X147490573Y-87595196D01*
X147466305Y-87598796D01*
X147441801Y-87600000D01*
X146791799Y-87600000D01*
X146767295Y-87598796D01*
X146743027Y-87595196D01*
X146719228Y-87589235D01*
X146696129Y-87580970D01*
X146673950Y-87570480D01*
X146652907Y-87557868D01*
X146633201Y-87543253D01*
X146615023Y-87526777D01*
X146598547Y-87508599D01*
X146583932Y-87488893D01*
X146571320Y-87467850D01*
X146560830Y-87445671D01*
X146552565Y-87422572D01*
X146546604Y-87398773D01*
X146543004Y-87374505D01*
X146541800Y-87350001D01*
X146541800Y-86449999D01*
X146543004Y-86425495D01*
X146546604Y-86401227D01*
X146552565Y-86377428D01*
X146560830Y-86354329D01*
X146571320Y-86332150D01*
X146583932Y-86311107D01*
X146598547Y-86291401D01*
X146615023Y-86273223D01*
X146633201Y-86256747D01*
X146652907Y-86242132D01*
X146673950Y-86229520D01*
X146696129Y-86219030D01*
X146719228Y-86210765D01*
X146743027Y-86204804D01*
X146767295Y-86201204D01*
X146791799Y-86200000D01*
X147441801Y-86200000D01*
X147466305Y-86201204D01*
X147466305Y-86201204D01*
G37*
D13*
X147116800Y-86900000D03*
D12*
G36*
X143174505Y-81151204D02*
G01*
X143198773Y-81154804D01*
X143222572Y-81160765D01*
X143245671Y-81169030D01*
X143267850Y-81179520D01*
X143288893Y-81192132D01*
X143308599Y-81206747D01*
X143326777Y-81223223D01*
X143343253Y-81241401D01*
X143357868Y-81261107D01*
X143370480Y-81282150D01*
X143380970Y-81304329D01*
X143389235Y-81327428D01*
X143395196Y-81351227D01*
X143398796Y-81375495D01*
X143400000Y-81399999D01*
X143400000Y-82050001D01*
X143398796Y-82074505D01*
X143395196Y-82098773D01*
X143389235Y-82122572D01*
X143380970Y-82145671D01*
X143370480Y-82167850D01*
X143357868Y-82188893D01*
X143343253Y-82208599D01*
X143326777Y-82226777D01*
X143308599Y-82243253D01*
X143288893Y-82257868D01*
X143267850Y-82270480D01*
X143245671Y-82280970D01*
X143222572Y-82289235D01*
X143198773Y-82295196D01*
X143174505Y-82298796D01*
X143150001Y-82300000D01*
X142249999Y-82300000D01*
X142225495Y-82298796D01*
X142201227Y-82295196D01*
X142177428Y-82289235D01*
X142154329Y-82280970D01*
X142132150Y-82270480D01*
X142111107Y-82257868D01*
X142091401Y-82243253D01*
X142073223Y-82226777D01*
X142056747Y-82208599D01*
X142042132Y-82188893D01*
X142029520Y-82167850D01*
X142019030Y-82145671D01*
X142010765Y-82122572D01*
X142004804Y-82098773D01*
X142001204Y-82074505D01*
X142000000Y-82050001D01*
X142000000Y-81399999D01*
X142001204Y-81375495D01*
X142004804Y-81351227D01*
X142010765Y-81327428D01*
X142019030Y-81304329D01*
X142029520Y-81282150D01*
X142042132Y-81261107D01*
X142056747Y-81241401D01*
X142073223Y-81223223D01*
X142091401Y-81206747D01*
X142111107Y-81192132D01*
X142132150Y-81179520D01*
X142154329Y-81169030D01*
X142177428Y-81160765D01*
X142201227Y-81154804D01*
X142225495Y-81151204D01*
X142249999Y-81150000D01*
X143150001Y-81150000D01*
X143174505Y-81151204D01*
X143174505Y-81151204D01*
G37*
D13*
X142700000Y-81725000D03*
D12*
G36*
X143174505Y-79101204D02*
G01*
X143198773Y-79104804D01*
X143222572Y-79110765D01*
X143245671Y-79119030D01*
X143267850Y-79129520D01*
X143288893Y-79142132D01*
X143308599Y-79156747D01*
X143326777Y-79173223D01*
X143343253Y-79191401D01*
X143357868Y-79211107D01*
X143370480Y-79232150D01*
X143380970Y-79254329D01*
X143389235Y-79277428D01*
X143395196Y-79301227D01*
X143398796Y-79325495D01*
X143400000Y-79349999D01*
X143400000Y-80000001D01*
X143398796Y-80024505D01*
X143395196Y-80048773D01*
X143389235Y-80072572D01*
X143380970Y-80095671D01*
X143370480Y-80117850D01*
X143357868Y-80138893D01*
X143343253Y-80158599D01*
X143326777Y-80176777D01*
X143308599Y-80193253D01*
X143288893Y-80207868D01*
X143267850Y-80220480D01*
X143245671Y-80230970D01*
X143222572Y-80239235D01*
X143198773Y-80245196D01*
X143174505Y-80248796D01*
X143150001Y-80250000D01*
X142249999Y-80250000D01*
X142225495Y-80248796D01*
X142201227Y-80245196D01*
X142177428Y-80239235D01*
X142154329Y-80230970D01*
X142132150Y-80220480D01*
X142111107Y-80207868D01*
X142091401Y-80193253D01*
X142073223Y-80176777D01*
X142056747Y-80158599D01*
X142042132Y-80138893D01*
X142029520Y-80117850D01*
X142019030Y-80095671D01*
X142010765Y-80072572D01*
X142004804Y-80048773D01*
X142001204Y-80024505D01*
X142000000Y-80000001D01*
X142000000Y-79349999D01*
X142001204Y-79325495D01*
X142004804Y-79301227D01*
X142010765Y-79277428D01*
X142019030Y-79254329D01*
X142029520Y-79232150D01*
X142042132Y-79211107D01*
X142056747Y-79191401D01*
X142073223Y-79173223D01*
X142091401Y-79156747D01*
X142111107Y-79142132D01*
X142132150Y-79129520D01*
X142154329Y-79119030D01*
X142177428Y-79110765D01*
X142201227Y-79104804D01*
X142225495Y-79101204D01*
X142249999Y-79100000D01*
X143150001Y-79100000D01*
X143174505Y-79101204D01*
X143174505Y-79101204D01*
G37*
D13*
X142700000Y-79675000D03*
D12*
G36*
X141174505Y-79101204D02*
G01*
X141198773Y-79104804D01*
X141222572Y-79110765D01*
X141245671Y-79119030D01*
X141267850Y-79129520D01*
X141288893Y-79142132D01*
X141308599Y-79156747D01*
X141326777Y-79173223D01*
X141343253Y-79191401D01*
X141357868Y-79211107D01*
X141370480Y-79232150D01*
X141380970Y-79254329D01*
X141389235Y-79277428D01*
X141395196Y-79301227D01*
X141398796Y-79325495D01*
X141400000Y-79349999D01*
X141400000Y-80000001D01*
X141398796Y-80024505D01*
X141395196Y-80048773D01*
X141389235Y-80072572D01*
X141380970Y-80095671D01*
X141370480Y-80117850D01*
X141357868Y-80138893D01*
X141343253Y-80158599D01*
X141326777Y-80176777D01*
X141308599Y-80193253D01*
X141288893Y-80207868D01*
X141267850Y-80220480D01*
X141245671Y-80230970D01*
X141222572Y-80239235D01*
X141198773Y-80245196D01*
X141174505Y-80248796D01*
X141150001Y-80250000D01*
X140249999Y-80250000D01*
X140225495Y-80248796D01*
X140201227Y-80245196D01*
X140177428Y-80239235D01*
X140154329Y-80230970D01*
X140132150Y-80220480D01*
X140111107Y-80207868D01*
X140091401Y-80193253D01*
X140073223Y-80176777D01*
X140056747Y-80158599D01*
X140042132Y-80138893D01*
X140029520Y-80117850D01*
X140019030Y-80095671D01*
X140010765Y-80072572D01*
X140004804Y-80048773D01*
X140001204Y-80024505D01*
X140000000Y-80000001D01*
X140000000Y-79349999D01*
X140001204Y-79325495D01*
X140004804Y-79301227D01*
X140010765Y-79277428D01*
X140019030Y-79254329D01*
X140029520Y-79232150D01*
X140042132Y-79211107D01*
X140056747Y-79191401D01*
X140073223Y-79173223D01*
X140091401Y-79156747D01*
X140111107Y-79142132D01*
X140132150Y-79129520D01*
X140154329Y-79119030D01*
X140177428Y-79110765D01*
X140201227Y-79104804D01*
X140225495Y-79101204D01*
X140249999Y-79100000D01*
X141150001Y-79100000D01*
X141174505Y-79101204D01*
X141174505Y-79101204D01*
G37*
D13*
X140700000Y-79675000D03*
D12*
G36*
X141174505Y-81151204D02*
G01*
X141198773Y-81154804D01*
X141222572Y-81160765D01*
X141245671Y-81169030D01*
X141267850Y-81179520D01*
X141288893Y-81192132D01*
X141308599Y-81206747D01*
X141326777Y-81223223D01*
X141343253Y-81241401D01*
X141357868Y-81261107D01*
X141370480Y-81282150D01*
X141380970Y-81304329D01*
X141389235Y-81327428D01*
X141395196Y-81351227D01*
X141398796Y-81375495D01*
X141400000Y-81399999D01*
X141400000Y-82050001D01*
X141398796Y-82074505D01*
X141395196Y-82098773D01*
X141389235Y-82122572D01*
X141380970Y-82145671D01*
X141370480Y-82167850D01*
X141357868Y-82188893D01*
X141343253Y-82208599D01*
X141326777Y-82226777D01*
X141308599Y-82243253D01*
X141288893Y-82257868D01*
X141267850Y-82270480D01*
X141245671Y-82280970D01*
X141222572Y-82289235D01*
X141198773Y-82295196D01*
X141174505Y-82298796D01*
X141150001Y-82300000D01*
X140249999Y-82300000D01*
X140225495Y-82298796D01*
X140201227Y-82295196D01*
X140177428Y-82289235D01*
X140154329Y-82280970D01*
X140132150Y-82270480D01*
X140111107Y-82257868D01*
X140091401Y-82243253D01*
X140073223Y-82226777D01*
X140056747Y-82208599D01*
X140042132Y-82188893D01*
X140029520Y-82167850D01*
X140019030Y-82145671D01*
X140010765Y-82122572D01*
X140004804Y-82098773D01*
X140001204Y-82074505D01*
X140000000Y-82050001D01*
X140000000Y-81399999D01*
X140001204Y-81375495D01*
X140004804Y-81351227D01*
X140010765Y-81327428D01*
X140019030Y-81304329D01*
X140029520Y-81282150D01*
X140042132Y-81261107D01*
X140056747Y-81241401D01*
X140073223Y-81223223D01*
X140091401Y-81206747D01*
X140111107Y-81192132D01*
X140132150Y-81179520D01*
X140154329Y-81169030D01*
X140177428Y-81160765D01*
X140201227Y-81154804D01*
X140225495Y-81151204D01*
X140249999Y-81150000D01*
X141150001Y-81150000D01*
X141174505Y-81151204D01*
X141174505Y-81151204D01*
G37*
D13*
X140700000Y-81725000D03*
D12*
G36*
X135704105Y-103294204D02*
G01*
X135728373Y-103297804D01*
X135752172Y-103303765D01*
X135775271Y-103312030D01*
X135797450Y-103322520D01*
X135818493Y-103335132D01*
X135838199Y-103349747D01*
X135856377Y-103366223D01*
X135872853Y-103384401D01*
X135887468Y-103404107D01*
X135900080Y-103425150D01*
X135910570Y-103447329D01*
X135918835Y-103470428D01*
X135924796Y-103494227D01*
X135928396Y-103518495D01*
X135929600Y-103542999D01*
X135929600Y-104193001D01*
X135928396Y-104217505D01*
X135924796Y-104241773D01*
X135918835Y-104265572D01*
X135910570Y-104288671D01*
X135900080Y-104310850D01*
X135887468Y-104331893D01*
X135872853Y-104351599D01*
X135856377Y-104369777D01*
X135838199Y-104386253D01*
X135818493Y-104400868D01*
X135797450Y-104413480D01*
X135775271Y-104423970D01*
X135752172Y-104432235D01*
X135728373Y-104438196D01*
X135704105Y-104441796D01*
X135679601Y-104443000D01*
X134779599Y-104443000D01*
X134755095Y-104441796D01*
X134730827Y-104438196D01*
X134707028Y-104432235D01*
X134683929Y-104423970D01*
X134661750Y-104413480D01*
X134640707Y-104400868D01*
X134621001Y-104386253D01*
X134602823Y-104369777D01*
X134586347Y-104351599D01*
X134571732Y-104331893D01*
X134559120Y-104310850D01*
X134548630Y-104288671D01*
X134540365Y-104265572D01*
X134534404Y-104241773D01*
X134530804Y-104217505D01*
X134529600Y-104193001D01*
X134529600Y-103542999D01*
X134530804Y-103518495D01*
X134534404Y-103494227D01*
X134540365Y-103470428D01*
X134548630Y-103447329D01*
X134559120Y-103425150D01*
X134571732Y-103404107D01*
X134586347Y-103384401D01*
X134602823Y-103366223D01*
X134621001Y-103349747D01*
X134640707Y-103335132D01*
X134661750Y-103322520D01*
X134683929Y-103312030D01*
X134707028Y-103303765D01*
X134730827Y-103297804D01*
X134755095Y-103294204D01*
X134779599Y-103293000D01*
X135679601Y-103293000D01*
X135704105Y-103294204D01*
X135704105Y-103294204D01*
G37*
D13*
X135229600Y-103868000D03*
D12*
G36*
X135704105Y-105344204D02*
G01*
X135728373Y-105347804D01*
X135752172Y-105353765D01*
X135775271Y-105362030D01*
X135797450Y-105372520D01*
X135818493Y-105385132D01*
X135838199Y-105399747D01*
X135856377Y-105416223D01*
X135872853Y-105434401D01*
X135887468Y-105454107D01*
X135900080Y-105475150D01*
X135910570Y-105497329D01*
X135918835Y-105520428D01*
X135924796Y-105544227D01*
X135928396Y-105568495D01*
X135929600Y-105592999D01*
X135929600Y-106243001D01*
X135928396Y-106267505D01*
X135924796Y-106291773D01*
X135918835Y-106315572D01*
X135910570Y-106338671D01*
X135900080Y-106360850D01*
X135887468Y-106381893D01*
X135872853Y-106401599D01*
X135856377Y-106419777D01*
X135838199Y-106436253D01*
X135818493Y-106450868D01*
X135797450Y-106463480D01*
X135775271Y-106473970D01*
X135752172Y-106482235D01*
X135728373Y-106488196D01*
X135704105Y-106491796D01*
X135679601Y-106493000D01*
X134779599Y-106493000D01*
X134755095Y-106491796D01*
X134730827Y-106488196D01*
X134707028Y-106482235D01*
X134683929Y-106473970D01*
X134661750Y-106463480D01*
X134640707Y-106450868D01*
X134621001Y-106436253D01*
X134602823Y-106419777D01*
X134586347Y-106401599D01*
X134571732Y-106381893D01*
X134559120Y-106360850D01*
X134548630Y-106338671D01*
X134540365Y-106315572D01*
X134534404Y-106291773D01*
X134530804Y-106267505D01*
X134529600Y-106243001D01*
X134529600Y-105592999D01*
X134530804Y-105568495D01*
X134534404Y-105544227D01*
X134540365Y-105520428D01*
X134548630Y-105497329D01*
X134559120Y-105475150D01*
X134571732Y-105454107D01*
X134586347Y-105434401D01*
X134602823Y-105416223D01*
X134621001Y-105399747D01*
X134640707Y-105385132D01*
X134661750Y-105372520D01*
X134683929Y-105362030D01*
X134707028Y-105353765D01*
X134730827Y-105347804D01*
X134755095Y-105344204D01*
X134779599Y-105343000D01*
X135679601Y-105343000D01*
X135704105Y-105344204D01*
X135704105Y-105344204D01*
G37*
D13*
X135229600Y-105918000D03*
D12*
G36*
X137863105Y-103312204D02*
G01*
X137887373Y-103315804D01*
X137911172Y-103321765D01*
X137934271Y-103330030D01*
X137956450Y-103340520D01*
X137977493Y-103353132D01*
X137997199Y-103367747D01*
X138015377Y-103384223D01*
X138031853Y-103402401D01*
X138046468Y-103422107D01*
X138059080Y-103443150D01*
X138069570Y-103465329D01*
X138077835Y-103488428D01*
X138083796Y-103512227D01*
X138087396Y-103536495D01*
X138088600Y-103560999D01*
X138088600Y-104211001D01*
X138087396Y-104235505D01*
X138083796Y-104259773D01*
X138077835Y-104283572D01*
X138069570Y-104306671D01*
X138059080Y-104328850D01*
X138046468Y-104349893D01*
X138031853Y-104369599D01*
X138015377Y-104387777D01*
X137997199Y-104404253D01*
X137977493Y-104418868D01*
X137956450Y-104431480D01*
X137934271Y-104441970D01*
X137911172Y-104450235D01*
X137887373Y-104456196D01*
X137863105Y-104459796D01*
X137838601Y-104461000D01*
X136938599Y-104461000D01*
X136914095Y-104459796D01*
X136889827Y-104456196D01*
X136866028Y-104450235D01*
X136842929Y-104441970D01*
X136820750Y-104431480D01*
X136799707Y-104418868D01*
X136780001Y-104404253D01*
X136761823Y-104387777D01*
X136745347Y-104369599D01*
X136730732Y-104349893D01*
X136718120Y-104328850D01*
X136707630Y-104306671D01*
X136699365Y-104283572D01*
X136693404Y-104259773D01*
X136689804Y-104235505D01*
X136688600Y-104211001D01*
X136688600Y-103560999D01*
X136689804Y-103536495D01*
X136693404Y-103512227D01*
X136699365Y-103488428D01*
X136707630Y-103465329D01*
X136718120Y-103443150D01*
X136730732Y-103422107D01*
X136745347Y-103402401D01*
X136761823Y-103384223D01*
X136780001Y-103367747D01*
X136799707Y-103353132D01*
X136820750Y-103340520D01*
X136842929Y-103330030D01*
X136866028Y-103321765D01*
X136889827Y-103315804D01*
X136914095Y-103312204D01*
X136938599Y-103311000D01*
X137838601Y-103311000D01*
X137863105Y-103312204D01*
X137863105Y-103312204D01*
G37*
D13*
X137388600Y-103886000D03*
D12*
G36*
X137863105Y-105362204D02*
G01*
X137887373Y-105365804D01*
X137911172Y-105371765D01*
X137934271Y-105380030D01*
X137956450Y-105390520D01*
X137977493Y-105403132D01*
X137997199Y-105417747D01*
X138015377Y-105434223D01*
X138031853Y-105452401D01*
X138046468Y-105472107D01*
X138059080Y-105493150D01*
X138069570Y-105515329D01*
X138077835Y-105538428D01*
X138083796Y-105562227D01*
X138087396Y-105586495D01*
X138088600Y-105610999D01*
X138088600Y-106261001D01*
X138087396Y-106285505D01*
X138083796Y-106309773D01*
X138077835Y-106333572D01*
X138069570Y-106356671D01*
X138059080Y-106378850D01*
X138046468Y-106399893D01*
X138031853Y-106419599D01*
X138015377Y-106437777D01*
X137997199Y-106454253D01*
X137977493Y-106468868D01*
X137956450Y-106481480D01*
X137934271Y-106491970D01*
X137911172Y-106500235D01*
X137887373Y-106506196D01*
X137863105Y-106509796D01*
X137838601Y-106511000D01*
X136938599Y-106511000D01*
X136914095Y-106509796D01*
X136889827Y-106506196D01*
X136866028Y-106500235D01*
X136842929Y-106491970D01*
X136820750Y-106481480D01*
X136799707Y-106468868D01*
X136780001Y-106454253D01*
X136761823Y-106437777D01*
X136745347Y-106419599D01*
X136730732Y-106399893D01*
X136718120Y-106378850D01*
X136707630Y-106356671D01*
X136699365Y-106333572D01*
X136693404Y-106309773D01*
X136689804Y-106285505D01*
X136688600Y-106261001D01*
X136688600Y-105610999D01*
X136689804Y-105586495D01*
X136693404Y-105562227D01*
X136699365Y-105538428D01*
X136707630Y-105515329D01*
X136718120Y-105493150D01*
X136730732Y-105472107D01*
X136745347Y-105452401D01*
X136761823Y-105434223D01*
X136780001Y-105417747D01*
X136799707Y-105403132D01*
X136820750Y-105390520D01*
X136842929Y-105380030D01*
X136866028Y-105371765D01*
X136889827Y-105365804D01*
X136914095Y-105362204D01*
X136938599Y-105361000D01*
X137838601Y-105361000D01*
X137863105Y-105362204D01*
X137863105Y-105362204D01*
G37*
D13*
X137388600Y-105936000D03*
D12*
G36*
X123674505Y-91051204D02*
G01*
X123698773Y-91054804D01*
X123722572Y-91060765D01*
X123745671Y-91069030D01*
X123767850Y-91079520D01*
X123788893Y-91092132D01*
X123808599Y-91106747D01*
X123826777Y-91123223D01*
X123843253Y-91141401D01*
X123857868Y-91161107D01*
X123870480Y-91182150D01*
X123880970Y-91204329D01*
X123889235Y-91227428D01*
X123895196Y-91251227D01*
X123898796Y-91275495D01*
X123900000Y-91299999D01*
X123900000Y-91950001D01*
X123898796Y-91974505D01*
X123895196Y-91998773D01*
X123889235Y-92022572D01*
X123880970Y-92045671D01*
X123870480Y-92067850D01*
X123857868Y-92088893D01*
X123843253Y-92108599D01*
X123826777Y-92126777D01*
X123808599Y-92143253D01*
X123788893Y-92157868D01*
X123767850Y-92170480D01*
X123745671Y-92180970D01*
X123722572Y-92189235D01*
X123698773Y-92195196D01*
X123674505Y-92198796D01*
X123650001Y-92200000D01*
X122749999Y-92200000D01*
X122725495Y-92198796D01*
X122701227Y-92195196D01*
X122677428Y-92189235D01*
X122654329Y-92180970D01*
X122632150Y-92170480D01*
X122611107Y-92157868D01*
X122591401Y-92143253D01*
X122573223Y-92126777D01*
X122556747Y-92108599D01*
X122542132Y-92088893D01*
X122529520Y-92067850D01*
X122519030Y-92045671D01*
X122510765Y-92022572D01*
X122504804Y-91998773D01*
X122501204Y-91974505D01*
X122500000Y-91950001D01*
X122500000Y-91299999D01*
X122501204Y-91275495D01*
X122504804Y-91251227D01*
X122510765Y-91227428D01*
X122519030Y-91204329D01*
X122529520Y-91182150D01*
X122542132Y-91161107D01*
X122556747Y-91141401D01*
X122573223Y-91123223D01*
X122591401Y-91106747D01*
X122611107Y-91092132D01*
X122632150Y-91079520D01*
X122654329Y-91069030D01*
X122677428Y-91060765D01*
X122701227Y-91054804D01*
X122725495Y-91051204D01*
X122749999Y-91050000D01*
X123650001Y-91050000D01*
X123674505Y-91051204D01*
X123674505Y-91051204D01*
G37*
D13*
X123200000Y-91625000D03*
D12*
G36*
X123674505Y-89001204D02*
G01*
X123698773Y-89004804D01*
X123722572Y-89010765D01*
X123745671Y-89019030D01*
X123767850Y-89029520D01*
X123788893Y-89042132D01*
X123808599Y-89056747D01*
X123826777Y-89073223D01*
X123843253Y-89091401D01*
X123857868Y-89111107D01*
X123870480Y-89132150D01*
X123880970Y-89154329D01*
X123889235Y-89177428D01*
X123895196Y-89201227D01*
X123898796Y-89225495D01*
X123900000Y-89249999D01*
X123900000Y-89900001D01*
X123898796Y-89924505D01*
X123895196Y-89948773D01*
X123889235Y-89972572D01*
X123880970Y-89995671D01*
X123870480Y-90017850D01*
X123857868Y-90038893D01*
X123843253Y-90058599D01*
X123826777Y-90076777D01*
X123808599Y-90093253D01*
X123788893Y-90107868D01*
X123767850Y-90120480D01*
X123745671Y-90130970D01*
X123722572Y-90139235D01*
X123698773Y-90145196D01*
X123674505Y-90148796D01*
X123650001Y-90150000D01*
X122749999Y-90150000D01*
X122725495Y-90148796D01*
X122701227Y-90145196D01*
X122677428Y-90139235D01*
X122654329Y-90130970D01*
X122632150Y-90120480D01*
X122611107Y-90107868D01*
X122591401Y-90093253D01*
X122573223Y-90076777D01*
X122556747Y-90058599D01*
X122542132Y-90038893D01*
X122529520Y-90017850D01*
X122519030Y-89995671D01*
X122510765Y-89972572D01*
X122504804Y-89948773D01*
X122501204Y-89924505D01*
X122500000Y-89900001D01*
X122500000Y-89249999D01*
X122501204Y-89225495D01*
X122504804Y-89201227D01*
X122510765Y-89177428D01*
X122519030Y-89154329D01*
X122529520Y-89132150D01*
X122542132Y-89111107D01*
X122556747Y-89091401D01*
X122573223Y-89073223D01*
X122591401Y-89056747D01*
X122611107Y-89042132D01*
X122632150Y-89029520D01*
X122654329Y-89019030D01*
X122677428Y-89010765D01*
X122701227Y-89004804D01*
X122725495Y-89001204D01*
X122749999Y-89000000D01*
X123650001Y-89000000D01*
X123674505Y-89001204D01*
X123674505Y-89001204D01*
G37*
D13*
X123200000Y-89575000D03*
D12*
G36*
X125974505Y-91051204D02*
G01*
X125998773Y-91054804D01*
X126022572Y-91060765D01*
X126045671Y-91069030D01*
X126067850Y-91079520D01*
X126088893Y-91092132D01*
X126108599Y-91106747D01*
X126126777Y-91123223D01*
X126143253Y-91141401D01*
X126157868Y-91161107D01*
X126170480Y-91182150D01*
X126180970Y-91204329D01*
X126189235Y-91227428D01*
X126195196Y-91251227D01*
X126198796Y-91275495D01*
X126200000Y-91299999D01*
X126200000Y-91950001D01*
X126198796Y-91974505D01*
X126195196Y-91998773D01*
X126189235Y-92022572D01*
X126180970Y-92045671D01*
X126170480Y-92067850D01*
X126157868Y-92088893D01*
X126143253Y-92108599D01*
X126126777Y-92126777D01*
X126108599Y-92143253D01*
X126088893Y-92157868D01*
X126067850Y-92170480D01*
X126045671Y-92180970D01*
X126022572Y-92189235D01*
X125998773Y-92195196D01*
X125974505Y-92198796D01*
X125950001Y-92200000D01*
X125049999Y-92200000D01*
X125025495Y-92198796D01*
X125001227Y-92195196D01*
X124977428Y-92189235D01*
X124954329Y-92180970D01*
X124932150Y-92170480D01*
X124911107Y-92157868D01*
X124891401Y-92143253D01*
X124873223Y-92126777D01*
X124856747Y-92108599D01*
X124842132Y-92088893D01*
X124829520Y-92067850D01*
X124819030Y-92045671D01*
X124810765Y-92022572D01*
X124804804Y-91998773D01*
X124801204Y-91974505D01*
X124800000Y-91950001D01*
X124800000Y-91299999D01*
X124801204Y-91275495D01*
X124804804Y-91251227D01*
X124810765Y-91227428D01*
X124819030Y-91204329D01*
X124829520Y-91182150D01*
X124842132Y-91161107D01*
X124856747Y-91141401D01*
X124873223Y-91123223D01*
X124891401Y-91106747D01*
X124911107Y-91092132D01*
X124932150Y-91079520D01*
X124954329Y-91069030D01*
X124977428Y-91060765D01*
X125001227Y-91054804D01*
X125025495Y-91051204D01*
X125049999Y-91050000D01*
X125950001Y-91050000D01*
X125974505Y-91051204D01*
X125974505Y-91051204D01*
G37*
D13*
X125500000Y-91625000D03*
D12*
G36*
X125974505Y-89001204D02*
G01*
X125998773Y-89004804D01*
X126022572Y-89010765D01*
X126045671Y-89019030D01*
X126067850Y-89029520D01*
X126088893Y-89042132D01*
X126108599Y-89056747D01*
X126126777Y-89073223D01*
X126143253Y-89091401D01*
X126157868Y-89111107D01*
X126170480Y-89132150D01*
X126180970Y-89154329D01*
X126189235Y-89177428D01*
X126195196Y-89201227D01*
X126198796Y-89225495D01*
X126200000Y-89249999D01*
X126200000Y-89900001D01*
X126198796Y-89924505D01*
X126195196Y-89948773D01*
X126189235Y-89972572D01*
X126180970Y-89995671D01*
X126170480Y-90017850D01*
X126157868Y-90038893D01*
X126143253Y-90058599D01*
X126126777Y-90076777D01*
X126108599Y-90093253D01*
X126088893Y-90107868D01*
X126067850Y-90120480D01*
X126045671Y-90130970D01*
X126022572Y-90139235D01*
X125998773Y-90145196D01*
X125974505Y-90148796D01*
X125950001Y-90150000D01*
X125049999Y-90150000D01*
X125025495Y-90148796D01*
X125001227Y-90145196D01*
X124977428Y-90139235D01*
X124954329Y-90130970D01*
X124932150Y-90120480D01*
X124911107Y-90107868D01*
X124891401Y-90093253D01*
X124873223Y-90076777D01*
X124856747Y-90058599D01*
X124842132Y-90038893D01*
X124829520Y-90017850D01*
X124819030Y-89995671D01*
X124810765Y-89972572D01*
X124804804Y-89948773D01*
X124801204Y-89924505D01*
X124800000Y-89900001D01*
X124800000Y-89249999D01*
X124801204Y-89225495D01*
X124804804Y-89201227D01*
X124810765Y-89177428D01*
X124819030Y-89154329D01*
X124829520Y-89132150D01*
X124842132Y-89111107D01*
X124856747Y-89091401D01*
X124873223Y-89073223D01*
X124891401Y-89056747D01*
X124911107Y-89042132D01*
X124932150Y-89029520D01*
X124954329Y-89019030D01*
X124977428Y-89010765D01*
X125001227Y-89004804D01*
X125025495Y-89001204D01*
X125049999Y-89000000D01*
X125950001Y-89000000D01*
X125974505Y-89001204D01*
X125974505Y-89001204D01*
G37*
D13*
X125500000Y-89575000D03*
D12*
G36*
X162258105Y-105270004D02*
G01*
X162282373Y-105273604D01*
X162306172Y-105279565D01*
X162329271Y-105287830D01*
X162351450Y-105298320D01*
X162372493Y-105310932D01*
X162392199Y-105325547D01*
X162410377Y-105342023D01*
X162426853Y-105360201D01*
X162441468Y-105379907D01*
X162454080Y-105400950D01*
X162464570Y-105423129D01*
X162472835Y-105446228D01*
X162478796Y-105470027D01*
X162482396Y-105494295D01*
X162483600Y-105518799D01*
X162483600Y-106418801D01*
X162482396Y-106443305D01*
X162478796Y-106467573D01*
X162472835Y-106491372D01*
X162464570Y-106514471D01*
X162454080Y-106536650D01*
X162441468Y-106557693D01*
X162426853Y-106577399D01*
X162410377Y-106595577D01*
X162392199Y-106612053D01*
X162372493Y-106626668D01*
X162351450Y-106639280D01*
X162329271Y-106649770D01*
X162306172Y-106658035D01*
X162282373Y-106663996D01*
X162258105Y-106667596D01*
X162233601Y-106668800D01*
X161583599Y-106668800D01*
X161559095Y-106667596D01*
X161534827Y-106663996D01*
X161511028Y-106658035D01*
X161487929Y-106649770D01*
X161465750Y-106639280D01*
X161444707Y-106626668D01*
X161425001Y-106612053D01*
X161406823Y-106595577D01*
X161390347Y-106577399D01*
X161375732Y-106557693D01*
X161363120Y-106536650D01*
X161352630Y-106514471D01*
X161344365Y-106491372D01*
X161338404Y-106467573D01*
X161334804Y-106443305D01*
X161333600Y-106418801D01*
X161333600Y-105518799D01*
X161334804Y-105494295D01*
X161338404Y-105470027D01*
X161344365Y-105446228D01*
X161352630Y-105423129D01*
X161363120Y-105400950D01*
X161375732Y-105379907D01*
X161390347Y-105360201D01*
X161406823Y-105342023D01*
X161425001Y-105325547D01*
X161444707Y-105310932D01*
X161465750Y-105298320D01*
X161487929Y-105287830D01*
X161511028Y-105279565D01*
X161534827Y-105273604D01*
X161559095Y-105270004D01*
X161583599Y-105268800D01*
X162233601Y-105268800D01*
X162258105Y-105270004D01*
X162258105Y-105270004D01*
G37*
D13*
X161908600Y-105968800D03*
D12*
G36*
X160208105Y-105270004D02*
G01*
X160232373Y-105273604D01*
X160256172Y-105279565D01*
X160279271Y-105287830D01*
X160301450Y-105298320D01*
X160322493Y-105310932D01*
X160342199Y-105325547D01*
X160360377Y-105342023D01*
X160376853Y-105360201D01*
X160391468Y-105379907D01*
X160404080Y-105400950D01*
X160414570Y-105423129D01*
X160422835Y-105446228D01*
X160428796Y-105470027D01*
X160432396Y-105494295D01*
X160433600Y-105518799D01*
X160433600Y-106418801D01*
X160432396Y-106443305D01*
X160428796Y-106467573D01*
X160422835Y-106491372D01*
X160414570Y-106514471D01*
X160404080Y-106536650D01*
X160391468Y-106557693D01*
X160376853Y-106577399D01*
X160360377Y-106595577D01*
X160342199Y-106612053D01*
X160322493Y-106626668D01*
X160301450Y-106639280D01*
X160279271Y-106649770D01*
X160256172Y-106658035D01*
X160232373Y-106663996D01*
X160208105Y-106667596D01*
X160183601Y-106668800D01*
X159533599Y-106668800D01*
X159509095Y-106667596D01*
X159484827Y-106663996D01*
X159461028Y-106658035D01*
X159437929Y-106649770D01*
X159415750Y-106639280D01*
X159394707Y-106626668D01*
X159375001Y-106612053D01*
X159356823Y-106595577D01*
X159340347Y-106577399D01*
X159325732Y-106557693D01*
X159313120Y-106536650D01*
X159302630Y-106514471D01*
X159294365Y-106491372D01*
X159288404Y-106467573D01*
X159284804Y-106443305D01*
X159283600Y-106418801D01*
X159283600Y-105518799D01*
X159284804Y-105494295D01*
X159288404Y-105470027D01*
X159294365Y-105446228D01*
X159302630Y-105423129D01*
X159313120Y-105400950D01*
X159325732Y-105379907D01*
X159340347Y-105360201D01*
X159356823Y-105342023D01*
X159375001Y-105325547D01*
X159394707Y-105310932D01*
X159415750Y-105298320D01*
X159437929Y-105287830D01*
X159461028Y-105279565D01*
X159484827Y-105273604D01*
X159509095Y-105270004D01*
X159533599Y-105268800D01*
X160183601Y-105268800D01*
X160208105Y-105270004D01*
X160208105Y-105270004D01*
G37*
D13*
X159858600Y-105968800D03*
D12*
G36*
X162258105Y-107530604D02*
G01*
X162282373Y-107534204D01*
X162306172Y-107540165D01*
X162329271Y-107548430D01*
X162351450Y-107558920D01*
X162372493Y-107571532D01*
X162392199Y-107586147D01*
X162410377Y-107602623D01*
X162426853Y-107620801D01*
X162441468Y-107640507D01*
X162454080Y-107661550D01*
X162464570Y-107683729D01*
X162472835Y-107706828D01*
X162478796Y-107730627D01*
X162482396Y-107754895D01*
X162483600Y-107779399D01*
X162483600Y-108679401D01*
X162482396Y-108703905D01*
X162478796Y-108728173D01*
X162472835Y-108751972D01*
X162464570Y-108775071D01*
X162454080Y-108797250D01*
X162441468Y-108818293D01*
X162426853Y-108837999D01*
X162410377Y-108856177D01*
X162392199Y-108872653D01*
X162372493Y-108887268D01*
X162351450Y-108899880D01*
X162329271Y-108910370D01*
X162306172Y-108918635D01*
X162282373Y-108924596D01*
X162258105Y-108928196D01*
X162233601Y-108929400D01*
X161583599Y-108929400D01*
X161559095Y-108928196D01*
X161534827Y-108924596D01*
X161511028Y-108918635D01*
X161487929Y-108910370D01*
X161465750Y-108899880D01*
X161444707Y-108887268D01*
X161425001Y-108872653D01*
X161406823Y-108856177D01*
X161390347Y-108837999D01*
X161375732Y-108818293D01*
X161363120Y-108797250D01*
X161352630Y-108775071D01*
X161344365Y-108751972D01*
X161338404Y-108728173D01*
X161334804Y-108703905D01*
X161333600Y-108679401D01*
X161333600Y-107779399D01*
X161334804Y-107754895D01*
X161338404Y-107730627D01*
X161344365Y-107706828D01*
X161352630Y-107683729D01*
X161363120Y-107661550D01*
X161375732Y-107640507D01*
X161390347Y-107620801D01*
X161406823Y-107602623D01*
X161425001Y-107586147D01*
X161444707Y-107571532D01*
X161465750Y-107558920D01*
X161487929Y-107548430D01*
X161511028Y-107540165D01*
X161534827Y-107534204D01*
X161559095Y-107530604D01*
X161583599Y-107529400D01*
X162233601Y-107529400D01*
X162258105Y-107530604D01*
X162258105Y-107530604D01*
G37*
D13*
X161908600Y-108229400D03*
D12*
G36*
X160208105Y-107530604D02*
G01*
X160232373Y-107534204D01*
X160256172Y-107540165D01*
X160279271Y-107548430D01*
X160301450Y-107558920D01*
X160322493Y-107571532D01*
X160342199Y-107586147D01*
X160360377Y-107602623D01*
X160376853Y-107620801D01*
X160391468Y-107640507D01*
X160404080Y-107661550D01*
X160414570Y-107683729D01*
X160422835Y-107706828D01*
X160428796Y-107730627D01*
X160432396Y-107754895D01*
X160433600Y-107779399D01*
X160433600Y-108679401D01*
X160432396Y-108703905D01*
X160428796Y-108728173D01*
X160422835Y-108751972D01*
X160414570Y-108775071D01*
X160404080Y-108797250D01*
X160391468Y-108818293D01*
X160376853Y-108837999D01*
X160360377Y-108856177D01*
X160342199Y-108872653D01*
X160322493Y-108887268D01*
X160301450Y-108899880D01*
X160279271Y-108910370D01*
X160256172Y-108918635D01*
X160232373Y-108924596D01*
X160208105Y-108928196D01*
X160183601Y-108929400D01*
X159533599Y-108929400D01*
X159509095Y-108928196D01*
X159484827Y-108924596D01*
X159461028Y-108918635D01*
X159437929Y-108910370D01*
X159415750Y-108899880D01*
X159394707Y-108887268D01*
X159375001Y-108872653D01*
X159356823Y-108856177D01*
X159340347Y-108837999D01*
X159325732Y-108818293D01*
X159313120Y-108797250D01*
X159302630Y-108775071D01*
X159294365Y-108751972D01*
X159288404Y-108728173D01*
X159284804Y-108703905D01*
X159283600Y-108679401D01*
X159283600Y-107779399D01*
X159284804Y-107754895D01*
X159288404Y-107730627D01*
X159294365Y-107706828D01*
X159302630Y-107683729D01*
X159313120Y-107661550D01*
X159325732Y-107640507D01*
X159340347Y-107620801D01*
X159356823Y-107602623D01*
X159375001Y-107586147D01*
X159394707Y-107571532D01*
X159415750Y-107558920D01*
X159437929Y-107548430D01*
X159461028Y-107540165D01*
X159484827Y-107534204D01*
X159509095Y-107530604D01*
X159533599Y-107529400D01*
X160183601Y-107529400D01*
X160208105Y-107530604D01*
X160208105Y-107530604D01*
G37*
D13*
X159858600Y-108229400D03*
D14*
X148800000Y-78300000D03*
X148800000Y-75000000D03*
D15*
X130403600Y-94145200D03*
X130403600Y-94795200D03*
X130403600Y-95445200D03*
X130403600Y-96095200D03*
X130403600Y-96745200D03*
X130403600Y-97395200D03*
X130403600Y-98045200D03*
X130403600Y-98695200D03*
X130403600Y-99345200D03*
X130403600Y-99995200D03*
X130403600Y-100645200D03*
X130403600Y-101295200D03*
X123203600Y-101295200D03*
X123203600Y-100645200D03*
X123203600Y-99995200D03*
X123203600Y-99345200D03*
X123203600Y-98695200D03*
X123203600Y-98045200D03*
X123203600Y-97395200D03*
X123203600Y-96745200D03*
X123203600Y-96095200D03*
X123203600Y-95445200D03*
X123203600Y-94795200D03*
X123203600Y-94145200D03*
D12*
G36*
X137841747Y-101102834D02*
G01*
X137849028Y-101103914D01*
X137856167Y-101105702D01*
X137863097Y-101108182D01*
X137869751Y-101111329D01*
X137876064Y-101115113D01*
X137881975Y-101119497D01*
X137887429Y-101124440D01*
X137892372Y-101129894D01*
X137896756Y-101135805D01*
X137900540Y-101142118D01*
X137903687Y-101148772D01*
X137906167Y-101155702D01*
X137907955Y-101162841D01*
X137909035Y-101170122D01*
X137909396Y-101177473D01*
X137909396Y-101327473D01*
X137909035Y-101334824D01*
X137907955Y-101342105D01*
X137906167Y-101349244D01*
X137903687Y-101356174D01*
X137900540Y-101362828D01*
X137896756Y-101369141D01*
X137892372Y-101375052D01*
X137887429Y-101380506D01*
X137881975Y-101385449D01*
X137876064Y-101389833D01*
X137869751Y-101393617D01*
X137863097Y-101396764D01*
X137856167Y-101399244D01*
X137849028Y-101401032D01*
X137841747Y-101402112D01*
X137834396Y-101402473D01*
X136434396Y-101402473D01*
X136427045Y-101402112D01*
X136419764Y-101401032D01*
X136412625Y-101399244D01*
X136405695Y-101396764D01*
X136399041Y-101393617D01*
X136392728Y-101389833D01*
X136386817Y-101385449D01*
X136381363Y-101380506D01*
X136376420Y-101375052D01*
X136372036Y-101369141D01*
X136368252Y-101362828D01*
X136365105Y-101356174D01*
X136362625Y-101349244D01*
X136360837Y-101342105D01*
X136359757Y-101334824D01*
X136359396Y-101327473D01*
X136359396Y-101177473D01*
X136359757Y-101170122D01*
X136360837Y-101162841D01*
X136362625Y-101155702D01*
X136365105Y-101148772D01*
X136368252Y-101142118D01*
X136372036Y-101135805D01*
X136376420Y-101129894D01*
X136381363Y-101124440D01*
X136386817Y-101119497D01*
X136392728Y-101115113D01*
X136399041Y-101111329D01*
X136405695Y-101108182D01*
X136412625Y-101105702D01*
X136419764Y-101103914D01*
X136427045Y-101102834D01*
X136434396Y-101102473D01*
X137834396Y-101102473D01*
X137841747Y-101102834D01*
X137841747Y-101102834D01*
G37*
D16*
X137134396Y-101252473D03*
D12*
G36*
X137841747Y-100602834D02*
G01*
X137849028Y-100603914D01*
X137856167Y-100605702D01*
X137863097Y-100608182D01*
X137869751Y-100611329D01*
X137876064Y-100615113D01*
X137881975Y-100619497D01*
X137887429Y-100624440D01*
X137892372Y-100629894D01*
X137896756Y-100635805D01*
X137900540Y-100642118D01*
X137903687Y-100648772D01*
X137906167Y-100655702D01*
X137907955Y-100662841D01*
X137909035Y-100670122D01*
X137909396Y-100677473D01*
X137909396Y-100827473D01*
X137909035Y-100834824D01*
X137907955Y-100842105D01*
X137906167Y-100849244D01*
X137903687Y-100856174D01*
X137900540Y-100862828D01*
X137896756Y-100869141D01*
X137892372Y-100875052D01*
X137887429Y-100880506D01*
X137881975Y-100885449D01*
X137876064Y-100889833D01*
X137869751Y-100893617D01*
X137863097Y-100896764D01*
X137856167Y-100899244D01*
X137849028Y-100901032D01*
X137841747Y-100902112D01*
X137834396Y-100902473D01*
X136434396Y-100902473D01*
X136427045Y-100902112D01*
X136419764Y-100901032D01*
X136412625Y-100899244D01*
X136405695Y-100896764D01*
X136399041Y-100893617D01*
X136392728Y-100889833D01*
X136386817Y-100885449D01*
X136381363Y-100880506D01*
X136376420Y-100875052D01*
X136372036Y-100869141D01*
X136368252Y-100862828D01*
X136365105Y-100856174D01*
X136362625Y-100849244D01*
X136360837Y-100842105D01*
X136359757Y-100834824D01*
X136359396Y-100827473D01*
X136359396Y-100677473D01*
X136359757Y-100670122D01*
X136360837Y-100662841D01*
X136362625Y-100655702D01*
X136365105Y-100648772D01*
X136368252Y-100642118D01*
X136372036Y-100635805D01*
X136376420Y-100629894D01*
X136381363Y-100624440D01*
X136386817Y-100619497D01*
X136392728Y-100615113D01*
X136399041Y-100611329D01*
X136405695Y-100608182D01*
X136412625Y-100605702D01*
X136419764Y-100603914D01*
X136427045Y-100602834D01*
X136434396Y-100602473D01*
X137834396Y-100602473D01*
X137841747Y-100602834D01*
X137841747Y-100602834D01*
G37*
D16*
X137134396Y-100752473D03*
D12*
G36*
X137841747Y-100102834D02*
G01*
X137849028Y-100103914D01*
X137856167Y-100105702D01*
X137863097Y-100108182D01*
X137869751Y-100111329D01*
X137876064Y-100115113D01*
X137881975Y-100119497D01*
X137887429Y-100124440D01*
X137892372Y-100129894D01*
X137896756Y-100135805D01*
X137900540Y-100142118D01*
X137903687Y-100148772D01*
X137906167Y-100155702D01*
X137907955Y-100162841D01*
X137909035Y-100170122D01*
X137909396Y-100177473D01*
X137909396Y-100327473D01*
X137909035Y-100334824D01*
X137907955Y-100342105D01*
X137906167Y-100349244D01*
X137903687Y-100356174D01*
X137900540Y-100362828D01*
X137896756Y-100369141D01*
X137892372Y-100375052D01*
X137887429Y-100380506D01*
X137881975Y-100385449D01*
X137876064Y-100389833D01*
X137869751Y-100393617D01*
X137863097Y-100396764D01*
X137856167Y-100399244D01*
X137849028Y-100401032D01*
X137841747Y-100402112D01*
X137834396Y-100402473D01*
X136434396Y-100402473D01*
X136427045Y-100402112D01*
X136419764Y-100401032D01*
X136412625Y-100399244D01*
X136405695Y-100396764D01*
X136399041Y-100393617D01*
X136392728Y-100389833D01*
X136386817Y-100385449D01*
X136381363Y-100380506D01*
X136376420Y-100375052D01*
X136372036Y-100369141D01*
X136368252Y-100362828D01*
X136365105Y-100356174D01*
X136362625Y-100349244D01*
X136360837Y-100342105D01*
X136359757Y-100334824D01*
X136359396Y-100327473D01*
X136359396Y-100177473D01*
X136359757Y-100170122D01*
X136360837Y-100162841D01*
X136362625Y-100155702D01*
X136365105Y-100148772D01*
X136368252Y-100142118D01*
X136372036Y-100135805D01*
X136376420Y-100129894D01*
X136381363Y-100124440D01*
X136386817Y-100119497D01*
X136392728Y-100115113D01*
X136399041Y-100111329D01*
X136405695Y-100108182D01*
X136412625Y-100105702D01*
X136419764Y-100103914D01*
X136427045Y-100102834D01*
X136434396Y-100102473D01*
X137834396Y-100102473D01*
X137841747Y-100102834D01*
X137841747Y-100102834D01*
G37*
D16*
X137134396Y-100252473D03*
D12*
G36*
X137841747Y-99602834D02*
G01*
X137849028Y-99603914D01*
X137856167Y-99605702D01*
X137863097Y-99608182D01*
X137869751Y-99611329D01*
X137876064Y-99615113D01*
X137881975Y-99619497D01*
X137887429Y-99624440D01*
X137892372Y-99629894D01*
X137896756Y-99635805D01*
X137900540Y-99642118D01*
X137903687Y-99648772D01*
X137906167Y-99655702D01*
X137907955Y-99662841D01*
X137909035Y-99670122D01*
X137909396Y-99677473D01*
X137909396Y-99827473D01*
X137909035Y-99834824D01*
X137907955Y-99842105D01*
X137906167Y-99849244D01*
X137903687Y-99856174D01*
X137900540Y-99862828D01*
X137896756Y-99869141D01*
X137892372Y-99875052D01*
X137887429Y-99880506D01*
X137881975Y-99885449D01*
X137876064Y-99889833D01*
X137869751Y-99893617D01*
X137863097Y-99896764D01*
X137856167Y-99899244D01*
X137849028Y-99901032D01*
X137841747Y-99902112D01*
X137834396Y-99902473D01*
X136434396Y-99902473D01*
X136427045Y-99902112D01*
X136419764Y-99901032D01*
X136412625Y-99899244D01*
X136405695Y-99896764D01*
X136399041Y-99893617D01*
X136392728Y-99889833D01*
X136386817Y-99885449D01*
X136381363Y-99880506D01*
X136376420Y-99875052D01*
X136372036Y-99869141D01*
X136368252Y-99862828D01*
X136365105Y-99856174D01*
X136362625Y-99849244D01*
X136360837Y-99842105D01*
X136359757Y-99834824D01*
X136359396Y-99827473D01*
X136359396Y-99677473D01*
X136359757Y-99670122D01*
X136360837Y-99662841D01*
X136362625Y-99655702D01*
X136365105Y-99648772D01*
X136368252Y-99642118D01*
X136372036Y-99635805D01*
X136376420Y-99629894D01*
X136381363Y-99624440D01*
X136386817Y-99619497D01*
X136392728Y-99615113D01*
X136399041Y-99611329D01*
X136405695Y-99608182D01*
X136412625Y-99605702D01*
X136419764Y-99603914D01*
X136427045Y-99602834D01*
X136434396Y-99602473D01*
X137834396Y-99602473D01*
X137841747Y-99602834D01*
X137841747Y-99602834D01*
G37*
D16*
X137134396Y-99752473D03*
D12*
G36*
X137841747Y-99102834D02*
G01*
X137849028Y-99103914D01*
X137856167Y-99105702D01*
X137863097Y-99108182D01*
X137869751Y-99111329D01*
X137876064Y-99115113D01*
X137881975Y-99119497D01*
X137887429Y-99124440D01*
X137892372Y-99129894D01*
X137896756Y-99135805D01*
X137900540Y-99142118D01*
X137903687Y-99148772D01*
X137906167Y-99155702D01*
X137907955Y-99162841D01*
X137909035Y-99170122D01*
X137909396Y-99177473D01*
X137909396Y-99327473D01*
X137909035Y-99334824D01*
X137907955Y-99342105D01*
X137906167Y-99349244D01*
X137903687Y-99356174D01*
X137900540Y-99362828D01*
X137896756Y-99369141D01*
X137892372Y-99375052D01*
X137887429Y-99380506D01*
X137881975Y-99385449D01*
X137876064Y-99389833D01*
X137869751Y-99393617D01*
X137863097Y-99396764D01*
X137856167Y-99399244D01*
X137849028Y-99401032D01*
X137841747Y-99402112D01*
X137834396Y-99402473D01*
X136434396Y-99402473D01*
X136427045Y-99402112D01*
X136419764Y-99401032D01*
X136412625Y-99399244D01*
X136405695Y-99396764D01*
X136399041Y-99393617D01*
X136392728Y-99389833D01*
X136386817Y-99385449D01*
X136381363Y-99380506D01*
X136376420Y-99375052D01*
X136372036Y-99369141D01*
X136368252Y-99362828D01*
X136365105Y-99356174D01*
X136362625Y-99349244D01*
X136360837Y-99342105D01*
X136359757Y-99334824D01*
X136359396Y-99327473D01*
X136359396Y-99177473D01*
X136359757Y-99170122D01*
X136360837Y-99162841D01*
X136362625Y-99155702D01*
X136365105Y-99148772D01*
X136368252Y-99142118D01*
X136372036Y-99135805D01*
X136376420Y-99129894D01*
X136381363Y-99124440D01*
X136386817Y-99119497D01*
X136392728Y-99115113D01*
X136399041Y-99111329D01*
X136405695Y-99108182D01*
X136412625Y-99105702D01*
X136419764Y-99103914D01*
X136427045Y-99102834D01*
X136434396Y-99102473D01*
X137834396Y-99102473D01*
X137841747Y-99102834D01*
X137841747Y-99102834D01*
G37*
D16*
X137134396Y-99252473D03*
D12*
G36*
X137841747Y-98602834D02*
G01*
X137849028Y-98603914D01*
X137856167Y-98605702D01*
X137863097Y-98608182D01*
X137869751Y-98611329D01*
X137876064Y-98615113D01*
X137881975Y-98619497D01*
X137887429Y-98624440D01*
X137892372Y-98629894D01*
X137896756Y-98635805D01*
X137900540Y-98642118D01*
X137903687Y-98648772D01*
X137906167Y-98655702D01*
X137907955Y-98662841D01*
X137909035Y-98670122D01*
X137909396Y-98677473D01*
X137909396Y-98827473D01*
X137909035Y-98834824D01*
X137907955Y-98842105D01*
X137906167Y-98849244D01*
X137903687Y-98856174D01*
X137900540Y-98862828D01*
X137896756Y-98869141D01*
X137892372Y-98875052D01*
X137887429Y-98880506D01*
X137881975Y-98885449D01*
X137876064Y-98889833D01*
X137869751Y-98893617D01*
X137863097Y-98896764D01*
X137856167Y-98899244D01*
X137849028Y-98901032D01*
X137841747Y-98902112D01*
X137834396Y-98902473D01*
X136434396Y-98902473D01*
X136427045Y-98902112D01*
X136419764Y-98901032D01*
X136412625Y-98899244D01*
X136405695Y-98896764D01*
X136399041Y-98893617D01*
X136392728Y-98889833D01*
X136386817Y-98885449D01*
X136381363Y-98880506D01*
X136376420Y-98875052D01*
X136372036Y-98869141D01*
X136368252Y-98862828D01*
X136365105Y-98856174D01*
X136362625Y-98849244D01*
X136360837Y-98842105D01*
X136359757Y-98834824D01*
X136359396Y-98827473D01*
X136359396Y-98677473D01*
X136359757Y-98670122D01*
X136360837Y-98662841D01*
X136362625Y-98655702D01*
X136365105Y-98648772D01*
X136368252Y-98642118D01*
X136372036Y-98635805D01*
X136376420Y-98629894D01*
X136381363Y-98624440D01*
X136386817Y-98619497D01*
X136392728Y-98615113D01*
X136399041Y-98611329D01*
X136405695Y-98608182D01*
X136412625Y-98605702D01*
X136419764Y-98603914D01*
X136427045Y-98602834D01*
X136434396Y-98602473D01*
X137834396Y-98602473D01*
X137841747Y-98602834D01*
X137841747Y-98602834D01*
G37*
D16*
X137134396Y-98752473D03*
D12*
G36*
X137841747Y-98102834D02*
G01*
X137849028Y-98103914D01*
X137856167Y-98105702D01*
X137863097Y-98108182D01*
X137869751Y-98111329D01*
X137876064Y-98115113D01*
X137881975Y-98119497D01*
X137887429Y-98124440D01*
X137892372Y-98129894D01*
X137896756Y-98135805D01*
X137900540Y-98142118D01*
X137903687Y-98148772D01*
X137906167Y-98155702D01*
X137907955Y-98162841D01*
X137909035Y-98170122D01*
X137909396Y-98177473D01*
X137909396Y-98327473D01*
X137909035Y-98334824D01*
X137907955Y-98342105D01*
X137906167Y-98349244D01*
X137903687Y-98356174D01*
X137900540Y-98362828D01*
X137896756Y-98369141D01*
X137892372Y-98375052D01*
X137887429Y-98380506D01*
X137881975Y-98385449D01*
X137876064Y-98389833D01*
X137869751Y-98393617D01*
X137863097Y-98396764D01*
X137856167Y-98399244D01*
X137849028Y-98401032D01*
X137841747Y-98402112D01*
X137834396Y-98402473D01*
X136434396Y-98402473D01*
X136427045Y-98402112D01*
X136419764Y-98401032D01*
X136412625Y-98399244D01*
X136405695Y-98396764D01*
X136399041Y-98393617D01*
X136392728Y-98389833D01*
X136386817Y-98385449D01*
X136381363Y-98380506D01*
X136376420Y-98375052D01*
X136372036Y-98369141D01*
X136368252Y-98362828D01*
X136365105Y-98356174D01*
X136362625Y-98349244D01*
X136360837Y-98342105D01*
X136359757Y-98334824D01*
X136359396Y-98327473D01*
X136359396Y-98177473D01*
X136359757Y-98170122D01*
X136360837Y-98162841D01*
X136362625Y-98155702D01*
X136365105Y-98148772D01*
X136368252Y-98142118D01*
X136372036Y-98135805D01*
X136376420Y-98129894D01*
X136381363Y-98124440D01*
X136386817Y-98119497D01*
X136392728Y-98115113D01*
X136399041Y-98111329D01*
X136405695Y-98108182D01*
X136412625Y-98105702D01*
X136419764Y-98103914D01*
X136427045Y-98102834D01*
X136434396Y-98102473D01*
X137834396Y-98102473D01*
X137841747Y-98102834D01*
X137841747Y-98102834D01*
G37*
D16*
X137134396Y-98252473D03*
D12*
G36*
X137841747Y-97602834D02*
G01*
X137849028Y-97603914D01*
X137856167Y-97605702D01*
X137863097Y-97608182D01*
X137869751Y-97611329D01*
X137876064Y-97615113D01*
X137881975Y-97619497D01*
X137887429Y-97624440D01*
X137892372Y-97629894D01*
X137896756Y-97635805D01*
X137900540Y-97642118D01*
X137903687Y-97648772D01*
X137906167Y-97655702D01*
X137907955Y-97662841D01*
X137909035Y-97670122D01*
X137909396Y-97677473D01*
X137909396Y-97827473D01*
X137909035Y-97834824D01*
X137907955Y-97842105D01*
X137906167Y-97849244D01*
X137903687Y-97856174D01*
X137900540Y-97862828D01*
X137896756Y-97869141D01*
X137892372Y-97875052D01*
X137887429Y-97880506D01*
X137881975Y-97885449D01*
X137876064Y-97889833D01*
X137869751Y-97893617D01*
X137863097Y-97896764D01*
X137856167Y-97899244D01*
X137849028Y-97901032D01*
X137841747Y-97902112D01*
X137834396Y-97902473D01*
X136434396Y-97902473D01*
X136427045Y-97902112D01*
X136419764Y-97901032D01*
X136412625Y-97899244D01*
X136405695Y-97896764D01*
X136399041Y-97893617D01*
X136392728Y-97889833D01*
X136386817Y-97885449D01*
X136381363Y-97880506D01*
X136376420Y-97875052D01*
X136372036Y-97869141D01*
X136368252Y-97862828D01*
X136365105Y-97856174D01*
X136362625Y-97849244D01*
X136360837Y-97842105D01*
X136359757Y-97834824D01*
X136359396Y-97827473D01*
X136359396Y-97677473D01*
X136359757Y-97670122D01*
X136360837Y-97662841D01*
X136362625Y-97655702D01*
X136365105Y-97648772D01*
X136368252Y-97642118D01*
X136372036Y-97635805D01*
X136376420Y-97629894D01*
X136381363Y-97624440D01*
X136386817Y-97619497D01*
X136392728Y-97615113D01*
X136399041Y-97611329D01*
X136405695Y-97608182D01*
X136412625Y-97605702D01*
X136419764Y-97603914D01*
X136427045Y-97602834D01*
X136434396Y-97602473D01*
X137834396Y-97602473D01*
X137841747Y-97602834D01*
X137841747Y-97602834D01*
G37*
D16*
X137134396Y-97752473D03*
D12*
G36*
X137841747Y-97102834D02*
G01*
X137849028Y-97103914D01*
X137856167Y-97105702D01*
X137863097Y-97108182D01*
X137869751Y-97111329D01*
X137876064Y-97115113D01*
X137881975Y-97119497D01*
X137887429Y-97124440D01*
X137892372Y-97129894D01*
X137896756Y-97135805D01*
X137900540Y-97142118D01*
X137903687Y-97148772D01*
X137906167Y-97155702D01*
X137907955Y-97162841D01*
X137909035Y-97170122D01*
X137909396Y-97177473D01*
X137909396Y-97327473D01*
X137909035Y-97334824D01*
X137907955Y-97342105D01*
X137906167Y-97349244D01*
X137903687Y-97356174D01*
X137900540Y-97362828D01*
X137896756Y-97369141D01*
X137892372Y-97375052D01*
X137887429Y-97380506D01*
X137881975Y-97385449D01*
X137876064Y-97389833D01*
X137869751Y-97393617D01*
X137863097Y-97396764D01*
X137856167Y-97399244D01*
X137849028Y-97401032D01*
X137841747Y-97402112D01*
X137834396Y-97402473D01*
X136434396Y-97402473D01*
X136427045Y-97402112D01*
X136419764Y-97401032D01*
X136412625Y-97399244D01*
X136405695Y-97396764D01*
X136399041Y-97393617D01*
X136392728Y-97389833D01*
X136386817Y-97385449D01*
X136381363Y-97380506D01*
X136376420Y-97375052D01*
X136372036Y-97369141D01*
X136368252Y-97362828D01*
X136365105Y-97356174D01*
X136362625Y-97349244D01*
X136360837Y-97342105D01*
X136359757Y-97334824D01*
X136359396Y-97327473D01*
X136359396Y-97177473D01*
X136359757Y-97170122D01*
X136360837Y-97162841D01*
X136362625Y-97155702D01*
X136365105Y-97148772D01*
X136368252Y-97142118D01*
X136372036Y-97135805D01*
X136376420Y-97129894D01*
X136381363Y-97124440D01*
X136386817Y-97119497D01*
X136392728Y-97115113D01*
X136399041Y-97111329D01*
X136405695Y-97108182D01*
X136412625Y-97105702D01*
X136419764Y-97103914D01*
X136427045Y-97102834D01*
X136434396Y-97102473D01*
X137834396Y-97102473D01*
X137841747Y-97102834D01*
X137841747Y-97102834D01*
G37*
D16*
X137134396Y-97252473D03*
D12*
G36*
X137841747Y-96602834D02*
G01*
X137849028Y-96603914D01*
X137856167Y-96605702D01*
X137863097Y-96608182D01*
X137869751Y-96611329D01*
X137876064Y-96615113D01*
X137881975Y-96619497D01*
X137887429Y-96624440D01*
X137892372Y-96629894D01*
X137896756Y-96635805D01*
X137900540Y-96642118D01*
X137903687Y-96648772D01*
X137906167Y-96655702D01*
X137907955Y-96662841D01*
X137909035Y-96670122D01*
X137909396Y-96677473D01*
X137909396Y-96827473D01*
X137909035Y-96834824D01*
X137907955Y-96842105D01*
X137906167Y-96849244D01*
X137903687Y-96856174D01*
X137900540Y-96862828D01*
X137896756Y-96869141D01*
X137892372Y-96875052D01*
X137887429Y-96880506D01*
X137881975Y-96885449D01*
X137876064Y-96889833D01*
X137869751Y-96893617D01*
X137863097Y-96896764D01*
X137856167Y-96899244D01*
X137849028Y-96901032D01*
X137841747Y-96902112D01*
X137834396Y-96902473D01*
X136434396Y-96902473D01*
X136427045Y-96902112D01*
X136419764Y-96901032D01*
X136412625Y-96899244D01*
X136405695Y-96896764D01*
X136399041Y-96893617D01*
X136392728Y-96889833D01*
X136386817Y-96885449D01*
X136381363Y-96880506D01*
X136376420Y-96875052D01*
X136372036Y-96869141D01*
X136368252Y-96862828D01*
X136365105Y-96856174D01*
X136362625Y-96849244D01*
X136360837Y-96842105D01*
X136359757Y-96834824D01*
X136359396Y-96827473D01*
X136359396Y-96677473D01*
X136359757Y-96670122D01*
X136360837Y-96662841D01*
X136362625Y-96655702D01*
X136365105Y-96648772D01*
X136368252Y-96642118D01*
X136372036Y-96635805D01*
X136376420Y-96629894D01*
X136381363Y-96624440D01*
X136386817Y-96619497D01*
X136392728Y-96615113D01*
X136399041Y-96611329D01*
X136405695Y-96608182D01*
X136412625Y-96605702D01*
X136419764Y-96603914D01*
X136427045Y-96602834D01*
X136434396Y-96602473D01*
X137834396Y-96602473D01*
X137841747Y-96602834D01*
X137841747Y-96602834D01*
G37*
D16*
X137134396Y-96752473D03*
D12*
G36*
X137841747Y-96102834D02*
G01*
X137849028Y-96103914D01*
X137856167Y-96105702D01*
X137863097Y-96108182D01*
X137869751Y-96111329D01*
X137876064Y-96115113D01*
X137881975Y-96119497D01*
X137887429Y-96124440D01*
X137892372Y-96129894D01*
X137896756Y-96135805D01*
X137900540Y-96142118D01*
X137903687Y-96148772D01*
X137906167Y-96155702D01*
X137907955Y-96162841D01*
X137909035Y-96170122D01*
X137909396Y-96177473D01*
X137909396Y-96327473D01*
X137909035Y-96334824D01*
X137907955Y-96342105D01*
X137906167Y-96349244D01*
X137903687Y-96356174D01*
X137900540Y-96362828D01*
X137896756Y-96369141D01*
X137892372Y-96375052D01*
X137887429Y-96380506D01*
X137881975Y-96385449D01*
X137876064Y-96389833D01*
X137869751Y-96393617D01*
X137863097Y-96396764D01*
X137856167Y-96399244D01*
X137849028Y-96401032D01*
X137841747Y-96402112D01*
X137834396Y-96402473D01*
X136434396Y-96402473D01*
X136427045Y-96402112D01*
X136419764Y-96401032D01*
X136412625Y-96399244D01*
X136405695Y-96396764D01*
X136399041Y-96393617D01*
X136392728Y-96389833D01*
X136386817Y-96385449D01*
X136381363Y-96380506D01*
X136376420Y-96375052D01*
X136372036Y-96369141D01*
X136368252Y-96362828D01*
X136365105Y-96356174D01*
X136362625Y-96349244D01*
X136360837Y-96342105D01*
X136359757Y-96334824D01*
X136359396Y-96327473D01*
X136359396Y-96177473D01*
X136359757Y-96170122D01*
X136360837Y-96162841D01*
X136362625Y-96155702D01*
X136365105Y-96148772D01*
X136368252Y-96142118D01*
X136372036Y-96135805D01*
X136376420Y-96129894D01*
X136381363Y-96124440D01*
X136386817Y-96119497D01*
X136392728Y-96115113D01*
X136399041Y-96111329D01*
X136405695Y-96108182D01*
X136412625Y-96105702D01*
X136419764Y-96103914D01*
X136427045Y-96102834D01*
X136434396Y-96102473D01*
X137834396Y-96102473D01*
X137841747Y-96102834D01*
X137841747Y-96102834D01*
G37*
D16*
X137134396Y-96252473D03*
D12*
G36*
X137841747Y-95602834D02*
G01*
X137849028Y-95603914D01*
X137856167Y-95605702D01*
X137863097Y-95608182D01*
X137869751Y-95611329D01*
X137876064Y-95615113D01*
X137881975Y-95619497D01*
X137887429Y-95624440D01*
X137892372Y-95629894D01*
X137896756Y-95635805D01*
X137900540Y-95642118D01*
X137903687Y-95648772D01*
X137906167Y-95655702D01*
X137907955Y-95662841D01*
X137909035Y-95670122D01*
X137909396Y-95677473D01*
X137909396Y-95827473D01*
X137909035Y-95834824D01*
X137907955Y-95842105D01*
X137906167Y-95849244D01*
X137903687Y-95856174D01*
X137900540Y-95862828D01*
X137896756Y-95869141D01*
X137892372Y-95875052D01*
X137887429Y-95880506D01*
X137881975Y-95885449D01*
X137876064Y-95889833D01*
X137869751Y-95893617D01*
X137863097Y-95896764D01*
X137856167Y-95899244D01*
X137849028Y-95901032D01*
X137841747Y-95902112D01*
X137834396Y-95902473D01*
X136434396Y-95902473D01*
X136427045Y-95902112D01*
X136419764Y-95901032D01*
X136412625Y-95899244D01*
X136405695Y-95896764D01*
X136399041Y-95893617D01*
X136392728Y-95889833D01*
X136386817Y-95885449D01*
X136381363Y-95880506D01*
X136376420Y-95875052D01*
X136372036Y-95869141D01*
X136368252Y-95862828D01*
X136365105Y-95856174D01*
X136362625Y-95849244D01*
X136360837Y-95842105D01*
X136359757Y-95834824D01*
X136359396Y-95827473D01*
X136359396Y-95677473D01*
X136359757Y-95670122D01*
X136360837Y-95662841D01*
X136362625Y-95655702D01*
X136365105Y-95648772D01*
X136368252Y-95642118D01*
X136372036Y-95635805D01*
X136376420Y-95629894D01*
X136381363Y-95624440D01*
X136386817Y-95619497D01*
X136392728Y-95615113D01*
X136399041Y-95611329D01*
X136405695Y-95608182D01*
X136412625Y-95605702D01*
X136419764Y-95603914D01*
X136427045Y-95602834D01*
X136434396Y-95602473D01*
X137834396Y-95602473D01*
X137841747Y-95602834D01*
X137841747Y-95602834D01*
G37*
D16*
X137134396Y-95752473D03*
D12*
G36*
X137841747Y-95102834D02*
G01*
X137849028Y-95103914D01*
X137856167Y-95105702D01*
X137863097Y-95108182D01*
X137869751Y-95111329D01*
X137876064Y-95115113D01*
X137881975Y-95119497D01*
X137887429Y-95124440D01*
X137892372Y-95129894D01*
X137896756Y-95135805D01*
X137900540Y-95142118D01*
X137903687Y-95148772D01*
X137906167Y-95155702D01*
X137907955Y-95162841D01*
X137909035Y-95170122D01*
X137909396Y-95177473D01*
X137909396Y-95327473D01*
X137909035Y-95334824D01*
X137907955Y-95342105D01*
X137906167Y-95349244D01*
X137903687Y-95356174D01*
X137900540Y-95362828D01*
X137896756Y-95369141D01*
X137892372Y-95375052D01*
X137887429Y-95380506D01*
X137881975Y-95385449D01*
X137876064Y-95389833D01*
X137869751Y-95393617D01*
X137863097Y-95396764D01*
X137856167Y-95399244D01*
X137849028Y-95401032D01*
X137841747Y-95402112D01*
X137834396Y-95402473D01*
X136434396Y-95402473D01*
X136427045Y-95402112D01*
X136419764Y-95401032D01*
X136412625Y-95399244D01*
X136405695Y-95396764D01*
X136399041Y-95393617D01*
X136392728Y-95389833D01*
X136386817Y-95385449D01*
X136381363Y-95380506D01*
X136376420Y-95375052D01*
X136372036Y-95369141D01*
X136368252Y-95362828D01*
X136365105Y-95356174D01*
X136362625Y-95349244D01*
X136360837Y-95342105D01*
X136359757Y-95334824D01*
X136359396Y-95327473D01*
X136359396Y-95177473D01*
X136359757Y-95170122D01*
X136360837Y-95162841D01*
X136362625Y-95155702D01*
X136365105Y-95148772D01*
X136368252Y-95142118D01*
X136372036Y-95135805D01*
X136376420Y-95129894D01*
X136381363Y-95124440D01*
X136386817Y-95119497D01*
X136392728Y-95115113D01*
X136399041Y-95111329D01*
X136405695Y-95108182D01*
X136412625Y-95105702D01*
X136419764Y-95103914D01*
X136427045Y-95102834D01*
X136434396Y-95102473D01*
X137834396Y-95102473D01*
X137841747Y-95102834D01*
X137841747Y-95102834D01*
G37*
D16*
X137134396Y-95252473D03*
D12*
G36*
X137841747Y-94602834D02*
G01*
X137849028Y-94603914D01*
X137856167Y-94605702D01*
X137863097Y-94608182D01*
X137869751Y-94611329D01*
X137876064Y-94615113D01*
X137881975Y-94619497D01*
X137887429Y-94624440D01*
X137892372Y-94629894D01*
X137896756Y-94635805D01*
X137900540Y-94642118D01*
X137903687Y-94648772D01*
X137906167Y-94655702D01*
X137907955Y-94662841D01*
X137909035Y-94670122D01*
X137909396Y-94677473D01*
X137909396Y-94827473D01*
X137909035Y-94834824D01*
X137907955Y-94842105D01*
X137906167Y-94849244D01*
X137903687Y-94856174D01*
X137900540Y-94862828D01*
X137896756Y-94869141D01*
X137892372Y-94875052D01*
X137887429Y-94880506D01*
X137881975Y-94885449D01*
X137876064Y-94889833D01*
X137869751Y-94893617D01*
X137863097Y-94896764D01*
X137856167Y-94899244D01*
X137849028Y-94901032D01*
X137841747Y-94902112D01*
X137834396Y-94902473D01*
X136434396Y-94902473D01*
X136427045Y-94902112D01*
X136419764Y-94901032D01*
X136412625Y-94899244D01*
X136405695Y-94896764D01*
X136399041Y-94893617D01*
X136392728Y-94889833D01*
X136386817Y-94885449D01*
X136381363Y-94880506D01*
X136376420Y-94875052D01*
X136372036Y-94869141D01*
X136368252Y-94862828D01*
X136365105Y-94856174D01*
X136362625Y-94849244D01*
X136360837Y-94842105D01*
X136359757Y-94834824D01*
X136359396Y-94827473D01*
X136359396Y-94677473D01*
X136359757Y-94670122D01*
X136360837Y-94662841D01*
X136362625Y-94655702D01*
X136365105Y-94648772D01*
X136368252Y-94642118D01*
X136372036Y-94635805D01*
X136376420Y-94629894D01*
X136381363Y-94624440D01*
X136386817Y-94619497D01*
X136392728Y-94615113D01*
X136399041Y-94611329D01*
X136405695Y-94608182D01*
X136412625Y-94605702D01*
X136419764Y-94603914D01*
X136427045Y-94602834D01*
X136434396Y-94602473D01*
X137834396Y-94602473D01*
X137841747Y-94602834D01*
X137841747Y-94602834D01*
G37*
D16*
X137134396Y-94752473D03*
D12*
G36*
X137841747Y-94102834D02*
G01*
X137849028Y-94103914D01*
X137856167Y-94105702D01*
X137863097Y-94108182D01*
X137869751Y-94111329D01*
X137876064Y-94115113D01*
X137881975Y-94119497D01*
X137887429Y-94124440D01*
X137892372Y-94129894D01*
X137896756Y-94135805D01*
X137900540Y-94142118D01*
X137903687Y-94148772D01*
X137906167Y-94155702D01*
X137907955Y-94162841D01*
X137909035Y-94170122D01*
X137909396Y-94177473D01*
X137909396Y-94327473D01*
X137909035Y-94334824D01*
X137907955Y-94342105D01*
X137906167Y-94349244D01*
X137903687Y-94356174D01*
X137900540Y-94362828D01*
X137896756Y-94369141D01*
X137892372Y-94375052D01*
X137887429Y-94380506D01*
X137881975Y-94385449D01*
X137876064Y-94389833D01*
X137869751Y-94393617D01*
X137863097Y-94396764D01*
X137856167Y-94399244D01*
X137849028Y-94401032D01*
X137841747Y-94402112D01*
X137834396Y-94402473D01*
X136434396Y-94402473D01*
X136427045Y-94402112D01*
X136419764Y-94401032D01*
X136412625Y-94399244D01*
X136405695Y-94396764D01*
X136399041Y-94393617D01*
X136392728Y-94389833D01*
X136386817Y-94385449D01*
X136381363Y-94380506D01*
X136376420Y-94375052D01*
X136372036Y-94369141D01*
X136368252Y-94362828D01*
X136365105Y-94356174D01*
X136362625Y-94349244D01*
X136360837Y-94342105D01*
X136359757Y-94334824D01*
X136359396Y-94327473D01*
X136359396Y-94177473D01*
X136359757Y-94170122D01*
X136360837Y-94162841D01*
X136362625Y-94155702D01*
X136365105Y-94148772D01*
X136368252Y-94142118D01*
X136372036Y-94135805D01*
X136376420Y-94129894D01*
X136381363Y-94124440D01*
X136386817Y-94119497D01*
X136392728Y-94115113D01*
X136399041Y-94111329D01*
X136405695Y-94108182D01*
X136412625Y-94105702D01*
X136419764Y-94103914D01*
X136427045Y-94102834D01*
X136434396Y-94102473D01*
X137834396Y-94102473D01*
X137841747Y-94102834D01*
X137841747Y-94102834D01*
G37*
D16*
X137134396Y-94252473D03*
D12*
G36*
X137841747Y-93602834D02*
G01*
X137849028Y-93603914D01*
X137856167Y-93605702D01*
X137863097Y-93608182D01*
X137869751Y-93611329D01*
X137876064Y-93615113D01*
X137881975Y-93619497D01*
X137887429Y-93624440D01*
X137892372Y-93629894D01*
X137896756Y-93635805D01*
X137900540Y-93642118D01*
X137903687Y-93648772D01*
X137906167Y-93655702D01*
X137907955Y-93662841D01*
X137909035Y-93670122D01*
X137909396Y-93677473D01*
X137909396Y-93827473D01*
X137909035Y-93834824D01*
X137907955Y-93842105D01*
X137906167Y-93849244D01*
X137903687Y-93856174D01*
X137900540Y-93862828D01*
X137896756Y-93869141D01*
X137892372Y-93875052D01*
X137887429Y-93880506D01*
X137881975Y-93885449D01*
X137876064Y-93889833D01*
X137869751Y-93893617D01*
X137863097Y-93896764D01*
X137856167Y-93899244D01*
X137849028Y-93901032D01*
X137841747Y-93902112D01*
X137834396Y-93902473D01*
X136434396Y-93902473D01*
X136427045Y-93902112D01*
X136419764Y-93901032D01*
X136412625Y-93899244D01*
X136405695Y-93896764D01*
X136399041Y-93893617D01*
X136392728Y-93889833D01*
X136386817Y-93885449D01*
X136381363Y-93880506D01*
X136376420Y-93875052D01*
X136372036Y-93869141D01*
X136368252Y-93862828D01*
X136365105Y-93856174D01*
X136362625Y-93849244D01*
X136360837Y-93842105D01*
X136359757Y-93834824D01*
X136359396Y-93827473D01*
X136359396Y-93677473D01*
X136359757Y-93670122D01*
X136360837Y-93662841D01*
X136362625Y-93655702D01*
X136365105Y-93648772D01*
X136368252Y-93642118D01*
X136372036Y-93635805D01*
X136376420Y-93629894D01*
X136381363Y-93624440D01*
X136386817Y-93619497D01*
X136392728Y-93615113D01*
X136399041Y-93611329D01*
X136405695Y-93608182D01*
X136412625Y-93605702D01*
X136419764Y-93603914D01*
X136427045Y-93602834D01*
X136434396Y-93602473D01*
X137834396Y-93602473D01*
X137841747Y-93602834D01*
X137841747Y-93602834D01*
G37*
D16*
X137134396Y-93752473D03*
D12*
G36*
X139141747Y-91052834D02*
G01*
X139149028Y-91053914D01*
X139156167Y-91055702D01*
X139163097Y-91058182D01*
X139169751Y-91061329D01*
X139176064Y-91065113D01*
X139181975Y-91069497D01*
X139187429Y-91074440D01*
X139192372Y-91079894D01*
X139196756Y-91085805D01*
X139200540Y-91092118D01*
X139203687Y-91098772D01*
X139206167Y-91105702D01*
X139207955Y-91112841D01*
X139209035Y-91120122D01*
X139209396Y-91127473D01*
X139209396Y-92527473D01*
X139209035Y-92534824D01*
X139207955Y-92542105D01*
X139206167Y-92549244D01*
X139203687Y-92556174D01*
X139200540Y-92562828D01*
X139196756Y-92569141D01*
X139192372Y-92575052D01*
X139187429Y-92580506D01*
X139181975Y-92585449D01*
X139176064Y-92589833D01*
X139169751Y-92593617D01*
X139163097Y-92596764D01*
X139156167Y-92599244D01*
X139149028Y-92601032D01*
X139141747Y-92602112D01*
X139134396Y-92602473D01*
X138984396Y-92602473D01*
X138977045Y-92602112D01*
X138969764Y-92601032D01*
X138962625Y-92599244D01*
X138955695Y-92596764D01*
X138949041Y-92593617D01*
X138942728Y-92589833D01*
X138936817Y-92585449D01*
X138931363Y-92580506D01*
X138926420Y-92575052D01*
X138922036Y-92569141D01*
X138918252Y-92562828D01*
X138915105Y-92556174D01*
X138912625Y-92549244D01*
X138910837Y-92542105D01*
X138909757Y-92534824D01*
X138909396Y-92527473D01*
X138909396Y-91127473D01*
X138909757Y-91120122D01*
X138910837Y-91112841D01*
X138912625Y-91105702D01*
X138915105Y-91098772D01*
X138918252Y-91092118D01*
X138922036Y-91085805D01*
X138926420Y-91079894D01*
X138931363Y-91074440D01*
X138936817Y-91069497D01*
X138942728Y-91065113D01*
X138949041Y-91061329D01*
X138955695Y-91058182D01*
X138962625Y-91055702D01*
X138969764Y-91053914D01*
X138977045Y-91052834D01*
X138984396Y-91052473D01*
X139134396Y-91052473D01*
X139141747Y-91052834D01*
X139141747Y-91052834D01*
G37*
D16*
X139059396Y-91827473D03*
D12*
G36*
X139641747Y-91052834D02*
G01*
X139649028Y-91053914D01*
X139656167Y-91055702D01*
X139663097Y-91058182D01*
X139669751Y-91061329D01*
X139676064Y-91065113D01*
X139681975Y-91069497D01*
X139687429Y-91074440D01*
X139692372Y-91079894D01*
X139696756Y-91085805D01*
X139700540Y-91092118D01*
X139703687Y-91098772D01*
X139706167Y-91105702D01*
X139707955Y-91112841D01*
X139709035Y-91120122D01*
X139709396Y-91127473D01*
X139709396Y-92527473D01*
X139709035Y-92534824D01*
X139707955Y-92542105D01*
X139706167Y-92549244D01*
X139703687Y-92556174D01*
X139700540Y-92562828D01*
X139696756Y-92569141D01*
X139692372Y-92575052D01*
X139687429Y-92580506D01*
X139681975Y-92585449D01*
X139676064Y-92589833D01*
X139669751Y-92593617D01*
X139663097Y-92596764D01*
X139656167Y-92599244D01*
X139649028Y-92601032D01*
X139641747Y-92602112D01*
X139634396Y-92602473D01*
X139484396Y-92602473D01*
X139477045Y-92602112D01*
X139469764Y-92601032D01*
X139462625Y-92599244D01*
X139455695Y-92596764D01*
X139449041Y-92593617D01*
X139442728Y-92589833D01*
X139436817Y-92585449D01*
X139431363Y-92580506D01*
X139426420Y-92575052D01*
X139422036Y-92569141D01*
X139418252Y-92562828D01*
X139415105Y-92556174D01*
X139412625Y-92549244D01*
X139410837Y-92542105D01*
X139409757Y-92534824D01*
X139409396Y-92527473D01*
X139409396Y-91127473D01*
X139409757Y-91120122D01*
X139410837Y-91112841D01*
X139412625Y-91105702D01*
X139415105Y-91098772D01*
X139418252Y-91092118D01*
X139422036Y-91085805D01*
X139426420Y-91079894D01*
X139431363Y-91074440D01*
X139436817Y-91069497D01*
X139442728Y-91065113D01*
X139449041Y-91061329D01*
X139455695Y-91058182D01*
X139462625Y-91055702D01*
X139469764Y-91053914D01*
X139477045Y-91052834D01*
X139484396Y-91052473D01*
X139634396Y-91052473D01*
X139641747Y-91052834D01*
X139641747Y-91052834D01*
G37*
D16*
X139559396Y-91827473D03*
D12*
G36*
X140141747Y-91052834D02*
G01*
X140149028Y-91053914D01*
X140156167Y-91055702D01*
X140163097Y-91058182D01*
X140169751Y-91061329D01*
X140176064Y-91065113D01*
X140181975Y-91069497D01*
X140187429Y-91074440D01*
X140192372Y-91079894D01*
X140196756Y-91085805D01*
X140200540Y-91092118D01*
X140203687Y-91098772D01*
X140206167Y-91105702D01*
X140207955Y-91112841D01*
X140209035Y-91120122D01*
X140209396Y-91127473D01*
X140209396Y-92527473D01*
X140209035Y-92534824D01*
X140207955Y-92542105D01*
X140206167Y-92549244D01*
X140203687Y-92556174D01*
X140200540Y-92562828D01*
X140196756Y-92569141D01*
X140192372Y-92575052D01*
X140187429Y-92580506D01*
X140181975Y-92585449D01*
X140176064Y-92589833D01*
X140169751Y-92593617D01*
X140163097Y-92596764D01*
X140156167Y-92599244D01*
X140149028Y-92601032D01*
X140141747Y-92602112D01*
X140134396Y-92602473D01*
X139984396Y-92602473D01*
X139977045Y-92602112D01*
X139969764Y-92601032D01*
X139962625Y-92599244D01*
X139955695Y-92596764D01*
X139949041Y-92593617D01*
X139942728Y-92589833D01*
X139936817Y-92585449D01*
X139931363Y-92580506D01*
X139926420Y-92575052D01*
X139922036Y-92569141D01*
X139918252Y-92562828D01*
X139915105Y-92556174D01*
X139912625Y-92549244D01*
X139910837Y-92542105D01*
X139909757Y-92534824D01*
X139909396Y-92527473D01*
X139909396Y-91127473D01*
X139909757Y-91120122D01*
X139910837Y-91112841D01*
X139912625Y-91105702D01*
X139915105Y-91098772D01*
X139918252Y-91092118D01*
X139922036Y-91085805D01*
X139926420Y-91079894D01*
X139931363Y-91074440D01*
X139936817Y-91069497D01*
X139942728Y-91065113D01*
X139949041Y-91061329D01*
X139955695Y-91058182D01*
X139962625Y-91055702D01*
X139969764Y-91053914D01*
X139977045Y-91052834D01*
X139984396Y-91052473D01*
X140134396Y-91052473D01*
X140141747Y-91052834D01*
X140141747Y-91052834D01*
G37*
D16*
X140059396Y-91827473D03*
D12*
G36*
X140641747Y-91052834D02*
G01*
X140649028Y-91053914D01*
X140656167Y-91055702D01*
X140663097Y-91058182D01*
X140669751Y-91061329D01*
X140676064Y-91065113D01*
X140681975Y-91069497D01*
X140687429Y-91074440D01*
X140692372Y-91079894D01*
X140696756Y-91085805D01*
X140700540Y-91092118D01*
X140703687Y-91098772D01*
X140706167Y-91105702D01*
X140707955Y-91112841D01*
X140709035Y-91120122D01*
X140709396Y-91127473D01*
X140709396Y-92527473D01*
X140709035Y-92534824D01*
X140707955Y-92542105D01*
X140706167Y-92549244D01*
X140703687Y-92556174D01*
X140700540Y-92562828D01*
X140696756Y-92569141D01*
X140692372Y-92575052D01*
X140687429Y-92580506D01*
X140681975Y-92585449D01*
X140676064Y-92589833D01*
X140669751Y-92593617D01*
X140663097Y-92596764D01*
X140656167Y-92599244D01*
X140649028Y-92601032D01*
X140641747Y-92602112D01*
X140634396Y-92602473D01*
X140484396Y-92602473D01*
X140477045Y-92602112D01*
X140469764Y-92601032D01*
X140462625Y-92599244D01*
X140455695Y-92596764D01*
X140449041Y-92593617D01*
X140442728Y-92589833D01*
X140436817Y-92585449D01*
X140431363Y-92580506D01*
X140426420Y-92575052D01*
X140422036Y-92569141D01*
X140418252Y-92562828D01*
X140415105Y-92556174D01*
X140412625Y-92549244D01*
X140410837Y-92542105D01*
X140409757Y-92534824D01*
X140409396Y-92527473D01*
X140409396Y-91127473D01*
X140409757Y-91120122D01*
X140410837Y-91112841D01*
X140412625Y-91105702D01*
X140415105Y-91098772D01*
X140418252Y-91092118D01*
X140422036Y-91085805D01*
X140426420Y-91079894D01*
X140431363Y-91074440D01*
X140436817Y-91069497D01*
X140442728Y-91065113D01*
X140449041Y-91061329D01*
X140455695Y-91058182D01*
X140462625Y-91055702D01*
X140469764Y-91053914D01*
X140477045Y-91052834D01*
X140484396Y-91052473D01*
X140634396Y-91052473D01*
X140641747Y-91052834D01*
X140641747Y-91052834D01*
G37*
D16*
X140559396Y-91827473D03*
D12*
G36*
X141141747Y-91052834D02*
G01*
X141149028Y-91053914D01*
X141156167Y-91055702D01*
X141163097Y-91058182D01*
X141169751Y-91061329D01*
X141176064Y-91065113D01*
X141181975Y-91069497D01*
X141187429Y-91074440D01*
X141192372Y-91079894D01*
X141196756Y-91085805D01*
X141200540Y-91092118D01*
X141203687Y-91098772D01*
X141206167Y-91105702D01*
X141207955Y-91112841D01*
X141209035Y-91120122D01*
X141209396Y-91127473D01*
X141209396Y-92527473D01*
X141209035Y-92534824D01*
X141207955Y-92542105D01*
X141206167Y-92549244D01*
X141203687Y-92556174D01*
X141200540Y-92562828D01*
X141196756Y-92569141D01*
X141192372Y-92575052D01*
X141187429Y-92580506D01*
X141181975Y-92585449D01*
X141176064Y-92589833D01*
X141169751Y-92593617D01*
X141163097Y-92596764D01*
X141156167Y-92599244D01*
X141149028Y-92601032D01*
X141141747Y-92602112D01*
X141134396Y-92602473D01*
X140984396Y-92602473D01*
X140977045Y-92602112D01*
X140969764Y-92601032D01*
X140962625Y-92599244D01*
X140955695Y-92596764D01*
X140949041Y-92593617D01*
X140942728Y-92589833D01*
X140936817Y-92585449D01*
X140931363Y-92580506D01*
X140926420Y-92575052D01*
X140922036Y-92569141D01*
X140918252Y-92562828D01*
X140915105Y-92556174D01*
X140912625Y-92549244D01*
X140910837Y-92542105D01*
X140909757Y-92534824D01*
X140909396Y-92527473D01*
X140909396Y-91127473D01*
X140909757Y-91120122D01*
X140910837Y-91112841D01*
X140912625Y-91105702D01*
X140915105Y-91098772D01*
X140918252Y-91092118D01*
X140922036Y-91085805D01*
X140926420Y-91079894D01*
X140931363Y-91074440D01*
X140936817Y-91069497D01*
X140942728Y-91065113D01*
X140949041Y-91061329D01*
X140955695Y-91058182D01*
X140962625Y-91055702D01*
X140969764Y-91053914D01*
X140977045Y-91052834D01*
X140984396Y-91052473D01*
X141134396Y-91052473D01*
X141141747Y-91052834D01*
X141141747Y-91052834D01*
G37*
D16*
X141059396Y-91827473D03*
D12*
G36*
X141641747Y-91052834D02*
G01*
X141649028Y-91053914D01*
X141656167Y-91055702D01*
X141663097Y-91058182D01*
X141669751Y-91061329D01*
X141676064Y-91065113D01*
X141681975Y-91069497D01*
X141687429Y-91074440D01*
X141692372Y-91079894D01*
X141696756Y-91085805D01*
X141700540Y-91092118D01*
X141703687Y-91098772D01*
X141706167Y-91105702D01*
X141707955Y-91112841D01*
X141709035Y-91120122D01*
X141709396Y-91127473D01*
X141709396Y-92527473D01*
X141709035Y-92534824D01*
X141707955Y-92542105D01*
X141706167Y-92549244D01*
X141703687Y-92556174D01*
X141700540Y-92562828D01*
X141696756Y-92569141D01*
X141692372Y-92575052D01*
X141687429Y-92580506D01*
X141681975Y-92585449D01*
X141676064Y-92589833D01*
X141669751Y-92593617D01*
X141663097Y-92596764D01*
X141656167Y-92599244D01*
X141649028Y-92601032D01*
X141641747Y-92602112D01*
X141634396Y-92602473D01*
X141484396Y-92602473D01*
X141477045Y-92602112D01*
X141469764Y-92601032D01*
X141462625Y-92599244D01*
X141455695Y-92596764D01*
X141449041Y-92593617D01*
X141442728Y-92589833D01*
X141436817Y-92585449D01*
X141431363Y-92580506D01*
X141426420Y-92575052D01*
X141422036Y-92569141D01*
X141418252Y-92562828D01*
X141415105Y-92556174D01*
X141412625Y-92549244D01*
X141410837Y-92542105D01*
X141409757Y-92534824D01*
X141409396Y-92527473D01*
X141409396Y-91127473D01*
X141409757Y-91120122D01*
X141410837Y-91112841D01*
X141412625Y-91105702D01*
X141415105Y-91098772D01*
X141418252Y-91092118D01*
X141422036Y-91085805D01*
X141426420Y-91079894D01*
X141431363Y-91074440D01*
X141436817Y-91069497D01*
X141442728Y-91065113D01*
X141449041Y-91061329D01*
X141455695Y-91058182D01*
X141462625Y-91055702D01*
X141469764Y-91053914D01*
X141477045Y-91052834D01*
X141484396Y-91052473D01*
X141634396Y-91052473D01*
X141641747Y-91052834D01*
X141641747Y-91052834D01*
G37*
D16*
X141559396Y-91827473D03*
D12*
G36*
X142141747Y-91052834D02*
G01*
X142149028Y-91053914D01*
X142156167Y-91055702D01*
X142163097Y-91058182D01*
X142169751Y-91061329D01*
X142176064Y-91065113D01*
X142181975Y-91069497D01*
X142187429Y-91074440D01*
X142192372Y-91079894D01*
X142196756Y-91085805D01*
X142200540Y-91092118D01*
X142203687Y-91098772D01*
X142206167Y-91105702D01*
X142207955Y-91112841D01*
X142209035Y-91120122D01*
X142209396Y-91127473D01*
X142209396Y-92527473D01*
X142209035Y-92534824D01*
X142207955Y-92542105D01*
X142206167Y-92549244D01*
X142203687Y-92556174D01*
X142200540Y-92562828D01*
X142196756Y-92569141D01*
X142192372Y-92575052D01*
X142187429Y-92580506D01*
X142181975Y-92585449D01*
X142176064Y-92589833D01*
X142169751Y-92593617D01*
X142163097Y-92596764D01*
X142156167Y-92599244D01*
X142149028Y-92601032D01*
X142141747Y-92602112D01*
X142134396Y-92602473D01*
X141984396Y-92602473D01*
X141977045Y-92602112D01*
X141969764Y-92601032D01*
X141962625Y-92599244D01*
X141955695Y-92596764D01*
X141949041Y-92593617D01*
X141942728Y-92589833D01*
X141936817Y-92585449D01*
X141931363Y-92580506D01*
X141926420Y-92575052D01*
X141922036Y-92569141D01*
X141918252Y-92562828D01*
X141915105Y-92556174D01*
X141912625Y-92549244D01*
X141910837Y-92542105D01*
X141909757Y-92534824D01*
X141909396Y-92527473D01*
X141909396Y-91127473D01*
X141909757Y-91120122D01*
X141910837Y-91112841D01*
X141912625Y-91105702D01*
X141915105Y-91098772D01*
X141918252Y-91092118D01*
X141922036Y-91085805D01*
X141926420Y-91079894D01*
X141931363Y-91074440D01*
X141936817Y-91069497D01*
X141942728Y-91065113D01*
X141949041Y-91061329D01*
X141955695Y-91058182D01*
X141962625Y-91055702D01*
X141969764Y-91053914D01*
X141977045Y-91052834D01*
X141984396Y-91052473D01*
X142134396Y-91052473D01*
X142141747Y-91052834D01*
X142141747Y-91052834D01*
G37*
D16*
X142059396Y-91827473D03*
D12*
G36*
X142641747Y-91052834D02*
G01*
X142649028Y-91053914D01*
X142656167Y-91055702D01*
X142663097Y-91058182D01*
X142669751Y-91061329D01*
X142676064Y-91065113D01*
X142681975Y-91069497D01*
X142687429Y-91074440D01*
X142692372Y-91079894D01*
X142696756Y-91085805D01*
X142700540Y-91092118D01*
X142703687Y-91098772D01*
X142706167Y-91105702D01*
X142707955Y-91112841D01*
X142709035Y-91120122D01*
X142709396Y-91127473D01*
X142709396Y-92527473D01*
X142709035Y-92534824D01*
X142707955Y-92542105D01*
X142706167Y-92549244D01*
X142703687Y-92556174D01*
X142700540Y-92562828D01*
X142696756Y-92569141D01*
X142692372Y-92575052D01*
X142687429Y-92580506D01*
X142681975Y-92585449D01*
X142676064Y-92589833D01*
X142669751Y-92593617D01*
X142663097Y-92596764D01*
X142656167Y-92599244D01*
X142649028Y-92601032D01*
X142641747Y-92602112D01*
X142634396Y-92602473D01*
X142484396Y-92602473D01*
X142477045Y-92602112D01*
X142469764Y-92601032D01*
X142462625Y-92599244D01*
X142455695Y-92596764D01*
X142449041Y-92593617D01*
X142442728Y-92589833D01*
X142436817Y-92585449D01*
X142431363Y-92580506D01*
X142426420Y-92575052D01*
X142422036Y-92569141D01*
X142418252Y-92562828D01*
X142415105Y-92556174D01*
X142412625Y-92549244D01*
X142410837Y-92542105D01*
X142409757Y-92534824D01*
X142409396Y-92527473D01*
X142409396Y-91127473D01*
X142409757Y-91120122D01*
X142410837Y-91112841D01*
X142412625Y-91105702D01*
X142415105Y-91098772D01*
X142418252Y-91092118D01*
X142422036Y-91085805D01*
X142426420Y-91079894D01*
X142431363Y-91074440D01*
X142436817Y-91069497D01*
X142442728Y-91065113D01*
X142449041Y-91061329D01*
X142455695Y-91058182D01*
X142462625Y-91055702D01*
X142469764Y-91053914D01*
X142477045Y-91052834D01*
X142484396Y-91052473D01*
X142634396Y-91052473D01*
X142641747Y-91052834D01*
X142641747Y-91052834D01*
G37*
D16*
X142559396Y-91827473D03*
D12*
G36*
X143141747Y-91052834D02*
G01*
X143149028Y-91053914D01*
X143156167Y-91055702D01*
X143163097Y-91058182D01*
X143169751Y-91061329D01*
X143176064Y-91065113D01*
X143181975Y-91069497D01*
X143187429Y-91074440D01*
X143192372Y-91079894D01*
X143196756Y-91085805D01*
X143200540Y-91092118D01*
X143203687Y-91098772D01*
X143206167Y-91105702D01*
X143207955Y-91112841D01*
X143209035Y-91120122D01*
X143209396Y-91127473D01*
X143209396Y-92527473D01*
X143209035Y-92534824D01*
X143207955Y-92542105D01*
X143206167Y-92549244D01*
X143203687Y-92556174D01*
X143200540Y-92562828D01*
X143196756Y-92569141D01*
X143192372Y-92575052D01*
X143187429Y-92580506D01*
X143181975Y-92585449D01*
X143176064Y-92589833D01*
X143169751Y-92593617D01*
X143163097Y-92596764D01*
X143156167Y-92599244D01*
X143149028Y-92601032D01*
X143141747Y-92602112D01*
X143134396Y-92602473D01*
X142984396Y-92602473D01*
X142977045Y-92602112D01*
X142969764Y-92601032D01*
X142962625Y-92599244D01*
X142955695Y-92596764D01*
X142949041Y-92593617D01*
X142942728Y-92589833D01*
X142936817Y-92585449D01*
X142931363Y-92580506D01*
X142926420Y-92575052D01*
X142922036Y-92569141D01*
X142918252Y-92562828D01*
X142915105Y-92556174D01*
X142912625Y-92549244D01*
X142910837Y-92542105D01*
X142909757Y-92534824D01*
X142909396Y-92527473D01*
X142909396Y-91127473D01*
X142909757Y-91120122D01*
X142910837Y-91112841D01*
X142912625Y-91105702D01*
X142915105Y-91098772D01*
X142918252Y-91092118D01*
X142922036Y-91085805D01*
X142926420Y-91079894D01*
X142931363Y-91074440D01*
X142936817Y-91069497D01*
X142942728Y-91065113D01*
X142949041Y-91061329D01*
X142955695Y-91058182D01*
X142962625Y-91055702D01*
X142969764Y-91053914D01*
X142977045Y-91052834D01*
X142984396Y-91052473D01*
X143134396Y-91052473D01*
X143141747Y-91052834D01*
X143141747Y-91052834D01*
G37*
D16*
X143059396Y-91827473D03*
D12*
G36*
X143641747Y-91052834D02*
G01*
X143649028Y-91053914D01*
X143656167Y-91055702D01*
X143663097Y-91058182D01*
X143669751Y-91061329D01*
X143676064Y-91065113D01*
X143681975Y-91069497D01*
X143687429Y-91074440D01*
X143692372Y-91079894D01*
X143696756Y-91085805D01*
X143700540Y-91092118D01*
X143703687Y-91098772D01*
X143706167Y-91105702D01*
X143707955Y-91112841D01*
X143709035Y-91120122D01*
X143709396Y-91127473D01*
X143709396Y-92527473D01*
X143709035Y-92534824D01*
X143707955Y-92542105D01*
X143706167Y-92549244D01*
X143703687Y-92556174D01*
X143700540Y-92562828D01*
X143696756Y-92569141D01*
X143692372Y-92575052D01*
X143687429Y-92580506D01*
X143681975Y-92585449D01*
X143676064Y-92589833D01*
X143669751Y-92593617D01*
X143663097Y-92596764D01*
X143656167Y-92599244D01*
X143649028Y-92601032D01*
X143641747Y-92602112D01*
X143634396Y-92602473D01*
X143484396Y-92602473D01*
X143477045Y-92602112D01*
X143469764Y-92601032D01*
X143462625Y-92599244D01*
X143455695Y-92596764D01*
X143449041Y-92593617D01*
X143442728Y-92589833D01*
X143436817Y-92585449D01*
X143431363Y-92580506D01*
X143426420Y-92575052D01*
X143422036Y-92569141D01*
X143418252Y-92562828D01*
X143415105Y-92556174D01*
X143412625Y-92549244D01*
X143410837Y-92542105D01*
X143409757Y-92534824D01*
X143409396Y-92527473D01*
X143409396Y-91127473D01*
X143409757Y-91120122D01*
X143410837Y-91112841D01*
X143412625Y-91105702D01*
X143415105Y-91098772D01*
X143418252Y-91092118D01*
X143422036Y-91085805D01*
X143426420Y-91079894D01*
X143431363Y-91074440D01*
X143436817Y-91069497D01*
X143442728Y-91065113D01*
X143449041Y-91061329D01*
X143455695Y-91058182D01*
X143462625Y-91055702D01*
X143469764Y-91053914D01*
X143477045Y-91052834D01*
X143484396Y-91052473D01*
X143634396Y-91052473D01*
X143641747Y-91052834D01*
X143641747Y-91052834D01*
G37*
D16*
X143559396Y-91827473D03*
D12*
G36*
X144141747Y-91052834D02*
G01*
X144149028Y-91053914D01*
X144156167Y-91055702D01*
X144163097Y-91058182D01*
X144169751Y-91061329D01*
X144176064Y-91065113D01*
X144181975Y-91069497D01*
X144187429Y-91074440D01*
X144192372Y-91079894D01*
X144196756Y-91085805D01*
X144200540Y-91092118D01*
X144203687Y-91098772D01*
X144206167Y-91105702D01*
X144207955Y-91112841D01*
X144209035Y-91120122D01*
X144209396Y-91127473D01*
X144209396Y-92527473D01*
X144209035Y-92534824D01*
X144207955Y-92542105D01*
X144206167Y-92549244D01*
X144203687Y-92556174D01*
X144200540Y-92562828D01*
X144196756Y-92569141D01*
X144192372Y-92575052D01*
X144187429Y-92580506D01*
X144181975Y-92585449D01*
X144176064Y-92589833D01*
X144169751Y-92593617D01*
X144163097Y-92596764D01*
X144156167Y-92599244D01*
X144149028Y-92601032D01*
X144141747Y-92602112D01*
X144134396Y-92602473D01*
X143984396Y-92602473D01*
X143977045Y-92602112D01*
X143969764Y-92601032D01*
X143962625Y-92599244D01*
X143955695Y-92596764D01*
X143949041Y-92593617D01*
X143942728Y-92589833D01*
X143936817Y-92585449D01*
X143931363Y-92580506D01*
X143926420Y-92575052D01*
X143922036Y-92569141D01*
X143918252Y-92562828D01*
X143915105Y-92556174D01*
X143912625Y-92549244D01*
X143910837Y-92542105D01*
X143909757Y-92534824D01*
X143909396Y-92527473D01*
X143909396Y-91127473D01*
X143909757Y-91120122D01*
X143910837Y-91112841D01*
X143912625Y-91105702D01*
X143915105Y-91098772D01*
X143918252Y-91092118D01*
X143922036Y-91085805D01*
X143926420Y-91079894D01*
X143931363Y-91074440D01*
X143936817Y-91069497D01*
X143942728Y-91065113D01*
X143949041Y-91061329D01*
X143955695Y-91058182D01*
X143962625Y-91055702D01*
X143969764Y-91053914D01*
X143977045Y-91052834D01*
X143984396Y-91052473D01*
X144134396Y-91052473D01*
X144141747Y-91052834D01*
X144141747Y-91052834D01*
G37*
D16*
X144059396Y-91827473D03*
D12*
G36*
X144641747Y-91052834D02*
G01*
X144649028Y-91053914D01*
X144656167Y-91055702D01*
X144663097Y-91058182D01*
X144669751Y-91061329D01*
X144676064Y-91065113D01*
X144681975Y-91069497D01*
X144687429Y-91074440D01*
X144692372Y-91079894D01*
X144696756Y-91085805D01*
X144700540Y-91092118D01*
X144703687Y-91098772D01*
X144706167Y-91105702D01*
X144707955Y-91112841D01*
X144709035Y-91120122D01*
X144709396Y-91127473D01*
X144709396Y-92527473D01*
X144709035Y-92534824D01*
X144707955Y-92542105D01*
X144706167Y-92549244D01*
X144703687Y-92556174D01*
X144700540Y-92562828D01*
X144696756Y-92569141D01*
X144692372Y-92575052D01*
X144687429Y-92580506D01*
X144681975Y-92585449D01*
X144676064Y-92589833D01*
X144669751Y-92593617D01*
X144663097Y-92596764D01*
X144656167Y-92599244D01*
X144649028Y-92601032D01*
X144641747Y-92602112D01*
X144634396Y-92602473D01*
X144484396Y-92602473D01*
X144477045Y-92602112D01*
X144469764Y-92601032D01*
X144462625Y-92599244D01*
X144455695Y-92596764D01*
X144449041Y-92593617D01*
X144442728Y-92589833D01*
X144436817Y-92585449D01*
X144431363Y-92580506D01*
X144426420Y-92575052D01*
X144422036Y-92569141D01*
X144418252Y-92562828D01*
X144415105Y-92556174D01*
X144412625Y-92549244D01*
X144410837Y-92542105D01*
X144409757Y-92534824D01*
X144409396Y-92527473D01*
X144409396Y-91127473D01*
X144409757Y-91120122D01*
X144410837Y-91112841D01*
X144412625Y-91105702D01*
X144415105Y-91098772D01*
X144418252Y-91092118D01*
X144422036Y-91085805D01*
X144426420Y-91079894D01*
X144431363Y-91074440D01*
X144436817Y-91069497D01*
X144442728Y-91065113D01*
X144449041Y-91061329D01*
X144455695Y-91058182D01*
X144462625Y-91055702D01*
X144469764Y-91053914D01*
X144477045Y-91052834D01*
X144484396Y-91052473D01*
X144634396Y-91052473D01*
X144641747Y-91052834D01*
X144641747Y-91052834D01*
G37*
D16*
X144559396Y-91827473D03*
D12*
G36*
X145141747Y-91052834D02*
G01*
X145149028Y-91053914D01*
X145156167Y-91055702D01*
X145163097Y-91058182D01*
X145169751Y-91061329D01*
X145176064Y-91065113D01*
X145181975Y-91069497D01*
X145187429Y-91074440D01*
X145192372Y-91079894D01*
X145196756Y-91085805D01*
X145200540Y-91092118D01*
X145203687Y-91098772D01*
X145206167Y-91105702D01*
X145207955Y-91112841D01*
X145209035Y-91120122D01*
X145209396Y-91127473D01*
X145209396Y-92527473D01*
X145209035Y-92534824D01*
X145207955Y-92542105D01*
X145206167Y-92549244D01*
X145203687Y-92556174D01*
X145200540Y-92562828D01*
X145196756Y-92569141D01*
X145192372Y-92575052D01*
X145187429Y-92580506D01*
X145181975Y-92585449D01*
X145176064Y-92589833D01*
X145169751Y-92593617D01*
X145163097Y-92596764D01*
X145156167Y-92599244D01*
X145149028Y-92601032D01*
X145141747Y-92602112D01*
X145134396Y-92602473D01*
X144984396Y-92602473D01*
X144977045Y-92602112D01*
X144969764Y-92601032D01*
X144962625Y-92599244D01*
X144955695Y-92596764D01*
X144949041Y-92593617D01*
X144942728Y-92589833D01*
X144936817Y-92585449D01*
X144931363Y-92580506D01*
X144926420Y-92575052D01*
X144922036Y-92569141D01*
X144918252Y-92562828D01*
X144915105Y-92556174D01*
X144912625Y-92549244D01*
X144910837Y-92542105D01*
X144909757Y-92534824D01*
X144909396Y-92527473D01*
X144909396Y-91127473D01*
X144909757Y-91120122D01*
X144910837Y-91112841D01*
X144912625Y-91105702D01*
X144915105Y-91098772D01*
X144918252Y-91092118D01*
X144922036Y-91085805D01*
X144926420Y-91079894D01*
X144931363Y-91074440D01*
X144936817Y-91069497D01*
X144942728Y-91065113D01*
X144949041Y-91061329D01*
X144955695Y-91058182D01*
X144962625Y-91055702D01*
X144969764Y-91053914D01*
X144977045Y-91052834D01*
X144984396Y-91052473D01*
X145134396Y-91052473D01*
X145141747Y-91052834D01*
X145141747Y-91052834D01*
G37*
D16*
X145059396Y-91827473D03*
D12*
G36*
X145641747Y-91052834D02*
G01*
X145649028Y-91053914D01*
X145656167Y-91055702D01*
X145663097Y-91058182D01*
X145669751Y-91061329D01*
X145676064Y-91065113D01*
X145681975Y-91069497D01*
X145687429Y-91074440D01*
X145692372Y-91079894D01*
X145696756Y-91085805D01*
X145700540Y-91092118D01*
X145703687Y-91098772D01*
X145706167Y-91105702D01*
X145707955Y-91112841D01*
X145709035Y-91120122D01*
X145709396Y-91127473D01*
X145709396Y-92527473D01*
X145709035Y-92534824D01*
X145707955Y-92542105D01*
X145706167Y-92549244D01*
X145703687Y-92556174D01*
X145700540Y-92562828D01*
X145696756Y-92569141D01*
X145692372Y-92575052D01*
X145687429Y-92580506D01*
X145681975Y-92585449D01*
X145676064Y-92589833D01*
X145669751Y-92593617D01*
X145663097Y-92596764D01*
X145656167Y-92599244D01*
X145649028Y-92601032D01*
X145641747Y-92602112D01*
X145634396Y-92602473D01*
X145484396Y-92602473D01*
X145477045Y-92602112D01*
X145469764Y-92601032D01*
X145462625Y-92599244D01*
X145455695Y-92596764D01*
X145449041Y-92593617D01*
X145442728Y-92589833D01*
X145436817Y-92585449D01*
X145431363Y-92580506D01*
X145426420Y-92575052D01*
X145422036Y-92569141D01*
X145418252Y-92562828D01*
X145415105Y-92556174D01*
X145412625Y-92549244D01*
X145410837Y-92542105D01*
X145409757Y-92534824D01*
X145409396Y-92527473D01*
X145409396Y-91127473D01*
X145409757Y-91120122D01*
X145410837Y-91112841D01*
X145412625Y-91105702D01*
X145415105Y-91098772D01*
X145418252Y-91092118D01*
X145422036Y-91085805D01*
X145426420Y-91079894D01*
X145431363Y-91074440D01*
X145436817Y-91069497D01*
X145442728Y-91065113D01*
X145449041Y-91061329D01*
X145455695Y-91058182D01*
X145462625Y-91055702D01*
X145469764Y-91053914D01*
X145477045Y-91052834D01*
X145484396Y-91052473D01*
X145634396Y-91052473D01*
X145641747Y-91052834D01*
X145641747Y-91052834D01*
G37*
D16*
X145559396Y-91827473D03*
D12*
G36*
X146141747Y-91052834D02*
G01*
X146149028Y-91053914D01*
X146156167Y-91055702D01*
X146163097Y-91058182D01*
X146169751Y-91061329D01*
X146176064Y-91065113D01*
X146181975Y-91069497D01*
X146187429Y-91074440D01*
X146192372Y-91079894D01*
X146196756Y-91085805D01*
X146200540Y-91092118D01*
X146203687Y-91098772D01*
X146206167Y-91105702D01*
X146207955Y-91112841D01*
X146209035Y-91120122D01*
X146209396Y-91127473D01*
X146209396Y-92527473D01*
X146209035Y-92534824D01*
X146207955Y-92542105D01*
X146206167Y-92549244D01*
X146203687Y-92556174D01*
X146200540Y-92562828D01*
X146196756Y-92569141D01*
X146192372Y-92575052D01*
X146187429Y-92580506D01*
X146181975Y-92585449D01*
X146176064Y-92589833D01*
X146169751Y-92593617D01*
X146163097Y-92596764D01*
X146156167Y-92599244D01*
X146149028Y-92601032D01*
X146141747Y-92602112D01*
X146134396Y-92602473D01*
X145984396Y-92602473D01*
X145977045Y-92602112D01*
X145969764Y-92601032D01*
X145962625Y-92599244D01*
X145955695Y-92596764D01*
X145949041Y-92593617D01*
X145942728Y-92589833D01*
X145936817Y-92585449D01*
X145931363Y-92580506D01*
X145926420Y-92575052D01*
X145922036Y-92569141D01*
X145918252Y-92562828D01*
X145915105Y-92556174D01*
X145912625Y-92549244D01*
X145910837Y-92542105D01*
X145909757Y-92534824D01*
X145909396Y-92527473D01*
X145909396Y-91127473D01*
X145909757Y-91120122D01*
X145910837Y-91112841D01*
X145912625Y-91105702D01*
X145915105Y-91098772D01*
X145918252Y-91092118D01*
X145922036Y-91085805D01*
X145926420Y-91079894D01*
X145931363Y-91074440D01*
X145936817Y-91069497D01*
X145942728Y-91065113D01*
X145949041Y-91061329D01*
X145955695Y-91058182D01*
X145962625Y-91055702D01*
X145969764Y-91053914D01*
X145977045Y-91052834D01*
X145984396Y-91052473D01*
X146134396Y-91052473D01*
X146141747Y-91052834D01*
X146141747Y-91052834D01*
G37*
D16*
X146059396Y-91827473D03*
D12*
G36*
X146641747Y-91052834D02*
G01*
X146649028Y-91053914D01*
X146656167Y-91055702D01*
X146663097Y-91058182D01*
X146669751Y-91061329D01*
X146676064Y-91065113D01*
X146681975Y-91069497D01*
X146687429Y-91074440D01*
X146692372Y-91079894D01*
X146696756Y-91085805D01*
X146700540Y-91092118D01*
X146703687Y-91098772D01*
X146706167Y-91105702D01*
X146707955Y-91112841D01*
X146709035Y-91120122D01*
X146709396Y-91127473D01*
X146709396Y-92527473D01*
X146709035Y-92534824D01*
X146707955Y-92542105D01*
X146706167Y-92549244D01*
X146703687Y-92556174D01*
X146700540Y-92562828D01*
X146696756Y-92569141D01*
X146692372Y-92575052D01*
X146687429Y-92580506D01*
X146681975Y-92585449D01*
X146676064Y-92589833D01*
X146669751Y-92593617D01*
X146663097Y-92596764D01*
X146656167Y-92599244D01*
X146649028Y-92601032D01*
X146641747Y-92602112D01*
X146634396Y-92602473D01*
X146484396Y-92602473D01*
X146477045Y-92602112D01*
X146469764Y-92601032D01*
X146462625Y-92599244D01*
X146455695Y-92596764D01*
X146449041Y-92593617D01*
X146442728Y-92589833D01*
X146436817Y-92585449D01*
X146431363Y-92580506D01*
X146426420Y-92575052D01*
X146422036Y-92569141D01*
X146418252Y-92562828D01*
X146415105Y-92556174D01*
X146412625Y-92549244D01*
X146410837Y-92542105D01*
X146409757Y-92534824D01*
X146409396Y-92527473D01*
X146409396Y-91127473D01*
X146409757Y-91120122D01*
X146410837Y-91112841D01*
X146412625Y-91105702D01*
X146415105Y-91098772D01*
X146418252Y-91092118D01*
X146422036Y-91085805D01*
X146426420Y-91079894D01*
X146431363Y-91074440D01*
X146436817Y-91069497D01*
X146442728Y-91065113D01*
X146449041Y-91061329D01*
X146455695Y-91058182D01*
X146462625Y-91055702D01*
X146469764Y-91053914D01*
X146477045Y-91052834D01*
X146484396Y-91052473D01*
X146634396Y-91052473D01*
X146641747Y-91052834D01*
X146641747Y-91052834D01*
G37*
D16*
X146559396Y-91827473D03*
D12*
G36*
X149191747Y-93602834D02*
G01*
X149199028Y-93603914D01*
X149206167Y-93605702D01*
X149213097Y-93608182D01*
X149219751Y-93611329D01*
X149226064Y-93615113D01*
X149231975Y-93619497D01*
X149237429Y-93624440D01*
X149242372Y-93629894D01*
X149246756Y-93635805D01*
X149250540Y-93642118D01*
X149253687Y-93648772D01*
X149256167Y-93655702D01*
X149257955Y-93662841D01*
X149259035Y-93670122D01*
X149259396Y-93677473D01*
X149259396Y-93827473D01*
X149259035Y-93834824D01*
X149257955Y-93842105D01*
X149256167Y-93849244D01*
X149253687Y-93856174D01*
X149250540Y-93862828D01*
X149246756Y-93869141D01*
X149242372Y-93875052D01*
X149237429Y-93880506D01*
X149231975Y-93885449D01*
X149226064Y-93889833D01*
X149219751Y-93893617D01*
X149213097Y-93896764D01*
X149206167Y-93899244D01*
X149199028Y-93901032D01*
X149191747Y-93902112D01*
X149184396Y-93902473D01*
X147784396Y-93902473D01*
X147777045Y-93902112D01*
X147769764Y-93901032D01*
X147762625Y-93899244D01*
X147755695Y-93896764D01*
X147749041Y-93893617D01*
X147742728Y-93889833D01*
X147736817Y-93885449D01*
X147731363Y-93880506D01*
X147726420Y-93875052D01*
X147722036Y-93869141D01*
X147718252Y-93862828D01*
X147715105Y-93856174D01*
X147712625Y-93849244D01*
X147710837Y-93842105D01*
X147709757Y-93834824D01*
X147709396Y-93827473D01*
X147709396Y-93677473D01*
X147709757Y-93670122D01*
X147710837Y-93662841D01*
X147712625Y-93655702D01*
X147715105Y-93648772D01*
X147718252Y-93642118D01*
X147722036Y-93635805D01*
X147726420Y-93629894D01*
X147731363Y-93624440D01*
X147736817Y-93619497D01*
X147742728Y-93615113D01*
X147749041Y-93611329D01*
X147755695Y-93608182D01*
X147762625Y-93605702D01*
X147769764Y-93603914D01*
X147777045Y-93602834D01*
X147784396Y-93602473D01*
X149184396Y-93602473D01*
X149191747Y-93602834D01*
X149191747Y-93602834D01*
G37*
D16*
X148484396Y-93752473D03*
D12*
G36*
X149191747Y-94102834D02*
G01*
X149199028Y-94103914D01*
X149206167Y-94105702D01*
X149213097Y-94108182D01*
X149219751Y-94111329D01*
X149226064Y-94115113D01*
X149231975Y-94119497D01*
X149237429Y-94124440D01*
X149242372Y-94129894D01*
X149246756Y-94135805D01*
X149250540Y-94142118D01*
X149253687Y-94148772D01*
X149256167Y-94155702D01*
X149257955Y-94162841D01*
X149259035Y-94170122D01*
X149259396Y-94177473D01*
X149259396Y-94327473D01*
X149259035Y-94334824D01*
X149257955Y-94342105D01*
X149256167Y-94349244D01*
X149253687Y-94356174D01*
X149250540Y-94362828D01*
X149246756Y-94369141D01*
X149242372Y-94375052D01*
X149237429Y-94380506D01*
X149231975Y-94385449D01*
X149226064Y-94389833D01*
X149219751Y-94393617D01*
X149213097Y-94396764D01*
X149206167Y-94399244D01*
X149199028Y-94401032D01*
X149191747Y-94402112D01*
X149184396Y-94402473D01*
X147784396Y-94402473D01*
X147777045Y-94402112D01*
X147769764Y-94401032D01*
X147762625Y-94399244D01*
X147755695Y-94396764D01*
X147749041Y-94393617D01*
X147742728Y-94389833D01*
X147736817Y-94385449D01*
X147731363Y-94380506D01*
X147726420Y-94375052D01*
X147722036Y-94369141D01*
X147718252Y-94362828D01*
X147715105Y-94356174D01*
X147712625Y-94349244D01*
X147710837Y-94342105D01*
X147709757Y-94334824D01*
X147709396Y-94327473D01*
X147709396Y-94177473D01*
X147709757Y-94170122D01*
X147710837Y-94162841D01*
X147712625Y-94155702D01*
X147715105Y-94148772D01*
X147718252Y-94142118D01*
X147722036Y-94135805D01*
X147726420Y-94129894D01*
X147731363Y-94124440D01*
X147736817Y-94119497D01*
X147742728Y-94115113D01*
X147749041Y-94111329D01*
X147755695Y-94108182D01*
X147762625Y-94105702D01*
X147769764Y-94103914D01*
X147777045Y-94102834D01*
X147784396Y-94102473D01*
X149184396Y-94102473D01*
X149191747Y-94102834D01*
X149191747Y-94102834D01*
G37*
D16*
X148484396Y-94252473D03*
D12*
G36*
X149191747Y-94602834D02*
G01*
X149199028Y-94603914D01*
X149206167Y-94605702D01*
X149213097Y-94608182D01*
X149219751Y-94611329D01*
X149226064Y-94615113D01*
X149231975Y-94619497D01*
X149237429Y-94624440D01*
X149242372Y-94629894D01*
X149246756Y-94635805D01*
X149250540Y-94642118D01*
X149253687Y-94648772D01*
X149256167Y-94655702D01*
X149257955Y-94662841D01*
X149259035Y-94670122D01*
X149259396Y-94677473D01*
X149259396Y-94827473D01*
X149259035Y-94834824D01*
X149257955Y-94842105D01*
X149256167Y-94849244D01*
X149253687Y-94856174D01*
X149250540Y-94862828D01*
X149246756Y-94869141D01*
X149242372Y-94875052D01*
X149237429Y-94880506D01*
X149231975Y-94885449D01*
X149226064Y-94889833D01*
X149219751Y-94893617D01*
X149213097Y-94896764D01*
X149206167Y-94899244D01*
X149199028Y-94901032D01*
X149191747Y-94902112D01*
X149184396Y-94902473D01*
X147784396Y-94902473D01*
X147777045Y-94902112D01*
X147769764Y-94901032D01*
X147762625Y-94899244D01*
X147755695Y-94896764D01*
X147749041Y-94893617D01*
X147742728Y-94889833D01*
X147736817Y-94885449D01*
X147731363Y-94880506D01*
X147726420Y-94875052D01*
X147722036Y-94869141D01*
X147718252Y-94862828D01*
X147715105Y-94856174D01*
X147712625Y-94849244D01*
X147710837Y-94842105D01*
X147709757Y-94834824D01*
X147709396Y-94827473D01*
X147709396Y-94677473D01*
X147709757Y-94670122D01*
X147710837Y-94662841D01*
X147712625Y-94655702D01*
X147715105Y-94648772D01*
X147718252Y-94642118D01*
X147722036Y-94635805D01*
X147726420Y-94629894D01*
X147731363Y-94624440D01*
X147736817Y-94619497D01*
X147742728Y-94615113D01*
X147749041Y-94611329D01*
X147755695Y-94608182D01*
X147762625Y-94605702D01*
X147769764Y-94603914D01*
X147777045Y-94602834D01*
X147784396Y-94602473D01*
X149184396Y-94602473D01*
X149191747Y-94602834D01*
X149191747Y-94602834D01*
G37*
D16*
X148484396Y-94752473D03*
D12*
G36*
X149191747Y-95102834D02*
G01*
X149199028Y-95103914D01*
X149206167Y-95105702D01*
X149213097Y-95108182D01*
X149219751Y-95111329D01*
X149226064Y-95115113D01*
X149231975Y-95119497D01*
X149237429Y-95124440D01*
X149242372Y-95129894D01*
X149246756Y-95135805D01*
X149250540Y-95142118D01*
X149253687Y-95148772D01*
X149256167Y-95155702D01*
X149257955Y-95162841D01*
X149259035Y-95170122D01*
X149259396Y-95177473D01*
X149259396Y-95327473D01*
X149259035Y-95334824D01*
X149257955Y-95342105D01*
X149256167Y-95349244D01*
X149253687Y-95356174D01*
X149250540Y-95362828D01*
X149246756Y-95369141D01*
X149242372Y-95375052D01*
X149237429Y-95380506D01*
X149231975Y-95385449D01*
X149226064Y-95389833D01*
X149219751Y-95393617D01*
X149213097Y-95396764D01*
X149206167Y-95399244D01*
X149199028Y-95401032D01*
X149191747Y-95402112D01*
X149184396Y-95402473D01*
X147784396Y-95402473D01*
X147777045Y-95402112D01*
X147769764Y-95401032D01*
X147762625Y-95399244D01*
X147755695Y-95396764D01*
X147749041Y-95393617D01*
X147742728Y-95389833D01*
X147736817Y-95385449D01*
X147731363Y-95380506D01*
X147726420Y-95375052D01*
X147722036Y-95369141D01*
X147718252Y-95362828D01*
X147715105Y-95356174D01*
X147712625Y-95349244D01*
X147710837Y-95342105D01*
X147709757Y-95334824D01*
X147709396Y-95327473D01*
X147709396Y-95177473D01*
X147709757Y-95170122D01*
X147710837Y-95162841D01*
X147712625Y-95155702D01*
X147715105Y-95148772D01*
X147718252Y-95142118D01*
X147722036Y-95135805D01*
X147726420Y-95129894D01*
X147731363Y-95124440D01*
X147736817Y-95119497D01*
X147742728Y-95115113D01*
X147749041Y-95111329D01*
X147755695Y-95108182D01*
X147762625Y-95105702D01*
X147769764Y-95103914D01*
X147777045Y-95102834D01*
X147784396Y-95102473D01*
X149184396Y-95102473D01*
X149191747Y-95102834D01*
X149191747Y-95102834D01*
G37*
D16*
X148484396Y-95252473D03*
D12*
G36*
X149191747Y-95602834D02*
G01*
X149199028Y-95603914D01*
X149206167Y-95605702D01*
X149213097Y-95608182D01*
X149219751Y-95611329D01*
X149226064Y-95615113D01*
X149231975Y-95619497D01*
X149237429Y-95624440D01*
X149242372Y-95629894D01*
X149246756Y-95635805D01*
X149250540Y-95642118D01*
X149253687Y-95648772D01*
X149256167Y-95655702D01*
X149257955Y-95662841D01*
X149259035Y-95670122D01*
X149259396Y-95677473D01*
X149259396Y-95827473D01*
X149259035Y-95834824D01*
X149257955Y-95842105D01*
X149256167Y-95849244D01*
X149253687Y-95856174D01*
X149250540Y-95862828D01*
X149246756Y-95869141D01*
X149242372Y-95875052D01*
X149237429Y-95880506D01*
X149231975Y-95885449D01*
X149226064Y-95889833D01*
X149219751Y-95893617D01*
X149213097Y-95896764D01*
X149206167Y-95899244D01*
X149199028Y-95901032D01*
X149191747Y-95902112D01*
X149184396Y-95902473D01*
X147784396Y-95902473D01*
X147777045Y-95902112D01*
X147769764Y-95901032D01*
X147762625Y-95899244D01*
X147755695Y-95896764D01*
X147749041Y-95893617D01*
X147742728Y-95889833D01*
X147736817Y-95885449D01*
X147731363Y-95880506D01*
X147726420Y-95875052D01*
X147722036Y-95869141D01*
X147718252Y-95862828D01*
X147715105Y-95856174D01*
X147712625Y-95849244D01*
X147710837Y-95842105D01*
X147709757Y-95834824D01*
X147709396Y-95827473D01*
X147709396Y-95677473D01*
X147709757Y-95670122D01*
X147710837Y-95662841D01*
X147712625Y-95655702D01*
X147715105Y-95648772D01*
X147718252Y-95642118D01*
X147722036Y-95635805D01*
X147726420Y-95629894D01*
X147731363Y-95624440D01*
X147736817Y-95619497D01*
X147742728Y-95615113D01*
X147749041Y-95611329D01*
X147755695Y-95608182D01*
X147762625Y-95605702D01*
X147769764Y-95603914D01*
X147777045Y-95602834D01*
X147784396Y-95602473D01*
X149184396Y-95602473D01*
X149191747Y-95602834D01*
X149191747Y-95602834D01*
G37*
D16*
X148484396Y-95752473D03*
D12*
G36*
X149191747Y-96102834D02*
G01*
X149199028Y-96103914D01*
X149206167Y-96105702D01*
X149213097Y-96108182D01*
X149219751Y-96111329D01*
X149226064Y-96115113D01*
X149231975Y-96119497D01*
X149237429Y-96124440D01*
X149242372Y-96129894D01*
X149246756Y-96135805D01*
X149250540Y-96142118D01*
X149253687Y-96148772D01*
X149256167Y-96155702D01*
X149257955Y-96162841D01*
X149259035Y-96170122D01*
X149259396Y-96177473D01*
X149259396Y-96327473D01*
X149259035Y-96334824D01*
X149257955Y-96342105D01*
X149256167Y-96349244D01*
X149253687Y-96356174D01*
X149250540Y-96362828D01*
X149246756Y-96369141D01*
X149242372Y-96375052D01*
X149237429Y-96380506D01*
X149231975Y-96385449D01*
X149226064Y-96389833D01*
X149219751Y-96393617D01*
X149213097Y-96396764D01*
X149206167Y-96399244D01*
X149199028Y-96401032D01*
X149191747Y-96402112D01*
X149184396Y-96402473D01*
X147784396Y-96402473D01*
X147777045Y-96402112D01*
X147769764Y-96401032D01*
X147762625Y-96399244D01*
X147755695Y-96396764D01*
X147749041Y-96393617D01*
X147742728Y-96389833D01*
X147736817Y-96385449D01*
X147731363Y-96380506D01*
X147726420Y-96375052D01*
X147722036Y-96369141D01*
X147718252Y-96362828D01*
X147715105Y-96356174D01*
X147712625Y-96349244D01*
X147710837Y-96342105D01*
X147709757Y-96334824D01*
X147709396Y-96327473D01*
X147709396Y-96177473D01*
X147709757Y-96170122D01*
X147710837Y-96162841D01*
X147712625Y-96155702D01*
X147715105Y-96148772D01*
X147718252Y-96142118D01*
X147722036Y-96135805D01*
X147726420Y-96129894D01*
X147731363Y-96124440D01*
X147736817Y-96119497D01*
X147742728Y-96115113D01*
X147749041Y-96111329D01*
X147755695Y-96108182D01*
X147762625Y-96105702D01*
X147769764Y-96103914D01*
X147777045Y-96102834D01*
X147784396Y-96102473D01*
X149184396Y-96102473D01*
X149191747Y-96102834D01*
X149191747Y-96102834D01*
G37*
D16*
X148484396Y-96252473D03*
D12*
G36*
X149191747Y-96602834D02*
G01*
X149199028Y-96603914D01*
X149206167Y-96605702D01*
X149213097Y-96608182D01*
X149219751Y-96611329D01*
X149226064Y-96615113D01*
X149231975Y-96619497D01*
X149237429Y-96624440D01*
X149242372Y-96629894D01*
X149246756Y-96635805D01*
X149250540Y-96642118D01*
X149253687Y-96648772D01*
X149256167Y-96655702D01*
X149257955Y-96662841D01*
X149259035Y-96670122D01*
X149259396Y-96677473D01*
X149259396Y-96827473D01*
X149259035Y-96834824D01*
X149257955Y-96842105D01*
X149256167Y-96849244D01*
X149253687Y-96856174D01*
X149250540Y-96862828D01*
X149246756Y-96869141D01*
X149242372Y-96875052D01*
X149237429Y-96880506D01*
X149231975Y-96885449D01*
X149226064Y-96889833D01*
X149219751Y-96893617D01*
X149213097Y-96896764D01*
X149206167Y-96899244D01*
X149199028Y-96901032D01*
X149191747Y-96902112D01*
X149184396Y-96902473D01*
X147784396Y-96902473D01*
X147777045Y-96902112D01*
X147769764Y-96901032D01*
X147762625Y-96899244D01*
X147755695Y-96896764D01*
X147749041Y-96893617D01*
X147742728Y-96889833D01*
X147736817Y-96885449D01*
X147731363Y-96880506D01*
X147726420Y-96875052D01*
X147722036Y-96869141D01*
X147718252Y-96862828D01*
X147715105Y-96856174D01*
X147712625Y-96849244D01*
X147710837Y-96842105D01*
X147709757Y-96834824D01*
X147709396Y-96827473D01*
X147709396Y-96677473D01*
X147709757Y-96670122D01*
X147710837Y-96662841D01*
X147712625Y-96655702D01*
X147715105Y-96648772D01*
X147718252Y-96642118D01*
X147722036Y-96635805D01*
X147726420Y-96629894D01*
X147731363Y-96624440D01*
X147736817Y-96619497D01*
X147742728Y-96615113D01*
X147749041Y-96611329D01*
X147755695Y-96608182D01*
X147762625Y-96605702D01*
X147769764Y-96603914D01*
X147777045Y-96602834D01*
X147784396Y-96602473D01*
X149184396Y-96602473D01*
X149191747Y-96602834D01*
X149191747Y-96602834D01*
G37*
D16*
X148484396Y-96752473D03*
D12*
G36*
X149191747Y-97102834D02*
G01*
X149199028Y-97103914D01*
X149206167Y-97105702D01*
X149213097Y-97108182D01*
X149219751Y-97111329D01*
X149226064Y-97115113D01*
X149231975Y-97119497D01*
X149237429Y-97124440D01*
X149242372Y-97129894D01*
X149246756Y-97135805D01*
X149250540Y-97142118D01*
X149253687Y-97148772D01*
X149256167Y-97155702D01*
X149257955Y-97162841D01*
X149259035Y-97170122D01*
X149259396Y-97177473D01*
X149259396Y-97327473D01*
X149259035Y-97334824D01*
X149257955Y-97342105D01*
X149256167Y-97349244D01*
X149253687Y-97356174D01*
X149250540Y-97362828D01*
X149246756Y-97369141D01*
X149242372Y-97375052D01*
X149237429Y-97380506D01*
X149231975Y-97385449D01*
X149226064Y-97389833D01*
X149219751Y-97393617D01*
X149213097Y-97396764D01*
X149206167Y-97399244D01*
X149199028Y-97401032D01*
X149191747Y-97402112D01*
X149184396Y-97402473D01*
X147784396Y-97402473D01*
X147777045Y-97402112D01*
X147769764Y-97401032D01*
X147762625Y-97399244D01*
X147755695Y-97396764D01*
X147749041Y-97393617D01*
X147742728Y-97389833D01*
X147736817Y-97385449D01*
X147731363Y-97380506D01*
X147726420Y-97375052D01*
X147722036Y-97369141D01*
X147718252Y-97362828D01*
X147715105Y-97356174D01*
X147712625Y-97349244D01*
X147710837Y-97342105D01*
X147709757Y-97334824D01*
X147709396Y-97327473D01*
X147709396Y-97177473D01*
X147709757Y-97170122D01*
X147710837Y-97162841D01*
X147712625Y-97155702D01*
X147715105Y-97148772D01*
X147718252Y-97142118D01*
X147722036Y-97135805D01*
X147726420Y-97129894D01*
X147731363Y-97124440D01*
X147736817Y-97119497D01*
X147742728Y-97115113D01*
X147749041Y-97111329D01*
X147755695Y-97108182D01*
X147762625Y-97105702D01*
X147769764Y-97103914D01*
X147777045Y-97102834D01*
X147784396Y-97102473D01*
X149184396Y-97102473D01*
X149191747Y-97102834D01*
X149191747Y-97102834D01*
G37*
D16*
X148484396Y-97252473D03*
D12*
G36*
X149191747Y-97602834D02*
G01*
X149199028Y-97603914D01*
X149206167Y-97605702D01*
X149213097Y-97608182D01*
X149219751Y-97611329D01*
X149226064Y-97615113D01*
X149231975Y-97619497D01*
X149237429Y-97624440D01*
X149242372Y-97629894D01*
X149246756Y-97635805D01*
X149250540Y-97642118D01*
X149253687Y-97648772D01*
X149256167Y-97655702D01*
X149257955Y-97662841D01*
X149259035Y-97670122D01*
X149259396Y-97677473D01*
X149259396Y-97827473D01*
X149259035Y-97834824D01*
X149257955Y-97842105D01*
X149256167Y-97849244D01*
X149253687Y-97856174D01*
X149250540Y-97862828D01*
X149246756Y-97869141D01*
X149242372Y-97875052D01*
X149237429Y-97880506D01*
X149231975Y-97885449D01*
X149226064Y-97889833D01*
X149219751Y-97893617D01*
X149213097Y-97896764D01*
X149206167Y-97899244D01*
X149199028Y-97901032D01*
X149191747Y-97902112D01*
X149184396Y-97902473D01*
X147784396Y-97902473D01*
X147777045Y-97902112D01*
X147769764Y-97901032D01*
X147762625Y-97899244D01*
X147755695Y-97896764D01*
X147749041Y-97893617D01*
X147742728Y-97889833D01*
X147736817Y-97885449D01*
X147731363Y-97880506D01*
X147726420Y-97875052D01*
X147722036Y-97869141D01*
X147718252Y-97862828D01*
X147715105Y-97856174D01*
X147712625Y-97849244D01*
X147710837Y-97842105D01*
X147709757Y-97834824D01*
X147709396Y-97827473D01*
X147709396Y-97677473D01*
X147709757Y-97670122D01*
X147710837Y-97662841D01*
X147712625Y-97655702D01*
X147715105Y-97648772D01*
X147718252Y-97642118D01*
X147722036Y-97635805D01*
X147726420Y-97629894D01*
X147731363Y-97624440D01*
X147736817Y-97619497D01*
X147742728Y-97615113D01*
X147749041Y-97611329D01*
X147755695Y-97608182D01*
X147762625Y-97605702D01*
X147769764Y-97603914D01*
X147777045Y-97602834D01*
X147784396Y-97602473D01*
X149184396Y-97602473D01*
X149191747Y-97602834D01*
X149191747Y-97602834D01*
G37*
D16*
X148484396Y-97752473D03*
D12*
G36*
X149191747Y-98102834D02*
G01*
X149199028Y-98103914D01*
X149206167Y-98105702D01*
X149213097Y-98108182D01*
X149219751Y-98111329D01*
X149226064Y-98115113D01*
X149231975Y-98119497D01*
X149237429Y-98124440D01*
X149242372Y-98129894D01*
X149246756Y-98135805D01*
X149250540Y-98142118D01*
X149253687Y-98148772D01*
X149256167Y-98155702D01*
X149257955Y-98162841D01*
X149259035Y-98170122D01*
X149259396Y-98177473D01*
X149259396Y-98327473D01*
X149259035Y-98334824D01*
X149257955Y-98342105D01*
X149256167Y-98349244D01*
X149253687Y-98356174D01*
X149250540Y-98362828D01*
X149246756Y-98369141D01*
X149242372Y-98375052D01*
X149237429Y-98380506D01*
X149231975Y-98385449D01*
X149226064Y-98389833D01*
X149219751Y-98393617D01*
X149213097Y-98396764D01*
X149206167Y-98399244D01*
X149199028Y-98401032D01*
X149191747Y-98402112D01*
X149184396Y-98402473D01*
X147784396Y-98402473D01*
X147777045Y-98402112D01*
X147769764Y-98401032D01*
X147762625Y-98399244D01*
X147755695Y-98396764D01*
X147749041Y-98393617D01*
X147742728Y-98389833D01*
X147736817Y-98385449D01*
X147731363Y-98380506D01*
X147726420Y-98375052D01*
X147722036Y-98369141D01*
X147718252Y-98362828D01*
X147715105Y-98356174D01*
X147712625Y-98349244D01*
X147710837Y-98342105D01*
X147709757Y-98334824D01*
X147709396Y-98327473D01*
X147709396Y-98177473D01*
X147709757Y-98170122D01*
X147710837Y-98162841D01*
X147712625Y-98155702D01*
X147715105Y-98148772D01*
X147718252Y-98142118D01*
X147722036Y-98135805D01*
X147726420Y-98129894D01*
X147731363Y-98124440D01*
X147736817Y-98119497D01*
X147742728Y-98115113D01*
X147749041Y-98111329D01*
X147755695Y-98108182D01*
X147762625Y-98105702D01*
X147769764Y-98103914D01*
X147777045Y-98102834D01*
X147784396Y-98102473D01*
X149184396Y-98102473D01*
X149191747Y-98102834D01*
X149191747Y-98102834D01*
G37*
D16*
X148484396Y-98252473D03*
D12*
G36*
X149191747Y-98602834D02*
G01*
X149199028Y-98603914D01*
X149206167Y-98605702D01*
X149213097Y-98608182D01*
X149219751Y-98611329D01*
X149226064Y-98615113D01*
X149231975Y-98619497D01*
X149237429Y-98624440D01*
X149242372Y-98629894D01*
X149246756Y-98635805D01*
X149250540Y-98642118D01*
X149253687Y-98648772D01*
X149256167Y-98655702D01*
X149257955Y-98662841D01*
X149259035Y-98670122D01*
X149259396Y-98677473D01*
X149259396Y-98827473D01*
X149259035Y-98834824D01*
X149257955Y-98842105D01*
X149256167Y-98849244D01*
X149253687Y-98856174D01*
X149250540Y-98862828D01*
X149246756Y-98869141D01*
X149242372Y-98875052D01*
X149237429Y-98880506D01*
X149231975Y-98885449D01*
X149226064Y-98889833D01*
X149219751Y-98893617D01*
X149213097Y-98896764D01*
X149206167Y-98899244D01*
X149199028Y-98901032D01*
X149191747Y-98902112D01*
X149184396Y-98902473D01*
X147784396Y-98902473D01*
X147777045Y-98902112D01*
X147769764Y-98901032D01*
X147762625Y-98899244D01*
X147755695Y-98896764D01*
X147749041Y-98893617D01*
X147742728Y-98889833D01*
X147736817Y-98885449D01*
X147731363Y-98880506D01*
X147726420Y-98875052D01*
X147722036Y-98869141D01*
X147718252Y-98862828D01*
X147715105Y-98856174D01*
X147712625Y-98849244D01*
X147710837Y-98842105D01*
X147709757Y-98834824D01*
X147709396Y-98827473D01*
X147709396Y-98677473D01*
X147709757Y-98670122D01*
X147710837Y-98662841D01*
X147712625Y-98655702D01*
X147715105Y-98648772D01*
X147718252Y-98642118D01*
X147722036Y-98635805D01*
X147726420Y-98629894D01*
X147731363Y-98624440D01*
X147736817Y-98619497D01*
X147742728Y-98615113D01*
X147749041Y-98611329D01*
X147755695Y-98608182D01*
X147762625Y-98605702D01*
X147769764Y-98603914D01*
X147777045Y-98602834D01*
X147784396Y-98602473D01*
X149184396Y-98602473D01*
X149191747Y-98602834D01*
X149191747Y-98602834D01*
G37*
D16*
X148484396Y-98752473D03*
D12*
G36*
X149191747Y-99102834D02*
G01*
X149199028Y-99103914D01*
X149206167Y-99105702D01*
X149213097Y-99108182D01*
X149219751Y-99111329D01*
X149226064Y-99115113D01*
X149231975Y-99119497D01*
X149237429Y-99124440D01*
X149242372Y-99129894D01*
X149246756Y-99135805D01*
X149250540Y-99142118D01*
X149253687Y-99148772D01*
X149256167Y-99155702D01*
X149257955Y-99162841D01*
X149259035Y-99170122D01*
X149259396Y-99177473D01*
X149259396Y-99327473D01*
X149259035Y-99334824D01*
X149257955Y-99342105D01*
X149256167Y-99349244D01*
X149253687Y-99356174D01*
X149250540Y-99362828D01*
X149246756Y-99369141D01*
X149242372Y-99375052D01*
X149237429Y-99380506D01*
X149231975Y-99385449D01*
X149226064Y-99389833D01*
X149219751Y-99393617D01*
X149213097Y-99396764D01*
X149206167Y-99399244D01*
X149199028Y-99401032D01*
X149191747Y-99402112D01*
X149184396Y-99402473D01*
X147784396Y-99402473D01*
X147777045Y-99402112D01*
X147769764Y-99401032D01*
X147762625Y-99399244D01*
X147755695Y-99396764D01*
X147749041Y-99393617D01*
X147742728Y-99389833D01*
X147736817Y-99385449D01*
X147731363Y-99380506D01*
X147726420Y-99375052D01*
X147722036Y-99369141D01*
X147718252Y-99362828D01*
X147715105Y-99356174D01*
X147712625Y-99349244D01*
X147710837Y-99342105D01*
X147709757Y-99334824D01*
X147709396Y-99327473D01*
X147709396Y-99177473D01*
X147709757Y-99170122D01*
X147710837Y-99162841D01*
X147712625Y-99155702D01*
X147715105Y-99148772D01*
X147718252Y-99142118D01*
X147722036Y-99135805D01*
X147726420Y-99129894D01*
X147731363Y-99124440D01*
X147736817Y-99119497D01*
X147742728Y-99115113D01*
X147749041Y-99111329D01*
X147755695Y-99108182D01*
X147762625Y-99105702D01*
X147769764Y-99103914D01*
X147777045Y-99102834D01*
X147784396Y-99102473D01*
X149184396Y-99102473D01*
X149191747Y-99102834D01*
X149191747Y-99102834D01*
G37*
D16*
X148484396Y-99252473D03*
D12*
G36*
X149191747Y-99602834D02*
G01*
X149199028Y-99603914D01*
X149206167Y-99605702D01*
X149213097Y-99608182D01*
X149219751Y-99611329D01*
X149226064Y-99615113D01*
X149231975Y-99619497D01*
X149237429Y-99624440D01*
X149242372Y-99629894D01*
X149246756Y-99635805D01*
X149250540Y-99642118D01*
X149253687Y-99648772D01*
X149256167Y-99655702D01*
X149257955Y-99662841D01*
X149259035Y-99670122D01*
X149259396Y-99677473D01*
X149259396Y-99827473D01*
X149259035Y-99834824D01*
X149257955Y-99842105D01*
X149256167Y-99849244D01*
X149253687Y-99856174D01*
X149250540Y-99862828D01*
X149246756Y-99869141D01*
X149242372Y-99875052D01*
X149237429Y-99880506D01*
X149231975Y-99885449D01*
X149226064Y-99889833D01*
X149219751Y-99893617D01*
X149213097Y-99896764D01*
X149206167Y-99899244D01*
X149199028Y-99901032D01*
X149191747Y-99902112D01*
X149184396Y-99902473D01*
X147784396Y-99902473D01*
X147777045Y-99902112D01*
X147769764Y-99901032D01*
X147762625Y-99899244D01*
X147755695Y-99896764D01*
X147749041Y-99893617D01*
X147742728Y-99889833D01*
X147736817Y-99885449D01*
X147731363Y-99880506D01*
X147726420Y-99875052D01*
X147722036Y-99869141D01*
X147718252Y-99862828D01*
X147715105Y-99856174D01*
X147712625Y-99849244D01*
X147710837Y-99842105D01*
X147709757Y-99834824D01*
X147709396Y-99827473D01*
X147709396Y-99677473D01*
X147709757Y-99670122D01*
X147710837Y-99662841D01*
X147712625Y-99655702D01*
X147715105Y-99648772D01*
X147718252Y-99642118D01*
X147722036Y-99635805D01*
X147726420Y-99629894D01*
X147731363Y-99624440D01*
X147736817Y-99619497D01*
X147742728Y-99615113D01*
X147749041Y-99611329D01*
X147755695Y-99608182D01*
X147762625Y-99605702D01*
X147769764Y-99603914D01*
X147777045Y-99602834D01*
X147784396Y-99602473D01*
X149184396Y-99602473D01*
X149191747Y-99602834D01*
X149191747Y-99602834D01*
G37*
D16*
X148484396Y-99752473D03*
D12*
G36*
X149191747Y-100102834D02*
G01*
X149199028Y-100103914D01*
X149206167Y-100105702D01*
X149213097Y-100108182D01*
X149219751Y-100111329D01*
X149226064Y-100115113D01*
X149231975Y-100119497D01*
X149237429Y-100124440D01*
X149242372Y-100129894D01*
X149246756Y-100135805D01*
X149250540Y-100142118D01*
X149253687Y-100148772D01*
X149256167Y-100155702D01*
X149257955Y-100162841D01*
X149259035Y-100170122D01*
X149259396Y-100177473D01*
X149259396Y-100327473D01*
X149259035Y-100334824D01*
X149257955Y-100342105D01*
X149256167Y-100349244D01*
X149253687Y-100356174D01*
X149250540Y-100362828D01*
X149246756Y-100369141D01*
X149242372Y-100375052D01*
X149237429Y-100380506D01*
X149231975Y-100385449D01*
X149226064Y-100389833D01*
X149219751Y-100393617D01*
X149213097Y-100396764D01*
X149206167Y-100399244D01*
X149199028Y-100401032D01*
X149191747Y-100402112D01*
X149184396Y-100402473D01*
X147784396Y-100402473D01*
X147777045Y-100402112D01*
X147769764Y-100401032D01*
X147762625Y-100399244D01*
X147755695Y-100396764D01*
X147749041Y-100393617D01*
X147742728Y-100389833D01*
X147736817Y-100385449D01*
X147731363Y-100380506D01*
X147726420Y-100375052D01*
X147722036Y-100369141D01*
X147718252Y-100362828D01*
X147715105Y-100356174D01*
X147712625Y-100349244D01*
X147710837Y-100342105D01*
X147709757Y-100334824D01*
X147709396Y-100327473D01*
X147709396Y-100177473D01*
X147709757Y-100170122D01*
X147710837Y-100162841D01*
X147712625Y-100155702D01*
X147715105Y-100148772D01*
X147718252Y-100142118D01*
X147722036Y-100135805D01*
X147726420Y-100129894D01*
X147731363Y-100124440D01*
X147736817Y-100119497D01*
X147742728Y-100115113D01*
X147749041Y-100111329D01*
X147755695Y-100108182D01*
X147762625Y-100105702D01*
X147769764Y-100103914D01*
X147777045Y-100102834D01*
X147784396Y-100102473D01*
X149184396Y-100102473D01*
X149191747Y-100102834D01*
X149191747Y-100102834D01*
G37*
D16*
X148484396Y-100252473D03*
D12*
G36*
X149191747Y-100602834D02*
G01*
X149199028Y-100603914D01*
X149206167Y-100605702D01*
X149213097Y-100608182D01*
X149219751Y-100611329D01*
X149226064Y-100615113D01*
X149231975Y-100619497D01*
X149237429Y-100624440D01*
X149242372Y-100629894D01*
X149246756Y-100635805D01*
X149250540Y-100642118D01*
X149253687Y-100648772D01*
X149256167Y-100655702D01*
X149257955Y-100662841D01*
X149259035Y-100670122D01*
X149259396Y-100677473D01*
X149259396Y-100827473D01*
X149259035Y-100834824D01*
X149257955Y-100842105D01*
X149256167Y-100849244D01*
X149253687Y-100856174D01*
X149250540Y-100862828D01*
X149246756Y-100869141D01*
X149242372Y-100875052D01*
X149237429Y-100880506D01*
X149231975Y-100885449D01*
X149226064Y-100889833D01*
X149219751Y-100893617D01*
X149213097Y-100896764D01*
X149206167Y-100899244D01*
X149199028Y-100901032D01*
X149191747Y-100902112D01*
X149184396Y-100902473D01*
X147784396Y-100902473D01*
X147777045Y-100902112D01*
X147769764Y-100901032D01*
X147762625Y-100899244D01*
X147755695Y-100896764D01*
X147749041Y-100893617D01*
X147742728Y-100889833D01*
X147736817Y-100885449D01*
X147731363Y-100880506D01*
X147726420Y-100875052D01*
X147722036Y-100869141D01*
X147718252Y-100862828D01*
X147715105Y-100856174D01*
X147712625Y-100849244D01*
X147710837Y-100842105D01*
X147709757Y-100834824D01*
X147709396Y-100827473D01*
X147709396Y-100677473D01*
X147709757Y-100670122D01*
X147710837Y-100662841D01*
X147712625Y-100655702D01*
X147715105Y-100648772D01*
X147718252Y-100642118D01*
X147722036Y-100635805D01*
X147726420Y-100629894D01*
X147731363Y-100624440D01*
X147736817Y-100619497D01*
X147742728Y-100615113D01*
X147749041Y-100611329D01*
X147755695Y-100608182D01*
X147762625Y-100605702D01*
X147769764Y-100603914D01*
X147777045Y-100602834D01*
X147784396Y-100602473D01*
X149184396Y-100602473D01*
X149191747Y-100602834D01*
X149191747Y-100602834D01*
G37*
D16*
X148484396Y-100752473D03*
D12*
G36*
X149191747Y-101102834D02*
G01*
X149199028Y-101103914D01*
X149206167Y-101105702D01*
X149213097Y-101108182D01*
X149219751Y-101111329D01*
X149226064Y-101115113D01*
X149231975Y-101119497D01*
X149237429Y-101124440D01*
X149242372Y-101129894D01*
X149246756Y-101135805D01*
X149250540Y-101142118D01*
X149253687Y-101148772D01*
X149256167Y-101155702D01*
X149257955Y-101162841D01*
X149259035Y-101170122D01*
X149259396Y-101177473D01*
X149259396Y-101327473D01*
X149259035Y-101334824D01*
X149257955Y-101342105D01*
X149256167Y-101349244D01*
X149253687Y-101356174D01*
X149250540Y-101362828D01*
X149246756Y-101369141D01*
X149242372Y-101375052D01*
X149237429Y-101380506D01*
X149231975Y-101385449D01*
X149226064Y-101389833D01*
X149219751Y-101393617D01*
X149213097Y-101396764D01*
X149206167Y-101399244D01*
X149199028Y-101401032D01*
X149191747Y-101402112D01*
X149184396Y-101402473D01*
X147784396Y-101402473D01*
X147777045Y-101402112D01*
X147769764Y-101401032D01*
X147762625Y-101399244D01*
X147755695Y-101396764D01*
X147749041Y-101393617D01*
X147742728Y-101389833D01*
X147736817Y-101385449D01*
X147731363Y-101380506D01*
X147726420Y-101375052D01*
X147722036Y-101369141D01*
X147718252Y-101362828D01*
X147715105Y-101356174D01*
X147712625Y-101349244D01*
X147710837Y-101342105D01*
X147709757Y-101334824D01*
X147709396Y-101327473D01*
X147709396Y-101177473D01*
X147709757Y-101170122D01*
X147710837Y-101162841D01*
X147712625Y-101155702D01*
X147715105Y-101148772D01*
X147718252Y-101142118D01*
X147722036Y-101135805D01*
X147726420Y-101129894D01*
X147731363Y-101124440D01*
X147736817Y-101119497D01*
X147742728Y-101115113D01*
X147749041Y-101111329D01*
X147755695Y-101108182D01*
X147762625Y-101105702D01*
X147769764Y-101103914D01*
X147777045Y-101102834D01*
X147784396Y-101102473D01*
X149184396Y-101102473D01*
X149191747Y-101102834D01*
X149191747Y-101102834D01*
G37*
D16*
X148484396Y-101252473D03*
D12*
G36*
X146641747Y-102402834D02*
G01*
X146649028Y-102403914D01*
X146656167Y-102405702D01*
X146663097Y-102408182D01*
X146669751Y-102411329D01*
X146676064Y-102415113D01*
X146681975Y-102419497D01*
X146687429Y-102424440D01*
X146692372Y-102429894D01*
X146696756Y-102435805D01*
X146700540Y-102442118D01*
X146703687Y-102448772D01*
X146706167Y-102455702D01*
X146707955Y-102462841D01*
X146709035Y-102470122D01*
X146709396Y-102477473D01*
X146709396Y-103877473D01*
X146709035Y-103884824D01*
X146707955Y-103892105D01*
X146706167Y-103899244D01*
X146703687Y-103906174D01*
X146700540Y-103912828D01*
X146696756Y-103919141D01*
X146692372Y-103925052D01*
X146687429Y-103930506D01*
X146681975Y-103935449D01*
X146676064Y-103939833D01*
X146669751Y-103943617D01*
X146663097Y-103946764D01*
X146656167Y-103949244D01*
X146649028Y-103951032D01*
X146641747Y-103952112D01*
X146634396Y-103952473D01*
X146484396Y-103952473D01*
X146477045Y-103952112D01*
X146469764Y-103951032D01*
X146462625Y-103949244D01*
X146455695Y-103946764D01*
X146449041Y-103943617D01*
X146442728Y-103939833D01*
X146436817Y-103935449D01*
X146431363Y-103930506D01*
X146426420Y-103925052D01*
X146422036Y-103919141D01*
X146418252Y-103912828D01*
X146415105Y-103906174D01*
X146412625Y-103899244D01*
X146410837Y-103892105D01*
X146409757Y-103884824D01*
X146409396Y-103877473D01*
X146409396Y-102477473D01*
X146409757Y-102470122D01*
X146410837Y-102462841D01*
X146412625Y-102455702D01*
X146415105Y-102448772D01*
X146418252Y-102442118D01*
X146422036Y-102435805D01*
X146426420Y-102429894D01*
X146431363Y-102424440D01*
X146436817Y-102419497D01*
X146442728Y-102415113D01*
X146449041Y-102411329D01*
X146455695Y-102408182D01*
X146462625Y-102405702D01*
X146469764Y-102403914D01*
X146477045Y-102402834D01*
X146484396Y-102402473D01*
X146634396Y-102402473D01*
X146641747Y-102402834D01*
X146641747Y-102402834D01*
G37*
D16*
X146559396Y-103177473D03*
D12*
G36*
X146141747Y-102402834D02*
G01*
X146149028Y-102403914D01*
X146156167Y-102405702D01*
X146163097Y-102408182D01*
X146169751Y-102411329D01*
X146176064Y-102415113D01*
X146181975Y-102419497D01*
X146187429Y-102424440D01*
X146192372Y-102429894D01*
X146196756Y-102435805D01*
X146200540Y-102442118D01*
X146203687Y-102448772D01*
X146206167Y-102455702D01*
X146207955Y-102462841D01*
X146209035Y-102470122D01*
X146209396Y-102477473D01*
X146209396Y-103877473D01*
X146209035Y-103884824D01*
X146207955Y-103892105D01*
X146206167Y-103899244D01*
X146203687Y-103906174D01*
X146200540Y-103912828D01*
X146196756Y-103919141D01*
X146192372Y-103925052D01*
X146187429Y-103930506D01*
X146181975Y-103935449D01*
X146176064Y-103939833D01*
X146169751Y-103943617D01*
X146163097Y-103946764D01*
X146156167Y-103949244D01*
X146149028Y-103951032D01*
X146141747Y-103952112D01*
X146134396Y-103952473D01*
X145984396Y-103952473D01*
X145977045Y-103952112D01*
X145969764Y-103951032D01*
X145962625Y-103949244D01*
X145955695Y-103946764D01*
X145949041Y-103943617D01*
X145942728Y-103939833D01*
X145936817Y-103935449D01*
X145931363Y-103930506D01*
X145926420Y-103925052D01*
X145922036Y-103919141D01*
X145918252Y-103912828D01*
X145915105Y-103906174D01*
X145912625Y-103899244D01*
X145910837Y-103892105D01*
X145909757Y-103884824D01*
X145909396Y-103877473D01*
X145909396Y-102477473D01*
X145909757Y-102470122D01*
X145910837Y-102462841D01*
X145912625Y-102455702D01*
X145915105Y-102448772D01*
X145918252Y-102442118D01*
X145922036Y-102435805D01*
X145926420Y-102429894D01*
X145931363Y-102424440D01*
X145936817Y-102419497D01*
X145942728Y-102415113D01*
X145949041Y-102411329D01*
X145955695Y-102408182D01*
X145962625Y-102405702D01*
X145969764Y-102403914D01*
X145977045Y-102402834D01*
X145984396Y-102402473D01*
X146134396Y-102402473D01*
X146141747Y-102402834D01*
X146141747Y-102402834D01*
G37*
D16*
X146059396Y-103177473D03*
D12*
G36*
X145641747Y-102402834D02*
G01*
X145649028Y-102403914D01*
X145656167Y-102405702D01*
X145663097Y-102408182D01*
X145669751Y-102411329D01*
X145676064Y-102415113D01*
X145681975Y-102419497D01*
X145687429Y-102424440D01*
X145692372Y-102429894D01*
X145696756Y-102435805D01*
X145700540Y-102442118D01*
X145703687Y-102448772D01*
X145706167Y-102455702D01*
X145707955Y-102462841D01*
X145709035Y-102470122D01*
X145709396Y-102477473D01*
X145709396Y-103877473D01*
X145709035Y-103884824D01*
X145707955Y-103892105D01*
X145706167Y-103899244D01*
X145703687Y-103906174D01*
X145700540Y-103912828D01*
X145696756Y-103919141D01*
X145692372Y-103925052D01*
X145687429Y-103930506D01*
X145681975Y-103935449D01*
X145676064Y-103939833D01*
X145669751Y-103943617D01*
X145663097Y-103946764D01*
X145656167Y-103949244D01*
X145649028Y-103951032D01*
X145641747Y-103952112D01*
X145634396Y-103952473D01*
X145484396Y-103952473D01*
X145477045Y-103952112D01*
X145469764Y-103951032D01*
X145462625Y-103949244D01*
X145455695Y-103946764D01*
X145449041Y-103943617D01*
X145442728Y-103939833D01*
X145436817Y-103935449D01*
X145431363Y-103930506D01*
X145426420Y-103925052D01*
X145422036Y-103919141D01*
X145418252Y-103912828D01*
X145415105Y-103906174D01*
X145412625Y-103899244D01*
X145410837Y-103892105D01*
X145409757Y-103884824D01*
X145409396Y-103877473D01*
X145409396Y-102477473D01*
X145409757Y-102470122D01*
X145410837Y-102462841D01*
X145412625Y-102455702D01*
X145415105Y-102448772D01*
X145418252Y-102442118D01*
X145422036Y-102435805D01*
X145426420Y-102429894D01*
X145431363Y-102424440D01*
X145436817Y-102419497D01*
X145442728Y-102415113D01*
X145449041Y-102411329D01*
X145455695Y-102408182D01*
X145462625Y-102405702D01*
X145469764Y-102403914D01*
X145477045Y-102402834D01*
X145484396Y-102402473D01*
X145634396Y-102402473D01*
X145641747Y-102402834D01*
X145641747Y-102402834D01*
G37*
D16*
X145559396Y-103177473D03*
D12*
G36*
X145141747Y-102402834D02*
G01*
X145149028Y-102403914D01*
X145156167Y-102405702D01*
X145163097Y-102408182D01*
X145169751Y-102411329D01*
X145176064Y-102415113D01*
X145181975Y-102419497D01*
X145187429Y-102424440D01*
X145192372Y-102429894D01*
X145196756Y-102435805D01*
X145200540Y-102442118D01*
X145203687Y-102448772D01*
X145206167Y-102455702D01*
X145207955Y-102462841D01*
X145209035Y-102470122D01*
X145209396Y-102477473D01*
X145209396Y-103877473D01*
X145209035Y-103884824D01*
X145207955Y-103892105D01*
X145206167Y-103899244D01*
X145203687Y-103906174D01*
X145200540Y-103912828D01*
X145196756Y-103919141D01*
X145192372Y-103925052D01*
X145187429Y-103930506D01*
X145181975Y-103935449D01*
X145176064Y-103939833D01*
X145169751Y-103943617D01*
X145163097Y-103946764D01*
X145156167Y-103949244D01*
X145149028Y-103951032D01*
X145141747Y-103952112D01*
X145134396Y-103952473D01*
X144984396Y-103952473D01*
X144977045Y-103952112D01*
X144969764Y-103951032D01*
X144962625Y-103949244D01*
X144955695Y-103946764D01*
X144949041Y-103943617D01*
X144942728Y-103939833D01*
X144936817Y-103935449D01*
X144931363Y-103930506D01*
X144926420Y-103925052D01*
X144922036Y-103919141D01*
X144918252Y-103912828D01*
X144915105Y-103906174D01*
X144912625Y-103899244D01*
X144910837Y-103892105D01*
X144909757Y-103884824D01*
X144909396Y-103877473D01*
X144909396Y-102477473D01*
X144909757Y-102470122D01*
X144910837Y-102462841D01*
X144912625Y-102455702D01*
X144915105Y-102448772D01*
X144918252Y-102442118D01*
X144922036Y-102435805D01*
X144926420Y-102429894D01*
X144931363Y-102424440D01*
X144936817Y-102419497D01*
X144942728Y-102415113D01*
X144949041Y-102411329D01*
X144955695Y-102408182D01*
X144962625Y-102405702D01*
X144969764Y-102403914D01*
X144977045Y-102402834D01*
X144984396Y-102402473D01*
X145134396Y-102402473D01*
X145141747Y-102402834D01*
X145141747Y-102402834D01*
G37*
D16*
X145059396Y-103177473D03*
D12*
G36*
X144641747Y-102402834D02*
G01*
X144649028Y-102403914D01*
X144656167Y-102405702D01*
X144663097Y-102408182D01*
X144669751Y-102411329D01*
X144676064Y-102415113D01*
X144681975Y-102419497D01*
X144687429Y-102424440D01*
X144692372Y-102429894D01*
X144696756Y-102435805D01*
X144700540Y-102442118D01*
X144703687Y-102448772D01*
X144706167Y-102455702D01*
X144707955Y-102462841D01*
X144709035Y-102470122D01*
X144709396Y-102477473D01*
X144709396Y-103877473D01*
X144709035Y-103884824D01*
X144707955Y-103892105D01*
X144706167Y-103899244D01*
X144703687Y-103906174D01*
X144700540Y-103912828D01*
X144696756Y-103919141D01*
X144692372Y-103925052D01*
X144687429Y-103930506D01*
X144681975Y-103935449D01*
X144676064Y-103939833D01*
X144669751Y-103943617D01*
X144663097Y-103946764D01*
X144656167Y-103949244D01*
X144649028Y-103951032D01*
X144641747Y-103952112D01*
X144634396Y-103952473D01*
X144484396Y-103952473D01*
X144477045Y-103952112D01*
X144469764Y-103951032D01*
X144462625Y-103949244D01*
X144455695Y-103946764D01*
X144449041Y-103943617D01*
X144442728Y-103939833D01*
X144436817Y-103935449D01*
X144431363Y-103930506D01*
X144426420Y-103925052D01*
X144422036Y-103919141D01*
X144418252Y-103912828D01*
X144415105Y-103906174D01*
X144412625Y-103899244D01*
X144410837Y-103892105D01*
X144409757Y-103884824D01*
X144409396Y-103877473D01*
X144409396Y-102477473D01*
X144409757Y-102470122D01*
X144410837Y-102462841D01*
X144412625Y-102455702D01*
X144415105Y-102448772D01*
X144418252Y-102442118D01*
X144422036Y-102435805D01*
X144426420Y-102429894D01*
X144431363Y-102424440D01*
X144436817Y-102419497D01*
X144442728Y-102415113D01*
X144449041Y-102411329D01*
X144455695Y-102408182D01*
X144462625Y-102405702D01*
X144469764Y-102403914D01*
X144477045Y-102402834D01*
X144484396Y-102402473D01*
X144634396Y-102402473D01*
X144641747Y-102402834D01*
X144641747Y-102402834D01*
G37*
D16*
X144559396Y-103177473D03*
D12*
G36*
X144141747Y-102402834D02*
G01*
X144149028Y-102403914D01*
X144156167Y-102405702D01*
X144163097Y-102408182D01*
X144169751Y-102411329D01*
X144176064Y-102415113D01*
X144181975Y-102419497D01*
X144187429Y-102424440D01*
X144192372Y-102429894D01*
X144196756Y-102435805D01*
X144200540Y-102442118D01*
X144203687Y-102448772D01*
X144206167Y-102455702D01*
X144207955Y-102462841D01*
X144209035Y-102470122D01*
X144209396Y-102477473D01*
X144209396Y-103877473D01*
X144209035Y-103884824D01*
X144207955Y-103892105D01*
X144206167Y-103899244D01*
X144203687Y-103906174D01*
X144200540Y-103912828D01*
X144196756Y-103919141D01*
X144192372Y-103925052D01*
X144187429Y-103930506D01*
X144181975Y-103935449D01*
X144176064Y-103939833D01*
X144169751Y-103943617D01*
X144163097Y-103946764D01*
X144156167Y-103949244D01*
X144149028Y-103951032D01*
X144141747Y-103952112D01*
X144134396Y-103952473D01*
X143984396Y-103952473D01*
X143977045Y-103952112D01*
X143969764Y-103951032D01*
X143962625Y-103949244D01*
X143955695Y-103946764D01*
X143949041Y-103943617D01*
X143942728Y-103939833D01*
X143936817Y-103935449D01*
X143931363Y-103930506D01*
X143926420Y-103925052D01*
X143922036Y-103919141D01*
X143918252Y-103912828D01*
X143915105Y-103906174D01*
X143912625Y-103899244D01*
X143910837Y-103892105D01*
X143909757Y-103884824D01*
X143909396Y-103877473D01*
X143909396Y-102477473D01*
X143909757Y-102470122D01*
X143910837Y-102462841D01*
X143912625Y-102455702D01*
X143915105Y-102448772D01*
X143918252Y-102442118D01*
X143922036Y-102435805D01*
X143926420Y-102429894D01*
X143931363Y-102424440D01*
X143936817Y-102419497D01*
X143942728Y-102415113D01*
X143949041Y-102411329D01*
X143955695Y-102408182D01*
X143962625Y-102405702D01*
X143969764Y-102403914D01*
X143977045Y-102402834D01*
X143984396Y-102402473D01*
X144134396Y-102402473D01*
X144141747Y-102402834D01*
X144141747Y-102402834D01*
G37*
D16*
X144059396Y-103177473D03*
D12*
G36*
X143641747Y-102402834D02*
G01*
X143649028Y-102403914D01*
X143656167Y-102405702D01*
X143663097Y-102408182D01*
X143669751Y-102411329D01*
X143676064Y-102415113D01*
X143681975Y-102419497D01*
X143687429Y-102424440D01*
X143692372Y-102429894D01*
X143696756Y-102435805D01*
X143700540Y-102442118D01*
X143703687Y-102448772D01*
X143706167Y-102455702D01*
X143707955Y-102462841D01*
X143709035Y-102470122D01*
X143709396Y-102477473D01*
X143709396Y-103877473D01*
X143709035Y-103884824D01*
X143707955Y-103892105D01*
X143706167Y-103899244D01*
X143703687Y-103906174D01*
X143700540Y-103912828D01*
X143696756Y-103919141D01*
X143692372Y-103925052D01*
X143687429Y-103930506D01*
X143681975Y-103935449D01*
X143676064Y-103939833D01*
X143669751Y-103943617D01*
X143663097Y-103946764D01*
X143656167Y-103949244D01*
X143649028Y-103951032D01*
X143641747Y-103952112D01*
X143634396Y-103952473D01*
X143484396Y-103952473D01*
X143477045Y-103952112D01*
X143469764Y-103951032D01*
X143462625Y-103949244D01*
X143455695Y-103946764D01*
X143449041Y-103943617D01*
X143442728Y-103939833D01*
X143436817Y-103935449D01*
X143431363Y-103930506D01*
X143426420Y-103925052D01*
X143422036Y-103919141D01*
X143418252Y-103912828D01*
X143415105Y-103906174D01*
X143412625Y-103899244D01*
X143410837Y-103892105D01*
X143409757Y-103884824D01*
X143409396Y-103877473D01*
X143409396Y-102477473D01*
X143409757Y-102470122D01*
X143410837Y-102462841D01*
X143412625Y-102455702D01*
X143415105Y-102448772D01*
X143418252Y-102442118D01*
X143422036Y-102435805D01*
X143426420Y-102429894D01*
X143431363Y-102424440D01*
X143436817Y-102419497D01*
X143442728Y-102415113D01*
X143449041Y-102411329D01*
X143455695Y-102408182D01*
X143462625Y-102405702D01*
X143469764Y-102403914D01*
X143477045Y-102402834D01*
X143484396Y-102402473D01*
X143634396Y-102402473D01*
X143641747Y-102402834D01*
X143641747Y-102402834D01*
G37*
D16*
X143559396Y-103177473D03*
D12*
G36*
X143141747Y-102402834D02*
G01*
X143149028Y-102403914D01*
X143156167Y-102405702D01*
X143163097Y-102408182D01*
X143169751Y-102411329D01*
X143176064Y-102415113D01*
X143181975Y-102419497D01*
X143187429Y-102424440D01*
X143192372Y-102429894D01*
X143196756Y-102435805D01*
X143200540Y-102442118D01*
X143203687Y-102448772D01*
X143206167Y-102455702D01*
X143207955Y-102462841D01*
X143209035Y-102470122D01*
X143209396Y-102477473D01*
X143209396Y-103877473D01*
X143209035Y-103884824D01*
X143207955Y-103892105D01*
X143206167Y-103899244D01*
X143203687Y-103906174D01*
X143200540Y-103912828D01*
X143196756Y-103919141D01*
X143192372Y-103925052D01*
X143187429Y-103930506D01*
X143181975Y-103935449D01*
X143176064Y-103939833D01*
X143169751Y-103943617D01*
X143163097Y-103946764D01*
X143156167Y-103949244D01*
X143149028Y-103951032D01*
X143141747Y-103952112D01*
X143134396Y-103952473D01*
X142984396Y-103952473D01*
X142977045Y-103952112D01*
X142969764Y-103951032D01*
X142962625Y-103949244D01*
X142955695Y-103946764D01*
X142949041Y-103943617D01*
X142942728Y-103939833D01*
X142936817Y-103935449D01*
X142931363Y-103930506D01*
X142926420Y-103925052D01*
X142922036Y-103919141D01*
X142918252Y-103912828D01*
X142915105Y-103906174D01*
X142912625Y-103899244D01*
X142910837Y-103892105D01*
X142909757Y-103884824D01*
X142909396Y-103877473D01*
X142909396Y-102477473D01*
X142909757Y-102470122D01*
X142910837Y-102462841D01*
X142912625Y-102455702D01*
X142915105Y-102448772D01*
X142918252Y-102442118D01*
X142922036Y-102435805D01*
X142926420Y-102429894D01*
X142931363Y-102424440D01*
X142936817Y-102419497D01*
X142942728Y-102415113D01*
X142949041Y-102411329D01*
X142955695Y-102408182D01*
X142962625Y-102405702D01*
X142969764Y-102403914D01*
X142977045Y-102402834D01*
X142984396Y-102402473D01*
X143134396Y-102402473D01*
X143141747Y-102402834D01*
X143141747Y-102402834D01*
G37*
D16*
X143059396Y-103177473D03*
D12*
G36*
X142641747Y-102402834D02*
G01*
X142649028Y-102403914D01*
X142656167Y-102405702D01*
X142663097Y-102408182D01*
X142669751Y-102411329D01*
X142676064Y-102415113D01*
X142681975Y-102419497D01*
X142687429Y-102424440D01*
X142692372Y-102429894D01*
X142696756Y-102435805D01*
X142700540Y-102442118D01*
X142703687Y-102448772D01*
X142706167Y-102455702D01*
X142707955Y-102462841D01*
X142709035Y-102470122D01*
X142709396Y-102477473D01*
X142709396Y-103877473D01*
X142709035Y-103884824D01*
X142707955Y-103892105D01*
X142706167Y-103899244D01*
X142703687Y-103906174D01*
X142700540Y-103912828D01*
X142696756Y-103919141D01*
X142692372Y-103925052D01*
X142687429Y-103930506D01*
X142681975Y-103935449D01*
X142676064Y-103939833D01*
X142669751Y-103943617D01*
X142663097Y-103946764D01*
X142656167Y-103949244D01*
X142649028Y-103951032D01*
X142641747Y-103952112D01*
X142634396Y-103952473D01*
X142484396Y-103952473D01*
X142477045Y-103952112D01*
X142469764Y-103951032D01*
X142462625Y-103949244D01*
X142455695Y-103946764D01*
X142449041Y-103943617D01*
X142442728Y-103939833D01*
X142436817Y-103935449D01*
X142431363Y-103930506D01*
X142426420Y-103925052D01*
X142422036Y-103919141D01*
X142418252Y-103912828D01*
X142415105Y-103906174D01*
X142412625Y-103899244D01*
X142410837Y-103892105D01*
X142409757Y-103884824D01*
X142409396Y-103877473D01*
X142409396Y-102477473D01*
X142409757Y-102470122D01*
X142410837Y-102462841D01*
X142412625Y-102455702D01*
X142415105Y-102448772D01*
X142418252Y-102442118D01*
X142422036Y-102435805D01*
X142426420Y-102429894D01*
X142431363Y-102424440D01*
X142436817Y-102419497D01*
X142442728Y-102415113D01*
X142449041Y-102411329D01*
X142455695Y-102408182D01*
X142462625Y-102405702D01*
X142469764Y-102403914D01*
X142477045Y-102402834D01*
X142484396Y-102402473D01*
X142634396Y-102402473D01*
X142641747Y-102402834D01*
X142641747Y-102402834D01*
G37*
D16*
X142559396Y-103177473D03*
D12*
G36*
X142141747Y-102402834D02*
G01*
X142149028Y-102403914D01*
X142156167Y-102405702D01*
X142163097Y-102408182D01*
X142169751Y-102411329D01*
X142176064Y-102415113D01*
X142181975Y-102419497D01*
X142187429Y-102424440D01*
X142192372Y-102429894D01*
X142196756Y-102435805D01*
X142200540Y-102442118D01*
X142203687Y-102448772D01*
X142206167Y-102455702D01*
X142207955Y-102462841D01*
X142209035Y-102470122D01*
X142209396Y-102477473D01*
X142209396Y-103877473D01*
X142209035Y-103884824D01*
X142207955Y-103892105D01*
X142206167Y-103899244D01*
X142203687Y-103906174D01*
X142200540Y-103912828D01*
X142196756Y-103919141D01*
X142192372Y-103925052D01*
X142187429Y-103930506D01*
X142181975Y-103935449D01*
X142176064Y-103939833D01*
X142169751Y-103943617D01*
X142163097Y-103946764D01*
X142156167Y-103949244D01*
X142149028Y-103951032D01*
X142141747Y-103952112D01*
X142134396Y-103952473D01*
X141984396Y-103952473D01*
X141977045Y-103952112D01*
X141969764Y-103951032D01*
X141962625Y-103949244D01*
X141955695Y-103946764D01*
X141949041Y-103943617D01*
X141942728Y-103939833D01*
X141936817Y-103935449D01*
X141931363Y-103930506D01*
X141926420Y-103925052D01*
X141922036Y-103919141D01*
X141918252Y-103912828D01*
X141915105Y-103906174D01*
X141912625Y-103899244D01*
X141910837Y-103892105D01*
X141909757Y-103884824D01*
X141909396Y-103877473D01*
X141909396Y-102477473D01*
X141909757Y-102470122D01*
X141910837Y-102462841D01*
X141912625Y-102455702D01*
X141915105Y-102448772D01*
X141918252Y-102442118D01*
X141922036Y-102435805D01*
X141926420Y-102429894D01*
X141931363Y-102424440D01*
X141936817Y-102419497D01*
X141942728Y-102415113D01*
X141949041Y-102411329D01*
X141955695Y-102408182D01*
X141962625Y-102405702D01*
X141969764Y-102403914D01*
X141977045Y-102402834D01*
X141984396Y-102402473D01*
X142134396Y-102402473D01*
X142141747Y-102402834D01*
X142141747Y-102402834D01*
G37*
D16*
X142059396Y-103177473D03*
D12*
G36*
X141641747Y-102402834D02*
G01*
X141649028Y-102403914D01*
X141656167Y-102405702D01*
X141663097Y-102408182D01*
X141669751Y-102411329D01*
X141676064Y-102415113D01*
X141681975Y-102419497D01*
X141687429Y-102424440D01*
X141692372Y-102429894D01*
X141696756Y-102435805D01*
X141700540Y-102442118D01*
X141703687Y-102448772D01*
X141706167Y-102455702D01*
X141707955Y-102462841D01*
X141709035Y-102470122D01*
X141709396Y-102477473D01*
X141709396Y-103877473D01*
X141709035Y-103884824D01*
X141707955Y-103892105D01*
X141706167Y-103899244D01*
X141703687Y-103906174D01*
X141700540Y-103912828D01*
X141696756Y-103919141D01*
X141692372Y-103925052D01*
X141687429Y-103930506D01*
X141681975Y-103935449D01*
X141676064Y-103939833D01*
X141669751Y-103943617D01*
X141663097Y-103946764D01*
X141656167Y-103949244D01*
X141649028Y-103951032D01*
X141641747Y-103952112D01*
X141634396Y-103952473D01*
X141484396Y-103952473D01*
X141477045Y-103952112D01*
X141469764Y-103951032D01*
X141462625Y-103949244D01*
X141455695Y-103946764D01*
X141449041Y-103943617D01*
X141442728Y-103939833D01*
X141436817Y-103935449D01*
X141431363Y-103930506D01*
X141426420Y-103925052D01*
X141422036Y-103919141D01*
X141418252Y-103912828D01*
X141415105Y-103906174D01*
X141412625Y-103899244D01*
X141410837Y-103892105D01*
X141409757Y-103884824D01*
X141409396Y-103877473D01*
X141409396Y-102477473D01*
X141409757Y-102470122D01*
X141410837Y-102462841D01*
X141412625Y-102455702D01*
X141415105Y-102448772D01*
X141418252Y-102442118D01*
X141422036Y-102435805D01*
X141426420Y-102429894D01*
X141431363Y-102424440D01*
X141436817Y-102419497D01*
X141442728Y-102415113D01*
X141449041Y-102411329D01*
X141455695Y-102408182D01*
X141462625Y-102405702D01*
X141469764Y-102403914D01*
X141477045Y-102402834D01*
X141484396Y-102402473D01*
X141634396Y-102402473D01*
X141641747Y-102402834D01*
X141641747Y-102402834D01*
G37*
D16*
X141559396Y-103177473D03*
D12*
G36*
X141141747Y-102402834D02*
G01*
X141149028Y-102403914D01*
X141156167Y-102405702D01*
X141163097Y-102408182D01*
X141169751Y-102411329D01*
X141176064Y-102415113D01*
X141181975Y-102419497D01*
X141187429Y-102424440D01*
X141192372Y-102429894D01*
X141196756Y-102435805D01*
X141200540Y-102442118D01*
X141203687Y-102448772D01*
X141206167Y-102455702D01*
X141207955Y-102462841D01*
X141209035Y-102470122D01*
X141209396Y-102477473D01*
X141209396Y-103877473D01*
X141209035Y-103884824D01*
X141207955Y-103892105D01*
X141206167Y-103899244D01*
X141203687Y-103906174D01*
X141200540Y-103912828D01*
X141196756Y-103919141D01*
X141192372Y-103925052D01*
X141187429Y-103930506D01*
X141181975Y-103935449D01*
X141176064Y-103939833D01*
X141169751Y-103943617D01*
X141163097Y-103946764D01*
X141156167Y-103949244D01*
X141149028Y-103951032D01*
X141141747Y-103952112D01*
X141134396Y-103952473D01*
X140984396Y-103952473D01*
X140977045Y-103952112D01*
X140969764Y-103951032D01*
X140962625Y-103949244D01*
X140955695Y-103946764D01*
X140949041Y-103943617D01*
X140942728Y-103939833D01*
X140936817Y-103935449D01*
X140931363Y-103930506D01*
X140926420Y-103925052D01*
X140922036Y-103919141D01*
X140918252Y-103912828D01*
X140915105Y-103906174D01*
X140912625Y-103899244D01*
X140910837Y-103892105D01*
X140909757Y-103884824D01*
X140909396Y-103877473D01*
X140909396Y-102477473D01*
X140909757Y-102470122D01*
X140910837Y-102462841D01*
X140912625Y-102455702D01*
X140915105Y-102448772D01*
X140918252Y-102442118D01*
X140922036Y-102435805D01*
X140926420Y-102429894D01*
X140931363Y-102424440D01*
X140936817Y-102419497D01*
X140942728Y-102415113D01*
X140949041Y-102411329D01*
X140955695Y-102408182D01*
X140962625Y-102405702D01*
X140969764Y-102403914D01*
X140977045Y-102402834D01*
X140984396Y-102402473D01*
X141134396Y-102402473D01*
X141141747Y-102402834D01*
X141141747Y-102402834D01*
G37*
D16*
X141059396Y-103177473D03*
D12*
G36*
X140641747Y-102402834D02*
G01*
X140649028Y-102403914D01*
X140656167Y-102405702D01*
X140663097Y-102408182D01*
X140669751Y-102411329D01*
X140676064Y-102415113D01*
X140681975Y-102419497D01*
X140687429Y-102424440D01*
X140692372Y-102429894D01*
X140696756Y-102435805D01*
X140700540Y-102442118D01*
X140703687Y-102448772D01*
X140706167Y-102455702D01*
X140707955Y-102462841D01*
X140709035Y-102470122D01*
X140709396Y-102477473D01*
X140709396Y-103877473D01*
X140709035Y-103884824D01*
X140707955Y-103892105D01*
X140706167Y-103899244D01*
X140703687Y-103906174D01*
X140700540Y-103912828D01*
X140696756Y-103919141D01*
X140692372Y-103925052D01*
X140687429Y-103930506D01*
X140681975Y-103935449D01*
X140676064Y-103939833D01*
X140669751Y-103943617D01*
X140663097Y-103946764D01*
X140656167Y-103949244D01*
X140649028Y-103951032D01*
X140641747Y-103952112D01*
X140634396Y-103952473D01*
X140484396Y-103952473D01*
X140477045Y-103952112D01*
X140469764Y-103951032D01*
X140462625Y-103949244D01*
X140455695Y-103946764D01*
X140449041Y-103943617D01*
X140442728Y-103939833D01*
X140436817Y-103935449D01*
X140431363Y-103930506D01*
X140426420Y-103925052D01*
X140422036Y-103919141D01*
X140418252Y-103912828D01*
X140415105Y-103906174D01*
X140412625Y-103899244D01*
X140410837Y-103892105D01*
X140409757Y-103884824D01*
X140409396Y-103877473D01*
X140409396Y-102477473D01*
X140409757Y-102470122D01*
X140410837Y-102462841D01*
X140412625Y-102455702D01*
X140415105Y-102448772D01*
X140418252Y-102442118D01*
X140422036Y-102435805D01*
X140426420Y-102429894D01*
X140431363Y-102424440D01*
X140436817Y-102419497D01*
X140442728Y-102415113D01*
X140449041Y-102411329D01*
X140455695Y-102408182D01*
X140462625Y-102405702D01*
X140469764Y-102403914D01*
X140477045Y-102402834D01*
X140484396Y-102402473D01*
X140634396Y-102402473D01*
X140641747Y-102402834D01*
X140641747Y-102402834D01*
G37*
D16*
X140559396Y-103177473D03*
D12*
G36*
X140141747Y-102402834D02*
G01*
X140149028Y-102403914D01*
X140156167Y-102405702D01*
X140163097Y-102408182D01*
X140169751Y-102411329D01*
X140176064Y-102415113D01*
X140181975Y-102419497D01*
X140187429Y-102424440D01*
X140192372Y-102429894D01*
X140196756Y-102435805D01*
X140200540Y-102442118D01*
X140203687Y-102448772D01*
X140206167Y-102455702D01*
X140207955Y-102462841D01*
X140209035Y-102470122D01*
X140209396Y-102477473D01*
X140209396Y-103877473D01*
X140209035Y-103884824D01*
X140207955Y-103892105D01*
X140206167Y-103899244D01*
X140203687Y-103906174D01*
X140200540Y-103912828D01*
X140196756Y-103919141D01*
X140192372Y-103925052D01*
X140187429Y-103930506D01*
X140181975Y-103935449D01*
X140176064Y-103939833D01*
X140169751Y-103943617D01*
X140163097Y-103946764D01*
X140156167Y-103949244D01*
X140149028Y-103951032D01*
X140141747Y-103952112D01*
X140134396Y-103952473D01*
X139984396Y-103952473D01*
X139977045Y-103952112D01*
X139969764Y-103951032D01*
X139962625Y-103949244D01*
X139955695Y-103946764D01*
X139949041Y-103943617D01*
X139942728Y-103939833D01*
X139936817Y-103935449D01*
X139931363Y-103930506D01*
X139926420Y-103925052D01*
X139922036Y-103919141D01*
X139918252Y-103912828D01*
X139915105Y-103906174D01*
X139912625Y-103899244D01*
X139910837Y-103892105D01*
X139909757Y-103884824D01*
X139909396Y-103877473D01*
X139909396Y-102477473D01*
X139909757Y-102470122D01*
X139910837Y-102462841D01*
X139912625Y-102455702D01*
X139915105Y-102448772D01*
X139918252Y-102442118D01*
X139922036Y-102435805D01*
X139926420Y-102429894D01*
X139931363Y-102424440D01*
X139936817Y-102419497D01*
X139942728Y-102415113D01*
X139949041Y-102411329D01*
X139955695Y-102408182D01*
X139962625Y-102405702D01*
X139969764Y-102403914D01*
X139977045Y-102402834D01*
X139984396Y-102402473D01*
X140134396Y-102402473D01*
X140141747Y-102402834D01*
X140141747Y-102402834D01*
G37*
D16*
X140059396Y-103177473D03*
D12*
G36*
X139641747Y-102402834D02*
G01*
X139649028Y-102403914D01*
X139656167Y-102405702D01*
X139663097Y-102408182D01*
X139669751Y-102411329D01*
X139676064Y-102415113D01*
X139681975Y-102419497D01*
X139687429Y-102424440D01*
X139692372Y-102429894D01*
X139696756Y-102435805D01*
X139700540Y-102442118D01*
X139703687Y-102448772D01*
X139706167Y-102455702D01*
X139707955Y-102462841D01*
X139709035Y-102470122D01*
X139709396Y-102477473D01*
X139709396Y-103877473D01*
X139709035Y-103884824D01*
X139707955Y-103892105D01*
X139706167Y-103899244D01*
X139703687Y-103906174D01*
X139700540Y-103912828D01*
X139696756Y-103919141D01*
X139692372Y-103925052D01*
X139687429Y-103930506D01*
X139681975Y-103935449D01*
X139676064Y-103939833D01*
X139669751Y-103943617D01*
X139663097Y-103946764D01*
X139656167Y-103949244D01*
X139649028Y-103951032D01*
X139641747Y-103952112D01*
X139634396Y-103952473D01*
X139484396Y-103952473D01*
X139477045Y-103952112D01*
X139469764Y-103951032D01*
X139462625Y-103949244D01*
X139455695Y-103946764D01*
X139449041Y-103943617D01*
X139442728Y-103939833D01*
X139436817Y-103935449D01*
X139431363Y-103930506D01*
X139426420Y-103925052D01*
X139422036Y-103919141D01*
X139418252Y-103912828D01*
X139415105Y-103906174D01*
X139412625Y-103899244D01*
X139410837Y-103892105D01*
X139409757Y-103884824D01*
X139409396Y-103877473D01*
X139409396Y-102477473D01*
X139409757Y-102470122D01*
X139410837Y-102462841D01*
X139412625Y-102455702D01*
X139415105Y-102448772D01*
X139418252Y-102442118D01*
X139422036Y-102435805D01*
X139426420Y-102429894D01*
X139431363Y-102424440D01*
X139436817Y-102419497D01*
X139442728Y-102415113D01*
X139449041Y-102411329D01*
X139455695Y-102408182D01*
X139462625Y-102405702D01*
X139469764Y-102403914D01*
X139477045Y-102402834D01*
X139484396Y-102402473D01*
X139634396Y-102402473D01*
X139641747Y-102402834D01*
X139641747Y-102402834D01*
G37*
D16*
X139559396Y-103177473D03*
D12*
G36*
X139141747Y-102402834D02*
G01*
X139149028Y-102403914D01*
X139156167Y-102405702D01*
X139163097Y-102408182D01*
X139169751Y-102411329D01*
X139176064Y-102415113D01*
X139181975Y-102419497D01*
X139187429Y-102424440D01*
X139192372Y-102429894D01*
X139196756Y-102435805D01*
X139200540Y-102442118D01*
X139203687Y-102448772D01*
X139206167Y-102455702D01*
X139207955Y-102462841D01*
X139209035Y-102470122D01*
X139209396Y-102477473D01*
X139209396Y-103877473D01*
X139209035Y-103884824D01*
X139207955Y-103892105D01*
X139206167Y-103899244D01*
X139203687Y-103906174D01*
X139200540Y-103912828D01*
X139196756Y-103919141D01*
X139192372Y-103925052D01*
X139187429Y-103930506D01*
X139181975Y-103935449D01*
X139176064Y-103939833D01*
X139169751Y-103943617D01*
X139163097Y-103946764D01*
X139156167Y-103949244D01*
X139149028Y-103951032D01*
X139141747Y-103952112D01*
X139134396Y-103952473D01*
X138984396Y-103952473D01*
X138977045Y-103952112D01*
X138969764Y-103951032D01*
X138962625Y-103949244D01*
X138955695Y-103946764D01*
X138949041Y-103943617D01*
X138942728Y-103939833D01*
X138936817Y-103935449D01*
X138931363Y-103930506D01*
X138926420Y-103925052D01*
X138922036Y-103919141D01*
X138918252Y-103912828D01*
X138915105Y-103906174D01*
X138912625Y-103899244D01*
X138910837Y-103892105D01*
X138909757Y-103884824D01*
X138909396Y-103877473D01*
X138909396Y-102477473D01*
X138909757Y-102470122D01*
X138910837Y-102462841D01*
X138912625Y-102455702D01*
X138915105Y-102448772D01*
X138918252Y-102442118D01*
X138922036Y-102435805D01*
X138926420Y-102429894D01*
X138931363Y-102424440D01*
X138936817Y-102419497D01*
X138942728Y-102415113D01*
X138949041Y-102411329D01*
X138955695Y-102408182D01*
X138962625Y-102405702D01*
X138969764Y-102403914D01*
X138977045Y-102402834D01*
X138984396Y-102402473D01*
X139134396Y-102402473D01*
X139141747Y-102402834D01*
X139141747Y-102402834D01*
G37*
D16*
X139059396Y-103177473D03*
D17*
X161898796Y-102328872D03*
X157298796Y-102328872D03*
X159598796Y-102328872D03*
D18*
X159598796Y-96028872D03*
D12*
G36*
X137874505Y-81151204D02*
G01*
X137898773Y-81154804D01*
X137922572Y-81160765D01*
X137945671Y-81169030D01*
X137967850Y-81179520D01*
X137988893Y-81192132D01*
X138008599Y-81206747D01*
X138026777Y-81223223D01*
X138043253Y-81241401D01*
X138057868Y-81261107D01*
X138070480Y-81282150D01*
X138080970Y-81304329D01*
X138089235Y-81327428D01*
X138095196Y-81351227D01*
X138098796Y-81375495D01*
X138100000Y-81399999D01*
X138100000Y-82050001D01*
X138098796Y-82074505D01*
X138095196Y-82098773D01*
X138089235Y-82122572D01*
X138080970Y-82145671D01*
X138070480Y-82167850D01*
X138057868Y-82188893D01*
X138043253Y-82208599D01*
X138026777Y-82226777D01*
X138008599Y-82243253D01*
X137988893Y-82257868D01*
X137967850Y-82270480D01*
X137945671Y-82280970D01*
X137922572Y-82289235D01*
X137898773Y-82295196D01*
X137874505Y-82298796D01*
X137850001Y-82300000D01*
X136949999Y-82300000D01*
X136925495Y-82298796D01*
X136901227Y-82295196D01*
X136877428Y-82289235D01*
X136854329Y-82280970D01*
X136832150Y-82270480D01*
X136811107Y-82257868D01*
X136791401Y-82243253D01*
X136773223Y-82226777D01*
X136756747Y-82208599D01*
X136742132Y-82188893D01*
X136729520Y-82167850D01*
X136719030Y-82145671D01*
X136710765Y-82122572D01*
X136704804Y-82098773D01*
X136701204Y-82074505D01*
X136700000Y-82050001D01*
X136700000Y-81399999D01*
X136701204Y-81375495D01*
X136704804Y-81351227D01*
X136710765Y-81327428D01*
X136719030Y-81304329D01*
X136729520Y-81282150D01*
X136742132Y-81261107D01*
X136756747Y-81241401D01*
X136773223Y-81223223D01*
X136791401Y-81206747D01*
X136811107Y-81192132D01*
X136832150Y-81179520D01*
X136854329Y-81169030D01*
X136877428Y-81160765D01*
X136901227Y-81154804D01*
X136925495Y-81151204D01*
X136949999Y-81150000D01*
X137850001Y-81150000D01*
X137874505Y-81151204D01*
X137874505Y-81151204D01*
G37*
D13*
X137400000Y-81725000D03*
D12*
G36*
X137874505Y-79101204D02*
G01*
X137898773Y-79104804D01*
X137922572Y-79110765D01*
X137945671Y-79119030D01*
X137967850Y-79129520D01*
X137988893Y-79142132D01*
X138008599Y-79156747D01*
X138026777Y-79173223D01*
X138043253Y-79191401D01*
X138057868Y-79211107D01*
X138070480Y-79232150D01*
X138080970Y-79254329D01*
X138089235Y-79277428D01*
X138095196Y-79301227D01*
X138098796Y-79325495D01*
X138100000Y-79349999D01*
X138100000Y-80000001D01*
X138098796Y-80024505D01*
X138095196Y-80048773D01*
X138089235Y-80072572D01*
X138080970Y-80095671D01*
X138070480Y-80117850D01*
X138057868Y-80138893D01*
X138043253Y-80158599D01*
X138026777Y-80176777D01*
X138008599Y-80193253D01*
X137988893Y-80207868D01*
X137967850Y-80220480D01*
X137945671Y-80230970D01*
X137922572Y-80239235D01*
X137898773Y-80245196D01*
X137874505Y-80248796D01*
X137850001Y-80250000D01*
X136949999Y-80250000D01*
X136925495Y-80248796D01*
X136901227Y-80245196D01*
X136877428Y-80239235D01*
X136854329Y-80230970D01*
X136832150Y-80220480D01*
X136811107Y-80207868D01*
X136791401Y-80193253D01*
X136773223Y-80176777D01*
X136756747Y-80158599D01*
X136742132Y-80138893D01*
X136729520Y-80117850D01*
X136719030Y-80095671D01*
X136710765Y-80072572D01*
X136704804Y-80048773D01*
X136701204Y-80024505D01*
X136700000Y-80000001D01*
X136700000Y-79349999D01*
X136701204Y-79325495D01*
X136704804Y-79301227D01*
X136710765Y-79277428D01*
X136719030Y-79254329D01*
X136729520Y-79232150D01*
X136742132Y-79211107D01*
X136756747Y-79191401D01*
X136773223Y-79173223D01*
X136791401Y-79156747D01*
X136811107Y-79142132D01*
X136832150Y-79129520D01*
X136854329Y-79119030D01*
X136877428Y-79110765D01*
X136901227Y-79104804D01*
X136925495Y-79101204D01*
X136949999Y-79100000D01*
X137850001Y-79100000D01*
X137874505Y-79101204D01*
X137874505Y-79101204D01*
G37*
D13*
X137400000Y-79675000D03*
D12*
G36*
X146474505Y-79101204D02*
G01*
X146498773Y-79104804D01*
X146522572Y-79110765D01*
X146545671Y-79119030D01*
X146567850Y-79129520D01*
X146588893Y-79142132D01*
X146608599Y-79156747D01*
X146626777Y-79173223D01*
X146643253Y-79191401D01*
X146657868Y-79211107D01*
X146670480Y-79232150D01*
X146680970Y-79254329D01*
X146689235Y-79277428D01*
X146695196Y-79301227D01*
X146698796Y-79325495D01*
X146700000Y-79349999D01*
X146700000Y-80000001D01*
X146698796Y-80024505D01*
X146695196Y-80048773D01*
X146689235Y-80072572D01*
X146680970Y-80095671D01*
X146670480Y-80117850D01*
X146657868Y-80138893D01*
X146643253Y-80158599D01*
X146626777Y-80176777D01*
X146608599Y-80193253D01*
X146588893Y-80207868D01*
X146567850Y-80220480D01*
X146545671Y-80230970D01*
X146522572Y-80239235D01*
X146498773Y-80245196D01*
X146474505Y-80248796D01*
X146450001Y-80250000D01*
X145549999Y-80250000D01*
X145525495Y-80248796D01*
X145501227Y-80245196D01*
X145477428Y-80239235D01*
X145454329Y-80230970D01*
X145432150Y-80220480D01*
X145411107Y-80207868D01*
X145391401Y-80193253D01*
X145373223Y-80176777D01*
X145356747Y-80158599D01*
X145342132Y-80138893D01*
X145329520Y-80117850D01*
X145319030Y-80095671D01*
X145310765Y-80072572D01*
X145304804Y-80048773D01*
X145301204Y-80024505D01*
X145300000Y-80000001D01*
X145300000Y-79349999D01*
X145301204Y-79325495D01*
X145304804Y-79301227D01*
X145310765Y-79277428D01*
X145319030Y-79254329D01*
X145329520Y-79232150D01*
X145342132Y-79211107D01*
X145356747Y-79191401D01*
X145373223Y-79173223D01*
X145391401Y-79156747D01*
X145411107Y-79142132D01*
X145432150Y-79129520D01*
X145454329Y-79119030D01*
X145477428Y-79110765D01*
X145501227Y-79104804D01*
X145525495Y-79101204D01*
X145549999Y-79100000D01*
X146450001Y-79100000D01*
X146474505Y-79101204D01*
X146474505Y-79101204D01*
G37*
D13*
X146000000Y-79675000D03*
D12*
G36*
X146474505Y-81151204D02*
G01*
X146498773Y-81154804D01*
X146522572Y-81160765D01*
X146545671Y-81169030D01*
X146567850Y-81179520D01*
X146588893Y-81192132D01*
X146608599Y-81206747D01*
X146626777Y-81223223D01*
X146643253Y-81241401D01*
X146657868Y-81261107D01*
X146670480Y-81282150D01*
X146680970Y-81304329D01*
X146689235Y-81327428D01*
X146695196Y-81351227D01*
X146698796Y-81375495D01*
X146700000Y-81399999D01*
X146700000Y-82050001D01*
X146698796Y-82074505D01*
X146695196Y-82098773D01*
X146689235Y-82122572D01*
X146680970Y-82145671D01*
X146670480Y-82167850D01*
X146657868Y-82188893D01*
X146643253Y-82208599D01*
X146626777Y-82226777D01*
X146608599Y-82243253D01*
X146588893Y-82257868D01*
X146567850Y-82270480D01*
X146545671Y-82280970D01*
X146522572Y-82289235D01*
X146498773Y-82295196D01*
X146474505Y-82298796D01*
X146450001Y-82300000D01*
X145549999Y-82300000D01*
X145525495Y-82298796D01*
X145501227Y-82295196D01*
X145477428Y-82289235D01*
X145454329Y-82280970D01*
X145432150Y-82270480D01*
X145411107Y-82257868D01*
X145391401Y-82243253D01*
X145373223Y-82226777D01*
X145356747Y-82208599D01*
X145342132Y-82188893D01*
X145329520Y-82167850D01*
X145319030Y-82145671D01*
X145310765Y-82122572D01*
X145304804Y-82098773D01*
X145301204Y-82074505D01*
X145300000Y-82050001D01*
X145300000Y-81399999D01*
X145301204Y-81375495D01*
X145304804Y-81351227D01*
X145310765Y-81327428D01*
X145319030Y-81304329D01*
X145329520Y-81282150D01*
X145342132Y-81261107D01*
X145356747Y-81241401D01*
X145373223Y-81223223D01*
X145391401Y-81206747D01*
X145411107Y-81192132D01*
X145432150Y-81179520D01*
X145454329Y-81169030D01*
X145477428Y-81160765D01*
X145501227Y-81154804D01*
X145525495Y-81151204D01*
X145549999Y-81150000D01*
X146450001Y-81150000D01*
X146474505Y-81151204D01*
X146474505Y-81151204D01*
G37*
D13*
X146000000Y-81725000D03*
D12*
G36*
X141774505Y-105301204D02*
G01*
X141798773Y-105304804D01*
X141822572Y-105310765D01*
X141845671Y-105319030D01*
X141867850Y-105329520D01*
X141888893Y-105342132D01*
X141908599Y-105356747D01*
X141926777Y-105373223D01*
X141943253Y-105391401D01*
X141957868Y-105411107D01*
X141970480Y-105432150D01*
X141980970Y-105454329D01*
X141989235Y-105477428D01*
X141995196Y-105501227D01*
X141998796Y-105525495D01*
X142000000Y-105549999D01*
X142000000Y-106450001D01*
X141998796Y-106474505D01*
X141995196Y-106498773D01*
X141989235Y-106522572D01*
X141980970Y-106545671D01*
X141970480Y-106567850D01*
X141957868Y-106588893D01*
X141943253Y-106608599D01*
X141926777Y-106626777D01*
X141908599Y-106643253D01*
X141888893Y-106657868D01*
X141867850Y-106670480D01*
X141845671Y-106680970D01*
X141822572Y-106689235D01*
X141798773Y-106695196D01*
X141774505Y-106698796D01*
X141750001Y-106700000D01*
X141099999Y-106700000D01*
X141075495Y-106698796D01*
X141051227Y-106695196D01*
X141027428Y-106689235D01*
X141004329Y-106680970D01*
X140982150Y-106670480D01*
X140961107Y-106657868D01*
X140941401Y-106643253D01*
X140923223Y-106626777D01*
X140906747Y-106608599D01*
X140892132Y-106588893D01*
X140879520Y-106567850D01*
X140869030Y-106545671D01*
X140860765Y-106522572D01*
X140854804Y-106498773D01*
X140851204Y-106474505D01*
X140850000Y-106450001D01*
X140850000Y-105549999D01*
X140851204Y-105525495D01*
X140854804Y-105501227D01*
X140860765Y-105477428D01*
X140869030Y-105454329D01*
X140879520Y-105432150D01*
X140892132Y-105411107D01*
X140906747Y-105391401D01*
X140923223Y-105373223D01*
X140941401Y-105356747D01*
X140961107Y-105342132D01*
X140982150Y-105329520D01*
X141004329Y-105319030D01*
X141027428Y-105310765D01*
X141051227Y-105304804D01*
X141075495Y-105301204D01*
X141099999Y-105300000D01*
X141750001Y-105300000D01*
X141774505Y-105301204D01*
X141774505Y-105301204D01*
G37*
D13*
X141425000Y-106000000D03*
D12*
G36*
X139724505Y-105301204D02*
G01*
X139748773Y-105304804D01*
X139772572Y-105310765D01*
X139795671Y-105319030D01*
X139817850Y-105329520D01*
X139838893Y-105342132D01*
X139858599Y-105356747D01*
X139876777Y-105373223D01*
X139893253Y-105391401D01*
X139907868Y-105411107D01*
X139920480Y-105432150D01*
X139930970Y-105454329D01*
X139939235Y-105477428D01*
X139945196Y-105501227D01*
X139948796Y-105525495D01*
X139950000Y-105549999D01*
X139950000Y-106450001D01*
X139948796Y-106474505D01*
X139945196Y-106498773D01*
X139939235Y-106522572D01*
X139930970Y-106545671D01*
X139920480Y-106567850D01*
X139907868Y-106588893D01*
X139893253Y-106608599D01*
X139876777Y-106626777D01*
X139858599Y-106643253D01*
X139838893Y-106657868D01*
X139817850Y-106670480D01*
X139795671Y-106680970D01*
X139772572Y-106689235D01*
X139748773Y-106695196D01*
X139724505Y-106698796D01*
X139700001Y-106700000D01*
X139049999Y-106700000D01*
X139025495Y-106698796D01*
X139001227Y-106695196D01*
X138977428Y-106689235D01*
X138954329Y-106680970D01*
X138932150Y-106670480D01*
X138911107Y-106657868D01*
X138891401Y-106643253D01*
X138873223Y-106626777D01*
X138856747Y-106608599D01*
X138842132Y-106588893D01*
X138829520Y-106567850D01*
X138819030Y-106545671D01*
X138810765Y-106522572D01*
X138804804Y-106498773D01*
X138801204Y-106474505D01*
X138800000Y-106450001D01*
X138800000Y-105549999D01*
X138801204Y-105525495D01*
X138804804Y-105501227D01*
X138810765Y-105477428D01*
X138819030Y-105454329D01*
X138829520Y-105432150D01*
X138842132Y-105411107D01*
X138856747Y-105391401D01*
X138873223Y-105373223D01*
X138891401Y-105356747D01*
X138911107Y-105342132D01*
X138932150Y-105329520D01*
X138954329Y-105319030D01*
X138977428Y-105310765D01*
X139001227Y-105304804D01*
X139025495Y-105301204D01*
X139049999Y-105300000D01*
X139700001Y-105300000D01*
X139724505Y-105301204D01*
X139724505Y-105301204D01*
G37*
D13*
X139375000Y-106000000D03*
M02*
