M48
INCH,TZ
T1C0.0130
T2C0.0200
T3C0.0236
T4C0.0315
T5C0.0394
T6C0.0256
T7C0.1417
T8C0.1614
T9C0.2008
%
G90
G05
T1
X53684Y-33711
X53701Y-33307
X55428Y-39780
X55473Y-40114
T2
X49200Y-45120
X49490Y-45420
X49650Y-39208
X49650Y-39882
X49790Y-45750
X49961Y-37205
X50080Y-40020
X50433Y-37320
X50467Y-37840
X50682Y-38280
X50700Y-46623
X50748Y-43071
X51065Y-43309
X51142Y-42126
X51315Y-48335
X51750Y-44730
X51750Y-45110
X51750Y-45490
X51750Y-45870
X51750Y-46260
X51772Y-42992
X51870Y-42244
X51929Y-42638
X52756Y-36260
X52950Y-40180
X53113Y-36097
X53189Y-34803
X53260Y-39601
X53386Y-45827
X53425Y-39961
X53465Y-42717
X53465Y-43346
X53780Y-45984
X54383Y-40520
X54603Y-39451
X55630Y-34724
X56063Y-34331
X56075Y-34726
X56120Y-42340
X56148Y-38402
X56450Y-42010
X56750Y-42890
X56834Y-38402
X57622Y-38402
X58022Y-31368
X58160Y-42850
X58178Y-40293
X58250Y-32856
X58354Y-44230
X58465Y-48150
X58570Y-42710
X58610Y-46930
X58661Y-33071
X58661Y-33504
X58730Y-45040
X58740Y-44030
X58780Y-40560
X58900Y-46580
X59291Y-47205
X59590Y-40180
X59592Y-39386
X59602Y-39772
X59685Y-47087
X60230Y-41450
X60263Y-28044
X60300Y-45610
X60330Y-40700
X60433Y-38071
X60720Y-46760
X60720Y-40670
X60748Y-38268
X60950Y-39750
X60950Y-39010
X61496Y-41811
X61811Y-37126
X61929Y-41251
X62586Y-28044
X62598Y-36969
X62598Y-36575
X63425Y-36575
X63465Y-36969
X64567Y-41181
X64862Y-36634
X64865Y-29820
X64865Y-32064
X64865Y-34426
T4
X46732Y-28425
X47505Y-42705
X48504Y-36654
X49094Y-28425
X49409Y-34606
X51457Y-28425
X52362Y-35591
X53071Y-29567
X54740Y-37440
X54740Y-38530
X54803Y-29244
X55000Y-28425
X55590Y-37030
X57589Y-39541
X57590Y-37030
X58071Y-29528
X58543Y-28465
X60906Y-28425
X63030Y-35195
X63268Y-28425
X63909Y-37019
X64409Y-32677
X64409Y-35039
X64488Y-30315
T5
X47240Y-32055
X47240Y-33055
X47240Y-34055
X47240Y-35055
X47240Y-36055
X47240Y-37055
X59660Y-43150
X59660Y-44150
T6
X54650Y-29685
X56925Y-29685
T7
X47909Y-46299
X63657Y-46299
T8
X60507Y-34488
X51058Y-34488
T9
X55783Y-46299
T3
G00X54087Y-28130
M15
G01X54087Y-28366
M16
G05
G00X54087Y-29677
M15
G01X54087Y-30110
M16
G05
G00X57488Y-28130
M15
G01X57488Y-28366
M16
G05
G00X57488Y-29677
M15
G01X57488Y-30110
M16
G05
T0
M30
