G04 #@! TF.GenerationSoftware,KiCad,Pcbnew,(5.1.4-0)*
G04 #@! TF.CreationDate,2019-11-27T14:08:46-06:00*
G04 #@! TF.ProjectId,veccart,76656363-6172-4742-9e6b-696361645f70,rev?*
G04 #@! TF.SameCoordinates,Original*
G04 #@! TF.FileFunction,Soldermask,Top*
G04 #@! TF.FilePolarity,Negative*
%FSLAX46Y46*%
G04 Gerber Fmt 4.6, Leading zero omitted, Abs format (unit mm)*
G04 Created by KiCad (PCBNEW (5.1.4-0)) date 2019-11-27 14:08:46*
%MOMM*%
%LPD*%
G04 APERTURE LIST*
%ADD10C,1.700000*%
%ADD11C,4.500000*%
%ADD12C,3.900000*%
%ADD13C,5.300000*%
%ADD14O,1.900000X1.900000*%
%ADD15R,1.900000X1.900000*%
%ADD16R,3.700000X2.600000*%
%ADD17O,1.978000X9.090000*%
%ADD18C,0.100000*%
%ADD19C,1.350000*%
%ADD20R,1.100000X1.400000*%
%ADD21C,0.800000*%
G04 APERTURE END LIST*
D10*
X161194800Y-76994000D03*
X157694800Y-76994000D03*
D11*
X153628396Y-87398872D03*
X129728396Y-87398872D03*
D12*
X161528397Y-117598872D03*
D13*
X141688396Y-117598872D03*
D14*
X119989600Y-87274400D03*
X119989600Y-84734400D03*
X119989600Y-82194400D03*
X119989600Y-79654400D03*
X119989600Y-77114400D03*
D15*
X119989600Y-74574400D03*
D16*
X133280800Y-102489000D03*
X138480800Y-102489000D03*
D17*
X163278396Y-130598873D03*
X160738396Y-130598873D03*
X158198396Y-130598873D03*
X155658396Y-130598873D03*
X153118396Y-130598873D03*
X150578396Y-130598873D03*
X148038396Y-130598873D03*
X145498396Y-130598873D03*
X142958396Y-130598873D03*
X140418396Y-130598873D03*
X137878396Y-130598873D03*
X135338396Y-130598873D03*
X132798396Y-130598873D03*
X130258396Y-130598873D03*
X127718396Y-130598873D03*
X125178396Y-130598873D03*
X122638396Y-130598873D03*
X120098396Y-130598873D03*
D14*
X151536400Y-109601000D03*
D15*
X151536400Y-112141000D03*
D18*
G36*
X154205289Y-83062813D02*
G01*
X154233778Y-83067039D01*
X154261715Y-83074037D01*
X154288832Y-83083740D01*
X154314867Y-83096053D01*
X154339570Y-83110860D01*
X154362703Y-83128016D01*
X154384043Y-83147357D01*
X154403384Y-83168697D01*
X154420540Y-83191830D01*
X154435347Y-83216533D01*
X154447660Y-83242568D01*
X154457363Y-83269685D01*
X154464361Y-83297622D01*
X154468587Y-83326111D01*
X154470000Y-83354877D01*
X154470000Y-84117923D01*
X154468587Y-84146689D01*
X154464361Y-84175178D01*
X154457363Y-84203115D01*
X154447660Y-84230232D01*
X154435347Y-84256267D01*
X154420540Y-84280970D01*
X154403384Y-84304103D01*
X154384043Y-84325443D01*
X154362703Y-84344784D01*
X154339570Y-84361940D01*
X154314867Y-84376747D01*
X154288832Y-84389060D01*
X154261715Y-84398763D01*
X154233778Y-84405761D01*
X154205289Y-84409987D01*
X154176523Y-84411400D01*
X153163477Y-84411400D01*
X153134711Y-84409987D01*
X153106222Y-84405761D01*
X153078285Y-84398763D01*
X153051168Y-84389060D01*
X153025133Y-84376747D01*
X153000430Y-84361940D01*
X152977297Y-84344784D01*
X152955957Y-84325443D01*
X152936616Y-84304103D01*
X152919460Y-84280970D01*
X152904653Y-84256267D01*
X152892340Y-84230232D01*
X152882637Y-84203115D01*
X152875639Y-84175178D01*
X152871413Y-84146689D01*
X152870000Y-84117923D01*
X152870000Y-83354877D01*
X152871413Y-83326111D01*
X152875639Y-83297622D01*
X152882637Y-83269685D01*
X152892340Y-83242568D01*
X152904653Y-83216533D01*
X152919460Y-83191830D01*
X152936616Y-83168697D01*
X152955957Y-83147357D01*
X152977297Y-83128016D01*
X153000430Y-83110860D01*
X153025133Y-83096053D01*
X153051168Y-83083740D01*
X153078285Y-83074037D01*
X153106222Y-83067039D01*
X153134711Y-83062813D01*
X153163477Y-83061400D01*
X154176523Y-83061400D01*
X154205289Y-83062813D01*
X154205289Y-83062813D01*
G37*
D19*
X153670000Y-83736400D03*
D18*
G36*
X154205289Y-81012813D02*
G01*
X154233778Y-81017039D01*
X154261715Y-81024037D01*
X154288832Y-81033740D01*
X154314867Y-81046053D01*
X154339570Y-81060860D01*
X154362703Y-81078016D01*
X154384043Y-81097357D01*
X154403384Y-81118697D01*
X154420540Y-81141830D01*
X154435347Y-81166533D01*
X154447660Y-81192568D01*
X154457363Y-81219685D01*
X154464361Y-81247622D01*
X154468587Y-81276111D01*
X154470000Y-81304877D01*
X154470000Y-82067923D01*
X154468587Y-82096689D01*
X154464361Y-82125178D01*
X154457363Y-82153115D01*
X154447660Y-82180232D01*
X154435347Y-82206267D01*
X154420540Y-82230970D01*
X154403384Y-82254103D01*
X154384043Y-82275443D01*
X154362703Y-82294784D01*
X154339570Y-82311940D01*
X154314867Y-82326747D01*
X154288832Y-82339060D01*
X154261715Y-82348763D01*
X154233778Y-82355761D01*
X154205289Y-82359987D01*
X154176523Y-82361400D01*
X153163477Y-82361400D01*
X153134711Y-82359987D01*
X153106222Y-82355761D01*
X153078285Y-82348763D01*
X153051168Y-82339060D01*
X153025133Y-82326747D01*
X153000430Y-82311940D01*
X152977297Y-82294784D01*
X152955957Y-82275443D01*
X152936616Y-82254103D01*
X152919460Y-82230970D01*
X152904653Y-82206267D01*
X152892340Y-82180232D01*
X152882637Y-82153115D01*
X152875639Y-82125178D01*
X152871413Y-82096689D01*
X152870000Y-82067923D01*
X152870000Y-81304877D01*
X152871413Y-81276111D01*
X152875639Y-81247622D01*
X152882637Y-81219685D01*
X152892340Y-81192568D01*
X152904653Y-81166533D01*
X152919460Y-81141830D01*
X152936616Y-81118697D01*
X152955957Y-81097357D01*
X152977297Y-81078016D01*
X153000430Y-81060860D01*
X153025133Y-81046053D01*
X153051168Y-81033740D01*
X153078285Y-81024037D01*
X153106222Y-81017039D01*
X153134711Y-81012813D01*
X153163477Y-81011400D01*
X154176523Y-81011400D01*
X154205289Y-81012813D01*
X154205289Y-81012813D01*
G37*
D19*
X153670000Y-81686400D03*
D18*
G36*
X151258889Y-81139813D02*
G01*
X151287378Y-81144039D01*
X151315315Y-81151037D01*
X151342432Y-81160740D01*
X151368467Y-81173053D01*
X151393170Y-81187860D01*
X151416303Y-81205016D01*
X151437643Y-81224357D01*
X151456984Y-81245697D01*
X151474140Y-81268830D01*
X151488947Y-81293533D01*
X151501260Y-81319568D01*
X151510963Y-81346685D01*
X151517961Y-81374622D01*
X151522187Y-81403111D01*
X151523600Y-81431877D01*
X151523600Y-82194923D01*
X151522187Y-82223689D01*
X151517961Y-82252178D01*
X151510963Y-82280115D01*
X151501260Y-82307232D01*
X151488947Y-82333267D01*
X151474140Y-82357970D01*
X151456984Y-82381103D01*
X151437643Y-82402443D01*
X151416303Y-82421784D01*
X151393170Y-82438940D01*
X151368467Y-82453747D01*
X151342432Y-82466060D01*
X151315315Y-82475763D01*
X151287378Y-82482761D01*
X151258889Y-82486987D01*
X151230123Y-82488400D01*
X150217077Y-82488400D01*
X150188311Y-82486987D01*
X150159822Y-82482761D01*
X150131885Y-82475763D01*
X150104768Y-82466060D01*
X150078733Y-82453747D01*
X150054030Y-82438940D01*
X150030897Y-82421784D01*
X150009557Y-82402443D01*
X149990216Y-82381103D01*
X149973060Y-82357970D01*
X149958253Y-82333267D01*
X149945940Y-82307232D01*
X149936237Y-82280115D01*
X149929239Y-82252178D01*
X149925013Y-82223689D01*
X149923600Y-82194923D01*
X149923600Y-81431877D01*
X149925013Y-81403111D01*
X149929239Y-81374622D01*
X149936237Y-81346685D01*
X149945940Y-81319568D01*
X149958253Y-81293533D01*
X149973060Y-81268830D01*
X149990216Y-81245697D01*
X150009557Y-81224357D01*
X150030897Y-81205016D01*
X150054030Y-81187860D01*
X150078733Y-81173053D01*
X150104768Y-81160740D01*
X150131885Y-81151037D01*
X150159822Y-81144039D01*
X150188311Y-81139813D01*
X150217077Y-81138400D01*
X151230123Y-81138400D01*
X151258889Y-81139813D01*
X151258889Y-81139813D01*
G37*
D19*
X150723600Y-81813400D03*
D18*
G36*
X151258889Y-83189813D02*
G01*
X151287378Y-83194039D01*
X151315315Y-83201037D01*
X151342432Y-83210740D01*
X151368467Y-83223053D01*
X151393170Y-83237860D01*
X151416303Y-83255016D01*
X151437643Y-83274357D01*
X151456984Y-83295697D01*
X151474140Y-83318830D01*
X151488947Y-83343533D01*
X151501260Y-83369568D01*
X151510963Y-83396685D01*
X151517961Y-83424622D01*
X151522187Y-83453111D01*
X151523600Y-83481877D01*
X151523600Y-84244923D01*
X151522187Y-84273689D01*
X151517961Y-84302178D01*
X151510963Y-84330115D01*
X151501260Y-84357232D01*
X151488947Y-84383267D01*
X151474140Y-84407970D01*
X151456984Y-84431103D01*
X151437643Y-84452443D01*
X151416303Y-84471784D01*
X151393170Y-84488940D01*
X151368467Y-84503747D01*
X151342432Y-84516060D01*
X151315315Y-84525763D01*
X151287378Y-84532761D01*
X151258889Y-84536987D01*
X151230123Y-84538400D01*
X150217077Y-84538400D01*
X150188311Y-84536987D01*
X150159822Y-84532761D01*
X150131885Y-84525763D01*
X150104768Y-84516060D01*
X150078733Y-84503747D01*
X150054030Y-84488940D01*
X150030897Y-84471784D01*
X150009557Y-84452443D01*
X149990216Y-84431103D01*
X149973060Y-84407970D01*
X149958253Y-84383267D01*
X149945940Y-84357232D01*
X149936237Y-84330115D01*
X149929239Y-84302178D01*
X149925013Y-84273689D01*
X149923600Y-84244923D01*
X149923600Y-83481877D01*
X149925013Y-83453111D01*
X149929239Y-83424622D01*
X149936237Y-83396685D01*
X149945940Y-83369568D01*
X149958253Y-83343533D01*
X149973060Y-83318830D01*
X149990216Y-83295697D01*
X150009557Y-83274357D01*
X150030897Y-83255016D01*
X150054030Y-83237860D01*
X150078733Y-83223053D01*
X150104768Y-83210740D01*
X150131885Y-83201037D01*
X150159822Y-83194039D01*
X150188311Y-83189813D01*
X150217077Y-83188400D01*
X151230123Y-83188400D01*
X151258889Y-83189813D01*
X151258889Y-83189813D01*
G37*
D19*
X150723600Y-83863400D03*
D18*
G36*
X143276289Y-94730813D02*
G01*
X143304778Y-94735039D01*
X143332715Y-94742037D01*
X143359832Y-94751740D01*
X143385867Y-94764053D01*
X143410570Y-94778860D01*
X143433703Y-94796016D01*
X143455043Y-94815357D01*
X143474384Y-94836697D01*
X143491540Y-94859830D01*
X143506347Y-94884533D01*
X143518660Y-94910568D01*
X143528363Y-94937685D01*
X143535361Y-94965622D01*
X143539587Y-94994111D01*
X143541000Y-95022877D01*
X143541000Y-96035923D01*
X143539587Y-96064689D01*
X143535361Y-96093178D01*
X143528363Y-96121115D01*
X143518660Y-96148232D01*
X143506347Y-96174267D01*
X143491540Y-96198970D01*
X143474384Y-96222103D01*
X143455043Y-96243443D01*
X143433703Y-96262784D01*
X143410570Y-96279940D01*
X143385867Y-96294747D01*
X143359832Y-96307060D01*
X143332715Y-96316763D01*
X143304778Y-96323761D01*
X143276289Y-96327987D01*
X143247523Y-96329400D01*
X142484477Y-96329400D01*
X142455711Y-96327987D01*
X142427222Y-96323761D01*
X142399285Y-96316763D01*
X142372168Y-96307060D01*
X142346133Y-96294747D01*
X142321430Y-96279940D01*
X142298297Y-96262784D01*
X142276957Y-96243443D01*
X142257616Y-96222103D01*
X142240460Y-96198970D01*
X142225653Y-96174267D01*
X142213340Y-96148232D01*
X142203637Y-96121115D01*
X142196639Y-96093178D01*
X142192413Y-96064689D01*
X142191000Y-96035923D01*
X142191000Y-95022877D01*
X142192413Y-94994111D01*
X142196639Y-94965622D01*
X142203637Y-94937685D01*
X142213340Y-94910568D01*
X142225653Y-94884533D01*
X142240460Y-94859830D01*
X142257616Y-94836697D01*
X142276957Y-94815357D01*
X142298297Y-94796016D01*
X142321430Y-94778860D01*
X142346133Y-94764053D01*
X142372168Y-94751740D01*
X142399285Y-94742037D01*
X142427222Y-94735039D01*
X142455711Y-94730813D01*
X142484477Y-94729400D01*
X143247523Y-94729400D01*
X143276289Y-94730813D01*
X143276289Y-94730813D01*
G37*
D19*
X142866000Y-95529400D03*
D18*
G36*
X145326289Y-94730813D02*
G01*
X145354778Y-94735039D01*
X145382715Y-94742037D01*
X145409832Y-94751740D01*
X145435867Y-94764053D01*
X145460570Y-94778860D01*
X145483703Y-94796016D01*
X145505043Y-94815357D01*
X145524384Y-94836697D01*
X145541540Y-94859830D01*
X145556347Y-94884533D01*
X145568660Y-94910568D01*
X145578363Y-94937685D01*
X145585361Y-94965622D01*
X145589587Y-94994111D01*
X145591000Y-95022877D01*
X145591000Y-96035923D01*
X145589587Y-96064689D01*
X145585361Y-96093178D01*
X145578363Y-96121115D01*
X145568660Y-96148232D01*
X145556347Y-96174267D01*
X145541540Y-96198970D01*
X145524384Y-96222103D01*
X145505043Y-96243443D01*
X145483703Y-96262784D01*
X145460570Y-96279940D01*
X145435867Y-96294747D01*
X145409832Y-96307060D01*
X145382715Y-96316763D01*
X145354778Y-96323761D01*
X145326289Y-96327987D01*
X145297523Y-96329400D01*
X144534477Y-96329400D01*
X144505711Y-96327987D01*
X144477222Y-96323761D01*
X144449285Y-96316763D01*
X144422168Y-96307060D01*
X144396133Y-96294747D01*
X144371430Y-96279940D01*
X144348297Y-96262784D01*
X144326957Y-96243443D01*
X144307616Y-96222103D01*
X144290460Y-96198970D01*
X144275653Y-96174267D01*
X144263340Y-96148232D01*
X144253637Y-96121115D01*
X144246639Y-96093178D01*
X144242413Y-96064689D01*
X144241000Y-96035923D01*
X144241000Y-95022877D01*
X144242413Y-94994111D01*
X144246639Y-94965622D01*
X144253637Y-94937685D01*
X144263340Y-94910568D01*
X144275653Y-94884533D01*
X144290460Y-94859830D01*
X144307616Y-94836697D01*
X144326957Y-94815357D01*
X144348297Y-94796016D01*
X144371430Y-94778860D01*
X144396133Y-94764053D01*
X144422168Y-94751740D01*
X144449285Y-94742037D01*
X144477222Y-94735039D01*
X144505711Y-94730813D01*
X144534477Y-94729400D01*
X145297523Y-94729400D01*
X145326289Y-94730813D01*
X145326289Y-94730813D01*
G37*
D19*
X144916000Y-95529400D03*
D18*
G36*
X141175089Y-97760413D02*
G01*
X141203578Y-97764639D01*
X141231515Y-97771637D01*
X141258632Y-97781340D01*
X141284667Y-97793653D01*
X141309370Y-97808460D01*
X141332503Y-97825616D01*
X141353843Y-97844957D01*
X141373184Y-97866297D01*
X141390340Y-97889430D01*
X141405147Y-97914133D01*
X141417460Y-97940168D01*
X141427163Y-97967285D01*
X141434161Y-97995222D01*
X141438387Y-98023711D01*
X141439800Y-98052477D01*
X141439800Y-98815523D01*
X141438387Y-98844289D01*
X141434161Y-98872778D01*
X141427163Y-98900715D01*
X141417460Y-98927832D01*
X141405147Y-98953867D01*
X141390340Y-98978570D01*
X141373184Y-99001703D01*
X141353843Y-99023043D01*
X141332503Y-99042384D01*
X141309370Y-99059540D01*
X141284667Y-99074347D01*
X141258632Y-99086660D01*
X141231515Y-99096363D01*
X141203578Y-99103361D01*
X141175089Y-99107587D01*
X141146323Y-99109000D01*
X140133277Y-99109000D01*
X140104511Y-99107587D01*
X140076022Y-99103361D01*
X140048085Y-99096363D01*
X140020968Y-99086660D01*
X139994933Y-99074347D01*
X139970230Y-99059540D01*
X139947097Y-99042384D01*
X139925757Y-99023043D01*
X139906416Y-99001703D01*
X139889260Y-98978570D01*
X139874453Y-98953867D01*
X139862140Y-98927832D01*
X139852437Y-98900715D01*
X139845439Y-98872778D01*
X139841213Y-98844289D01*
X139839800Y-98815523D01*
X139839800Y-98052477D01*
X139841213Y-98023711D01*
X139845439Y-97995222D01*
X139852437Y-97967285D01*
X139862140Y-97940168D01*
X139874453Y-97914133D01*
X139889260Y-97889430D01*
X139906416Y-97866297D01*
X139925757Y-97844957D01*
X139947097Y-97825616D01*
X139970230Y-97808460D01*
X139994933Y-97793653D01*
X140020968Y-97781340D01*
X140048085Y-97771637D01*
X140076022Y-97764639D01*
X140104511Y-97760413D01*
X140133277Y-97759000D01*
X141146323Y-97759000D01*
X141175089Y-97760413D01*
X141175089Y-97760413D01*
G37*
D19*
X140639800Y-98434000D03*
D18*
G36*
X141175089Y-95710413D02*
G01*
X141203578Y-95714639D01*
X141231515Y-95721637D01*
X141258632Y-95731340D01*
X141284667Y-95743653D01*
X141309370Y-95758460D01*
X141332503Y-95775616D01*
X141353843Y-95794957D01*
X141373184Y-95816297D01*
X141390340Y-95839430D01*
X141405147Y-95864133D01*
X141417460Y-95890168D01*
X141427163Y-95917285D01*
X141434161Y-95945222D01*
X141438387Y-95973711D01*
X141439800Y-96002477D01*
X141439800Y-96765523D01*
X141438387Y-96794289D01*
X141434161Y-96822778D01*
X141427163Y-96850715D01*
X141417460Y-96877832D01*
X141405147Y-96903867D01*
X141390340Y-96928570D01*
X141373184Y-96951703D01*
X141353843Y-96973043D01*
X141332503Y-96992384D01*
X141309370Y-97009540D01*
X141284667Y-97024347D01*
X141258632Y-97036660D01*
X141231515Y-97046363D01*
X141203578Y-97053361D01*
X141175089Y-97057587D01*
X141146323Y-97059000D01*
X140133277Y-97059000D01*
X140104511Y-97057587D01*
X140076022Y-97053361D01*
X140048085Y-97046363D01*
X140020968Y-97036660D01*
X139994933Y-97024347D01*
X139970230Y-97009540D01*
X139947097Y-96992384D01*
X139925757Y-96973043D01*
X139906416Y-96951703D01*
X139889260Y-96928570D01*
X139874453Y-96903867D01*
X139862140Y-96877832D01*
X139852437Y-96850715D01*
X139845439Y-96822778D01*
X139841213Y-96794289D01*
X139839800Y-96765523D01*
X139839800Y-96002477D01*
X139841213Y-95973711D01*
X139845439Y-95945222D01*
X139852437Y-95917285D01*
X139862140Y-95890168D01*
X139874453Y-95864133D01*
X139889260Y-95839430D01*
X139906416Y-95816297D01*
X139925757Y-95794957D01*
X139947097Y-95775616D01*
X139970230Y-95758460D01*
X139994933Y-95743653D01*
X140020968Y-95731340D01*
X140048085Y-95721637D01*
X140076022Y-95714639D01*
X140104511Y-95710413D01*
X140133277Y-95709000D01*
X141146323Y-95709000D01*
X141175089Y-95710413D01*
X141175089Y-95710413D01*
G37*
D19*
X140639800Y-96384000D03*
D18*
G36*
X143377889Y-99353613D02*
G01*
X143406378Y-99357839D01*
X143434315Y-99364837D01*
X143461432Y-99374540D01*
X143487467Y-99386853D01*
X143512170Y-99401660D01*
X143535303Y-99418816D01*
X143556643Y-99438157D01*
X143575984Y-99459497D01*
X143593140Y-99482630D01*
X143607947Y-99507333D01*
X143620260Y-99533368D01*
X143629963Y-99560485D01*
X143636961Y-99588422D01*
X143641187Y-99616911D01*
X143642600Y-99645677D01*
X143642600Y-100658723D01*
X143641187Y-100687489D01*
X143636961Y-100715978D01*
X143629963Y-100743915D01*
X143620260Y-100771032D01*
X143607947Y-100797067D01*
X143593140Y-100821770D01*
X143575984Y-100844903D01*
X143556643Y-100866243D01*
X143535303Y-100885584D01*
X143512170Y-100902740D01*
X143487467Y-100917547D01*
X143461432Y-100929860D01*
X143434315Y-100939563D01*
X143406378Y-100946561D01*
X143377889Y-100950787D01*
X143349123Y-100952200D01*
X142586077Y-100952200D01*
X142557311Y-100950787D01*
X142528822Y-100946561D01*
X142500885Y-100939563D01*
X142473768Y-100929860D01*
X142447733Y-100917547D01*
X142423030Y-100902740D01*
X142399897Y-100885584D01*
X142378557Y-100866243D01*
X142359216Y-100844903D01*
X142342060Y-100821770D01*
X142327253Y-100797067D01*
X142314940Y-100771032D01*
X142305237Y-100743915D01*
X142298239Y-100715978D01*
X142294013Y-100687489D01*
X142292600Y-100658723D01*
X142292600Y-99645677D01*
X142294013Y-99616911D01*
X142298239Y-99588422D01*
X142305237Y-99560485D01*
X142314940Y-99533368D01*
X142327253Y-99507333D01*
X142342060Y-99482630D01*
X142359216Y-99459497D01*
X142378557Y-99438157D01*
X142399897Y-99418816D01*
X142423030Y-99401660D01*
X142447733Y-99386853D01*
X142473768Y-99374540D01*
X142500885Y-99364837D01*
X142528822Y-99357839D01*
X142557311Y-99353613D01*
X142586077Y-99352200D01*
X143349123Y-99352200D01*
X143377889Y-99353613D01*
X143377889Y-99353613D01*
G37*
D19*
X142967600Y-100152200D03*
D18*
G36*
X145427889Y-99353613D02*
G01*
X145456378Y-99357839D01*
X145484315Y-99364837D01*
X145511432Y-99374540D01*
X145537467Y-99386853D01*
X145562170Y-99401660D01*
X145585303Y-99418816D01*
X145606643Y-99438157D01*
X145625984Y-99459497D01*
X145643140Y-99482630D01*
X145657947Y-99507333D01*
X145670260Y-99533368D01*
X145679963Y-99560485D01*
X145686961Y-99588422D01*
X145691187Y-99616911D01*
X145692600Y-99645677D01*
X145692600Y-100658723D01*
X145691187Y-100687489D01*
X145686961Y-100715978D01*
X145679963Y-100743915D01*
X145670260Y-100771032D01*
X145657947Y-100797067D01*
X145643140Y-100821770D01*
X145625984Y-100844903D01*
X145606643Y-100866243D01*
X145585303Y-100885584D01*
X145562170Y-100902740D01*
X145537467Y-100917547D01*
X145511432Y-100929860D01*
X145484315Y-100939563D01*
X145456378Y-100946561D01*
X145427889Y-100950787D01*
X145399123Y-100952200D01*
X144636077Y-100952200D01*
X144607311Y-100950787D01*
X144578822Y-100946561D01*
X144550885Y-100939563D01*
X144523768Y-100929860D01*
X144497733Y-100917547D01*
X144473030Y-100902740D01*
X144449897Y-100885584D01*
X144428557Y-100866243D01*
X144409216Y-100844903D01*
X144392060Y-100821770D01*
X144377253Y-100797067D01*
X144364940Y-100771032D01*
X144355237Y-100743915D01*
X144348239Y-100715978D01*
X144344013Y-100687489D01*
X144342600Y-100658723D01*
X144342600Y-99645677D01*
X144344013Y-99616911D01*
X144348239Y-99588422D01*
X144355237Y-99560485D01*
X144364940Y-99533368D01*
X144377253Y-99507333D01*
X144392060Y-99482630D01*
X144409216Y-99459497D01*
X144428557Y-99438157D01*
X144449897Y-99418816D01*
X144473030Y-99401660D01*
X144497733Y-99386853D01*
X144523768Y-99374540D01*
X144550885Y-99364837D01*
X144578822Y-99357839D01*
X144607311Y-99353613D01*
X144636077Y-99352200D01*
X145399123Y-99352200D01*
X145427889Y-99353613D01*
X145427889Y-99353613D01*
G37*
D19*
X145017600Y-100152200D03*
D18*
G36*
X149303089Y-104355412D02*
G01*
X149331578Y-104359638D01*
X149359515Y-104366636D01*
X149386632Y-104376339D01*
X149412667Y-104388652D01*
X149437370Y-104403459D01*
X149460503Y-104420615D01*
X149481843Y-104439956D01*
X149501184Y-104461296D01*
X149518340Y-104484429D01*
X149533147Y-104509132D01*
X149545460Y-104535167D01*
X149555163Y-104562284D01*
X149562161Y-104590221D01*
X149566387Y-104618710D01*
X149567800Y-104647476D01*
X149567800Y-105410522D01*
X149566387Y-105439288D01*
X149562161Y-105467777D01*
X149555163Y-105495714D01*
X149545460Y-105522831D01*
X149533147Y-105548866D01*
X149518340Y-105573569D01*
X149501184Y-105596702D01*
X149481843Y-105618042D01*
X149460503Y-105637383D01*
X149437370Y-105654539D01*
X149412667Y-105669346D01*
X149386632Y-105681659D01*
X149359515Y-105691362D01*
X149331578Y-105698360D01*
X149303089Y-105702586D01*
X149274323Y-105703999D01*
X148261277Y-105703999D01*
X148232511Y-105702586D01*
X148204022Y-105698360D01*
X148176085Y-105691362D01*
X148148968Y-105681659D01*
X148122933Y-105669346D01*
X148098230Y-105654539D01*
X148075097Y-105637383D01*
X148053757Y-105618042D01*
X148034416Y-105596702D01*
X148017260Y-105573569D01*
X148002453Y-105548866D01*
X147990140Y-105522831D01*
X147980437Y-105495714D01*
X147973439Y-105467777D01*
X147969213Y-105439288D01*
X147967800Y-105410522D01*
X147967800Y-104647476D01*
X147969213Y-104618710D01*
X147973439Y-104590221D01*
X147980437Y-104562284D01*
X147990140Y-104535167D01*
X148002453Y-104509132D01*
X148017260Y-104484429D01*
X148034416Y-104461296D01*
X148053757Y-104439956D01*
X148075097Y-104420615D01*
X148098230Y-104403459D01*
X148122933Y-104388652D01*
X148148968Y-104376339D01*
X148176085Y-104366636D01*
X148204022Y-104359638D01*
X148232511Y-104355412D01*
X148261277Y-104353999D01*
X149274323Y-104353999D01*
X149303089Y-104355412D01*
X149303089Y-104355412D01*
G37*
D19*
X148767800Y-105028999D03*
D18*
G36*
X149303089Y-106405412D02*
G01*
X149331578Y-106409638D01*
X149359515Y-106416636D01*
X149386632Y-106426339D01*
X149412667Y-106438652D01*
X149437370Y-106453459D01*
X149460503Y-106470615D01*
X149481843Y-106489956D01*
X149501184Y-106511296D01*
X149518340Y-106534429D01*
X149533147Y-106559132D01*
X149545460Y-106585167D01*
X149555163Y-106612284D01*
X149562161Y-106640221D01*
X149566387Y-106668710D01*
X149567800Y-106697476D01*
X149567800Y-107460522D01*
X149566387Y-107489288D01*
X149562161Y-107517777D01*
X149555163Y-107545714D01*
X149545460Y-107572831D01*
X149533147Y-107598866D01*
X149518340Y-107623569D01*
X149501184Y-107646702D01*
X149481843Y-107668042D01*
X149460503Y-107687383D01*
X149437370Y-107704539D01*
X149412667Y-107719346D01*
X149386632Y-107731659D01*
X149359515Y-107741362D01*
X149331578Y-107748360D01*
X149303089Y-107752586D01*
X149274323Y-107753999D01*
X148261277Y-107753999D01*
X148232511Y-107752586D01*
X148204022Y-107748360D01*
X148176085Y-107741362D01*
X148148968Y-107731659D01*
X148122933Y-107719346D01*
X148098230Y-107704539D01*
X148075097Y-107687383D01*
X148053757Y-107668042D01*
X148034416Y-107646702D01*
X148017260Y-107623569D01*
X148002453Y-107598866D01*
X147990140Y-107572831D01*
X147980437Y-107545714D01*
X147973439Y-107517777D01*
X147969213Y-107489288D01*
X147967800Y-107460522D01*
X147967800Y-106697476D01*
X147969213Y-106668710D01*
X147973439Y-106640221D01*
X147980437Y-106612284D01*
X147990140Y-106585167D01*
X148002453Y-106559132D01*
X148017260Y-106534429D01*
X148034416Y-106511296D01*
X148053757Y-106489956D01*
X148075097Y-106470615D01*
X148098230Y-106453459D01*
X148122933Y-106438652D01*
X148148968Y-106426339D01*
X148176085Y-106416636D01*
X148204022Y-106409638D01*
X148232511Y-106405412D01*
X148261277Y-106403999D01*
X149274323Y-106403999D01*
X149303089Y-106405412D01*
X149303089Y-106405412D01*
G37*
D19*
X148767800Y-107078999D03*
D20*
X163270200Y-122910600D03*
X159970200Y-122910600D03*
D18*
G36*
X139613603Y-108770163D02*
G01*
X139633018Y-108773043D01*
X139652057Y-108777812D01*
X139670537Y-108784424D01*
X139688279Y-108792816D01*
X139705114Y-108802906D01*
X139720879Y-108814598D01*
X139735421Y-108827779D01*
X139748602Y-108842321D01*
X139760294Y-108858086D01*
X139770384Y-108874921D01*
X139778776Y-108892663D01*
X139785388Y-108911143D01*
X139790157Y-108930182D01*
X139793037Y-108949597D01*
X139794000Y-108969200D01*
X139794000Y-109369200D01*
X139793037Y-109388803D01*
X139790157Y-109408218D01*
X139785388Y-109427257D01*
X139778776Y-109445737D01*
X139770384Y-109463479D01*
X139760294Y-109480314D01*
X139748602Y-109496079D01*
X139735421Y-109510621D01*
X139720879Y-109523802D01*
X139705114Y-109535494D01*
X139688279Y-109545584D01*
X139670537Y-109553976D01*
X139652057Y-109560588D01*
X139633018Y-109565357D01*
X139613603Y-109568237D01*
X139594000Y-109569200D01*
X138194000Y-109569200D01*
X138174397Y-109568237D01*
X138154982Y-109565357D01*
X138135943Y-109560588D01*
X138117463Y-109553976D01*
X138099721Y-109545584D01*
X138082886Y-109535494D01*
X138067121Y-109523802D01*
X138052579Y-109510621D01*
X138039398Y-109496079D01*
X138027706Y-109480314D01*
X138017616Y-109463479D01*
X138009224Y-109445737D01*
X138002612Y-109427257D01*
X137997843Y-109408218D01*
X137994963Y-109388803D01*
X137994000Y-109369200D01*
X137994000Y-108969200D01*
X137994963Y-108949597D01*
X137997843Y-108930182D01*
X138002612Y-108911143D01*
X138009224Y-108892663D01*
X138017616Y-108874921D01*
X138027706Y-108858086D01*
X138039398Y-108842321D01*
X138052579Y-108827779D01*
X138067121Y-108814598D01*
X138082886Y-108802906D01*
X138099721Y-108792816D01*
X138117463Y-108784424D01*
X138135943Y-108777812D01*
X138154982Y-108773043D01*
X138174397Y-108770163D01*
X138194000Y-108769200D01*
X139594000Y-108769200D01*
X139613603Y-108770163D01*
X139613603Y-108770163D01*
G37*
D21*
X138894000Y-109169200D03*
D18*
G36*
X139613603Y-107500163D02*
G01*
X139633018Y-107503043D01*
X139652057Y-107507812D01*
X139670537Y-107514424D01*
X139688279Y-107522816D01*
X139705114Y-107532906D01*
X139720879Y-107544598D01*
X139735421Y-107557779D01*
X139748602Y-107572321D01*
X139760294Y-107588086D01*
X139770384Y-107604921D01*
X139778776Y-107622663D01*
X139785388Y-107641143D01*
X139790157Y-107660182D01*
X139793037Y-107679597D01*
X139794000Y-107699200D01*
X139794000Y-108099200D01*
X139793037Y-108118803D01*
X139790157Y-108138218D01*
X139785388Y-108157257D01*
X139778776Y-108175737D01*
X139770384Y-108193479D01*
X139760294Y-108210314D01*
X139748602Y-108226079D01*
X139735421Y-108240621D01*
X139720879Y-108253802D01*
X139705114Y-108265494D01*
X139688279Y-108275584D01*
X139670537Y-108283976D01*
X139652057Y-108290588D01*
X139633018Y-108295357D01*
X139613603Y-108298237D01*
X139594000Y-108299200D01*
X138194000Y-108299200D01*
X138174397Y-108298237D01*
X138154982Y-108295357D01*
X138135943Y-108290588D01*
X138117463Y-108283976D01*
X138099721Y-108275584D01*
X138082886Y-108265494D01*
X138067121Y-108253802D01*
X138052579Y-108240621D01*
X138039398Y-108226079D01*
X138027706Y-108210314D01*
X138017616Y-108193479D01*
X138009224Y-108175737D01*
X138002612Y-108157257D01*
X137997843Y-108138218D01*
X137994963Y-108118803D01*
X137994000Y-108099200D01*
X137994000Y-107699200D01*
X137994963Y-107679597D01*
X137997843Y-107660182D01*
X138002612Y-107641143D01*
X138009224Y-107622663D01*
X138017616Y-107604921D01*
X138027706Y-107588086D01*
X138039398Y-107572321D01*
X138052579Y-107557779D01*
X138067121Y-107544598D01*
X138082886Y-107532906D01*
X138099721Y-107522816D01*
X138117463Y-107514424D01*
X138135943Y-107507812D01*
X138154982Y-107503043D01*
X138174397Y-107500163D01*
X138194000Y-107499200D01*
X139594000Y-107499200D01*
X139613603Y-107500163D01*
X139613603Y-107500163D01*
G37*
D21*
X138894000Y-107899200D03*
D18*
G36*
X139613603Y-106230163D02*
G01*
X139633018Y-106233043D01*
X139652057Y-106237812D01*
X139670537Y-106244424D01*
X139688279Y-106252816D01*
X139705114Y-106262906D01*
X139720879Y-106274598D01*
X139735421Y-106287779D01*
X139748602Y-106302321D01*
X139760294Y-106318086D01*
X139770384Y-106334921D01*
X139778776Y-106352663D01*
X139785388Y-106371143D01*
X139790157Y-106390182D01*
X139793037Y-106409597D01*
X139794000Y-106429200D01*
X139794000Y-106829200D01*
X139793037Y-106848803D01*
X139790157Y-106868218D01*
X139785388Y-106887257D01*
X139778776Y-106905737D01*
X139770384Y-106923479D01*
X139760294Y-106940314D01*
X139748602Y-106956079D01*
X139735421Y-106970621D01*
X139720879Y-106983802D01*
X139705114Y-106995494D01*
X139688279Y-107005584D01*
X139670537Y-107013976D01*
X139652057Y-107020588D01*
X139633018Y-107025357D01*
X139613603Y-107028237D01*
X139594000Y-107029200D01*
X138194000Y-107029200D01*
X138174397Y-107028237D01*
X138154982Y-107025357D01*
X138135943Y-107020588D01*
X138117463Y-107013976D01*
X138099721Y-107005584D01*
X138082886Y-106995494D01*
X138067121Y-106983802D01*
X138052579Y-106970621D01*
X138039398Y-106956079D01*
X138027706Y-106940314D01*
X138017616Y-106923479D01*
X138009224Y-106905737D01*
X138002612Y-106887257D01*
X137997843Y-106868218D01*
X137994963Y-106848803D01*
X137994000Y-106829200D01*
X137994000Y-106429200D01*
X137994963Y-106409597D01*
X137997843Y-106390182D01*
X138002612Y-106371143D01*
X138009224Y-106352663D01*
X138017616Y-106334921D01*
X138027706Y-106318086D01*
X138039398Y-106302321D01*
X138052579Y-106287779D01*
X138067121Y-106274598D01*
X138082886Y-106262906D01*
X138099721Y-106252816D01*
X138117463Y-106244424D01*
X138135943Y-106237812D01*
X138154982Y-106233043D01*
X138174397Y-106230163D01*
X138194000Y-106229200D01*
X139594000Y-106229200D01*
X139613603Y-106230163D01*
X139613603Y-106230163D01*
G37*
D21*
X138894000Y-106629200D03*
D18*
G36*
X139613603Y-104960163D02*
G01*
X139633018Y-104963043D01*
X139652057Y-104967812D01*
X139670537Y-104974424D01*
X139688279Y-104982816D01*
X139705114Y-104992906D01*
X139720879Y-105004598D01*
X139735421Y-105017779D01*
X139748602Y-105032321D01*
X139760294Y-105048086D01*
X139770384Y-105064921D01*
X139778776Y-105082663D01*
X139785388Y-105101143D01*
X139790157Y-105120182D01*
X139793037Y-105139597D01*
X139794000Y-105159200D01*
X139794000Y-105559200D01*
X139793037Y-105578803D01*
X139790157Y-105598218D01*
X139785388Y-105617257D01*
X139778776Y-105635737D01*
X139770384Y-105653479D01*
X139760294Y-105670314D01*
X139748602Y-105686079D01*
X139735421Y-105700621D01*
X139720879Y-105713802D01*
X139705114Y-105725494D01*
X139688279Y-105735584D01*
X139670537Y-105743976D01*
X139652057Y-105750588D01*
X139633018Y-105755357D01*
X139613603Y-105758237D01*
X139594000Y-105759200D01*
X138194000Y-105759200D01*
X138174397Y-105758237D01*
X138154982Y-105755357D01*
X138135943Y-105750588D01*
X138117463Y-105743976D01*
X138099721Y-105735584D01*
X138082886Y-105725494D01*
X138067121Y-105713802D01*
X138052579Y-105700621D01*
X138039398Y-105686079D01*
X138027706Y-105670314D01*
X138017616Y-105653479D01*
X138009224Y-105635737D01*
X138002612Y-105617257D01*
X137997843Y-105598218D01*
X137994963Y-105578803D01*
X137994000Y-105559200D01*
X137994000Y-105159200D01*
X137994963Y-105139597D01*
X137997843Y-105120182D01*
X138002612Y-105101143D01*
X138009224Y-105082663D01*
X138017616Y-105064921D01*
X138027706Y-105048086D01*
X138039398Y-105032321D01*
X138052579Y-105017779D01*
X138067121Y-105004598D01*
X138082886Y-104992906D01*
X138099721Y-104982816D01*
X138117463Y-104974424D01*
X138135943Y-104967812D01*
X138154982Y-104963043D01*
X138174397Y-104960163D01*
X138194000Y-104959200D01*
X139594000Y-104959200D01*
X139613603Y-104960163D01*
X139613603Y-104960163D01*
G37*
D21*
X138894000Y-105359200D03*
D18*
G36*
X146813603Y-104960163D02*
G01*
X146833018Y-104963043D01*
X146852057Y-104967812D01*
X146870537Y-104974424D01*
X146888279Y-104982816D01*
X146905114Y-104992906D01*
X146920879Y-105004598D01*
X146935421Y-105017779D01*
X146948602Y-105032321D01*
X146960294Y-105048086D01*
X146970384Y-105064921D01*
X146978776Y-105082663D01*
X146985388Y-105101143D01*
X146990157Y-105120182D01*
X146993037Y-105139597D01*
X146994000Y-105159200D01*
X146994000Y-105559200D01*
X146993037Y-105578803D01*
X146990157Y-105598218D01*
X146985388Y-105617257D01*
X146978776Y-105635737D01*
X146970384Y-105653479D01*
X146960294Y-105670314D01*
X146948602Y-105686079D01*
X146935421Y-105700621D01*
X146920879Y-105713802D01*
X146905114Y-105725494D01*
X146888279Y-105735584D01*
X146870537Y-105743976D01*
X146852057Y-105750588D01*
X146833018Y-105755357D01*
X146813603Y-105758237D01*
X146794000Y-105759200D01*
X145394000Y-105759200D01*
X145374397Y-105758237D01*
X145354982Y-105755357D01*
X145335943Y-105750588D01*
X145317463Y-105743976D01*
X145299721Y-105735584D01*
X145282886Y-105725494D01*
X145267121Y-105713802D01*
X145252579Y-105700621D01*
X145239398Y-105686079D01*
X145227706Y-105670314D01*
X145217616Y-105653479D01*
X145209224Y-105635737D01*
X145202612Y-105617257D01*
X145197843Y-105598218D01*
X145194963Y-105578803D01*
X145194000Y-105559200D01*
X145194000Y-105159200D01*
X145194963Y-105139597D01*
X145197843Y-105120182D01*
X145202612Y-105101143D01*
X145209224Y-105082663D01*
X145217616Y-105064921D01*
X145227706Y-105048086D01*
X145239398Y-105032321D01*
X145252579Y-105017779D01*
X145267121Y-105004598D01*
X145282886Y-104992906D01*
X145299721Y-104982816D01*
X145317463Y-104974424D01*
X145335943Y-104967812D01*
X145354982Y-104963043D01*
X145374397Y-104960163D01*
X145394000Y-104959200D01*
X146794000Y-104959200D01*
X146813603Y-104960163D01*
X146813603Y-104960163D01*
G37*
D21*
X146094000Y-105359200D03*
D18*
G36*
X146813603Y-106230163D02*
G01*
X146833018Y-106233043D01*
X146852057Y-106237812D01*
X146870537Y-106244424D01*
X146888279Y-106252816D01*
X146905114Y-106262906D01*
X146920879Y-106274598D01*
X146935421Y-106287779D01*
X146948602Y-106302321D01*
X146960294Y-106318086D01*
X146970384Y-106334921D01*
X146978776Y-106352663D01*
X146985388Y-106371143D01*
X146990157Y-106390182D01*
X146993037Y-106409597D01*
X146994000Y-106429200D01*
X146994000Y-106829200D01*
X146993037Y-106848803D01*
X146990157Y-106868218D01*
X146985388Y-106887257D01*
X146978776Y-106905737D01*
X146970384Y-106923479D01*
X146960294Y-106940314D01*
X146948602Y-106956079D01*
X146935421Y-106970621D01*
X146920879Y-106983802D01*
X146905114Y-106995494D01*
X146888279Y-107005584D01*
X146870537Y-107013976D01*
X146852057Y-107020588D01*
X146833018Y-107025357D01*
X146813603Y-107028237D01*
X146794000Y-107029200D01*
X145394000Y-107029200D01*
X145374397Y-107028237D01*
X145354982Y-107025357D01*
X145335943Y-107020588D01*
X145317463Y-107013976D01*
X145299721Y-107005584D01*
X145282886Y-106995494D01*
X145267121Y-106983802D01*
X145252579Y-106970621D01*
X145239398Y-106956079D01*
X145227706Y-106940314D01*
X145217616Y-106923479D01*
X145209224Y-106905737D01*
X145202612Y-106887257D01*
X145197843Y-106868218D01*
X145194963Y-106848803D01*
X145194000Y-106829200D01*
X145194000Y-106429200D01*
X145194963Y-106409597D01*
X145197843Y-106390182D01*
X145202612Y-106371143D01*
X145209224Y-106352663D01*
X145217616Y-106334921D01*
X145227706Y-106318086D01*
X145239398Y-106302321D01*
X145252579Y-106287779D01*
X145267121Y-106274598D01*
X145282886Y-106262906D01*
X145299721Y-106252816D01*
X145317463Y-106244424D01*
X145335943Y-106237812D01*
X145354982Y-106233043D01*
X145374397Y-106230163D01*
X145394000Y-106229200D01*
X146794000Y-106229200D01*
X146813603Y-106230163D01*
X146813603Y-106230163D01*
G37*
D21*
X146094000Y-106629200D03*
D18*
G36*
X146813603Y-107500163D02*
G01*
X146833018Y-107503043D01*
X146852057Y-107507812D01*
X146870537Y-107514424D01*
X146888279Y-107522816D01*
X146905114Y-107532906D01*
X146920879Y-107544598D01*
X146935421Y-107557779D01*
X146948602Y-107572321D01*
X146960294Y-107588086D01*
X146970384Y-107604921D01*
X146978776Y-107622663D01*
X146985388Y-107641143D01*
X146990157Y-107660182D01*
X146993037Y-107679597D01*
X146994000Y-107699200D01*
X146994000Y-108099200D01*
X146993037Y-108118803D01*
X146990157Y-108138218D01*
X146985388Y-108157257D01*
X146978776Y-108175737D01*
X146970384Y-108193479D01*
X146960294Y-108210314D01*
X146948602Y-108226079D01*
X146935421Y-108240621D01*
X146920879Y-108253802D01*
X146905114Y-108265494D01*
X146888279Y-108275584D01*
X146870537Y-108283976D01*
X146852057Y-108290588D01*
X146833018Y-108295357D01*
X146813603Y-108298237D01*
X146794000Y-108299200D01*
X145394000Y-108299200D01*
X145374397Y-108298237D01*
X145354982Y-108295357D01*
X145335943Y-108290588D01*
X145317463Y-108283976D01*
X145299721Y-108275584D01*
X145282886Y-108265494D01*
X145267121Y-108253802D01*
X145252579Y-108240621D01*
X145239398Y-108226079D01*
X145227706Y-108210314D01*
X145217616Y-108193479D01*
X145209224Y-108175737D01*
X145202612Y-108157257D01*
X145197843Y-108138218D01*
X145194963Y-108118803D01*
X145194000Y-108099200D01*
X145194000Y-107699200D01*
X145194963Y-107679597D01*
X145197843Y-107660182D01*
X145202612Y-107641143D01*
X145209224Y-107622663D01*
X145217616Y-107604921D01*
X145227706Y-107588086D01*
X145239398Y-107572321D01*
X145252579Y-107557779D01*
X145267121Y-107544598D01*
X145282886Y-107532906D01*
X145299721Y-107522816D01*
X145317463Y-107514424D01*
X145335943Y-107507812D01*
X145354982Y-107503043D01*
X145374397Y-107500163D01*
X145394000Y-107499200D01*
X146794000Y-107499200D01*
X146813603Y-107500163D01*
X146813603Y-107500163D01*
G37*
D21*
X146094000Y-107899200D03*
D18*
G36*
X146813603Y-108770163D02*
G01*
X146833018Y-108773043D01*
X146852057Y-108777812D01*
X146870537Y-108784424D01*
X146888279Y-108792816D01*
X146905114Y-108802906D01*
X146920879Y-108814598D01*
X146935421Y-108827779D01*
X146948602Y-108842321D01*
X146960294Y-108858086D01*
X146970384Y-108874921D01*
X146978776Y-108892663D01*
X146985388Y-108911143D01*
X146990157Y-108930182D01*
X146993037Y-108949597D01*
X146994000Y-108969200D01*
X146994000Y-109369200D01*
X146993037Y-109388803D01*
X146990157Y-109408218D01*
X146985388Y-109427257D01*
X146978776Y-109445737D01*
X146970384Y-109463479D01*
X146960294Y-109480314D01*
X146948602Y-109496079D01*
X146935421Y-109510621D01*
X146920879Y-109523802D01*
X146905114Y-109535494D01*
X146888279Y-109545584D01*
X146870537Y-109553976D01*
X146852057Y-109560588D01*
X146833018Y-109565357D01*
X146813603Y-109568237D01*
X146794000Y-109569200D01*
X145394000Y-109569200D01*
X145374397Y-109568237D01*
X145354982Y-109565357D01*
X145335943Y-109560588D01*
X145317463Y-109553976D01*
X145299721Y-109545584D01*
X145282886Y-109535494D01*
X145267121Y-109523802D01*
X145252579Y-109510621D01*
X145239398Y-109496079D01*
X145227706Y-109480314D01*
X145217616Y-109463479D01*
X145209224Y-109445737D01*
X145202612Y-109427257D01*
X145197843Y-109408218D01*
X145194963Y-109388803D01*
X145194000Y-109369200D01*
X145194000Y-108969200D01*
X145194963Y-108949597D01*
X145197843Y-108930182D01*
X145202612Y-108911143D01*
X145209224Y-108892663D01*
X145217616Y-108874921D01*
X145227706Y-108858086D01*
X145239398Y-108842321D01*
X145252579Y-108827779D01*
X145267121Y-108814598D01*
X145282886Y-108802906D01*
X145299721Y-108792816D01*
X145317463Y-108784424D01*
X145335943Y-108777812D01*
X145354982Y-108773043D01*
X145374397Y-108770163D01*
X145394000Y-108769200D01*
X146794000Y-108769200D01*
X146813603Y-108770163D01*
X146813603Y-108770163D01*
G37*
D21*
X146094000Y-109169200D03*
D18*
G36*
X158272399Y-102716835D02*
G01*
X158291814Y-102719715D01*
X158310853Y-102724484D01*
X158329333Y-102731096D01*
X158347075Y-102739488D01*
X158363910Y-102749578D01*
X158379675Y-102761270D01*
X158394217Y-102774451D01*
X158407398Y-102788993D01*
X158419090Y-102804758D01*
X158429180Y-102821593D01*
X158437572Y-102839335D01*
X158444184Y-102857815D01*
X158448953Y-102876854D01*
X158451833Y-102896269D01*
X158452796Y-102915872D01*
X158452796Y-103315872D01*
X158451833Y-103335475D01*
X158448953Y-103354890D01*
X158444184Y-103373929D01*
X158437572Y-103392409D01*
X158429180Y-103410151D01*
X158419090Y-103426986D01*
X158407398Y-103442751D01*
X158394217Y-103457293D01*
X158379675Y-103470474D01*
X158363910Y-103482166D01*
X158347075Y-103492256D01*
X158329333Y-103500648D01*
X158310853Y-103507260D01*
X158291814Y-103512029D01*
X158272399Y-103514909D01*
X158252796Y-103515872D01*
X156502796Y-103515872D01*
X156483193Y-103514909D01*
X156463778Y-103512029D01*
X156444739Y-103507260D01*
X156426259Y-103500648D01*
X156408517Y-103492256D01*
X156391682Y-103482166D01*
X156375917Y-103470474D01*
X156361375Y-103457293D01*
X156348194Y-103442751D01*
X156336502Y-103426986D01*
X156326412Y-103410151D01*
X156318020Y-103392409D01*
X156311408Y-103373929D01*
X156306639Y-103354890D01*
X156303759Y-103335475D01*
X156302796Y-103315872D01*
X156302796Y-102915872D01*
X156303759Y-102896269D01*
X156306639Y-102876854D01*
X156311408Y-102857815D01*
X156318020Y-102839335D01*
X156326412Y-102821593D01*
X156336502Y-102804758D01*
X156348194Y-102788993D01*
X156361375Y-102774451D01*
X156375917Y-102761270D01*
X156391682Y-102749578D01*
X156408517Y-102739488D01*
X156426259Y-102731096D01*
X156444739Y-102724484D01*
X156463778Y-102719715D01*
X156483193Y-102716835D01*
X156502796Y-102715872D01*
X158252796Y-102715872D01*
X158272399Y-102716835D01*
X158272399Y-102716835D01*
G37*
D21*
X157377796Y-103115872D03*
D18*
G36*
X158272399Y-101446835D02*
G01*
X158291814Y-101449715D01*
X158310853Y-101454484D01*
X158329333Y-101461096D01*
X158347075Y-101469488D01*
X158363910Y-101479578D01*
X158379675Y-101491270D01*
X158394217Y-101504451D01*
X158407398Y-101518993D01*
X158419090Y-101534758D01*
X158429180Y-101551593D01*
X158437572Y-101569335D01*
X158444184Y-101587815D01*
X158448953Y-101606854D01*
X158451833Y-101626269D01*
X158452796Y-101645872D01*
X158452796Y-102045872D01*
X158451833Y-102065475D01*
X158448953Y-102084890D01*
X158444184Y-102103929D01*
X158437572Y-102122409D01*
X158429180Y-102140151D01*
X158419090Y-102156986D01*
X158407398Y-102172751D01*
X158394217Y-102187293D01*
X158379675Y-102200474D01*
X158363910Y-102212166D01*
X158347075Y-102222256D01*
X158329333Y-102230648D01*
X158310853Y-102237260D01*
X158291814Y-102242029D01*
X158272399Y-102244909D01*
X158252796Y-102245872D01*
X156502796Y-102245872D01*
X156483193Y-102244909D01*
X156463778Y-102242029D01*
X156444739Y-102237260D01*
X156426259Y-102230648D01*
X156408517Y-102222256D01*
X156391682Y-102212166D01*
X156375917Y-102200474D01*
X156361375Y-102187293D01*
X156348194Y-102172751D01*
X156336502Y-102156986D01*
X156326412Y-102140151D01*
X156318020Y-102122409D01*
X156311408Y-102103929D01*
X156306639Y-102084890D01*
X156303759Y-102065475D01*
X156302796Y-102045872D01*
X156302796Y-101645872D01*
X156303759Y-101626269D01*
X156306639Y-101606854D01*
X156311408Y-101587815D01*
X156318020Y-101569335D01*
X156326412Y-101551593D01*
X156336502Y-101534758D01*
X156348194Y-101518993D01*
X156361375Y-101504451D01*
X156375917Y-101491270D01*
X156391682Y-101479578D01*
X156408517Y-101469488D01*
X156426259Y-101461096D01*
X156444739Y-101454484D01*
X156463778Y-101449715D01*
X156483193Y-101446835D01*
X156502796Y-101445872D01*
X158252796Y-101445872D01*
X158272399Y-101446835D01*
X158272399Y-101446835D01*
G37*
D21*
X157377796Y-101845872D03*
D18*
G36*
X158272399Y-100176835D02*
G01*
X158291814Y-100179715D01*
X158310853Y-100184484D01*
X158329333Y-100191096D01*
X158347075Y-100199488D01*
X158363910Y-100209578D01*
X158379675Y-100221270D01*
X158394217Y-100234451D01*
X158407398Y-100248993D01*
X158419090Y-100264758D01*
X158429180Y-100281593D01*
X158437572Y-100299335D01*
X158444184Y-100317815D01*
X158448953Y-100336854D01*
X158451833Y-100356269D01*
X158452796Y-100375872D01*
X158452796Y-100775872D01*
X158451833Y-100795475D01*
X158448953Y-100814890D01*
X158444184Y-100833929D01*
X158437572Y-100852409D01*
X158429180Y-100870151D01*
X158419090Y-100886986D01*
X158407398Y-100902751D01*
X158394217Y-100917293D01*
X158379675Y-100930474D01*
X158363910Y-100942166D01*
X158347075Y-100952256D01*
X158329333Y-100960648D01*
X158310853Y-100967260D01*
X158291814Y-100972029D01*
X158272399Y-100974909D01*
X158252796Y-100975872D01*
X156502796Y-100975872D01*
X156483193Y-100974909D01*
X156463778Y-100972029D01*
X156444739Y-100967260D01*
X156426259Y-100960648D01*
X156408517Y-100952256D01*
X156391682Y-100942166D01*
X156375917Y-100930474D01*
X156361375Y-100917293D01*
X156348194Y-100902751D01*
X156336502Y-100886986D01*
X156326412Y-100870151D01*
X156318020Y-100852409D01*
X156311408Y-100833929D01*
X156306639Y-100814890D01*
X156303759Y-100795475D01*
X156302796Y-100775872D01*
X156302796Y-100375872D01*
X156303759Y-100356269D01*
X156306639Y-100336854D01*
X156311408Y-100317815D01*
X156318020Y-100299335D01*
X156326412Y-100281593D01*
X156336502Y-100264758D01*
X156348194Y-100248993D01*
X156361375Y-100234451D01*
X156375917Y-100221270D01*
X156391682Y-100209578D01*
X156408517Y-100199488D01*
X156426259Y-100191096D01*
X156444739Y-100184484D01*
X156463778Y-100179715D01*
X156483193Y-100176835D01*
X156502796Y-100175872D01*
X158252796Y-100175872D01*
X158272399Y-100176835D01*
X158272399Y-100176835D01*
G37*
D21*
X157377796Y-100575872D03*
D18*
G36*
X158272399Y-98906835D02*
G01*
X158291814Y-98909715D01*
X158310853Y-98914484D01*
X158329333Y-98921096D01*
X158347075Y-98929488D01*
X158363910Y-98939578D01*
X158379675Y-98951270D01*
X158394217Y-98964451D01*
X158407398Y-98978993D01*
X158419090Y-98994758D01*
X158429180Y-99011593D01*
X158437572Y-99029335D01*
X158444184Y-99047815D01*
X158448953Y-99066854D01*
X158451833Y-99086269D01*
X158452796Y-99105872D01*
X158452796Y-99505872D01*
X158451833Y-99525475D01*
X158448953Y-99544890D01*
X158444184Y-99563929D01*
X158437572Y-99582409D01*
X158429180Y-99600151D01*
X158419090Y-99616986D01*
X158407398Y-99632751D01*
X158394217Y-99647293D01*
X158379675Y-99660474D01*
X158363910Y-99672166D01*
X158347075Y-99682256D01*
X158329333Y-99690648D01*
X158310853Y-99697260D01*
X158291814Y-99702029D01*
X158272399Y-99704909D01*
X158252796Y-99705872D01*
X156502796Y-99705872D01*
X156483193Y-99704909D01*
X156463778Y-99702029D01*
X156444739Y-99697260D01*
X156426259Y-99690648D01*
X156408517Y-99682256D01*
X156391682Y-99672166D01*
X156375917Y-99660474D01*
X156361375Y-99647293D01*
X156348194Y-99632751D01*
X156336502Y-99616986D01*
X156326412Y-99600151D01*
X156318020Y-99582409D01*
X156311408Y-99563929D01*
X156306639Y-99544890D01*
X156303759Y-99525475D01*
X156302796Y-99505872D01*
X156302796Y-99105872D01*
X156303759Y-99086269D01*
X156306639Y-99066854D01*
X156311408Y-99047815D01*
X156318020Y-99029335D01*
X156326412Y-99011593D01*
X156336502Y-98994758D01*
X156348194Y-98978993D01*
X156361375Y-98964451D01*
X156375917Y-98951270D01*
X156391682Y-98939578D01*
X156408517Y-98929488D01*
X156426259Y-98921096D01*
X156444739Y-98914484D01*
X156463778Y-98909715D01*
X156483193Y-98906835D01*
X156502796Y-98905872D01*
X158252796Y-98905872D01*
X158272399Y-98906835D01*
X158272399Y-98906835D01*
G37*
D21*
X157377796Y-99305872D03*
D18*
G36*
X158272399Y-97636835D02*
G01*
X158291814Y-97639715D01*
X158310853Y-97644484D01*
X158329333Y-97651096D01*
X158347075Y-97659488D01*
X158363910Y-97669578D01*
X158379675Y-97681270D01*
X158394217Y-97694451D01*
X158407398Y-97708993D01*
X158419090Y-97724758D01*
X158429180Y-97741593D01*
X158437572Y-97759335D01*
X158444184Y-97777815D01*
X158448953Y-97796854D01*
X158451833Y-97816269D01*
X158452796Y-97835872D01*
X158452796Y-98235872D01*
X158451833Y-98255475D01*
X158448953Y-98274890D01*
X158444184Y-98293929D01*
X158437572Y-98312409D01*
X158429180Y-98330151D01*
X158419090Y-98346986D01*
X158407398Y-98362751D01*
X158394217Y-98377293D01*
X158379675Y-98390474D01*
X158363910Y-98402166D01*
X158347075Y-98412256D01*
X158329333Y-98420648D01*
X158310853Y-98427260D01*
X158291814Y-98432029D01*
X158272399Y-98434909D01*
X158252796Y-98435872D01*
X156502796Y-98435872D01*
X156483193Y-98434909D01*
X156463778Y-98432029D01*
X156444739Y-98427260D01*
X156426259Y-98420648D01*
X156408517Y-98412256D01*
X156391682Y-98402166D01*
X156375917Y-98390474D01*
X156361375Y-98377293D01*
X156348194Y-98362751D01*
X156336502Y-98346986D01*
X156326412Y-98330151D01*
X156318020Y-98312409D01*
X156311408Y-98293929D01*
X156306639Y-98274890D01*
X156303759Y-98255475D01*
X156302796Y-98235872D01*
X156302796Y-97835872D01*
X156303759Y-97816269D01*
X156306639Y-97796854D01*
X156311408Y-97777815D01*
X156318020Y-97759335D01*
X156326412Y-97741593D01*
X156336502Y-97724758D01*
X156348194Y-97708993D01*
X156361375Y-97694451D01*
X156375917Y-97681270D01*
X156391682Y-97669578D01*
X156408517Y-97659488D01*
X156426259Y-97651096D01*
X156444739Y-97644484D01*
X156463778Y-97639715D01*
X156483193Y-97636835D01*
X156502796Y-97635872D01*
X158252796Y-97635872D01*
X158272399Y-97636835D01*
X158272399Y-97636835D01*
G37*
D21*
X157377796Y-98035872D03*
D18*
G36*
X158272399Y-96366835D02*
G01*
X158291814Y-96369715D01*
X158310853Y-96374484D01*
X158329333Y-96381096D01*
X158347075Y-96389488D01*
X158363910Y-96399578D01*
X158379675Y-96411270D01*
X158394217Y-96424451D01*
X158407398Y-96438993D01*
X158419090Y-96454758D01*
X158429180Y-96471593D01*
X158437572Y-96489335D01*
X158444184Y-96507815D01*
X158448953Y-96526854D01*
X158451833Y-96546269D01*
X158452796Y-96565872D01*
X158452796Y-96965872D01*
X158451833Y-96985475D01*
X158448953Y-97004890D01*
X158444184Y-97023929D01*
X158437572Y-97042409D01*
X158429180Y-97060151D01*
X158419090Y-97076986D01*
X158407398Y-97092751D01*
X158394217Y-97107293D01*
X158379675Y-97120474D01*
X158363910Y-97132166D01*
X158347075Y-97142256D01*
X158329333Y-97150648D01*
X158310853Y-97157260D01*
X158291814Y-97162029D01*
X158272399Y-97164909D01*
X158252796Y-97165872D01*
X156502796Y-97165872D01*
X156483193Y-97164909D01*
X156463778Y-97162029D01*
X156444739Y-97157260D01*
X156426259Y-97150648D01*
X156408517Y-97142256D01*
X156391682Y-97132166D01*
X156375917Y-97120474D01*
X156361375Y-97107293D01*
X156348194Y-97092751D01*
X156336502Y-97076986D01*
X156326412Y-97060151D01*
X156318020Y-97042409D01*
X156311408Y-97023929D01*
X156306639Y-97004890D01*
X156303759Y-96985475D01*
X156302796Y-96965872D01*
X156302796Y-96565872D01*
X156303759Y-96546269D01*
X156306639Y-96526854D01*
X156311408Y-96507815D01*
X156318020Y-96489335D01*
X156326412Y-96471593D01*
X156336502Y-96454758D01*
X156348194Y-96438993D01*
X156361375Y-96424451D01*
X156375917Y-96411270D01*
X156391682Y-96399578D01*
X156408517Y-96389488D01*
X156426259Y-96381096D01*
X156444739Y-96374484D01*
X156463778Y-96369715D01*
X156483193Y-96366835D01*
X156502796Y-96365872D01*
X158252796Y-96365872D01*
X158272399Y-96366835D01*
X158272399Y-96366835D01*
G37*
D21*
X157377796Y-96765872D03*
D18*
G36*
X158272399Y-95096835D02*
G01*
X158291814Y-95099715D01*
X158310853Y-95104484D01*
X158329333Y-95111096D01*
X158347075Y-95119488D01*
X158363910Y-95129578D01*
X158379675Y-95141270D01*
X158394217Y-95154451D01*
X158407398Y-95168993D01*
X158419090Y-95184758D01*
X158429180Y-95201593D01*
X158437572Y-95219335D01*
X158444184Y-95237815D01*
X158448953Y-95256854D01*
X158451833Y-95276269D01*
X158452796Y-95295872D01*
X158452796Y-95695872D01*
X158451833Y-95715475D01*
X158448953Y-95734890D01*
X158444184Y-95753929D01*
X158437572Y-95772409D01*
X158429180Y-95790151D01*
X158419090Y-95806986D01*
X158407398Y-95822751D01*
X158394217Y-95837293D01*
X158379675Y-95850474D01*
X158363910Y-95862166D01*
X158347075Y-95872256D01*
X158329333Y-95880648D01*
X158310853Y-95887260D01*
X158291814Y-95892029D01*
X158272399Y-95894909D01*
X158252796Y-95895872D01*
X156502796Y-95895872D01*
X156483193Y-95894909D01*
X156463778Y-95892029D01*
X156444739Y-95887260D01*
X156426259Y-95880648D01*
X156408517Y-95872256D01*
X156391682Y-95862166D01*
X156375917Y-95850474D01*
X156361375Y-95837293D01*
X156348194Y-95822751D01*
X156336502Y-95806986D01*
X156326412Y-95790151D01*
X156318020Y-95772409D01*
X156311408Y-95753929D01*
X156306639Y-95734890D01*
X156303759Y-95715475D01*
X156302796Y-95695872D01*
X156302796Y-95295872D01*
X156303759Y-95276269D01*
X156306639Y-95256854D01*
X156311408Y-95237815D01*
X156318020Y-95219335D01*
X156326412Y-95201593D01*
X156336502Y-95184758D01*
X156348194Y-95168993D01*
X156361375Y-95154451D01*
X156375917Y-95141270D01*
X156391682Y-95129578D01*
X156408517Y-95119488D01*
X156426259Y-95111096D01*
X156444739Y-95104484D01*
X156463778Y-95099715D01*
X156483193Y-95096835D01*
X156502796Y-95095872D01*
X158252796Y-95095872D01*
X158272399Y-95096835D01*
X158272399Y-95096835D01*
G37*
D21*
X157377796Y-95495872D03*
D18*
G36*
X163222399Y-95096835D02*
G01*
X163241814Y-95099715D01*
X163260853Y-95104484D01*
X163279333Y-95111096D01*
X163297075Y-95119488D01*
X163313910Y-95129578D01*
X163329675Y-95141270D01*
X163344217Y-95154451D01*
X163357398Y-95168993D01*
X163369090Y-95184758D01*
X163379180Y-95201593D01*
X163387572Y-95219335D01*
X163394184Y-95237815D01*
X163398953Y-95256854D01*
X163401833Y-95276269D01*
X163402796Y-95295872D01*
X163402796Y-95695872D01*
X163401833Y-95715475D01*
X163398953Y-95734890D01*
X163394184Y-95753929D01*
X163387572Y-95772409D01*
X163379180Y-95790151D01*
X163369090Y-95806986D01*
X163357398Y-95822751D01*
X163344217Y-95837293D01*
X163329675Y-95850474D01*
X163313910Y-95862166D01*
X163297075Y-95872256D01*
X163279333Y-95880648D01*
X163260853Y-95887260D01*
X163241814Y-95892029D01*
X163222399Y-95894909D01*
X163202796Y-95895872D01*
X161452796Y-95895872D01*
X161433193Y-95894909D01*
X161413778Y-95892029D01*
X161394739Y-95887260D01*
X161376259Y-95880648D01*
X161358517Y-95872256D01*
X161341682Y-95862166D01*
X161325917Y-95850474D01*
X161311375Y-95837293D01*
X161298194Y-95822751D01*
X161286502Y-95806986D01*
X161276412Y-95790151D01*
X161268020Y-95772409D01*
X161261408Y-95753929D01*
X161256639Y-95734890D01*
X161253759Y-95715475D01*
X161252796Y-95695872D01*
X161252796Y-95295872D01*
X161253759Y-95276269D01*
X161256639Y-95256854D01*
X161261408Y-95237815D01*
X161268020Y-95219335D01*
X161276412Y-95201593D01*
X161286502Y-95184758D01*
X161298194Y-95168993D01*
X161311375Y-95154451D01*
X161325917Y-95141270D01*
X161341682Y-95129578D01*
X161358517Y-95119488D01*
X161376259Y-95111096D01*
X161394739Y-95104484D01*
X161413778Y-95099715D01*
X161433193Y-95096835D01*
X161452796Y-95095872D01*
X163202796Y-95095872D01*
X163222399Y-95096835D01*
X163222399Y-95096835D01*
G37*
D21*
X162327796Y-95495872D03*
D18*
G36*
X163222399Y-96366835D02*
G01*
X163241814Y-96369715D01*
X163260853Y-96374484D01*
X163279333Y-96381096D01*
X163297075Y-96389488D01*
X163313910Y-96399578D01*
X163329675Y-96411270D01*
X163344217Y-96424451D01*
X163357398Y-96438993D01*
X163369090Y-96454758D01*
X163379180Y-96471593D01*
X163387572Y-96489335D01*
X163394184Y-96507815D01*
X163398953Y-96526854D01*
X163401833Y-96546269D01*
X163402796Y-96565872D01*
X163402796Y-96965872D01*
X163401833Y-96985475D01*
X163398953Y-97004890D01*
X163394184Y-97023929D01*
X163387572Y-97042409D01*
X163379180Y-97060151D01*
X163369090Y-97076986D01*
X163357398Y-97092751D01*
X163344217Y-97107293D01*
X163329675Y-97120474D01*
X163313910Y-97132166D01*
X163297075Y-97142256D01*
X163279333Y-97150648D01*
X163260853Y-97157260D01*
X163241814Y-97162029D01*
X163222399Y-97164909D01*
X163202796Y-97165872D01*
X161452796Y-97165872D01*
X161433193Y-97164909D01*
X161413778Y-97162029D01*
X161394739Y-97157260D01*
X161376259Y-97150648D01*
X161358517Y-97142256D01*
X161341682Y-97132166D01*
X161325917Y-97120474D01*
X161311375Y-97107293D01*
X161298194Y-97092751D01*
X161286502Y-97076986D01*
X161276412Y-97060151D01*
X161268020Y-97042409D01*
X161261408Y-97023929D01*
X161256639Y-97004890D01*
X161253759Y-96985475D01*
X161252796Y-96965872D01*
X161252796Y-96565872D01*
X161253759Y-96546269D01*
X161256639Y-96526854D01*
X161261408Y-96507815D01*
X161268020Y-96489335D01*
X161276412Y-96471593D01*
X161286502Y-96454758D01*
X161298194Y-96438993D01*
X161311375Y-96424451D01*
X161325917Y-96411270D01*
X161341682Y-96399578D01*
X161358517Y-96389488D01*
X161376259Y-96381096D01*
X161394739Y-96374484D01*
X161413778Y-96369715D01*
X161433193Y-96366835D01*
X161452796Y-96365872D01*
X163202796Y-96365872D01*
X163222399Y-96366835D01*
X163222399Y-96366835D01*
G37*
D21*
X162327796Y-96765872D03*
D18*
G36*
X163222399Y-97636835D02*
G01*
X163241814Y-97639715D01*
X163260853Y-97644484D01*
X163279333Y-97651096D01*
X163297075Y-97659488D01*
X163313910Y-97669578D01*
X163329675Y-97681270D01*
X163344217Y-97694451D01*
X163357398Y-97708993D01*
X163369090Y-97724758D01*
X163379180Y-97741593D01*
X163387572Y-97759335D01*
X163394184Y-97777815D01*
X163398953Y-97796854D01*
X163401833Y-97816269D01*
X163402796Y-97835872D01*
X163402796Y-98235872D01*
X163401833Y-98255475D01*
X163398953Y-98274890D01*
X163394184Y-98293929D01*
X163387572Y-98312409D01*
X163379180Y-98330151D01*
X163369090Y-98346986D01*
X163357398Y-98362751D01*
X163344217Y-98377293D01*
X163329675Y-98390474D01*
X163313910Y-98402166D01*
X163297075Y-98412256D01*
X163279333Y-98420648D01*
X163260853Y-98427260D01*
X163241814Y-98432029D01*
X163222399Y-98434909D01*
X163202796Y-98435872D01*
X161452796Y-98435872D01*
X161433193Y-98434909D01*
X161413778Y-98432029D01*
X161394739Y-98427260D01*
X161376259Y-98420648D01*
X161358517Y-98412256D01*
X161341682Y-98402166D01*
X161325917Y-98390474D01*
X161311375Y-98377293D01*
X161298194Y-98362751D01*
X161286502Y-98346986D01*
X161276412Y-98330151D01*
X161268020Y-98312409D01*
X161261408Y-98293929D01*
X161256639Y-98274890D01*
X161253759Y-98255475D01*
X161252796Y-98235872D01*
X161252796Y-97835872D01*
X161253759Y-97816269D01*
X161256639Y-97796854D01*
X161261408Y-97777815D01*
X161268020Y-97759335D01*
X161276412Y-97741593D01*
X161286502Y-97724758D01*
X161298194Y-97708993D01*
X161311375Y-97694451D01*
X161325917Y-97681270D01*
X161341682Y-97669578D01*
X161358517Y-97659488D01*
X161376259Y-97651096D01*
X161394739Y-97644484D01*
X161413778Y-97639715D01*
X161433193Y-97636835D01*
X161452796Y-97635872D01*
X163202796Y-97635872D01*
X163222399Y-97636835D01*
X163222399Y-97636835D01*
G37*
D21*
X162327796Y-98035872D03*
D18*
G36*
X163222399Y-98906835D02*
G01*
X163241814Y-98909715D01*
X163260853Y-98914484D01*
X163279333Y-98921096D01*
X163297075Y-98929488D01*
X163313910Y-98939578D01*
X163329675Y-98951270D01*
X163344217Y-98964451D01*
X163357398Y-98978993D01*
X163369090Y-98994758D01*
X163379180Y-99011593D01*
X163387572Y-99029335D01*
X163394184Y-99047815D01*
X163398953Y-99066854D01*
X163401833Y-99086269D01*
X163402796Y-99105872D01*
X163402796Y-99505872D01*
X163401833Y-99525475D01*
X163398953Y-99544890D01*
X163394184Y-99563929D01*
X163387572Y-99582409D01*
X163379180Y-99600151D01*
X163369090Y-99616986D01*
X163357398Y-99632751D01*
X163344217Y-99647293D01*
X163329675Y-99660474D01*
X163313910Y-99672166D01*
X163297075Y-99682256D01*
X163279333Y-99690648D01*
X163260853Y-99697260D01*
X163241814Y-99702029D01*
X163222399Y-99704909D01*
X163202796Y-99705872D01*
X161452796Y-99705872D01*
X161433193Y-99704909D01*
X161413778Y-99702029D01*
X161394739Y-99697260D01*
X161376259Y-99690648D01*
X161358517Y-99682256D01*
X161341682Y-99672166D01*
X161325917Y-99660474D01*
X161311375Y-99647293D01*
X161298194Y-99632751D01*
X161286502Y-99616986D01*
X161276412Y-99600151D01*
X161268020Y-99582409D01*
X161261408Y-99563929D01*
X161256639Y-99544890D01*
X161253759Y-99525475D01*
X161252796Y-99505872D01*
X161252796Y-99105872D01*
X161253759Y-99086269D01*
X161256639Y-99066854D01*
X161261408Y-99047815D01*
X161268020Y-99029335D01*
X161276412Y-99011593D01*
X161286502Y-98994758D01*
X161298194Y-98978993D01*
X161311375Y-98964451D01*
X161325917Y-98951270D01*
X161341682Y-98939578D01*
X161358517Y-98929488D01*
X161376259Y-98921096D01*
X161394739Y-98914484D01*
X161413778Y-98909715D01*
X161433193Y-98906835D01*
X161452796Y-98905872D01*
X163202796Y-98905872D01*
X163222399Y-98906835D01*
X163222399Y-98906835D01*
G37*
D21*
X162327796Y-99305872D03*
D18*
G36*
X163222399Y-100176835D02*
G01*
X163241814Y-100179715D01*
X163260853Y-100184484D01*
X163279333Y-100191096D01*
X163297075Y-100199488D01*
X163313910Y-100209578D01*
X163329675Y-100221270D01*
X163344217Y-100234451D01*
X163357398Y-100248993D01*
X163369090Y-100264758D01*
X163379180Y-100281593D01*
X163387572Y-100299335D01*
X163394184Y-100317815D01*
X163398953Y-100336854D01*
X163401833Y-100356269D01*
X163402796Y-100375872D01*
X163402796Y-100775872D01*
X163401833Y-100795475D01*
X163398953Y-100814890D01*
X163394184Y-100833929D01*
X163387572Y-100852409D01*
X163379180Y-100870151D01*
X163369090Y-100886986D01*
X163357398Y-100902751D01*
X163344217Y-100917293D01*
X163329675Y-100930474D01*
X163313910Y-100942166D01*
X163297075Y-100952256D01*
X163279333Y-100960648D01*
X163260853Y-100967260D01*
X163241814Y-100972029D01*
X163222399Y-100974909D01*
X163202796Y-100975872D01*
X161452796Y-100975872D01*
X161433193Y-100974909D01*
X161413778Y-100972029D01*
X161394739Y-100967260D01*
X161376259Y-100960648D01*
X161358517Y-100952256D01*
X161341682Y-100942166D01*
X161325917Y-100930474D01*
X161311375Y-100917293D01*
X161298194Y-100902751D01*
X161286502Y-100886986D01*
X161276412Y-100870151D01*
X161268020Y-100852409D01*
X161261408Y-100833929D01*
X161256639Y-100814890D01*
X161253759Y-100795475D01*
X161252796Y-100775872D01*
X161252796Y-100375872D01*
X161253759Y-100356269D01*
X161256639Y-100336854D01*
X161261408Y-100317815D01*
X161268020Y-100299335D01*
X161276412Y-100281593D01*
X161286502Y-100264758D01*
X161298194Y-100248993D01*
X161311375Y-100234451D01*
X161325917Y-100221270D01*
X161341682Y-100209578D01*
X161358517Y-100199488D01*
X161376259Y-100191096D01*
X161394739Y-100184484D01*
X161413778Y-100179715D01*
X161433193Y-100176835D01*
X161452796Y-100175872D01*
X163202796Y-100175872D01*
X163222399Y-100176835D01*
X163222399Y-100176835D01*
G37*
D21*
X162327796Y-100575872D03*
D18*
G36*
X163222399Y-101446835D02*
G01*
X163241814Y-101449715D01*
X163260853Y-101454484D01*
X163279333Y-101461096D01*
X163297075Y-101469488D01*
X163313910Y-101479578D01*
X163329675Y-101491270D01*
X163344217Y-101504451D01*
X163357398Y-101518993D01*
X163369090Y-101534758D01*
X163379180Y-101551593D01*
X163387572Y-101569335D01*
X163394184Y-101587815D01*
X163398953Y-101606854D01*
X163401833Y-101626269D01*
X163402796Y-101645872D01*
X163402796Y-102045872D01*
X163401833Y-102065475D01*
X163398953Y-102084890D01*
X163394184Y-102103929D01*
X163387572Y-102122409D01*
X163379180Y-102140151D01*
X163369090Y-102156986D01*
X163357398Y-102172751D01*
X163344217Y-102187293D01*
X163329675Y-102200474D01*
X163313910Y-102212166D01*
X163297075Y-102222256D01*
X163279333Y-102230648D01*
X163260853Y-102237260D01*
X163241814Y-102242029D01*
X163222399Y-102244909D01*
X163202796Y-102245872D01*
X161452796Y-102245872D01*
X161433193Y-102244909D01*
X161413778Y-102242029D01*
X161394739Y-102237260D01*
X161376259Y-102230648D01*
X161358517Y-102222256D01*
X161341682Y-102212166D01*
X161325917Y-102200474D01*
X161311375Y-102187293D01*
X161298194Y-102172751D01*
X161286502Y-102156986D01*
X161276412Y-102140151D01*
X161268020Y-102122409D01*
X161261408Y-102103929D01*
X161256639Y-102084890D01*
X161253759Y-102065475D01*
X161252796Y-102045872D01*
X161252796Y-101645872D01*
X161253759Y-101626269D01*
X161256639Y-101606854D01*
X161261408Y-101587815D01*
X161268020Y-101569335D01*
X161276412Y-101551593D01*
X161286502Y-101534758D01*
X161298194Y-101518993D01*
X161311375Y-101504451D01*
X161325917Y-101491270D01*
X161341682Y-101479578D01*
X161358517Y-101469488D01*
X161376259Y-101461096D01*
X161394739Y-101454484D01*
X161413778Y-101449715D01*
X161433193Y-101446835D01*
X161452796Y-101445872D01*
X163202796Y-101445872D01*
X163222399Y-101446835D01*
X163222399Y-101446835D01*
G37*
D21*
X162327796Y-101845872D03*
D18*
G36*
X163222399Y-102716835D02*
G01*
X163241814Y-102719715D01*
X163260853Y-102724484D01*
X163279333Y-102731096D01*
X163297075Y-102739488D01*
X163313910Y-102749578D01*
X163329675Y-102761270D01*
X163344217Y-102774451D01*
X163357398Y-102788993D01*
X163369090Y-102804758D01*
X163379180Y-102821593D01*
X163387572Y-102839335D01*
X163394184Y-102857815D01*
X163398953Y-102876854D01*
X163401833Y-102896269D01*
X163402796Y-102915872D01*
X163402796Y-103315872D01*
X163401833Y-103335475D01*
X163398953Y-103354890D01*
X163394184Y-103373929D01*
X163387572Y-103392409D01*
X163379180Y-103410151D01*
X163369090Y-103426986D01*
X163357398Y-103442751D01*
X163344217Y-103457293D01*
X163329675Y-103470474D01*
X163313910Y-103482166D01*
X163297075Y-103492256D01*
X163279333Y-103500648D01*
X163260853Y-103507260D01*
X163241814Y-103512029D01*
X163222399Y-103514909D01*
X163202796Y-103515872D01*
X161452796Y-103515872D01*
X161433193Y-103514909D01*
X161413778Y-103512029D01*
X161394739Y-103507260D01*
X161376259Y-103500648D01*
X161358517Y-103492256D01*
X161341682Y-103482166D01*
X161325917Y-103470474D01*
X161311375Y-103457293D01*
X161298194Y-103442751D01*
X161286502Y-103426986D01*
X161276412Y-103410151D01*
X161268020Y-103392409D01*
X161261408Y-103373929D01*
X161256639Y-103354890D01*
X161253759Y-103335475D01*
X161252796Y-103315872D01*
X161252796Y-102915872D01*
X161253759Y-102896269D01*
X161256639Y-102876854D01*
X161261408Y-102857815D01*
X161268020Y-102839335D01*
X161276412Y-102821593D01*
X161286502Y-102804758D01*
X161298194Y-102788993D01*
X161311375Y-102774451D01*
X161325917Y-102761270D01*
X161341682Y-102749578D01*
X161358517Y-102739488D01*
X161376259Y-102731096D01*
X161394739Y-102724484D01*
X161413778Y-102719715D01*
X161433193Y-102716835D01*
X161452796Y-102715872D01*
X163202796Y-102715872D01*
X163222399Y-102716835D01*
X163222399Y-102716835D01*
G37*
D21*
X162327796Y-103115872D03*
D12*
X121828396Y-117598872D03*
M02*
